<svg width="128" height="128" viewBox="0 0 128 128" fill="none" xmlns="http://www.w3.org/2000/svg">
<g clip-path="url(#clip0_123_10185)">
<path d="M76.0078 48.5H108.008C108.836 48.5 109.508 49.1716 109.508 50V58V75C109.508 75.8284 108.836 76.5 108.008 76.5H98.0078C94.418 76.5 91.5078 79.4101 91.5078 83V88V102C91.5078 102.828 90.8362 103.5 90.0078 103.5H64.0078H38.0078C37.1794 103.5 36.5078 102.828 36.5078 102V88V83C36.5078 79.4101 33.5977 76.5 30.0078 76.5H20.0078C19.1794 76.5 18.5078 75.8284 18.5078 75V58V50C18.5078 49.1716 19.1794 48.5 20.0078 48.5H52.0078H76.0078Z" stroke="#C8CED0" stroke-width="5"/>
<path d="M49.0861 92V69.6H52.5421V88.672H63.0381V92H49.0861ZM73.1383 92.32C71.5597 92.32 70.1837 91.9573 69.0103 91.232C67.8583 90.5067 66.7703 89.2907 65.7463 87.584L68.4343 85.888C68.9677 86.6773 69.4903 87.328 70.0023 87.84C70.5357 88.3307 71.0797 88.6933 71.6343 88.928C72.189 89.1627 72.7757 89.28 73.3943 89.28C74.141 89.28 74.8343 89.0987 75.4743 88.736C76.1143 88.352 76.6263 87.8293 77.0103 87.168C77.3943 86.5067 77.5863 85.76 77.5863 84.928C77.5863 84.096 77.437 83.392 77.1383 82.816C76.8397 82.2187 76.4023 81.7707 75.8263 81.472C75.2503 81.152 74.5677 80.992 73.7783 80.992C73.4157 80.992 73.0317 81.0347 72.6263 81.12C72.2423 81.184 71.8263 81.2907 71.3783 81.44C70.9303 81.568 70.4397 81.7387 69.9063 81.952L68.9463 79.424L75.8583 71.808L76.5303 72.8H66.9943V69.6H79.8263L80.4663 70.88L73.1383 79.008L72.3383 78.176C72.509 78.0907 72.7863 78.016 73.1703 77.952C73.5757 77.8667 73.9063 77.824 74.1623 77.824C75.101 77.824 75.9757 78.0053 76.7863 78.368C77.6183 78.7093 78.333 79.2 78.9303 79.84C79.549 80.4587 80.029 81.1947 80.3703 82.048C80.733 82.88 80.9143 83.776 80.9143 84.736C80.9143 86.1867 80.5623 87.488 79.8583 88.64C79.1757 89.7707 78.2477 90.6667 77.0743 91.328C75.901 91.9893 74.589 92.32 73.1383 92.32Z" fill="#FBFEF9"/>
<path d="M64.949 39.498C64.3608 39.8118 63.6549 39.8118 63.0666 39.498L41.0666 27.7647C39.2295 26.7849 39.9257 24 42.0078 24L86.0078 24C88.0899 24 88.7861 26.7849 86.949 27.7647L64.949 39.498Z" fill="#FBFEF9"/>
</g>
<defs>
<clipPath id="clip0_123_10185">
<rect width="128" height="128" fill="white" transform="translate(0.0078125)"/>
</clipPath>
</defs>
</svg>
