<svg width="128" height="128" viewBox="0 0 128 128" fill="none" xmlns="http://www.w3.org/2000/svg">
<path d="M48 25H80H112C119.18 25 125 30.8203 125 38V38.8V55.6V90C125 97.1797 119.18 103 112 103H80H64H48H16C8.8203 103 3 97.1797 3 90V55.6V38C3 30.8203 8.8203 25 16 25H48Z" stroke="#C8CED0" stroke-width="6"/>
<path d="M13.232 67V57.2H15.612V64.9H19.98V67H13.232ZM21.7633 67V57.2H28.5953V59.23H24.0733V64.97H28.7353V67H21.7633ZM22.8833 62.982V61.05H27.9653V62.982H22.8833ZM30.7867 67V57.2H33.1667V67H30.7867ZM31.8927 63.248V61.26H36.9607V63.248H31.8927ZM31.8927 59.3V57.2H37.5347V59.3H31.8927ZM41.7741 67V59.3H38.8621V57.2H47.1361V59.3H44.1541V67H41.7741ZM19.68 91.24C18.576 91.24 17.576 91.112 16.68 90.856C15.8 90.584 15.016 90.2 14.328 89.704C13.64 89.192 13.024 88.592 12.48 87.904L14.952 85.096C15.752 86.168 16.552 86.888 17.352 87.256C18.168 87.624 19.008 87.808 19.872 87.808C20.304 87.808 20.696 87.752 21.048 87.64C21.4 87.528 21.672 87.368 21.864 87.16C22.056 86.936 22.152 86.664 22.152 86.344C22.152 86.104 22.088 85.888 21.96 85.696C21.848 85.504 21.688 85.336 21.48 85.192C21.272 85.048 21.024 84.92 20.736 84.808C20.448 84.68 20.144 84.576 19.824 84.496C19.504 84.4 19.176 84.32 18.84 84.256C17.912 84.048 17.104 83.792 16.416 83.488C15.728 83.184 15.152 82.816 14.688 82.384C14.24 81.936 13.904 81.432 13.68 80.872C13.456 80.296 13.344 79.656 13.344 78.952C13.344 78.2 13.512 77.512 13.848 76.888C14.2 76.248 14.664 75.704 15.24 75.256C15.832 74.792 16.512 74.44 17.28 74.2C18.048 73.944 18.848 73.816 19.68 73.816C20.784 73.816 21.728 73.936 22.512 74.176C23.312 74.4 23.992 74.728 24.552 75.16C25.128 75.592 25.616 76.112 26.016 76.72L23.496 79.144C23.16 78.728 22.792 78.384 22.392 78.112C22.008 77.84 21.592 77.632 21.144 77.488C20.712 77.344 20.264 77.272 19.8 77.272C19.32 77.272 18.904 77.336 18.552 77.464C18.216 77.576 17.952 77.744 17.76 77.968C17.568 78.176 17.472 78.432 17.472 78.736C17.472 79.008 17.552 79.24 17.712 79.432C17.872 79.624 18.088 79.8 18.36 79.96C18.632 80.104 18.944 80.232 19.296 80.344C19.648 80.44 20.016 80.52 20.4 80.584C21.28 80.76 22.072 80.992 22.776 81.28C23.496 81.568 24.112 81.92 24.624 82.336C25.152 82.752 25.552 83.248 25.824 83.824C26.112 84.384 26.256 85.04 26.256 85.792C26.256 86.96 25.968 87.952 25.392 88.768C24.832 89.568 24.056 90.184 23.064 90.616C22.088 91.032 20.96 91.24 19.68 91.24ZM39.7389 91V74.2H43.8189V91H39.7389ZM29.3229 91V74.2H33.4029V91H29.3229ZM30.9069 84.448L30.9309 80.8H41.8989V84.448H30.9069ZM47.6901 91V87.568H50.5221V77.632H47.6901V74.2H57.4581V77.632H54.6021V87.568H57.4581V91H47.6901ZM61.3386 91V74.2H65.4186V91H61.3386ZM63.2346 84.568V81.16H71.9226V84.568H63.2346ZM63.2346 77.8V74.2H72.9066V77.8H63.2346ZM80.1741 91V77.8H75.1821V74.2H89.3661V77.8H84.2541V91H80.1741Z" fill="#FBFEF9"/>
<path d="M83.1335 52.1136L98.3267 36.9091L113.531 52.1136H105.963V62H90.6903V52.1136H83.1335ZM90.6676 49.25H94.4403V59.1364H102.224V49.25H105.997L98.3267 41.5795L90.6676 49.25Z" fill="#FBFEF9"/>
</svg>
