<svg width="128" height="128" viewBox="0 0 128 128" fill="none" xmlns="http://www.w3.org/2000/svg">
<path d="M52 11H76H96C103.18 11 109 16.8203 109 24V30.4V52.8V104C109 111.18 103.18 117 96 117H76H64H52H32C24.8203 117 19 111.18 19 104V52.8V24C19 16.8203 24.8203 11 32 11H52Z" stroke="#C8CED0" stroke-width="6"/>
<path d="M47.4381 47V37.2H49.8181V44.9H54.1861V47H47.4381ZM55.9693 47V37.2H62.8013V39.23H58.2793V44.97H62.9413V47H55.9693ZM57.0893 42.982V41.05H62.1713V42.982H57.0893ZM64.9927 47V37.2H67.3727V47H64.9927ZM66.0987 43.248V41.26H71.1667V43.248H66.0987ZM66.0987 39.3V37.2H71.7407V39.3H66.0987ZM75.9801 47V39.3H73.0681V37.2H81.3421V39.3H78.3601V47H75.9801ZM33.968 87L42.832 64.6H47.44L56.24 87H50.736L46.512 75.64C46.3413 75.192 46.1707 74.712 46 74.2C45.8293 73.688 45.6587 73.1653 45.488 72.632C45.3173 72.0773 45.1467 71.544 44.976 71.032C44.8267 70.4987 44.6987 70.008 44.592 69.56L45.552 69.528C45.424 70.0613 45.2747 70.584 45.104 71.096C44.9547 71.608 44.7947 72.12 44.624 72.632C44.4747 73.1227 44.304 73.624 44.112 74.136C43.92 74.6267 43.7387 75.1387 43.568 75.672L39.344 87H33.968ZM38.192 82.712L39.888 78.616H50.192L51.856 82.712H38.192ZM59.0348 87V64.6H64.4748V82.2H74.4588V87H59.0348ZM80.7113 87V69.4H74.0553V64.6H92.9673V69.4H86.1513V87H80.7113Z" fill="#FBFEF9"/>
</svg>
