<svg width="128" height="128" viewBox="0 0 128 128" fill="none" xmlns="http://www.w3.org/2000/svg">
<path d="M52 11H76H96C103.18 11 109 16.8203 109 24V30.4V52.8V104C109 111.18 103.18 117 96 117H76H64H52H32C24.8203 117 19 111.18 19 104V52.8V24C19 16.8203 24.8203 11 32 11H52Z" stroke="#C8CED0" stroke-width="6"/>
<path d="M37.9517 94.15C37.1517 94.15 36.4217 94.015 35.7617 93.745C35.1017 93.475 34.5267 93.095 34.0367 92.605C33.5467 92.115 33.1667 91.54 32.8967 90.88C32.6267 90.22 32.4917 89.495 32.4917 88.705C32.4917 87.915 32.6267 87.19 32.8967 86.53C33.1667 85.87 33.5467 85.295 34.0367 84.805C34.5267 84.315 35.1017 83.935 35.7617 83.665C36.4217 83.395 37.1467 83.26 37.9367 83.26C38.7267 83.26 39.4517 83.395 40.1117 83.665C40.7717 83.935 41.3467 84.315 41.8367 84.805C42.3267 85.295 42.7017 85.87 42.9617 86.53C43.2317 87.19 43.3667 87.915 43.3667 88.705C43.3667 89.485 43.2317 90.21 42.9617 90.88C42.7017 91.54 42.3267 92.115 41.8367 92.605C41.3467 93.095 40.7717 93.475 40.1117 93.745C39.4517 94.015 38.7317 94.15 37.9517 94.15ZM37.9367 91.75C38.3467 91.75 38.7217 91.675 39.0617 91.525C39.4117 91.375 39.7117 91.165 39.9617 90.895C40.2217 90.615 40.4217 90.29 40.5617 89.92C40.7017 89.55 40.7717 89.145 40.7717 88.705C40.7717 88.265 40.7017 87.86 40.5617 87.49C40.4217 87.12 40.2217 86.8 39.9617 86.53C39.7117 86.25 39.4117 86.035 39.0617 85.885C38.7217 85.735 38.3467 85.66 37.9367 85.66C37.5267 85.66 37.1467 85.735 36.7967 85.885C36.4567 86.035 36.1567 86.25 35.8967 86.53C35.6367 86.8 35.4367 87.12 35.2967 87.49C35.1667 87.86 35.1017 88.265 35.1017 88.705C35.1017 89.145 35.1667 89.555 35.2967 89.935C35.4367 90.305 35.6367 90.625 35.8967 90.895C36.1567 91.165 36.4567 91.375 36.7967 91.525C37.1467 91.675 37.5267 91.75 37.9367 91.75ZM45.3395 94V83.5H49.8695C50.5295 83.5 51.1145 83.65 51.6245 83.95C52.1445 84.25 52.5545 84.66 52.8545 85.18C53.1645 85.7 53.3195 86.285 53.3195 86.935C53.3195 87.615 53.1645 88.225 52.8545 88.765C52.5545 89.295 52.1445 89.715 51.6245 90.025C51.1145 90.335 50.5295 90.49 49.8695 90.49H47.8895V94H45.3395ZM47.8445 88.255H49.5095C49.7295 88.255 49.9295 88.2 50.1095 88.09C50.2895 87.98 50.4345 87.83 50.5445 87.64C50.6545 87.45 50.7095 87.23 50.7095 86.98C50.7095 86.72 50.6545 86.5 50.5445 86.32C50.4345 86.14 50.2895 86 50.1095 85.9C49.9295 85.8 49.7295 85.75 49.5095 85.75H47.8445V88.255ZM57.5512 94V85.75H54.4312V83.5H63.2962V85.75H60.1012V94H57.5512ZM64.8903 94V91.855H66.6603V85.645H64.8903V83.5H70.9953V85.645H69.2103V91.855H70.9953V94H64.8903ZM77.9859 94.15C77.1859 94.15 76.4559 94.015 75.7959 93.745C75.1359 93.475 74.5609 93.095 74.0709 92.605C73.5809 92.115 73.2009 91.54 72.9309 90.88C72.6609 90.22 72.5259 89.495 72.5259 88.705C72.5259 87.915 72.6609 87.19 72.9309 86.53C73.2009 85.87 73.5809 85.295 74.0709 84.805C74.5609 84.315 75.1359 83.935 75.7959 83.665C76.4559 83.395 77.1809 83.26 77.9709 83.26C78.7609 83.26 79.4859 83.395 80.1459 83.665C80.8059 83.935 81.3809 84.315 81.8709 84.805C82.3609 85.295 82.7359 85.87 82.9959 86.53C83.2659 87.19 83.4009 87.915 83.4009 88.705C83.4009 89.485 83.2659 90.21 82.9959 90.88C82.7359 91.54 82.3609 92.115 81.8709 92.605C81.3809 93.095 80.8059 93.475 80.1459 93.745C79.4859 94.015 78.7659 94.15 77.9859 94.15ZM77.9709 91.75C78.3809 91.75 78.7559 91.675 79.0959 91.525C79.4459 91.375 79.7459 91.165 79.9959 90.895C80.2559 90.615 80.4559 90.29 80.5959 89.92C80.7359 89.55 80.8059 89.145 80.8059 88.705C80.8059 88.265 80.7359 87.86 80.5959 87.49C80.4559 87.12 80.2559 86.8 79.9959 86.53C79.7459 86.25 79.4459 86.035 79.0959 85.885C78.7559 85.735 78.3809 85.66 77.9709 85.66C77.5609 85.66 77.1809 85.735 76.8309 85.885C76.4909 86.035 76.1909 86.25 75.9309 86.53C75.6709 86.8 75.4709 87.12 75.3309 87.49C75.2009 87.86 75.1359 88.265 75.1359 88.705C75.1359 89.145 75.2009 89.555 75.3309 89.935C75.4709 90.305 75.6709 90.625 75.9309 90.895C76.1909 91.165 76.4909 91.375 76.8309 91.525C77.1809 91.675 77.5609 91.75 77.9709 91.75ZM85.3737 94V83.5H87.6537L93.1587 91L92.6637 90.925C92.6137 90.595 92.5737 90.28 92.5437 89.98C92.5137 89.68 92.4837 89.385 92.4537 89.095C92.4337 88.805 92.4137 88.51 92.3937 88.21C92.3837 87.91 92.3737 87.585 92.3637 87.235C92.3637 86.885 92.3637 86.505 92.3637 86.095V83.5H94.8387V94H92.5287L86.7837 86.26L87.5487 86.365C87.5987 86.845 87.6387 87.255 87.6687 87.595C87.7087 87.925 87.7387 88.22 87.7587 88.48C87.7887 88.74 87.8087 88.975 87.8187 89.185C87.8287 89.395 87.8337 89.605 87.8337 89.815C87.8437 90.015 87.8487 90.24 87.8487 90.49V94H85.3737Z" fill="#FBFEF9"/>
<path d="M67.8587 22.0909H84.1882V27.8523H67.8587V22.0909ZM43.8246 27.8523V22.0909H58.3132L73.0405 51.2386H84.1882V57H69.6996L54.9893 27.8523H43.8246Z" fill="#FBFEF9"/>
</svg>
