<svg width="128" height="128" viewBox="0 0 128 128" fill="none" xmlns="http://www.w3.org/2000/svg">
<path d="M52 11H76H96C103.18 11 109 16.8203 109 24V30.4V52.8V104C109 111.18 103.18 117 96 117H76H64H52H32C24.8203 117 19 111.18 19 104V52.8V24C19 16.8203 24.8203 11 32 11H52Z" stroke="#C8CED0" stroke-width="6"/>
<path d="M37.9517 66.15C37.1517 66.15 36.4217 66.015 35.7617 65.745C35.1017 65.475 34.5267 65.095 34.0367 64.605C33.5467 64.115 33.1667 63.54 32.8967 62.88C32.6267 62.22 32.4917 61.495 32.4917 60.705C32.4917 59.915 32.6267 59.19 32.8967 58.53C33.1667 57.87 33.5467 57.295 34.0367 56.805C34.5267 56.315 35.1017 55.935 35.7617 55.665C36.4217 55.395 37.1467 55.26 37.9367 55.26C38.7267 55.26 39.4517 55.395 40.1117 55.665C40.7717 55.935 41.3467 56.315 41.8367 56.805C42.3267 57.295 42.7017 57.87 42.9617 58.53C43.2317 59.19 43.3667 59.915 43.3667 60.705C43.3667 61.485 43.2317 62.21 42.9617 62.88C42.7017 63.54 42.3267 64.115 41.8367 64.605C41.3467 65.095 40.7717 65.475 40.1117 65.745C39.4517 66.015 38.7317 66.15 37.9517 66.15ZM37.9367 63.75C38.3467 63.75 38.7217 63.675 39.0617 63.525C39.4117 63.375 39.7117 63.165 39.9617 62.895C40.2217 62.615 40.4217 62.29 40.5617 61.92C40.7017 61.55 40.7717 61.145 40.7717 60.705C40.7717 60.265 40.7017 59.86 40.5617 59.49C40.4217 59.12 40.2217 58.8 39.9617 58.53C39.7117 58.25 39.4117 58.035 39.0617 57.885C38.7217 57.735 38.3467 57.66 37.9367 57.66C37.5267 57.66 37.1467 57.735 36.7967 57.885C36.4567 58.035 36.1567 58.25 35.8967 58.53C35.6367 58.8 35.4367 59.12 35.2967 59.49C35.1667 59.86 35.1017 60.265 35.1017 60.705C35.1017 61.145 35.1667 61.555 35.2967 61.935C35.4367 62.305 35.6367 62.625 35.8967 62.895C36.1567 63.165 36.4567 63.375 36.7967 63.525C37.1467 63.675 37.5267 63.75 37.9367 63.75ZM45.3395 66V55.5H49.8695C50.5295 55.5 51.1145 55.65 51.6245 55.95C52.1445 56.25 52.5545 56.66 52.8545 57.18C53.1645 57.7 53.3195 58.285 53.3195 58.935C53.3195 59.615 53.1645 60.225 52.8545 60.765C52.5545 61.295 52.1445 61.715 51.6245 62.025C51.1145 62.335 50.5295 62.49 49.8695 62.49H47.8895V66H45.3395ZM47.8445 60.255H49.5095C49.7295 60.255 49.9295 60.2 50.1095 60.09C50.2895 59.98 50.4345 59.83 50.5445 59.64C50.6545 59.45 50.7095 59.23 50.7095 58.98C50.7095 58.72 50.6545 58.5 50.5445 58.32C50.4345 58.14 50.2895 58 50.1095 57.9C49.9295 57.8 49.7295 57.75 49.5095 57.75H47.8445V60.255ZM57.5512 66V57.75H54.4312V55.5H63.2962V57.75H60.1012V66H57.5512ZM64.8903 66V63.855H66.6603V57.645H64.8903V55.5H70.9953V57.645H69.2103V63.855H70.9953V66H64.8903ZM77.9859 66.15C77.1859 66.15 76.4559 66.015 75.7959 65.745C75.1359 65.475 74.5609 65.095 74.0709 64.605C73.5809 64.115 73.2009 63.54 72.9309 62.88C72.6609 62.22 72.5259 61.495 72.5259 60.705C72.5259 59.915 72.6609 59.19 72.9309 58.53C73.2009 57.87 73.5809 57.295 74.0709 56.805C74.5609 56.315 75.1359 55.935 75.7959 55.665C76.4559 55.395 77.1809 55.26 77.9709 55.26C78.7609 55.26 79.4859 55.395 80.1459 55.665C80.8059 55.935 81.3809 56.315 81.8709 56.805C82.3609 57.295 82.7359 57.87 82.9959 58.53C83.2659 59.19 83.4009 59.915 83.4009 60.705C83.4009 61.485 83.2659 62.21 82.9959 62.88C82.7359 63.54 82.3609 64.115 81.8709 64.605C81.3809 65.095 80.8059 65.475 80.1459 65.745C79.4859 66.015 78.7659 66.15 77.9859 66.15ZM77.9709 63.75C78.3809 63.75 78.7559 63.675 79.0959 63.525C79.4459 63.375 79.7459 63.165 79.9959 62.895C80.2559 62.615 80.4559 62.29 80.5959 61.92C80.7359 61.55 80.8059 61.145 80.8059 60.705C80.8059 60.265 80.7359 59.86 80.5959 59.49C80.4559 59.12 80.2559 58.8 79.9959 58.53C79.7459 58.25 79.4459 58.035 79.0959 57.885C78.7559 57.735 78.3809 57.66 77.9709 57.66C77.5609 57.66 77.1809 57.735 76.8309 57.885C76.4909 58.035 76.1909 58.25 75.9309 58.53C75.6709 58.8 75.4709 59.12 75.3309 59.49C75.2009 59.86 75.1359 60.265 75.1359 60.705C75.1359 61.145 75.2009 61.555 75.3309 61.935C75.4709 62.305 75.6709 62.625 75.9309 62.895C76.1909 63.165 76.4909 63.375 76.8309 63.525C77.1809 63.675 77.5609 63.75 77.9709 63.75ZM85.3737 66V55.5H87.6537L93.1587 63L92.6637 62.925C92.6137 62.595 92.5737 62.28 92.5437 61.98C92.5137 61.68 92.4837 61.385 92.4537 61.095C92.4337 60.805 92.4137 60.51 92.3937 60.21C92.3837 59.91 92.3737 59.585 92.3637 59.235C92.3637 58.885 92.3637 58.505 92.3637 58.095V55.5H94.8387V66H92.5287L86.7837 58.26L87.5487 58.365C87.5987 58.845 87.6387 59.255 87.6687 59.595C87.7087 59.925 87.7387 60.22 87.7587 60.48C87.7887 60.74 87.8087 60.975 87.8187 61.185C87.8287 61.395 87.8337 61.605 87.8337 61.815C87.8437 62.015 87.8487 62.24 87.8487 62.49V66H85.3737Z" fill="#FBFEF9"/>
</svg>
