<svg width="128" height="128" viewBox="0 0 128 128" fill="none" xmlns="http://www.w3.org/2000/svg">
<path d="M52 11H76H96C103.18 11 109 16.8203 109 24V30.4V52.8V104C109 111.18 103.18 117 96 117H76H64H52H32C24.8203 117 19 111.18 19 104V52.8V24C19 16.8203 24.8203 11 32 11H52Z" stroke="#C8CED0" stroke-width="6"/>
<path d="M41.0191 47V37.2H45.4291C46.0544 37.2 46.6191 37.3353 47.1231 37.606C47.6364 37.8767 48.0378 38.25 48.3271 38.726C48.6164 39.1927 48.7611 39.7247 48.7611 40.322C48.7611 40.938 48.6164 41.4933 48.3271 41.988C48.0378 42.4733 47.6411 42.856 47.1371 43.136C46.6331 43.416 46.0638 43.556 45.4291 43.556H43.2871V47H41.0191ZM46.4511 47L43.9591 42.576L46.3951 42.226L49.1671 47H46.4511ZM43.2871 41.736H45.2191C45.4618 41.736 45.6718 41.6847 45.8491 41.582C46.0358 41.47 46.1758 41.316 46.2691 41.12C46.3718 40.924 46.4231 40.7 46.4231 40.448C46.4231 40.196 46.3671 39.9767 46.2551 39.79C46.1431 39.594 45.9798 39.4447 45.7651 39.342C45.5598 39.2393 45.3078 39.188 45.0091 39.188H43.2871V41.736ZM50.6532 47V44.998H52.3052V39.202H50.6532V37.2H56.3512V39.202H54.6852V44.998H56.3512V47H50.6532ZM62.9597 47.14C62.1757 47.14 61.4664 47.014 60.8317 46.762C60.1971 46.51 59.6511 46.1553 59.1937 45.698C58.7364 45.2407 58.3864 44.704 58.1437 44.088C57.9011 43.4627 57.7797 42.786 57.7797 42.058C57.7797 41.33 57.9057 40.6627 58.1577 40.056C58.4191 39.44 58.7877 38.9033 59.2637 38.446C59.7397 37.9887 60.2997 37.634 60.9437 37.382C61.5971 37.13 62.3064 37.004 63.0717 37.004C63.6131 37.004 64.1217 37.074 64.5977 37.214C65.0831 37.354 65.5217 37.5453 65.9137 37.788C66.3057 38.0307 66.6371 38.3107 66.9077 38.628L65.4657 40.154C65.2324 39.93 64.9897 39.7433 64.7377 39.594C64.4951 39.4447 64.2337 39.328 63.9537 39.244C63.6737 39.1507 63.3751 39.104 63.0577 39.104C62.6471 39.104 62.2691 39.1787 61.9237 39.328C61.5877 39.4773 61.2891 39.6873 61.0277 39.958C60.7757 40.2193 60.5797 40.532 60.4397 40.896C60.2997 41.2507 60.2297 41.638 60.2297 42.058C60.2297 42.478 60.3044 42.87 60.4537 43.234C60.6031 43.598 60.8084 43.9153 61.0697 44.186C61.3311 44.4473 61.6391 44.6573 61.9937 44.816C62.3577 44.9653 62.7451 45.04 63.1557 45.04C63.4451 45.04 63.7157 44.9933 63.9677 44.9C64.2291 44.8067 64.4531 44.6807 64.6397 44.522C64.8264 44.3633 64.9757 44.1767 65.0877 43.962C65.1997 43.738 65.2557 43.5 65.2557 43.248V42.884L65.5637 43.36H62.8617V41.498H67.4677C67.4864 41.6007 67.5004 41.7407 67.5097 41.918C67.5191 42.0953 67.5237 42.268 67.5237 42.436C67.5331 42.604 67.5377 42.73 67.5377 42.814C67.5377 43.4487 67.4211 44.032 67.1877 44.564C66.9637 45.0867 66.6464 45.5393 66.2357 45.922C65.8251 46.3047 65.3397 46.6033 64.7797 46.818C64.2197 47.0327 63.6131 47.14 62.9597 47.14ZM75.4369 47V37.2H77.8169V47H75.4369ZM69.3609 47V37.2H71.7409V47H69.3609ZM70.2849 43.178L70.2989 41.05H76.6969V43.178H70.2849ZM82.3991 47V39.3H79.4871V37.2H87.7611V39.3H84.7791V47H82.3991ZM33.968 87L42.832 64.6H47.44L56.24 87H50.736L46.512 75.64C46.3413 75.192 46.1707 74.712 46 74.2C45.8293 73.688 45.6587 73.1653 45.488 72.632C45.3173 72.0773 45.1467 71.544 44.976 71.032C44.8267 70.4987 44.6987 70.008 44.592 69.56L45.552 69.528C45.424 70.0613 45.2747 70.584 45.104 71.096C44.9547 71.608 44.7947 72.12 44.624 72.632C44.4747 73.1227 44.304 73.624 44.112 74.136C43.92 74.6267 43.7387 75.1387 43.568 75.672L39.344 87H33.968ZM38.192 82.712L39.888 78.616H50.192L51.856 82.712H38.192ZM59.0348 87V64.6H64.4748V82.2H74.4588V87H59.0348ZM80.7113 87V69.4H74.0553V64.6H92.9673V69.4H86.1513V87H80.7113Z" fill="#FBFEF9"/>
</svg>
