<svg width="128" height="128" viewBox="0 0 128 128" fill="none" xmlns="http://www.w3.org/2000/svg">
<path d="M52 11H76H96C103.18 11 109 16.8203 109 24V30.4V52.8V104C109 111.18 103.18 117 96 117H76H64H52H32C24.8203 117 19 111.18 19 104V52.8V24C19 16.8203 24.8203 11 32 11H52Z" stroke="#C8CED0" stroke-width="6"/>
<path d="M41.0191 53V43.2H45.4291C46.0544 43.2 46.6191 43.3353 47.1231 43.606C47.6364 43.8767 48.0378 44.25 48.3271 44.726C48.6164 45.1927 48.7611 45.7247 48.7611 46.322C48.7611 46.938 48.6164 47.4933 48.3271 47.988C48.0378 48.4733 47.6411 48.856 47.1371 49.136C46.6331 49.416 46.0638 49.556 45.4291 49.556H43.2871V53H41.0191ZM46.4511 53L43.9591 48.576L46.3951 48.226L49.1671 53H46.4511ZM43.2871 47.736H45.2191C45.4618 47.736 45.6718 47.6847 45.8491 47.582C46.0358 47.47 46.1758 47.316 46.2691 47.12C46.3718 46.924 46.4231 46.7 46.4231 46.448C46.4231 46.196 46.3671 45.9767 46.2551 45.79C46.1431 45.594 45.9798 45.4447 45.7651 45.342C45.5598 45.2393 45.3078 45.188 45.0091 45.188H43.2871V47.736ZM50.6532 53V50.998H52.3052V45.202H50.6532V43.2H56.3512V45.202H54.6852V50.998H56.3512V53H50.6532ZM62.9597 53.14C62.1757 53.14 61.4664 53.014 60.8317 52.762C60.1971 52.51 59.6511 52.1553 59.1937 51.698C58.7364 51.2407 58.3864 50.704 58.1437 50.088C57.9011 49.4627 57.7797 48.786 57.7797 48.058C57.7797 47.33 57.9057 46.6627 58.1577 46.056C58.4191 45.44 58.7877 44.9033 59.2637 44.446C59.7397 43.9887 60.2997 43.634 60.9437 43.382C61.5971 43.13 62.3064 43.004 63.0717 43.004C63.6131 43.004 64.1217 43.074 64.5977 43.214C65.0831 43.354 65.5217 43.5453 65.9137 43.788C66.3057 44.0307 66.6371 44.3107 66.9077 44.628L65.4657 46.154C65.2324 45.93 64.9897 45.7433 64.7377 45.594C64.4951 45.4447 64.2337 45.328 63.9537 45.244C63.6737 45.1507 63.3751 45.104 63.0577 45.104C62.6471 45.104 62.2691 45.1787 61.9237 45.328C61.5877 45.4773 61.2891 45.6873 61.0277 45.958C60.7757 46.2193 60.5797 46.532 60.4397 46.896C60.2997 47.2507 60.2297 47.638 60.2297 48.058C60.2297 48.478 60.3044 48.87 60.4537 49.234C60.6031 49.598 60.8084 49.9153 61.0697 50.186C61.3311 50.4473 61.6391 50.6573 61.9937 50.816C62.3577 50.9653 62.7451 51.04 63.1557 51.04C63.4451 51.04 63.7157 50.9933 63.9677 50.9C64.2291 50.8067 64.4531 50.6807 64.6397 50.522C64.8264 50.3633 64.9757 50.1767 65.0877 49.962C65.1997 49.738 65.2557 49.5 65.2557 49.248V48.884L65.5637 49.36H62.8617V47.498H67.4677C67.4864 47.6007 67.5004 47.7407 67.5097 47.918C67.5191 48.0953 67.5237 48.268 67.5237 48.436C67.5331 48.604 67.5377 48.73 67.5377 48.814C67.5377 49.4487 67.4211 50.032 67.1877 50.564C66.9637 51.0867 66.6464 51.5393 66.2357 51.922C65.8251 52.3047 65.3397 52.6033 64.7797 52.818C64.2197 53.0327 63.6131 53.14 62.9597 53.14ZM75.4369 53V43.2H77.8169V53H75.4369ZM69.3609 53V43.2H71.7409V53H69.3609ZM70.2849 49.178L70.2989 47.05H76.6969V49.178H70.2849ZM82.3991 53V45.3H79.4871V43.2H87.7611V45.3H84.7791V53H82.3991ZM42.0448 83.24C40.7808 83.24 39.6128 83.032 38.5408 82.616C37.4848 82.184 36.5648 81.584 35.7808 80.816C34.9968 80.032 34.3888 79.112 33.9568 78.056C33.5408 76.984 33.3328 75.808 33.3328 74.528C33.3328 73.28 33.5568 72.128 34.0048 71.072C34.4528 70.016 35.0688 69.104 35.8528 68.336C36.6528 67.552 37.5888 66.944 38.6608 66.512C39.7488 66.08 40.9328 65.864 42.2128 65.864C43.0128 65.864 43.7968 65.968 44.5648 66.176C45.3328 66.384 46.0448 66.696 46.7008 67.112C47.3728 67.512 47.9488 67.992 48.4288 68.552L45.9328 71.408C45.5968 71.056 45.2368 70.752 44.8528 70.496C44.4848 70.224 44.0768 70.016 43.6288 69.872C43.1808 69.728 42.7008 69.656 42.1888 69.656C41.5488 69.656 40.9408 69.776 40.3648 70.016C39.8048 70.24 39.3088 70.568 38.8768 71C38.4608 71.416 38.1328 71.928 37.8928 72.536C37.6528 73.144 37.5328 73.824 37.5328 74.576C37.5328 75.312 37.6528 75.984 37.8928 76.592C38.1328 77.184 38.4688 77.696 38.9008 78.128C39.3328 78.56 39.8528 78.888 40.4608 79.112C41.0848 79.336 41.7728 79.448 42.5248 79.448C43.0368 79.448 43.5248 79.376 43.9888 79.232C44.4528 79.088 44.8768 78.896 45.2608 78.656C45.6608 78.4 46.0128 78.112 46.3168 77.792L48.2848 80.912C47.8848 81.36 47.3488 81.76 46.6768 82.112C46.0208 82.464 45.2848 82.744 44.4688 82.952C43.6688 83.144 42.8608 83.24 42.0448 83.24ZM51.0768 83V66.2H58.6368C59.7088 66.2 60.6768 66.432 61.5408 66.896C62.4208 67.36 63.1088 68 63.6048 68.816C64.1008 69.616 64.3488 70.528 64.3488 71.552C64.3488 72.608 64.1008 73.56 63.6048 74.408C63.1088 75.24 62.4288 75.896 61.5648 76.376C60.7008 76.856 59.7248 77.096 58.6368 77.096H54.9648V83H51.0768ZM60.3888 83L56.1168 75.416L60.2928 74.816L65.0448 83H60.3888ZM54.9648 73.976H58.2768C58.6928 73.976 59.0528 73.888 59.3568 73.712C59.6768 73.52 59.9168 73.256 60.0768 72.92C60.2528 72.584 60.3408 72.2 60.3408 71.768C60.3408 71.336 60.2448 70.96 60.0528 70.64C59.8608 70.304 59.5808 70.048 59.2128 69.872C58.8608 69.696 58.4288 69.608 57.9168 69.608H54.9648V73.976ZM71.1077 83V69.8H66.1157V66.2H80.2997V69.8H75.1877V83H71.1077ZM83.1862 83V66.2H87.2662V79.4H94.7542V83H83.1862Z" fill="#FBFEF9"/>
</svg>
