<svg width="128" height="128" viewBox="0 0 128 128" fill="none" xmlns="http://www.w3.org/2000/svg">
<path d="M48 25H80H112C119.18 25 125 30.8203 125 38V38.8V55.6V90C125 97.1797 119.18 103 112 103H80H64H48H16C8.8203 103 3 97.1797 3 90V55.6V38C3 30.8203 8.8203 25 16 25H48Z" stroke="#C8CED0" stroke-width="6"/>
<path d="M19.68 73.24C18.576 73.24 17.576 73.112 16.68 72.856C15.8 72.584 15.016 72.2 14.328 71.704C13.64 71.192 13.024 70.592 12.48 69.904L14.952 67.096C15.752 68.168 16.552 68.888 17.352 69.256C18.168 69.624 19.008 69.808 19.872 69.808C20.304 69.808 20.696 69.752 21.048 69.64C21.4 69.528 21.672 69.368 21.864 69.16C22.056 68.936 22.152 68.664 22.152 68.344C22.152 68.104 22.088 67.888 21.96 67.696C21.848 67.504 21.688 67.336 21.48 67.192C21.272 67.048 21.024 66.92 20.736 66.808C20.448 66.68 20.144 66.576 19.824 66.496C19.504 66.4 19.176 66.32 18.84 66.256C17.912 66.048 17.104 65.792 16.416 65.488C15.728 65.184 15.152 64.816 14.688 64.384C14.24 63.936 13.904 63.432 13.68 62.872C13.456 62.296 13.344 61.656 13.344 60.952C13.344 60.2 13.512 59.512 13.848 58.888C14.2 58.248 14.664 57.704 15.24 57.256C15.832 56.792 16.512 56.44 17.28 56.2C18.048 55.944 18.848 55.816 19.68 55.816C20.784 55.816 21.728 55.936 22.512 56.176C23.312 56.4 23.992 56.728 24.552 57.16C25.128 57.592 25.616 58.112 26.016 58.72L23.496 61.144C23.16 60.728 22.792 60.384 22.392 60.112C22.008 59.84 21.592 59.632 21.144 59.488C20.712 59.344 20.264 59.272 19.8 59.272C19.32 59.272 18.904 59.336 18.552 59.464C18.216 59.576 17.952 59.744 17.76 59.968C17.568 60.176 17.472 60.432 17.472 60.736C17.472 61.008 17.552 61.24 17.712 61.432C17.872 61.624 18.088 61.8 18.36 61.96C18.632 62.104 18.944 62.232 19.296 62.344C19.648 62.44 20.016 62.52 20.4 62.584C21.28 62.76 22.072 62.992 22.776 63.28C23.496 63.568 24.112 63.92 24.624 64.336C25.152 64.752 25.552 65.248 25.824 65.824C26.112 66.384 26.256 67.04 26.256 67.792C26.256 68.96 25.968 69.952 25.392 70.768C24.832 71.568 24.056 72.184 23.064 72.616C22.088 73.032 20.96 73.24 19.68 73.24ZM39.7389 73V56.2H43.8189V73H39.7389ZM29.3229 73V56.2H33.4029V73H29.3229ZM30.9069 66.448L30.9309 62.8H41.8989V66.448H30.9069ZM47.6901 73V69.568H50.5221V59.632H47.6901V56.2H57.4581V59.632H54.6021V69.568H57.4581V73H47.6901ZM61.3386 73V56.2H65.4186V73H61.3386ZM63.2346 66.568V63.16H71.9226V66.568H63.2346ZM63.2346 59.8V56.2H72.9066V59.8H63.2346ZM80.1741 73V59.8H75.1821V56.2H89.3661V59.8H84.2541V73H80.1741Z" fill="#FBFEF9"/>
</svg>
