<svg width="128" height="128" viewBox="0 0 128 128" fill="none" xmlns="http://www.w3.org/2000/svg">
<circle cx="64" cy="64" r="45" stroke="#C8CED0" stroke-width="6"/>
<path d="M47.9153 81.6357V48.0357H67.0673C70.0113 48.0357 72.4913 48.3717 74.5073 49.0437C76.5553 49.7157 78.0913 50.6597 79.1153 51.8757C80.1393 53.0917 80.6513 54.5637 80.6513 56.2917C80.6513 58.1477 80.0913 59.7477 78.9713 61.0917C77.8513 62.4037 76.1553 63.3157 73.8833 63.8277L74.1233 62.9637C75.5633 63.2837 76.9073 63.7957 78.1553 64.4997C79.4353 65.1717 80.4593 66.0837 81.2273 67.2357C82.0273 68.3877 82.4273 69.7957 82.4273 71.4597C82.4273 73.5077 81.9953 75.1877 81.1313 76.4997C80.2673 77.8117 79.1313 78.8517 77.7233 79.6197C76.3153 80.3557 74.7793 80.8837 73.1153 81.2037C71.4833 81.4917 69.8833 81.6357 68.3153 81.6357H47.9153ZM55.5953 74.8197H68.5073C69.6273 74.8197 70.6193 74.6917 71.4833 74.4357C72.3793 74.1797 73.0833 73.7797 73.5953 73.2357C74.1393 72.6597 74.4113 71.9397 74.4113 71.0757C74.4113 70.0837 74.0753 69.3317 73.4033 68.8197C72.7313 68.2757 71.9153 67.9077 70.9553 67.7157C69.9953 67.4917 69.0993 67.3797 68.2673 67.3797H55.5953V74.8197ZM55.5953 61.2357H67.1633C68.2193 61.2357 69.1473 61.1077 69.9473 60.8517C70.7793 60.5957 71.4193 60.2277 71.8673 59.7477C72.3473 59.2677 72.5873 58.6597 72.5873 57.9237C72.5873 56.8037 72.0273 56.0197 70.9073 55.5717C69.8193 55.0917 68.4753 54.8517 66.8753 54.8517H55.5953V61.2357Z" fill="#FBFEF9"/>
</svg>
