<svg width="128" height="128" viewBox="0 0 128 128" fill="none" xmlns="http://www.w3.org/2000/svg">
<path d="M52 11H76H96C103.18 11 109 16.8203 109 24V30.4V52.8V104C109 111.18 103.18 117 96 117H76H64H52H32C24.8203 117 19 111.18 19 104V52.8V24C19 16.8203 24.8203 11 32 11H52Z" stroke="#2E2836" stroke-width="6"/>
<path d="M32.4057 94L39.0537 77.2H42.5097L49.1097 94H44.9817L41.8137 85.48C41.6857 85.144 41.5577 84.784 41.4297 84.4C41.3017 84.016 41.1737 83.624 41.0457 83.224C40.9177 82.808 40.7897 82.408 40.6617 82.024C40.5497 81.624 40.4537 81.256 40.3737 80.92L41.0937 80.896C40.9977 81.296 40.8857 81.688 40.7577 82.072C40.6457 82.456 40.5257 82.84 40.3977 83.224C40.2857 83.592 40.1577 83.968 40.0137 84.352C39.8697 84.72 39.7337 85.104 39.6057 85.504L36.4377 94H32.4057ZM35.5737 90.784L36.8457 87.712H44.5737L45.8217 90.784H35.5737ZM50.8218 94V76.24H54.6618V94H50.8218ZM59.0725 94V78.04H62.9125V94H59.0725ZM56.8165 84.616V81.256H65.3845V84.616H56.8165ZM75.787 94.24C74.443 94.24 73.227 94.024 72.139 93.592C71.051 93.16 70.115 92.552 69.331 91.768C68.547 90.984 67.947 90.064 67.531 89.008C67.115 87.936 66.907 86.776 66.907 85.528C66.907 84.28 67.123 83.136 67.555 82.096C68.003 81.04 68.635 80.12 69.451 79.336C70.267 78.552 71.227 77.944 72.331 77.512C73.451 77.08 74.667 76.864 75.979 76.864C76.907 76.864 77.779 76.984 78.595 77.224C79.427 77.464 80.179 77.792 80.851 78.208C81.523 78.624 82.091 79.104 82.555 79.648L80.083 82.264C79.683 81.88 79.267 81.56 78.835 81.304C78.419 81.048 77.971 80.848 77.491 80.704C77.011 80.544 76.499 80.464 75.955 80.464C75.251 80.464 74.603 80.592 74.011 80.848C73.435 81.104 72.923 81.464 72.475 81.928C72.043 82.376 71.707 82.912 71.467 83.536C71.227 84.144 71.107 84.808 71.107 85.528C71.107 86.248 71.235 86.92 71.491 87.544C71.747 88.168 72.099 88.712 72.547 89.176C72.995 89.624 73.523 89.984 74.131 90.256C74.755 90.512 75.419 90.64 76.123 90.64C76.619 90.64 77.083 90.56 77.515 90.4C77.963 90.24 78.347 90.024 78.667 89.752C78.987 89.48 79.243 89.16 79.435 88.792C79.627 88.408 79.723 88 79.723 87.568V86.944L80.251 87.76H75.619V84.568H83.515C83.547 84.744 83.571 84.984 83.587 85.288C83.603 85.592 83.611 85.888 83.611 86.176C83.627 86.464 83.635 86.68 83.635 86.824C83.635 87.912 83.435 88.912 83.035 89.824C82.651 90.72 82.107 91.496 81.403 92.152C80.699 92.808 79.867 93.32 78.907 93.688C77.947 94.056 76.907 94.24 75.787 94.24ZM86.3524 94V81.256H90.0004L90.1684 85.408L89.4484 84.616C89.6404 83.928 89.9524 83.312 90.3844 82.768C90.8324 82.224 91.3524 81.792 91.9444 81.472C92.5364 81.152 93.1684 80.992 93.8404 80.992C94.1284 80.992 94.3924 81.016 94.6324 81.064C94.8884 81.112 95.1204 81.168 95.3284 81.232L94.2724 85.48C94.0964 85.368 93.8564 85.28 93.5524 85.216C93.2644 85.136 92.9604 85.096 92.6404 85.096C92.2884 85.096 91.9604 85.16 91.6564 85.288C91.3524 85.4 91.0964 85.568 90.8884 85.792C90.6804 86.016 90.5124 86.28 90.3844 86.584C90.2724 86.888 90.2164 87.232 90.2164 87.616V94H86.3524Z" fill="#191923"/>
<path d="M57.9014 66.616V41.656H50.5574L56.4134 35.8H50.5574L63.9974 22.36L77.4374 35.8H71.5814L77.4374 41.656H70.0934V66.616H57.9014ZM54.0614 34.36H57.8534L63.9974 28.216L70.1414 34.36H73.9334L63.9974 24.424L54.0614 34.36ZM59.3414 65.176H68.6534V40.216H73.9334L63.9974 30.28L54.0614 40.216H59.3414V65.176Z" fill="#191923"/>
</svg>
