<svg width="128" height="128" viewBox="0 0 128 128" fill="none" xmlns="http://www.w3.org/2000/svg">
<path d="M52 11H76H96C103.18 11 109 16.8203 109 24V30.4V52.8V104C109 111.18 103.18 117 96 117H76H64H52H32C24.8203 117 19 111.18 19 104V52.8V24C19 16.8203 24.8203 11 32 11H52Z" stroke="#2E2836" stroke-width="6"/>
<path d="M33.968 76L42.832 53.6H47.44L56.24 76H50.736L46.512 64.64C46.3413 64.192 46.1707 63.712 46 63.2C45.8293 62.688 45.6587 62.1653 45.488 61.632C45.3173 61.0773 45.1467 60.544 44.976 60.032C44.8267 59.4987 44.6987 59.008 44.592 58.56L45.552 58.528C45.424 59.0613 45.2747 59.584 45.104 60.096C44.9547 60.608 44.7947 61.12 44.624 61.632C44.4747 62.1227 44.304 62.624 44.112 63.136C43.92 63.6267 43.7387 64.1387 43.568 64.672L39.344 76H33.968ZM38.192 71.712L39.888 67.616H50.192L51.856 71.712H38.192ZM59.0348 76V53.6H64.4748V71.2H74.4588V76H59.0348ZM80.7113 76V58.4H74.0553V53.6H92.9673V58.4H86.1513V76H80.7113Z" fill="#191923"/>
</svg>
