<svg width="128" height="128" viewBox="0 0 128 128" fill="none" xmlns="http://www.w3.org/2000/svg">
<path d="M52 11H76H96C103.18 11 109 16.8203 109 24V30.4V52.8V104C109 111.18 103.18 117 96 117H76H64H52H32C24.8203 117 19 111.18 19 104V52.8V24C19 16.8203 24.8203 11 32 11H52Z" stroke="#2E2836" stroke-width="6"/>
<path d="M50.375 88.0227C48.4205 88.0227 46.6326 87.5455 45.0114 86.5909C43.3902 85.6212 42.1023 84.3258 41.1477 82.7045C40.1932 81.0833 39.7159 79.303 39.7159 77.3636C39.7159 75.3939 40.1932 73.6061 41.1477 72C42.1023 70.3788 43.3902 69.0833 45.0114 68.1136C46.6326 67.1439 48.4129 66.6591 50.3523 66.6591H54.8523V60.75H50.3523C48.4129 60.75 46.6326 60.2727 45.0114 59.3182C43.3902 58.3636 42.1023 57.0833 41.1477 55.4773C40.1932 53.8561 39.7159 52.0606 39.7159 50.0909C39.7159 48.1212 40.1932 46.3333 41.1477 44.7273C42.1023 43.1212 43.3902 41.8409 45.0114 40.8864C46.6326 39.9167 48.4129 39.4318 50.3523 39.4318C52.3371 39.4318 54.1326 39.9167 55.7386 40.8864C57.3598 41.8409 58.6477 43.1212 59.6023 44.7273C60.572 46.3333 61.0568 48.1212 61.0568 50.0909V54.5227H66.9886V50.0909C66.9886 48.1212 67.4659 46.3333 68.4205 44.7273C69.375 43.1212 70.6553 41.8409 72.2614 40.8864C73.8826 39.9167 75.6705 39.4318 77.625 39.4318C79.5947 39.4318 81.3826 39.9167 82.9886 40.8864C84.6098 41.8409 85.8977 43.1212 86.8523 44.7273C87.8068 46.3333 88.2841 48.1212 88.2841 50.0909C88.2841 52.0606 87.8068 53.8561 86.8523 55.4773C85.8977 57.0833 84.6098 58.3636 82.9886 59.3182C81.3826 60.2727 79.5947 60.75 77.625 60.75H73.1932V66.6591H77.625C79.5947 66.6591 81.3826 67.1439 82.9886 68.1136C84.6098 69.0833 85.8977 70.3788 86.8523 72C87.8068 73.6061 88.2841 75.3939 88.2841 77.3636C88.2841 79.3182 87.8068 81.1061 86.8523 82.7273C85.8977 84.3333 84.6098 85.6212 82.9886 86.5909C81.3826 87.5455 79.5947 88.0227 77.625 88.0227C75.6705 88.0227 73.8826 87.5455 72.2614 86.5909C70.6553 85.6212 69.375 84.3258 68.4205 82.7045C67.4659 81.0833 66.9886 79.303 66.9886 77.3636V72.8864H61.0568V77.3636C61.0568 79.303 60.572 81.0833 59.6023 82.7045C58.6477 84.3258 57.3598 85.6212 55.7386 86.5909C54.1326 87.5455 52.3447 88.0227 50.375 88.0227ZM50.3523 81.7955C51.1856 81.7955 51.9356 81.5985 52.6023 81.2045C53.2841 80.8106 53.8295 80.2727 54.2386 79.5909C54.6477 78.9091 54.8523 78.1667 54.8523 77.3636V72.8864H50.375C49.5568 72.8864 48.8068 73.0909 48.125 73.5C47.4583 73.8939 46.9205 74.4318 46.5114 75.1136C46.1174 75.7955 45.9205 76.5455 45.9205 77.3636C45.9205 78.1667 46.1174 78.9091 46.5114 79.5909C46.9205 80.2727 47.4583 80.8106 48.125 81.2045C48.8068 81.5985 49.5492 81.7955 50.3523 81.7955ZM50.3523 54.5227H54.8523V50.0909C54.8523 49.2727 54.6477 48.5303 54.2386 47.8636C53.8295 47.1818 53.2841 46.6439 52.6023 46.25C51.9356 45.8561 51.1856 45.6591 50.3523 45.6591C49.5492 45.6591 48.8068 45.8561 48.125 46.25C47.4583 46.6439 46.9205 47.1818 46.5114 47.8636C46.1174 48.5303 45.9205 49.2727 45.9205 50.0909C45.9205 50.9091 46.1174 51.6591 46.5114 52.3409C46.9205 53.0076 47.4583 53.5379 48.125 53.9318C48.8068 54.3258 49.5492 54.5227 50.3523 54.5227ZM73.1932 54.5227H77.625C78.4583 54.5227 79.2083 54.3258 79.875 53.9318C80.5417 53.5379 81.072 53.0076 81.4659 52.3409C81.875 51.6591 82.0795 50.9091 82.0795 50.0909C82.0795 49.2727 81.875 48.5303 81.4659 47.8636C81.072 47.1818 80.5417 46.6439 79.875 46.25C79.2083 45.8561 78.4583 45.6591 77.625 45.6591C76.8068 45.6591 76.0568 45.8561 75.375 46.25C74.7083 46.6439 74.178 47.1818 73.7841 47.8636C73.3902 48.5303 73.1932 49.2727 73.1932 50.0909V54.5227ZM77.6477 81.7955C78.4659 81.7955 79.2083 81.5985 79.875 81.2045C80.5417 80.8106 81.072 80.2727 81.4659 79.5909C81.875 78.9091 82.0795 78.1667 82.0795 77.3636C82.0795 76.5455 81.875 75.7955 81.4659 75.1136C81.072 74.4318 80.5417 73.8939 79.875 73.5C79.2083 73.0909 78.4583 72.8864 77.625 72.8864H73.1932V77.3636C73.1932 78.1818 73.3902 78.9318 73.7841 79.6136C74.178 80.2803 74.7083 80.8106 75.375 81.2045C76.0568 81.5985 76.8144 81.7955 77.6477 81.7955ZM61.0568 66.6591H66.9886V60.75H61.0568V66.6591Z" fill="#191923"/>
</svg>
