<svg width="128" height="128" viewBox="0 0 128 128" fill="none" xmlns="http://www.w3.org/2000/svg">
<path d="M52 11H76H96C103.18 11 109 16.8203 109 24V30.4V52.8V104C109 111.18 103.18 117 96 117H76H64H52H32C24.8203 117 19 111.18 19 104V52.8V24C19 16.8203 24.8203 11 32 11H52Z" stroke="#2E2836" stroke-width="6"/>
<path d="M39.4764 76.32C37.791 76.32 36.2337 76.0427 34.8044 75.488C33.3964 74.912 32.1697 74.112 31.1244 73.088C30.079 72.0427 29.2684 70.816 28.6924 69.408C28.1377 67.9787 27.8604 66.4107 27.8604 64.704C27.8604 63.04 28.159 61.504 28.7564 60.096C29.3537 58.688 30.175 57.472 31.2204 56.448C32.287 55.4027 33.535 54.592 34.9644 54.016C36.415 53.44 37.9937 53.152 39.7004 53.152C40.767 53.152 41.8124 53.2907 42.8364 53.568C43.8604 53.8453 44.8097 54.2613 45.6844 54.816C46.5804 55.3493 47.3484 55.9893 47.9884 56.736L44.6604 60.544C44.2124 60.0747 43.7324 59.6693 43.2204 59.328C42.7297 58.9653 42.1857 58.688 41.5884 58.496C40.991 58.304 40.351 58.208 39.6684 58.208C38.815 58.208 38.0044 58.368 37.2364 58.688C36.4897 58.9867 35.8284 59.424 35.2524 60C34.6977 60.5547 34.2604 61.2373 33.9404 62.048C33.6204 62.8587 33.4604 63.7653 33.4604 64.768C33.4604 65.7493 33.6204 66.6453 33.9404 67.456C34.2604 68.2453 34.7084 68.928 35.2844 69.504C35.8604 70.08 36.5537 70.5173 37.3644 70.816C38.1964 71.1147 39.1137 71.264 40.1164 71.264C40.799 71.264 41.4497 71.168 42.0684 70.976C42.687 70.784 43.2524 70.528 43.7644 70.208C44.2977 69.8667 44.767 69.4827 45.1724 69.056L47.7964 73.216C47.263 73.8133 46.5484 74.3467 45.6524 74.816C44.7777 75.2853 43.7964 75.6587 42.7084 75.936C41.6417 76.192 40.5644 76.32 39.4764 76.32ZM51.5191 76V53.6H56.3831L64.5431 66.88L61.0551 66.848L69.3111 53.6H73.9831V76H68.7031V69.024C68.7031 67.104 68.7458 65.376 68.8311 63.84C68.9378 62.304 69.1085 60.7787 69.3431 59.264L69.9511 60.928L63.7431 70.56H61.6311L55.5511 60.992L56.1591 59.264C56.3938 60.6933 56.5538 62.1653 56.6391 63.68C56.7458 65.1733 56.7991 66.9547 56.7991 69.024V76H51.5191ZM79.6129 76V53.6H88.9889C90.6315 53.6 92.1355 53.8773 93.5009 54.432C94.8662 54.9653 96.0395 55.7333 97.0209 56.736C98.0235 57.7387 98.7915 58.9227 99.3249 60.288C99.8582 61.6533 100.125 63.1573 100.125 64.8C100.125 66.4427 99.8582 67.9573 99.3249 69.344C98.7915 70.7093 98.0235 71.8933 97.0209 72.896C96.0395 73.8773 94.8662 74.6453 93.5009 75.2C92.1355 75.7333 90.6315 76 88.9889 76H79.6129ZM85.0529 72.288L84.3169 71.2H88.8289C89.7249 71.2 90.5249 71.0507 91.2289 70.752C91.9329 70.432 92.5302 69.9947 93.0209 69.44C93.5329 68.8853 93.9275 68.2133 94.2049 67.424C94.4822 66.6347 94.6209 65.76 94.6209 64.8C94.6209 63.84 94.4822 62.9653 94.2049 62.176C93.9275 61.3867 93.5329 60.7147 93.0209 60.16C92.5302 59.6053 91.9329 59.1787 91.2289 58.88C90.5249 58.56 89.7249 58.4 88.8289 58.4H84.2209L85.0529 57.376V72.288Z" fill="#191923"/>
</svg>
