<svg width="128" height="128" viewBox="0 0 128 128" fill="none" xmlns="http://www.w3.org/2000/svg">
<path d="M52 11H76H96C103.18 11 109 16.8203 109 24V30.4V52.8V104C109 111.18 103.18 117 96 117H76H64H52H32C24.8203 117 19 111.18 19 104V52.8V24C19 16.8203 24.8203 11 32 11H52Z" stroke="#2E2836" stroke-width="6"/>
<path d="M42.0448 73.24C40.7808 73.24 39.6128 73.032 38.5408 72.616C37.4848 72.184 36.5648 71.584 35.7808 70.816C34.9968 70.032 34.3888 69.112 33.9568 68.056C33.5408 66.984 33.3328 65.808 33.3328 64.528C33.3328 63.28 33.5568 62.128 34.0048 61.072C34.4528 60.016 35.0688 59.104 35.8528 58.336C36.6528 57.552 37.5888 56.944 38.6608 56.512C39.7488 56.08 40.9328 55.864 42.2128 55.864C43.0128 55.864 43.7968 55.968 44.5648 56.176C45.3328 56.384 46.0448 56.696 46.7008 57.112C47.3728 57.512 47.9488 57.992 48.4288 58.552L45.9328 61.408C45.5968 61.056 45.2368 60.752 44.8528 60.496C44.4848 60.224 44.0768 60.016 43.6288 59.872C43.1808 59.728 42.7008 59.656 42.1888 59.656C41.5488 59.656 40.9408 59.776 40.3648 60.016C39.8048 60.24 39.3088 60.568 38.8768 61C38.4608 61.416 38.1328 61.928 37.8928 62.536C37.6528 63.144 37.5328 63.824 37.5328 64.576C37.5328 65.312 37.6528 65.984 37.8928 66.592C38.1328 67.184 38.4688 67.696 38.9008 68.128C39.3328 68.56 39.8528 68.888 40.4608 69.112C41.0848 69.336 41.7728 69.448 42.5248 69.448C43.0368 69.448 43.5248 69.376 43.9888 69.232C44.4528 69.088 44.8768 68.896 45.2608 68.656C45.6608 68.4 46.0128 68.112 46.3168 67.792L48.2848 70.912C47.8848 71.36 47.3488 71.76 46.6768 72.112C46.0208 72.464 45.2848 72.744 44.4688 72.952C43.6688 73.144 42.8608 73.24 42.0448 73.24ZM51.0768 73V56.2H58.6368C59.7088 56.2 60.6768 56.432 61.5408 56.896C62.4208 57.36 63.1088 58 63.6048 58.816C64.1008 59.616 64.3488 60.528 64.3488 61.552C64.3488 62.608 64.1008 63.56 63.6048 64.408C63.1088 65.24 62.4288 65.896 61.5648 66.376C60.7008 66.856 59.7248 67.096 58.6368 67.096H54.9648V73H51.0768ZM60.3888 73L56.1168 65.416L60.2928 64.816L65.0448 73H60.3888ZM54.9648 63.976H58.2768C58.6928 63.976 59.0528 63.888 59.3568 63.712C59.6768 63.52 59.9168 63.256 60.0768 62.92C60.2528 62.584 60.3408 62.2 60.3408 61.768C60.3408 61.336 60.2448 60.96 60.0528 60.64C59.8608 60.304 59.5808 60.048 59.2128 59.872C58.8608 59.696 58.4288 59.608 57.9168 59.608H54.9648V63.976ZM71.1077 73V59.8H66.1157V56.2H80.2997V59.8H75.1877V73H71.1077ZM83.1862 73V56.2H87.2662V69.4H94.7542V73H83.1862Z" fill="#191923"/>
</svg>
