<svg width="128" height="128" viewBox="0 0 128 128" fill="none" xmlns="http://www.w3.org/2000/svg">
<path d="M52 11H76H96C103.18 11 109 16.8203 109 24V30.4V52.8V104C109 111.18 103.18 117 96 117H76H64H52H32C24.8203 117 19 111.18 19 104V52.8V24C19 16.8203 24.8203 11 32 11H52Z" stroke="#2E2836" stroke-width="6"/>
<path d="M42.0448 94.24C40.7808 94.24 39.6128 94.032 38.5408 93.616C37.4848 93.184 36.5648 92.584 35.7808 91.816C34.9968 91.032 34.3888 90.112 33.9568 89.056C33.5408 87.984 33.3328 86.808 33.3328 85.528C33.3328 84.28 33.5568 83.128 34.0048 82.072C34.4528 81.016 35.0688 80.104 35.8528 79.336C36.6528 78.552 37.5888 77.944 38.6608 77.512C39.7488 77.08 40.9328 76.864 42.2128 76.864C43.0128 76.864 43.7968 76.968 44.5648 77.176C45.3328 77.384 46.0448 77.696 46.7008 78.112C47.3728 78.512 47.9488 78.992 48.4288 79.552L45.9328 82.408C45.5968 82.056 45.2368 81.752 44.8528 81.496C44.4848 81.224 44.0768 81.016 43.6288 80.872C43.1808 80.728 42.7008 80.656 42.1888 80.656C41.5488 80.656 40.9408 80.776 40.3648 81.016C39.8048 81.24 39.3088 81.568 38.8768 82C38.4608 82.416 38.1328 82.928 37.8928 83.536C37.6528 84.144 37.5328 84.824 37.5328 85.576C37.5328 86.312 37.6528 86.984 37.8928 87.592C38.1328 88.184 38.4688 88.696 38.9008 89.128C39.3328 89.56 39.8528 89.888 40.4608 90.112C41.0848 90.336 41.7728 90.448 42.5248 90.448C43.0368 90.448 43.5248 90.376 43.9888 90.232C44.4528 90.088 44.8768 89.896 45.2608 89.656C45.6608 89.4 46.0128 89.112 46.3168 88.792L48.2848 91.912C47.8848 92.36 47.3488 92.76 46.6768 93.112C46.0208 93.464 45.2848 93.744 44.4688 93.952C43.6688 94.144 42.8608 94.24 42.0448 94.24ZM51.0768 94V77.2H58.6368C59.7088 77.2 60.6768 77.432 61.5408 77.896C62.4208 78.36 63.1088 79 63.6048 79.816C64.1008 80.616 64.3488 81.528 64.3488 82.552C64.3488 83.608 64.1008 84.56 63.6048 85.408C63.1088 86.24 62.4288 86.896 61.5648 87.376C60.7008 87.856 59.7248 88.096 58.6368 88.096H54.9648V94H51.0768ZM60.3888 94L56.1168 86.416L60.2928 85.816L65.0448 94H60.3888ZM54.9648 84.976H58.2768C58.6928 84.976 59.0528 84.888 59.3568 84.712C59.6768 84.52 59.9168 84.256 60.0768 83.92C60.2528 83.584 60.3408 83.2 60.3408 82.768C60.3408 82.336 60.2448 81.96 60.0528 81.64C59.8608 81.304 59.5808 81.048 59.2128 80.872C58.8608 80.696 58.4288 80.608 57.9168 80.608H54.9648V84.976ZM71.1077 94V80.8H66.1157V77.2H80.2997V80.8H75.1877V94H71.1077ZM83.1862 94V77.2H87.2662V90.4H94.7542V94H83.1862Z" fill="#191923"/>
<path d="M53.2848 50.3125L49.3643 46.375L63.9893 31.75L78.6143 46.375L74.6939 50.3125L63.9893 39.625L53.2848 50.3125Z" fill="#191923"/>
</svg>
