<svg width="128" height="128" viewBox="0 0 128 128" fill="none" xmlns="http://www.w3.org/2000/svg">
<path d="M52 11H76H96C103.18 11 109 16.8203 109 24V30.4V52.8V104C109 111.18 103.18 117 96 117H76H64H52H32C24.8203 117 19 111.18 19 104V52.8V24C19 16.8203 24.8203 11 32 11H52Z" stroke="#2E2836" stroke-width="6"/>
<rect x="67" y="48" width="25" height="25" fill="#191923"/>
<rect x="67" y="79" width="25" height="25" fill="#191923"/>
<rect x="36" y="79" width="25" height="25" fill="#191923"/>
<rect x="36" y="48" width="25" height="25" fill="#191923"/>
<path d="M40.3401 39V25H43.7401V36H49.9801V39H40.3401ZM52.5276 39V25H62.2876V27.9H55.8276V36.1H62.4876V39H52.5276ZM54.1276 33.26V30.5H61.3876V33.26H54.1276ZM65.4182 39V25H68.8182V39H65.4182ZM66.9982 33.64V30.8H74.2382V33.64H66.9982ZM66.9982 28V25H75.0582V28H66.9982ZM81.1145 39V28H76.9545V25H88.7745V28H84.5145V39H81.1145Z" fill="#191923"/>
</svg>
