<svg width="128" height="128" viewBox="0 0 128 128" fill="none" xmlns="http://www.w3.org/2000/svg">
<path d="M52 11H76H96C103.18 11 109 16.8203 109 24V30.4V52.8V104C109 111.18 103.18 117 96 117H76H64H52H32C24.8203 117 19 111.18 19 104V52.8V24C19 16.8203 24.8203 11 32 11H52Z" stroke="#2E2836" stroke-width="6"/>
<path d="M47.4381 53V43.2H49.8181V50.9H54.1861V53H47.4381ZM55.9693 53V43.2H62.8013V45.23H58.2793V50.97H62.9413V53H55.9693ZM57.0893 48.982V47.05H62.1713V48.982H57.0893ZM64.9927 53V43.2H67.3727V53H64.9927ZM66.0987 49.248V47.26H71.1667V49.248H66.0987ZM66.0987 45.3V43.2H71.7407V45.3H66.0987ZM75.9801 53V45.3H73.0681V43.2H81.3421V45.3H78.3601V53H75.9801ZM40.8821 83L35.8421 66.2H39.9941L42.5141 75.032C42.6261 75.432 42.7221 75.84 42.8021 76.256C42.8981 76.656 42.9701 77.04 43.0181 77.408C43.0821 77.776 43.1301 78.12 43.1621 78.44C43.1941 78.744 43.2261 79 43.2581 79.208H42.7301C42.8261 78.616 42.9061 78.088 42.9701 77.624C43.0501 77.16 43.1381 76.728 43.2341 76.328C43.3301 75.912 43.4501 75.48 43.5941 75.032L46.0901 68.384H49.3541L51.8021 75.032C51.9941 75.56 52.1541 76.056 52.2821 76.52C52.4101 76.984 52.5061 77.432 52.5701 77.864C52.6501 78.28 52.7141 78.696 52.7621 79.112L52.2821 79.184C52.3141 78.896 52.3381 78.632 52.3541 78.392C52.3701 78.136 52.3861 77.896 52.4021 77.672C52.4341 77.432 52.4661 77.184 52.4981 76.928C52.5301 76.672 52.5781 76.392 52.6421 76.088C52.7061 75.768 52.7941 75.408 52.9061 75.008L55.4021 66.2H59.4581L54.4181 83H51.2981L47.3141 73.328L47.7701 73.376L44.0981 83H40.8821ZM61.358 83V79.568H64.19V69.632H61.358V66.2H71.126V69.632H68.27V79.568H71.126V83H61.358ZM75.0065 83V66.2H78.6545L87.4625 78.2L86.6705 78.08C86.5905 77.552 86.5265 77.048 86.4785 76.568C86.4305 76.088 86.3825 75.616 86.3345 75.152C86.3025 74.688 86.2705 74.216 86.2385 73.736C86.2225 73.256 86.2065 72.736 86.1905 72.176C86.1905 71.616 86.1905 71.008 86.1905 70.352V66.2H90.1505V83H86.4545L77.2625 70.616L78.4865 70.784C78.5665 71.552 78.6305 72.208 78.6785 72.752C78.7425 73.28 78.7905 73.752 78.8225 74.168C78.8705 74.584 78.9025 74.96 78.9185 75.296C78.9345 75.632 78.9425 75.968 78.9425 76.304C78.9585 76.624 78.9665 76.984 78.9665 77.384V83H75.0065Z" fill="#191923"/>
</svg>
