<svg width="128" height="128" viewBox="0 0 128 128" fill="none" xmlns="http://www.w3.org/2000/svg">
<path d="M52 11H76H96C103.18 11 109 16.8203 109 24V30.4V52.8V104C109 111.18 103.18 117 96 117H76H64H52H32C24.8203 117 19 111.18 19 104V52.8V24C19 16.8203 24.8203 11 32 11H52Z" stroke="#2E2836" stroke-width="6"/>
<path d="M50.375 102.023C48.4205 102.023 46.6326 101.545 45.0114 100.591C43.3902 99.6212 42.1023 98.3258 41.1477 96.7045C40.1932 95.0833 39.7159 93.303 39.7159 91.3636C39.7159 89.3939 40.1932 87.6061 41.1477 86C42.1023 84.3788 43.3902 83.0833 45.0114 82.1136C46.6326 81.1439 48.4129 80.6591 50.3523 80.6591H54.8523V74.75H50.3523C48.4129 74.75 46.6326 74.2727 45.0114 73.3182C43.3902 72.3636 42.1023 71.0833 41.1477 69.4773C40.1932 67.8561 39.7159 66.0606 39.7159 64.0909C39.7159 62.1212 40.1932 60.3333 41.1477 58.7273C42.1023 57.1212 43.3902 55.8409 45.0114 54.8864C46.6326 53.9167 48.4129 53.4318 50.3523 53.4318C52.3371 53.4318 54.1326 53.9167 55.7386 54.8864C57.3598 55.8409 58.6477 57.1212 59.6023 58.7273C60.572 60.3333 61.0568 62.1212 61.0568 64.0909V68.5227H66.9886V64.0909C66.9886 62.1212 67.4659 60.3333 68.4205 58.7273C69.375 57.1212 70.6553 55.8409 72.2614 54.8864C73.8826 53.9167 75.6705 53.4318 77.625 53.4318C79.5947 53.4318 81.3826 53.9167 82.9886 54.8864C84.6098 55.8409 85.8977 57.1212 86.8523 58.7273C87.8068 60.3333 88.2841 62.1212 88.2841 64.0909C88.2841 66.0606 87.8068 67.8561 86.8523 69.4773C85.8977 71.0833 84.6098 72.3636 82.9886 73.3182C81.3826 74.2727 79.5947 74.75 77.625 74.75H73.1932V80.6591H77.625C79.5947 80.6591 81.3826 81.1439 82.9886 82.1136C84.6098 83.0833 85.8977 84.3788 86.8523 86C87.8068 87.6061 88.2841 89.3939 88.2841 91.3636C88.2841 93.3182 87.8068 95.1061 86.8523 96.7273C85.8977 98.3333 84.6098 99.6212 82.9886 100.591C81.3826 101.545 79.5947 102.023 77.625 102.023C75.6705 102.023 73.8826 101.545 72.2614 100.591C70.6553 99.6212 69.375 98.3258 68.4205 96.7045C67.4659 95.0833 66.9886 93.303 66.9886 91.3636V86.8864H61.0568V91.3636C61.0568 93.303 60.572 95.0833 59.6023 96.7045C58.6477 98.3258 57.3598 99.6212 55.7386 100.591C54.1326 101.545 52.3447 102.023 50.375 102.023ZM50.3523 95.7955C51.1856 95.7955 51.9356 95.5985 52.6023 95.2045C53.2841 94.8106 53.8295 94.2727 54.2386 93.5909C54.6477 92.9091 54.8523 92.1667 54.8523 91.3636V86.8864H50.375C49.5568 86.8864 48.8068 87.0909 48.125 87.5C47.4583 87.8939 46.9205 88.4318 46.5114 89.1136C46.1174 89.7955 45.9205 90.5455 45.9205 91.3636C45.9205 92.1667 46.1174 92.9091 46.5114 93.5909C46.9205 94.2727 47.4583 94.8106 48.125 95.2045C48.8068 95.5985 49.5492 95.7955 50.3523 95.7955ZM50.3523 68.5227H54.8523V64.0909C54.8523 63.2727 54.6477 62.5303 54.2386 61.8636C53.8295 61.1818 53.2841 60.6439 52.6023 60.25C51.9356 59.8561 51.1856 59.6591 50.3523 59.6591C49.5492 59.6591 48.8068 59.8561 48.125 60.25C47.4583 60.6439 46.9205 61.1818 46.5114 61.8636C46.1174 62.5303 45.9205 63.2727 45.9205 64.0909C45.9205 64.9091 46.1174 65.6591 46.5114 66.3409C46.9205 67.0076 47.4583 67.5379 48.125 67.9318C48.8068 68.3258 49.5492 68.5227 50.3523 68.5227ZM73.1932 68.5227H77.625C78.4583 68.5227 79.2083 68.3258 79.875 67.9318C80.5417 67.5379 81.072 67.0076 81.4659 66.3409C81.875 65.6591 82.0795 64.9091 82.0795 64.0909C82.0795 63.2727 81.875 62.5303 81.4659 61.8636C81.072 61.1818 80.5417 60.6439 79.875 60.25C79.2083 59.8561 78.4583 59.6591 77.625 59.6591C76.8068 59.6591 76.0568 59.8561 75.375 60.25C74.7083 60.6439 74.178 61.1818 73.7841 61.8636C73.3902 62.5303 73.1932 63.2727 73.1932 64.0909V68.5227ZM77.6477 95.7955C78.4659 95.7955 79.2083 95.5985 79.875 95.2045C80.5417 94.8106 81.072 94.2727 81.4659 93.5909C81.875 92.9091 82.0795 92.1667 82.0795 91.3636C82.0795 90.5455 81.875 89.7955 81.4659 89.1136C81.072 88.4318 80.5417 87.8939 79.875 87.5C79.2083 87.0909 78.4583 86.8864 77.625 86.8864H73.1932V91.3636C73.1932 92.1818 73.3902 92.9318 73.7841 93.6136C74.178 94.2803 74.7083 94.8106 75.375 95.2045C76.0568 95.5985 76.8144 95.7955 77.6477 95.7955ZM61.0568 80.6591H66.9886V74.75H61.0568V80.6591Z" fill="#191923"/>
<path d="M31.1702 39V25H37.4702C38.3635 25 39.1702 25.1933 39.8902 25.58C40.6235 25.9667 41.1968 26.5 41.6102 27.18C42.0235 27.8467 42.2302 28.6067 42.2302 29.46C42.2302 30.34 42.0235 31.1333 41.6102 31.84C41.1968 32.5333 40.6302 33.08 39.9102 33.48C39.1902 33.88 38.3768 34.08 37.4702 34.08H34.4102V39H31.1702ZM38.9302 39L35.3702 32.68L38.8502 32.18L42.8102 39H38.9302ZM34.4102 31.48H37.1702C37.5168 31.48 37.8168 31.4067 38.0702 31.26C38.3368 31.1 38.5368 30.88 38.6702 30.6C38.8168 30.32 38.8902 30 38.8902 29.64C38.8902 29.28 38.8102 28.9667 38.6502 28.7C38.4902 28.42 38.2568 28.2067 37.9502 28.06C37.6568 27.9133 37.2968 27.84 36.8702 27.84H34.4102V31.48ZM44.9331 39V36.14H47.2931V27.86H44.9331V25H53.0731V27.86H50.6931V36.14H53.0731V39H44.9331ZM62.5139 39.2C61.3939 39.2 60.3806 39.02 59.4739 38.66C58.5672 38.3 57.7872 37.7933 57.1339 37.14C56.4806 36.4867 55.9806 35.72 55.6339 34.84C55.2872 33.9467 55.1139 32.98 55.1139 31.94C55.1139 30.9 55.2939 29.9467 55.6539 29.08C56.0272 28.2 56.5539 27.4333 57.2339 26.78C57.9139 26.1267 58.7139 25.62 59.6339 25.26C60.5672 24.9 61.5806 24.72 62.6739 24.72C63.4472 24.72 64.1739 24.82 64.8539 25.02C65.5472 25.22 66.1739 25.4933 66.7339 25.84C67.2939 26.1867 67.7672 26.5867 68.1539 27.04L66.0939 29.22C65.7606 28.9 65.4139 28.6333 65.0539 28.42C64.7072 28.2067 64.3339 28.04 63.9339 27.92C63.5339 27.7867 63.1072 27.72 62.6539 27.72C62.0672 27.72 61.5272 27.8267 61.0339 28.04C60.5539 28.2533 60.1272 28.5533 59.7539 28.94C59.3939 29.3133 59.1139 29.76 58.9139 30.28C58.7139 30.7867 58.6139 31.34 58.6139 31.94C58.6139 32.54 58.7206 33.1 58.9339 33.62C59.1472 34.14 59.4406 34.5933 59.8139 34.98C60.1872 35.3533 60.6272 35.6533 61.1339 35.88C61.6539 36.0933 62.2072 36.2 62.7939 36.2C63.2072 36.2 63.5939 36.1333 63.9539 36C64.3272 35.8667 64.6472 35.6867 64.9139 35.46C65.1806 35.2333 65.3939 34.9667 65.5539 34.66C65.7139 34.34 65.7939 34 65.7939 33.64V33.12L66.2339 33.8H62.3739V31.14H68.9539C68.9806 31.2867 69.0006 31.4867 69.0139 31.74C69.0272 31.9933 69.0339 32.24 69.0339 32.48C69.0472 32.72 69.0539 32.9 69.0539 33.02C69.0539 33.9267 68.8872 34.76 68.5539 35.52C68.2339 36.2667 67.7806 36.9133 67.1939 37.46C66.6072 38.0067 65.9139 38.4333 65.1139 38.74C64.3139 39.0467 63.4472 39.2 62.5139 39.2ZM80.3384 39V25H83.7384V39H80.3384ZM71.6584 39V25H75.0584V39H71.6584ZM72.9784 33.54L72.9984 30.5H82.1384V33.54H72.9784ZM90.2844 39V28H86.1244V25H97.9444V28H93.6844V39H90.2844Z" fill="#191923"/>
</svg>
