<svg width="128" height="128" viewBox="0 0 128 128" fill="none" xmlns="http://www.w3.org/2000/svg">
<path d="M48 25H80H112C119.18 25 125 30.8203 125 38V38.8V55.6V90C125 97.1797 119.18 103 112 103H80H64H48H16C8.8203 103 3 97.1797 3 90V55.6V38C3 30.8203 8.8203 25 16 25H48Z" stroke="#2E2836" stroke-width="6"/>
<path d="M15.7159 66.1705L38.5057 43.3636L61.3125 66.1705H49.9602V81H27.0511V66.1705H15.7159ZM27.017 61.875H32.6761V76.7045H44.3523V61.875H50.0114L38.5057 50.3693L27.017 61.875Z" fill="#191923"/>
</svg>
