<svg width="128" height="128" viewBox="0 0 128 128" fill="none" xmlns="http://www.w3.org/2000/svg">
<g clip-path="url(#clip0_122_3159)">
<circle cx="24" cy="24" r="21" transform="matrix(4.37114e-08 -1 -1 -4.37114e-08 88 48)" stroke="#FFC729" stroke-width="6"/>
<circle cx="24" cy="24" r="21" transform="matrix(4.37114e-08 -1 -1 -4.37114e-08 48 88)" stroke="#4EA8F3" stroke-width="6"/>
<circle cx="24" cy="24" r="21" transform="matrix(4.37114e-08 -1 -1 -4.37114e-08 88 128)" stroke="#43A382" stroke-width="6"/>
<circle cx="24" cy="24" r="22" transform="matrix(4.37114e-08 -1 -1 -4.37114e-08 128 88)" fill="#FC3340" stroke="#FBFEF9" stroke-width="4"/>
<path d="M53.9406 113L62.2206 96.2H65.8206L74.0766 113H70.2846L65.1006 102.512C64.9406 102.176 64.7806 101.856 64.6206 101.552C64.4766 101.248 64.3406 100.952 64.2126 100.664C64.0846 100.36 63.9646 100.056 63.8526 99.752C63.7406 99.448 63.6286 99.128 63.5166 98.792L64.3806 98.768C64.2686 99.12 64.1486 99.456 64.0206 99.776C63.8926 100.096 63.7566 100.408 63.6126 100.712C63.4846 101.016 63.3486 101.32 63.2046 101.624C63.0606 101.928 62.9086 102.248 62.7486 102.584L57.5886 113H53.9406ZM57.6846 109.712L58.9326 106.808H68.9646L69.4686 109.712H57.6846Z" fill="#43A382"/>
<path d="M95.5844 73V56.2H105.472C107.008 56.2 108.304 56.368 109.36 56.704C110.416 57.04 111.216 57.512 111.76 58.12C112.304 58.728 112.576 59.44 112.576 60.256C112.576 61.232 112.304 62.056 111.76 62.728C111.216 63.384 110.384 63.84 109.264 64.096L109.36 63.664C110.064 63.824 110.728 64.08 111.352 64.432C111.976 64.768 112.48 65.216 112.864 65.776C113.264 66.32 113.464 67 113.464 67.816C113.464 68.872 113.232 69.736 112.768 70.408C112.304 71.08 111.696 71.608 110.944 71.992C110.208 72.36 109.408 72.624 108.544 72.784C107.696 72.928 106.88 73 106.096 73H95.5844ZM100.384 68.92H106.192C106.608 68.92 106.984 68.872 107.32 68.776C107.656 68.68 107.92 68.528 108.112 68.32C108.32 68.112 108.424 67.84 108.424 67.504C108.424 67.104 108.288 66.808 108.016 66.616C107.744 66.424 107.424 66.296 107.056 66.232C106.688 66.152 106.36 66.112 106.072 66.112H100.384V68.92ZM100.384 62.632H105.208C105.688 62.632 106.096 62.592 106.432 62.512C106.784 62.416 107.048 62.28 107.224 62.104C107.416 61.928 107.512 61.696 107.512 61.408C107.512 60.992 107.288 60.704 106.84 60.544C106.392 60.368 105.832 60.28 105.16 60.28H100.384V62.632Z" fill="#FBFEF9"/>
<path d="M62.4338 33V25.488L62.9138 27.336L53.8898 16.2H58.5218L65.0738 24.672H63.4898L69.8738 16.2H74.1218L65.9378 26.688L66.0578 25.296V33H62.4338Z" fill="#FFC729"/>
<path d="M29.2247 73L22.5527 65.416L14.2247 56.2H18.8807L25.2887 63.472L33.9047 73H29.2247ZM14.1047 73L22.0967 63.856L24.6887 65.752L18.6167 73H14.1047ZM25.8647 65.2L23.3207 63.376L29.1047 56.2H33.6407L25.8647 65.2Z" fill="#4EA8F3"/>
</g>
<defs>
<clipPath id="clip0_122_3159">
<rect width="128" height="128" fill="white"/>
</clipPath>
</defs>
</svg>
