<svg width="128" height="128" viewBox="0 0 128 128" fill="none" xmlns="http://www.w3.org/2000/svg">
<g clip-path="url(#clip0_122_3148)">
<circle cx="64" cy="104" r="21" transform="rotate(-180 64 104)" stroke="#43A382" stroke-width="6"/>
<circle cx="104" cy="64" r="21" transform="rotate(-180 104 64)" stroke="#F64A59" stroke-width="6"/>
<circle cx="24" cy="64" r="21" transform="rotate(-180 24 64)" fill="#191923" stroke="#C8CED0" stroke-width="6"/>
<circle cx="64" cy="24" r="21" transform="rotate(-180 64 24)" fill="#191923" stroke="#C8CED0" stroke-width="6"/>
<circle cx="64" cy="104" r="22" fill="#32936F" stroke="#FBFEF9" stroke-width="4"/>
<path d="M53.3389 113L61.7869 96.2H66.2509L74.6509 113H69.4189L64.9309 104.216C64.7389 103.832 64.5629 103.48 64.4029 103.16C64.2589 102.824 64.1309 102.504 64.0189 102.2C63.9069 101.896 63.8029 101.608 63.7069 101.336C63.6109 101.048 63.5229 100.768 63.4429 100.496H64.4749C64.3949 100.784 64.2989 101.08 64.1869 101.384C64.0909 101.672 63.9789 101.968 63.8509 102.272C63.7229 102.576 63.5789 102.888 63.4189 103.208C63.2749 103.528 63.1149 103.864 62.9389 104.216L58.4749 113H53.3389ZM57.3949 110.744L58.9789 107.216H69.1069L69.7789 110.744H57.3949Z" fill="#FBFEF9"/>
<path d="M96.1063 73V56.2H105.562C107.018 56.2 108.234 56.368 109.21 56.704C110.202 57.024 110.946 57.496 111.442 58.12C111.954 58.744 112.21 59.488 112.21 60.352C112.21 61.28 111.922 62.072 111.346 62.728C110.786 63.368 109.938 63.824 108.802 64.096L108.946 63.64C109.65 63.8 110.322 64.056 110.962 64.408C111.602 64.76 112.114 65.232 112.498 65.824C112.898 66.4 113.098 67.112 113.098 67.96C113.098 68.968 112.89 69.8 112.474 70.456C112.058 71.112 111.506 71.624 110.818 71.992C110.13 72.36 109.378 72.624 108.562 72.784C107.762 72.928 106.97 73 106.186 73H96.1063ZM99.5623 69.88H106.282C106.906 69.88 107.458 69.808 107.938 69.664C108.434 69.52 108.818 69.296 109.09 68.992C109.378 68.672 109.522 68.28 109.522 67.816C109.522 67.272 109.338 66.856 108.97 66.568C108.618 66.264 108.178 66.056 107.65 65.944C107.138 65.816 106.642 65.752 106.162 65.752H99.5623V69.88ZM99.5623 62.872H105.754C106.282 62.872 106.762 62.8 107.194 62.656C107.642 62.512 107.986 62.304 108.226 62.032C108.482 61.76 108.61 61.432 108.61 61.048C108.61 60.408 108.314 59.96 107.722 59.704C107.146 59.448 106.426 59.32 105.562 59.32H99.5623V62.872Z" fill="#F64A59"/>
<path d="M62.1849 33V25.488L62.6649 27.336L53.6409 16.2H58.7529L65.3049 24.672H63.2409L69.6249 16.2H74.3529L66.1689 26.688L66.2889 25.296V33H62.1849Z" fill="#FFC729"/>
<circle cx="64" cy="24" r="21" fill="#FFC729" stroke="#191923" stroke-width="6"/>
<circle cx="64" cy="24" r="22" fill="#FFBE0B" stroke="#FBFEF9" stroke-width="4"/>
<path d="M61.6268 33V25.488L62.1068 27.336L53.0828 16.2H59.3228L65.8748 24.672H62.6828L69.0668 16.2H74.9228L66.7388 26.688L66.8588 25.296V33H61.6268Z" fill="#191923"/>
<path d="M28.9389 73L22.2669 65.416L13.9389 56.2H19.1469L25.5549 63.472L34.1709 73H28.9389ZM13.8189 73L21.8109 63.856L24.9549 65.752L18.8829 73H13.8189ZM26.1309 65.2L23.0349 63.376L28.8189 56.2H33.9069L26.1309 65.2Z" fill="#4EA8F3"/>
<circle cx="24" cy="64" r="22" transform="rotate(-90 24 64)" fill="#3599F1" stroke="#FBFEF9" stroke-width="4"/>
<path d="M28.3189 73L21.6469 65.416L13.3189 56.2H19.7749L26.1829 63.472L34.7989 73H28.3189ZM13.1989 73L21.1909 63.856L25.5829 65.752L19.5109 73H13.1989ZM26.7589 65.2L22.4149 63.376L28.1989 56.2H34.5349L26.7589 65.2Z" fill="#FBFEF9"/>
</g>
<defs>
<clipPath id="clip0_122_3148">
<rect width="128" height="128" fill="white"/>
</clipPath>
</defs>
</svg>
