<svg width="128" height="128" viewBox="0 0 128 128" fill="none" xmlns="http://www.w3.org/2000/svg">
<path d="M102.6 91.5C103.067 89.2333 102.6 85.8667 101.2 81.4C99.8 77.0667 97.0333 71.4 92.9 64.4C88.7 57.4 84.4333 51.1667 80.1 45.7L77.4 42.2L80.3 39.5C83.9 36.2333 87.0667 33.7333 89.8 32C90.9333 31.3333 92.2 30.7333 93.6 30.2L96.8 29.3C97.2 29.3 98.0667 30 99.4 31.4L103.2 36C107.067 41.4 109.733 47.6 111.2 54.6C111.667 56.7333 111.933 59.7333 112 63.6L111.4 72.7C110.6 76.8333 109.4 80.6 107.8 84L105.4 88.6L102.8 92.5L102.3 92.9L102.6 91.6V91.5ZM59.9 27.7C57.9667 26.7 55.6333 25.7333 52.9 24.8C50.2333 23.8 48.0333 23.1667 46.3 22.9L41.8 22.6L39.9 22.4C40.1 22.1333 41.3333 21.5 43.6 20.5C47.0667 18.8333 50.8 17.5667 54.8 16.7L64.1 16L73.3 16.7C75.9 17.2333 78.5667 18 81.3 19C83.9667 20 86.1333 21.0667 87.8 22.2L88.8 22.8L86.6 22.7C81.8667 22.3667 75.7 24.0333 68.1 27.7L63.9 29.6L59.9 27.7ZM59.2 111.8C51.6 111.067 44.5 108.533 37.9 104.2L32.6 100.1C31.7333 99.1 31.3 97.8667 31.3 96.4C31.3 93.5333 32.8 89.6667 35.8 84.8C38.8667 80 43.1 74.7 48.5 68.9C51.5667 65.6333 54.8667 62.4333 58.4 59.3C61.8667 56.2333 63.8 54.7333 64.2 54.8C65.1333 55.0667 68.3333 57.8333 73.8 63.1C79.2 68.3667 83.2667 72.6667 86 76C90.3333 81.2667 93.4333 85.9333 95.3 90C97.1 94.0667 97.5 97.0667 96.5 99C95.7667 100.467 93.4667 102.367 89.6 104.7C85.7333 107.033 82.0667 108.733 78.6 109.8L69 111.7L59.2 111.8ZM24 90.4C21.7333 86.9333 20 83.3667 18.8 79.7C17.5333 76.1 16.6667 71.8667 16.2 67L16 62.4L16.9 55.3C17.5667 51.1667 19 46.9333 21.2 42.6C23.3333 38.2 25.8333 34.5333 28.7 31.6C29.8333 30.3333 30.6667 29.6333 31.2 29.5L34.2 30C37.4667 31.1333 41.9 34.2 47.5 39.2L50.9 42.3L49 44.6C44.6 50 40.4 56.0333 36.4 62.7C32.2667 69.5 29.3333 75.2333 27.6 79.9C26.6667 82.4333 26.0333 84.8667 25.7 87.2C25.3 89.5333 25.3333 91.2333 25.8 92.3V93L24 90.4Z" fill="#FBFEF9"/>
</svg>
