<svg width="128" height="128" viewBox="0 0 128 128" fill="none" xmlns="http://www.w3.org/2000/svg">
<path d="M48 25H80H112C119.18 25 125 30.8203 125 38V38.8V55.6V90C125 97.1797 119.18 103 112 103H80H64H48H16C8.8203 103 3 97.1797 3 90V55.6V38C3 30.8203 8.8203 25 16 25H48Z" fill="#FBFEF9" stroke="#FBFEF9" stroke-width="6"/>
<path d="M49.5 31H78.5H112C115.866 31 119 34.134 119 38V42.4V56.8V90C119 93.866 115.866 97 112 97H78.5H64H49.5H16C12.134 97 9 93.866 9 90V56.8V38C9 34.134 12.134 31 16 31H49.5Z" stroke="#C8CED0" stroke-width="6"/>
<path d="M33.4091 81L16.0568 63.5455L33.4091 46.0909H66V81H33.4091ZM35.8295 75.4091H60.2727V51.6818H35.8295L24.0341 63.5455L35.8295 75.4091ZM55.4148 69.4091L51.5795 73.3636L35.5568 57.6818L39.392 53.7273L55.4148 69.4091ZM39.392 73.3636L35.5568 69.4091L51.5795 53.7273L55.4148 57.6818L39.392 73.3636Z" fill="#191923"/>
</svg>
