<svg width="128" height="128" viewBox="0 0 128 128" fill="none" xmlns="http://www.w3.org/2000/svg">
<path d="M52 19H76H96C103.18 19 109 24.8203 109 32V35.2V54.4V96C109 103.18 103.18 109 96 109H76H64H52H32C24.8203 109 19 103.18 19 96V54.4V32C19 24.8203 24.8203 19 32 19H52Z" fill="#FBFEF9" stroke="#FBFEF9" stroke-width="6"/>
<path d="M53.5 25H74.5H96C99.866 25 103 28.134 103 32V38.8V55.6V96C103 99.866 99.866 103 96 103H74.5H64H53.5H32C28.134 103 25 99.866 25 96V55.6V32C25 28.134 28.134 25 32 25H53.5Z" stroke="#C8CED0" stroke-width="6"/>
<path d="M30.9455 72V58H37.1255C38.0855 58 38.8989 58.14 39.5655 58.42C40.2322 58.6867 40.7322 59.08 41.0655 59.6C41.4122 60.1067 41.5855 60.72 41.5855 61.44C41.5855 62.24 41.3855 62.9133 40.9855 63.46C40.5989 64.0067 40.0322 64.3733 39.2855 64.56L39.2455 64.18C39.8722 64.3133 40.4122 64.5467 40.8655 64.88C41.3322 65.2133 41.6922 65.6267 41.9455 66.12C42.1989 66.6 42.3255 67.1467 42.3255 67.76C42.3255 68.4667 42.2055 69.0867 41.9655 69.62C41.7255 70.14 41.3789 70.58 40.9255 70.94C40.4722 71.3 39.9389 71.5667 39.3255 71.74C38.7255 71.9133 38.0589 72 37.3255 72H30.9455ZM34.1455 69.16H37.2055C37.5789 69.16 37.8922 69.1 38.1455 68.98C38.4122 68.86 38.6189 68.6867 38.7655 68.46C38.9122 68.22 38.9855 67.9333 38.9855 67.6C38.9855 67.2933 38.9055 67.0333 38.7455 66.82C38.5989 66.6067 38.3855 66.4467 38.1055 66.34C37.8255 66.22 37.4922 66.16 37.1055 66.16H34.1455V69.16ZM34.1455 63.62H36.6455C36.9922 63.62 37.2855 63.5667 37.5255 63.46C37.7789 63.34 37.9655 63.18 38.0855 62.98C38.2189 62.7667 38.2855 62.5133 38.2855 62.22C38.2855 61.7933 38.1389 61.46 37.8455 61.22C37.5522 60.9667 37.1122 60.84 36.5255 60.84H34.1455V63.62ZM44.969 72V58H51.269C52.1623 58 52.969 58.1933 53.689 58.58C54.4223 58.9667 54.9957 59.5 55.409 60.18C55.8223 60.8467 56.029 61.6067 56.029 62.46C56.029 63.34 55.8223 64.1333 55.409 64.84C54.9957 65.5333 54.429 66.08 53.709 66.48C52.989 66.88 52.1757 67.08 51.269 67.08H48.209V72H44.969ZM52.729 72L49.169 65.68L52.649 65.18L56.609 72H52.729ZM48.209 64.48H50.969C51.3157 64.48 51.6157 64.4067 51.869 64.26C52.1357 64.1 52.3357 63.88 52.469 63.6C52.6157 63.32 52.689 63 52.689 62.64C52.689 62.28 52.609 61.9667 52.449 61.7C52.289 61.42 52.0557 61.2067 51.749 61.06C51.4557 60.9133 51.0957 60.84 50.669 60.84H48.209V64.48ZM59.012 72V58H68.772V60.9H62.312V69.1H68.972V72H59.012ZM60.612 66.26V63.5H67.872V66.26H60.612ZM70.1226 72L75.6626 58H78.5426L84.0426 72H80.6026L77.9626 64.9C77.8559 64.62 77.7492 64.32 77.6426 64C77.5359 63.68 77.4292 63.3533 77.3226 63.02C77.2159 62.6733 77.1092 62.34 77.0026 62.02C76.9092 61.6867 76.8292 61.38 76.7626 61.1L77.3626 61.08C77.2826 61.4133 77.1892 61.74 77.0826 62.06C76.9892 62.38 76.8892 62.7 76.7826 63.02C76.6892 63.3267 76.5826 63.64 76.4626 63.96C76.3426 64.2667 76.2292 64.5867 76.1226 64.92L73.4826 72H70.1226ZM72.7626 69.32L73.8226 66.76H80.2626L81.3026 69.32H72.7626ZM88.2693 67.9L87.3893 65.04L94.3293 58H98.3493L88.2693 67.9ZM85.7893 72V58H89.1893V72H85.7893ZM94.7693 72L89.5693 65.16L91.8693 63.18L98.7293 72H94.7693Z" fill="#191923"/>
</svg>
