<svg width="128" height="128" viewBox="0 0 128 128" fill="none" xmlns="http://www.w3.org/2000/svg">
<path d="M52 19H76H96C103.18 19 109 24.8203 109 32V35.2V54.4V96C109 103.18 103.18 109 96 109H76H64H52H32C24.8203 109 19 103.18 19 96V54.4V32C19 24.8203 24.8203 19 32 19H52Z" fill="#FBFEF9" stroke="#FBFEF9" stroke-width="6"/>
<path d="M53.5 25H74.5H96C99.866 25 103 28.134 103 32V38.8V55.6V96C103 99.866 99.866 103 96 103H74.5H64H53.5H32C28.134 103 25 99.866 25 96V55.6V32C25 28.134 28.134 25 32 25H53.5Z" stroke="#C8CED0" stroke-width="6"/>
<path d="M38.6727 72.2C37.6194 72.2 36.6461 72.0267 35.7527 71.68C34.8727 71.32 34.1061 70.82 33.4527 70.18C32.7994 69.5267 32.2927 68.76 31.9327 67.88C31.5861 66.9867 31.4127 66.0067 31.4127 64.94C31.4127 63.9 31.5994 62.94 31.9727 62.06C32.3461 61.18 32.8594 60.42 33.5127 59.78C34.1794 59.1267 34.9594 58.62 35.8527 58.26C36.7594 57.9 37.7461 57.72 38.8127 57.72C39.4794 57.72 40.1327 57.8067 40.7727 57.98C41.4127 58.1533 42.0061 58.4133 42.5527 58.76C43.1127 59.0933 43.5927 59.4933 43.9927 59.96L41.9127 62.34C41.6327 62.0467 41.3327 61.7933 41.0127 61.58C40.7061 61.3533 40.3661 61.18 39.9927 61.06C39.6194 60.94 39.2194 60.88 38.7927 60.88C38.2594 60.88 37.7527 60.98 37.2727 61.18C36.8061 61.3667 36.3927 61.64 36.0327 62C35.6861 62.3467 35.4127 62.7733 35.2127 63.28C35.0127 63.7867 34.9127 64.3533 34.9127 64.98C34.9127 65.5933 35.0127 66.1533 35.2127 66.66C35.4127 67.1533 35.6927 67.58 36.0527 67.94C36.4127 68.3 36.8461 68.5733 37.3527 68.76C37.8727 68.9467 38.4461 69.04 39.0727 69.04C39.4994 69.04 39.9061 68.98 40.2927 68.86C40.6794 68.74 41.0327 68.58 41.3527 68.38C41.6861 68.1667 41.9794 67.9267 42.2327 67.66L43.8727 70.26C43.5394 70.6333 43.0927 70.9667 42.5327 71.26C41.9861 71.5533 41.3727 71.7867 40.6927 71.96C40.0261 72.12 39.3527 72.2 38.6727 72.2ZM46.1995 72V58H49.5995V69H55.8395V72H46.1995ZM58.387 72V58H68.147V60.9H61.687V69.1H68.347V72H58.387ZM59.987 66.26V63.5H67.247V66.26H59.987ZM69.4976 72L75.0376 58H77.9176L83.4176 72H79.9776L77.3376 64.9C77.2309 64.62 77.1242 64.32 77.0176 64C76.9109 63.68 76.8042 63.3533 76.6976 63.02C76.5909 62.6733 76.4842 62.34 76.3776 62.02C76.2842 61.6867 76.2042 61.38 76.1376 61.1L76.7376 61.08C76.6576 61.4133 76.5642 61.74 76.4576 62.06C76.3642 62.38 76.2642 62.7 76.1576 63.02C76.0642 63.3267 75.9576 63.64 75.8376 63.96C75.7176 64.2667 75.6042 64.5867 75.4976 64.92L72.8576 72H69.4976ZM72.1376 69.32L73.1976 66.76H79.6376L80.6776 69.32H72.1376ZM85.1643 72V58H91.4643C92.3576 58 93.1643 58.1933 93.8843 58.58C94.6176 58.9667 95.191 59.5 95.6043 60.18C96.0176 60.8467 96.2243 61.6067 96.2243 62.46C96.2243 63.34 96.0176 64.1333 95.6043 64.84C95.191 65.5333 94.6243 66.08 93.9043 66.48C93.1843 66.88 92.371 67.08 91.4643 67.08H88.4043V72H85.1643ZM92.9243 72L89.3643 65.68L92.8443 65.18L96.8043 72H92.9243ZM88.4043 64.48H91.1643C91.511 64.48 91.811 64.4067 92.0643 64.26C92.331 64.1 92.531 63.88 92.6643 63.6C92.811 63.32 92.8843 63 92.8843 62.64C92.8843 62.28 92.8043 61.9667 92.6443 61.7C92.4843 61.42 92.251 61.2067 91.9443 61.06C91.651 60.9133 91.291 60.84 90.8643 60.84H88.4043V64.48Z" fill="#191923"/>
</svg>
