<svg width="128" height="128" viewBox="0 0 128 128" fill="none" xmlns="http://www.w3.org/2000/svg">
<path d="M52 11H76H96C103.18 11 109 16.8203 109 24V30.4V52.8V104C109 111.18 103.18 117 96 117H76H64H52H32C24.8203 117 19 111.18 19 104V52.8V24C19 16.8203 24.8203 11 32 11H52Z" fill="#FBFEF9" stroke="#FBFEF9" stroke-width="6"/>
<path d="M53.5 17H74.5H96C99.866 17 103 20.134 103 24V34V54V104C103 107.866 99.866 111 96 111H74.5H64H53.5H32C28.134 111 25 107.866 25 104V54V24C25 20.134 28.134 17 32 17H53.5Z" stroke="#C8CED0" stroke-width="6"/>
<path d="M51.232 61.264L48.544 56.208C54.432 55.44 57.632 53.52 59.008 52.24H48.928V47.728H52.16V39.76H61.632V38.032H66.368V39.76H75.84V47.728H79.072V52.24H68.768C69.952 53.36 72.16 55.44 79.584 56.016L77.024 61.008C75.296 60.752 72.576 60.272 69.152 58.16C66.688 56.656 64.992 54.768 64.064 53.264C62.336 55.888 58.592 59.216 51.232 61.264ZM66.368 43.952V45.2C66.368 46.672 66.24 47.408 66.176 47.728H71.104V43.952H66.368ZM61.632 45.84V43.952H56.832V47.728H61.44C61.568 47.12 61.632 46.448 61.632 45.84ZM54.912 32.656V30.64H59.584V32.656H68.32V30.64H73.088V32.656H79.072V37.232H73.088V38.96H68.32V37.232H59.584V38.96H54.912V37.232H48.928V32.656H54.912ZM66.176 96.912L63.936 93.616L62.368 96.336C61.472 95.696 60.768 95.216 58.72 94.192C56.672 95.504 54.272 96.496 50.592 97.168L48.896 93.2C51.392 92.976 52.8 92.592 54.016 92.112C51.136 90.992 50.24 90.832 49.664 90.704C50.24 89.84 50.656 89.232 51.584 87.248H48.896V83.408H53.12C53.504 82.352 53.664 81.712 53.824 81.04L55.072 81.168V77.744C53.088 80.24 51.52 81.232 50.4 81.904L48.192 78.448C49.28 78.064 50.752 77.392 53.12 75.184H48.896V71.536H50.752C50.208 69.648 49.568 68.4 49.248 67.76L52.576 66.576C53.504 68.336 53.856 69.04 54.336 70.48L51.52 71.536H55.072V66.608H59.552V71.536H63.36L59.936 70.512C60.32 69.872 60.992 68.848 61.856 66.48L65.568 67.44C65.12 68.624 64.48 69.936 63.552 71.536H65.12V75.184H60.992C61.536 75.728 62.592 76.72 63.968 77.552C65.024 75.952 67.264 71.856 67.808 66.384L72.512 66.896C72.352 67.952 72.192 69.104 71.808 70.896H79.2V75.728H78.176C78.048 77.552 77.632 83.856 75.232 88.304C76.992 90.544 78.72 91.632 79.776 92.304L77.12 97.008C75.936 96.176 74.144 94.928 72.128 92.464C69.728 94.928 67.36 96.24 66.176 96.912ZM65.44 87.248H63.84C63.552 88.112 63.136 89.392 62.016 91.024C62.432 91.216 62.976 91.44 64.416 92.048C65.632 91.504 67.616 90.48 69.536 88.368C69.088 87.344 68.128 85.264 67.328 81.264C66.816 82 66.528 82.32 66.016 82.896L63.136 79.632L62.208 80.88C61.408 80.272 60.832 79.856 59.552 78.16V81.616H58.336C57.984 82.64 57.888 82.96 57.728 83.408H65.44V87.248ZM73.664 75.728H70.368C70.848 79.888 71.968 82.512 72.384 83.504C73.44 80.368 73.6 77.552 73.664 75.728ZM59.68 87.248H56.192C56.064 87.568 56 87.728 55.392 88.976C56.256 89.168 56.896 89.296 58.144 89.648C59.072 88.656 59.392 87.888 59.68 87.248Z" fill="#191923"/>
</svg>
