<svg width="128" height="128" viewBox="0 0 128 128" fill="none" xmlns="http://www.w3.org/2000/svg">
<path d="M125 33V49.8V66.6V101C125 108.18 119.18 114 112 114H80H64H48H16C8.8203 114 3 108.18 3 101V82.6C3 75.4203 8.8203 69.6 16 69.6H48C58.4934 69.6 67 61.0934 67 50.6V33V27C67 19.8203 72.8203 14 80 14H112C119.18 14 125 19.8203 125 27V33Z" fill="#FBFEF9" stroke="#FBFEF9" stroke-width="6"/>
<path d="M119 36.5094V51.4075V66.3057V101C119 104.866 115.866 108 112 108H78.5H64H49.5H16C12.134 108 9 104.866 9 101V82.3057C9 78.4397 12.134 75.3057 16 75.3057H48C61.8071 75.3057 73 64.1128 73 50.3057V36.5094V27C73 23.134 76.134 20 80 20H112C115.866 20 119 23.134 119 27V36.5094Z" stroke="#C8CED0" stroke-width="6"/>
<path d="M14.112 101V84.2H25.824V87.68H18.072V97.52H26.064V101H14.112ZM16.032 94.112V90.8H24.744V94.112H16.032ZM29.5808 101V84.2H33.2288L42.0368 96.2L41.2448 96.08C41.1648 95.552 41.1008 95.048 41.0528 94.568C41.0048 94.088 40.9568 93.616 40.9088 93.152C40.8768 92.688 40.8448 92.216 40.8128 91.736C40.7968 91.256 40.7808 90.736 40.7648 90.176C40.7648 89.616 40.7648 89.008 40.7648 88.352V84.2H44.7248V101H41.0287L31.8368 88.616L33.0608 88.784C33.1408 89.552 33.2048 90.208 33.2528 90.752C33.3168 91.28 33.3648 91.752 33.3968 92.168C33.4448 92.584 33.4768 92.96 33.4928 93.296C33.5088 93.632 33.5168 93.968 33.5168 94.304C33.5328 94.624 33.5408 94.984 33.5408 95.384V101H29.5808ZM52.5881 101V87.8H47.5961V84.2H61.7801V87.8H56.6681V101H52.5881ZM64.6667 101V84.2H76.3787V87.68H68.6267V97.52H76.6187V101H64.6667ZM66.5867 94.112V90.8H75.2987V94.112H66.5867ZM80.1354 101V84.2H87.6954C88.7674 84.2 89.7354 84.432 90.5994 84.896C91.4794 85.36 92.1674 86 92.6634 86.816C93.1594 87.616 93.4074 88.528 93.4074 89.552C93.4074 90.608 93.1594 91.56 92.6634 92.408C92.1674 93.24 91.4874 93.896 90.6234 94.376C89.7594 94.856 88.7834 95.096 87.6954 95.096H84.0234V101H80.1354ZM89.4474 101L85.1754 93.416L89.3514 92.816L94.1034 101H89.4474ZM84.0234 91.976H87.3354C87.7514 91.976 88.1114 91.888 88.4154 91.712C88.7354 91.52 88.9754 91.256 89.1354 90.92C89.3114 90.584 89.3994 90.2 89.3994 89.768C89.3994 89.336 89.3034 88.96 89.1114 88.64C88.9194 88.304 88.6394 88.048 88.2714 87.872C87.9194 87.696 87.4874 87.608 86.9754 87.608H84.0234V91.976Z" fill="#191923"/>
<path d="M89.8956 52.8551L81.4837 44.5455L89.8956 36.2358V52.8551ZM87.2365 46.4375V42.6534H110.427V46.4375H87.2365ZM106.758 46.4375V29.8182H110.504V46.4375H106.758Z" fill="#191923"/>
</svg>
