<svg width="128" height="128" viewBox="0 0 128 128" fill="none" xmlns="http://www.w3.org/2000/svg">
<path d="M52 11H76H96C103.18 11 109 16.8203 109 24V30.4V52.8V104C109 111.18 103.18 117 96 117H76H64H52H32C24.8203 117 19 111.18 19 104V52.8V24C19 16.8203 24.8203 11 32 11H52Z" fill="#FBFEF9" stroke="#FBFEF9" stroke-width="6"/>
<path d="M53.5 17H74.5H96C99.866 17 103 20.134 103 24V34V54V104C103 107.866 99.866 111 96 111H74.5H64H53.5H32C28.134 111 25 107.866 25 104V54V24C25 20.134 28.134 17 32 17H53.5Z" stroke="#C8CED0" stroke-width="6"/>
<path d="M33.1336 68V63.424H36.9096V50.176H33.1336V45.6H46.1576V50.176H42.3496V63.424H46.1576V68H33.1336ZM51.3316 68V45.6H56.1956L64.3556 58.88L60.8676 58.848L69.1236 45.6H73.7956V68H68.5156V61.024C68.5156 59.104 68.5583 57.376 68.6436 55.84C68.7503 54.304 68.921 52.7787 69.1556 51.264L69.7636 52.928L63.5556 62.56H61.4436L55.3636 52.992L55.9716 51.264C56.2063 52.6933 56.3663 54.1653 56.4516 55.68C56.5583 57.1733 56.6116 58.9547 56.6116 61.024V68H51.3316ZM79.4254 68V45.6H95.0414V50.24H84.7054V63.36H95.3614V68H79.4254ZM81.9854 58.816V54.4H93.6014V58.816H81.9854ZM31.7809 88L36.2129 76.8H38.5169L42.9169 88H40.1649L38.0529 82.32C37.9675 82.096 37.8822 81.856 37.7969 81.6C37.7115 81.344 37.6262 81.0827 37.5409 80.816C37.4555 80.5387 37.3702 80.272 37.2849 80.016C37.2102 79.7493 37.1462 79.504 37.0929 79.28L37.5729 79.264C37.5089 79.5307 37.4342 79.792 37.3489 80.048C37.2742 80.304 37.1942 80.56 37.1089 80.816C37.0342 81.0613 36.9489 81.312 36.8529 81.568C36.7569 81.8133 36.6662 82.0693 36.5809 82.336L34.4689 88H31.7809ZM33.8929 85.856L34.7409 83.808H39.8929L40.7249 85.856H33.8929ZM49.0898 88.16C48.2471 88.16 47.4684 88.0213 46.7538 87.744C46.0498 87.456 45.4364 87.056 44.9138 86.544C44.3911 86.0213 43.9858 85.408 43.6978 84.704C43.4204 83.9893 43.2818 83.2053 43.2818 82.352C43.2818 81.52 43.4311 80.752 43.7298 80.048C44.0284 79.344 44.4391 78.736 44.9618 78.224C45.4951 77.7013 46.1191 77.296 46.8338 77.008C47.5591 76.72 48.3484 76.576 49.2018 76.576C49.7351 76.576 50.2578 76.6453 50.7698 76.784C51.2818 76.9227 51.7564 77.1307 52.1938 77.408C52.6418 77.6747 53.0258 77.9947 53.3458 78.368L51.6818 80.272C51.4578 80.0373 51.2178 79.8347 50.9618 79.664C50.7164 79.4827 50.4444 79.344 50.1458 79.248C49.8471 79.152 49.5271 79.104 49.1858 79.104C48.7591 79.104 48.3538 79.184 47.9698 79.344C47.5964 79.4933 47.2658 79.712 46.9778 80C46.7004 80.2773 46.4818 80.6187 46.3218 81.024C46.1618 81.4293 46.0818 81.8827 46.0818 82.384C46.0818 82.8747 46.1618 83.3227 46.3218 83.728C46.4818 84.1227 46.7058 84.464 46.9938 84.752C47.2818 85.04 47.6284 85.2587 48.0338 85.408C48.4498 85.5573 48.9084 85.632 49.4098 85.632C49.7511 85.632 50.0764 85.584 50.3858 85.488C50.6951 85.392 50.9778 85.264 51.2338 85.104C51.5004 84.9333 51.7351 84.7413 51.9378 84.528L53.2498 86.608C52.9831 86.9067 52.6258 87.1733 52.1778 87.408C51.7404 87.6427 51.2498 87.8293 50.7058 87.968C50.1724 88.096 49.6338 88.16 49.0898 88.16ZM60.1991 88.16C59.3565 88.16 58.5778 88.0213 57.8631 87.744C57.1591 87.456 56.5458 87.056 56.0231 86.544C55.5005 86.0213 55.0951 85.408 54.8071 84.704C54.5298 83.9893 54.3911 83.2053 54.3911 82.352C54.3911 81.52 54.5405 80.752 54.8391 80.048C55.1378 79.344 55.5485 78.736 56.0711 78.224C56.6045 77.7013 57.2285 77.296 57.9431 77.008C58.6685 76.72 59.4578 76.576 60.3111 76.576C60.8445 76.576 61.3671 76.6453 61.8791 76.784C62.3911 76.9227 62.8658 77.1307 63.3031 77.408C63.7511 77.6747 64.1351 77.9947 64.4551 78.368L62.7911 80.272C62.5671 80.0373 62.3271 79.8347 62.0711 79.664C61.8258 79.4827 61.5538 79.344 61.2551 79.248C60.9565 79.152 60.6365 79.104 60.2951 79.104C59.8685 79.104 59.4631 79.184 59.0791 79.344C58.7058 79.4933 58.3751 79.712 58.0871 80C57.8098 80.2773 57.5911 80.6187 57.4311 81.024C57.2711 81.4293 57.1911 81.8827 57.1911 82.384C57.1911 82.8747 57.2711 83.3227 57.4311 83.728C57.5911 84.1227 57.8151 84.464 58.1031 84.752C58.3911 85.04 58.7378 85.2587 59.1431 85.408C59.5591 85.5573 60.0178 85.632 60.5191 85.632C60.8605 85.632 61.1858 85.584 61.4951 85.488C61.8045 85.392 62.0871 85.264 62.3431 85.104C62.6098 84.9333 62.8445 84.7413 63.0471 84.528L64.3591 86.608C64.0925 86.9067 63.7351 87.1733 63.2871 87.408C62.8498 87.6427 62.3591 87.8293 61.8151 87.968C61.2818 88.096 60.7431 88.16 60.1991 88.16ZM66.2205 88V76.8H74.0285V79.12H68.8605V85.68H74.1885V88H66.2205ZM67.5005 83.408V81.2H73.3085V83.408H67.5005ZM76.533 88V76.8H81.365C82.069 76.8 82.693 76.96 83.237 77.28C83.7917 77.6 84.229 78.0373 84.549 78.592C84.8797 79.1467 85.045 79.7707 85.045 80.464C85.045 81.1893 84.8797 81.84 84.549 82.416C84.229 82.9813 83.7917 83.4293 83.237 83.76C82.693 84.0907 82.069 84.256 81.365 84.256H79.253V88H76.533ZM79.205 81.872H80.981C81.2157 81.872 81.429 81.8133 81.621 81.696C81.813 81.5787 81.9677 81.4187 82.085 81.216C82.2023 81.0133 82.261 80.7787 82.261 80.512C82.261 80.2347 82.2023 80 82.085 79.808C81.9677 79.616 81.813 79.4667 81.621 79.36C81.429 79.2533 81.2157 79.2 80.981 79.2H79.205V81.872ZM89.5588 88V79.2H86.2308V76.8H95.6868V79.2H92.2788V88H89.5588Z" fill="#191923"/>
</svg>
