<svg width="128" height="128" viewBox="0 0 128 128" fill="none" xmlns="http://www.w3.org/2000/svg">
<path d="M52 11H76H96C103.18 11 109 16.8203 109 24V30.4V52.8V104C109 111.18 103.18 117 96 117H76H64H52H32C24.8203 117 19 111.18 19 104V52.8V24C19 16.8203 24.8203 11 32 11H52Z" fill="#FBFEF9" stroke="#FBFEF9" stroke-width="6"/>
<path d="M53.5 17H74.5H96C99.866 17 103 20.134 103 24V34V54V104C103 107.866 99.866 111 96 111H74.5H64H53.5H32C28.134 111 25 107.866 25 104V54V24C25 20.134 28.134 17 32 17H53.5Z" stroke="#C8CED0" stroke-width="6"/>
<path d="M33.1336 58V53.424H36.9096V40.176H33.1336V35.6H46.1576V40.176H42.3496V53.424H46.1576V58H33.1336ZM51.3316 58V35.6H56.1956L64.3556 48.88L60.8676 48.848L69.1236 35.6H73.7956V58H68.5156V51.024C68.5156 49.104 68.5583 47.376 68.6436 45.84C68.7503 44.304 68.921 42.7787 69.1556 41.264L69.7636 42.928L63.5556 52.56H61.4436L55.3636 42.992L55.9716 41.264C56.2063 42.6933 56.3663 44.1653 56.4516 45.68C56.5583 47.1733 56.6116 48.9547 56.6116 51.024V58H51.3316ZM79.4254 58V35.6H95.0414V40.24H84.7054V53.36H95.3614V58H79.4254ZM81.9854 48.816V44.4H93.6014V48.816H81.9854ZM40.5564 78V66.8H42.9884L47.0684 73.44L45.3244 73.424L49.4524 66.8H51.7884V78H49.1484V74.512C49.1484 73.552 49.1698 72.688 49.2124 71.92C49.2658 71.152 49.3511 70.3893 49.4684 69.632L49.7724 70.464L46.6684 75.28H45.6124L42.5724 70.496L42.8764 69.632C42.9938 70.3467 43.0738 71.0827 43.1164 71.84C43.1698 72.5867 43.1964 73.4773 43.1964 74.512V78H40.5564ZM59.7073 78.16C58.854 78.16 58.0753 78.016 57.3713 77.728C56.6673 77.44 56.054 77.0347 55.5313 76.512C55.0086 75.9893 54.6033 75.376 54.3153 74.672C54.0273 73.968 53.8833 73.1947 53.8833 72.352C53.8833 71.5093 54.0273 70.736 54.3153 70.032C54.6033 69.328 55.0086 68.7147 55.5313 68.192C56.054 67.6693 56.6673 67.264 57.3713 66.976C58.0753 66.688 58.8486 66.544 59.6913 66.544C60.534 66.544 61.3073 66.688 62.0113 66.976C62.7153 67.264 63.3286 67.6693 63.8513 68.192C64.374 68.7147 64.774 69.328 65.0513 70.032C65.3393 70.736 65.4833 71.5093 65.4833 72.352C65.4833 73.184 65.3393 73.9573 65.0513 74.672C64.774 75.376 64.374 75.9893 63.8513 76.512C63.3286 77.0347 62.7153 77.44 62.0113 77.728C61.3073 78.016 60.5393 78.16 59.7073 78.16ZM59.6913 75.6C60.1286 75.6 60.5286 75.52 60.8913 75.36C61.2646 75.2 61.5846 74.976 61.8513 74.688C62.1286 74.3893 62.342 74.0427 62.4913 73.648C62.6406 73.2533 62.7153 72.8213 62.7153 72.352C62.7153 71.8827 62.6406 71.4507 62.4913 71.056C62.342 70.6613 62.1286 70.32 61.8513 70.032C61.5846 69.7333 61.2646 69.504 60.8913 69.344C60.5286 69.184 60.1286 69.104 59.6913 69.104C59.254 69.104 58.8486 69.184 58.4753 69.344C58.1126 69.504 57.7926 69.7333 57.5153 70.032C57.238 70.32 57.0246 70.6613 56.8753 71.056C56.7366 71.4507 56.6673 71.8827 56.6673 72.352C56.6673 72.8213 56.7366 73.2587 56.8753 73.664C57.0246 74.0587 57.238 74.4 57.5153 74.688C57.7926 74.976 58.1126 75.2 58.4753 75.36C58.8486 75.52 59.254 75.6 59.6913 75.6ZM67.5877 78V66.8H72.2757C73.097 66.8 73.849 66.9387 74.5317 67.216C75.2144 67.4827 75.801 67.8667 76.2917 68.368C76.793 68.8693 77.177 69.4613 77.4437 70.144C77.7104 70.8267 77.8437 71.5787 77.8437 72.4C77.8437 73.2213 77.7104 73.9787 77.4437 74.672C77.177 75.3547 76.793 75.9467 76.2917 76.448C75.801 76.9387 75.2144 77.3227 74.5317 77.6C73.849 77.8667 73.097 78 72.2757 78H67.5877ZM70.3077 76.144L69.9397 75.6H72.1957C72.6437 75.6 73.0437 75.5253 73.3957 75.376C73.7477 75.216 74.0464 74.9973 74.2917 74.72C74.5477 74.4427 74.745 74.1067 74.8837 73.712C75.0224 73.3173 75.0917 72.88 75.0917 72.4C75.0917 71.92 75.0224 71.4827 74.8837 71.088C74.745 70.6933 74.5477 70.3573 74.2917 70.08C74.0464 69.8027 73.7477 69.5893 73.3957 69.44C73.0437 69.28 72.6437 69.2 72.1957 69.2H69.8917L70.3077 68.688V76.144ZM79.9471 78V66.8H87.7551V69.12H82.5871V75.68H87.9151V78H79.9471ZM81.2271 73.408V71.2H87.0351V73.408H81.2271ZM35.2851 98.16C34.4424 98.16 33.6637 98.0213 32.9491 97.744C32.2451 97.456 31.6317 97.056 31.1091 96.544C30.5864 96.0213 30.1811 95.408 29.8931 94.704C29.6157 93.9893 29.4771 93.2053 29.4771 92.352C29.4771 91.52 29.6264 90.752 29.9251 90.048C30.2237 89.344 30.6344 88.736 31.1571 88.224C31.6904 87.7013 32.3144 87.296 33.0291 87.008C33.7544 86.72 34.5437 86.576 35.3971 86.576C35.9304 86.576 36.4531 86.6453 36.9651 86.784C37.4771 86.9227 37.9517 87.1307 38.3891 87.408C38.8371 87.6747 39.2211 87.9947 39.5411 88.368L37.8771 90.272C37.6531 90.0373 37.4131 89.8347 37.1571 89.664C36.9117 89.4827 36.6397 89.344 36.3411 89.248C36.0424 89.152 35.7224 89.104 35.3811 89.104C34.9544 89.104 34.5491 89.184 34.1651 89.344C33.7917 89.4933 33.4611 89.712 33.1731 90C32.8957 90.2773 32.6771 90.6187 32.5171 91.024C32.3571 91.4293 32.2771 91.8827 32.2771 92.384C32.2771 92.8747 32.3571 93.3227 32.5171 93.728C32.6771 94.1227 32.9011 94.464 33.1891 94.752C33.4771 95.04 33.8237 95.2587 34.2291 95.408C34.6451 95.5573 35.1037 95.632 35.6051 95.632C35.9464 95.632 36.2717 95.584 36.5811 95.488C36.8904 95.392 37.1731 95.264 37.4291 95.104C37.6957 94.9333 37.9304 94.7413 38.1331 94.528L39.4451 96.608C39.1784 96.9067 38.8211 97.1733 38.3731 97.408C37.9357 97.6427 37.4451 97.8293 36.9011 97.968C36.3677 98.096 35.8291 98.16 35.2851 98.16ZM48.2504 98V86.8H50.9704V98H48.2504ZM41.3064 98V86.8H44.0264V98H41.3064ZM42.3624 93.632L42.3784 91.2H49.6904V93.632H42.3624ZM52.3512 98L56.7832 86.8H59.0872L63.4872 98H60.7352L58.6232 92.32C58.5379 92.096 58.4525 91.856 58.3672 91.6C58.2819 91.344 58.1965 91.0827 58.1112 90.816C58.0259 90.5387 57.9405 90.272 57.8552 90.016C57.7805 89.7493 57.7165 89.504 57.6632 89.28L58.1432 89.264C58.0792 89.5307 58.0045 89.792 57.9192 90.048C57.8445 90.304 57.7645 90.56 57.6792 90.816C57.6045 91.0613 57.5192 91.312 57.4232 91.568C57.3272 91.8133 57.2365 92.0693 57.1512 92.336L55.0392 98H52.3512ZM54.4632 95.856L55.3112 93.808H60.4632L61.2952 95.856H54.4632ZM64.8846 98V86.8H67.3166L73.1886 94.8L72.6606 94.72C72.6072 94.368 72.5646 94.032 72.5326 93.712C72.5006 93.392 72.4686 93.0773 72.4366 92.768C72.4152 92.4587 72.3939 92.144 72.3726 91.824C72.3619 91.504 72.3512 91.1573 72.3406 90.784C72.3406 90.4107 72.3406 90.0053 72.3406 89.568V86.8H74.9806V98H72.5166L66.3886 89.744L67.2046 89.856C67.2579 90.368 67.3006 90.8053 67.3326 91.168C67.3752 91.52 67.4072 91.8347 67.4286 92.112C67.4606 92.3893 67.4819 92.64 67.4926 92.864C67.5032 93.088 67.5086 93.312 67.5086 93.536C67.5192 93.7493 67.5246 93.9893 67.5246 94.256V98H64.8846ZM82.9908 98.16C82.0948 98.16 81.2841 98.016 80.5588 97.728C79.8335 97.44 79.2095 97.0347 78.6868 96.512C78.1641 95.9893 77.7641 95.376 77.4868 94.672C77.2095 93.9573 77.0708 93.184 77.0708 92.352C77.0708 91.52 77.2148 90.7573 77.5028 90.064C77.8015 89.36 78.2228 88.7467 78.7668 88.224C79.3108 87.7013 79.9508 87.296 80.6868 87.008C81.4335 86.72 82.2441 86.576 83.1188 86.576C83.7375 86.576 84.3188 86.656 84.8628 86.816C85.4175 86.976 85.9188 87.1947 86.3668 87.472C86.8148 87.7493 87.1935 88.0693 87.5028 88.432L85.8548 90.176C85.5881 89.92 85.3108 89.7067 85.0228 89.536C84.7455 89.3653 84.4468 89.232 84.1268 89.136C83.8068 89.0293 83.4655 88.976 83.1028 88.976C82.6335 88.976 82.2015 89.0613 81.8068 89.232C81.4228 89.4027 81.0815 89.6427 80.7828 89.952C80.4948 90.2507 80.2708 90.608 80.1108 91.024C79.9508 91.4293 79.8708 91.872 79.8708 92.352C79.8708 92.832 79.9561 93.28 80.1268 93.696C80.2975 94.112 80.5321 94.4747 80.8308 94.784C81.1295 95.0827 81.4815 95.3227 81.8868 95.504C82.3028 95.6747 82.7455 95.76 83.2148 95.76C83.5455 95.76 83.8548 95.7067 84.1428 95.6C84.4415 95.4933 84.6975 95.3493 84.9108 95.168C85.1241 94.9867 85.2948 94.7733 85.4228 94.528C85.5508 94.272 85.6148 94 85.6148 93.712V93.296L85.9668 93.84H82.8788V91.712H88.1428C88.1641 91.8293 88.1801 91.9893 88.1908 92.192C88.2015 92.3947 88.2068 92.592 88.2068 92.784C88.2175 92.976 88.2228 93.12 88.2228 93.216C88.2228 93.9413 88.0895 94.608 87.8228 95.216C87.5668 95.8133 87.2041 96.3307 86.7348 96.768C86.2655 97.2053 85.7108 97.5467 85.0708 97.792C84.4308 98.0373 83.7375 98.16 82.9908 98.16ZM90.3064 98V86.8H98.1144V89.12H92.9464V95.68H98.2744V98H90.3064ZM91.5864 93.408V91.2H97.3944V93.408H91.5864Z" fill="#191923"/>
</svg>
