<svg width="128" height="128" viewBox="0 0 128 128" fill="none" xmlns="http://www.w3.org/2000/svg">
<path d="M52 11H76H96C103.18 11 109 16.8203 109 24V30.4V52.8V104C109 111.18 103.18 117 96 117H76H64H52H32C24.8203 117 19 111.18 19 104V52.8V24C19 16.8203 24.8203 11 32 11H52Z" fill="#FBFEF9" stroke="#FBFEF9" stroke-width="6"/>
<path d="M53.5 17H74.5H96C99.866 17 103 20.134 103 24V34V54V104C103 107.866 99.866 111 96 111H74.5H64H53.5H32C28.134 111 25 107.866 25 104V54V24C25 20.134 28.134 17 32 17H53.5Z" stroke="#C8CED0" stroke-width="6"/>
<path d="M33.1336 58V53.424H36.9096V40.176H33.1336V35.6H46.1576V40.176H42.3496V53.424H46.1576V58H33.1336ZM51.3316 58V35.6H56.1956L64.3556 48.88L60.8676 48.848L69.1236 35.6H73.7956V58H68.5156V51.024C68.5156 49.104 68.5583 47.376 68.6436 45.84C68.7503 44.304 68.921 42.7787 69.1556 41.264L69.7636 42.928L63.5556 52.56H61.4436L55.3636 42.992L55.9716 41.264C56.2063 42.6933 56.3663 44.1653 56.4516 45.68C56.5583 47.1733 56.6116 48.9547 56.6116 51.024V58H51.3316ZM79.4254 58V35.6H95.0414V40.24H84.7054V53.36H95.3614V58H79.4254ZM81.9854 48.816V44.4H93.6014V48.816H81.9854ZM42.4236 78V66.8H44.8556L50.7276 74.8L50.1996 74.72C50.1463 74.368 50.1036 74.032 50.0716 73.712C50.0396 73.392 50.0076 73.0773 49.9756 72.768C49.9543 72.4587 49.933 72.144 49.9116 71.824C49.901 71.504 49.8903 71.1573 49.8796 70.784C49.8796 70.4107 49.8796 70.0053 49.8796 69.568V66.8H52.5196V78H50.0556L43.9276 69.744L44.7436 69.856C44.797 70.368 44.8396 70.8053 44.8716 71.168C44.9143 71.52 44.9463 71.8347 44.9676 72.112C44.9996 72.3893 45.021 72.64 45.0316 72.864C45.0423 73.088 45.0476 73.312 45.0476 73.536C45.0583 73.7493 45.0636 73.9893 45.0636 74.256V78H42.4236ZM60.4339 78.16C59.5805 78.16 58.8019 78.016 58.0979 77.728C57.3939 77.44 56.7805 77.0347 56.2579 76.512C55.7352 75.9893 55.3299 75.376 55.0419 74.672C54.7539 73.968 54.6099 73.1947 54.6099 72.352C54.6099 71.5093 54.7539 70.736 55.0419 70.032C55.3299 69.328 55.7352 68.7147 56.2579 68.192C56.7805 67.6693 57.3939 67.264 58.0979 66.976C58.8019 66.688 59.5752 66.544 60.4179 66.544C61.2605 66.544 62.0339 66.688 62.7379 66.976C63.4419 67.264 64.0552 67.6693 64.5779 68.192C65.1005 68.7147 65.5005 69.328 65.7779 70.032C66.0659 70.736 66.2099 71.5093 66.2099 72.352C66.2099 73.184 66.0659 73.9573 65.7779 74.672C65.5005 75.376 65.1005 75.9893 64.5779 76.512C64.0552 77.0347 63.4419 77.44 62.7379 77.728C62.0339 78.016 61.2659 78.16 60.4339 78.16ZM60.4179 75.6C60.8552 75.6 61.2552 75.52 61.6179 75.36C61.9912 75.2 62.3112 74.976 62.5779 74.688C62.8552 74.3893 63.0685 74.0427 63.2179 73.648C63.3672 73.2533 63.4419 72.8213 63.4419 72.352C63.4419 71.8827 63.3672 71.4507 63.2179 71.056C63.0685 70.6613 62.8552 70.32 62.5779 70.032C62.3112 69.7333 61.9912 69.504 61.6179 69.344C61.2552 69.184 60.8552 69.104 60.4179 69.104C59.9805 69.104 59.5752 69.184 59.2019 69.344C58.8392 69.504 58.5192 69.7333 58.2419 70.032C57.9645 70.32 57.7512 70.6613 57.6019 71.056C57.4632 71.4507 57.3939 71.8827 57.3939 72.352C57.3939 72.8213 57.4632 73.2587 57.6019 73.664C57.7512 74.0587 57.9645 74.4 58.2419 74.688C58.5192 74.976 58.8392 75.2 59.2019 75.36C59.5752 75.52 59.9805 75.6 60.4179 75.6ZM68.3143 78V66.8H70.7463L76.6183 74.8L76.0903 74.72C76.0369 74.368 75.9943 74.032 75.9623 73.712C75.9303 73.392 75.8983 73.0773 75.8663 72.768C75.8449 72.4587 75.8236 72.144 75.8023 71.824C75.7916 71.504 75.7809 71.1573 75.7703 70.784C75.7703 70.4107 75.7703 70.0053 75.7703 69.568V66.8H78.4103V78H75.9462L69.8183 69.744L70.6343 69.856C70.6876 70.368 70.7303 70.8053 70.7623 71.168C70.8049 71.52 70.8369 71.8347 70.8583 72.112C70.8903 72.3893 70.9116 72.64 70.9223 72.864C70.9329 73.088 70.9383 73.312 70.9383 73.536C70.9489 73.7493 70.9543 73.9893 70.9543 74.256V78H68.3143ZM80.6285 74.576V72.224H86.1645V74.576H80.6285ZM30.4413 98.16C29.5986 98.16 28.82 98.0213 28.1053 97.744C27.4013 97.456 26.788 97.056 26.2653 96.544C25.7426 96.0213 25.3373 95.408 25.0493 94.704C24.772 93.9893 24.6333 93.2053 24.6333 92.352C24.6333 91.52 24.7826 90.752 25.0813 90.048C25.38 89.344 25.7906 88.736 26.3133 88.224C26.8466 87.7013 27.4706 87.296 28.1853 87.008C28.9106 86.72 29.7 86.576 30.5533 86.576C31.0866 86.576 31.6093 86.6453 32.1213 86.784C32.6333 86.9227 33.108 87.1307 33.5453 87.408C33.9933 87.6747 34.3773 87.9947 34.6973 88.368L33.0333 90.272C32.8093 90.0373 32.5693 89.8347 32.3133 89.664C32.068 89.4827 31.796 89.344 31.4973 89.248C31.1986 89.152 30.8786 89.104 30.5373 89.104C30.1106 89.104 29.7053 89.184 29.3213 89.344C28.948 89.4933 28.6173 89.712 28.3293 90C28.052 90.2773 27.8333 90.6187 27.6733 91.024C27.5133 91.4293 27.4333 91.8827 27.4333 92.384C27.4333 92.8747 27.5133 93.3227 27.6733 93.728C27.8333 94.1227 28.0573 94.464 28.3453 94.752C28.6333 95.04 28.98 95.2587 29.3853 95.408C29.8013 95.5573 30.26 95.632 30.7613 95.632C31.1026 95.632 31.428 95.584 31.7373 95.488C32.0466 95.392 32.3293 95.264 32.5853 95.104C32.852 94.9333 33.0866 94.7413 33.2893 94.528L34.6013 96.608C34.3346 96.9067 33.9773 97.1733 33.5293 97.408C33.092 97.6427 32.6013 97.8293 32.0573 97.968C31.524 98.096 30.9853 98.16 30.4413 98.16ZM41.5667 98.16C40.7134 98.16 39.9347 98.016 39.2307 97.728C38.5267 97.44 37.9134 97.0347 37.3907 96.512C36.868 95.9893 36.4627 95.376 36.1747 94.672C35.8867 93.968 35.7427 93.1947 35.7427 92.352C35.7427 91.5093 35.8867 90.736 36.1747 90.032C36.4627 89.328 36.868 88.7147 37.3907 88.192C37.9134 87.6693 38.5267 87.264 39.2307 86.976C39.9347 86.688 40.708 86.544 41.5507 86.544C42.3934 86.544 43.1667 86.688 43.8707 86.976C44.5747 87.264 45.188 87.6693 45.7107 88.192C46.2334 88.7147 46.6334 89.328 46.9107 90.032C47.1987 90.736 47.3427 91.5093 47.3427 92.352C47.3427 93.184 47.1987 93.9573 46.9107 94.672C46.6334 95.376 46.2334 95.9893 45.7107 96.512C45.188 97.0347 44.5747 97.44 43.8707 97.728C43.1667 98.016 42.3987 98.16 41.5667 98.16ZM41.5507 95.6C41.988 95.6 42.388 95.52 42.7507 95.36C43.124 95.2 43.444 94.976 43.7107 94.688C43.988 94.3893 44.2014 94.0427 44.3507 93.648C44.5 93.2533 44.5747 92.8213 44.5747 92.352C44.5747 91.8827 44.5 91.4507 44.3507 91.056C44.2014 90.6613 43.988 90.32 43.7107 90.032C43.444 89.7333 43.124 89.504 42.7507 89.344C42.388 89.184 41.988 89.104 41.5507 89.104C41.1134 89.104 40.708 89.184 40.3347 89.344C39.972 89.504 39.652 89.7333 39.3747 90.032C39.0974 90.32 38.884 90.6613 38.7347 91.056C38.596 91.4507 38.5267 91.8827 38.5267 92.352C38.5267 92.8213 38.596 93.2587 38.7347 93.664C38.884 94.0587 39.0974 94.4 39.3747 94.688C39.652 94.976 39.972 95.2 40.3347 95.36C40.708 95.52 41.1134 95.6 41.5507 95.6ZM49.4471 98V86.8H51.8791L57.7511 94.8L57.2231 94.72C57.1697 94.368 57.1271 94.032 57.0951 93.712C57.0631 93.392 57.0311 93.0773 56.9991 92.768C56.9777 92.4587 56.9564 92.144 56.9351 91.824C56.9244 91.504 56.9137 91.1573 56.9031 90.784C56.9031 90.4107 56.9031 90.0053 56.9031 89.568V86.8H59.5431V98H57.0791L50.9511 89.744L51.7671 89.856C51.8204 90.368 51.8631 90.8053 51.8951 91.168C51.9377 91.52 51.9697 91.8347 51.9911 92.112C52.0231 92.3893 52.0444 92.64 52.0551 92.864C52.0657 93.088 52.0711 93.312 52.0711 93.536C52.0817 93.7493 52.0871 93.9893 52.0871 94.256V98H49.4471ZM65.4893 98L61.0093 86.8H63.8413L66.0013 92.512C66.1293 92.8427 66.236 93.1307 66.3213 93.376C66.4173 93.6213 66.4973 93.8507 66.5613 94.064C66.636 94.2773 66.7 94.496 66.7533 94.72C66.8173 94.9333 66.8866 95.1787 66.9613 95.456H66.4653C66.5506 95.0933 66.636 94.7733 66.7213 94.496C66.8066 94.208 66.9026 93.9147 67.0093 93.616C67.116 93.3067 67.2493 92.9387 67.4093 92.512L69.4893 86.8H72.2733L67.7613 98H65.4893ZM73.7439 98V86.8H81.5519V89.12H76.3839V95.68H81.7119V98H73.7439ZM75.0239 93.408V91.2H80.8319V93.408H75.0239ZM84.0564 98V86.8H89.0964C89.8111 86.8 90.4564 86.9547 91.0324 87.264C91.6191 87.5733 92.0778 88 92.4084 88.544C92.7391 89.0773 92.9044 89.6853 92.9044 90.368C92.9044 91.072 92.7391 91.7067 92.4084 92.272C92.0778 92.8267 91.6244 93.264 91.0484 93.584C90.4724 93.904 89.8218 94.064 89.0964 94.064H86.6484V98H84.0564ZM90.2644 98L87.4164 92.944L90.2004 92.544L93.3684 98H90.2644ZM86.6484 91.984H88.8564C89.1338 91.984 89.3738 91.9253 89.5764 91.808C89.7898 91.68 89.9498 91.504 90.0564 91.28C90.1738 91.056 90.2324 90.8 90.2324 90.512C90.2324 90.224 90.1684 89.9733 90.0404 89.76C89.9124 89.536 89.7258 89.3653 89.4804 89.248C89.2458 89.1307 88.9578 89.072 88.6164 89.072H86.6484V91.984ZM97.4103 98V89.2H94.0823V86.8H103.538V89.2H100.13V98H97.4103Z" fill="#191923"/>
</svg>
