<svg width="128" height="128" viewBox="0 0 128 128" fill="none" xmlns="http://www.w3.org/2000/svg">
<path d="M25 80V48L25 16C25 8.8203 30.8203 3 38 3H38.8H55.6H90C97.1797 3 103 8.8203 103 16V48V64V80V112C103 119.18 97.1797 125 90 125H55.6H38C30.8203 125 25 119.18 25 112L25 80Z" fill="#FBFEF9" stroke="#FBFEF9" stroke-width="6"/>
<path d="M31 78.5V49.5L31 16C31 12.134 34.134 9 38 9H42.4H56.8H90C93.866 9 97 12.134 97 16V49.5V64V78.5V112C97 115.866 93.866 119 90 119H56.8H38C34.134 119 31 115.866 31 112L31 78.5Z" stroke="#C8CED0" stroke-width="6"/>
<path d="M37.783 25V13.8H45.591V16.12H40.423V22.68H45.751V25H37.783ZM39.063 20.408V18.2H44.871V20.408H39.063ZM48.0955 25V13.8H50.5275L56.3995 21.8L55.8715 21.72C55.8182 21.368 55.7755 21.032 55.7435 20.712C55.7115 20.392 55.6795 20.0773 55.6475 19.768C55.6262 19.4587 55.6048 19.144 55.5835 18.824C55.5728 18.504 55.5622 18.1573 55.5515 17.784C55.5515 17.4107 55.5515 17.0053 55.5515 16.568V13.8H58.1915V25H55.7275L49.5995 16.744L50.4155 16.856C50.4688 17.368 50.5115 17.8053 50.5435 18.168C50.5862 18.52 50.6182 18.8347 50.6395 19.112C50.6715 19.3893 50.6928 19.64 50.7035 19.864C50.7142 20.088 50.7195 20.312 50.7195 20.536C50.7302 20.7493 50.7355 20.9893 50.7355 21.256V25H48.0955ZM63.4338 25V16.2H60.1058V13.8H69.5618V16.2H66.1538V25H63.4338ZM71.4861 25V13.8H79.2941V16.12H74.1261V22.68H79.4541V25H71.4861ZM72.7661 20.408V18.2H78.5741V20.408H72.7661ZM81.7986 25V13.8H86.8386C87.5533 13.8 88.1986 13.9547 88.7746 14.264C89.3613 14.5733 89.82 15 90.1506 15.544C90.4813 16.0773 90.6466 16.6853 90.6466 17.368C90.6466 18.072 90.4813 18.7067 90.1506 19.272C89.82 19.8267 89.3666 20.264 88.7906 20.584C88.2146 20.904 87.564 21.064 86.8386 21.064H84.3906V25H81.7986ZM88.0066 25L85.1586 19.944L87.9426 19.544L91.1106 25H88.0066ZM84.3906 18.984H86.5986C86.876 18.984 87.116 18.9253 87.3186 18.808C87.532 18.68 87.692 18.504 87.7986 18.28C87.916 18.056 87.9746 17.8 87.9746 17.512C87.9746 17.224 87.9106 16.9733 87.7826 16.76C87.6546 16.536 87.468 16.3653 87.2226 16.248C86.988 16.1307 86.7 16.072 86.3586 16.072H84.3906V18.984Z" fill="#191923"/>
</svg>
