<svg width="128" height="128" viewBox="0 0 128 128" fill="none" xmlns="http://www.w3.org/2000/svg">
<path d="M52 19H76H96C103.18 19 109 24.8203 109 32V35.2V54.4V96C109 103.18 103.18 109 96 109H76H64H52H32C24.8203 109 19 103.18 19 96V54.4V32C19 24.8203 24.8203 19 32 19H52Z" fill="#FBFEF9" stroke="#FBFEF9" stroke-width="6"/>
<path d="M53.5 25H74.5H96C99.866 25 103 28.134 103 32V38.8V55.6V96C103 99.866 99.866 103 96 103H74.5H64H53.5H32C28.134 103 25 99.866 25 96V55.6V32C25 28.134 28.134 25 32 25H53.5Z" stroke="#C8CED0" stroke-width="6"/>
<path d="M33.7331 58V41.2H40.9811C42.0371 41.2 42.9731 41.44 43.7891 41.92C44.6211 42.4 45.2771 43.056 45.7571 43.888C46.2531 44.72 46.5011 45.656 46.5011 46.696C46.5011 47.784 46.2531 48.76 45.7571 49.624C45.2771 50.472 44.6211 51.144 43.7891 51.64C42.9731 52.136 42.0371 52.384 40.9811 52.384H37.8131V58H33.7331ZM37.7411 48.808H40.4051C40.7571 48.808 41.0771 48.72 41.3651 48.544C41.6531 48.368 41.8851 48.128 42.0611 47.824C42.2371 47.52 42.3251 47.168 42.3251 46.768C42.3251 46.352 42.2371 46 42.0611 45.712C41.8851 45.424 41.6531 45.2 41.3651 45.04C41.0771 44.88 40.7571 44.8 40.4051 44.8H37.7411V48.808ZM45.9174 58L52.5654 41.2H56.0214L62.6214 58H58.4934L55.3254 49.48C55.1974 49.144 55.0694 48.784 54.9414 48.4C54.8134 48.016 54.6854 47.624 54.5574 47.224C54.4294 46.808 54.3014 46.408 54.1734 46.024C54.0614 45.624 53.9654 45.256 53.8854 44.92L54.6054 44.896C54.5094 45.296 54.3974 45.688 54.2694 46.072C54.1574 46.456 54.0374 46.84 53.9094 47.224C53.7974 47.592 53.6694 47.968 53.5254 48.352C53.3814 48.72 53.2454 49.104 53.1174 49.504L49.9494 58H45.9174ZM49.0854 54.784L50.3574 51.712H58.0854L59.3334 54.784H49.0854ZM72.0487 58.24C70.7047 58.24 69.4887 58.024 68.4007 57.592C67.3127 57.16 66.3767 56.552 65.5927 55.768C64.8087 54.984 64.2087 54.064 63.7927 53.008C63.3767 51.936 63.1687 50.776 63.1687 49.528C63.1687 48.28 63.3847 47.136 63.8167 46.096C64.2647 45.04 64.8967 44.12 65.7127 43.336C66.5287 42.552 67.4887 41.944 68.5927 41.512C69.7127 41.08 70.9287 40.864 72.2407 40.864C73.1687 40.864 74.0407 40.984 74.8567 41.224C75.6887 41.464 76.4407 41.792 77.1127 42.208C77.7847 42.624 78.3527 43.104 78.8167 43.648L76.3447 46.264C75.9447 45.88 75.5287 45.56 75.0967 45.304C74.6807 45.048 74.2327 44.848 73.7527 44.704C73.2727 44.544 72.7607 44.464 72.2167 44.464C71.5127 44.464 70.8647 44.592 70.2727 44.848C69.6967 45.104 69.1847 45.464 68.7367 45.928C68.3047 46.376 67.9687 46.912 67.7287 47.536C67.4887 48.144 67.3687 48.808 67.3687 49.528C67.3687 50.248 67.4967 50.92 67.7527 51.544C68.0087 52.168 68.3607 52.712 68.8087 53.176C69.2567 53.624 69.7847 53.984 70.3927 54.256C71.0167 54.512 71.6807 54.64 72.3847 54.64C72.8807 54.64 73.3447 54.56 73.7767 54.4C74.2247 54.24 74.6087 54.024 74.9287 53.752C75.2487 53.48 75.5047 53.16 75.6967 52.792C75.8887 52.408 75.9847 52 75.9847 51.568V50.944L76.5127 51.76H71.8807V48.568H79.7767C79.8087 48.744 79.8327 48.984 79.8487 49.288C79.8647 49.592 79.8727 49.888 79.8727 50.176C79.8887 50.464 79.8967 50.68 79.8967 50.824C79.8967 51.912 79.6967 52.912 79.2967 53.824C78.9127 54.72 78.3687 55.496 77.6647 56.152C76.9607 56.808 76.1287 57.32 75.1687 57.688C74.2087 58.056 73.1687 58.24 72.0487 58.24ZM83.0222 58V41.2H94.7342V44.68H86.9822V54.52H94.9742V58H83.0222ZM84.9422 51.112V47.8H93.6542V51.112H84.9422ZM56.0709 88.144C54.6789 88.144 53.4389 87.864 52.3509 87.304C51.2629 86.728 50.4069 85.944 49.7829 84.952C49.1749 83.96 48.8709 82.824 48.8709 81.544V71.2H52.9989V81.328C52.9989 81.936 53.1349 82.488 53.4069 82.984C53.6789 83.464 54.0469 83.848 54.5109 84.136C54.9749 84.408 55.4949 84.544 56.0709 84.544C56.6789 84.544 57.2149 84.408 57.6789 84.136C58.1589 83.848 58.5429 83.464 58.8309 82.984C59.1189 82.488 59.2629 81.936 59.2629 81.328V71.2H63.2469V81.544C63.2469 82.824 62.9349 83.96 62.3109 84.952C61.7029 85.944 60.8549 86.728 59.7669 87.304C58.6789 87.864 57.4469 88.144 56.0709 88.144ZM67.3425 88V71.2H74.5905C75.6465 71.2 76.5825 71.44 77.3985 71.92C78.2305 72.4 78.8865 73.056 79.3665 73.888C79.8625 74.72 80.1105 75.656 80.1105 76.696C80.1105 77.784 79.8625 78.76 79.3665 79.624C78.8865 80.472 78.2305 81.144 77.3985 81.64C76.5825 82.136 75.6465 82.384 74.5905 82.384H71.4225V88H67.3425ZM71.3505 78.808H74.0145C74.3665 78.808 74.6865 78.72 74.9745 78.544C75.2625 78.368 75.4945 78.128 75.6705 77.824C75.8465 77.52 75.9345 77.168 75.9345 76.768C75.9345 76.352 75.8465 76 75.6705 75.712C75.4945 75.424 75.2625 75.2 74.9745 75.04C74.6865 74.88 74.3665 74.8 74.0145 74.8H71.3505V78.808Z" fill="#191923"/>
</svg>
