<svg width="128" height="128" viewBox="0 0 128 128" fill="none" xmlns="http://www.w3.org/2000/svg">
<path d="M52 19H76H96C103.18 19 109 24.8203 109 32V35.2V54.4V96C109 103.18 103.18 109 96 109H76H64H52H32C24.8203 109 19 103.18 19 96V54.4V32C19 24.8203 24.8203 19 32 19H52Z" fill="#FBFEF9" stroke="#FBFEF9" stroke-width="6"/>
<path d="M53.5 25H74.5H96C99.866 25 103 28.134 103 32V38.8V55.6V96C103 99.866 99.866 103 96 103H74.5H64H53.5H32C28.134 103 25 99.866 25 96V55.6V32C25 28.134 28.134 25 32 25H53.5Z" stroke="#C8CED0" stroke-width="6"/>
<path d="M38.8611 60V48.8H43.6931C44.3971 48.8 45.0211 48.96 45.5651 49.28C46.1198 49.6 46.5571 50.0373 46.8771 50.592C47.2078 51.1467 47.3731 51.7707 47.3731 52.464C47.3731 53.1893 47.2078 53.84 46.8771 54.416C46.5571 54.9813 46.1198 55.4293 45.5651 55.76C45.0211 56.0907 44.3971 56.256 43.6931 56.256H41.5811V60H38.8611ZM41.5331 53.872H43.3091C43.5438 53.872 43.7571 53.8133 43.9491 53.696C44.1411 53.5787 44.2958 53.4187 44.4131 53.216C44.5305 53.0133 44.5891 52.7787 44.5891 52.512C44.5891 52.2347 44.5305 52 44.4131 51.808C44.2958 51.616 44.1411 51.4667 43.9491 51.36C43.7571 51.2533 43.5438 51.2 43.3091 51.2H41.5331V53.872ZM49.4549 60V48.8H54.4949C55.2095 48.8 55.8549 48.9547 56.4309 49.264C57.0175 49.5733 57.4762 50 57.8069 50.544C58.1375 51.0773 58.3029 51.6853 58.3029 52.368C58.3029 53.072 58.1375 53.7067 57.8069 54.272C57.4762 54.8267 57.0229 55.264 56.4469 55.584C55.8709 55.904 55.2202 56.064 54.4949 56.064H52.0469V60H49.4549ZM55.6629 60L52.8149 54.944L55.5989 54.544L58.7669 60H55.6629ZM52.0469 53.984H54.2549C54.5322 53.984 54.7722 53.9253 54.9749 53.808C55.1882 53.68 55.3482 53.504 55.4549 53.28C55.5722 53.056 55.6309 52.8 55.6309 52.512C55.6309 52.224 55.5669 51.9733 55.4389 51.76C55.3109 51.536 55.1242 51.3653 54.8789 51.248C54.6442 51.1307 54.3562 51.072 54.0149 51.072H52.0469V53.984ZM60.4653 60V57.712H62.3533V51.088H60.4653V48.8H66.9773V51.088H65.0733V57.712H66.9773V60H60.4653ZM69.5643 60V48.8H71.9963L77.8683 56.8L77.3403 56.72C77.2869 56.368 77.2443 56.032 77.2123 55.712C77.1803 55.392 77.1483 55.0773 77.1163 54.768C77.0949 54.4587 77.0736 54.144 77.0523 53.824C77.0416 53.504 77.0309 53.1573 77.0203 52.784C77.0203 52.4107 77.0203 52.0053 77.0203 51.568V48.8H79.6603V60H77.1962L71.0683 51.744L71.8843 51.856C71.9376 52.368 71.9803 52.8053 72.0123 53.168C72.0549 53.52 72.0869 53.8347 72.1083 54.112C72.1403 54.3893 72.1616 54.64 72.1723 54.864C72.1829 55.088 72.1883 55.312 72.1883 55.536C72.1989 55.7493 72.2043 55.9893 72.2043 56.256V60H69.5643ZM84.9025 60V51.2H81.5745V48.8H91.0305V51.2H87.6225V60H84.9025ZM36.6122 80.16C35.8762 80.16 35.2095 80.0747 34.6122 79.904C34.0255 79.7227 33.5029 79.4667 33.0442 79.136C32.5855 78.7947 32.1749 78.3947 31.8122 77.936L33.4602 76.064C33.9935 76.7787 34.5269 77.2587 35.0602 77.504C35.6042 77.7493 36.1642 77.872 36.7402 77.872C37.0282 77.872 37.2895 77.8347 37.5242 77.76C37.7589 77.6853 37.9402 77.5787 38.0682 77.44C38.1962 77.2907 38.2602 77.1093 38.2602 76.896C38.2602 76.736 38.2175 76.592 38.1322 76.464C38.0575 76.336 37.9509 76.224 37.8122 76.128C37.6735 76.032 37.5082 75.9467 37.3162 75.872C37.1242 75.7867 36.9215 75.7173 36.7082 75.664C36.4949 75.6 36.2762 75.5467 36.0522 75.504C35.4335 75.3653 34.8949 75.1947 34.4362 74.992C33.9775 74.7893 33.5935 74.544 33.2842 74.256C32.9855 73.9573 32.7615 73.6213 32.6122 73.248C32.4629 72.864 32.3882 72.4373 32.3882 71.968C32.3882 71.4667 32.5002 71.008 32.7242 70.592C32.9589 70.1653 33.2682 69.8027 33.6522 69.504C34.0469 69.1947 34.5002 68.96 35.0122 68.8C35.5242 68.6293 36.0575 68.544 36.6122 68.544C37.3482 68.544 37.9775 68.624 38.5002 68.784C39.0335 68.9333 39.4869 69.152 39.8602 69.44C40.2442 69.728 40.5695 70.0747 40.8362 70.48L39.1562 72.096C38.9322 71.8187 38.6869 71.5893 38.4202 71.408C38.1642 71.2267 37.8869 71.088 37.5882 70.992C37.3002 70.896 37.0015 70.848 36.6922 70.848C36.3722 70.848 36.0949 70.8907 35.8602 70.976C35.6362 71.0507 35.4602 71.1627 35.3322 71.312C35.2042 71.4507 35.1402 71.6213 35.1402 71.824C35.1402 72.0053 35.1935 72.16 35.3002 72.288C35.4069 72.416 35.5509 72.5333 35.7322 72.64C35.9135 72.736 36.1215 72.8213 36.3562 72.896C36.5909 72.96 36.8362 73.0133 37.0922 73.056C37.6789 73.1733 38.2069 73.328 38.6762 73.52C39.1562 73.712 39.5669 73.9467 39.9082 74.224C40.2602 74.5013 40.5269 74.832 40.7082 75.216C40.9002 75.5893 40.9962 76.0267 40.9962 76.528C40.9962 77.3067 40.8042 77.968 40.4202 78.512C40.0469 79.0453 39.5295 79.456 38.8682 79.744C38.2175 80.0213 37.4655 80.16 36.6122 80.16ZM48.1288 80.16C47.2861 80.16 46.5075 80.0213 45.7928 79.744C45.0888 79.456 44.4755 79.056 43.9528 78.544C43.4301 78.0213 43.0248 77.408 42.7368 76.704C42.4595 75.9893 42.3208 75.2053 42.3208 74.352C42.3208 73.52 42.4701 72.752 42.7688 72.048C43.0675 71.344 43.4781 70.736 44.0008 70.224C44.5341 69.7013 45.1581 69.296 45.8728 69.008C46.5981 68.72 47.3875 68.576 48.2408 68.576C48.7741 68.576 49.2968 68.6453 49.8088 68.784C50.3208 68.9227 50.7955 69.1307 51.2328 69.408C51.6808 69.6747 52.0648 69.9947 52.3848 70.368L50.7208 72.272C50.4968 72.0373 50.2568 71.8347 50.0008 71.664C49.7555 71.4827 49.4835 71.344 49.1848 71.248C48.8861 71.152 48.5661 71.104 48.2248 71.104C47.7981 71.104 47.3928 71.184 47.0088 71.344C46.6355 71.4933 46.3048 71.712 46.0168 72C45.7395 72.2773 45.5208 72.6187 45.3608 73.024C45.2008 73.4293 45.1208 73.8827 45.1208 74.384C45.1208 74.8747 45.2008 75.3227 45.3608 75.728C45.5208 76.1227 45.7448 76.464 46.0328 76.752C46.3208 77.04 46.6675 77.2587 47.0728 77.408C47.4888 77.5573 47.9475 77.632 48.4488 77.632C48.7901 77.632 49.1155 77.584 49.4248 77.488C49.7341 77.392 50.0168 77.264 50.2728 77.104C50.5395 76.9333 50.7741 76.7413 50.9768 76.528L52.2888 78.608C52.0221 78.9067 51.6648 79.1733 51.2168 79.408C50.7795 79.6427 50.2888 79.8293 49.7448 79.968C49.2115 80.096 48.6728 80.16 48.1288 80.16ZM54.1502 80V68.8H59.1902C59.9049 68.8 60.5502 68.9547 61.1262 69.264C61.7129 69.5733 62.1715 70 62.5022 70.544C62.8329 71.0773 62.9982 71.6853 62.9982 72.368C62.9982 73.072 62.8329 73.7067 62.5022 74.272C62.1715 74.8267 61.7182 75.264 61.1422 75.584C60.5662 75.904 59.9155 76.064 59.1902 76.064H56.7422V80H54.1502ZM60.3582 80L57.5102 74.944L60.2942 74.544L63.4622 80H60.3582ZM56.7422 73.984H58.9502C59.2275 73.984 59.4675 73.9253 59.6702 73.808C59.8835 73.68 60.0435 73.504 60.1502 73.28C60.2675 73.056 60.3262 72.8 60.3262 72.512C60.3262 72.224 60.2622 71.9733 60.1342 71.76C60.0062 71.536 59.8195 71.3653 59.5742 71.248C59.3395 71.1307 59.0515 71.072 58.7102 71.072H56.7422V73.984ZM65.3846 80V68.8H73.1926V71.12H68.0246V77.68H73.3526V80H65.3846ZM66.6646 75.408V73.2H72.4726V75.408H66.6646ZM75.6971 80V68.8H83.5051V71.12H78.3371V77.68H83.6651V80H75.6971ZM76.9771 75.408V73.2H82.7851V75.408H76.9771ZM86.0096 80V68.8H88.4416L94.3136 76.8L93.7856 76.72C93.7322 76.368 93.6896 76.032 93.6576 75.712C93.6256 75.392 93.5936 75.0773 93.5616 74.768C93.5402 74.4587 93.5189 74.144 93.4976 73.824C93.4869 73.504 93.4762 73.1573 93.4656 72.784C93.4656 72.4107 93.4656 72.0053 93.4656 71.568V68.8H96.1056V80H93.6416L87.5136 71.744L88.3296 71.856C88.3829 72.368 88.4256 72.8053 88.4576 73.168C88.5002 73.52 88.5322 73.8347 88.5536 74.112C88.5856 74.3893 88.6069 74.64 88.6176 74.864C88.6282 75.088 88.6336 75.312 88.6336 75.536C88.6442 75.7493 88.6496 75.9893 88.6496 76.256V80H86.0096Z" fill="#191923"/>
</svg>
