<svg width="128" height="128" viewBox="0 0 128 128" fill="none" xmlns="http://www.w3.org/2000/svg">
<path d="M125 33V49.8V66.6V101C125 108.18 119.18 114 112 114H80H64H48H16C8.8203 114 3 108.18 3 101V82.6C3 75.4203 8.8203 69.6 16 69.6H48C58.4934 69.6 67 61.0934 67 50.6V33V27C67 19.8203 72.8203 14 80 14H112C119.18 14 125 19.8203 125 27V33Z" fill="#FBFEF9" stroke="#FBFEF9" stroke-width="6"/>
<path d="M119 36.5094V51.4075V66.3057V101C119 104.866 115.866 108 112 108H78.5H64H49.5H16C12.134 108 9 104.866 9 101V82.3057C9 78.4397 12.134 75.3057 16 75.3057H48C61.8071 75.3057 73 64.1128 73 50.3057V36.5094V27C73 23.134 76.134 20 80 20H112C115.866 20 119 23.134 119 27V36.5094Z" stroke="#C8CED0" stroke-width="6"/>
<path d="M79.9545 101.807L68.7386 90.7273L79.9545 79.6477V101.807ZM76.4091 93.25V88.2045H107.33V93.25H76.4091ZM102.438 93.25V71.0909H107.432V93.25H102.438Z" fill="#191923"/>
</svg>
