<svg width="128" height="128" viewBox="0 0 128 128" fill="none" xmlns="http://www.w3.org/2000/svg">
<path d="M48 35H80H115.2C120.612 35 125 39.3876 125 44.8V57.6V80C125 87.1797 119.18 93 112 93H80H64H48H16C8.8203 93 3 87.1797 3 80V57.6V48C3 40.8203 8.8203 35 16 35H48Z" fill="#FBFEF9" stroke="#FBFEF9" stroke-width="6"/>
<path d="M49.5 41H78.5H112C115.866 41 119 44.134 119 48V48.4V58.8V80C119 83.866 115.866 87 112 87H78.5H64H49.5H16C12.134 87 9 83.866 9 80V58.8V48C9 44.134 12.134 41 16 41H49.5Z" stroke="#C8CED0" stroke-width="6"/>
<path d="M42 55V73H87V55" stroke="#191923" stroke-width="6"/>
</svg>
