<svg width="128" height="128" viewBox="0 0 128 128" fill="none" xmlns="http://www.w3.org/2000/svg">
<path d="M48 25H80H112C119.18 25 125 30.8203 125 38V38.8V55.6V90C125 97.1797 119.18 103 112 103H80H64H48H16C8.8203 103 3 97.1797 3 90V55.6V38C3 30.8203 8.8203 25 16 25H48Z" fill="#FBFEF9" stroke="#FBFEF9" stroke-width="6"/>
<path d="M49.5 31H78.5H112C115.866 31 119 34.134 119 38V42.4V56.8V90C119 93.866 115.866 97 112 97H78.5H64H49.5H16C12.134 97 9 93.866 9 90V56.8V38C9 34.134 12.134 31 16 31H49.5Z" stroke="#C8CED0" stroke-width="6"/>
<path d="M17.76 91V77.8H12.768V74.2H26.952V77.8H21.84V91H17.76ZM26.5072 91L33.1553 74.2H36.6113L43.2113 91H39.0833L35.9153 82.48C35.7873 82.144 35.6593 81.784 35.5313 81.4C35.4033 81.016 35.2753 80.624 35.1473 80.224C35.0193 79.808 34.8913 79.408 34.7633 79.024C34.6513 78.624 34.5553 78.256 34.4753 77.92L35.1953 77.896C35.0993 78.296 34.9873 78.688 34.8593 79.072C34.7473 79.456 34.6273 79.84 34.4993 80.224C34.3873 80.592 34.2593 80.968 34.1153 81.352C33.9713 81.72 33.8353 82.104 33.7073 82.504L30.5393 91H26.5072ZM29.6753 87.784L30.9473 84.712H38.6753L39.9233 87.784H29.6753ZM45.3073 91V74.2H52.7233C53.8753 74.2 54.8513 74.368 55.6513 74.704C56.4513 75.024 57.0513 75.496 57.4513 76.12C57.8673 76.728 58.0753 77.464 58.0753 78.328C58.0753 79.288 57.8353 80.096 57.3553 80.752C56.8913 81.408 56.2113 81.848 55.3153 82.072L55.2673 81.616C56.0193 81.776 56.6673 82.056 57.2113 82.456C57.7713 82.856 58.2033 83.352 58.5073 83.944C58.8113 84.52 58.9633 85.176 58.9633 85.912C58.9633 86.76 58.8193 87.504 58.5313 88.144C58.2433 88.768 57.8273 89.296 57.2833 89.728C56.7393 90.16 56.0993 90.48 55.3633 90.688C54.6433 90.896 53.8433 91 52.9633 91H45.3073ZM49.1473 87.592H52.8193C53.2673 87.592 53.6433 87.52 53.9473 87.376C54.2673 87.232 54.5153 87.024 54.6913 86.752C54.8673 86.464 54.9553 86.12 54.9553 85.72C54.9553 85.352 54.8593 85.04 54.6673 84.784C54.4913 84.528 54.2353 84.336 53.8993 84.208C53.5633 84.064 53.1633 83.992 52.6993 83.992H49.1473V87.592ZM49.1473 80.944H52.1473C52.5633 80.944 52.9153 80.88 53.2033 80.752C53.5073 80.608 53.7313 80.416 53.8753 80.176C54.0353 79.92 54.1153 79.616 54.1153 79.264C54.1153 78.752 53.9393 78.352 53.5873 78.064C53.2353 77.76 52.7073 77.608 52.0033 77.608H49.1473V80.944Z" fill="#191923"/>
<path d="M41.7773 59.8359V48.9375H44.8711V59.8359H41.7773ZM15.3398 49.1836V38.2852H18.4336V49.1836H15.3398ZM15.3398 55.8281V52.9453H36.2227L32.4961 49.2539L33.5156 47.2852L43.8516 54.3867L33.5156 61.4883L32.4961 59.5195L36.2227 55.8281H15.3398ZM16.3594 43.7344L26.6602 36.6328L27.7148 38.6367L23.9531 42.293H44.8711V45.2109H23.9531L27.7148 48.8672L26.6602 50.8711L16.3594 43.7344Z" fill="#191923"/>
</svg>
