<svg width="128" height="128" viewBox="0 0 128 128" fill="none" xmlns="http://www.w3.org/2000/svg">
<path d="M127.383 62.971C127.763 63.6044 127.763 64.3956 127.383 65.029L119.715 77.8084C118.671 79.5477 116 78.8078 116 76.7794V51.2206C116 49.1922 118.671 48.4523 119.715 50.1916L127.383 62.971Z" fill="#FBFEF9"/>
<path d="M65.0397 127.383C64.4064 127.763 63.6151 127.763 62.9817 127.383L50.2024 119.715C48.463 118.671 49.2029 116 51.2314 116H76.7901C78.8186 116 79.5585 118.671 77.8191 119.715L65.0397 127.383Z" fill="#FBFEF9"/>
<circle cx="63.9922" cy="64" r="45" stroke="#2E2836" stroke-width="6"/>
<circle cx="63.9922" cy="64" r="39" stroke="#2E2836" stroke-width="6"/>
<circle cx="63.9844" cy="64" r="45" stroke="#C8CED0" stroke-width="6"/>
<circle cx="63.9844" cy="64" r="39" fill="#FBFEF9" stroke="#2E2836" stroke-width="6"/>
<circle cx="63.9766" cy="64" r="41.5" stroke="#FBFEF9" stroke-width="5"/>
</svg>
