<svg width="128" height="128" viewBox="0 0 128 128" fill="none" xmlns="http://www.w3.org/2000/svg">
<path d="M52 11H76H96C103.18 11 109 16.8203 109 24V30.4V52.8V104C109 111.18 103.18 117 96 117H76H64H52H32C24.8203 117 19 111.18 19 104V52.8V24C19 16.8203 24.8203 11 32 11H52Z" fill="#191923" stroke="#C8CED0" stroke-width="6"/>
<path d="M53.5 17H74.5H96C99.866 17 103 20.134 103 24V34V54V104C103 107.866 99.866 111 96 111H74.5H64H53.5H32C28.134 111 25 107.866 25 104V54V24C25 20.134 28.134 17 32 17H53.5Z" stroke="#2E2836" stroke-width="6"/>
<path d="M33.968 97L42.832 74.6H47.44L56.24 97H50.736L46.512 85.64C46.3413 85.192 46.1707 84.712 46 84.2C45.8293 83.688 45.6587 83.1653 45.488 82.632C45.3173 82.0773 45.1467 81.544 44.976 81.032C44.8267 80.4987 44.6987 80.008 44.592 79.56L45.552 79.528C45.424 80.0613 45.2747 80.584 45.104 81.096C44.9547 81.608 44.7947 82.12 44.624 82.632C44.4747 83.1227 44.304 83.624 44.112 84.136C43.92 84.6267 43.7387 85.1387 43.568 85.672L39.344 97H33.968ZM38.192 92.712L39.888 88.616H50.192L51.856 92.712H38.192ZM59.0348 97V74.6H64.4748V92.2H74.4588V97H59.0348ZM80.7113 97V79.4H74.0553V74.6H92.9673V79.4H86.1513V97H80.7113Z" fill="#FBFEF9"/>
<path d="M67.8587 25.0909H84.1882V30.8523H67.8587V25.0909ZM43.8246 30.8523V25.0909H58.3132L73.0405 54.2386H84.1882V60H69.6996L54.9893 30.8523H43.8246Z" fill="#FBFEF9"/>
</svg>
