<svg width="128" height="128" viewBox="0 0 128 128" fill="none" xmlns="http://www.w3.org/2000/svg">
<path d="M52 11H76H96C103.18 11 109 16.8203 109 24V30.4V52.8V104C109 111.18 103.18 117 96 117H76H64H52H32C24.8203 117 19 111.18 19 104V52.8V24C19 16.8203 24.8203 11 32 11H52Z" fill="#191923" stroke="#C8CED0" stroke-width="6"/>
<path d="M53.5 17H74.5H96C99.866 17 103 20.134 103 24V34V54V104C103 107.866 99.866 111 96 111H74.5H64H53.5H32C28.134 111 25 107.866 25 104V54V24C25 20.134 28.134 17 32 17H53.5Z" stroke="#2E2836" stroke-width="6"/>
<path d="M50.375 102.023C48.4205 102.023 46.6326 101.545 45.0114 100.591C43.3902 99.6212 42.1023 98.3258 41.1477 96.7045C40.1932 95.0833 39.7159 93.303 39.7159 91.3636C39.7159 89.3939 40.1932 87.6061 41.1477 86C42.1023 84.3788 43.3902 83.0833 45.0114 82.1136C46.6326 81.1439 48.4129 80.6591 50.3523 80.6591H54.8523V74.75H50.3523C48.4129 74.75 46.6326 74.2727 45.0114 73.3182C43.3902 72.3636 42.1023 71.0833 41.1477 69.4773C40.1932 67.8561 39.7159 66.0606 39.7159 64.0909C39.7159 62.1212 40.1932 60.3333 41.1477 58.7273C42.1023 57.1212 43.3902 55.8409 45.0114 54.8864C46.6326 53.9167 48.4129 53.4318 50.3523 53.4318C52.3371 53.4318 54.1326 53.9167 55.7386 54.8864C57.3598 55.8409 58.6477 57.1212 59.6023 58.7273C60.572 60.3333 61.0568 62.1212 61.0568 64.0909V68.5227H66.9886V64.0909C66.9886 62.1212 67.4659 60.3333 68.4205 58.7273C69.375 57.1212 70.6553 55.8409 72.2614 54.8864C73.8826 53.9167 75.6705 53.4318 77.625 53.4318C79.5947 53.4318 81.3826 53.9167 82.9886 54.8864C84.6098 55.8409 85.8977 57.1212 86.8523 58.7273C87.8068 60.3333 88.2841 62.1212 88.2841 64.0909C88.2841 66.0606 87.8068 67.8561 86.8523 69.4773C85.8977 71.0833 84.6098 72.3636 82.9886 73.3182C81.3826 74.2727 79.5947 74.75 77.625 74.75H73.1932V80.6591H77.625C79.5947 80.6591 81.3826 81.1439 82.9886 82.1136C84.6098 83.0833 85.8977 84.3788 86.8523 86C87.8068 87.6061 88.2841 89.3939 88.2841 91.3636C88.2841 93.3182 87.8068 95.1061 86.8523 96.7273C85.8977 98.3333 84.6098 99.6212 82.9886 100.591C81.3826 101.545 79.5947 102.023 77.625 102.023C75.6705 102.023 73.8826 101.545 72.2614 100.591C70.6553 99.6212 69.375 98.3258 68.4205 96.7045C67.4659 95.0833 66.9886 93.303 66.9886 91.3636V86.8864H61.0568V91.3636C61.0568 93.303 60.572 95.0833 59.6023 96.7045C58.6477 98.3258 57.3598 99.6212 55.7386 100.591C54.1326 101.545 52.3447 102.023 50.375 102.023ZM50.3523 95.7955C51.1856 95.7955 51.9356 95.5985 52.6023 95.2045C53.2841 94.8106 53.8295 94.2727 54.2386 93.5909C54.6477 92.9091 54.8523 92.1667 54.8523 91.3636V86.8864H50.375C49.5568 86.8864 48.8068 87.0909 48.125 87.5C47.4583 87.8939 46.9205 88.4318 46.5114 89.1136C46.1174 89.7955 45.9205 90.5455 45.9205 91.3636C45.9205 92.1667 46.1174 92.9091 46.5114 93.5909C46.9205 94.2727 47.4583 94.8106 48.125 95.2045C48.8068 95.5985 49.5492 95.7955 50.3523 95.7955ZM50.3523 68.5227H54.8523V64.0909C54.8523 63.2727 54.6477 62.5303 54.2386 61.8636C53.8295 61.1818 53.2841 60.6439 52.6023 60.25C51.9356 59.8561 51.1856 59.6591 50.3523 59.6591C49.5492 59.6591 48.8068 59.8561 48.125 60.25C47.4583 60.6439 46.9205 61.1818 46.5114 61.8636C46.1174 62.5303 45.9205 63.2727 45.9205 64.0909C45.9205 64.9091 46.1174 65.6591 46.5114 66.3409C46.9205 67.0076 47.4583 67.5379 48.125 67.9318C48.8068 68.3258 49.5492 68.5227 50.3523 68.5227ZM73.1932 68.5227H77.625C78.4583 68.5227 79.2083 68.3258 79.875 67.9318C80.5417 67.5379 81.072 67.0076 81.4659 66.3409C81.875 65.6591 82.0795 64.9091 82.0795 64.0909C82.0795 63.2727 81.875 62.5303 81.4659 61.8636C81.072 61.1818 80.5417 60.6439 79.875 60.25C79.2083 59.8561 78.4583 59.6591 77.625 59.6591C76.8068 59.6591 76.0568 59.8561 75.375 60.25C74.7083 60.6439 74.178 61.1818 73.7841 61.8636C73.3902 62.5303 73.1932 63.2727 73.1932 64.0909V68.5227ZM77.6477 95.7955C78.4659 95.7955 79.2083 95.5985 79.875 95.2045C80.5417 94.8106 81.072 94.2727 81.4659 93.5909C81.875 92.9091 82.0795 92.1667 82.0795 91.3636C82.0795 90.5455 81.875 89.7955 81.4659 89.1136C81.072 88.4318 80.5417 87.8939 79.875 87.5C79.2083 87.0909 78.4583 86.8864 77.625 86.8864H73.1932V91.3636C73.1932 92.1818 73.3902 92.9318 73.7841 93.6136C74.178 94.2803 74.7083 94.8106 75.375 95.2045C76.0568 95.5985 76.8144 95.7955 77.6477 95.7955ZM61.0568 80.6591H66.9886V74.75H61.0568V80.6591Z" fill="#FBFEF9"/>
<path d="M35.6611 36.12C35.0291 36.12 34.4451 36.016 33.9091 35.808C33.3811 35.592 32.9211 35.292 32.5291 34.908C32.1371 34.516 31.8331 34.056 31.6171 33.528C31.4091 32.992 31.3051 32.404 31.3051 31.764C31.3051 31.14 31.4171 30.564 31.6411 30.036C31.8651 29.508 32.1731 29.052 32.5651 28.668C32.9651 28.276 33.4331 27.972 33.9691 27.756C34.5131 27.54 35.1051 27.432 35.7451 27.432C36.1451 27.432 36.5371 27.484 36.9211 27.588C37.3051 27.692 37.6611 27.848 37.9891 28.056C38.3251 28.256 38.6131 28.496 38.8531 28.776L37.6051 30.204C37.4371 30.028 37.2571 29.876 37.0651 29.748C36.8811 29.612 36.6771 29.508 36.4531 29.436C36.2291 29.364 35.9891 29.328 35.7331 29.328C35.4131 29.328 35.1091 29.388 34.8211 29.508C34.5411 29.62 34.2931 29.784 34.0771 30C33.8691 30.208 33.7051 30.464 33.5851 30.768C33.4651 31.072 33.4051 31.412 33.4051 31.788C33.4051 32.156 33.4651 32.492 33.5851 32.796C33.7051 33.092 33.8731 33.348 34.0891 33.564C34.3051 33.78 34.5651 33.944 34.8691 34.056C35.1811 34.168 35.5251 34.224 35.9011 34.224C36.1571 34.224 36.4011 34.188 36.6331 34.116C36.8651 34.044 37.0771 33.948 37.2691 33.828C37.4691 33.7 37.6451 33.556 37.7971 33.396L38.7811 34.956C38.5811 35.18 38.3131 35.38 37.9771 35.556C37.6491 35.732 37.2811 35.872 36.8731 35.976C36.4731 36.072 36.0691 36.12 35.6611 36.12ZM44.0051 36.12C43.3651 36.12 42.7811 36.012 42.2531 35.796C41.7251 35.58 41.2651 35.276 40.8731 34.884C40.4811 34.492 40.1771 34.032 39.9611 33.504C39.7451 32.976 39.6371 32.396 39.6371 31.764C39.6371 31.132 39.7451 30.552 39.9611 30.024C40.1771 29.496 40.4811 29.036 40.8731 28.644C41.2651 28.252 41.7251 27.948 42.2531 27.732C42.7811 27.516 43.3611 27.408 43.9931 27.408C44.6251 27.408 45.2051 27.516 45.7331 27.732C46.2611 27.948 46.7211 28.252 47.1131 28.644C47.5051 29.036 47.8051 29.496 48.0131 30.024C48.2291 30.552 48.3371 31.132 48.3371 31.764C48.3371 32.388 48.2291 32.968 48.0131 33.504C47.8051 34.032 47.5051 34.492 47.1131 34.884C46.7211 35.276 46.2611 35.58 45.7331 35.796C45.2051 36.012 44.6291 36.12 44.0051 36.12ZM43.9931 34.2C44.3211 34.2 44.6211 34.14 44.8931 34.02C45.1731 33.9 45.4131 33.732 45.6131 33.516C45.8211 33.292 45.9811 33.032 46.0931 32.736C46.2051 32.44 46.2611 32.116 46.2611 31.764C46.2611 31.412 46.2051 31.088 46.0931 30.792C45.9811 30.496 45.8211 30.24 45.6131 30.024C45.4131 29.8 45.1731 29.628 44.8931 29.508C44.6211 29.388 44.3211 29.328 43.9931 29.328C43.6651 29.328 43.3611 29.388 43.0811 29.508C42.8091 29.628 42.5691 29.8 42.3611 30.024C42.1531 30.24 41.9931 30.496 41.8811 30.792C41.7771 31.088 41.7251 31.412 41.7251 31.764C41.7251 32.116 41.7771 32.444 41.8811 32.748C41.9931 33.044 42.1531 33.3 42.3611 33.516C42.5691 33.732 42.8091 33.9 43.0811 34.02C43.3611 34.14 43.6651 34.2 43.9931 34.2ZM49.9154 36V27.6H51.7394L54.7994 32.58L53.4914 32.568L56.5874 27.6H58.3394V36H56.3594V33.384C56.3594 32.664 56.3754 32.016 56.4074 31.44C56.4474 30.864 56.5114 30.292 56.5994 29.724L56.8274 30.348L54.4994 33.96H53.7074L51.4274 30.372L51.6554 29.724C51.7434 30.26 51.8034 30.812 51.8354 31.38C51.8754 31.94 51.8954 32.608 51.8954 33.384V36H49.9154ZM60.4505 36V27.6H62.2745L65.3345 32.58L64.0265 32.568L67.1225 27.6H68.8745V36H66.8945V33.384C66.8945 32.664 66.9105 32.016 66.9425 31.44C66.9825 30.864 67.0465 30.292 67.1345 29.724L67.3625 30.348L65.0345 33.96H64.2425L61.9625 30.372L62.1905 29.724C62.2785 30.26 62.3385 30.812 62.3705 31.38C62.4105 31.94 62.4305 32.608 62.4305 33.384V36H60.4505ZM69.9177 36L73.2417 27.6H74.9697L78.2697 36H76.2057L74.6217 31.74C74.5577 31.572 74.4937 31.392 74.4297 31.2C74.3657 31.008 74.3017 30.812 74.2377 30.612C74.1737 30.404 74.1097 30.204 74.0457 30.012C73.9897 29.812 73.9417 29.628 73.9017 29.46L74.2617 29.448C74.2137 29.648 74.1577 29.844 74.0937 30.036C74.0377 30.228 73.9777 30.42 73.9137 30.612C73.8577 30.796 73.7937 30.984 73.7217 31.176C73.6497 31.36 73.5817 31.552 73.5177 31.752L71.9337 36H69.9177ZM71.5017 34.392L72.1377 32.856H76.0017L76.6257 34.392H71.5017ZM79.3177 36V27.6H81.1417L85.5457 33.6L85.1497 33.54C85.1097 33.276 85.0777 33.024 85.0537 32.784C85.0297 32.544 85.0057 32.308 84.9817 32.076C84.9657 31.844 84.9497 31.608 84.9337 31.368C84.9257 31.128 84.9177 30.868 84.9097 30.588C84.9097 30.308 84.9097 30.004 84.9097 29.676V27.6H86.8897V36H85.0417L80.4457 29.808L81.0577 29.892C81.0977 30.276 81.1297 30.604 81.1537 30.876C81.1857 31.14 81.2097 31.376 81.2257 31.584C81.2497 31.792 81.2657 31.98 81.2737 32.148C81.2817 32.316 81.2857 32.484 81.2857 32.652C81.2937 32.812 81.2977 32.992 81.2977 33.192V36H79.3177ZM88.9974 36V27.6H92.5134C93.1294 27.6 93.6934 27.704 94.2054 27.912C94.7174 28.112 95.1574 28.4 95.5254 28.776C95.9014 29.152 96.1894 29.596 96.3894 30.108C96.5894 30.62 96.6894 31.184 96.6894 31.8C96.6894 32.416 96.5894 32.984 96.3894 33.504C96.1894 34.016 95.9014 34.46 95.5254 34.836C95.1574 35.204 94.7174 35.492 94.2054 35.7C93.6934 35.9 93.1294 36 92.5134 36H88.9974ZM91.0374 34.608L90.7614 34.2H92.4534C92.7894 34.2 93.0894 34.144 93.3534 34.032C93.6174 33.912 93.8414 33.748 94.0254 33.54C94.2174 33.332 94.3654 33.08 94.4694 32.784C94.5734 32.488 94.6254 32.16 94.6254 31.8C94.6254 31.44 94.5734 31.112 94.4694 30.816C94.3654 30.52 94.2174 30.268 94.0254 30.06C93.8414 29.852 93.6174 29.692 93.3534 29.58C93.0894 29.46 92.7894 29.4 92.4534 29.4H90.7254L91.0374 29.016V34.608Z" fill="#FBFEF9"/>
</svg>
