<svg width="128" height="128" viewBox="0 0 128 128" fill="none" xmlns="http://www.w3.org/2000/svg">
<path d="M52 11H76H96C103.18 11 109 16.8203 109 24V30.4V52.8V104C109 111.18 103.18 117 96 117H76H64H52H32C24.8203 117 19 111.18 19 104V52.8V24C19 16.8203 24.8203 11 32 11H52Z" fill="#191923" stroke="#C8CED0" stroke-width="6"/>
<path d="M53.5 17H74.5H96C99.866 17 103 20.134 103 24V34V54V104C103 107.866 99.866 111 96 111H74.5H64H53.5H32C28.134 111 25 107.866 25 104V54V24C25 20.134 28.134 17 32 17H53.5Z" stroke="#2E2836" stroke-width="6"/>
<path d="M44.3358 82V55.264C44.3358 53.6 44.6878 52.096 45.3918 50.752C46.1278 49.408 47.1358 48.352 48.4158 47.584C49.7278 46.784 51.2478 46.384 52.9758 46.384C54.1918 46.384 55.3118 46.56 56.3358 46.912C57.3598 47.264 58.2718 47.76 59.0718 48.4L56.8638 54.016C56.4478 53.792 56.0478 53.616 55.6638 53.488C55.2798 53.36 54.9278 53.296 54.6078 53.296C54.0318 53.296 53.5518 53.392 53.1678 53.584C52.7838 53.776 52.4958 54.08 52.3038 54.496C52.1438 54.88 52.0638 55.36 52.0638 55.936V82H48.2238C47.3598 82 46.5918 82 45.9198 82C45.2798 82 44.7518 82 44.3358 82ZM40.6398 63.568V57.232H57.2958V63.568H40.6398ZM61.5955 82V56.512H68.8915L69.1315 61.696L67.5955 62.272C67.9475 61.12 68.5715 60.08 69.4675 59.152C70.3955 58.192 71.4995 57.424 72.7795 56.848C74.0595 56.272 75.4035 55.984 76.8115 55.984C78.7315 55.984 80.3475 56.384 81.6595 57.184C82.9715 57.952 83.9635 59.12 84.6355 60.688C85.3075 62.224 85.6435 64.112 85.6435 66.352V82H77.9155V66.976C77.9155 65.952 77.7715 65.104 77.4835 64.432C77.1955 63.76 76.7475 63.264 76.1395 62.944C75.5635 62.592 74.8435 62.432 73.9795 62.464C73.3075 62.464 72.6835 62.576 72.1075 62.8C71.5315 62.992 71.0355 63.296 70.6195 63.712C70.2035 64.096 69.8675 64.544 69.6115 65.056C69.3875 65.568 69.2755 66.128 69.2755 66.736V82H65.4835C64.5875 82 63.8195 82 63.1795 82C62.5395 82 62.0115 82 61.5955 82Z" fill="#FBFEF9"/>
</svg>
