<svg width="128" height="128" viewBox="0 0 128 128" fill="none" xmlns="http://www.w3.org/2000/svg">
<path d="M52 11H76H96C103.18 11 109 16.8203 109 24V30.4V52.8V104C109 111.18 103.18 117 96 117H76H64H52H32C24.8203 117 19 111.18 19 104V52.8V24C19 16.8203 24.8203 11 32 11H52Z" fill="#191923" stroke="#C8CED0" stroke-width="6"/>
<path d="M53.5 17H74.5H96C99.866 17 103 20.134 103 24V34V54V104C103 107.866 99.866 111 96 111H74.5H64H53.5H32C28.134 111 25 107.866 25 104V54V24C25 20.134 28.134 17 32 17H53.5Z" stroke="#2E2836" stroke-width="6"/>
<path d="M47.4381 53V43.2H49.8181V50.9H54.1861V53H47.4381ZM55.9693 53V43.2H62.8013V45.23H58.2793V50.97H62.9413V53H55.9693ZM57.0893 48.982V47.05H62.1713V48.982H57.0893ZM64.9927 53V43.2H67.3727V53H64.9927ZM66.0987 49.248V47.26H71.1667V49.248H66.0987ZM66.0987 45.3V43.2H71.7407V45.3H66.0987ZM75.9801 53V45.3H73.0681V43.2H81.3421V45.3H78.3601V53H75.9801ZM42.0448 83.24C40.7808 83.24 39.6128 83.032 38.5408 82.616C37.4848 82.184 36.5648 81.584 35.7808 80.816C34.9968 80.032 34.3888 79.112 33.9568 78.056C33.5408 76.984 33.3328 75.808 33.3328 74.528C33.3328 73.28 33.5568 72.128 34.0048 71.072C34.4528 70.016 35.0688 69.104 35.8528 68.336C36.6528 67.552 37.5888 66.944 38.6608 66.512C39.7488 66.08 40.9328 65.864 42.2128 65.864C43.0128 65.864 43.7968 65.968 44.5648 66.176C45.3328 66.384 46.0448 66.696 46.7008 67.112C47.3728 67.512 47.9488 67.992 48.4288 68.552L45.9328 71.408C45.5968 71.056 45.2368 70.752 44.8528 70.496C44.4848 70.224 44.0768 70.016 43.6288 69.872C43.1808 69.728 42.7008 69.656 42.1888 69.656C41.5488 69.656 40.9408 69.776 40.3648 70.016C39.8048 70.24 39.3088 70.568 38.8768 71C38.4608 71.416 38.1328 71.928 37.8928 72.536C37.6528 73.144 37.5328 73.824 37.5328 74.576C37.5328 75.312 37.6528 75.984 37.8928 76.592C38.1328 77.184 38.4688 77.696 38.9008 78.128C39.3328 78.56 39.8528 78.888 40.4608 79.112C41.0848 79.336 41.7728 79.448 42.5248 79.448C43.0368 79.448 43.5248 79.376 43.9888 79.232C44.4528 79.088 44.8768 78.896 45.2608 78.656C45.6608 78.4 46.0128 78.112 46.3168 77.792L48.2848 80.912C47.8848 81.36 47.3488 81.76 46.6768 82.112C46.0208 82.464 45.2848 82.744 44.4688 82.952C43.6688 83.144 42.8608 83.24 42.0448 83.24ZM51.0768 83V66.2H58.6368C59.7088 66.2 60.6768 66.432 61.5408 66.896C62.4208 67.36 63.1088 68 63.6048 68.816C64.1008 69.616 64.3488 70.528 64.3488 71.552C64.3488 72.608 64.1008 73.56 63.6048 74.408C63.1088 75.24 62.4288 75.896 61.5648 76.376C60.7008 76.856 59.7248 77.096 58.6368 77.096H54.9648V83H51.0768ZM60.3888 83L56.1168 75.416L60.2928 74.816L65.0448 83H60.3888ZM54.9648 73.976H58.2768C58.6928 73.976 59.0528 73.888 59.3568 73.712C59.6768 73.52 59.9168 73.256 60.0768 72.92C60.2528 72.584 60.3408 72.2 60.3408 71.768C60.3408 71.336 60.2448 70.96 60.0528 70.64C59.8608 70.304 59.5808 70.048 59.2128 69.872C58.8608 69.696 58.4288 69.608 57.9168 69.608H54.9648V73.976ZM71.1077 83V69.8H66.1157V66.2H80.2997V69.8H75.1877V83H71.1077ZM83.1862 83V66.2H87.2662V79.4H94.7542V83H83.1862Z" fill="#FBFEF9"/>
</svg>
