<svg width="128" height="128" viewBox="0 0 128 128" fill="none" xmlns="http://www.w3.org/2000/svg">
<path d="M52 11H76H96C103.18 11 109 16.8203 109 24V30.4V52.8V104C109 111.18 103.18 117 96 117H76H64H52H32C24.8203 117 19 111.18 19 104V52.8V24C19 16.8203 24.8203 11 32 11H52Z" fill="#191923" stroke="#C8CED0" stroke-width="6"/>
<path d="M53.5 17H74.5H96C99.866 17 103 20.134 103 24V34V54V104C103 107.866 99.866 111 96 111H74.5H64H53.5H32C28.134 111 25 107.866 25 104V54V24C25 20.134 28.134 17 32 17H53.5Z" stroke="#2E2836" stroke-width="6"/>
<path d="M37.9517 85.15C37.1517 85.15 36.4217 85.015 35.7617 84.745C35.1017 84.475 34.5267 84.095 34.0367 83.605C33.5467 83.115 33.1667 82.54 32.8967 81.88C32.6267 81.22 32.4917 80.495 32.4917 79.705C32.4917 78.915 32.6267 78.19 32.8967 77.53C33.1667 76.87 33.5467 76.295 34.0367 75.805C34.5267 75.315 35.1017 74.935 35.7617 74.665C36.4217 74.395 37.1467 74.26 37.9367 74.26C38.7267 74.26 39.4517 74.395 40.1117 74.665C40.7717 74.935 41.3467 75.315 41.8367 75.805C42.3267 76.295 42.7017 76.87 42.9617 77.53C43.2317 78.19 43.3667 78.915 43.3667 79.705C43.3667 80.485 43.2317 81.21 42.9617 81.88C42.7017 82.54 42.3267 83.115 41.8367 83.605C41.3467 84.095 40.7717 84.475 40.1117 84.745C39.4517 85.015 38.7317 85.15 37.9517 85.15ZM37.9367 82.75C38.3467 82.75 38.7217 82.675 39.0617 82.525C39.4117 82.375 39.7117 82.165 39.9617 81.895C40.2217 81.615 40.4217 81.29 40.5617 80.92C40.7017 80.55 40.7717 80.145 40.7717 79.705C40.7717 79.265 40.7017 78.86 40.5617 78.49C40.4217 78.12 40.2217 77.8 39.9617 77.53C39.7117 77.25 39.4117 77.035 39.0617 76.885C38.7217 76.735 38.3467 76.66 37.9367 76.66C37.5267 76.66 37.1467 76.735 36.7967 76.885C36.4567 77.035 36.1567 77.25 35.8967 77.53C35.6367 77.8 35.4367 78.12 35.2967 78.49C35.1667 78.86 35.1017 79.265 35.1017 79.705C35.1017 80.145 35.1667 80.555 35.2967 80.935C35.4367 81.305 35.6367 81.625 35.8967 81.895C36.1567 82.165 36.4567 82.375 36.7967 82.525C37.1467 82.675 37.5267 82.75 37.9367 82.75ZM45.3395 85V74.5H49.8695C50.5295 74.5 51.1145 74.65 51.6245 74.95C52.1445 75.25 52.5545 75.66 52.8545 76.18C53.1645 76.7 53.3195 77.285 53.3195 77.935C53.3195 78.615 53.1645 79.225 52.8545 79.765C52.5545 80.295 52.1445 80.715 51.6245 81.025C51.1145 81.335 50.5295 81.49 49.8695 81.49H47.8895V85H45.3395ZM47.8445 79.255H49.5095C49.7295 79.255 49.9295 79.2 50.1095 79.09C50.2895 78.98 50.4345 78.83 50.5445 78.64C50.6545 78.45 50.7095 78.23 50.7095 77.98C50.7095 77.72 50.6545 77.5 50.5445 77.32C50.4345 77.14 50.2895 77 50.1095 76.9C49.9295 76.8 49.7295 76.75 49.5095 76.75H47.8445V79.255ZM57.5512 85V76.75H54.4312V74.5H63.2962V76.75H60.1012V85H57.5512ZM64.8903 85V82.855H66.6603V76.645H64.8903V74.5H70.9953V76.645H69.2103V82.855H70.9953V85H64.8903ZM77.9859 85.15C77.1859 85.15 76.4559 85.015 75.7959 84.745C75.1359 84.475 74.5609 84.095 74.0709 83.605C73.5809 83.115 73.2009 82.54 72.9309 81.88C72.6609 81.22 72.5259 80.495 72.5259 79.705C72.5259 78.915 72.6609 78.19 72.9309 77.53C73.2009 76.87 73.5809 76.295 74.0709 75.805C74.5609 75.315 75.1359 74.935 75.7959 74.665C76.4559 74.395 77.1809 74.26 77.9709 74.26C78.7609 74.26 79.4859 74.395 80.1459 74.665C80.8059 74.935 81.3809 75.315 81.8709 75.805C82.3609 76.295 82.7359 76.87 82.9959 77.53C83.2659 78.19 83.4009 78.915 83.4009 79.705C83.4009 80.485 83.2659 81.21 82.9959 81.88C82.7359 82.54 82.3609 83.115 81.8709 83.605C81.3809 84.095 80.8059 84.475 80.1459 84.745C79.4859 85.015 78.7659 85.15 77.9859 85.15ZM77.9709 82.75C78.3809 82.75 78.7559 82.675 79.0959 82.525C79.4459 82.375 79.7459 82.165 79.9959 81.895C80.2559 81.615 80.4559 81.29 80.5959 80.92C80.7359 80.55 80.8059 80.145 80.8059 79.705C80.8059 79.265 80.7359 78.86 80.5959 78.49C80.4559 78.12 80.2559 77.8 79.9959 77.53C79.7459 77.25 79.4459 77.035 79.0959 76.885C78.7559 76.735 78.3809 76.66 77.9709 76.66C77.5609 76.66 77.1809 76.735 76.8309 76.885C76.4909 77.035 76.1909 77.25 75.9309 77.53C75.6709 77.8 75.4709 78.12 75.3309 78.49C75.2009 78.86 75.1359 79.265 75.1359 79.705C75.1359 80.145 75.2009 80.555 75.3309 80.935C75.4709 81.305 75.6709 81.625 75.9309 81.895C76.1909 82.165 76.4909 82.375 76.8309 82.525C77.1809 82.675 77.5609 82.75 77.9709 82.75ZM85.3737 85V74.5H87.6537L93.1587 82L92.6637 81.925C92.6137 81.595 92.5737 81.28 92.5437 80.98C92.5137 80.68 92.4837 80.385 92.4537 80.095C92.4337 79.805 92.4137 79.51 92.3937 79.21C92.3837 78.91 92.3737 78.585 92.3637 78.235C92.3637 77.885 92.3637 77.505 92.3637 77.095V74.5H94.8387V85H92.5287L86.7837 77.26L87.5487 77.365C87.5987 77.845 87.6387 78.255 87.6687 78.595C87.7087 78.925 87.7387 79.22 87.7587 79.48C87.7887 79.74 87.8087 79.975 87.8187 80.185C87.8287 80.395 87.8337 80.605 87.8337 80.815C87.8437 81.015 87.8487 81.24 87.8487 81.49V85H85.3737ZM49.9225 104L54.0775 93.5H56.2375L60.3625 104H57.7825L55.8025 98.675C55.7225 98.465 55.6425 98.24 55.5625 98C55.4825 97.76 55.4025 97.515 55.3225 97.265C55.2425 97.005 55.1625 96.755 55.0825 96.515C55.0125 96.265 54.9525 96.035 54.9025 95.825L55.3525 95.81C55.2925 96.06 55.2225 96.305 55.1425 96.545C55.0725 96.785 54.9975 97.025 54.9175 97.265C54.8475 97.495 54.7675 97.73 54.6775 97.97C54.5875 98.2 54.5025 98.44 54.4225 98.69L52.4425 104H49.9225ZM51.9025 101.99L52.6975 100.07H57.5275L58.3075 101.99H51.9025ZM61.6725 104V93.5H64.2225V101.75H68.9025V104H61.6725ZM71.8334 104V95.75H68.7134V93.5H77.5784V95.75H74.3834V104H71.8334Z" fill="#FBFEF9"/>
<path d="M67.8587 22.0909H84.1882V27.8523H67.8587V22.0909ZM43.8246 27.8523V22.0909H58.3132L73.0405 51.2386H84.1882V57H69.6996L54.9893 27.8523H43.8246Z" fill="#FBFEF9"/>
</svg>
