<svg width="128" height="128" viewBox="0 0 128 128" fill="none" xmlns="http://www.w3.org/2000/svg">
<path d="M52 11H76H96C103.18 11 109 16.8203 109 24V30.4V52.8V104C109 111.18 103.18 117 96 117H76H64H52H32C24.8203 117 19 111.18 19 104V52.8V24C19 16.8203 24.8203 11 32 11H52Z" fill="#191923" stroke="#C8CED0" stroke-width="6"/>
<path d="M53.5 17H74.5H96C99.866 17 103 20.134 103 24V34V54V104C103 107.866 99.866 111 96 111H74.5H64H53.5H32C28.134 111 25 107.866 25 104V54V24C25 20.134 28.134 17 32 17H53.5Z" stroke="#2E2836" stroke-width="6"/>
<path d="M41.0191 53V43.2H45.4291C46.0544 43.2 46.6191 43.3353 47.1231 43.606C47.6364 43.8767 48.0378 44.25 48.3271 44.726C48.6164 45.1927 48.7611 45.7247 48.7611 46.322C48.7611 46.938 48.6164 47.4933 48.3271 47.988C48.0378 48.4733 47.6411 48.856 47.1371 49.136C46.6331 49.416 46.0638 49.556 45.4291 49.556H43.2871V53H41.0191ZM46.4511 53L43.9591 48.576L46.3951 48.226L49.1671 53H46.4511ZM43.2871 47.736H45.2191C45.4618 47.736 45.6718 47.6847 45.8491 47.582C46.0358 47.47 46.1758 47.316 46.2691 47.12C46.3718 46.924 46.4231 46.7 46.4231 46.448C46.4231 46.196 46.3671 45.9767 46.2551 45.79C46.1431 45.594 45.9798 45.4447 45.7651 45.342C45.5598 45.2393 45.3078 45.188 45.0091 45.188H43.2871V47.736ZM50.6532 53V50.998H52.3052V45.202H50.6532V43.2H56.3512V45.202H54.6852V50.998H56.3512V53H50.6532ZM62.9597 53.14C62.1757 53.14 61.4664 53.014 60.8317 52.762C60.1971 52.51 59.6511 52.1553 59.1937 51.698C58.7364 51.2407 58.3864 50.704 58.1437 50.088C57.9011 49.4627 57.7797 48.786 57.7797 48.058C57.7797 47.33 57.9057 46.6627 58.1577 46.056C58.4191 45.44 58.7877 44.9033 59.2637 44.446C59.7397 43.9887 60.2997 43.634 60.9437 43.382C61.5971 43.13 62.3064 43.004 63.0717 43.004C63.6131 43.004 64.1217 43.074 64.5977 43.214C65.0831 43.354 65.5217 43.5453 65.9137 43.788C66.3057 44.0307 66.6371 44.3107 66.9077 44.628L65.4657 46.154C65.2324 45.93 64.9897 45.7433 64.7377 45.594C64.4951 45.4447 64.2337 45.328 63.9537 45.244C63.6737 45.1507 63.3751 45.104 63.0577 45.104C62.6471 45.104 62.2691 45.1787 61.9237 45.328C61.5877 45.4773 61.2891 45.6873 61.0277 45.958C60.7757 46.2193 60.5797 46.532 60.4397 46.896C60.2997 47.2507 60.2297 47.638 60.2297 48.058C60.2297 48.478 60.3044 48.87 60.4537 49.234C60.6031 49.598 60.8084 49.9153 61.0697 50.186C61.3311 50.4473 61.6391 50.6573 61.9937 50.816C62.3577 50.9653 62.7451 51.04 63.1557 51.04C63.4451 51.04 63.7157 50.9933 63.9677 50.9C64.2291 50.8067 64.4531 50.6807 64.6397 50.522C64.8264 50.3633 64.9757 50.1767 65.0877 49.962C65.1997 49.738 65.2557 49.5 65.2557 49.248V48.884L65.5637 49.36H62.8617V47.498H67.4677C67.4864 47.6007 67.5004 47.7407 67.5097 47.918C67.5191 48.0953 67.5237 48.268 67.5237 48.436C67.5331 48.604 67.5377 48.73 67.5377 48.814C67.5377 49.4487 67.4211 50.032 67.1877 50.564C66.9637 51.0867 66.6464 51.5393 66.2357 51.922C65.8251 52.3047 65.3397 52.6033 64.7797 52.818C64.2197 53.0327 63.6131 53.14 62.9597 53.14ZM75.4369 53V43.2H77.8169V53H75.4369ZM69.3609 53V43.2H71.7409V53H69.3609ZM70.2849 49.178L70.2989 47.05H76.6969V49.178H70.2849ZM82.3991 53V45.3H79.4871V43.2H87.7611V45.3H84.7791V53H82.3991ZM45.6073 83.24C44.3433 83.24 43.1753 83.032 42.1033 82.616C41.0473 82.184 40.1273 81.584 39.3433 80.816C38.5593 80.032 37.9513 79.112 37.5193 78.056C37.1033 76.984 36.8953 75.808 36.8953 74.528C36.8953 73.28 37.1193 72.128 37.5673 71.072C38.0153 70.016 38.6313 69.104 39.4153 68.336C40.2153 67.552 41.1513 66.944 42.2233 66.512C43.3113 66.08 44.4953 65.864 45.7753 65.864C46.5753 65.864 47.3593 65.968 48.1273 66.176C48.8953 66.384 49.6073 66.696 50.2633 67.112C50.9353 67.512 51.5113 67.992 51.9913 68.552L49.4953 71.408C49.1593 71.056 48.7993 70.752 48.4153 70.496C48.0473 70.224 47.6393 70.016 47.1913 69.872C46.7433 69.728 46.2633 69.656 45.7513 69.656C45.1113 69.656 44.5033 69.776 43.9273 70.016C43.3673 70.24 42.8713 70.568 42.4393 71C42.0233 71.416 41.6953 71.928 41.4553 72.536C41.2153 73.144 41.0953 73.824 41.0953 74.576C41.0953 75.312 41.2153 75.984 41.4553 76.592C41.6953 77.184 42.0313 77.696 42.4633 78.128C42.8953 78.56 43.4153 78.888 44.0233 79.112C44.6473 79.336 45.3353 79.448 46.0873 79.448C46.5993 79.448 47.0873 79.376 47.5513 79.232C48.0153 79.088 48.4393 78.896 48.8233 78.656C49.2233 78.4 49.5753 78.112 49.8793 77.792L51.8473 80.912C51.4473 81.36 50.9113 81.76 50.2393 82.112C49.5833 82.464 48.8473 82.744 48.0313 82.952C47.2313 83.144 46.4233 83.24 45.6073 83.24ZM54.6393 83V66.2H58.2873L64.4073 76.16L61.7913 76.136L67.9833 66.2H71.4873V83H67.5273V77.768C67.5273 76.328 67.5593 75.032 67.6233 73.88C67.7033 72.728 67.8313 71.584 68.0073 70.448L68.4633 71.696L63.8073 78.92H62.2233L57.6633 71.744L58.1193 70.448C58.2953 71.52 58.4153 72.624 58.4793 73.76C58.5593 74.88 58.5993 76.216 58.5993 77.768V83H54.6393ZM75.7097 83V66.2H82.7417C83.9737 66.2 85.1017 66.408 86.1257 66.824C87.1497 67.224 88.0297 67.8 88.7657 68.552C89.5177 69.304 90.0937 70.192 90.4937 71.216C90.8937 72.24 91.0937 73.368 91.0937 74.6C91.0937 75.832 90.8937 76.968 90.4937 78.008C90.0937 79.032 89.5177 79.92 88.7657 80.672C88.0297 81.408 87.1497 81.984 86.1257 82.4C85.1017 82.8 83.9737 83 82.7417 83H75.7097ZM79.7897 80.216L79.2377 79.4H82.6217C83.2937 79.4 83.8937 79.288 84.4217 79.064C84.9497 78.824 85.3977 78.496 85.7657 78.08C86.1497 77.664 86.4457 77.16 86.6537 76.568C86.8617 75.976 86.9657 75.32 86.9657 74.6C86.9657 73.88 86.8617 73.224 86.6537 72.632C86.4457 72.04 86.1497 71.536 85.7657 71.12C85.3977 70.704 84.9497 70.384 84.4217 70.16C83.8937 69.92 83.2937 69.8 82.6217 69.8H79.1657L79.7897 69.032V80.216Z" fill="#FBFEF9"/>
</svg>
