<svg width="128" height="128" viewBox="0 0 128 128" fill="none" xmlns="http://www.w3.org/2000/svg">
<path d="M52 11H76H96C103.18 11 109 16.8203 109 24V30.4V52.8V104C109 111.18 103.18 117 96 117H76H64H52H32C24.8203 117 19 111.18 19 104V52.8V24C19 16.8203 24.8203 11 32 11H52Z" fill="#191923" stroke="#C8CED0" stroke-width="6"/>
<path d="M53.5 17H74.5H96C99.866 17 103 20.134 103 24V34V54V104C103 107.866 99.866 111 96 111H74.5H64H53.5H32C28.134 111 25 107.866 25 104V54V24C25 20.134 28.134 17 32 17H53.5Z" stroke="#2E2836" stroke-width="6"/>
<rect x="67" y="48" width="25" height="25" fill="#FBFEF9"/>
<rect x="67" y="79" width="25" height="25" fill="#FBFEF9"/>
<rect x="36" y="79" width="25" height="25" fill="#FBFEF9"/>
<rect x="36" y="48" width="25" height="25" fill="#FBFEF9"/>
<path d="M31.1702 39V25H37.4702C38.3635 25 39.1702 25.1933 39.8902 25.58C40.6235 25.9667 41.1968 26.5 41.6102 27.18C42.0235 27.8467 42.2302 28.6067 42.2302 29.46C42.2302 30.34 42.0235 31.1333 41.6102 31.84C41.1968 32.5333 40.6302 33.08 39.9102 33.48C39.1902 33.88 38.3768 34.08 37.4702 34.08H34.4102V39H31.1702ZM38.9302 39L35.3702 32.68L38.8502 32.18L42.8102 39H38.9302ZM34.4102 31.48H37.1702C37.5168 31.48 37.8168 31.4067 38.0702 31.26C38.3368 31.1 38.5368 30.88 38.6702 30.6C38.8168 30.32 38.8902 30 38.8902 29.64C38.8902 29.28 38.8102 28.9667 38.6502 28.7C38.4902 28.42 38.2568 28.2067 37.9502 28.06C37.6568 27.9133 37.2968 27.84 36.8702 27.84H34.4102V31.48ZM44.9331 39V36.14H47.2931V27.86H44.9331V25H53.0731V27.86H50.6931V36.14H53.0731V39H44.9331ZM62.5139 39.2C61.3939 39.2 60.3806 39.02 59.4739 38.66C58.5672 38.3 57.7872 37.7933 57.1339 37.14C56.4806 36.4867 55.9806 35.72 55.6339 34.84C55.2872 33.9467 55.1139 32.98 55.1139 31.94C55.1139 30.9 55.2939 29.9467 55.6539 29.08C56.0272 28.2 56.5539 27.4333 57.2339 26.78C57.9139 26.1267 58.7139 25.62 59.6339 25.26C60.5672 24.9 61.5806 24.72 62.6739 24.72C63.4472 24.72 64.1739 24.82 64.8539 25.02C65.5472 25.22 66.1739 25.4933 66.7339 25.84C67.2939 26.1867 67.7672 26.5867 68.1539 27.04L66.0939 29.22C65.7606 28.9 65.4139 28.6333 65.0539 28.42C64.7072 28.2067 64.3339 28.04 63.9339 27.92C63.5339 27.7867 63.1072 27.72 62.6539 27.72C62.0672 27.72 61.5272 27.8267 61.0339 28.04C60.5539 28.2533 60.1272 28.5533 59.7539 28.94C59.3939 29.3133 59.1139 29.76 58.9139 30.28C58.7139 30.7867 58.6139 31.34 58.6139 31.94C58.6139 32.54 58.7206 33.1 58.9339 33.62C59.1472 34.14 59.4406 34.5933 59.8139 34.98C60.1872 35.3533 60.6272 35.6533 61.1339 35.88C61.6539 36.0933 62.2072 36.2 62.7939 36.2C63.2072 36.2 63.5939 36.1333 63.9539 36C64.3272 35.8667 64.6472 35.6867 64.9139 35.46C65.1806 35.2333 65.3939 34.9667 65.5539 34.66C65.7139 34.34 65.7939 34 65.7939 33.64V33.12L66.2339 33.8H62.3739V31.14H68.9539C68.9806 31.2867 69.0006 31.4867 69.0139 31.74C69.0272 31.9933 69.0339 32.24 69.0339 32.48C69.0472 32.72 69.0539 32.9 69.0539 33.02C69.0539 33.9267 68.8872 34.76 68.5539 35.52C68.2339 36.2667 67.7806 36.9133 67.1939 37.46C66.6072 38.0067 65.9139 38.4333 65.1139 38.74C64.3139 39.0467 63.4472 39.2 62.5139 39.2ZM80.3384 39V25H83.7384V39H80.3384ZM71.6584 39V25H75.0584V39H71.6584ZM72.9784 33.54L72.9984 30.5H82.1384V33.54H72.9784ZM90.2844 39V28H86.1244V25H97.9444V28H93.6844V39H90.2844Z" fill="#FBFEF9"/>
</svg>
