<svg width="128" height="128" viewBox="0 0 128 128" fill="none" xmlns="http://www.w3.org/2000/svg">
<path d="M52 11H76H96C103.18 11 109 16.8203 109 24V30.4V52.8V104C109 111.18 103.18 117 96 117H76H64H52H32C24.8203 117 19 111.18 19 104V52.8V24C19 16.8203 24.8203 11 32 11H52Z" fill="#191923" stroke="#C8CED0" stroke-width="6"/>
<path d="M53.5 17H74.5H96C99.866 17 103 20.134 103 24V34V54V104C103 107.866 99.866 111 96 111H74.5H64H53.5H32C28.134 111 25 107.866 25 104V54V24C25 20.134 28.134 17 32 17H53.5Z" stroke="#2E2836" stroke-width="6"/>
<path d="M40.8821 73L35.8421 56.2H39.9941L42.5141 65.032C42.6261 65.432 42.7221 65.84 42.8021 66.256C42.8981 66.656 42.9701 67.04 43.0181 67.408C43.0821 67.776 43.1301 68.12 43.1621 68.44C43.1941 68.744 43.2261 69 43.2581 69.208H42.7301C42.8261 68.616 42.9061 68.088 42.9701 67.624C43.0501 67.16 43.1381 66.728 43.2341 66.328C43.3301 65.912 43.4501 65.48 43.5941 65.032L46.0901 58.384H49.3541L51.8021 65.032C51.9941 65.56 52.1541 66.056 52.2821 66.52C52.4101 66.984 52.5061 67.432 52.5701 67.864C52.6501 68.28 52.7141 68.696 52.7621 69.112L52.2821 69.184C52.3141 68.896 52.3381 68.632 52.3541 68.392C52.3701 68.136 52.3861 67.896 52.4021 67.672C52.4341 67.432 52.4661 67.184 52.4981 66.928C52.5301 66.672 52.5781 66.392 52.6421 66.088C52.7061 65.768 52.7941 65.408 52.9061 65.008L55.4021 56.2H59.4581L54.4181 73H51.2981L47.3141 63.328L47.7701 63.376L44.0981 73H40.8821ZM61.358 73V69.568H64.19V59.632H61.358V56.2H71.126V59.632H68.27V69.568H71.126V73H61.358ZM75.0065 73V56.2H78.6545L87.4625 68.2L86.6705 68.08C86.5905 67.552 86.5265 67.048 86.4785 66.568C86.4305 66.088 86.3825 65.616 86.3345 65.152C86.3025 64.688 86.2705 64.216 86.2385 63.736C86.2225 63.256 86.2065 62.736 86.1905 62.176C86.1905 61.616 86.1905 61.008 86.1905 60.352V56.2H90.1505V73H86.4545L77.2625 60.616L78.4865 60.784C78.5665 61.552 78.6305 62.208 78.6785 62.752C78.7425 63.28 78.7905 63.752 78.8225 64.168C78.8705 64.584 78.9025 64.96 78.9185 65.296C78.9345 65.632 78.9425 65.968 78.9425 66.304C78.9585 66.624 78.9665 66.984 78.9665 67.384V73H75.0065Z" fill="#FBFEF9"/>
</svg>
