<svg width="128" height="128" viewBox="0 0 128 128" fill="none" xmlns="http://www.w3.org/2000/svg">
<circle cx="64" cy="64" r="45" fill="#FBFEF9" stroke="#C8CED0" stroke-width="6"/>
<path d="M39.3709 81.6357V48.0357H44.5549V76.6437H60.2989V81.6357H39.3709ZM78.4733 82.1157C76.6493 82.1157 74.9533 81.8757 73.3853 81.3957C71.8493 80.9157 70.4413 80.1957 69.1613 79.2357C67.9133 78.2437 66.7933 77.0277 65.8013 75.5877L69.3533 71.5077C70.9213 73.7477 72.4253 75.2997 73.8653 76.1637C75.3053 77.0277 77.0173 77.4597 79.0013 77.4597C80.2173 77.4597 81.3213 77.2677 82.3133 76.8837C83.3053 76.4997 84.0893 75.9717 84.6653 75.2997C85.2413 74.6277 85.5293 73.8597 85.5293 72.9957C85.5293 72.4197 85.4333 71.8757 85.2413 71.3637C85.0493 70.8517 84.7453 70.3877 84.3293 69.9717C83.9453 69.5557 83.4333 69.1717 82.7933 68.8197C82.1853 68.4677 81.4653 68.1637 80.6333 67.9077C79.8013 67.6197 78.8413 67.3797 77.7533 67.1877C76.0253 66.8357 74.5213 66.3717 73.2413 65.7957C71.9613 65.2197 70.8893 64.4997 70.0253 63.6357C69.1613 62.7717 68.5213 61.7957 68.1053 60.7077C67.6893 59.5877 67.4813 58.3397 67.4813 56.9637C67.4813 55.6197 67.7693 54.3717 68.3453 53.2197C68.9533 52.0677 69.7693 51.0757 70.7933 50.2437C71.8493 49.3797 73.0813 48.7237 74.4893 48.2757C75.8973 47.7957 77.4173 47.5557 79.0493 47.5557C80.7773 47.5557 82.3613 47.7797 83.8013 48.2277C85.2413 48.6757 86.5213 49.3477 87.6413 50.2437C88.7613 51.1077 89.6893 52.1797 90.4253 53.4597L86.7773 57.0597C86.1373 56.0037 85.4173 55.1237 84.6173 54.4197C83.8173 53.6837 82.9373 53.1397 81.9773 52.7877C81.0173 52.4037 79.9933 52.2117 78.9053 52.2117C77.6573 52.2117 76.5693 52.4037 75.6413 52.7877C74.7133 53.1717 73.9773 53.7157 73.4333 54.4197C72.9213 55.0917 72.6653 55.8917 72.6653 56.8197C72.6653 57.4917 72.7933 58.1157 73.0493 58.6917C73.3053 59.2357 73.6893 59.7317 74.2013 60.1797C74.7453 60.5957 75.4653 60.9797 76.3613 61.3317C77.2573 61.6517 78.3293 61.9397 79.5773 62.1957C81.3373 62.5797 82.9053 63.0757 84.2813 63.6837C85.6573 64.2597 86.8253 64.9477 87.7853 65.7477C88.7453 66.5477 89.4653 67.4437 89.9453 68.4357C90.4573 69.4277 90.7133 70.4997 90.7133 71.6517C90.7133 73.7957 90.2173 75.6517 89.2253 77.2197C88.2333 78.7877 86.8253 80.0037 85.0013 80.8677C83.1773 81.6997 81.0013 82.1157 78.4733 82.1157Z" fill="#191923"/>
</svg>
