<svg width="128" height="128" viewBox="0 0 128 128" fill="none" xmlns="http://www.w3.org/2000/svg">
<circle cx="64" cy="64" r="45" fill="#FBFEF9" stroke="#C8CED0" stroke-width="6"/>
<path d="M37.0506 81.6357V48.0357H51.3546C53.2746 48.0357 55.0346 48.5157 56.6346 49.4757C58.2666 50.4037 59.5626 51.6837 60.5226 53.3157C61.4826 54.9157 61.9626 56.7237 61.9626 58.7397C61.9626 60.5637 61.4826 62.2597 60.5226 63.8277C59.5626 65.3957 58.2826 66.6597 56.6826 67.6197C55.0826 68.5477 53.3066 69.0117 51.3546 69.0117H42.2346V81.6357H37.0506ZM57.0186 81.6357L48.4746 66.4677L53.8026 65.2677L63.3066 81.6837L57.0186 81.6357ZM42.2346 64.0197H51.8346C52.7626 64.0197 53.5946 63.7957 54.3306 63.3477C55.0666 62.8677 55.6426 62.2277 56.0586 61.4277C56.4746 60.5957 56.6826 59.6837 56.6826 58.6917C56.6826 57.5717 56.4106 56.5957 55.8666 55.7637C55.3546 54.8997 54.6186 54.2277 53.6586 53.7477C52.7306 53.2677 51.6746 53.0277 50.4906 53.0277H42.2346V64.0197ZM80.7936 82.1157C78.9696 82.1157 77.2736 81.8757 75.7056 81.3957C74.1696 80.9157 72.7616 80.1957 71.4816 79.2357C70.2336 78.2437 69.1136 77.0277 68.1216 75.5877L71.6736 71.5077C73.2416 73.7477 74.7456 75.2997 76.1856 76.1637C77.6256 77.0277 79.3376 77.4597 81.3216 77.4597C82.5376 77.4597 83.6416 77.2677 84.6336 76.8837C85.6256 76.4997 86.4096 75.9717 86.9856 75.2997C87.5616 74.6277 87.8496 73.8597 87.8496 72.9957C87.8496 72.4197 87.7536 71.8757 87.5616 71.3637C87.3696 70.8517 87.0656 70.3877 86.6496 69.9717C86.2656 69.5557 85.7536 69.1717 85.1136 68.8197C84.5056 68.4677 83.7856 68.1637 82.9536 67.9077C82.1216 67.6197 81.1616 67.3797 80.0736 67.1877C78.3456 66.8357 76.8416 66.3717 75.5616 65.7957C74.2816 65.2197 73.2096 64.4997 72.3456 63.6357C71.4816 62.7717 70.8416 61.7957 70.4256 60.7077C70.0096 59.5877 69.8016 58.3397 69.8016 56.9637C69.8016 55.6197 70.0896 54.3717 70.6656 53.2197C71.2736 52.0677 72.0896 51.0757 73.1136 50.2437C74.1696 49.3797 75.4016 48.7237 76.8096 48.2757C78.2176 47.7957 79.7376 47.5557 81.3696 47.5557C83.0976 47.5557 84.6816 47.7797 86.1216 48.2277C87.5616 48.6757 88.8416 49.3477 89.9616 50.2437C91.0816 51.1077 92.0096 52.1797 92.7456 53.4597L89.0976 57.0597C88.4576 56.0037 87.7376 55.1237 86.9376 54.4197C86.1376 53.6837 85.2576 53.1397 84.2976 52.7877C83.3376 52.4037 82.3136 52.2117 81.2256 52.2117C79.9776 52.2117 78.8896 52.4037 77.9616 52.7877C77.0336 53.1717 76.2976 53.7157 75.7536 54.4197C75.2416 55.0917 74.9856 55.8917 74.9856 56.8197C74.9856 57.4917 75.1136 58.1157 75.3696 58.6917C75.6256 59.2357 76.0096 59.7317 76.5216 60.1797C77.0656 60.5957 77.7856 60.9797 78.6816 61.3317C79.5776 61.6517 80.6496 61.9397 81.8976 62.1957C83.6576 62.5797 85.2256 63.0757 86.6016 63.6837C87.9776 64.2597 89.1456 64.9477 90.1056 65.7477C91.0656 66.5477 91.7856 67.4437 92.2656 68.4357C92.7776 69.4277 93.0336 70.4997 93.0336 71.6517C93.0336 73.7957 92.5376 75.6517 91.5456 77.2197C90.5536 78.7877 89.1456 80.0037 87.3216 80.8677C85.4976 81.6997 83.3216 82.1157 80.7936 82.1157Z" fill="#191923"/>
</svg>
