<svg width="128" height="128" viewBox="0 0 128 128" fill="none" xmlns="http://www.w3.org/2000/svg">
<path d="M52 19H76H96C103.18 19 109 24.8203 109 32V35.2V54.4V96C109 103.18 103.18 109 96 109H76H64H52H32C24.8203 109 19 103.18 19 96V54.4V32C19 24.8203 24.8203 19 32 19H52Z" fill="#191923" stroke="#C8CED0" stroke-width="6"/>
<path d="M53.5 25H74.5H96C99.866 25 103 28.134 103 32V38.8V55.6V96C103 99.866 99.866 103 96 103H74.5H64H53.5H32C28.134 103 25 99.866 25 96V55.6V32C25 28.134 28.134 25 32 25H53.5Z" stroke="#2E2836" stroke-width="6"/>
<path d="M30.4721 73L37.1201 56.2H40.5761L47.1761 73H43.0481L39.8801 64.48C39.7521 64.144 39.6241 63.784 39.4961 63.4C39.3681 63.016 39.2401 62.624 39.1121 62.224C38.9841 61.808 38.8561 61.408 38.7281 61.024C38.6161 60.624 38.5201 60.256 38.4401 59.92L39.1601 59.896C39.0641 60.296 38.9521 60.688 38.8241 61.072C38.7121 61.456 38.5921 61.84 38.4641 62.224C38.3521 62.592 38.2241 62.968 38.0801 63.352C37.9361 63.72 37.8001 64.104 37.6721 64.504L34.5041 73H30.4721ZM33.6401 69.784L34.9121 66.712H42.6401L43.8881 69.784H33.6401ZM51.7248 73V59.8H46.7328V56.2H60.9168V59.8H55.8048V73H51.7248ZM68.178 73V59.8H63.186V56.2H77.37V59.8H72.258V73H68.178ZM80.2565 73V56.2H83.9045L92.7125 68.2L91.9205 68.08C91.8405 67.552 91.7765 67.048 91.7285 66.568C91.6805 66.088 91.6325 65.616 91.5845 65.152C91.5525 64.688 91.5205 64.216 91.4885 63.736C91.4725 63.256 91.4565 62.736 91.4405 62.176C91.4405 61.616 91.4405 61.008 91.4405 60.352V56.2H95.4005V73H91.7045L82.5125 60.616L83.7365 60.784C83.8165 61.552 83.8805 62.208 83.9285 62.752C83.9925 63.28 84.0405 63.752 84.0725 64.168C84.1205 64.584 84.1525 64.96 84.1685 65.296C84.1845 65.632 84.1925 65.968 84.1925 66.304C84.2085 66.624 84.2165 66.984 84.2165 67.384V73H80.2565Z" fill="#FBFEF9"/>
</svg>
