<svg width="128" height="128" viewBox="0 0 128 128" fill="none" xmlns="http://www.w3.org/2000/svg">
<path d="M52 19H76H96C103.18 19 109 24.8203 109 32V35.2V54.4V96C109 103.18 103.18 109 96 109H76H64H52H32C24.8203 109 19 103.18 19 96V54.4V32C19 24.8203 24.8203 19 32 19H52Z" fill="#191923" stroke="#C8CED0" stroke-width="6"/>
<path d="M53.5 25H74.5H96C99.866 25 103 28.134 103 32V38.8V55.6V96C103 99.866 99.866 103 96 103H74.5H64H53.5H32C28.134 103 25 99.866 25 96V55.6V32C25 28.134 28.134 25 32 25H53.5Z" stroke="#2E2836" stroke-width="6"/>
<path d="M38.8909 85.24C37.7869 85.24 36.7869 85.112 35.8909 84.856C35.0109 84.584 34.2269 84.2 33.5389 83.704C32.8509 83.192 32.2349 82.592 31.6909 81.904L34.1629 79.096C34.9629 80.168 35.7629 80.888 36.5629 81.256C37.3789 81.624 38.2189 81.808 39.0829 81.808C39.5149 81.808 39.9069 81.752 40.2589 81.64C40.6109 81.528 40.8829 81.368 41.0749 81.16C41.2669 80.936 41.3629 80.664 41.3629 80.344C41.3629 80.104 41.2989 79.888 41.1709 79.696C41.0589 79.504 40.8989 79.336 40.6909 79.192C40.4829 79.048 40.2349 78.92 39.9469 78.808C39.6589 78.68 39.3549 78.576 39.0349 78.496C38.7149 78.4 38.3869 78.32 38.0509 78.256C37.1229 78.048 36.3149 77.792 35.6269 77.488C34.9389 77.184 34.3629 76.816 33.8989 76.384C33.4509 75.936 33.1149 75.432 32.8909 74.872C32.6669 74.296 32.5549 73.656 32.5549 72.952C32.5549 72.2 32.7229 71.512 33.0589 70.888C33.4109 70.248 33.8749 69.704 34.4509 69.256C35.0429 68.792 35.7229 68.44 36.4909 68.2C37.2589 67.944 38.0589 67.816 38.8909 67.816C39.9949 67.816 40.9389 67.936 41.7229 68.176C42.5229 68.4 43.2029 68.728 43.7629 69.16C44.3389 69.592 44.8269 70.112 45.2269 70.72L42.7069 73.144C42.3709 72.728 42.0029 72.384 41.6029 72.112C41.2189 71.84 40.8029 71.632 40.3549 71.488C39.9229 71.344 39.4749 71.272 39.0109 71.272C38.5309 71.272 38.1149 71.336 37.7629 71.464C37.4269 71.576 37.1629 71.744 36.9709 71.968C36.7789 72.176 36.6829 72.432 36.6829 72.736C36.6829 73.008 36.7629 73.24 36.9229 73.432C37.0829 73.624 37.2989 73.8 37.5709 73.96C37.8429 74.104 38.1549 74.232 38.5069 74.344C38.8589 74.44 39.2269 74.52 39.6109 74.584C40.4909 74.76 41.2829 74.992 41.9869 75.28C42.7069 75.568 43.3229 75.92 43.8349 76.336C44.3629 76.752 44.7629 77.248 45.0349 77.824C45.3229 78.384 45.4669 79.04 45.4669 79.792C45.4669 80.96 45.1789 81.952 44.6029 82.768C44.0429 83.568 43.2669 84.184 42.2749 84.616C41.2989 85.032 40.1709 85.24 38.8909 85.24ZM52.1819 85V71.8H47.1899V68.2H61.3739V71.8H56.2619V85H52.1819ZM71.1899 85.24C69.9099 85.24 68.7419 85.024 67.6859 84.592C66.6299 84.16 65.7099 83.552 64.9259 82.768C64.1419 81.984 63.5339 81.064 63.1019 80.008C62.6699 78.952 62.4539 77.792 62.4539 76.528C62.4539 75.264 62.6699 74.104 63.1019 73.048C63.5339 71.992 64.1419 71.072 64.9259 70.288C65.7099 69.504 66.6299 68.896 67.6859 68.464C68.7419 68.032 69.9019 67.816 71.1659 67.816C72.4299 67.816 73.5899 68.032 74.6459 68.464C75.7019 68.896 76.6219 69.504 77.4059 70.288C78.1899 71.072 78.7899 71.992 79.2059 73.048C79.6379 74.104 79.8539 75.264 79.8539 76.528C79.8539 77.776 79.6379 78.936 79.2059 80.008C78.7899 81.064 78.1899 81.984 77.4059 82.768C76.6219 83.552 75.7019 84.16 74.6459 84.592C73.5899 85.024 72.4379 85.24 71.1899 85.24ZM71.1659 81.4C71.8219 81.4 72.4219 81.28 72.9659 81.04C73.5259 80.8 74.0059 80.464 74.4059 80.032C74.8219 79.584 75.1419 79.064 75.3659 78.472C75.5899 77.88 75.7019 77.232 75.7019 76.528C75.7019 75.824 75.5899 75.176 75.3659 74.584C75.1419 73.992 74.8219 73.48 74.4059 73.048C74.0059 72.6 73.5259 72.256 72.9659 72.016C72.4219 71.776 71.8219 71.656 71.1659 71.656C70.5099 71.656 69.9019 71.776 69.3419 72.016C68.7979 72.256 68.3179 72.6 67.9019 73.048C67.4859 73.48 67.1659 73.992 66.9419 74.584C66.7339 75.176 66.6299 75.824 66.6299 76.528C66.6299 77.232 66.7339 77.888 66.9419 78.496C67.1659 79.088 67.4859 79.6 67.9019 80.032C68.3179 80.464 68.7979 80.8 69.3419 81.04C69.9019 81.28 70.5099 81.4 71.1659 81.4ZM83.0104 85V68.2H90.2584C91.3144 68.2 92.2504 68.44 93.0664 68.92C93.8984 69.4 94.5544 70.056 95.0344 70.888C95.5304 71.72 95.7784 72.656 95.7784 73.696C95.7784 74.784 95.5304 75.76 95.0344 76.624C94.5544 77.472 93.8984 78.144 93.0664 78.64C92.2504 79.136 91.3144 79.384 90.2584 79.384H87.0904V85H83.0104ZM87.0184 75.808H89.6824C90.0344 75.808 90.3544 75.72 90.6424 75.544C90.9304 75.368 91.1624 75.128 91.3384 74.824C91.5144 74.52 91.6024 74.168 91.6024 73.768C91.6024 73.352 91.5144 73 91.3384 72.712C91.1624 72.424 90.9304 72.2 90.6424 72.04C90.3544 71.88 90.0344 71.8 89.6824 71.8H87.0184V75.808Z" fill="#FBFEF9"/>
<path d="M34.0716 49V40.6H37.7796C38.3556 40.6 38.8436 40.684 39.2436 40.852C39.6436 41.012 39.9436 41.248 40.1436 41.56C40.3516 41.864 40.4556 42.232 40.4556 42.664C40.4556 43.144 40.3356 43.548 40.0956 43.876C39.8636 44.204 39.5236 44.424 39.0756 44.536L39.0516 44.308C39.4276 44.388 39.7516 44.528 40.0236 44.728C40.3036 44.928 40.5196 45.176 40.6716 45.472C40.8236 45.76 40.8996 46.088 40.8996 46.456C40.8996 46.88 40.8276 47.252 40.6836 47.572C40.5396 47.884 40.3316 48.148 40.0596 48.364C39.7876 48.58 39.4676 48.74 39.0996 48.844C38.7396 48.948 38.3396 49 37.8996 49H34.0716ZM35.9916 47.296H37.8276C38.0516 47.296 38.2396 47.26 38.3916 47.188C38.5516 47.116 38.6756 47.012 38.7636 46.876C38.8516 46.732 38.8956 46.56 38.8956 46.36C38.8956 46.176 38.8476 46.02 38.7516 45.892C38.6636 45.764 38.5356 45.668 38.3676 45.604C38.1996 45.532 37.9996 45.496 37.7676 45.496H35.9916V47.296ZM35.9916 43.972H37.4916C37.6996 43.972 37.8756 43.94 38.0196 43.876C38.1716 43.804 38.2836 43.708 38.3556 43.588C38.4356 43.46 38.4756 43.308 38.4756 43.132C38.4756 42.876 38.3876 42.676 38.2116 42.532C38.0356 42.38 37.7716 42.304 37.4196 42.304H35.9916V43.972ZM42.4857 49V40.6H46.2657C46.8017 40.6 47.2857 40.716 47.7177 40.948C48.1577 41.18 48.5017 41.5 48.7497 41.908C48.9977 42.308 49.1217 42.764 49.1217 43.276C49.1217 43.804 48.9977 44.28 48.7497 44.704C48.5017 45.12 48.1617 45.448 47.7297 45.688C47.2977 45.928 46.8097 46.048 46.2657 46.048H44.4297V49H42.4857ZM47.1417 49L45.0057 45.208L47.0937 44.908L49.4697 49H47.1417ZM44.4297 44.488H46.0857C46.2937 44.488 46.4737 44.444 46.6257 44.356C46.7857 44.26 46.9057 44.128 46.9857 43.96C47.0737 43.792 47.1177 43.6 47.1177 43.384C47.1177 43.168 47.0697 42.98 46.9737 42.82C46.8777 42.652 46.7377 42.524 46.5537 42.436C46.3777 42.348 46.1617 42.304 45.9057 42.304H44.4297V44.488ZM54.6223 49.12C53.9823 49.12 53.3983 49.012 52.8703 48.796C52.3423 48.58 51.8823 48.276 51.4903 47.884C51.0983 47.492 50.7943 47.032 50.5783 46.504C50.3623 45.976 50.2543 45.396 50.2543 44.764C50.2543 44.132 50.3623 43.552 50.5783 43.024C50.7943 42.496 51.0983 42.036 51.4903 41.644C51.8823 41.252 52.3423 40.948 52.8703 40.732C53.3983 40.516 53.9783 40.408 54.6103 40.408C55.2423 40.408 55.8223 40.516 56.3503 40.732C56.8783 40.948 57.3383 41.252 57.7303 41.644C58.1223 42.036 58.4223 42.496 58.6303 43.024C58.8463 43.552 58.9543 44.132 58.9543 44.764C58.9543 45.388 58.8463 45.968 58.6303 46.504C58.4223 47.032 58.1223 47.492 57.7303 47.884C57.3383 48.276 56.8783 48.58 56.3503 48.796C55.8223 49.012 55.2463 49.12 54.6223 49.12ZM54.6103 47.2C54.9383 47.2 55.2383 47.14 55.5103 47.02C55.7903 46.9 56.0303 46.732 56.2303 46.516C56.4383 46.292 56.5983 46.032 56.7103 45.736C56.8223 45.44 56.8783 45.116 56.8783 44.764C56.8783 44.412 56.8223 44.088 56.7103 43.792C56.5983 43.496 56.4383 43.24 56.2303 43.024C56.0303 42.8 55.7903 42.628 55.5103 42.508C55.2383 42.388 54.9383 42.328 54.6103 42.328C54.2823 42.328 53.9783 42.388 53.6983 42.508C53.4263 42.628 53.1863 42.8 52.9783 43.024C52.7703 43.24 52.6103 43.496 52.4983 43.792C52.3943 44.088 52.3423 44.412 52.3423 44.764C52.3423 45.116 52.3943 45.444 52.4983 45.748C52.6103 46.044 52.7703 46.3 52.9783 46.516C53.1863 46.732 53.4263 46.9 53.6983 47.02C53.9783 47.14 54.2823 47.2 54.6103 47.2ZM61.986 49L59.466 40.6H61.542L62.802 45.016C62.858 45.216 62.906 45.42 62.946 45.628C62.994 45.828 63.03 46.02 63.054 46.204C63.086 46.388 63.11 46.56 63.126 46.72C63.142 46.872 63.158 47 63.174 47.104H62.91C62.958 46.808 62.998 46.544 63.03 46.312C63.07 46.08 63.114 45.864 63.162 45.664C63.21 45.456 63.27 45.24 63.342 45.016L64.59 41.692H66.222L67.446 45.016C67.542 45.28 67.622 45.528 67.686 45.76C67.75 45.992 67.798 46.216 67.83 46.432C67.87 46.64 67.902 46.848 67.926 47.056L67.686 47.092C67.702 46.948 67.714 46.816 67.722 46.696C67.73 46.568 67.738 46.448 67.746 46.336C67.762 46.216 67.778 46.092 67.794 45.964C67.81 45.836 67.834 45.696 67.866 45.544C67.898 45.384 67.942 45.204 67.998 45.004L69.246 40.6H71.274L68.754 49H67.194L65.202 44.164L65.43 44.188L63.594 49H61.986ZM75.0588 49.12C74.5068 49.12 74.0068 49.056 73.5588 48.928C73.1188 48.792 72.7268 48.6 72.3828 48.352C72.0388 48.096 71.7308 47.796 71.4588 47.452L72.6948 46.048C73.0948 46.584 73.4948 46.944 73.8948 47.128C74.3028 47.312 74.7228 47.404 75.1548 47.404C75.3708 47.404 75.5668 47.376 75.7428 47.32C75.9188 47.264 76.0548 47.184 76.1508 47.08C76.2468 46.968 76.2948 46.832 76.2948 46.672C76.2948 46.552 76.2628 46.444 76.1988 46.348C76.1428 46.252 76.0628 46.168 75.9588 46.096C75.8548 46.024 75.7308 45.96 75.5868 45.904C75.4428 45.84 75.2908 45.788 75.1308 45.748C74.9708 45.7 74.8068 45.66 74.6388 45.628C74.1748 45.524 73.7708 45.396 73.4268 45.244C73.0828 45.092 72.7948 44.908 72.5628 44.692C72.3388 44.468 72.1708 44.216 72.0588 43.936C71.9468 43.648 71.8908 43.328 71.8908 42.976C71.8908 42.6 71.9748 42.256 72.1428 41.944C72.3188 41.624 72.5508 41.352 72.8388 41.128C73.1348 40.896 73.4748 40.72 73.8588 40.6C74.2428 40.472 74.6428 40.408 75.0588 40.408C75.6108 40.408 76.0828 40.468 76.4748 40.588C76.8748 40.7 77.2148 40.864 77.4948 41.08C77.7828 41.296 78.0268 41.556 78.2268 41.86L76.9668 43.072C76.7988 42.864 76.6148 42.692 76.4148 42.556C76.2228 42.42 76.0148 42.316 75.7908 42.244C75.5748 42.172 75.3508 42.136 75.1188 42.136C74.8788 42.136 74.6708 42.168 74.4948 42.232C74.3268 42.288 74.1948 42.372 74.0988 42.484C74.0028 42.588 73.9548 42.716 73.9548 42.868C73.9548 43.004 73.9948 43.12 74.0748 43.216C74.1548 43.312 74.2628 43.4 74.3988 43.48C74.5348 43.552 74.6908 43.616 74.8668 43.672C75.0428 43.72 75.2268 43.76 75.4188 43.792C75.8588 43.88 76.2548 43.996 76.6068 44.14C76.9668 44.284 77.2748 44.46 77.5308 44.668C77.7948 44.876 77.9948 45.124 78.1308 45.412C78.2748 45.692 78.3468 46.02 78.3468 46.396C78.3468 46.98 78.2028 47.476 77.9148 47.884C77.6348 48.284 77.2468 48.592 76.7508 48.808C76.2628 49.016 75.6988 49.12 75.0588 49.12ZM79.8802 49V40.6H85.7362V42.34H81.8602V47.26H85.8562V49H79.8802ZM80.8402 45.556V43.9H85.1962V45.556H80.8402ZM87.6146 49V40.6H91.3946C91.9306 40.6 92.4146 40.716 92.8466 40.948C93.2866 41.18 93.6306 41.5 93.8786 41.908C94.1266 42.308 94.2506 42.764 94.2506 43.276C94.2506 43.804 94.1266 44.28 93.8786 44.704C93.6306 45.12 93.2906 45.448 92.8586 45.688C92.4266 45.928 91.9386 46.048 91.3946 46.048H89.5586V49H87.6146ZM92.2706 49L90.1346 45.208L92.2226 44.908L94.5986 49H92.2706ZM89.5586 44.488H91.2146C91.4226 44.488 91.6026 44.444 91.7546 44.356C91.9146 44.26 92.0346 44.128 92.1146 43.96C92.2026 43.792 92.2466 43.6 92.2466 43.384C92.2466 43.168 92.1986 42.98 92.1026 42.82C92.0066 42.652 91.8666 42.524 91.6826 42.436C91.5066 42.348 91.2906 42.304 91.0346 42.304H89.5586V44.488Z" fill="#FBFEF9"/>
</svg>
