<svg width="128" height="128" viewBox="0 0 128 128" fill="none" xmlns="http://www.w3.org/2000/svg">
<path d="M52 19H76H96C103.18 19 109 24.8203 109 32V35.2V54.4V96C109 103.18 103.18 109 96 109H76H64H52H32C24.8203 109 19 103.18 19 96V54.4V32C19 24.8203 24.8203 19 32 19H52Z" fill="#191923" stroke="#C8CED0" stroke-width="6"/>
<path d="M53.5 25H74.5H96C99.866 25 103 28.134 103 32V38.8V55.6V96C103 99.866 99.866 103 96 103H74.5H64H53.5H32C28.134 103 25 99.866 25 96V55.6V32C25 28.134 28.134 25 32 25H53.5Z" stroke="#2E2836" stroke-width="6"/>
<path d="M38.8533 48V36.8H46.6613V39.12H41.4933V45.68H46.8213V48H38.8533ZM40.1333 43.408V41.2H45.9413V43.408H40.1333ZM49.1658 48V36.8H54.2058C54.9205 36.8 55.5658 36.9547 56.1418 37.264C56.7285 37.5733 57.1871 38 57.5178 38.544C57.8485 39.0773 58.0138 39.6853 58.0138 40.368C58.0138 41.072 57.8485 41.7067 57.5178 42.272C57.1871 42.8267 56.7338 43.264 56.1578 43.584C55.5818 43.904 54.9311 44.064 54.2058 44.064H51.7578V48H49.1658ZM55.3738 48L52.5258 42.944L55.3098 42.544L58.4778 48H55.3738ZM51.7578 41.984H53.9658C54.2431 41.984 54.4831 41.9253 54.6858 41.808C54.8991 41.68 55.0591 41.504 55.1658 41.28C55.2831 41.056 55.3418 40.8 55.3418 40.512C55.3418 40.224 55.2778 39.9733 55.1498 39.76C55.0218 39.536 54.8351 39.3653 54.5898 39.248C54.3551 39.1307 54.0671 39.072 53.7258 39.072H51.7578V41.984ZM58.9762 48L63.4082 36.8H65.7122L70.1122 48H67.3602L65.2482 42.32C65.1629 42.096 65.0775 41.856 64.9922 41.6C64.9069 41.344 64.8215 41.0827 64.7362 40.816C64.6509 40.5387 64.5655 40.272 64.4802 40.016C64.4055 39.7493 64.3415 39.504 64.2882 39.28L64.7682 39.264C64.7042 39.5307 64.6295 39.792 64.5442 40.048C64.4695 40.304 64.3895 40.56 64.3042 40.816C64.2295 41.0613 64.1442 41.312 64.0482 41.568C63.9522 41.8133 63.8615 42.0693 63.7762 42.336L61.6642 48H58.9762ZM61.0882 45.856L61.9362 43.808H67.0882L67.9202 45.856H61.0882ZM75.2216 48.16C74.4856 48.16 73.8189 48.0747 73.2216 47.904C72.6349 47.7227 72.1122 47.4667 71.6536 47.136C71.1949 46.7947 70.7842 46.3947 70.4216 45.936L72.0696 44.064C72.6029 44.7787 73.1362 45.2587 73.6696 45.504C74.2136 45.7493 74.7736 45.872 75.3496 45.872C75.6376 45.872 75.8989 45.8347 76.1336 45.76C76.3682 45.6853 76.5496 45.5787 76.6776 45.44C76.8056 45.2907 76.8696 45.1093 76.8696 44.896C76.8696 44.736 76.8269 44.592 76.7416 44.464C76.6669 44.336 76.5602 44.224 76.4216 44.128C76.2829 44.032 76.1176 43.9467 75.9256 43.872C75.7336 43.7867 75.5309 43.7173 75.3176 43.664C75.1042 43.6 74.8856 43.5467 74.6616 43.504C74.0429 43.3653 73.5042 43.1947 73.0456 42.992C72.5869 42.7893 72.2029 42.544 71.8936 42.256C71.5949 41.9573 71.3709 41.6213 71.2216 41.248C71.0722 40.864 70.9976 40.4373 70.9976 39.968C70.9976 39.4667 71.1096 39.008 71.3336 38.592C71.5682 38.1653 71.8776 37.8027 72.2616 37.504C72.6562 37.1947 73.1096 36.96 73.6216 36.8C74.1336 36.6293 74.6669 36.544 75.2216 36.544C75.9576 36.544 76.5869 36.624 77.1096 36.784C77.6429 36.9333 78.0962 37.152 78.4696 37.44C78.8536 37.728 79.1789 38.0747 79.4456 38.48L77.7656 40.096C77.5416 39.8187 77.2962 39.5893 77.0296 39.408C76.7736 39.2267 76.4962 39.088 76.1976 38.992C75.9096 38.896 75.6109 38.848 75.3016 38.848C74.9816 38.848 74.7042 38.8907 74.4696 38.976C74.2456 39.0507 74.0696 39.1627 73.9416 39.312C73.8136 39.4507 73.7496 39.6213 73.7496 39.824C73.7496 40.0053 73.8029 40.16 73.9096 40.288C74.0162 40.416 74.1602 40.5333 74.3416 40.64C74.5229 40.736 74.7309 40.8213 74.9656 40.896C75.2002 40.96 75.4456 41.0133 75.7016 41.056C76.2882 41.1733 76.8162 41.328 77.2856 41.52C77.7656 41.712 78.1762 41.9467 78.5176 42.224C78.8696 42.5013 79.1362 42.832 79.3176 43.216C79.5096 43.5893 79.6056 44.0267 79.6056 44.528C79.6056 45.3067 79.4136 45.968 79.0296 46.512C78.6562 47.0453 78.1389 47.456 77.4776 47.744C76.8269 48.0213 76.0749 48.16 75.2216 48.16ZM81.6502 48V36.8H89.4582V39.12H84.2902V45.68H89.6182V48H81.6502ZM82.9302 43.408V41.2H88.7382V43.408H82.9302ZM36.441 88V65.6H52.057V70.24H41.721V83.36H52.377V88H36.441ZM39.001 78.816V74.4H50.617V78.816H39.001ZM64.3658 88.32C62.5951 88.32 61.0164 87.936 59.6298 87.168C58.2644 86.4 57.1764 85.3547 56.3658 84.032C55.5764 82.7093 55.1818 81.1947 55.1818 79.488C55.1818 77.7813 55.5764 76.2667 56.3658 74.944C57.1764 73.6213 58.2644 72.576 59.6298 71.808C61.0164 71.04 62.5951 70.656 64.3658 70.656C66.1364 70.656 67.7044 71.04 69.0698 71.808C70.4564 72.576 71.5444 73.6213 72.3338 74.944C73.1231 76.2667 73.5178 77.7813 73.5178 79.488C73.5178 81.1947 73.1231 82.7093 72.3338 84.032C71.5444 85.3547 70.4564 86.4 69.0698 87.168C67.7044 87.936 66.1364 88.32 64.3658 88.32ZM64.3658 83.904C65.1338 83.904 65.8164 83.712 66.4138 83.328C67.0111 82.944 67.4804 82.4213 67.8218 81.76C68.1631 81.0987 68.3231 80.3413 68.3018 79.488C68.3231 78.6347 68.1631 77.8773 67.8218 77.216C67.4804 76.5333 67.0111 76 66.4138 75.616C65.8164 75.232 65.1338 75.04 64.3658 75.04C63.5978 75.04 62.9044 75.232 62.2858 75.616C61.6884 76 61.2191 76.5333 60.8778 77.216C60.5364 77.8773 60.3764 78.6347 60.3978 79.488C60.3764 80.3413 60.5364 81.0987 60.8778 81.76C61.2191 82.4213 61.6884 82.944 62.2858 83.328C62.9044 83.712 63.5978 83.904 64.3658 83.904ZM77.4098 88V65.6H82.8498V88H77.4098ZM79.9378 79.424V74.88H91.5218V79.424H79.9378ZM79.9378 70.4V65.6H92.8338V70.4H79.9378Z" fill="#FBFEF9"/>
</svg>
