<svg width="128" height="128" viewBox="0 0 128 128" fill="none" xmlns="http://www.w3.org/2000/svg">
<path d="M52 25H76H96C103.18 25 109 30.8203 109 38V38.8V55.6V90C109 97.1797 103.18 103 96 103H76H64H52H32C24.8203 103 19 97.1797 19 90V55.6V38C19 30.8203 24.8203 25 32 25H52Z" fill="#191923" stroke="#C8CED0" stroke-width="6"/>
<path d="M53.5 31H74.5H96C99.866 31 103 34.134 103 38V42.4V56.8V90C103 93.866 99.866 97 96 97H74.5H64H53.5H32C28.134 97 25 93.866 25 90V56.8V38C25 34.134 28.134 31 32 31H53.5Z" stroke="#2E2836" stroke-width="6"/>
<path d="M35.2535 76V53.6H50.8695V58.24H40.5335V71.36H51.1895V76H35.2535ZM37.8135 66.816V62.4H49.4295V66.816H37.8135ZM63.3025 76.32C61.8305 76.32 60.4972 76.1493 59.3025 75.808C58.1292 75.4453 57.0838 74.9333 56.1665 74.272C55.2492 73.5893 54.4278 72.7893 53.7025 71.872L56.9985 68.128C58.0652 69.5573 59.1318 70.5173 60.1985 71.008C61.2865 71.4987 62.4065 71.744 63.5585 71.744C64.1345 71.744 64.6572 71.6693 65.1265 71.52C65.5958 71.3707 65.9585 71.1573 66.2145 70.88C66.4705 70.5813 66.5985 70.2187 66.5985 69.792C66.5985 69.472 66.5132 69.184 66.3425 68.928C66.1932 68.672 65.9798 68.448 65.7025 68.256C65.4252 68.064 65.0945 67.8933 64.7105 67.744C64.3265 67.5733 63.9212 67.4347 63.4945 67.328C63.0678 67.2 62.6305 67.0933 62.1825 67.008C60.9452 66.7307 59.8678 66.3893 58.9505 65.984C58.0332 65.5787 57.2652 65.088 56.6465 64.512C56.0492 63.9147 55.6012 63.2427 55.3025 62.496C55.0038 61.728 54.8545 60.8747 54.8545 59.936C54.8545 58.9333 55.0785 58.016 55.5265 57.184C55.9958 56.3307 56.6145 55.6053 57.3825 55.008C58.1718 54.3893 59.0785 53.92 60.1025 53.6C61.1265 53.2587 62.1932 53.088 63.3025 53.088C64.7745 53.088 66.0332 53.248 67.0785 53.568C68.1452 53.8667 69.0518 54.304 69.7985 54.88C70.5665 55.456 71.2172 56.1493 71.7505 56.96L68.3905 60.192C67.9425 59.6373 67.4518 59.1787 66.9185 58.816C66.4065 58.4533 65.8518 58.176 65.2545 57.984C64.6785 57.792 64.0812 57.696 63.4625 57.696C62.8225 57.696 62.2678 57.7813 61.7985 57.952C61.3505 58.1013 60.9985 58.3253 60.7425 58.624C60.4865 58.9013 60.3585 59.2427 60.3585 59.648C60.3585 60.0107 60.4652 60.32 60.6785 60.576C60.8918 60.832 61.1798 61.0667 61.5425 61.28C61.9052 61.472 62.3212 61.6427 62.7905 61.792C63.2598 61.92 63.7505 62.0267 64.2625 62.112C65.4358 62.3467 66.4918 62.656 67.4305 63.04C68.3905 63.424 69.2118 63.8933 69.8945 64.448C70.5985 65.0027 71.1318 65.664 71.4945 66.432C71.8785 67.1787 72.0705 68.0533 72.0705 69.056C72.0705 70.6133 71.6865 71.936 70.9185 73.024C70.1718 74.0907 69.1372 74.912 67.8145 75.488C66.5132 76.0427 65.0092 76.32 63.3025 76.32ZM86.3358 76.32C84.6504 76.32 83.0931 76.0427 81.6638 75.488C80.2558 74.912 79.0291 74.112 77.9838 73.088C76.9384 72.0427 76.1278 70.816 75.5518 69.408C74.9971 67.9787 74.7198 66.4107 74.7198 64.704C74.7198 63.04 75.0184 61.504 75.6158 60.096C76.2131 58.688 77.0344 57.472 78.0798 56.448C79.1464 55.4027 80.3944 54.592 81.8238 54.016C83.2744 53.44 84.8531 53.152 86.5598 53.152C87.6264 53.152 88.6718 53.2907 89.6958 53.568C90.7198 53.8453 91.6691 54.2613 92.5438 54.816C93.4398 55.3493 94.2078 55.9893 94.8478 56.736L91.5198 60.544C91.0718 60.0747 90.5918 59.6693 90.0798 59.328C89.5891 58.9653 89.0451 58.688 88.4478 58.496C87.8504 58.304 87.2104 58.208 86.5278 58.208C85.6744 58.208 84.8638 58.368 84.0958 58.688C83.3491 58.9867 82.6878 59.424 82.1118 60C81.5571 60.5547 81.1198 61.2373 80.7998 62.048C80.4798 62.8587 80.3198 63.7653 80.3198 64.768C80.3198 65.7493 80.4798 66.6453 80.7998 67.456C81.1198 68.2453 81.5678 68.928 82.1438 69.504C82.7198 70.08 83.4131 70.5173 84.2238 70.816C85.0558 71.1147 85.9731 71.264 86.9758 71.264C87.6584 71.264 88.3091 71.168 88.9278 70.976C89.5464 70.784 90.1118 70.528 90.6238 70.208C91.1571 69.8667 91.6264 69.4827 92.0318 69.056L94.6558 73.216C94.1224 73.8133 93.4078 74.3467 92.5118 74.816C91.6371 75.2853 90.6558 75.6587 89.5678 75.936C88.5011 76.192 87.4238 76.32 86.3358 76.32Z" fill="#FBFEF9"/>
</svg>
