<svg width="128" height="128" viewBox="0 0 128 128" fill="none" xmlns="http://www.w3.org/2000/svg">
<path d="M52 19H76H96C103.18 19 109 24.8203 109 32V35.2V54.4V96C109 103.18 103.18 109 96 109H76H64H52H32C24.8203 109 19 103.18 19 96V54.4V32C19 24.8203 24.8203 19 32 19H52Z" fill="#191923" stroke="#C8CED0" stroke-width="6"/>
<path d="M53.5 25H74.5H96C99.866 25 103 28.134 103 32V38.8V55.6V96C103 99.866 99.866 103 96 103H74.5H64H53.5H32C28.134 103 25 99.866 25 96V55.6V32C25 28.134 28.134 25 32 25H53.5Z" stroke="#2E2836" stroke-width="6"/>
<path d="M35.2097 73V56.2H42.4577C43.5137 56.2 44.4497 56.44 45.2657 56.92C46.0977 57.4 46.7537 58.056 47.2337 58.888C47.7297 59.72 47.9777 60.656 47.9777 61.696C47.9777 62.784 47.7297 63.76 47.2337 64.624C46.7537 65.472 46.0977 66.144 45.2657 66.64C44.4497 67.136 43.5137 67.384 42.4577 67.384H39.2897V73H35.2097ZM39.2177 63.808H41.8817C42.2337 63.808 42.5537 63.72 42.8417 63.544C43.1297 63.368 43.3617 63.128 43.5377 62.824C43.7137 62.52 43.8017 62.168 43.8017 61.768C43.8017 61.352 43.7137 61 43.5377 60.712C43.3617 60.424 43.1297 60.2 42.8417 60.04C42.5537 59.88 42.2337 59.8 41.8817 59.8H39.2177V63.808ZM51.1003 73V56.2H55.1803V69.4H62.6683V73H51.1003ZM63.5893 73L70.2373 56.2H73.6933L80.2933 73H76.1653L72.9973 64.48C72.8693 64.144 72.7413 63.784 72.6133 63.4C72.4853 63.016 72.3573 62.624 72.2293 62.224C72.1013 61.808 71.9733 61.408 71.8453 61.024C71.7333 60.624 71.6373 60.256 71.5573 59.92L72.2773 59.896C72.1813 60.296 72.0693 60.688 71.9413 61.072C71.8293 61.456 71.7093 61.84 71.5813 62.224C71.4693 62.592 71.3413 62.968 71.1973 63.352C71.0533 63.72 70.9173 64.104 70.7893 64.504L67.6213 73H63.5893ZM66.7573 69.784L68.0293 66.712H75.7573L77.0053 69.784H66.7573ZM84.8115 73V64.624L84.9795 65.8L78.1875 56.2H82.8195L88.0035 63.64L85.8915 63.568L90.5715 56.2H95.0595L88.5555 66.064L88.9155 64.432V73H84.8115Z" fill="#FBFEF9"/>
</svg>
