<svg width="128" height="128" viewBox="0 0 128 128" fill="none" xmlns="http://www.w3.org/2000/svg">
<path d="M52 19H76H96C103.18 19 109 24.8203 109 32V35.2V54.4V96C109 103.18 103.18 109 96 109H76H64H52H32C24.8203 109 19 103.18 19 96V54.4V32C19 24.8203 24.8203 19 32 19H52Z" fill="#191923" stroke="#C8CED0" stroke-width="6"/>
<path d="M53.5 25H74.5H96C99.866 25 103 28.134 103 32V38.8V55.6V96C103 99.866 99.866 103 96 103H74.5H64H53.5H32C28.134 103 25 99.866 25 96V55.6V32C25 28.134 28.134 25 32 25H53.5Z" stroke="#2E2836" stroke-width="6"/>
<path d="M39.9691 73.24C38.8651 73.24 37.8651 73.112 36.9691 72.856C36.0891 72.584 35.3051 72.2 34.6171 71.704C33.9291 71.192 33.3131 70.592 32.7691 69.904L35.2411 67.096C36.0411 68.168 36.8411 68.888 37.6411 69.256C38.4571 69.624 39.2971 69.808 40.1611 69.808C40.5931 69.808 40.9851 69.752 41.3371 69.64C41.6891 69.528 41.9611 69.368 42.1531 69.16C42.3451 68.936 42.4411 68.664 42.4411 68.344C42.4411 68.104 42.3771 67.888 42.2491 67.696C42.1371 67.504 41.9771 67.336 41.7691 67.192C41.5611 67.048 41.3131 66.92 41.0251 66.808C40.7371 66.68 40.4331 66.576 40.1131 66.496C39.7931 66.4 39.4651 66.32 39.1291 66.256C38.2011 66.048 37.3931 65.792 36.7051 65.488C36.0171 65.184 35.4411 64.816 34.9771 64.384C34.5291 63.936 34.1931 63.432 33.9691 62.872C33.7451 62.296 33.6331 61.656 33.6331 60.952C33.6331 60.2 33.8011 59.512 34.1371 58.888C34.4891 58.248 34.9531 57.704 35.5291 57.256C36.1211 56.792 36.8011 56.44 37.5691 56.2C38.3371 55.944 39.1371 55.816 39.9691 55.816C41.0731 55.816 42.0171 55.936 42.8011 56.176C43.6011 56.4 44.2811 56.728 44.8411 57.16C45.4171 57.592 45.9051 58.112 46.3051 58.72L43.7851 61.144C43.4491 60.728 43.0811 60.384 42.6811 60.112C42.2971 59.84 41.8811 59.632 41.4331 59.488C41.0011 59.344 40.5531 59.272 40.0891 59.272C39.6091 59.272 39.1931 59.336 38.8411 59.464C38.5051 59.576 38.2411 59.744 38.0491 59.968C37.8571 60.176 37.7611 60.432 37.7611 60.736C37.7611 61.008 37.8411 61.24 38.0011 61.432C38.1611 61.624 38.3771 61.8 38.6491 61.96C38.9211 62.104 39.2331 62.232 39.5851 62.344C39.9371 62.44 40.3051 62.52 40.6891 62.584C41.5691 62.76 42.3611 62.992 43.0651 63.28C43.7851 63.568 44.4011 63.92 44.9131 64.336C45.4411 64.752 45.8411 65.248 46.1131 65.824C46.4011 66.384 46.5451 67.04 46.5451 67.792C46.5451 68.96 46.2571 69.952 45.6811 70.768C45.1211 71.568 44.3451 72.184 43.3531 72.616C42.3771 73.032 41.2491 73.24 39.9691 73.24ZM49.612 73V56.2H61.324V59.68H53.572V69.52H61.564V73H49.612ZM51.532 66.112V62.8H60.244V66.112H51.532ZM65.0808 73V56.2H72.3288C73.3848 56.2 74.3208 56.44 75.1368 56.92C75.9688 57.4 76.6248 58.056 77.1048 58.888C77.6008 59.72 77.8488 60.656 77.8488 61.696C77.8488 62.784 77.6008 63.76 77.1048 64.624C76.6248 65.472 75.9688 66.144 75.1368 66.64C74.3208 67.136 73.3848 67.384 72.3288 67.384H69.1608V73H65.0808ZM69.0888 63.808H71.7528C72.1048 63.808 72.4248 63.72 72.7128 63.544C73.0008 63.368 73.2328 63.128 73.4088 62.824C73.5848 62.52 73.6728 62.168 73.6728 61.768C73.6728 61.352 73.5848 61 73.4088 60.712C73.2328 60.424 73.0008 60.2 72.7128 60.04C72.4248 59.88 72.1048 59.8 71.7528 59.8H69.0888V63.808ZM80.9714 73V56.2H88.5314C89.6034 56.2 90.5714 56.432 91.4354 56.896C92.3154 57.36 93.0034 58 93.4994 58.816C93.9954 59.616 94.2434 60.528 94.2434 61.552C94.2434 62.608 93.9954 63.56 93.4994 64.408C93.0034 65.24 92.3234 65.896 91.4594 66.376C90.5954 66.856 89.6194 67.096 88.5314 67.096H84.8594V73H80.9714ZM90.2834 73L86.0114 65.416L90.1874 64.816L94.9394 73H90.2834ZM84.8594 63.976H88.1714C88.5874 63.976 88.9474 63.888 89.2514 63.712C89.5714 63.52 89.8114 63.256 89.9714 62.92C90.1474 62.584 90.2354 62.2 90.2354 61.768C90.2354 61.336 90.1394 60.96 89.9474 60.64C89.7554 60.304 89.4754 60.048 89.1074 59.872C88.7554 59.696 88.3234 59.608 87.8114 59.608H84.8594V63.976Z" fill="#FBFEF9"/>
</svg>
