<svg width="128" height="128" viewBox="0 0 128 128" fill="none" xmlns="http://www.w3.org/2000/svg">
<path d="M52 25H76H96C103.18 25 109 30.8203 109 38V38.8V55.6V90C109 97.1797 103.18 103 96 103H76H64H52H32C24.8203 103 19 97.1797 19 90V55.6V38C19 30.8203 24.8203 25 32 25H52Z" stroke="#C8CED0" stroke-width="6"/>
<path d="M41.3714 82V48.4H47.6114V82H41.3714ZM44.2514 68.224V62.56H61.5794V68.224H44.2514ZM44.2514 54.16V48.4H63.6434V54.16H44.2514ZM76.3825 79.648V52.384L78.1585 54.688L71.3425 58.144L69.9505 52.672L79.1185 47.92H82.5745V79.648H76.3825ZM70.7665 82V76.24H88.3345V82H70.7665Z" fill="#FBFEF9"/>
</svg>
