<svg width="128" height="128" viewBox="0 0 128 128" fill="none" xmlns="http://www.w3.org/2000/svg">
<path d="M52 25H76H96C103.18 25 109 30.8203 109 38V38.8V55.6V90C109 97.1797 103.18 103 96 103H76H64H52H32C24.8203 103 19 97.1797 19 90V55.6V38C19 30.8203 24.8203 25 32 25H52Z" stroke="#C8CED0" stroke-width="6"/>
<path d="M32.5256 79V51H37.7256V79H32.5256ZM34.9256 67.52V62.8H49.3656V67.52H34.9256ZM34.9256 55.8V51H51.0856V55.8H34.9256ZM61.7016 77.04V54.32L63.1816 56.24L57.5016 59.12L56.3416 54.56L63.9816 50.6H66.8616V77.04H61.7016ZM57.0216 79V74.2H71.6616V79H57.0216ZM86.6 79.4C84.3333 79.4 82.3867 78.8267 80.76 77.68C79.16 76.5067 77.92 74.8533 77.04 72.72C76.1867 70.56 75.76 67.9867 75.76 65C75.76 62.0133 76.1867 59.4533 77.04 57.32C77.92 55.16 79.16 53.5067 80.76 52.36C82.3867 51.1867 84.3333 50.6 86.6 50.6C88.8667 50.6 90.8133 51.1867 92.44 52.36C94.0667 53.5067 95.3067 55.16 96.16 57.32C97.04 59.4533 97.48 62.0133 97.48 65C97.48 67.9867 97.04 70.56 96.16 72.72C95.3067 74.8533 94.0667 76.5067 92.44 77.68C90.8133 78.8267 88.8667 79.4 86.6 79.4ZM86.6 74.84C88.4667 74.84 89.9067 73.9867 90.92 72.28C91.96 70.5467 92.48 68.12 92.48 65C92.48 61.8533 91.96 59.4133 90.92 57.68C89.9067 55.9467 88.4667 55.08 86.6 55.08C84.7333 55.08 83.28 55.9467 82.24 57.68C81.2267 59.4133 80.72 61.8533 80.72 65C80.72 68.12 81.2267 70.5467 82.24 72.28C83.28 73.9867 84.7333 74.84 86.6 74.84Z" fill="#FBFEF9"/>
</svg>
