<svg width="128" height="128" viewBox="0 0 128 128" fill="none" xmlns="http://www.w3.org/2000/svg">
<path d="M52 25H76H96C103.18 25 109 30.8203 109 38V38.8V55.6V90C109 97.1797 103.18 103 96 103H76H64H52H32C24.8203 103 19 97.1797 19 90V55.6V38C19 30.8203 24.8203 25 32 25H52Z" stroke="#C8CED0" stroke-width="6"/>
<path d="M34.6936 79V51H39.8936V79H34.6936ZM37.0936 67.52V62.8H51.5336V67.52H37.0936ZM37.0936 55.8V51H53.2536V55.8H37.0936ZM63.8695 77.04V54.32L65.3495 56.24L59.6695 59.12L58.5095 54.56L66.1495 50.6H69.0295V77.04H63.8695ZM59.1895 79V74.2H73.8295V79H59.1895ZM84.768 77.04V54.32L86.248 56.24L80.568 59.12L79.408 54.56L87.048 50.6H89.928V77.04H84.768ZM80.088 79V74.2H94.728V79H80.088Z" fill="#FBFEF9"/>
</svg>
