<svg width="128" height="128" viewBox="0 0 128 128" fill="none" xmlns="http://www.w3.org/2000/svg">
<path d="M52 25H76H96C103.18 25 109 30.8203 109 38V38.8V55.6V90C109 97.1797 103.18 103 96 103H76H64H52H32C24.8203 103 19 97.1797 19 90V55.6V38C19 30.8203 24.8203 25 32 25H52Z" stroke="#C8CED0" stroke-width="6"/>
<path d="M32.4475 79V51H37.6475V79H32.4475ZM34.8475 67.52V62.8H49.2875V67.52H34.8475ZM34.8475 55.8V51H51.0075V55.8H34.8475ZM61.6234 77.04V54.32L63.1034 56.24L57.4234 59.12L56.2634 54.56L63.9034 50.6H66.7834V77.04H61.6234ZM56.9434 79V74.2H71.5834V79H56.9434ZM87.9619 79V56.4L89.8819 56.6L80.3619 68.24L79.9219 67.52H97.7219V72.04H77.1219L74.9619 67.88L88.8819 50.92H92.9619V79H87.9619Z" fill="#FBFEF9"/>
</svg>
