<svg width="128" height="128" viewBox="0 0 128 128" fill="none" xmlns="http://www.w3.org/2000/svg">
<path d="M52 25H76H96C103.18 25 109 30.8203 109 38V38.8V55.6V90C109 97.1797 103.18 103 96 103H76H64H52H32C24.8203 103 19 97.1797 19 90V55.6V38C19 30.8203 24.8203 25 32 25H52Z" stroke="#C8CED0" stroke-width="6"/>
<path d="M33.9514 79V51H39.1514V79H33.9514ZM36.3514 67.52V62.8H50.7914V67.52H36.3514ZM36.3514 55.8V51H52.5114V55.8H36.3514ZM63.1273 77.04V54.32L64.6073 56.24L58.9273 59.12L57.7673 54.56L65.4073 50.6H68.2873V77.04H63.1273ZM58.4473 79V74.2H73.0873V79H58.4473ZM84.2658 79L84.1058 78.6L92.5858 60.92L93.0658 63.92C92.6658 64.7733 92.1724 65.5333 91.5858 66.2C91.0258 66.8667 90.3724 67.4533 89.6258 67.96C88.9058 68.44 88.1591 68.8133 87.3858 69.08C86.6124 69.32 85.8391 69.44 85.0658 69.44C83.5458 69.44 82.1458 69.04 80.8658 68.24C79.5858 67.4133 78.5591 66.3333 77.7858 65C77.0124 63.64 76.6258 62.16 76.6258 60.56C76.6258 58.6667 77.0658 56.96 77.9458 55.44C78.8258 53.8933 80.0124 52.68 81.5058 51.8C83.0258 50.8933 84.7324 50.44 86.6258 50.44C87.9858 50.44 89.2658 50.6933 90.4658 51.2C91.6924 51.68 92.7458 52.36 93.6258 53.24C94.5324 54.12 95.2391 55.1333 95.7458 56.28C96.2791 57.4267 96.5458 58.64 96.5458 59.92C96.5458 60.6933 96.4658 61.4933 96.3058 62.32C96.1724 63.12 95.9458 64 95.6258 64.96C95.3058 65.92 94.8924 66.9733 94.3858 68.12C93.9058 69.2667 93.3191 70.5733 92.6258 72.04L89.2258 79H84.2658ZM86.2258 64.96C87.1858 64.96 88.0524 64.7467 88.8258 64.32C89.5991 63.8667 90.1991 63.28 90.6258 62.56C91.0524 61.84 91.2658 61.0133 91.2658 60.08C91.2658 59.12 91.0524 58.2533 90.6258 57.48C90.1991 56.7067 89.6124 56.1067 88.8658 55.68C88.1191 55.2267 87.2658 55 86.3058 55C85.3991 55 84.5991 55.2133 83.9058 55.64C83.2124 56.0667 82.6524 56.6667 82.2258 57.44C81.8258 58.1867 81.6258 59.0667 81.6258 60.08C81.6258 60.9333 81.8258 61.7333 82.2258 62.48C82.6524 63.2267 83.2124 63.8267 83.9058 64.28C84.6258 64.7333 85.3991 64.96 86.2258 64.96Z" fill="#FBFEF9"/>
</svg>
