<svg width="128" height="128" viewBox="0 0 128 128" fill="none" xmlns="http://www.w3.org/2000/svg">
<path d="M52 25H76H96C103.18 25 109 30.8203 109 38V38.8V55.6V90C109 97.1797 103.18 103 96 103H76H64H52H32C24.8203 103 19 97.1797 19 90V55.6V38C19 30.8203 24.8203 25 32 25H52Z" stroke="#C8CED0" stroke-width="6"/>
<path d="M34.1858 79V51H39.3858V79H34.1858ZM36.5858 67.52V62.8H51.0258V67.52H36.5858ZM36.5858 55.8V51H52.7458V55.8H36.5858ZM58.0017 79L56.6817 75.72L65.0817 66.32C65.5617 65.84 66.0551 65.2933 66.5617 64.68C67.0684 64.04 67.5484 63.3867 68.0017 62.72C68.4817 62.0267 68.8684 61.36 69.1617 60.72C69.4551 60.0533 69.6017 59.44 69.6017 58.88C69.6017 58.16 69.4417 57.5333 69.1217 57C68.8284 56.4667 68.4017 56.0533 67.8417 55.76C67.2817 55.4667 66.5884 55.32 65.7617 55.32C65.0417 55.32 64.3351 55.5333 63.6417 55.96C62.9751 56.36 62.3484 56.9467 61.7617 57.72C61.2017 58.4667 60.7351 59.36 60.3617 60.4L56.4417 58.08C56.9217 56.5333 57.6417 55.2 58.6017 54.08C59.5884 52.9333 60.7351 52.0533 62.0417 51.44C63.3751 50.8267 64.8151 50.52 66.3617 50.52C67.9617 50.52 69.3884 50.8533 70.6417 51.52C71.8951 52.1867 72.8817 53.1067 73.6017 54.28C74.3484 55.4533 74.7217 56.8267 74.7217 58.4C74.7217 58.9867 74.6551 59.6 74.5217 60.24C74.3884 60.8533 74.1751 61.5067 73.8817 62.2C73.6151 62.8667 73.2551 63.5733 72.8017 64.32C72.3484 65.04 71.8017 65.8 71.1617 66.6C70.5484 67.4 69.8417 68.24 69.0417 69.12L62.6817 76.04L61.8817 74.2H75.7217V79H58.0017ZM85.2758 77.04V54.32L86.7558 56.24L81.0758 59.12L79.9158 54.56L87.5558 50.6H90.4358V77.04H85.2758ZM80.5958 79V74.2H95.2358V79H80.5958Z" fill="#FBFEF9"/>
</svg>
