<svg width="128" height="128" viewBox="0 0 128 128" fill="none" xmlns="http://www.w3.org/2000/svg">
<path d="M52 25H76H96C103.18 25 109 30.8203 109 38V38.8V55.6V90C109 97.1797 103.18 103 96 103H76H64H52H32C24.8203 103 19 97.1797 19 90V55.6V38C19 30.8203 24.8203 25 32 25H52Z" stroke="#C8CED0" stroke-width="6"/>
<path d="M38.6761 82V48.4H44.9161V82H38.6761ZM41.5561 68.224V62.56H58.8841V68.224H41.5561ZM41.5561 54.16V48.4H60.9481V54.16H41.5561ZM80.2152 82V54.88L82.5192 55.12L71.0952 69.088L70.5672 68.224H91.9272V73.648H67.2072L64.6152 68.656L81.3192 48.304H86.2152V82H80.2152Z" fill="#FBFEF9"/>
</svg>
