<svg width="128" height="128" viewBox="0 0 128 128" fill="none" xmlns="http://www.w3.org/2000/svg">
<path d="M52 25H76H96C103.18 25 109 30.8203 109 38V38.8V55.6V90C109 97.1797 103.18 103 96 103H76H64H52H32C24.8203 103 19 97.1797 19 90V55.6V38C19 30.8203 24.8203 25 32 25H52Z" stroke="#C8CED0" stroke-width="6"/>
<path d="M40.0354 82V48.4H46.2754V82H40.0354ZM42.9154 68.224V62.56H60.2434V68.224H42.9154ZM42.9154 54.16V48.4H62.3074V54.16H42.9154ZM77.4946 82.336C75.1586 82.336 73.0466 81.84 71.1586 80.848C69.2706 79.824 67.7026 78.352 66.4546 76.432L69.9106 72.688C71.3186 74.256 72.5826 75.344 73.7026 75.952C74.8226 76.528 76.0546 76.816 77.3986 76.816C78.6146 76.816 79.7026 76.56 80.6626 76.048C81.6226 75.504 82.3906 74.784 82.9666 73.888C83.5426 72.96 83.8306 71.952 83.8306 70.864C83.8306 69.68 83.5586 68.64 83.0146 67.744C82.4706 66.816 81.7346 66.08 80.8066 65.536C79.8786 64.992 78.8226 64.72 77.6386 64.72C76.9986 64.72 76.3906 64.768 75.8146 64.864C75.2386 64.96 74.5666 65.152 73.7986 65.44C73.0626 65.728 72.1186 66.176 70.9666 66.784L67.9906 62.752L69.9586 48.304H88.5346V53.824H73.4626L74.8546 52.288L73.2706 62.944L71.4946 61.696C71.9106 61.312 72.5186 60.944 73.3186 60.592C74.1506 60.24 75.0466 59.952 76.0066 59.728C76.9666 59.504 77.9106 59.392 78.8386 59.392C80.9186 59.392 82.7746 59.872 84.4066 60.832C86.0386 61.792 87.3346 63.12 88.2946 64.816C89.2546 66.48 89.7346 68.4 89.7346 70.576C89.7346 72.784 89.1906 74.784 88.1026 76.576C87.0466 78.336 85.5906 79.744 83.7346 80.8C81.8786 81.824 79.7986 82.336 77.4946 82.336Z" fill="#FBFEF9"/>
</svg>
