<svg width="128" height="128" viewBox="0 0 128 128" fill="none" xmlns="http://www.w3.org/2000/svg">
<path d="M52 25H76H96C103.18 25 109 30.8203 109 38V38.8V55.6V90C109 97.1797 103.18 103 96 103H76H64H52H32C24.8203 103 19 97.1797 19 90V55.6V38C19 30.8203 24.8203 25 32 25H52Z" stroke="#C8CED0" stroke-width="6"/>
<path d="M40.3401 82V48.4H46.5801V82H40.3401ZM43.2201 68.224V62.56H60.5481V68.224H43.2201ZM43.2201 54.16V48.4H62.6121V54.16H43.2201ZM78.8073 82C77.1113 82 75.5273 81.696 74.0553 81.088C72.6153 80.48 71.3513 79.648 70.2633 78.592C69.2073 77.504 68.3753 76.24 67.7673 74.8C67.1593 73.36 66.8553 71.776 66.8553 70.048C66.8553 69.088 66.9673 68.064 67.1913 66.976C67.4473 65.888 67.8153 64.736 68.2953 63.52C68.8073 62.272 69.3993 60.976 70.0713 59.632C70.7433 58.288 71.5273 56.88 72.4233 55.408L76.8873 47.824H82.8393L83.0313 48.304L77.3193 57.712C76.3913 59.248 75.5753 60.704 74.8713 62.08C74.1673 63.424 73.5593 64.72 73.0473 65.968C72.5673 67.184 72.1673 68.368 71.8473 69.52L70.5513 65.152C71.0313 64.128 71.6233 63.2 72.3273 62.368C73.0313 61.536 73.8153 60.832 74.6793 60.256C75.5433 59.68 76.4393 59.248 77.3672 58.96C78.3273 58.672 79.3033 58.528 80.2953 58.528C82.1513 58.528 83.8633 59.04 85.4313 60.064C86.9993 61.056 88.2473 62.384 89.1753 64.048C90.1353 65.712 90.6153 67.536 90.6153 69.52C90.6153 71.92 90.1033 74.064 89.0793 75.952C88.0873 77.808 86.6953 79.28 84.9033 80.368C83.1113 81.456 81.0793 82 78.8073 82ZM78.8553 76.528C80.0073 76.528 81.0313 76.256 81.9273 75.712C82.8553 75.168 83.5753 74.416 84.0873 73.456C84.5993 72.464 84.8553 71.328 84.8553 70.048C84.8553 68.96 84.5833 67.952 84.0393 67.024C83.5273 66.064 82.8233 65.296 81.9273 64.72C81.0313 64.112 80.0233 63.808 78.9033 63.808C77.6873 63.808 76.5993 64.096 75.6393 64.672C74.7113 65.216 73.9753 65.968 73.4313 66.928C72.9193 67.856 72.6633 68.896 72.6633 70.048C72.6633 71.264 72.9193 72.368 73.4313 73.36C73.9753 74.32 74.7113 75.088 75.6393 75.664C76.5673 76.24 77.6393 76.528 78.8553 76.528Z" fill="#FBFEF9"/>
</svg>
