<svg width="128" height="128" viewBox="0 0 128 128" fill="none" xmlns="http://www.w3.org/2000/svg">
<path d="M52 25H76H96C103.18 25 109 30.8203 109 38V38.8V55.6V90C109 97.1797 103.18 103 96 103H76H64H52H32C24.8203 103 19 97.1797 19 90V55.6V38C19 30.8203 24.8203 25 32 25H52Z" stroke="#C8CED0" stroke-width="6"/>
<path d="M40.8089 82V48.4H47.0489V82H40.8089ZM43.6889 68.224V62.56H61.0169V68.224H43.6889ZM43.6889 54.16V48.4H63.0809V54.16H43.6889ZM70.396 82L84.172 51.568L85.324 53.92H68.14V48.304H89.308L90.028 51.808L76.876 82H70.396Z" fill="#FBFEF9"/>
</svg>
