<svg width="128" height="128" viewBox="0 0 128 128" fill="none" xmlns="http://www.w3.org/2000/svg">
<path d="M52 25H76H96C103.18 25 109 30.8203 109 38V38.8V55.6V90C109 97.1797 103.18 103 96 103H76H64H52H32C24.8203 103 19 97.1797 19 90V55.6V38C19 30.8203 24.8203 25 32 25H52Z" stroke="#C8CED0" stroke-width="6"/>
<path d="M39.8479 82V48.4H46.0879V82H39.8479ZM42.7279 68.224V62.56H60.0559V68.224H42.7279ZM42.7279 54.16V48.4H62.1199V54.16H42.7279ZM78.5551 82.144C76.4111 82.144 74.4431 81.712 72.6511 80.848C70.8911 79.952 69.4831 78.768 68.4271 77.296C67.3711 75.792 66.8431 74.128 66.8431 72.304C66.8431 71.216 66.9871 70.208 67.2751 69.28C67.5951 68.352 68.0431 67.52 68.6191 66.784C69.2271 66.048 69.9471 65.392 70.7791 64.816C71.6431 64.208 72.6191 63.68 73.7071 63.232L73.3231 64.576C72.4911 64.224 71.7231 63.808 71.0191 63.328C70.3471 62.848 69.7551 62.304 69.2431 61.696C68.7631 61.056 68.3951 60.384 68.1391 59.68C67.8831 58.944 67.7551 58.176 67.7551 57.376C67.7551 55.648 68.2351 54.096 69.1951 52.72C70.1871 51.344 71.4991 50.256 73.1311 49.456C74.7631 48.624 76.5711 48.208 78.5551 48.208C80.5711 48.208 82.3951 48.624 84.0271 49.456C85.6591 50.256 86.9551 51.344 87.9151 52.72C88.9071 54.096 89.4031 55.648 89.4031 57.376C89.4031 58.176 89.2751 58.944 89.0191 59.68C88.7631 60.384 88.3951 61.04 87.9151 61.648C87.4671 62.224 86.8911 62.768 86.1871 63.28C85.4831 63.76 84.6671 64.192 83.7391 64.576L83.4991 63.424C84.5231 63.776 85.4511 64.24 86.2831 64.816C87.1151 65.392 87.8351 66.064 88.4431 66.832C89.0511 67.6 89.5151 68.448 89.8351 69.376C90.1871 70.304 90.3631 71.28 90.3631 72.304C90.3631 74.16 89.8351 75.84 88.7791 77.344C87.7231 78.816 86.2991 79.984 84.5071 80.848C82.7471 81.712 80.7631 82.144 78.5551 82.144ZM78.5551 76.768C79.6431 76.768 80.6191 76.56 81.4831 76.144C82.3471 75.728 83.0191 75.168 83.4991 74.464C84.0111 73.76 84.2671 72.944 84.2671 72.016C84.2671 71.024 84.0111 70.16 83.4991 69.424C83.0191 68.656 82.3471 68.064 81.4831 67.648C80.6191 67.2 79.6431 66.976 78.5551 66.976C77.4991 66.976 76.5391 67.2 75.6751 67.648C74.8431 68.064 74.1711 68.656 73.6591 69.424C73.1471 70.16 72.8911 71.024 72.8911 72.016C72.8911 72.912 73.1471 73.712 73.6591 74.416C74.1711 75.12 74.8431 75.696 75.6751 76.144C76.5391 76.56 77.4991 76.768 78.5551 76.768ZM78.5551 61.696C79.5151 61.696 80.3631 61.52 81.0991 61.168C81.8671 60.816 82.4591 60.336 82.8751 59.728C83.2911 59.12 83.4991 58.416 83.4991 57.616C83.4991 56.784 83.2911 56.064 82.8751 55.456C82.4591 54.816 81.8671 54.32 81.0991 53.968C80.3631 53.584 79.5151 53.392 78.5551 53.392C77.6271 53.392 76.7791 53.584 76.0111 53.968C75.2751 54.32 74.6991 54.816 74.2831 55.456C73.8671 56.064 73.6591 56.784 73.6591 57.616C73.6591 58.416 73.8671 59.12 74.2831 59.728C74.6991 60.336 75.2751 60.816 76.0111 61.168C76.7791 61.52 77.6271 61.696 78.5551 61.696Z" fill="#FBFEF9"/>
</svg>
