<svg width="128" height="128" viewBox="0 0 128 128" fill="none" xmlns="http://www.w3.org/2000/svg">
<path d="M52 25H76H96C103.18 25 109 30.8203 109 38V38.8V55.6V90C109 97.1797 103.18 103 96 103H76H64H52H32C24.8203 103 19 97.1797 19 90V55.6V38C19 30.8203 24.8203 25 32 25H52Z" stroke="#C8CED0" stroke-width="6"/>
<path d="M40.4808 82V48.4H46.7208V82H40.4808ZM43.3608 68.224V62.56H60.6888V68.224H43.3608ZM43.3608 54.16V48.4H62.7528V54.16H43.3608ZM75.7799 82L75.5879 81.52L85.7639 60.304L86.3399 63.904C85.8599 64.928 85.2679 65.84 84.5639 66.64C83.8919 67.44 83.1079 68.144 82.2119 68.752C81.3479 69.328 80.4519 69.776 79.5239 70.096C78.5959 70.384 77.6679 70.528 76.7399 70.528C74.9159 70.528 73.2359 70.048 71.6999 69.088C70.1639 68.096 68.9319 66.8 68.0039 65.2C67.0759 63.568 66.6119 61.792 66.6119 59.872C66.6119 57.6 67.1399 55.552 68.1959 53.728C69.2519 51.872 70.6759 50.416 72.4679 49.36C74.2919 48.272 76.3399 47.728 78.6119 47.728C80.2439 47.728 81.7799 48.032 83.2199 48.64C84.6919 49.216 85.9559 50.032 87.0119 51.088C88.0999 52.144 88.9479 53.36 89.5559 54.736C90.1959 56.112 90.5159 57.568 90.5159 59.104C90.5159 60.032 90.4199 60.992 90.2279 61.984C90.0679 62.944 89.7959 64 89.4119 65.152C89.0279 66.304 88.5319 67.568 87.9239 68.944C87.3479 70.32 86.6439 71.888 85.8119 73.648L81.7319 82H75.7799ZM78.1319 65.152C79.2839 65.152 80.3239 64.896 81.2519 64.384C82.1799 63.84 82.8999 63.136 83.4119 62.272C83.9239 61.408 84.1799 60.416 84.1799 59.296C84.1799 58.144 83.9239 57.104 83.4119 56.176C82.8999 55.248 82.1959 54.528 81.2999 54.016C80.4039 53.472 79.3799 53.2 78.2279 53.2C77.1399 53.2 76.1799 53.456 75.3479 53.968C74.5159 54.48 73.8439 55.2 73.3319 56.128C72.8519 57.024 72.6119 58.08 72.6119 59.296C72.6119 60.32 72.8519 61.28 73.3319 62.176C73.8439 63.072 74.5159 63.792 75.3479 64.336C76.2119 64.88 77.1399 65.152 78.1319 65.152Z" fill="#FBFEF9"/>
</svg>
