<svg width="128" height="128" viewBox="0 0 128 128" fill="none" xmlns="http://www.w3.org/2000/svg">
<g clip-path="url(#clip0_109_3822)">
<circle cx="64" cy="24" r="21" stroke="#FFBE0B" stroke-width="6"/>
<circle cx="104" cy="64" r="21" stroke="#FC3340" stroke-width="6"/>
<circle cx="64" cy="104" r="21" fill="#32936F" stroke="#191923" stroke-width="6"/>
<circle cx="24" cy="64" r="21" stroke="#3599F1" stroke-width="6"/>
<path d="M53.3389 113L61.7869 96.2H66.2509L74.6509 113H69.4189L64.9309 104.216C64.7389 103.832 64.5629 103.48 64.4029 103.16C64.2589 102.824 64.1309 102.504 64.0189 102.2C63.9069 101.896 63.8029 101.608 63.7069 101.336C63.6109 101.048 63.5229 100.768 63.4429 100.496H64.4749C64.3949 100.784 64.2989 101.08 64.1869 101.384C64.0909 101.672 63.9789 101.968 63.8509 102.272C63.7229 102.576 63.5789 102.888 63.4189 103.208C63.2749 103.528 63.1149 103.864 62.9389 104.216L58.4749 113H53.3389ZM57.3949 110.744L58.9789 107.216H69.1069L69.7789 110.744H57.3949Z" fill="#FBFEF9"/>
<path d="M95.9522 73V56.2H105.528C107 56.2 108.24 56.368 109.248 56.704C110.272 57.04 111.04 57.512 111.552 58.12C112.064 58.728 112.32 59.464 112.32 60.328C112.32 61.256 112.04 62.056 111.48 62.728C110.92 63.384 110.072 63.84 108.936 64.096L109.056 63.664C109.776 63.824 110.448 64.08 111.072 64.432C111.712 64.768 112.224 65.224 112.608 65.8C113.008 66.376 113.208 67.08 113.208 67.912C113.208 68.936 112.992 69.776 112.56 70.432C112.128 71.088 111.56 71.608 110.856 71.992C110.152 72.36 109.384 72.624 108.552 72.784C107.736 72.928 106.936 73 106.152 73H95.9522ZM99.7922 69.592H106.248C106.808 69.592 107.304 69.528 107.736 69.4C108.184 69.272 108.536 69.072 108.792 68.8C109.064 68.512 109.2 68.152 109.2 67.72C109.2 67.224 109.032 66.848 108.696 66.592C108.36 66.32 107.952 66.136 107.472 66.04C106.992 65.928 106.544 65.872 106.128 65.872H99.7922V69.592ZM99.7922 62.8H105.576C106.104 62.8 106.568 62.736 106.968 62.608C107.384 62.48 107.704 62.296 107.928 62.056C108.168 61.816 108.288 61.512 108.288 61.144C108.288 60.584 108.008 60.192 107.448 59.968C106.904 59.728 106.232 59.608 105.432 59.608H99.7922V62.8Z" fill="#FC3340"/>
<path d="M62.1849 33V25.488L62.6649 27.336L53.6409 16.2H58.7529L65.3049 24.672H63.2409L69.6249 16.2H74.3529L66.1689 26.688L66.2889 25.296V33H62.1849Z" fill="#FFBE0B"/>
<path d="M28.9389 73L22.2669 65.416L13.9389 56.2H19.1469L25.5549 63.472L34.1709 73H28.9389ZM13.8189 73L21.8109 63.856L24.9549 65.752L18.8829 73H13.8189ZM26.1309 65.2L23.0349 63.376L28.8189 56.2H33.9069L26.1309 65.2Z" fill="#3599F1"/>
</g>
<defs>
<clipPath id="clip0_109_3822">
<rect width="128" height="128" fill="white"/>
</clipPath>
</defs>
</svg>
