<svg width="128" height="128" viewBox="0 0 128 128" fill="none" xmlns="http://www.w3.org/2000/svg">
<circle cx="64" cy="64" r="45" fill="#191923" stroke="#C8CED0" stroke-width="6"/>
<path d="M41.6446 81.6357V48.0357H46.8286V76.6437H62.5726V81.6357H41.6446ZM77.7229 82.1157C75.3549 82.1157 73.2909 81.5717 71.5309 80.4837C69.8029 79.3957 68.1709 77.5717 66.6349 75.0117L70.6669 72.4677C71.4669 73.6517 72.2509 74.6277 73.0189 75.3957C73.8189 76.1317 74.6349 76.6757 75.4669 77.0277C76.2989 77.3797 77.1789 77.5557 78.1069 77.5557C79.2269 77.5557 80.2669 77.2837 81.2269 76.7397C82.1869 76.1637 82.9549 75.3797 83.5309 74.3877C84.1069 73.3957 84.3949 72.2757 84.3949 71.0277C84.3949 69.7797 84.1709 68.7237 83.7229 67.8597C83.2749 66.9637 82.6189 66.2917 81.7549 65.8437C80.8909 65.3637 79.8669 65.1237 78.6829 65.1237C78.1389 65.1237 77.5629 65.1877 76.9549 65.3157C76.3789 65.4117 75.7549 65.5717 75.0829 65.7957C74.4109 65.9877 73.6749 66.2437 72.8749 66.5637L71.4349 62.7717L81.8029 51.3477L82.8109 52.8357H68.5069V48.0357H87.7549L88.7149 49.9557L77.7229 62.1477L76.5229 60.8997C76.7789 60.7717 77.1949 60.6597 77.7709 60.5637C78.3789 60.4357 78.8749 60.3717 79.2589 60.3717C80.6669 60.3717 81.9789 60.6437 83.1949 61.1877C84.4429 61.6997 85.5149 62.4357 86.4109 63.3957C87.3389 64.3237 88.0589 65.4277 88.5709 66.7077C89.1149 67.9557 89.3869 69.2997 89.3869 70.7397C89.3869 72.9157 88.8589 74.8677 87.8029 76.5957C86.7789 78.2917 85.3869 79.6357 83.6269 80.6277C81.8669 81.6197 79.8989 82.1157 77.7229 82.1157Z" fill="#FBFEF9"/>
</svg>
