<svg width="128" height="128" viewBox="0 0 128 128" fill="none" xmlns="http://www.w3.org/2000/svg">
<path d="M52 19H76H96C103.18 19 109 24.8203 109 32V35.2V54.4V96C109 103.18 103.18 109 96 109H76H64H52H32C24.8203 109 19 103.18 19 96V54.4V32C19 24.8203 24.8203 19 32 19H52Z" fill="#FBFEF9" stroke="#FBFEF9" stroke-width="6"/>
<path d="M53.5 25H74.5H96C99.866 25 103 28.134 103 32V38.8V55.6V96C103 99.866 99.866 103 96 103H74.5H64H53.5H32C28.134 103 25 99.866 25 96V55.6V32C25 28.134 28.134 25 32 25H53.5Z" stroke="#C8CED0" stroke-width="6"/>
<path d="M28.523 77V67.2H30.903V77H28.523ZM29.629 73.248V71.26H34.697V73.248H29.629ZM29.629 69.3V67.2H35.271V69.3H29.629ZM41.5203 77.14C40.7736 77.14 40.0923 77.014 39.4763 76.762C38.8603 76.51 38.3236 76.1553 37.8663 75.698C37.4089 75.2407 37.0543 74.704 36.8023 74.088C36.5503 73.472 36.4243 72.7953 36.4243 72.058C36.4243 71.3207 36.5503 70.644 36.8023 70.028C37.0543 69.412 37.4089 68.8753 37.8663 68.418C38.3236 67.9607 38.8603 67.606 39.4763 67.354C40.0923 67.102 40.7689 66.976 41.5063 66.976C42.2436 66.976 42.9203 67.102 43.5363 67.354C44.1523 67.606 44.6889 67.9607 45.1463 68.418C45.6036 68.8753 45.9536 69.412 46.1963 70.028C46.4483 70.644 46.5743 71.3207 46.5743 72.058C46.5743 72.786 46.4483 73.4627 46.1963 74.088C45.9536 74.704 45.6036 75.2407 45.1463 75.698C44.6889 76.1553 44.1523 76.51 43.5363 76.762C42.9203 77.014 42.2483 77.14 41.5203 77.14ZM41.5063 74.9C41.8889 74.9 42.2389 74.83 42.5563 74.69C42.8829 74.55 43.1629 74.354 43.3963 74.102C43.6389 73.8407 43.8256 73.5373 43.9563 73.192C44.0869 72.8467 44.1523 72.4687 44.1523 72.058C44.1523 71.6473 44.0869 71.2693 43.9563 70.924C43.8256 70.5787 43.6389 70.28 43.3963 70.028C43.1629 69.7667 42.8829 69.566 42.5563 69.426C42.2389 69.286 41.8889 69.216 41.5063 69.216C41.1236 69.216 40.7689 69.286 40.4423 69.426C40.1249 69.566 39.8449 69.7667 39.6023 70.028C39.3596 70.28 39.1729 70.5787 39.0423 70.924C38.9209 71.2693 38.8603 71.6473 38.8603 72.058C38.8603 72.4687 38.9209 72.8513 39.0423 73.206C39.1729 73.5513 39.3596 73.85 39.6023 74.102C39.8449 74.354 40.1249 74.55 40.4423 74.69C40.7689 74.83 41.1236 74.9 41.5063 74.9ZM48.4156 77V67.2H52.8256C53.4509 67.2 54.0156 67.3353 54.5196 67.606C55.0329 67.8767 55.4343 68.25 55.7236 68.726C56.0129 69.1927 56.1576 69.7247 56.1576 70.322C56.1576 70.938 56.0129 71.4933 55.7236 71.988C55.4343 72.4733 55.0376 72.856 54.5336 73.136C54.0296 73.416 53.4603 73.556 52.8256 73.556H50.6836V77H48.4156ZM53.8476 77L51.3556 72.576L53.7916 72.226L56.5636 77H53.8476ZM50.6836 71.736H52.6156C52.8583 71.736 53.0683 71.6847 53.2456 71.582C53.4323 71.47 53.5723 71.316 53.6656 71.12C53.7683 70.924 53.8196 70.7 53.8196 70.448C53.8196 70.196 53.7636 69.9767 53.6516 69.79C53.5396 69.594 53.3763 69.4447 53.1616 69.342C52.9563 69.2393 52.7043 69.188 52.4056 69.188H50.6836V71.736ZM59.996 77L57.056 67.2H59.478L60.948 72.352C61.0133 72.5853 61.0693 72.8233 61.116 73.066C61.172 73.2993 61.214 73.5233 61.242 73.738C61.2793 73.9527 61.3073 74.1533 61.326 74.34C61.3447 74.5173 61.3633 74.6667 61.382 74.788H61.074C61.13 74.4427 61.1767 74.1347 61.214 73.864C61.2607 73.5933 61.312 73.3413 61.368 73.108C61.424 72.8653 61.494 72.6133 61.578 72.352L63.034 68.474H64.938L66.366 72.352C66.478 72.66 66.5713 72.9493 66.646 73.22C66.7207 73.4907 66.7767 73.752 66.814 74.004C66.8607 74.2467 66.898 74.4893 66.926 74.732L66.646 74.774C66.6647 74.606 66.6787 74.452 66.688 74.312C66.6973 74.1627 66.7067 74.0227 66.716 73.892C66.7347 73.752 66.7533 73.6073 66.772 73.458C66.7907 73.3087 66.8187 73.1453 66.856 72.968C66.8933 72.7813 66.9447 72.5713 67.01 72.338L68.466 67.2H70.832L67.892 77H66.072L63.748 71.358L64.014 71.386L61.872 77H59.996ZM70.3297 77L74.2078 67.2H76.2238L80.0738 77H77.6658L75.8178 72.03C75.7431 71.834 75.6684 71.624 75.5938 71.4C75.5191 71.176 75.4444 70.9473 75.3698 70.714C75.2951 70.4713 75.2204 70.238 75.1458 70.014C75.0804 69.7807 75.0244 69.566 74.9778 69.37L75.3978 69.356C75.3418 69.5893 75.2764 69.818 75.2018 70.042C75.1364 70.266 75.0664 70.49 74.9918 70.714C74.9264 70.9287 74.8518 71.148 74.7678 71.372C74.6838 71.5867 74.6044 71.8107 74.5298 72.044L72.6818 77H70.3297ZM72.1778 75.124L72.9198 73.332H77.4278L78.1558 75.124H72.1778ZM81.2965 77V67.2H85.7065C86.3318 67.2 86.8965 67.3353 87.4005 67.606C87.9138 67.8767 88.3151 68.25 88.6045 68.726C88.8938 69.1927 89.0385 69.7247 89.0385 70.322C89.0385 70.938 88.8938 71.4933 88.6045 71.988C88.3151 72.4733 87.9185 72.856 87.4145 73.136C86.9105 73.416 86.3411 73.556 85.7065 73.556H83.5645V77H81.2965ZM86.7285 77L84.2365 72.576L86.6725 72.226L89.4445 77H86.7285ZM83.5645 71.736H85.4965C85.7391 71.736 85.9491 71.6847 86.1265 71.582C86.3131 71.47 86.4531 71.316 86.5465 71.12C86.6491 70.924 86.7005 70.7 86.7005 70.448C86.7005 70.196 86.6445 69.9767 86.5325 69.79C86.4205 69.594 86.2571 69.4447 86.0425 69.342C85.8371 69.2393 85.5851 69.188 85.2865 69.188H83.5645V71.736ZM91.1265 77V67.2H95.2285C95.9472 67.2 96.6052 67.3213 97.2025 67.564C97.7999 67.7973 98.3132 68.1333 98.7425 68.572C99.1812 69.0107 99.5172 69.5287 99.7505 70.126C99.9839 70.7233 100.101 71.3813 100.101 72.1C100.101 72.8187 99.9839 73.4813 99.7505 74.088C99.5172 74.6853 99.1812 75.2033 98.7425 75.642C98.3132 76.0713 97.7999 76.4073 97.2025 76.65C96.6052 76.8833 95.9472 77 95.2285 77H91.1265ZM93.5065 75.376L93.1845 74.9H95.1585C95.5505 74.9 95.9005 74.8347 96.2085 74.704C96.5165 74.564 96.7779 74.3727 96.9925 74.13C97.2165 73.8873 97.3892 73.5933 97.5105 73.248C97.6319 72.9027 97.6925 72.52 97.6925 72.1C97.6925 71.68 97.6319 71.2973 97.5105 70.952C97.3892 70.6067 97.2165 70.3127 96.9925 70.07C96.7779 69.8273 96.5165 69.6407 96.2085 69.51C95.9005 69.37 95.5505 69.3 95.1585 69.3H93.1425L93.5065 68.852V75.376Z" fill="#191923"/>
<path d="M34.0716 49V40.6H37.7796C38.3556 40.6 38.8436 40.684 39.2436 40.852C39.6436 41.012 39.9436 41.248 40.1436 41.56C40.3516 41.864 40.4556 42.232 40.4556 42.664C40.4556 43.144 40.3356 43.548 40.0956 43.876C39.8636 44.204 39.5236 44.424 39.0756 44.536L39.0516 44.308C39.4276 44.388 39.7516 44.528 40.0236 44.728C40.3036 44.928 40.5196 45.176 40.6716 45.472C40.8236 45.76 40.8996 46.088 40.8996 46.456C40.8996 46.88 40.8276 47.252 40.6836 47.572C40.5396 47.884 40.3316 48.148 40.0596 48.364C39.7876 48.58 39.4676 48.74 39.0996 48.844C38.7396 48.948 38.3396 49 37.8996 49H34.0716ZM35.9916 47.296H37.8276C38.0516 47.296 38.2396 47.26 38.3916 47.188C38.5516 47.116 38.6756 47.012 38.7636 46.876C38.8516 46.732 38.8956 46.56 38.8956 46.36C38.8956 46.176 38.8476 46.02 38.7516 45.892C38.6636 45.764 38.5356 45.668 38.3676 45.604C38.1996 45.532 37.9996 45.496 37.7676 45.496H35.9916V47.296ZM35.9916 43.972H37.4916C37.6996 43.972 37.8756 43.94 38.0196 43.876C38.1716 43.804 38.2836 43.708 38.3556 43.588C38.4356 43.46 38.4756 43.308 38.4756 43.132C38.4756 42.876 38.3876 42.676 38.2116 42.532C38.0356 42.38 37.7716 42.304 37.4196 42.304H35.9916V43.972ZM42.4857 49V40.6H46.2657C46.8017 40.6 47.2857 40.716 47.7177 40.948C48.1577 41.18 48.5017 41.5 48.7497 41.908C48.9977 42.308 49.1217 42.764 49.1217 43.276C49.1217 43.804 48.9977 44.28 48.7497 44.704C48.5017 45.12 48.1617 45.448 47.7297 45.688C47.2977 45.928 46.8097 46.048 46.2657 46.048H44.4297V49H42.4857ZM47.1417 49L45.0057 45.208L47.0937 44.908L49.4697 49H47.1417ZM44.4297 44.488H46.0857C46.2937 44.488 46.4737 44.444 46.6257 44.356C46.7857 44.26 46.9057 44.128 46.9857 43.96C47.0737 43.792 47.1177 43.6 47.1177 43.384C47.1177 43.168 47.0697 42.98 46.9737 42.82C46.8777 42.652 46.7377 42.524 46.5537 42.436C46.3777 42.348 46.1617 42.304 45.9057 42.304H44.4297V44.488ZM54.6223 49.12C53.9823 49.12 53.3983 49.012 52.8703 48.796C52.3423 48.58 51.8823 48.276 51.4903 47.884C51.0983 47.492 50.7943 47.032 50.5783 46.504C50.3623 45.976 50.2543 45.396 50.2543 44.764C50.2543 44.132 50.3623 43.552 50.5783 43.024C50.7943 42.496 51.0983 42.036 51.4903 41.644C51.8823 41.252 52.3423 40.948 52.8703 40.732C53.3983 40.516 53.9783 40.408 54.6103 40.408C55.2423 40.408 55.8223 40.516 56.3503 40.732C56.8783 40.948 57.3383 41.252 57.7303 41.644C58.1223 42.036 58.4223 42.496 58.6303 43.024C58.8463 43.552 58.9543 44.132 58.9543 44.764C58.9543 45.388 58.8463 45.968 58.6303 46.504C58.4223 47.032 58.1223 47.492 57.7303 47.884C57.3383 48.276 56.8783 48.58 56.3503 48.796C55.8223 49.012 55.2463 49.12 54.6223 49.12ZM54.6103 47.2C54.9383 47.2 55.2383 47.14 55.5103 47.02C55.7903 46.9 56.0303 46.732 56.2303 46.516C56.4383 46.292 56.5983 46.032 56.7103 45.736C56.8223 45.44 56.8783 45.116 56.8783 44.764C56.8783 44.412 56.8223 44.088 56.7103 43.792C56.5983 43.496 56.4383 43.24 56.2303 43.024C56.0303 42.8 55.7903 42.628 55.5103 42.508C55.2383 42.388 54.9383 42.328 54.6103 42.328C54.2823 42.328 53.9783 42.388 53.6983 42.508C53.4263 42.628 53.1863 42.8 52.9783 43.024C52.7703 43.24 52.6103 43.496 52.4983 43.792C52.3943 44.088 52.3423 44.412 52.3423 44.764C52.3423 45.116 52.3943 45.444 52.4983 45.748C52.6103 46.044 52.7703 46.3 52.9783 46.516C53.1863 46.732 53.4263 46.9 53.6983 47.02C53.9783 47.14 54.2823 47.2 54.6103 47.2ZM61.986 49L59.466 40.6H61.542L62.802 45.016C62.858 45.216 62.906 45.42 62.946 45.628C62.994 45.828 63.03 46.02 63.054 46.204C63.086 46.388 63.11 46.56 63.126 46.72C63.142 46.872 63.158 47 63.174 47.104H62.91C62.958 46.808 62.998 46.544 63.03 46.312C63.07 46.08 63.114 45.864 63.162 45.664C63.21 45.456 63.27 45.24 63.342 45.016L64.59 41.692H66.222L67.446 45.016C67.542 45.28 67.622 45.528 67.686 45.76C67.75 45.992 67.798 46.216 67.83 46.432C67.87 46.64 67.902 46.848 67.926 47.056L67.686 47.092C67.702 46.948 67.714 46.816 67.722 46.696C67.73 46.568 67.738 46.448 67.746 46.336C67.762 46.216 67.778 46.092 67.794 45.964C67.81 45.836 67.834 45.696 67.866 45.544C67.898 45.384 67.942 45.204 67.998 45.004L69.246 40.6H71.274L68.754 49H67.194L65.202 44.164L65.43 44.188L63.594 49H61.986ZM75.0588 49.12C74.5068 49.12 74.0068 49.056 73.5588 48.928C73.1188 48.792 72.7268 48.6 72.3828 48.352C72.0388 48.096 71.7308 47.796 71.4588 47.452L72.6948 46.048C73.0948 46.584 73.4948 46.944 73.8948 47.128C74.3028 47.312 74.7228 47.404 75.1548 47.404C75.3708 47.404 75.5668 47.376 75.7428 47.32C75.9188 47.264 76.0548 47.184 76.1508 47.08C76.2468 46.968 76.2948 46.832 76.2948 46.672C76.2948 46.552 76.2628 46.444 76.1988 46.348C76.1428 46.252 76.0628 46.168 75.9588 46.096C75.8548 46.024 75.7308 45.96 75.5868 45.904C75.4428 45.84 75.2908 45.788 75.1308 45.748C74.9708 45.7 74.8068 45.66 74.6388 45.628C74.1748 45.524 73.7708 45.396 73.4268 45.244C73.0828 45.092 72.7948 44.908 72.5628 44.692C72.3388 44.468 72.1708 44.216 72.0588 43.936C71.9468 43.648 71.8908 43.328 71.8908 42.976C71.8908 42.6 71.9748 42.256 72.1428 41.944C72.3188 41.624 72.5508 41.352 72.8388 41.128C73.1348 40.896 73.4748 40.72 73.8588 40.6C74.2428 40.472 74.6428 40.408 75.0588 40.408C75.6108 40.408 76.0828 40.468 76.4748 40.588C76.8748 40.7 77.2148 40.864 77.4948 41.08C77.7828 41.296 78.0268 41.556 78.2268 41.86L76.9668 43.072C76.7988 42.864 76.6148 42.692 76.4148 42.556C76.2228 42.42 76.0148 42.316 75.7908 42.244C75.5748 42.172 75.3508 42.136 75.1188 42.136C74.8788 42.136 74.6708 42.168 74.4948 42.232C74.3268 42.288 74.1948 42.372 74.0988 42.484C74.0028 42.588 73.9548 42.716 73.9548 42.868C73.9548 43.004 73.9948 43.12 74.0748 43.216C74.1548 43.312 74.2628 43.4 74.3988 43.48C74.5348 43.552 74.6908 43.616 74.8668 43.672C75.0428 43.72 75.2268 43.76 75.4188 43.792C75.8588 43.88 76.2548 43.996 76.6068 44.14C76.9668 44.284 77.2748 44.46 77.5308 44.668C77.7948 44.876 77.9948 45.124 78.1308 45.412C78.2748 45.692 78.3468 46.02 78.3468 46.396C78.3468 46.98 78.2028 47.476 77.9148 47.884C77.6348 48.284 77.2468 48.592 76.7508 48.808C76.2628 49.016 75.6988 49.12 75.0588 49.12ZM79.8802 49V40.6H85.7362V42.34H81.8602V47.26H85.8562V49H79.8802ZM80.8402 45.556V43.9H85.1962V45.556H80.8402ZM87.6146 49V40.6H91.3946C91.9306 40.6 92.4146 40.716 92.8466 40.948C93.2866 41.18 93.6306 41.5 93.8786 41.908C94.1266 42.308 94.2506 42.764 94.2506 43.276C94.2506 43.804 94.1266 44.28 93.8786 44.704C93.6306 45.12 93.2906 45.448 92.8586 45.688C92.4266 45.928 91.9386 46.048 91.3946 46.048H89.5586V49H87.6146ZM92.2706 49L90.1346 45.208L92.2226 44.908L94.5986 49H92.2706ZM89.5586 44.488H91.2146C91.4226 44.488 91.6026 44.444 91.7546 44.356C91.9146 44.26 92.0346 44.128 92.1146 43.96C92.2026 43.792 92.2466 43.6 92.2466 43.384C92.2466 43.168 92.1986 42.98 92.1026 42.82C92.0066 42.652 91.8666 42.524 91.6826 42.436C91.5066 42.348 91.2906 42.304 91.0346 42.304H89.5586V44.488Z" fill="#191923"/>
</svg>
