<svg width="128" height="128" viewBox="0 0 128 128" fill="none" xmlns="http://www.w3.org/2000/svg">
<path d="M52 19H76H96C103.18 19 109 24.8203 109 32V35.2V54.4V96C109 103.18 103.18 109 96 109H76H64H52H32C24.8203 109 19 103.18 19 96V54.4V32C19 24.8203 24.8203 19 32 19H52Z" fill="#FBFEF9" stroke="#FBFEF9" stroke-width="6"/>
<path d="M53.5 25H74.5H96C99.866 25 103 28.134 103 32V38.8V55.6V96C103 99.866 99.866 103 96 103H74.5H64H53.5H32C28.134 103 25 99.866 25 96V55.6V32C25 28.134 28.134 25 32 25H53.5Z" stroke="#C8CED0" stroke-width="6"/>
<path d="M44.1843 73V56.2H48.2643V73H44.1843ZM33.7683 73V56.2H37.8483V73H33.7683ZM35.3523 66.448L35.3763 62.8H46.3443V66.448H35.3523ZM52.4714 73V56.2H64.1834V59.68H56.4314V69.52H64.4234V73H52.4714ZM54.3914 66.112V62.8H63.1034V66.112H54.3914ZM67.9401 73V56.2H72.0201V69.4H79.5081V73H67.9401ZM82.5651 73V56.2H89.8131C90.8691 56.2 91.8051 56.44 92.6211 56.92C93.4531 57.4 94.1091 58.056 94.5891 58.888C95.0851 59.72 95.3331 60.656 95.3331 61.696C95.3331 62.784 95.0851 63.76 94.5891 64.624C94.1091 65.472 93.4531 66.144 92.6211 66.64C91.8051 67.136 90.8691 67.384 89.8131 67.384H86.6451V73H82.5651ZM86.5731 63.808H89.2371C89.5891 63.808 89.9091 63.72 90.1971 63.544C90.4851 63.368 90.7171 63.128 90.8931 62.824C91.0691 62.52 91.1571 62.168 91.1571 61.768C91.1571 61.352 91.0691 61 90.8931 60.712C90.7171 60.424 90.4851 60.2 90.1971 60.04C89.9091 59.88 89.5891 59.8 89.2371 59.8H86.5731V63.808Z" fill="#191923"/>
</svg>
