<svg width="128" height="128" viewBox="0 0 128 128" fill="none" xmlns="http://www.w3.org/2000/svg">
<path d="M52 19H76H96C103.18 19 109 24.8203 109 32V35.2V54.4V96C109 103.18 103.18 109 96 109H76H64H52H32C24.8203 109 19 103.18 19 96V54.4V32C19 24.8203 24.8203 19 32 19H52Z" fill="#FBFEF9" stroke="#FBFEF9" stroke-width="6"/>
<path d="M53.5 25H74.5H96C99.866 25 103 28.134 103 32V38.8V55.6V96C103 99.866 99.866 103 96 103H74.5H64H53.5H32C28.134 103 25 99.866 25 96V55.6V32C25 28.134 28.134 25 32 25H53.5Z" stroke="#C8CED0" stroke-width="6"/>
<path d="M33.2761 73V56.2H36.9241L43.0441 66.16L40.4281 66.136L46.6201 56.2H50.1241V73H46.1641V67.768C46.1641 66.328 46.1961 65.032 46.2601 63.88C46.3401 62.728 46.4681 61.584 46.6441 60.448L47.1001 61.696L42.4441 68.92H40.8601L36.3001 61.744L36.7561 60.448C36.9321 61.52 37.0521 62.624 37.1161 63.76C37.1961 64.88 37.2361 66.216 37.2361 67.768V73H33.2761ZM52.2104 73L58.8584 56.2H62.3144L68.9144 73H64.7864L61.6184 64.48C61.4904 64.144 61.3624 63.784 61.2344 63.4C61.1064 63.016 60.9784 62.624 60.8504 62.224C60.7224 61.808 60.5944 61.408 60.4664 61.024C60.3544 60.624 60.2584 60.256 60.1784 59.92L60.8984 59.896C60.8024 60.296 60.6904 60.688 60.5624 61.072C60.4504 61.456 60.3304 61.84 60.2024 62.224C60.0904 62.592 59.9624 62.968 59.8184 63.352C59.6744 63.72 59.5384 64.104 59.4104 64.504L56.2424 73H52.2104ZM55.3784 69.784L56.6504 66.712H64.3784L65.6264 69.784H55.3784ZM70.6744 73V69.568H73.5064V59.632H70.6744V56.2H80.4424V59.632H77.5864V69.568H80.4424V73H70.6744ZM84.3229 73V56.2H88.4029V69.4H95.8909V73H84.3229Z" fill="#191923"/>
</svg>
