<svg width="128" height="128" viewBox="0 0 128 128" fill="none" xmlns="http://www.w3.org/2000/svg">
<path d="M52 25H76H96C103.18 25 109 30.8203 109 38V38.8V55.6V90C109 97.1797 103.18 103 96 103H76H64H52H32C24.8203 103 19 97.1797 19 90V55.6V38C19 30.8203 24.8203 25 32 25H52Z" fill="#FBFEF9" stroke="#FBFEF9" stroke-width="6"/>
<path d="M53.5 31H74.5H96C99.866 31 103 34.134 103 38V42.4V56.8V90C103 93.866 99.866 97 96 97H74.5H64H53.5H32C28.134 97 25 93.866 25 90V56.8V38C25 34.134 28.134 31 32 31H53.5Z" stroke="#C8CED0" stroke-width="6"/>
<path d="M64 88L64 40L48 52H40V64L40 76H48L64 88Z" fill="#191923"/>
<path d="M88 64L68 64" stroke="#191923" stroke-width="6"/>
<path d="M78 54V74" stroke="#191923" stroke-width="6"/>
</svg>
