<svg width="128" height="128" viewBox="0 0 128 128" fill="none" xmlns="http://www.w3.org/2000/svg">
<path d="M52 19H76H96C103.18 19 109 24.8203 109 32V35.2V54.4V96C109 103.18 103.18 109 96 109H76H64H52H32C24.8203 109 19 103.18 19 96V54.4V32C19 24.8203 24.8203 19 32 19H52Z" fill="#FBFEF9" stroke="#FBFEF9" stroke-width="6"/>
<path d="M53.5 25H74.5H96C99.866 25 103 28.134 103 32V38.8V55.6V96C103 99.866 99.866 103 96 103H74.5H64H53.5H32C28.134 103 25 99.866 25 96V55.6V32C25 28.134 28.134 25 32 25H53.5Z" stroke="#C8CED0" stroke-width="6"/>
<path d="M28.2752 70V58.8H30.7072L36.5792 66.8L36.0512 66.72C35.9979 66.368 35.9552 66.032 35.9232 65.712C35.8912 65.392 35.8592 65.0773 35.8272 64.768C35.8059 64.4587 35.7845 64.144 35.7632 63.824C35.7525 63.504 35.7419 63.1573 35.7312 62.784C35.7312 62.4107 35.7312 62.0053 35.7312 61.568V58.8H38.3712V70H35.9072L29.7792 61.744L30.5952 61.856C30.6485 62.368 30.6912 62.8053 30.7232 63.168C30.7659 63.52 30.7979 63.8347 30.8192 64.112C30.8512 64.3893 30.8725 64.64 30.8832 64.864C30.8939 65.088 30.8992 65.312 30.8992 65.536C30.9099 65.7493 30.9152 65.9893 30.9152 66.256V70H28.2752ZM46.2854 70.16C45.4321 70.16 44.6534 70.016 43.9494 69.728C43.2454 69.44 42.6321 69.0347 42.1094 68.512C41.5868 67.9893 41.1814 67.376 40.8934 66.672C40.6054 65.968 40.4614 65.1947 40.4614 64.352C40.4614 63.5093 40.6054 62.736 40.8934 62.032C41.1814 61.328 41.5868 60.7147 42.1094 60.192C42.6321 59.6693 43.2454 59.264 43.9494 58.976C44.6534 58.688 45.4268 58.544 46.2694 58.544C47.1121 58.544 47.8854 58.688 48.5894 58.976C49.2934 59.264 49.9068 59.6693 50.4294 60.192C50.9521 60.7147 51.3521 61.328 51.6294 62.032C51.9174 62.736 52.0614 63.5093 52.0614 64.352C52.0614 65.184 51.9174 65.9573 51.6294 66.672C51.3521 67.376 50.9521 67.9893 50.4294 68.512C49.9068 69.0347 49.2934 69.44 48.5894 69.728C47.8854 70.016 47.1174 70.16 46.2854 70.16ZM46.2694 67.6C46.7068 67.6 47.1068 67.52 47.4694 67.36C47.8428 67.2 48.1628 66.976 48.4294 66.688C48.7068 66.3893 48.9201 66.0427 49.0694 65.648C49.2188 65.2533 49.2934 64.8213 49.2934 64.352C49.2934 63.8827 49.2188 63.4507 49.0694 63.056C48.9201 62.6613 48.7068 62.32 48.4294 62.032C48.1628 61.7333 47.8428 61.504 47.4694 61.344C47.1068 61.184 46.7068 61.104 46.2694 61.104C45.8321 61.104 45.4268 61.184 45.0534 61.344C44.6908 61.504 44.3708 61.7333 44.0934 62.032C43.8161 62.32 43.6028 62.6613 43.4534 63.056C43.3148 63.4507 43.2454 63.8827 43.2454 64.352C43.2454 64.8213 43.3148 65.2587 43.4534 65.664C43.6028 66.0587 43.8161 66.4 44.0934 66.688C44.3708 66.976 44.6908 67.2 45.0534 67.36C45.4268 67.52 45.8321 67.6 46.2694 67.6ZM54.1658 70V58.8H56.5978L62.4698 66.8L61.9418 66.72C61.8885 66.368 61.8458 66.032 61.8138 65.712C61.7818 65.392 61.7498 65.0773 61.7178 64.768C61.6965 64.4587 61.6751 64.144 61.6538 63.824C61.6431 63.504 61.6325 63.1573 61.6218 62.784C61.6218 62.4107 61.6218 62.0053 61.6218 61.568V58.8H64.2618V70H61.7978L55.6698 61.744L56.4858 61.856C56.5391 62.368 56.5818 62.8053 56.6138 63.168C56.6565 63.52 56.6885 63.8347 56.7098 64.112C56.7418 64.3893 56.7631 64.64 56.7738 64.864C56.7845 65.088 56.7898 65.312 56.7898 65.536C56.8005 65.7493 56.8058 65.9893 56.8058 66.256V70H54.1658ZM65.6481 70L70.0801 58.8H72.3841L76.7841 70H74.0321L71.9201 64.32C71.8347 64.096 71.7494 63.856 71.6641 63.6C71.5787 63.344 71.4934 63.0827 71.4081 62.816C71.3227 62.5387 71.2374 62.272 71.1521 62.016C71.0774 61.7493 71.0134 61.504 70.9601 61.28L71.4401 61.264C71.3761 61.5307 71.3014 61.792 71.2161 62.048C71.1414 62.304 71.0614 62.56 70.9761 62.816C70.9014 63.0613 70.8161 63.312 70.7201 63.568C70.6241 63.8133 70.5334 64.0693 70.4481 64.336L68.3361 70H65.6481ZM67.7601 67.856L68.6081 65.808H73.7601L74.5921 67.856H67.7601ZM78.1814 70V58.8H80.6134L84.6934 65.44L82.9494 65.424L87.0774 58.8H89.4134V70H86.7734V66.512C86.7734 65.552 86.7948 64.688 86.8374 63.92C86.8908 63.152 86.9761 62.3893 87.0934 61.632L87.3974 62.464L84.2934 67.28H83.2374L80.1974 62.496L80.5014 61.632C80.6188 62.3467 80.6988 63.0827 80.7414 63.84C80.7948 64.5867 80.8214 65.4773 80.8214 66.512V70H78.1814ZM92.2283 70V58.8H100.036V61.12H94.8683V67.68H100.196V70H92.2283ZM93.5083 65.408V63.2H99.3163V65.408H93.5083Z" fill="#191923"/>
</svg>
