<svg width="128" height="128" viewBox="0 0 128 128" fill="none" xmlns="http://www.w3.org/2000/svg">
<path d="M52 19H76H96C103.18 19 109 24.8203 109 32V35.2V54.4V96C109 103.18 103.18 109 96 109H76H64H52H32C24.8203 109 19 103.18 19 96V54.4V32C19 24.8203 24.8203 19 32 19H52Z" fill="#FBFEF9" stroke="#FBFEF9" stroke-width="6"/>
<path d="M53.5 25H74.5H96C99.866 25 103 28.134 103 32V38.8V55.6V96C103 99.866 99.866 103 96 103H74.5H64H53.5H32C28.134 103 25 99.866 25 96V55.6V32C25 28.134 28.134 25 32 25H53.5Z" stroke="#C8CED0" stroke-width="6"/>
<path d="M45.7602 73.24C44.4802 73.24 43.3122 73.024 42.2562 72.592C41.2002 72.16 40.2802 71.552 39.4962 70.768C38.7122 69.984 38.1042 69.064 37.6722 68.008C37.2402 66.952 37.0242 65.792 37.0242 64.528C37.0242 63.264 37.2402 62.104 37.6722 61.048C38.1042 59.992 38.7122 59.072 39.4962 58.288C40.2802 57.504 41.2002 56.896 42.2562 56.464C43.3122 56.032 44.4722 55.816 45.7362 55.816C47.0002 55.816 48.1602 56.032 49.2162 56.464C50.2722 56.896 51.1922 57.504 51.9762 58.288C52.7602 59.072 53.3602 59.992 53.7762 61.048C54.2082 62.104 54.4242 63.264 54.4242 64.528C54.4242 65.776 54.2082 66.936 53.7762 68.008C53.3602 69.064 52.7602 69.984 51.9762 70.768C51.1922 71.552 50.2722 72.16 49.2162 72.592C48.1602 73.024 47.0082 73.24 45.7602 73.24ZM45.7362 69.4C46.3922 69.4 46.9922 69.28 47.5362 69.04C48.0962 68.8 48.5762 68.464 48.9762 68.032C49.3922 67.584 49.7122 67.064 49.9362 66.472C50.1602 65.88 50.2722 65.232 50.2722 64.528C50.2722 63.824 50.1602 63.176 49.9362 62.584C49.7122 61.992 49.3922 61.48 48.9762 61.048C48.5762 60.6 48.0962 60.256 47.5362 60.016C46.9922 59.776 46.3922 59.656 45.7362 59.656C45.0802 59.656 44.4722 59.776 43.9122 60.016C43.3682 60.256 42.8882 60.6 42.4722 61.048C42.0562 61.48 41.7362 61.992 41.5122 62.584C41.3042 63.176 41.2002 63.824 41.2002 64.528C41.2002 65.232 41.3042 65.888 41.5122 66.496C41.7362 67.088 42.0562 67.6 42.4722 68.032C42.8882 68.464 43.3682 68.8 43.9122 69.04C44.4722 69.28 45.0802 69.4 45.7362 69.4ZM57.5808 73V56.2H69.2928V59.68H61.5408V69.52H69.5328V73H57.5808ZM59.5008 66.112V62.8H68.2128V66.112H59.5008ZM73.0495 73V56.2H76.6975L82.8175 66.16L80.2015 66.136L86.3935 56.2H89.8975V73H85.9375V67.768C85.9375 66.328 85.9695 65.032 86.0335 63.88C86.1135 62.728 86.2415 61.584 86.4175 60.448L86.8735 61.696L82.2175 68.92H80.6335L76.0735 61.744L76.5295 60.448C76.7055 61.52 76.8255 62.624 76.8895 63.76C76.9695 64.88 77.0095 66.216 77.0095 67.768V73H73.0495Z" fill="#191923"/>
</svg>
