<svg width="128" height="128" viewBox="0 0 128 128" fill="none" xmlns="http://www.w3.org/2000/svg">
<path d="M52 19H76H96C103.18 19 109 24.8203 109 32V35.2V54.4V96C109 103.18 103.18 109 96 109H76H64H52H32C24.8203 109 19 103.18 19 96V54.4V32C19 24.8203 24.8203 19 32 19H52Z" fill="#FBFEF9" stroke="#FBFEF9" stroke-width="6"/>
<path d="M53.5 25H74.5H96C99.866 25 103 28.134 103 32V38.8V55.6V96C103 99.866 99.866 103 96 103H74.5H64H53.5H32C28.134 103 25 99.866 25 96V55.6V32C25 28.134 28.134 25 32 25H53.5Z" stroke="#C8CED0" stroke-width="6"/>
<path d="M31.1116 72V58H37.4116C38.3049 58 39.1116 58.1933 39.8316 58.58C40.5649 58.9667 41.1382 59.5 41.5516 60.18C41.9649 60.8467 42.1716 61.6067 42.1716 62.46C42.1716 63.34 41.9649 64.1333 41.5516 64.84C41.1382 65.5333 40.5716 66.08 39.8516 66.48C39.1316 66.88 38.3182 67.08 37.4116 67.08H34.3516V72H31.1116ZM38.8716 72L35.3116 65.68L38.7916 65.18L42.7516 72H38.8716ZM34.3516 64.48H37.1116C37.4582 64.48 37.7582 64.4067 38.0116 64.26C38.2782 64.1 38.4782 63.88 38.6116 63.6C38.7582 63.32 38.8316 63 38.8316 62.64C38.8316 62.28 38.7516 61.9667 38.5916 61.7C38.4316 61.42 38.1982 61.2067 37.8916 61.06C37.5982 60.9133 37.2382 60.84 36.8116 60.84H34.3516V64.48ZM45.1545 72V58H54.9145V60.9H48.4545V69.1H55.1145V72H45.1545ZM46.7545 66.26V63.5H54.0145V66.26H46.7545ZM62.6852 72.2C61.7652 72.2 60.9318 72.0933 60.1852 71.88C59.4518 71.6533 58.7985 71.3333 58.2252 70.92C57.6518 70.4933 57.1385 69.9933 56.6852 69.42L58.7452 67.08C59.4118 67.9733 60.0785 68.5733 60.7452 68.88C61.4252 69.1867 62.1252 69.34 62.8452 69.34C63.2052 69.34 63.5318 69.2933 63.8252 69.2C64.1185 69.1067 64.3452 68.9733 64.5052 68.8C64.6652 68.6133 64.7452 68.3867 64.7452 68.12C64.7452 67.92 64.6918 67.74 64.5852 67.58C64.4918 67.42 64.3585 67.28 64.1852 67.16C64.0118 67.04 63.8052 66.9333 63.5652 66.84C63.3252 66.7333 63.0718 66.6467 62.8052 66.58C62.5385 66.5 62.2652 66.4333 61.9852 66.38C61.2118 66.2067 60.5385 65.9933 59.9652 65.74C59.3918 65.4867 58.9118 65.18 58.5252 64.82C58.1518 64.4467 57.8718 64.0267 57.6852 63.56C57.4985 63.08 57.4052 62.5467 57.4052 61.96C57.4052 61.3333 57.5452 60.76 57.8252 60.24C58.1185 59.7067 58.5052 59.2533 58.9852 58.88C59.4785 58.4933 60.0452 58.2 60.6852 58C61.3252 57.7867 61.9918 57.68 62.6852 57.68C63.6052 57.68 64.3918 57.78 65.0452 57.98C65.7118 58.1667 66.2785 58.44 66.7452 58.8C67.2252 59.16 67.6318 59.5933 67.9652 60.1L65.8652 62.12C65.5852 61.7733 65.2785 61.4867 64.9452 61.26C64.6252 61.0333 64.2785 60.86 63.9052 60.74C63.5452 60.62 63.1718 60.56 62.7852 60.56C62.3852 60.56 62.0385 60.6133 61.7452 60.72C61.4652 60.8133 61.2452 60.9533 61.0852 61.14C60.9252 61.3133 60.8452 61.5267 60.8452 61.78C60.8452 62.0067 60.9118 62.2 61.0452 62.36C61.1785 62.52 61.3585 62.6667 61.5852 62.8C61.8118 62.92 62.0718 63.0267 62.3652 63.12C62.6585 63.2 62.9652 63.2667 63.2852 63.32C64.0185 63.4667 64.6785 63.66 65.2652 63.9C65.8652 64.14 66.3785 64.4333 66.8052 64.78C67.2452 65.1267 67.5785 65.54 67.8052 66.02C68.0452 66.4867 68.1652 67.0333 68.1652 67.66C68.1652 68.6333 67.9252 69.46 67.4452 70.14C66.9785 70.8067 66.3318 71.32 65.5052 71.68C64.6918 72.0267 63.7518 72.2 62.6852 72.2ZM74.6409 72L69.0409 58H72.5809L75.2809 65.14C75.4409 65.5533 75.5743 65.9133 75.6809 66.22C75.8009 66.5267 75.9009 66.8133 75.9809 67.08C76.0743 67.3467 76.1543 67.62 76.2209 67.9C76.3009 68.1667 76.3876 68.4733 76.4809 68.82H75.8609C75.9676 68.3667 76.0743 67.9667 76.1809 67.62C76.2876 67.26 76.4076 66.8933 76.5409 66.52C76.6743 66.1333 76.8409 65.6733 77.0409 65.14L79.6409 58H83.1209L77.4809 72H74.6409ZM84.9592 72V58H90.8192C91.8459 58 92.7859 58.1733 93.6392 58.52C94.4926 58.8533 95.2259 59.3333 95.8392 59.96C96.4659 60.5867 96.9459 61.3267 97.2792 62.18C97.6126 63.0333 97.7792 63.9733 97.7792 65C97.7792 66.0267 97.6126 66.9733 97.2792 67.84C96.9459 68.6933 96.4659 69.4333 95.8392 70.06C95.2259 70.6733 94.4926 71.1533 93.6392 71.5C92.7859 71.8333 91.8459 72 90.8192 72H84.9592ZM88.3592 69.68L87.8992 69H90.7192C91.2792 69 91.7792 68.9067 92.2192 68.72C92.6592 68.52 93.0326 68.2467 93.3392 67.9C93.6592 67.5533 93.9059 67.1333 94.0792 66.64C94.2526 66.1467 94.3392 65.6 94.3392 65C94.3392 64.4 94.2526 63.8533 94.0792 63.36C93.9059 62.8667 93.6592 62.4467 93.3392 62.1C93.0326 61.7533 92.6592 61.4867 92.2192 61.3C91.7792 61.1 91.2792 61 90.7192 61H87.8392L88.3592 60.36V69.68Z" fill="#191923"/>
</svg>
