<svg width="128" height="128" viewBox="0 0 128 128" fill="none" xmlns="http://www.w3.org/2000/svg">
<path d="M52 19H76H96C103.18 19 109 24.8203 109 32V35.2V54.4V96C109 103.18 103.18 109 96 109H76H64H52H32C24.8203 109 19 103.18 19 96V54.4V32C19 24.8203 24.8203 19 32 19H52Z" stroke="#C8CED0" stroke-width="6"/>
<path d="M63.9799 82.528C62.6679 82.528 61.6439 82.16 60.9079 81.424C60.2039 80.688 59.8519 79.632 59.8519 78.256C59.8519 76.976 60.2359 75.936 61.0039 75.136C61.7719 74.336 62.7639 73.936 63.9799 73.936C65.2919 73.936 66.3159 74.32 67.0519 75.088C67.7879 75.824 68.1559 76.88 68.1559 78.256C68.1559 79.504 67.7719 80.528 67.0039 81.328C66.2359 82.128 65.2279 82.528 63.9799 82.528Z" fill="#FBFEF9"/>
</svg>
