<svg width="128" height="128" viewBox="0 0 128 128" fill="none" xmlns="http://www.w3.org/2000/svg">
<path d="M52 31H76H108C108.552 31 109 31.4477 109 32V40V52V84C109 84.5523 108.552 85 108 85H76H64H52H20C19.4477 85 19 84.5523 19 84V52C19 40.402 28.402 31 40 31H52Z" fill="#191923" stroke="#C8CED0" stroke-width="6"/>
<path d="M40.1631 70V47.6H45.6031V65.2H59.1711V70H40.1631ZM67.2881 70V47.6H79.4801C81.3575 47.6 82.9468 47.824 84.2481 48.272C85.5495 48.72 86.5201 49.3493 87.1601 50.16C87.8215 50.9707 88.1521 51.952 88.1521 53.104C88.1521 54.3413 87.7895 55.408 87.0641 56.304C86.3388 57.1787 85.2508 57.7867 83.8001 58.128L83.9281 57.552C84.8881 57.7653 85.7735 58.1067 86.5841 58.576C87.4161 59.0453 88.0775 59.664 88.5681 60.432C89.0801 61.2 89.3361 62.128 89.3361 63.216C89.3361 64.5387 89.0695 65.6373 88.5361 66.512C88.0028 67.3653 87.2881 68.048 86.3921 68.56C85.4961 69.072 84.5041 69.4453 83.4161 69.68C82.3495 69.8933 81.2828 70 80.2161 70H67.2881ZM72.4081 65.456H80.2801C81.0055 65.456 81.6348 65.3707 82.1681 65.2C82.7228 65.0293 83.1601 64.7627 83.4801 64.4C83.8215 64.016 83.9921 63.536 83.9921 62.96C83.9921 62.3413 83.7895 61.8613 83.3841 61.52C82.9788 61.1573 82.4775 60.9013 81.8801 60.752C81.2828 60.6027 80.6961 60.528 80.1201 60.528H72.4081V65.456ZM72.4081 56.432H79.3841C80.0668 56.432 80.6641 56.3467 81.1761 56.176C81.6881 56.0053 82.0828 55.76 82.3601 55.44C82.6588 55.12 82.8081 54.7147 82.8081 54.224C82.8081 53.4987 82.4668 52.976 81.7841 52.656C81.1015 52.3147 80.2375 52.144 79.1921 52.144H72.4081V56.432Z" fill="#FBFEF9"/>
</svg>
