<svg width="128" height="128" viewBox="0 0 128 128" fill="none" xmlns="http://www.w3.org/2000/svg">
<path d="M127.383 62.971C127.763 63.6044 127.763 64.3956 127.383 65.029L119.715 77.8084C118.671 79.5477 116 78.8078 116 76.7794V51.2206C116 49.1922 118.671 48.4523 119.715 50.1916L127.383 62.971Z" fill="#FBFEF9"/>
<path d="M65.0397 127.383C64.4064 127.763 63.6151 127.763 62.9817 127.383L50.2024 119.715C48.463 118.671 49.2029 116 51.2314 116H76.7901C78.8186 116 79.5585 118.671 77.8191 119.715L65.0397 127.383Z" fill="#FBFEF9"/>
<circle cx="63.9922" cy="64" r="45" stroke="#C8CED0" stroke-width="6"/>
<circle cx="63.9922" cy="64" r="39" fill="#FBFEF9" stroke="#2E2836" stroke-width="6"/>
<circle cx="63.9844" cy="64" r="41.5" stroke="#FBFEF9" stroke-width="5"/>
<path d="M51.0758 78.6357V50.6357H67.4358C69.0891 50.6357 70.5958 51.0224 71.9558 51.7957C73.3425 52.5424 74.4491 53.5691 75.2758 54.8757C76.1025 56.1824 76.5158 57.6357 76.5158 59.2357C76.5158 60.9157 76.0625 62.4491 75.1558 63.8357C74.2491 65.1957 73.0491 66.2891 71.5558 67.1157C70.0625 67.9157 68.4225 68.3157 66.6358 68.3157H55.3958V78.6357H51.0758ZM72.7558 78.6357L63.2358 65.9957L67.8358 64.9957L78.1558 78.6757L72.7558 78.6357ZM55.3958 64.1557H66.2358C67.2491 64.1557 68.1825 63.9291 69.0358 63.4757C69.9158 63.0224 70.6091 62.4224 71.1158 61.6757C71.6491 60.9291 71.9158 60.1157 71.9158 59.2357C71.9158 58.4091 71.6491 57.6624 71.1158 56.9957C70.6091 56.3291 69.9158 55.7957 69.0358 55.3957C68.1825 54.9957 67.2491 54.7957 66.2358 54.7957H55.3958V64.1557Z" fill="#191923"/>
</svg>
