<svg width="128" height="128" viewBox="0 0 128 128" fill="none" xmlns="http://www.w3.org/2000/svg">
<path d="M46 19L82 19C93.598 19 103 28.402 103 40C103 51.598 93.598 61 82 61H46C34.402 61 25 51.598 25 40C25 28.402 34.402 19 46 19Z" stroke="#C8CED0" stroke-width="6"/>
<path d="M74.7228 114H53.4443V109.684H61.9557V105.368H53.338L52.1676 105.261C51.5293 105.045 50.9264 104.685 50.359 104.182L50.1462 103.966C49.5078 103.175 49.1886 102.239 49.1886 101.161V94.5789L53.4443 97.6L58.232 101.053L66.2114 106.879V109.684H70.148L73.9781 112.489L76 114H74.7228Z" fill="#FBFEF9"/>
<path d="M57.7 77.2079V79.4737L70.4671 88.6447V77.2079C70.4671 76.057 70.077 75.05 69.2968 74.1868L68.6585 73.6474C67.9492 73.2158 67.169 73 66.3178 73H61.8494C60.9982 73 60.2535 73.2158 59.6151 73.6474L58.8704 74.1868C58.0901 75.05 57.7 76.057 57.7 77.2079Z" fill="#FBFEF9"/>
<path d="M74.7228 88.1053V91.7737L78.9785 94.7947V88.1053H74.7228Z" fill="#FBFEF9"/>
<path d="M47.0608 84.2211C47.1317 84.7965 47.4154 85.264 47.9119 85.6237L77.7018 107.203L79.2977 107.526L80.5744 106.663L81 105.045L80.1489 103.642L50.359 82.0632L48.7631 81.7395C48.1956 81.8114 47.7346 82.0991 47.38 82.6026C47.0253 83.0342 46.9189 83.5737 47.0608 84.2211Z" fill="#FBFEF9"/>
</svg>
