<svg width="128" height="128" viewBox="0 0 128 128" fill="none" xmlns="http://www.w3.org/2000/svg">
<path d="M28.2983 108.514L109.942 83L28.2983 57.4863C27.6543 57.2851 27 57.7661 27 58.4408V107.559C27 108.234 27.6543 108.715 28.2983 108.514Z" stroke="#C8CED0" stroke-width="6"/>
<path d="M37.6852 42.2C36.7652 42.2 35.9318 42.0933 35.1852 41.88C34.4518 41.6533 33.7985 41.3333 33.2252 40.92C32.6518 40.4933 32.1385 39.9933 31.6852 39.42L33.7452 37.08C34.4118 37.9733 35.0785 38.5733 35.7452 38.88C36.4252 39.1867 37.1252 39.34 37.8452 39.34C38.2052 39.34 38.5318 39.2933 38.8252 39.2C39.1185 39.1067 39.3452 38.9733 39.5052 38.8C39.6652 38.6133 39.7452 38.3867 39.7452 38.12C39.7452 37.92 39.6918 37.74 39.5852 37.58C39.4918 37.42 39.3585 37.28 39.1852 37.16C39.0118 37.04 38.8052 36.9333 38.5652 36.84C38.3252 36.7333 38.0718 36.6467 37.8052 36.58C37.5385 36.5 37.2652 36.4333 36.9852 36.38C36.2118 36.2067 35.5385 35.9933 34.9652 35.74C34.3918 35.4867 33.9118 35.18 33.5252 34.82C33.1518 34.4467 32.8718 34.0267 32.6852 33.56C32.4985 33.08 32.4052 32.5467 32.4052 31.96C32.4052 31.3333 32.5452 30.76 32.8252 30.24C33.1185 29.7067 33.5052 29.2533 33.9852 28.88C34.4785 28.4933 35.0452 28.2 35.6852 28C36.3252 27.7867 36.9918 27.68 37.6852 27.68C38.6052 27.68 39.3918 27.78 40.0452 27.98C40.7118 28.1667 41.2785 28.44 41.7452 28.8C42.2252 29.16 42.6318 29.5933 42.9652 30.1L40.8652 32.12C40.5852 31.7733 40.2785 31.4867 39.9452 31.26C39.6252 31.0333 39.2785 30.86 38.9052 30.74C38.5452 30.62 38.1718 30.56 37.7852 30.56C37.3852 30.56 37.0385 30.6133 36.7452 30.72C36.4652 30.8133 36.2452 30.9533 36.0852 31.14C35.9252 31.3133 35.8452 31.5267 35.8452 31.78C35.8452 32.0067 35.9118 32.2 36.0452 32.36C36.1785 32.52 36.3585 32.6667 36.5852 32.8C36.8118 32.92 37.0718 33.0267 37.3652 33.12C37.6585 33.2 37.9652 33.2667 38.2852 33.32C39.0185 33.4667 39.6785 33.66 40.2652 33.9C40.8652 34.14 41.3785 34.4333 41.8052 34.78C42.2452 35.1267 42.5785 35.54 42.8052 36.02C43.0452 36.4867 43.1652 37.0333 43.1652 37.66C43.1652 38.6333 42.9252 39.46 42.4452 40.14C41.9785 40.8067 41.3318 41.32 40.5052 41.68C39.6918 42.0267 38.7518 42.2 37.6852 42.2ZM48.7609 42V31H44.6009V28H56.4209V31H52.1609V42H48.7609ZM56.0503 42L61.5903 28H64.4703L69.9703 42H66.5303L63.8903 34.9C63.7836 34.62 63.677 34.32 63.5703 34C63.4636 33.68 63.357 33.3533 63.2503 33.02C63.1436 32.6733 63.037 32.34 62.9303 32.02C62.837 31.6867 62.757 31.38 62.6903 31.1L63.2903 31.08C63.2103 31.4133 63.117 31.74 63.0103 32.06C62.917 32.38 62.817 32.7 62.7103 33.02C62.617 33.3267 62.5103 33.64 62.3903 33.96C62.2703 34.2667 62.157 34.5867 62.0503 34.92L59.4103 42H56.0503ZM58.6903 39.32L59.7503 36.76H66.1903L67.2303 39.32H58.6903ZM71.717 42V28H78.017C78.9104 28 79.717 28.1933 80.437 28.58C81.1704 28.9667 81.7437 29.5 82.157 30.18C82.5704 30.8467 82.777 31.6067 82.777 32.46C82.777 33.34 82.5704 34.1333 82.157 34.84C81.7437 35.5333 81.177 36.08 80.457 36.48C79.737 36.88 78.9237 37.08 78.017 37.08H74.957V42H71.717ZM79.477 42L75.917 35.68L79.397 35.18L83.357 42H79.477ZM74.957 34.48H77.717C78.0637 34.48 78.3637 34.4067 78.617 34.26C78.8837 34.1 79.0837 33.88 79.217 33.6C79.3637 33.32 79.437 33 79.437 32.64C79.437 32.28 79.357 31.9667 79.197 31.7C79.037 31.42 78.8037 31.2067 78.497 31.06C78.2037 30.9133 77.8437 30.84 77.417 30.84H74.957V34.48ZM88.4094 42V31H84.2494V28H96.0694V31H91.8094V42H88.4094Z" fill="#FBFEF9"/>
</svg>
