<svg width="128" height="128" viewBox="0 0 128 128" fill="none" xmlns="http://www.w3.org/2000/svg">
<path fill-rule="evenodd" clip-rule="evenodd" d="M22 78V50C22 44.4772 26.4772 40 32 40H96C101.523 40 106 44.4772 106 50V78C106 80.4447 105.123 82.6846 103.666 84.4219C105.71 84.9012 107.604 85.7726 109.263 86.9524C110.991 84.3975 112 81.3166 112 78V50C112 41.1634 104.837 34 96 34H32C23.1634 34 16 41.1634 16 50V78C16 86.8366 23.1634 94 32 94H72V88H32C26.4771 88 22 83.5228 22 78Z" fill="#C8CED0"/>
<path d="M91 81V68C91 61.9249 86.0751 57 80 57C73.9249 57 69 61.9249 69 68V108V111H72H88H116H119V108V100C119 89.5066 110.493 81 100 81H91Z" fill="#FBFEF9" stroke="#FBFEF9" stroke-width="6"/>
</svg>
