<svg width="128" height="128" viewBox="0 0 128 128" fill="none" xmlns="http://www.w3.org/2000/svg">
<path fill-rule="evenodd" clip-rule="evenodd" d="M112.62 83.981C110.686 86.4208 105.948 88.1612 105.948 88.1612L70.7022 100.821V91.4848L96.6406 82.2428C99.5841 81.1881 100.036 79.6973 97.6435 78.9147C95.2554 78.1299 90.9312 78.3548 87.9855 79.4139L70.7022 85.5011V75.8116L71.6984 75.4743C71.6984 75.4743 76.6927 73.7068 83.7153 72.9288C90.7378 72.1553 99.3367 73.0345 106.087 75.5935C113.694 77.9973 114.551 81.5412 112.62 83.981ZM74.0573 68.0829V44.2066C74.0573 41.4025 73.5401 38.8211 70.9091 38.0903C68.8943 37.4449 67.6441 39.3158 67.6441 42.1176V101.91L51.5189 96.7916V25.5C58.3751 26.7727 68.3636 29.7815 73.7334 31.5916C87.3896 36.2801 92.0196 42.1154 92.0196 55.2633C92.0196 68.0784 84.1088 72.9355 74.0573 68.0829ZM21.931 90.5088C14.1214 88.3097 12.8217 83.7269 16.3813 81.0869C19.6711 78.6494 25.2658 76.8145 25.2658 76.8145L48.3865 68.5934V77.9658L31.7487 83.9203C28.8097 84.9749 28.3577 86.468 30.7458 87.2505C33.1361 88.0331 37.4625 87.8104 40.406 86.7536L48.3865 83.8573V92.2426C47.8806 92.3325 47.3162 92.4224 46.7945 92.5101C38.8117 93.8144 30.3095 93.2702 21.931 90.5088Z" fill="#191923"/>
</svg>
