<svg width="128" height="128" viewBox="0 0 128 128" fill="none" xmlns="http://www.w3.org/2000/svg">
<path d="M49 20V49H20C16.134 49 13 52.134 13 56V64V72C13 75.866 16.134 79 20 79H49V108C49 111.866 52.134 115 56 115H64H72C75.866 115 79 111.866 79 108V79H108C111.866 79 115 75.866 115 72V64V56C115 52.134 111.866 49 108 49H79V20C79 16.134 75.866 13 72 13H64H56C52.134 13 49 16.134 49 20Z" stroke="#2E2836" stroke-width="6"/>
<path d="M79 73L79 55L108 55C108.552 55 109 55.4477 109 56L109 64L109 72C109 72.5523 108.552 73 108 73L79 73Z" fill="#191923" stroke="#C8CED0" stroke-width="6"/>
</svg>
