<svg width="128" height="128" viewBox="0 0 128 128" fill="none" xmlns="http://www.w3.org/2000/svg">
<path d="M49 20V49H20C16.134 49 13 52.134 13 56V64V72C13 75.866 16.134 79 20 79H49V108C49 111.866 52.134 115 56 115H64H72C75.866 115 79 111.866 79 108V79H108C111.866 79 115 75.866 115 72V64V56C115 52.134 111.866 49 108 49H79V20C79 16.134 75.866 13 72 13H64H56C52.134 13 49 16.134 49 20Z" stroke="#2E2836" stroke-width="6"/>
<path d="M55 79H73V108C73 108.552 72.5523 109 72 109H64H56C55.4477 109 55 108.552 55 108V79Z" fill="#191923" stroke="#C8CED0" stroke-width="6"/>
<path d="M49 55L49 73L20 73C19.4477 73 19 72.5523 19 72L19 64L19 56C19 55.4477 19.4477 55 20 55L49 55Z" fill="#191923" stroke="#C8CED0" stroke-width="6"/>
</svg>
