<svg width="128" height="128" viewBox="0 0 128 128" fill="none" xmlns="http://www.w3.org/2000/svg">
<path d="M109 20V88C109 99.598 99.598 109 88 109H48C31.9837 109 19 96.0163 19 80V20C19 19.4477 19.4477 19 20 19H108C108.552 19 109 19.4477 109 20Z" fill="#FBFEF9" stroke="#C8CED0" stroke-width="6"/>
<path d="M44.335 76V53.6H49.775V71.2H63.343V76H44.335ZM75.62 74.432V56.256L76.9 58.272L71.236 61.088L70.052 56.384L76.292 53.28H80.964V74.432H75.62ZM70.5 76V71.2H85.412V76H70.5Z" fill="#191923"/>
</svg>
