<svg width="128" height="128" viewBox="0 0 128 128" fill="none" xmlns="http://www.w3.org/2000/svg">
<circle cx="64" cy="64" r="45" fill="#FBFEF9" stroke="#C8CED0" stroke-width="6"/>
<path d="M43.5068 81.6357L60.2108 48.0357H67.8908L84.4988 81.6357H76.0508L66.1148 61.7157C65.7628 61.0117 65.4428 60.3557 65.1548 59.7477C64.8668 59.1077 64.5948 58.4997 64.3388 57.9237C64.0828 57.3157 63.8428 56.7237 63.6188 56.1477C63.4268 55.5397 63.2188 54.9157 62.9948 54.2757L64.8668 54.2277C64.6428 54.8997 64.4028 55.5557 64.1468 56.1957C63.9228 56.8037 63.6668 57.4117 63.3788 58.0197C63.1228 58.6277 62.8508 59.2517 62.5628 59.8917C62.2748 60.4997 61.9708 61.1237 61.6508 61.7637L51.7628 81.6357H43.5068ZM51.2348 75.6837L53.9228 69.5397H74.0348L75.1388 75.6837H51.2348Z" fill="#191923"/>
</svg>
