<svg width="128" height="128" viewBox="0 0 128 128" fill="none" xmlns="http://www.w3.org/2000/svg">
<circle cx="64" cy="64" r="45" stroke="#32936F" stroke-width="6"/>
<path d="M43.5069 81.6357L60.2109 48.0357H67.8909L84.4989 81.6357H76.0509L66.1149 61.7157C65.7629 61.0117 65.4429 60.3557 65.1549 59.7477C64.8669 59.1077 64.5949 58.4997 64.3389 57.9237C64.0829 57.3157 63.8429 56.7237 63.6189 56.1477C63.4269 55.5397 63.2189 54.9157 62.9949 54.2757L64.8669 54.2277C64.6429 54.8997 64.4029 55.5557 64.1469 56.1957C63.9229 56.8037 63.6669 57.4117 63.3789 58.0197C63.1229 58.6277 62.8509 59.2517 62.5629 59.8917C62.2749 60.4997 61.9709 61.1237 61.6509 61.7637L51.7629 81.6357H43.5069ZM51.2349 75.6837L53.9229 69.5397H74.0349L75.1389 75.6837H51.2349Z" fill="#32936F"/>
</svg>
