<svg width="128" height="128" viewBox="0 0 128 128" fill="none" xmlns="http://www.w3.org/2000/svg">
<circle cx="64" cy="64" r="45" fill="#FBFEF9" stroke="#C8CED0" stroke-width="6"/>
<path d="M41.6443 81.6357V48.0357H46.8283V76.6437H62.5723V81.6357H41.6443ZM77.7227 82.1157C75.3547 82.1157 73.2907 81.5717 71.5307 80.4837C69.8027 79.3957 68.1707 77.5717 66.6347 75.0117L70.6667 72.4677C71.4667 73.6517 72.2507 74.6277 73.0187 75.3957C73.8187 76.1317 74.6347 76.6757 75.4667 77.0277C76.2987 77.3797 77.1787 77.5557 78.1067 77.5557C79.2267 77.5557 80.2667 77.2837 81.2267 76.7397C82.1867 76.1637 82.9547 75.3797 83.5307 74.3877C84.1067 73.3957 84.3947 72.2757 84.3947 71.0277C84.3947 69.7797 84.1707 68.7237 83.7227 67.8597C83.2747 66.9637 82.6187 66.2917 81.7547 65.8437C80.8907 65.3637 79.8667 65.1237 78.6827 65.1237C78.1387 65.1237 77.5627 65.1877 76.9547 65.3157C76.3787 65.4117 75.7547 65.5717 75.0827 65.7957C74.4107 65.9877 73.6747 66.2437 72.8747 66.5637L71.4347 62.7717L81.8027 51.3477L82.8107 52.8357H68.5067V48.0357H87.7547L88.7147 49.9557L77.7227 62.1477L76.5227 60.8997C76.7787 60.7717 77.1947 60.6597 77.7707 60.5637C78.3787 60.4357 78.8747 60.3717 79.2587 60.3717C80.6667 60.3717 81.9787 60.6437 83.1947 61.1877C84.4427 61.6997 85.5147 62.4357 86.4107 63.3957C87.3387 64.3237 88.0587 65.4277 88.5707 66.7077C89.1147 67.9557 89.3867 69.2997 89.3867 70.7397C89.3867 72.9157 88.8587 74.8677 87.8027 76.5957C86.7787 78.2917 85.3867 79.6357 83.6267 80.6277C81.8667 81.6197 79.8987 82.1157 77.7227 82.1157Z" fill="#191923"/>
</svg>
