<svg width="128" height="128" viewBox="0 0 128 128" fill="none" xmlns="http://www.w3.org/2000/svg">
<g clip-path="url(#clip0_123_10192)">
<path d="M76 48.5H108C108.828 48.5 109.5 49.1716 109.5 50V58V75C109.5 75.8284 108.828 76.5 108 76.5H98C94.4101 76.5 91.5 79.4101 91.5 83V88V102C91.5 102.828 90.8284 103.5 90 103.5H64H38C37.1716 103.5 36.5 102.828 36.5 102V88V83C36.5 79.4101 33.5899 76.5 30 76.5H20C19.1716 76.5 18.5 75.8284 18.5 75V58V50C18.5 49.1716 19.1716 48.5 20 48.5H52H76Z" fill="#FBFEF9" stroke="#C8CED0" stroke-width="5"/>
<path d="M47.5314 92V69.6H57.0674C58.3474 69.6 59.5207 69.92 60.5874 70.56C61.6754 71.1787 62.5394 72.032 63.1794 73.12C63.8194 74.1867 64.1394 75.392 64.1394 76.736C64.1394 77.952 63.8194 79.0827 63.1794 80.128C62.5394 81.1733 61.6861 82.016 60.6194 82.656C59.5527 83.2747 58.3687 83.584 57.0674 83.584H50.9874V92H47.5314ZM60.8434 92L55.1474 81.888L58.6994 81.088L65.0354 92.032L60.8434 92ZM50.9874 80.256H57.3874C58.0061 80.256 58.5607 80.1067 59.0514 79.808C59.5421 79.488 59.9261 79.0613 60.2034 78.528C60.4807 77.9733 60.6194 77.3653 60.6194 76.704C60.6194 75.9573 60.4381 75.3067 60.0754 74.752C59.7341 74.176 59.2434 73.728 58.6034 73.408C57.9847 73.088 57.2807 72.928 56.4914 72.928H50.9874V80.256ZM74.6774 92.32C73.0987 92.32 71.7227 91.9573 70.5494 91.232C69.3974 90.5067 68.3094 89.2907 67.2854 87.584L69.9734 85.888C70.5067 86.6773 71.0294 87.328 71.5414 87.84C72.0747 88.3307 72.6187 88.6933 73.1734 88.928C73.7281 89.1627 74.3147 89.28 74.9334 89.28C75.6801 89.28 76.3734 89.0987 77.0134 88.736C77.6534 88.352 78.1654 87.8293 78.5494 87.168C78.9334 86.5067 79.1254 85.76 79.1254 84.928C79.1254 84.096 78.9761 83.392 78.6774 82.816C78.3787 82.2187 77.9414 81.7707 77.3654 81.472C76.7894 81.152 76.1067 80.992 75.3174 80.992C74.9547 80.992 74.5707 81.0347 74.1654 81.12C73.7814 81.184 73.3654 81.2907 72.9174 81.44C72.4694 81.568 71.9787 81.7387 71.4454 81.952L70.4854 79.424L77.3974 71.808L78.0694 72.8H68.5334V69.6H81.3654L82.0054 70.88L74.6774 79.008L73.8774 78.176C74.0481 78.0907 74.3254 78.016 74.7094 77.952C75.1147 77.8667 75.4454 77.824 75.7014 77.824C76.6401 77.824 77.5147 78.0053 78.3254 78.368C79.1574 78.7093 79.8721 79.2 80.4694 79.84C81.0881 80.4587 81.5681 81.1947 81.9094 82.048C82.2721 82.88 82.4534 83.776 82.4534 84.736C82.4534 86.1867 82.1014 87.488 81.3974 88.64C80.7147 89.7707 79.7867 90.6667 78.6134 91.328C77.4401 91.9893 76.1281 92.32 74.6774 92.32Z" fill="#191923"/>
<path d="M64.9412 39.498C64.3529 39.8118 63.6471 39.8118 63.0588 39.498L41.0588 27.7647C39.2217 26.7849 39.9179 24 42 24L86 24C88.0821 24 88.7783 26.7849 86.9412 27.7647L64.9412 39.498Z" fill="#FBFEF9"/>
</g>
<defs>
<clipPath id="clip0_123_10192">
<rect width="128" height="128" fill="white"/>
</clipPath>
</defs>
</svg>
