<svg width="128" height="128" viewBox="0 0 128 128" fill="none" xmlns="http://www.w3.org/2000/svg">
<path d="M108 103H20C19.4477 103 19 102.552 19 102V54C19 37.9837 31.9837 25 48 25H80C96.0163 25 109 37.9837 109 54V102C109 102.552 108.552 103 108 103Z" stroke="#C8CED0" stroke-width="6"/>
<path d="M41.9913 85V62.6H54.4073C56.1353 62.6 57.6073 62.8987 58.8233 63.496C60.0606 64.072 61.0099 64.904 61.6713 65.992C62.3539 67.0587 62.6953 68.3173 62.6953 69.768C62.6953 71.1973 62.3219 72.4773 61.5753 73.608C60.8499 74.7387 59.8579 75.6347 58.5993 76.296C57.3619 76.936 55.9646 77.256 54.4073 77.256H47.1753V85H41.9913ZM57.6393 85L50.4073 74.888L56.0713 74.088L63.9433 85H57.6393ZM47.1753 73.096H53.7993C54.4179 73.096 54.9833 72.968 55.4953 72.712C56.0073 72.456 56.4233 72.104 56.7433 71.656C57.0633 71.1867 57.2233 70.6427 57.2233 70.024C57.2233 69.448 57.0633 68.9467 56.7433 68.52C56.4233 68.072 55.9966 67.7307 55.4633 67.496C54.9299 67.2613 54.3219 67.144 53.6393 67.144H47.1753V73.096ZM71.3058 85L70.1538 81.832L76.8098 75.944C77.4284 75.3893 78.0471 74.824 78.6658 74.248C79.2844 73.6507 79.8604 73.0533 80.3938 72.456C80.9271 71.8373 81.3538 71.2507 81.6738 70.696C82.0151 70.12 82.1858 69.5973 82.1858 69.128C82.1858 68.68 82.0684 68.2853 81.8338 67.944C81.6204 67.6027 81.3004 67.336 80.8738 67.144C80.4471 66.9307 79.9244 66.824 79.3058 66.824C78.6871 66.824 78.0578 66.9413 77.4178 67.176C76.7991 67.4107 76.2018 67.7947 75.6258 68.328C75.0498 68.84 74.4844 69.5227 73.9298 70.376L69.9298 68.04C70.6124 66.9307 71.4444 65.928 72.4258 65.032C73.4284 64.1147 74.5591 63.4 75.8177 62.888C77.0978 62.3547 78.4631 62.088 79.9138 62.088C81.4498 62.088 82.7938 62.3653 83.9458 62.92C85.1191 63.4747 86.0258 64.232 86.6658 65.192C87.3271 66.152 87.6578 67.2507 87.6578 68.488C87.6578 69.1707 87.5404 69.8427 87.3058 70.504C87.0711 71.1653 86.7404 71.816 86.3138 72.456C85.8871 73.096 85.3964 73.7253 84.8418 74.344C84.3084 74.9413 83.7324 75.5387 83.1138 76.136C82.4951 76.7333 81.8551 77.2987 81.1938 77.832L75.3058 82.984L75.1458 80.2H88.6498V85H71.3058Z" fill="#FBFEF9"/>
</svg>
