<svg width="128" height="128" viewBox="0 0 128 128" fill="none" xmlns="http://www.w3.org/2000/svg">
<path d="M52 19H76H96C103.18 19 109 24.8203 109 32V35.2V54.4V96C109 103.18 103.18 109 96 109H76H64H52H32C24.8203 109 19 103.18 19 96V54.4V32C19 24.8203 24.8203 19 32 19H52Z" stroke="#C8CED0" stroke-width="6"/>
<path d="M33.6431 44V34.2H35.7711L40.9091 41.2L40.4471 41.13C40.4005 40.822 40.3631 40.528 40.3351 40.248C40.3071 39.968 40.2791 39.6927 40.2511 39.422C40.2325 39.1513 40.2138 38.876 40.1951 38.596C40.1858 38.316 40.1765 38.0127 40.1671 37.686C40.1671 37.3593 40.1671 37.0047 40.1671 36.622V34.2H42.4771V44H40.3211L34.9591 36.776L35.6731 36.874C35.7198 37.322 35.7571 37.7047 35.7851 38.022C35.8225 38.33 35.8505 38.6053 35.8691 38.848C35.8971 39.0907 35.9158 39.31 35.9251 39.506C35.9345 39.702 35.9391 39.898 35.9391 40.094C35.9485 40.2807 35.9531 40.4907 35.9531 40.724V44H33.6431ZM49.0661 44.084C48.2541 44.084 47.5308 43.9207 46.8961 43.594C46.2614 43.258 45.7621 42.8007 45.3981 42.222C45.0434 41.6433 44.8661 40.9807 44.8661 40.234V34.2H47.2741V40.108C47.2741 40.4627 47.3534 40.7847 47.5121 41.074C47.6708 41.354 47.8854 41.578 48.1561 41.746C48.4268 41.9047 48.7301 41.984 49.0661 41.984C49.4208 41.984 49.7334 41.9047 50.0041 41.746C50.2841 41.578 50.5081 41.354 50.6761 41.074C50.8441 40.7847 50.9281 40.4627 50.9281 40.108V34.2H53.2521V40.234C53.2521 40.9807 53.0701 41.6433 52.7061 42.222C52.3514 42.8007 51.8568 43.258 51.2221 43.594C50.5874 43.9207 49.8688 44.084 49.0661 44.084ZM55.6412 44V34.2H57.7692L61.3392 40.01L59.8132 39.996L63.4252 34.2H65.4692V44H63.1592V40.948C63.1592 40.108 63.1778 39.352 63.2152 38.68C63.2618 38.008 63.3365 37.3407 63.4392 36.678L63.7052 37.406L60.9892 41.62H60.0652L57.4052 37.434L57.6712 36.678C57.7738 37.3033 57.8438 37.9473 57.8812 38.61C57.9278 39.2633 57.9512 40.0427 57.9512 40.948V44H55.6412ZM67.9322 44V34.2H72.1602C72.7762 34.2 73.3222 34.34 73.7982 34.62C74.2835 34.9 74.6662 35.2827 74.9462 35.768C75.2355 36.2533 75.3802 36.7993 75.3802 37.406C75.3802 38.0407 75.2355 38.61 74.9462 39.114C74.6662 39.6087 74.2835 40.0007 73.7982 40.29C73.3222 40.5793 72.7762 40.724 72.1602 40.724H70.3122V44H67.9322ZM70.2702 38.638H71.8242C72.0295 38.638 72.2162 38.5867 72.3842 38.484C72.5522 38.3813 72.6875 38.2413 72.7902 38.064C72.8929 37.8867 72.9442 37.6813 72.9442 37.448C72.9442 37.2053 72.8929 37 72.7902 36.832C72.6875 36.664 72.5522 36.5333 72.3842 36.44C72.2162 36.3467 72.0295 36.3 71.8242 36.3H70.2702V38.638ZM75.0397 44L78.9177 34.2H80.9337L84.7837 44H82.3757L80.5277 39.03C80.453 38.834 80.3784 38.624 80.3037 38.4C80.229 38.176 80.1544 37.9473 80.0797 37.714C80.005 37.4713 79.9304 37.238 79.8557 37.014C79.7904 36.7807 79.7344 36.566 79.6877 36.37L80.1077 36.356C80.0517 36.5893 79.9864 36.818 79.9117 37.042C79.8464 37.266 79.7764 37.49 79.7017 37.714C79.6364 37.9287 79.5617 38.148 79.4777 38.372C79.3937 38.5867 79.3144 38.8107 79.2397 39.044L77.3917 44H75.0397ZM76.8877 42.124L77.6297 40.332H82.1377L82.8657 42.124H76.8877ZM86.0064 44V34.2H90.1084C90.8271 34.2 91.4851 34.3213 92.0824 34.564C92.6797 34.7973 93.1931 35.1333 93.6224 35.572C94.0611 36.0107 94.3971 36.5287 94.6304 37.126C94.8637 37.7233 94.9804 38.3813 94.9804 39.1C94.9804 39.8187 94.8637 40.4813 94.6304 41.088C94.3971 41.6853 94.0611 42.2033 93.6224 42.642C93.1931 43.0713 92.6797 43.4073 92.0824 43.65C91.4851 43.8833 90.8271 44 90.1084 44H86.0064ZM88.3864 42.376L88.0644 41.9H90.0384C90.4304 41.9 90.7804 41.8347 91.0884 41.704C91.3964 41.564 91.6577 41.3727 91.8724 41.13C92.0964 40.8873 92.2691 40.5933 92.3904 40.248C92.5117 39.9027 92.5724 39.52 92.5724 39.1C92.5724 38.68 92.5117 38.2973 92.3904 37.952C92.2691 37.6067 92.0964 37.3127 91.8724 37.07C91.6577 36.8273 91.3964 36.6407 91.0884 36.51C90.7804 36.37 90.4304 36.3 90.0384 36.3H88.0224L88.3864 35.852V42.376ZM55.6902 81.728V74.672H72.2982V81.728H55.6902Z" fill="#FBFEF9"/>
</svg>
