<svg width="128" height="128" viewBox="0 0 128 128" fill="none" xmlns="http://www.w3.org/2000/svg">
<path d="M52 19H76H96C103.18 19 109 24.8203 109 32V35.2V54.4V96C109 103.18 103.18 109 96 109H76H64H52H32C24.8203 109 19 103.18 19 96V54.4V32C19 24.8203 24.8203 19 32 19H52Z" stroke="#2E2836" stroke-width="6"/>
<path d="M28.9211 76L37.7851 53.6H42.3931L51.1931 76H45.6891L41.4651 64.64C41.2945 64.192 41.1238 63.712 40.9531 63.2C40.7825 62.688 40.6118 62.1653 40.4411 61.632C40.2705 61.0773 40.0998 60.544 39.9291 60.032C39.7798 59.4987 39.6518 59.008 39.5451 58.56L40.5051 58.528C40.3771 59.0613 40.2278 59.584 40.0571 60.096C39.9078 60.608 39.7478 61.12 39.5771 61.632C39.4278 62.1227 39.2571 62.624 39.0651 63.136C38.8731 63.6267 38.6918 64.1387 38.5211 64.672L34.2971 76H28.9211ZM33.1451 71.712L34.8411 67.616H45.1451L46.8091 71.712H33.1451ZM53.9879 76V53.6H58.8519L70.5959 69.6L69.5399 69.44C69.4332 68.736 69.3479 68.064 69.2839 67.424C69.2199 66.784 69.1559 66.1547 69.0919 65.536C69.0492 64.9173 69.0065 64.288 68.9639 63.648C68.9425 63.008 68.9212 62.3147 68.8999 61.568C68.8999 60.8213 68.8999 60.0107 68.8999 59.136V53.6H74.1799V76H69.2519L56.9959 59.488L58.6279 59.712C58.7345 60.736 58.8199 61.6107 58.8839 62.336C58.9692 63.04 59.0332 63.6693 59.0759 64.224C59.1399 64.7787 59.1825 65.28 59.2039 65.728C59.2252 66.176 59.2359 66.624 59.2359 67.072C59.2572 67.4987 59.2679 67.9787 59.2679 68.512V76H53.9879ZM85.5924 76V64.832L85.8164 66.4L76.7604 53.6H82.9364L89.8484 63.52L87.0324 63.424L93.2724 53.6H99.2564L90.5844 66.752L91.0644 64.576V76H85.5924Z" fill="#191923"/>
</svg>
