<svg width="128" height="128" viewBox="0 0 128 128" fill="none" xmlns="http://www.w3.org/2000/svg">
<path d="M48 25H80H112C119.18 25 125 30.8203 125 38V38.8V55.6V90C125 97.1797 119.18 103 112 103H80H64H48H16C8.8203 103 3 97.1797 3 90V55.6V38C3 30.8203 8.8203 25 16 25H48Z" stroke="#2E2836" stroke-width="6"/>
<path d="M13.408 70V58.8H18.096C18.9173 58.8 19.6693 58.9387 20.352 59.216C21.0347 59.4827 21.6213 59.8667 22.112 60.368C22.6133 60.8693 22.9973 61.4613 23.264 62.144C23.5307 62.8267 23.664 63.5787 23.664 64.4C23.664 65.2213 23.5307 65.9787 23.264 66.672C22.9973 67.3547 22.6133 67.9467 22.112 68.448C21.6213 68.9387 21.0347 69.3227 20.352 69.6C19.6693 69.8667 18.9173 70 18.096 70H13.408ZM16.128 68.144L15.76 67.6H18.016C18.464 67.6 18.864 67.5253 19.216 67.376C19.568 67.216 19.8667 66.9973 20.112 66.72C20.368 66.4427 20.5653 66.1067 20.704 65.712C20.8427 65.3173 20.912 64.88 20.912 64.4C20.912 63.92 20.8427 63.4827 20.704 63.088C20.5653 62.6933 20.368 62.3573 20.112 62.08C19.8667 61.8027 19.568 61.5893 19.216 61.44C18.864 61.28 18.464 61.2 18.016 61.2H15.712L16.128 60.688V68.144ZM25.7674 70V58.8H33.5754V61.12H28.4074V67.68H33.7354V70H25.7674ZM27.0474 65.408V63.2H32.8554V65.408H27.0474ZM36.0799 70V58.8H38.7999V67.6H43.7919V70H36.0799ZM45.8299 70V58.8H53.6379V61.12H48.4699V67.68H53.7979V70H45.8299ZM47.1099 65.408V63.2H52.9179V65.408H47.1099ZM58.5744 70V61.2H55.2464V58.8H64.7024V61.2H61.2944V70H58.5744ZM66.6268 70V58.8H74.4348V61.12H69.2668V67.68H74.5948V70H66.6268ZM67.9068 65.408V63.2H73.7148V65.408H67.9068Z" fill="#191923"/>
</svg>
