<svg width="128" height="128" viewBox="0 0 128 128" fill="none" xmlns="http://www.w3.org/2000/svg">
<path d="M48 25H80H112C119.18 25 125 30.8203 125 38V38.8V55.6V90C125 97.1797 119.18 103 112 103H80H64H48H16C8.8203 103 3 97.1797 3 90V55.6V38C3 30.8203 8.8203 25 16 25H48Z" stroke="#2E2836" stroke-width="6"/>
<path d="M14.112 91V74.2H25.824V77.68H18.072V87.52H26.064V91H14.112ZM16.032 84.112V80.8H24.744V84.112H16.032ZM29.5808 91V74.2H33.2288L42.0368 86.2L41.2448 86.08C41.1648 85.552 41.1008 85.048 41.0528 84.568C41.0048 84.088 40.9568 83.616 40.9088 83.152C40.8768 82.688 40.8448 82.216 40.8128 81.736C40.7968 81.256 40.7808 80.736 40.7648 80.176C40.7648 79.616 40.7648 79.008 40.7648 78.352V74.2H44.7248V91H41.0287L31.8368 78.616L33.0608 78.784C33.1408 79.552 33.2048 80.208 33.2528 80.752C33.3168 81.28 33.3648 81.752 33.3968 82.168C33.4448 82.584 33.4768 82.96 33.4928 83.296C33.5088 83.632 33.5168 83.968 33.5168 84.304C33.5328 84.624 33.5408 84.984 33.5408 85.384V91H29.5808ZM52.5881 91V77.8H47.5961V74.2H61.7801V77.8H56.6681V91H52.5881ZM64.6667 91V74.2H76.3787V77.68H68.6267V87.52H76.6187V91H64.6667ZM66.5867 84.112V80.8H75.2987V84.112H66.5867ZM80.1354 91V74.2H87.6954C88.7674 74.2 89.7354 74.432 90.5994 74.896C91.4794 75.36 92.1674 76 92.6634 76.816C93.1594 77.616 93.4074 78.528 93.4074 79.552C93.4074 80.608 93.1594 81.56 92.6634 82.408C92.1674 83.24 91.4874 83.896 90.6234 84.376C89.7594 84.856 88.7834 85.096 87.6954 85.096H84.0234V91H80.1354ZM89.4474 91L85.1754 83.416L89.3514 82.816L94.1034 91H89.4474ZM84.0234 81.976H87.3354C87.7514 81.976 88.1114 81.888 88.4154 81.712C88.7354 81.52 88.9754 81.256 89.1354 80.92C89.3114 80.584 89.3994 80.2 89.3994 79.768C89.3994 79.336 89.3034 78.96 89.1114 78.64C88.9194 78.304 88.6394 78.048 88.2714 77.872C87.9194 77.696 87.4874 77.608 86.9754 77.608H84.0234V81.976Z" fill="#191923"/>
<path d="M23.9659 61.8551L15.554 53.5455L23.9659 45.2358V61.8551ZM21.3068 55.4375V51.6534H44.4972V55.4375H21.3068ZM40.8281 55.4375V38.8182H44.5739V55.4375H40.8281Z" fill="#191923"/>
</svg>
