<svg width="128" height="128" viewBox="0 0 128 128" fill="none" xmlns="http://www.w3.org/2000/svg">
<path d="M52 11H76H96C103.18 11 109 16.8203 109 24V30.4V52.8V104C109 111.18 103.18 117 96 117H76H64H52H32C24.8203 117 19 111.18 19 104V52.8V24C19 16.8203 24.8203 11 32 11H52Z" stroke="#2E2836" stroke-width="6"/>
<path d="M53.728 46.24V42.496H61.456L61.312 46.24H82.72V53.248H61.12C61.072 54.16 61.072 55.36 61.072 56.32C61.984 56.224 63.568 56.032 66.016 56.032C77.104 56.032 84.928 60.928 84.928 70.384C84.928 83.68 70.144 84.592 65.536 84.88L63.376 78.208C68.944 77.92 70.624 77.824 73.312 76.384C75.664 75.136 77.392 72.736 77.392 69.904C77.392 69.232 77.392 64.912 71.968 63.136C69.808 71.008 61.792 82.48 51.952 82.48C43.456 82.48 42.544 76 42.544 73.072C42.544 65.488 48.688 60.448 53.776 58.24C53.68 55.744 53.68 54.304 53.68 53.248H44.368V46.24H53.728ZM62.032 69.616C64.288 66.496 65.056 64.144 65.728 62.128C64.528 62.08 63.232 62.08 61.216 62.416C61.36 64.816 61.504 67.168 62.032 69.616ZM56.368 74.944C55.552 72.736 54.88 69.952 54.304 65.2C53.248 65.968 49.6 68.512 49.6 72.448C49.6 73.024 49.744 75.952 52.912 75.952C53.392 75.952 54.736 75.904 56.368 74.944Z" fill="#191923"/>
</svg>
