<svg width="128" height="128" viewBox="0 0 128 128" fill="none" xmlns="http://www.w3.org/2000/svg">
<path d="M52 19H76H96C103.18 19 109 24.8203 109 32V35.2V54.4V96C109 103.18 103.18 109 96 109H76H64H52H32C24.8203 109 19 103.18 19 96V54.4V32C19 24.8203 24.8203 19 32 19H52Z" stroke="#2E2836" stroke-width="6"/>
<path d="M39.1686 73V56.2H43.2486V73H39.1686ZM28.7526 73V56.2H32.8326V73H28.7526ZM30.3366 66.448L30.3606 62.8H41.3286V66.448H30.3366ZM55.1118 73.24C53.8318 73.24 52.6638 73.024 51.6078 72.592C50.5518 72.16 49.6318 71.552 48.8478 70.768C48.0638 69.984 47.4558 69.064 47.0238 68.008C46.5918 66.952 46.3758 65.792 46.3758 64.528C46.3758 63.264 46.5918 62.104 47.0238 61.048C47.4558 59.992 48.0638 59.072 48.8478 58.288C49.6318 57.504 50.5518 56.896 51.6078 56.464C52.6638 56.032 53.8238 55.816 55.0878 55.816C56.3518 55.816 57.5118 56.032 58.5677 56.464C59.6238 56.896 60.5438 57.504 61.3278 58.288C62.1118 59.072 62.7118 59.992 63.1278 61.048C63.5598 62.104 63.7758 63.264 63.7758 64.528C63.7758 65.776 63.5598 66.936 63.1278 68.008C62.7118 69.064 62.1118 69.984 61.3278 70.768C60.5438 71.552 59.6238 72.16 58.5677 72.592C57.5118 73.024 56.3598 73.24 55.1118 73.24ZM55.0878 69.4C55.7438 69.4 56.3438 69.28 56.8878 69.04C57.4478 68.8 57.9278 68.464 58.3278 68.032C58.7438 67.584 59.0638 67.064 59.2878 66.472C59.5118 65.88 59.6238 65.232 59.6238 64.528C59.6238 63.824 59.5118 63.176 59.2878 62.584C59.0638 61.992 58.7438 61.48 58.3278 61.048C57.9278 60.6 57.4478 60.256 56.8878 60.016C56.3438 59.776 55.7438 59.656 55.0878 59.656C54.4318 59.656 53.8238 59.776 53.2638 60.016C52.7198 60.256 52.2398 60.6 51.8238 61.048C51.4078 61.48 51.0878 61.992 50.8638 62.584C50.6558 63.176 50.5518 63.824 50.5518 64.528C50.5518 65.232 50.6558 65.888 50.8638 66.496C51.0878 67.088 51.4078 67.6 51.8238 68.032C52.2398 68.464 52.7198 68.8 53.2638 69.04C53.8238 69.28 54.4318 69.4 55.0878 69.4ZM66.9323 73V56.2H70.5803L76.7003 66.16L74.0843 66.136L80.2763 56.2H83.7803V73H79.8203V67.768C79.8203 66.328 79.8523 65.032 79.9163 63.88C79.9963 62.728 80.1243 61.584 80.3003 60.448L80.7563 61.696L76.1003 68.92H74.5163L69.9563 61.744L70.4123 60.448C70.5883 61.52 70.7083 62.624 70.7723 63.76C70.8523 64.88 70.8923 66.216 70.8923 67.768V73H66.9323ZM88.0026 73V56.2H99.7146V59.68H91.9626V69.52H99.9546V73H88.0026ZM89.9226 66.112V62.8H98.6346V66.112H89.9226Z" fill="#191923"/>
</svg>
