<svg width="128" height="128" viewBox="0 0 128 128" fill="none" xmlns="http://www.w3.org/2000/svg">
<path d="M52 11H76H96C103.18 11 109 16.8203 109 24V30.4V52.8V104C109 111.18 103.18 117 96 117H76H64H52H32C24.8203 117 19 111.18 19 104V52.8V24C19 16.8203 24.8203 11 32 11H52Z" stroke="#2E2836" stroke-width="6"/>
<path d="M33.1336 68V63.424H36.9096V50.176H33.1336V45.6H46.1576V50.176H42.3496V63.424H46.1576V68H33.1336ZM51.3316 68V45.6H56.1956L64.3556 58.88L60.8676 58.848L69.1236 45.6H73.7956V68H68.5156V61.024C68.5156 59.104 68.5583 57.376 68.6436 55.84C68.7503 54.304 68.921 52.7787 69.1556 51.264L69.7636 52.928L63.5556 62.56H61.4436L55.3636 52.992L55.9716 51.264C56.2063 52.6933 56.3663 54.1653 56.4516 55.68C56.5583 57.1733 56.6116 58.9547 56.6116 61.024V68H51.3316ZM79.4254 68V45.6H95.0414V50.24H84.7054V63.36H95.3614V68H79.4254ZM81.9854 58.816V54.4H93.6014V58.816H81.9854ZM30.4413 88.16C29.5986 88.16 28.82 88.0213 28.1053 87.744C27.4013 87.456 26.788 87.056 26.2653 86.544C25.7426 86.0213 25.3373 85.408 25.0493 84.704C24.772 83.9893 24.6333 83.2053 24.6333 82.352C24.6333 81.52 24.7826 80.752 25.0813 80.048C25.38 79.344 25.7906 78.736 26.3133 78.224C26.8466 77.7013 27.4706 77.296 28.1853 77.008C28.9106 76.72 29.7 76.576 30.5533 76.576C31.0866 76.576 31.6093 76.6453 32.1213 76.784C32.6333 76.9227 33.108 77.1307 33.5453 77.408C33.9933 77.6747 34.3773 77.9947 34.6973 78.368L33.0333 80.272C32.8093 80.0373 32.5693 79.8347 32.3133 79.664C32.068 79.4827 31.796 79.344 31.4973 79.248C31.1986 79.152 30.8786 79.104 30.5373 79.104C30.1106 79.104 29.7053 79.184 29.3213 79.344C28.948 79.4933 28.6173 79.712 28.3293 80C28.052 80.2773 27.8333 80.6187 27.6733 81.024C27.5133 81.4293 27.4333 81.8827 27.4333 82.384C27.4333 82.8747 27.5133 83.3227 27.6733 83.728C27.8333 84.1227 28.0573 84.464 28.3453 84.752C28.6333 85.04 28.98 85.2587 29.3853 85.408C29.8013 85.5573 30.26 85.632 30.7613 85.632C31.1026 85.632 31.428 85.584 31.7373 85.488C32.0466 85.392 32.3293 85.264 32.5853 85.104C32.852 84.9333 33.0866 84.7413 33.2893 84.528L34.6013 86.608C34.3346 86.9067 33.9773 87.1733 33.5293 87.408C33.092 87.6427 32.6013 87.8293 32.0573 87.968C31.524 88.096 30.9853 88.16 30.4413 88.16ZM41.5667 88.16C40.7134 88.16 39.9347 88.016 39.2307 87.728C38.5267 87.44 37.9134 87.0347 37.3907 86.512C36.868 85.9893 36.4627 85.376 36.1747 84.672C35.8867 83.968 35.7427 83.1947 35.7427 82.352C35.7427 81.5093 35.8867 80.736 36.1747 80.032C36.4627 79.328 36.868 78.7147 37.3907 78.192C37.9134 77.6693 38.5267 77.264 39.2307 76.976C39.9347 76.688 40.708 76.544 41.5507 76.544C42.3934 76.544 43.1667 76.688 43.8707 76.976C44.5747 77.264 45.188 77.6693 45.7107 78.192C46.2334 78.7147 46.6334 79.328 46.9107 80.032C47.1987 80.736 47.3427 81.5093 47.3427 82.352C47.3427 83.184 47.1987 83.9573 46.9107 84.672C46.6334 85.376 46.2334 85.9893 45.7107 86.512C45.188 87.0347 44.5747 87.44 43.8707 87.728C43.1667 88.016 42.3987 88.16 41.5667 88.16ZM41.5507 85.6C41.988 85.6 42.388 85.52 42.7507 85.36C43.124 85.2 43.444 84.976 43.7107 84.688C43.988 84.3893 44.2014 84.0427 44.3507 83.648C44.5 83.2533 44.5747 82.8213 44.5747 82.352C44.5747 81.8827 44.5 81.4507 44.3507 81.056C44.2014 80.6613 43.988 80.32 43.7107 80.032C43.444 79.7333 43.124 79.504 42.7507 79.344C42.388 79.184 41.988 79.104 41.5507 79.104C41.1134 79.104 40.708 79.184 40.3347 79.344C39.972 79.504 39.652 79.7333 39.3747 80.032C39.0974 80.32 38.884 80.6613 38.7347 81.056C38.596 81.4507 38.5267 81.8827 38.5267 82.352C38.5267 82.8213 38.596 83.2587 38.7347 83.664C38.884 84.0587 39.0974 84.4 39.3747 84.688C39.652 84.976 39.972 85.2 40.3347 85.36C40.708 85.52 41.1134 85.6 41.5507 85.6ZM49.4471 88V76.8H51.8791L57.7511 84.8L57.2231 84.72C57.1697 84.368 57.1271 84.032 57.0951 83.712C57.0631 83.392 57.0311 83.0773 56.9991 82.768C56.9777 82.4587 56.9564 82.144 56.9351 81.824C56.9244 81.504 56.9137 81.1573 56.9031 80.784C56.9031 80.4107 56.9031 80.0053 56.9031 79.568V76.8H59.5431V88H57.0791L50.9511 79.744L51.7671 79.856C51.8204 80.368 51.8631 80.8053 51.8951 81.168C51.9377 81.52 51.9697 81.8347 51.9911 82.112C52.0231 82.3893 52.0444 82.64 52.0551 82.864C52.0657 83.088 52.0711 83.312 52.0711 83.536C52.0817 83.7493 52.0871 83.9893 52.0871 84.256V88H49.4471ZM65.4893 88L61.0093 76.8H63.8413L66.0013 82.512C66.1293 82.8427 66.236 83.1307 66.3213 83.376C66.4173 83.6213 66.4973 83.8507 66.5613 84.064C66.636 84.2773 66.7 84.496 66.7533 84.72C66.8173 84.9333 66.8866 85.1787 66.9613 85.456H66.4653C66.5506 85.0933 66.636 84.7733 66.7213 84.496C66.8066 84.208 66.9026 83.9147 67.0093 83.616C67.116 83.3067 67.2493 82.9387 67.4093 82.512L69.4893 76.8H72.2733L67.7613 88H65.4893ZM73.7439 88V76.8H81.5519V79.12H76.3839V85.68H81.7119V88H73.7439ZM75.0239 83.408V81.2H80.8319V83.408H75.0239ZM84.0564 88V76.8H89.0964C89.8111 76.8 90.4564 76.9547 91.0324 77.264C91.6191 77.5733 92.0778 78 92.4084 78.544C92.7391 79.0773 92.9044 79.6853 92.9044 80.368C92.9044 81.072 92.7391 81.7067 92.4084 82.272C92.0778 82.8267 91.6244 83.264 91.0484 83.584C90.4724 83.904 89.8218 84.064 89.0964 84.064H86.6484V88H84.0564ZM90.2644 88L87.4164 82.944L90.2004 82.544L93.3684 88H90.2644ZM86.6484 81.984H88.8564C89.1338 81.984 89.3738 81.9253 89.5764 81.808C89.7898 81.68 89.9498 81.504 90.0564 81.28C90.1738 81.056 90.2324 80.8 90.2324 80.512C90.2324 80.224 90.1684 79.9733 90.0404 79.76C89.9124 79.536 89.7258 79.3653 89.4804 79.248C89.2458 79.1307 88.9578 79.072 88.6164 79.072H86.6484V81.984ZM97.4103 88V79.2H94.0823V76.8H103.538V79.2H100.13V88H97.4103Z" fill="#191923"/>
</svg>
