<svg width="128" height="128" viewBox="0 0 128 128" fill="none" xmlns="http://www.w3.org/2000/svg">
<path d="M52 11H76H96C103.18 11 109 16.8203 109 24V30.4V52.8V104C109 111.18 103.18 117 96 117H76H64H52H32C24.8203 117 19 111.18 19 104V52.8V24C19 16.8203 24.8203 11 32 11H52Z" stroke="#2E2836" stroke-width="6"/>
<path d="M33.1336 68V63.424H36.9096V50.176H33.1336V45.6H46.1576V50.176H42.3496V63.424H46.1576V68H33.1336ZM51.3316 68V45.6H56.1956L64.3556 58.88L60.8676 58.848L69.1236 45.6H73.7956V68H68.5156V61.024C68.5156 59.104 68.5583 57.376 68.6436 55.84C68.7503 54.304 68.921 52.7787 69.1556 51.264L69.7636 52.928L63.5556 62.56H61.4436L55.3636 52.992L55.9716 51.264C56.2063 52.6933 56.3663 54.1653 56.4516 55.68C56.5583 57.1733 56.6116 58.9547 56.6116 61.024V68H51.3316ZM79.4254 68V45.6H95.0414V50.24H84.7054V63.36H95.3614V68H79.4254ZM81.9854 58.816V54.4H93.6014V58.816H81.9854ZM27.2283 88V76.8H32.0603C32.7643 76.8 33.3883 76.96 33.9323 77.28C34.487 77.6 34.9243 78.0373 35.2443 78.592C35.575 79.1467 35.7403 79.7707 35.7403 80.464C35.7403 81.1893 35.575 81.84 35.2443 82.416C34.9243 82.9813 34.487 83.4293 33.9323 83.76C33.3883 84.0907 32.7643 84.256 32.0603 84.256H29.9483V88H27.2283ZM29.9003 81.872H31.6763C31.911 81.872 32.1243 81.8133 32.3163 81.696C32.5083 81.5787 32.663 81.4187 32.7803 81.216C32.8976 81.0133 32.9563 80.7787 32.9563 80.512C32.9563 80.2347 32.8976 80 32.7803 79.808C32.663 79.616 32.5083 79.4667 32.3163 79.36C32.1243 79.2533 31.911 79.2 31.6763 79.2H29.9003V81.872ZM37.8221 88V76.8H42.8621C43.5767 76.8 44.2221 76.9547 44.7981 77.264C45.3847 77.5733 45.8434 78 46.1741 78.544C46.5047 79.0773 46.6701 79.6853 46.6701 80.368C46.6701 81.072 46.5047 81.7067 46.1741 82.272C45.8434 82.8267 45.3901 83.264 44.8141 83.584C44.2381 83.904 43.5874 84.064 42.8621 84.064H40.4141V88H37.8221ZM44.0301 88L41.1821 82.944L43.9661 82.544L47.1341 88H44.0301ZM40.4141 81.984H42.6221C42.8994 81.984 43.1394 81.9253 43.3421 81.808C43.5554 81.68 43.7154 81.504 43.8221 81.28C43.9394 81.056 43.9981 80.8 43.9981 80.512C43.9981 80.224 43.9341 79.9733 43.8061 79.76C43.6781 79.536 43.4914 79.3653 43.2461 79.248C43.0114 79.1307 42.7234 79.072 42.3821 79.072H40.4141V81.984ZM54.0042 88.16C53.1509 88.16 52.3722 88.016 51.6682 87.728C50.9642 87.44 50.3509 87.0347 49.8282 86.512C49.3055 85.9893 48.9002 85.376 48.6122 84.672C48.3242 83.968 48.1802 83.1947 48.1802 82.352C48.1802 81.5093 48.3242 80.736 48.6122 80.032C48.9002 79.328 49.3055 78.7147 49.8282 78.192C50.3509 77.6693 50.9642 77.264 51.6682 76.976C52.3722 76.688 53.1455 76.544 53.9882 76.544C54.8309 76.544 55.6042 76.688 56.3082 76.976C57.0122 77.264 57.6255 77.6693 58.1482 78.192C58.6709 78.7147 59.0709 79.328 59.3482 80.032C59.6362 80.736 59.7802 81.5093 59.7802 82.352C59.7802 83.184 59.6362 83.9573 59.3482 84.672C59.0709 85.376 58.6709 85.9893 58.1482 86.512C57.6255 87.0347 57.0122 87.44 56.3082 87.728C55.6042 88.016 54.8362 88.16 54.0042 88.16ZM53.9882 85.6C54.4255 85.6 54.8255 85.52 55.1882 85.36C55.5615 85.2 55.8815 84.976 56.1482 84.688C56.4255 84.3893 56.6389 84.0427 56.7882 83.648C56.9375 83.2533 57.0122 82.8213 57.0122 82.352C57.0122 81.8827 56.9375 81.4507 56.7882 81.056C56.6389 80.6613 56.4255 80.32 56.1482 80.032C55.8815 79.7333 55.5615 79.504 55.1882 79.344C54.8255 79.184 54.4255 79.104 53.9882 79.104C53.5509 79.104 53.1455 79.184 52.7722 79.344C52.4095 79.504 52.0895 79.7333 51.8122 80.032C51.5349 80.32 51.3215 80.6613 51.1722 81.056C51.0335 81.4507 50.9642 81.8827 50.9642 82.352C50.9642 82.8213 51.0335 83.2587 51.1722 83.664C51.3215 84.0587 51.5349 84.4 51.8122 84.688C52.0895 84.976 52.4095 85.2 52.7722 85.36C53.1455 85.52 53.5509 85.6 53.9882 85.6ZM66.9726 88.16C66.1299 88.16 65.3512 88.0213 64.6366 87.744C63.9326 87.456 63.3192 87.056 62.7966 86.544C62.2739 86.0213 61.8686 85.408 61.5806 84.704C61.3032 83.9893 61.1646 83.2053 61.1646 82.352C61.1646 81.52 61.3139 80.752 61.6126 80.048C61.9112 79.344 62.3219 78.736 62.8446 78.224C63.3779 77.7013 64.0019 77.296 64.7166 77.008C65.4419 76.72 66.2312 76.576 67.0846 76.576C67.6179 76.576 68.1406 76.6453 68.6526 76.784C69.1646 76.9227 69.6392 77.1307 70.0766 77.408C70.5246 77.6747 70.9086 77.9947 71.2286 78.368L69.5646 80.272C69.3406 80.0373 69.1006 79.8347 68.8446 79.664C68.5992 79.4827 68.3272 79.344 68.0286 79.248C67.7299 79.152 67.4099 79.104 67.0686 79.104C66.6419 79.104 66.2366 79.184 65.8526 79.344C65.4792 79.4933 65.1486 79.712 64.8606 80C64.5832 80.2773 64.3646 80.6187 64.2046 81.024C64.0446 81.4293 63.9646 81.8827 63.9646 82.384C63.9646 82.8747 64.0446 83.3227 64.2046 83.728C64.3646 84.1227 64.5886 84.464 64.8766 84.752C65.1646 85.04 65.5112 85.2587 65.9166 85.408C66.3326 85.5573 66.7912 85.632 67.2926 85.632C67.6339 85.632 67.9592 85.584 68.2686 85.488C68.5779 85.392 68.8606 85.264 69.1166 85.104C69.3832 84.9333 69.6179 84.7413 69.8206 84.528L71.1326 86.608C70.8659 86.9067 70.5086 87.1733 70.0606 87.408C69.6232 87.6427 69.1326 87.8293 68.5886 87.968C68.0552 88.096 67.5166 88.16 66.9726 88.16ZM72.9939 88V76.8H80.8019V79.12H75.6339V85.68H80.9619V88H72.9939ZM74.2739 83.408V81.2H80.0819V83.408H74.2739ZM87.0184 88.16C86.2824 88.16 85.6158 88.0747 85.0184 87.904C84.4318 87.7227 83.9091 87.4667 83.4504 87.136C82.9918 86.7947 82.5811 86.3947 82.2184 85.936L83.8664 84.064C84.3998 84.7787 84.9331 85.2587 85.4664 85.504C86.0104 85.7493 86.5704 85.872 87.1464 85.872C87.4344 85.872 87.6958 85.8347 87.9304 85.76C88.1651 85.6853 88.3464 85.5787 88.4744 85.44C88.6024 85.2907 88.6664 85.1093 88.6664 84.896C88.6664 84.736 88.6238 84.592 88.5384 84.464C88.4638 84.336 88.3571 84.224 88.2184 84.128C88.0798 84.032 87.9144 83.9467 87.7224 83.872C87.5304 83.7867 87.3278 83.7173 87.1144 83.664C86.9011 83.6 86.6824 83.5467 86.4584 83.504C85.8398 83.3653 85.3011 83.1947 84.8424 82.992C84.3838 82.7893 83.9998 82.544 83.6904 82.256C83.3918 81.9573 83.1678 81.6213 83.0184 81.248C82.8691 80.864 82.7944 80.4373 82.7944 79.968C82.7944 79.4667 82.9064 79.008 83.1304 78.592C83.3651 78.1653 83.6744 77.8027 84.0584 77.504C84.4531 77.1947 84.9064 76.96 85.4184 76.8C85.9304 76.6293 86.4638 76.544 87.0184 76.544C87.7544 76.544 88.3838 76.624 88.9064 76.784C89.4398 76.9333 89.8931 77.152 90.2664 77.44C90.6504 77.728 90.9758 78.0747 91.2424 78.48L89.5624 80.096C89.3384 79.8187 89.0931 79.5893 88.8264 79.408C88.5704 79.2267 88.2931 79.088 87.9944 78.992C87.7064 78.896 87.4078 78.848 87.0984 78.848C86.7784 78.848 86.5011 78.8907 86.2664 78.976C86.0424 79.0507 85.8664 79.1627 85.7384 79.312C85.6104 79.4507 85.5464 79.6213 85.5464 79.824C85.5464 80.0053 85.5998 80.16 85.7064 80.288C85.8131 80.416 85.9571 80.5333 86.1384 80.64C86.3198 80.736 86.5278 80.8213 86.7624 80.896C86.9971 80.96 87.2424 81.0133 87.4984 81.056C88.0851 81.1733 88.6131 81.328 89.0824 81.52C89.5624 81.712 89.9731 81.9467 90.3144 82.224C90.6664 82.5013 90.9331 82.832 91.1144 83.216C91.3064 83.5893 91.4024 84.0267 91.4024 84.528C91.4024 85.3067 91.2104 85.968 90.8264 86.512C90.4531 87.0453 89.9358 87.456 89.2744 87.744C88.6238 88.0213 87.8718 88.16 87.0184 88.16ZM97.1591 88.16C96.4231 88.16 95.7564 88.0747 95.1591 87.904C94.5724 87.7227 94.0497 87.4667 93.5911 87.136C93.1324 86.7947 92.7217 86.3947 92.3591 85.936L94.0071 84.064C94.5404 84.7787 95.0737 85.2587 95.6071 85.504C96.1511 85.7493 96.7111 85.872 97.2871 85.872C97.5751 85.872 97.8364 85.8347 98.0711 85.76C98.3057 85.6853 98.4871 85.5787 98.6151 85.44C98.7431 85.2907 98.8071 85.1093 98.8071 84.896C98.8071 84.736 98.7644 84.592 98.6791 84.464C98.6044 84.336 98.4977 84.224 98.3591 84.128C98.2204 84.032 98.0551 83.9467 97.8631 83.872C97.6711 83.7867 97.4684 83.7173 97.2551 83.664C97.0417 83.6 96.8231 83.5467 96.5991 83.504C95.9804 83.3653 95.4417 83.1947 94.9831 82.992C94.5244 82.7893 94.1404 82.544 93.8311 82.256C93.5324 81.9573 93.3084 81.6213 93.1591 81.248C93.0097 80.864 92.9351 80.4373 92.9351 79.968C92.9351 79.4667 93.0471 79.008 93.2711 78.592C93.5057 78.1653 93.8151 77.8027 94.1991 77.504C94.5937 77.1947 95.0471 76.96 95.5591 76.8C96.0711 76.6293 96.6044 76.544 97.1591 76.544C97.8951 76.544 98.5244 76.624 99.0471 76.784C99.5804 76.9333 100.034 77.152 100.407 77.44C100.791 77.728 101.116 78.0747 101.383 78.48L99.7031 80.096C99.4791 79.8187 99.2337 79.5893 98.9671 79.408C98.7111 79.2267 98.4337 79.088 98.1351 78.992C97.8471 78.896 97.5484 78.848 97.2391 78.848C96.9191 78.848 96.6417 78.8907 96.4071 78.976C96.1831 79.0507 96.0071 79.1627 95.8791 79.312C95.7511 79.4507 95.6871 79.6213 95.6871 79.824C95.6871 80.0053 95.7404 80.16 95.8471 80.288C95.9537 80.416 96.0977 80.5333 96.2791 80.64C96.4604 80.736 96.6684 80.8213 96.9031 80.896C97.1377 80.96 97.3831 81.0133 97.6391 81.056C98.2257 81.1733 98.7537 81.328 99.2231 81.52C99.7031 81.712 100.114 81.9467 100.455 82.224C100.807 82.5013 101.074 82.832 101.255 83.216C101.447 83.5893 101.543 84.0267 101.543 84.528C101.543 85.3067 101.351 85.968 100.967 86.512C100.594 87.0453 100.076 87.456 99.4151 87.744C98.7644 88.0213 98.0124 88.16 97.1591 88.16Z" fill="#191923"/>
</svg>
