<svg width="128" height="128" viewBox="0 0 128 128" fill="none" xmlns="http://www.w3.org/2000/svg">
<path d="M52 19H76H96C103.18 19 109 24.8203 109 32V35.2V54.4V96C109 103.18 103.18 109 96 109H76H64H52H32C24.8203 109 19 103.18 19 96V54.4V32C19 24.8203 24.8203 19 32 19H52Z" stroke="#2E2836" stroke-width="6"/>
<path d="M34.4461 76V71.424H38.2221V58.176H34.4461V53.6H47.4701V58.176H43.6621V71.424H47.4701V76H34.4461ZM52.6441 76V53.6H57.5081L69.2521 69.6L68.1961 69.44C68.0895 68.736 68.0041 68.064 67.9401 67.424C67.8761 66.784 67.8121 66.1547 67.7481 65.536C67.7055 64.9173 67.6628 64.288 67.6201 63.648C67.5988 63.008 67.5775 62.3147 67.5561 61.568C67.5561 60.8213 67.5561 60.0107 67.5561 59.136V53.6H72.8361V76H67.9081L55.6521 59.488L57.2841 59.712C57.3908 60.736 57.4761 61.6107 57.5401 62.336C57.6255 63.04 57.6895 63.6693 57.7321 64.224C57.7961 64.7787 57.8388 65.28 57.8601 65.728C57.8815 66.176 57.8921 66.624 57.8921 67.072C57.9135 67.4987 57.9241 67.9787 57.9241 68.512V76H52.6441ZM85.8806 76.32C84.4086 76.32 83.0753 76.1493 81.8806 75.808C80.7073 75.4453 79.662 74.9333 78.7446 74.272C77.8273 73.5893 77.006 72.7893 76.2806 71.872L79.5766 68.128C80.6433 69.5573 81.71 70.5173 82.7766 71.008C83.8646 71.4987 84.9846 71.744 86.1366 71.744C86.7126 71.744 87.2353 71.6693 87.7046 71.52C88.174 71.3707 88.5366 71.1573 88.7926 70.88C89.0486 70.5813 89.1766 70.2187 89.1766 69.792C89.1766 69.472 89.0913 69.184 88.9206 68.928C88.7713 68.672 88.558 68.448 88.2806 68.256C88.0033 68.064 87.6726 67.8933 87.2886 67.744C86.9046 67.5733 86.4993 67.4347 86.0726 67.328C85.646 67.2 85.2086 67.0933 84.7606 67.008C83.5233 66.7307 82.446 66.3893 81.5286 65.984C80.6113 65.5787 79.8433 65.088 79.2246 64.512C78.6273 63.9147 78.1793 63.2427 77.8806 62.496C77.582 61.728 77.4326 60.8747 77.4326 59.936C77.4326 58.9333 77.6566 58.016 78.1046 57.184C78.574 56.3307 79.1926 55.6053 79.9606 55.008C80.75 54.3893 81.6566 53.92 82.6806 53.6C83.7046 53.2587 84.7713 53.088 85.8806 53.088C87.3526 53.088 88.6113 53.248 89.6566 53.568C90.7233 53.8667 91.63 54.304 92.3766 54.88C93.1446 55.456 93.7953 56.1493 94.3286 56.96L90.9686 60.192C90.5206 59.6373 90.03 59.1787 89.4966 58.816C88.9846 58.4533 88.43 58.176 87.8326 57.984C87.2566 57.792 86.6593 57.696 86.0406 57.696C85.4006 57.696 84.846 57.7813 84.3766 57.952C83.9286 58.1013 83.5766 58.3253 83.3206 58.624C83.0646 58.9013 82.9366 59.2427 82.9366 59.648C82.9366 60.0107 83.0433 60.32 83.2566 60.576C83.47 60.832 83.758 61.0667 84.1206 61.28C84.4833 61.472 84.8993 61.6427 85.3686 61.792C85.838 61.92 86.3286 62.0267 86.8406 62.112C88.014 62.3467 89.07 62.656 90.0086 63.04C90.9686 63.424 91.79 63.8933 92.4726 64.448C93.1766 65.0027 93.71 65.664 94.0726 66.432C94.4566 67.1787 94.6486 68.0533 94.6486 69.056C94.6486 70.6133 94.2646 71.936 93.4966 73.024C92.75 74.0907 91.7153 74.912 90.3926 75.488C89.0913 76.0427 87.5873 76.32 85.8806 76.32Z" fill="#191923"/>
</svg>
