<svg width="128" height="128" viewBox="0 0 128 128" fill="none" xmlns="http://www.w3.org/2000/svg">
<path d="M25 80V48L25 16C25 8.8203 30.8203 3 38 3H38.8H55.6H90C97.1797 3 103 8.8203 103 16V48V64V80V112C103 119.18 97.1797 125 90 125H55.6H38C30.8203 125 25 119.18 25 112L25 80Z" stroke="#2E2836" stroke-width="6"/>
<path d="M49.9298 83.04L63.3698 57.696H64.6498L78.0898 83.04H72.9058L64.0098 66.016L55.1138 83.04H49.9298ZM38.8578 62.24V57.696H54.6658V62.24H38.8578ZM73.3538 62.24V57.696H89.1618V62.24H73.3538Z" fill="#191923"/>
</svg>
