<svg width="128" height="128" viewBox="0 0 128 128" fill="none" xmlns="http://www.w3.org/2000/svg">
<path d="M52 25H76H96C103.18 25 109 30.8203 109 38V38.8V55.6V90C109 97.1797 103.18 103 96 103H76H64H52H32C24.8203 103 19 97.1797 19 90V55.6V38C19 30.8203 24.8203 25 32 25H52Z" fill="#191923" stroke="#C8CED0" stroke-width="6"/>
<path d="M53.5 31H74.5H96C99.866 31 103 34.134 103 38V42.4V56.8V90C103 93.866 99.866 97 96 97H74.5H64H53.5H32C28.134 97 25 93.866 25 90V56.8V38C25 34.134 28.134 31 32 31H53.5Z" stroke="#2E2836" stroke-width="6"/>
<path d="M33.5803 79V51H38.7803V79H33.5803ZM35.9803 67.52V62.8H50.4203V67.52H35.9803ZM35.9803 55.8V51H52.1403V55.8H35.9803ZM62.7563 77.04V54.32L64.2363 56.24L58.5563 59.12L57.3963 54.56L65.0363 50.6H67.9163V77.04H62.7563ZM58.0763 79V74.2H72.7163V79H58.0763ZM85.6947 79.28C83.748 79.28 81.988 78.8667 80.4147 78.04C78.8414 77.1867 77.5347 75.96 76.4947 74.36L79.3747 71.24C80.548 72.5467 81.6014 73.4533 82.5347 73.96C83.468 74.44 84.4947 74.68 85.6147 74.68C86.628 74.68 87.5347 74.4667 88.3347 74.04C89.1347 73.5867 89.7747 72.9867 90.2547 72.24C90.7347 71.4667 90.9747 70.6267 90.9747 69.72C90.9747 68.7333 90.748 67.8667 90.2947 67.12C89.8414 66.3467 89.228 65.7333 88.4547 65.28C87.6814 64.8267 86.8014 64.6 85.8147 64.6C85.2814 64.6 84.7747 64.64 84.2947 64.72C83.8147 64.8 83.2547 64.96 82.6147 65.2C82.0014 65.44 81.2147 65.8133 80.2547 66.32L77.7747 62.96L79.4147 50.92H94.8947V55.52H82.3347L83.4947 54.24L82.1747 63.12L80.6947 62.08C81.0414 61.76 81.548 61.4533 82.2147 61.16C82.908 60.8667 83.6547 60.6267 84.4547 60.44C85.2547 60.2533 86.0414 60.16 86.8147 60.16C88.548 60.16 90.0947 60.56 91.4547 61.36C92.8147 62.16 93.8947 63.2667 94.6947 64.68C95.4947 66.0667 95.8947 67.6667 95.8947 69.48C95.8947 71.32 95.4414 72.9867 94.5347 74.48C93.6547 75.9467 92.4414 77.12 90.8947 78C89.348 78.8533 87.6147 79.28 85.6947 79.28Z" fill="#FBFEF9"/>
</svg>
