<svg width="128" height="128" viewBox="0 0 128 128" fill="none" xmlns="http://www.w3.org/2000/svg">
<path d="M52 25H76H96C103.18 25 109 30.8203 109 38V38.8V55.6V90C109 97.1797 103.18 103 96 103H76H64H52H32C24.8203 103 19 97.1797 19 90V55.6V38C19 30.8203 24.8203 25 32 25H52Z" fill="#191923" stroke="#C8CED0" stroke-width="6"/>
<path d="M53.5 31H74.5H96C99.866 31 103 34.134 103 38V42.4V56.8V90C103 93.866 99.866 97 96 97H74.5H64H53.5H32C28.134 97 25 93.866 25 90V56.8V38C25 34.134 28.134 31 32 31H53.5Z" stroke="#2E2836" stroke-width="6"/>
<path d="M40.762 82V48.4H47.002V82H40.762ZM43.642 68.224V62.56H60.97V68.224H43.642ZM43.642 54.16V48.4H63.034V54.16H43.642ZM69.3411 82L67.7571 78.064L77.8371 66.784C78.4131 66.208 79.0051 65.552 79.6131 64.816C80.2211 64.048 80.7971 63.264 81.3411 62.464C81.9171 61.632 82.3811 60.832 82.7331 60.064C83.0851 59.264 83.2611 58.528 83.2611 57.856C83.2611 56.992 83.0691 56.24 82.6851 55.6C82.3331 54.96 81.8211 54.464 81.1491 54.112C80.4771 53.76 79.6451 53.584 78.6531 53.584C77.7891 53.584 76.9411 53.84 76.1091 54.352C75.3091 54.832 74.5571 55.536 73.8531 56.464C73.1811 57.36 72.6211 58.432 72.1731 59.68L67.4691 56.896C68.0451 55.04 68.9091 53.44 70.0611 52.096C71.2451 50.72 72.6211 49.664 74.1891 48.928C75.7891 48.192 77.5171 47.824 79.3731 47.824C81.2931 47.824 83.0051 48.224 84.5091 49.024C86.0131 49.824 87.1971 50.928 88.0611 52.336C88.9571 53.744 89.4051 55.392 89.4051 57.28C89.4051 57.984 89.3251 58.72 89.1651 59.488C89.0051 60.224 88.7491 61.008 88.3971 61.84C88.0771 62.64 87.6451 63.488 87.1011 64.384C86.5571 65.248 85.9011 66.16 85.1331 67.12C84.3971 68.08 83.5491 69.088 82.5891 70.144L74.9571 78.448L73.9971 76.24H90.6051V82H69.3411Z" fill="#FBFEF9"/>
</svg>
