<svg width="128" height="128" viewBox="0 0 128 128" fill="none" xmlns="http://www.w3.org/2000/svg">
<path d="M19 69V97C19 104.18 24.8203 110 32 110H96C103.18 110 109 104.18 109 97V69C109 61.8203 103.18 56 96 56H32C24.8203 56 19 61.8203 19 69Z" stroke="#C8CED0" stroke-width="6"/>
<path d="M20.1909 42L25.7309 28H28.6109L34.1109 42H30.6709L28.0309 34.9C27.9243 34.62 27.8176 34.32 27.7109 34C27.6043 33.68 27.4976 33.3533 27.3909 33.02C27.2843 32.6733 27.1776 32.34 27.0709 32.02C26.9776 31.6867 26.8976 31.38 26.8309 31.1L27.4309 31.08C27.3509 31.4133 27.2576 31.74 27.1509 32.06C27.0576 32.38 26.9576 32.7 26.8509 33.02C26.7576 33.3267 26.6509 33.64 26.5309 33.96C26.4109 34.2667 26.2976 34.5867 26.1909 34.92L23.5509 42H20.1909ZM22.8309 39.32L23.8909 36.76H30.3309L31.3709 39.32H22.8309ZM35.8577 42V28H38.8977L46.2377 38L45.5777 37.9C45.511 37.46 45.4577 37.04 45.4177 36.64C45.3777 36.24 45.3377 35.8467 45.2977 35.46C45.271 35.0733 45.2443 34.68 45.2177 34.28C45.2043 33.88 45.191 33.4467 45.1777 32.98C45.1777 32.5133 45.1777 32.0067 45.1777 31.46V28H48.4777V42H45.3977L37.7377 31.68L38.7577 31.82C38.8243 32.46 38.8777 33.0067 38.9177 33.46C38.971 33.9 39.011 34.2933 39.0377 34.64C39.0777 34.9867 39.1043 35.3 39.1177 35.58C39.131 35.86 39.1377 36.14 39.1377 36.42C39.151 36.6867 39.1577 36.9867 39.1577 37.32V42H35.8577ZM50.2105 42L55.7505 28H58.6305L64.1305 42H60.6905L58.0505 34.9C57.9438 34.62 57.8371 34.32 57.7305 34C57.6238 33.68 57.5171 33.3533 57.4105 33.02C57.3038 32.6733 57.1971 32.34 57.0905 32.02C56.9971 31.6867 56.9171 31.38 56.8505 31.1L57.4505 31.08C57.3705 31.4133 57.2771 31.74 57.1705 32.06C57.0771 32.38 56.9771 32.7 56.8705 33.02C56.7771 33.3267 56.6705 33.64 56.5505 33.96C56.4305 34.2667 56.3171 34.5867 56.2105 34.92L53.5705 42H50.2105ZM52.8505 39.32L53.9105 36.76H60.3505L61.3905 39.32H52.8505ZM65.8772 42V28H69.2772V39H75.5172V42H65.8772ZM84.0541 42.2C82.9874 42.2 82.0141 42.02 81.1341 41.66C80.2541 41.3 79.4874 40.7933 78.8341 40.14C78.1807 39.4867 77.6741 38.72 77.3141 37.84C76.9541 36.96 76.7741 35.9933 76.7741 34.94C76.7741 33.8867 76.9541 32.92 77.3141 32.04C77.6741 31.16 78.1807 30.3933 78.8341 29.74C79.4874 29.0867 80.2541 28.58 81.1341 28.22C82.0141 27.86 82.9807 27.68 84.0341 27.68C85.0874 27.68 86.0541 27.86 86.9341 28.22C87.8141 28.58 88.5807 29.0867 89.2341 29.74C89.8874 30.3933 90.3874 31.16 90.7341 32.04C91.0941 32.92 91.2741 33.8867 91.2741 34.94C91.2741 35.98 91.0941 36.9467 90.7341 37.84C90.3874 38.72 89.8874 39.4867 89.2341 40.14C88.5807 40.7933 87.8141 41.3 86.9341 41.66C86.0541 42.02 85.0941 42.2 84.0541 42.2ZM84.0341 39C84.5807 39 85.0807 38.9 85.5341 38.7C86.0007 38.5 86.4007 38.22 86.7341 37.86C87.0807 37.4867 87.3474 37.0533 87.5341 36.56C87.7207 36.0667 87.8141 35.5267 87.8141 34.94C87.8141 34.3533 87.7207 33.8133 87.5341 33.32C87.3474 32.8267 87.0807 32.4 86.7341 32.04C86.4007 31.6667 86.0007 31.38 85.5341 31.18C85.0807 30.98 84.5807 30.88 84.0341 30.88C83.4874 30.88 82.9807 30.98 82.5141 31.18C82.0607 31.38 81.6607 31.6667 81.3141 32.04C80.9674 32.4 80.7007 32.8267 80.5141 33.32C80.3407 33.8133 80.2541 34.3533 80.2541 34.94C80.2541 35.5267 80.3407 36.0733 80.5141 36.58C80.7007 37.0733 80.9674 37.5 81.3141 37.86C81.6607 38.22 82.0607 38.5 82.5141 38.7C82.9807 38.9 83.4874 39 84.0341 39ZM100.405 42.2C99.2845 42.2 98.2712 42.02 97.3645 41.66C96.4579 41.3 95.6779 40.7933 95.0245 40.14C94.3712 39.4867 93.8712 38.72 93.5245 37.84C93.1779 36.9467 93.0045 35.98 93.0045 34.94C93.0045 33.9 93.1845 32.9467 93.5445 32.08C93.9179 31.2 94.4445 30.4333 95.1245 29.78C95.8045 29.1267 96.6045 28.62 97.5245 28.26C98.4579 27.9 99.4712 27.72 100.565 27.72C101.338 27.72 102.065 27.82 102.745 28.02C103.438 28.22 104.065 28.4933 104.625 28.84C105.185 29.1867 105.658 29.5867 106.045 30.04L103.985 32.22C103.651 31.9 103.305 31.6333 102.945 31.42C102.598 31.2067 102.225 31.04 101.825 30.92C101.425 30.7867 100.998 30.72 100.545 30.72C99.9579 30.72 99.4179 30.8267 98.9245 31.04C98.4445 31.2533 98.0179 31.5533 97.6445 31.94C97.2845 32.3133 97.0045 32.76 96.8045 33.28C96.6045 33.7867 96.5045 34.34 96.5045 34.94C96.5045 35.54 96.6112 36.1 96.8245 36.62C97.0379 37.14 97.3312 37.5933 97.7045 37.98C98.0779 38.3533 98.5179 38.6533 99.0245 38.88C99.5445 39.0933 100.098 39.2 100.685 39.2C101.098 39.2 101.485 39.1333 101.845 39C102.218 38.8667 102.538 38.6867 102.805 38.46C103.071 38.2333 103.285 37.9667 103.445 37.66C103.605 37.34 103.685 37 103.685 36.64V36.12L104.125 36.8H100.265V34.14H106.845C106.871 34.2867 106.891 34.4867 106.905 34.74C106.918 34.9933 106.925 35.24 106.925 35.48C106.938 35.72 106.945 35.9 106.945 36.02C106.945 36.9267 106.778 37.76 106.445 38.52C106.125 39.2667 105.671 39.9133 105.085 40.46C104.498 41.0067 103.805 41.4333 103.005 41.74C102.205 42.0467 101.338 42.2 100.405 42.2Z" fill="#FBFEF9"/>
</svg>
