<svg width="128" height="128" viewBox="0 0 128 128" fill="none" xmlns="http://www.w3.org/2000/svg">
<g clip-path="url(#clip0_131_13871)">
<path d="M76 49H108C108.552 49 109 49.4477 109 50V58V75C109 75.5523 108.552 76 108 76H98C94.134 76 91 79.134 91 83V88V102C91 102.552 90.5523 103 90 103H64H38C37.4477 103 37 102.552 37 102V88V83C37 79.134 33.866 76 30 76H20C19.4477 76 19 75.5523 19 75V58V50C19 49.4477 19.4477 49 20 49H52H76Z" fill="#191923" stroke="#C8CED0" stroke-width="6"/>
<path d="M49.0783 92V69.6H52.5343V88.672H63.0303V92H49.0783ZM73.1305 92.32C71.5519 92.32 70.1759 91.9573 69.0025 91.232C67.8505 90.5067 66.7625 89.2907 65.7385 87.584L68.4265 85.888C68.9599 86.6773 69.4825 87.328 69.9945 87.84C70.5279 88.3307 71.0719 88.6933 71.6265 88.928C72.1812 89.1627 72.7679 89.28 73.3865 89.28C74.1332 89.28 74.8265 89.0987 75.4665 88.736C76.1065 88.352 76.6185 87.8293 77.0025 87.168C77.3865 86.5067 77.5785 85.76 77.5785 84.928C77.5785 84.096 77.4292 83.392 77.1305 82.816C76.8319 82.2187 76.3945 81.7707 75.8185 81.472C75.2425 81.152 74.5599 80.992 73.7705 80.992C73.4079 80.992 73.0239 81.0347 72.6185 81.12C72.2345 81.184 71.8185 81.2907 71.3705 81.44C70.9225 81.568 70.4319 81.7387 69.8985 81.952L68.9385 79.424L75.8505 71.808L76.5225 72.8H66.9865V69.6H79.8185L80.4585 70.88L73.1305 79.008L72.3305 78.176C72.5012 78.0907 72.7785 78.016 73.1625 77.952C73.5679 77.8667 73.8985 77.824 74.1545 77.824C75.0932 77.824 75.9679 78.0053 76.7785 78.368C77.6105 78.7093 78.3252 79.2 78.9225 79.84C79.5412 80.4587 80.0212 81.1947 80.3625 82.048C80.7252 82.88 80.9065 83.776 80.9065 84.736C80.9065 86.1867 80.5545 87.488 79.8505 88.64C79.1679 89.7707 78.2399 90.6667 77.0665 91.328C75.8932 91.9893 74.5812 92.32 73.1305 92.32Z" fill="#FBFEF9"/>
<path d="M64.9412 39.498C64.3529 39.8118 63.6471 39.8118 63.0588 39.498L41.0588 27.7647C39.2217 26.7849 39.9179 24 42 24L86 24C88.0821 24 88.7783 26.7849 86.9412 27.7647L64.9412 39.498Z" fill="#191923"/>
</g>
<defs>
<clipPath id="clip0_131_13871">
<rect width="128" height="128" fill="white"/>
</clipPath>
</defs>
</svg>
