<svg width="128" height="128" viewBox="0 0 128 128" fill="none" xmlns="http://www.w3.org/2000/svg">
<path d="M76 49H108C108.552 49 109 49.4477 109 50V58V75C109 75.5523 108.552 76 108 76H98C94.134 76 91 79.134 91 83V88V102C91 102.552 90.5523 103 90 103H64H38C37.4477 103 37 102.552 37 102V88V83C37 79.134 33.866 76 30 76H20C19.4477 76 19 75.5523 19 75V58V50C19 49.4477 19.4477 49 20 49H52H76Z" fill="#191923" stroke="#C8CED0" stroke-width="6"/>
<path d="M52.1199 91V63H66.8799C68.5066 63 69.9999 63.3867 71.3599 64.16C72.7199 64.9333 73.8133 65.9867 74.6399 67.32C75.4666 68.6267 75.8799 70.0933 75.8799 71.72C75.8799 73.3467 75.4399 74.84 74.5599 76.2C73.7066 77.5333 72.5599 78.6 71.1199 79.4C69.6799 80.2 68.0933 80.6 66.3599 80.6H56.4399V91H52.1199ZM71.9599 91L63.3199 78.36L67.8799 77.36L77.3199 91.04L71.9599 91ZM56.4399 76.44H66.2399C67.1733 76.44 68.0266 76.2267 68.7999 75.8C69.5733 75.3733 70.1866 74.8 70.6399 74.08C71.0933 73.36 71.3199 72.5733 71.3199 71.72C71.3199 70.84 71.0799 70.0667 70.5999 69.4C70.1199 68.7067 69.4533 68.16 68.5999 67.76C67.7733 67.36 66.8533 67.16 65.8399 67.16H56.4399V76.44Z" fill="#FBFEF9"/>
<path d="M64.9412 39.498C64.3529 39.8118 63.6471 39.8118 63.0588 39.498L41.0588 27.7647C39.2217 26.7849 39.9179 24 42 24L86 24C88.0821 24 88.7783 26.7849 86.9412 27.7647L64.9412 39.498Z" fill="#191923"/>
</svg>
