<svg width="128" height="128" viewBox="0 0 128 128" fill="none" xmlns="http://www.w3.org/2000/svg">
<circle cx="64" cy="64" r="45" fill="#191923" stroke="#C8CED0" stroke-width="6"/>
<path d="M39.3243 81.6357V48.0357H53.6283C55.5483 48.0357 57.3083 48.5157 58.9083 49.4757C60.5403 50.4037 61.8363 51.6837 62.7963 53.3157C63.7563 54.9157 64.2363 56.7237 64.2363 58.7397C64.2363 60.5637 63.7563 62.2597 62.7963 63.8277C61.8363 65.3957 60.5563 66.6597 58.9563 67.6197C57.3563 68.5477 55.5803 69.0117 53.6283 69.0117H44.5083V81.6357H39.3243ZM59.2923 81.6357L50.7483 66.4677L56.0763 65.2677L65.5803 81.6837L59.2923 81.6357ZM44.5083 64.0197H54.1083C55.0363 64.0197 55.8683 63.7957 56.6043 63.3477C57.3403 62.8677 57.9163 62.2277 58.3323 61.4277C58.7483 60.5957 58.9563 59.6837 58.9563 58.6917C58.9563 57.5717 58.6843 56.5957 58.1403 55.7637C57.6283 54.8997 56.8923 54.2277 55.9323 53.7477C55.0043 53.2677 53.9483 53.0277 52.7643 53.0277H44.5083V64.0197ZM80.0433 82.1157C77.6753 82.1157 75.6113 81.5717 73.8513 80.4837C72.1233 79.3957 70.4913 77.5717 68.9553 75.0117L72.9873 72.4677C73.7873 73.6517 74.5713 74.6277 75.3393 75.3957C76.1393 76.1317 76.9553 76.6757 77.7873 77.0277C78.6193 77.3797 79.4993 77.5557 80.4273 77.5557C81.5473 77.5557 82.5873 77.2837 83.5473 76.7397C84.5073 76.1637 85.2753 75.3797 85.8513 74.3877C86.4273 73.3957 86.7153 72.2757 86.7153 71.0277C86.7153 69.7797 86.4913 68.7237 86.0433 67.8597C85.5953 66.9637 84.9393 66.2917 84.0753 65.8437C83.2113 65.3637 82.1873 65.1237 81.0033 65.1237C80.4593 65.1237 79.8833 65.1877 79.2753 65.3157C78.6993 65.4117 78.0753 65.5717 77.4033 65.7957C76.7313 65.9877 75.9953 66.2437 75.1953 66.5637L73.7553 62.7717L84.1233 51.3477L85.1313 52.8357H70.8273V48.0357H90.0753L91.0353 49.9557L80.0433 62.1477L78.8433 60.8997C79.0993 60.7717 79.5153 60.6597 80.0913 60.5637C80.6993 60.4357 81.1953 60.3717 81.5793 60.3717C82.9873 60.3717 84.2993 60.6437 85.5153 61.1877C86.7633 61.6997 87.8353 62.4357 88.7313 63.3957C89.6593 64.3237 90.3793 65.4277 90.8913 66.7077C91.4353 67.9557 91.7073 69.2997 91.7073 70.7397C91.7073 72.9157 91.1793 74.8677 90.1233 76.5957C89.0993 78.2917 87.7073 79.6357 85.9473 80.6277C84.1873 81.6197 82.2193 82.1157 80.0433 82.1157Z" fill="#FBFEF9"/>
</svg>
