<svg width="128" height="128" viewBox="0 0 128 128" fill="none" xmlns="http://www.w3.org/2000/svg">
<path d="M52 25H76H96C103.18 25 109 30.8203 109 38V38.8V55.6V90C109 97.1797 103.18 103 96 103H76H64H52H32C24.8203 103 19 97.1797 19 90V55.6V38C19 30.8203 24.8203 25 32 25H52Z" fill="#FBFEF9" stroke="#FBFEF9" stroke-width="6"/>
<path d="M53.5 31H74.5H96C99.866 31 103 34.134 103 38V42.4V56.8V90C103 93.866 99.866 97 96 97H74.5H64H53.5H32C28.134 97 25 93.866 25 90V56.8V38C25 34.134 28.134 31 32 31H53.5Z" stroke="#C8CED0" stroke-width="6"/>
<path d="M32.3303 79V51H37.5303V79H32.3303ZM34.7303 67.52V62.8H49.1703V67.52H34.7303ZM34.7303 55.8V51H50.8903V55.8H34.7303ZM56.1463 79L54.8263 75.72L63.2263 66.32C63.7063 65.84 64.1996 65.2933 64.7063 64.68C65.2129 64.04 65.6929 63.3867 66.1463 62.72C66.6263 62.0267 67.0129 61.36 67.3063 60.72C67.5996 60.0533 67.7463 59.44 67.7463 58.88C67.7463 58.16 67.5863 57.5333 67.2663 57C66.9729 56.4667 66.5463 56.0533 65.9863 55.76C65.4263 55.4667 64.7329 55.32 63.9063 55.32C63.1863 55.32 62.4796 55.5333 61.7863 55.96C61.1196 56.36 60.4929 56.9467 59.9063 57.72C59.3463 58.4667 58.8796 59.36 58.5063 60.4L54.5863 58.08C55.0663 56.5333 55.7863 55.2 56.7463 54.08C57.7329 52.9333 58.8796 52.0533 60.1863 51.44C61.5196 50.8267 62.9596 50.52 64.5063 50.52C66.1063 50.52 67.5329 50.8533 68.7863 51.52C70.0396 52.1867 71.0263 53.1067 71.7463 54.28C72.4929 55.4533 72.8663 56.8267 72.8663 58.4C72.8663 58.9867 72.7996 59.6 72.6663 60.24C72.5329 60.8533 72.3196 61.5067 72.0263 62.2C71.7596 62.8667 71.3996 63.5733 70.9463 64.32C70.4929 65.04 69.9463 65.8 69.3063 66.6C68.6929 67.4 67.9863 68.24 67.1863 69.12L60.8263 76.04L60.0263 74.2H73.8663V79H56.1463ZM88.0791 79V56.4L89.9991 56.6L80.4791 68.24L80.0391 67.52H97.8391V72.04H77.2391L75.0791 67.88L88.9991 50.92H93.0791V79H88.0791Z" fill="#191923"/>
</svg>
