<svg width="128" height="128" viewBox="0 0 128 128" fill="none" xmlns="http://www.w3.org/2000/svg">
<path d="M52 19H76H96C103.18 19 109 24.8203 109 32V35.2V54.4V96C109 103.18 103.18 109 96 109H76H64H52H32C24.8203 109 19 103.18 19 96V54.4V32C19 24.8203 24.8203 19 32 19H52Z" stroke="#C8CED0" stroke-width="6"/>
<path d="M66.3618 82.48C63.9298 82.48 61.7058 82.064 59.6898 81.232C57.6738 80.4 55.9298 79.216 54.4578 77.68C52.9858 76.112 51.8338 74.272 51.0018 72.16C50.2018 70.016 49.8018 67.68 49.8018 65.152C49.8018 62.72 50.2338 60.464 51.0978 58.384C51.9618 56.304 53.1618 54.48 54.6978 52.912C56.2338 51.344 58.0258 50.128 60.0738 49.264C62.1218 48.4 64.3458 47.968 66.7458 47.968C68.3778 47.968 69.9618 48.208 71.4978 48.688C73.0338 49.168 74.4418 49.84 75.7218 50.704C77.0018 51.536 78.0738 52.512 78.9378 53.632L74.9538 58C74.1218 57.136 73.2578 56.416 72.3618 55.84C71.4978 55.232 70.5858 54.784 69.6258 54.496C68.6978 54.176 67.7378 54.016 66.7458 54.016C65.2738 54.016 63.8818 54.288 62.5698 54.832C61.2898 55.376 60.1698 56.144 59.2098 57.136C58.2818 58.128 57.5458 59.312 57.0018 60.688C56.4578 62.032 56.1858 63.536 56.1858 65.2C56.1858 66.896 56.4418 68.432 56.9538 69.808C57.4978 71.184 58.2498 72.368 59.2098 73.36C60.2018 74.352 61.3698 75.12 62.7138 75.664C64.0898 76.176 65.5938 76.432 67.2258 76.432C68.2818 76.432 69.3058 76.288 70.2978 76C71.2898 75.712 72.2018 75.312 73.0338 74.8C73.8978 74.256 74.6818 73.632 75.3858 72.928L78.4578 77.872C77.6898 78.736 76.6658 79.52 75.3858 80.224C74.1058 80.928 72.6658 81.488 71.0658 81.904C69.4978 82.288 67.9298 82.48 66.3618 82.48Z" fill="#FBFEF9"/>
</svg>
