<svg width="128" height="128" viewBox="0 0 128 128" fill="none" xmlns="http://www.w3.org/2000/svg">
<path d="M52 19H76H96C103.18 19 109 24.8203 109 32V35.2V54.4V96C109 103.18 103.18 109 96 109H76H64H52H32C24.8203 109 19 103.18 19 96V54.4V32C19 24.8203 24.8203 19 32 19H52Z" stroke="#C8CED0" stroke-width="6"/>
<path d="M50.3479 82V48.4H63.8359C66.2679 48.4 68.4599 48.8 70.4119 49.6C72.3959 50.4 74.0919 51.552 75.4999 53.056C76.9399 54.56 78.0279 56.336 78.7639 58.384C79.5319 60.432 79.9159 62.704 79.9159 65.2C79.9159 67.696 79.5319 69.984 78.7639 72.064C78.0279 74.112 76.9559 75.888 75.5479 77.392C74.1399 78.864 72.4439 80 70.4599 80.8C68.4759 81.6 66.2679 82 63.8359 82H50.3479ZM56.5879 77.152L56.1079 76.24H63.5959C65.1639 76.24 66.5559 75.984 67.7719 75.472C69.0199 74.96 70.0759 74.224 70.9399 73.264C71.8039 72.304 72.4599 71.152 72.9079 69.808C73.3559 68.432 73.5799 66.896 73.5799 65.2C73.5799 63.504 73.3559 61.984 72.9079 60.64C72.4599 59.264 71.7879 58.096 70.8919 57.136C70.0279 56.176 68.9879 55.44 67.7719 54.928C66.5559 54.416 65.1639 54.16 63.5959 54.16H55.9639L56.5879 53.344V77.152Z" fill="#FBFEF9"/>
</svg>
