<svg width="128" height="128" viewBox="0 0 128 128" fill="none" xmlns="http://www.w3.org/2000/svg">
<path d="M52 19H76H96C103.18 19 109 24.8203 109 32V35.2V54.4V96C109 103.18 103.18 109 96 109H76H64H52H32C24.8203 109 19 103.18 19 96V54.4V32C19 24.8203 24.8203 19 32 19H52Z" stroke="#C8CED0" stroke-width="6"/>
<path d="M47.6526 82V48.4H53.5566L65.7966 68.32L62.3406 68.272L74.7246 48.4H80.3406V82H74.1486V69.376C74.1486 66.496 74.2126 63.904 74.3406 61.6C74.5006 59.296 74.7566 57.008 75.1086 54.736L75.8766 56.8L65.4606 72.88H62.2926L52.2126 56.944L52.8846 54.736C53.2366 56.88 53.4766 59.088 53.6046 61.36C53.7646 63.6 53.8446 66.272 53.8446 69.376V82H47.6526Z" fill="#FBFEF9"/>
</svg>
