<svg width="128" height="128" viewBox="0 0 128 128" fill="none" xmlns="http://www.w3.org/2000/svg">
<g clip-path="url(#clip0_133_4744)">
<circle cx="6" cy="6" r="6" transform="matrix(-4.37114e-08 1 1 4.37114e-08 58 76)" fill="#FBFEF9"/>
<path fill-rule="evenodd" clip-rule="evenodd" d="M28 51H43H64L85 51H100V70L106 74.5V51V48V45V42C106 19.8128 88.7958 1.64376 67 0.10552C66.0091 0.0355892 65.0087 3.05176e-05 64 3.05176e-05C62.9913 3.05176e-05 61.9909 0.0355894 61 0.10552C39.2042 1.64376 22 19.8128 22 42L22 45L22 48L22 51L22 64L22 74.5L28 70L28 64L28 51ZM64 128C42.0219 128 23.9866 111.119 22.1534 89.6151L29.0872 94.8154C33.0189 110.436 47.159 122 64 122C80.841 122 94.9811 110.436 98.9129 94.8154L105.847 89.615C104.013 111.119 85.9782 128 64 128ZM28 86L28 77.5L24.1333 80.4C23.0667 81.2 23.0667 82.8 24.1333 83.6L28.0034 86.5026C28.0012 86.3353 28 86.1678 28 86ZM99.9966 86.5026L103.867 83.6C104.933 82.8 104.933 81.2 103.867 80.4L100 77.5V86C100 86.1678 99.9989 86.3353 99.9966 86.5026ZM100 42C100 23.128 85.4786 7.6477 67 6.12325L67 45H85H100V42ZM28 42C28 23.128 42.5214 7.6477 61 6.12325L61 45H43H28V42Z" fill="#C8CED0"/>
<path d="M69 31L64 31L58.459 31C49.369 31 42 38.369 42 47.4591C42 57.1467 49.8534 65 59.541 65H64L69 65C78.3888 65 86 57.3888 86 48C86 38.6112 78.3888 31 69 31Z" stroke="#C8CED0" stroke-width="6"/>
<path d="M64 37L69 37C75.0751 37 80 41.9249 80 48C80 54.0751 75.0751 59 69 59L64 59H59.541C53.1671 59 48 53.8329 48 47.4591C48 41.6827 52.6827 37 58.459 37L64 37Z" fill="#FBFEF9" stroke="#2E2836" stroke-width="6"/>
<path d="M24.1333 80.4C23.0667 81.2 23.0667 82.8 24.1333 83.6L42.8 97.6C44.1185 98.5889 46 97.6481 46 96L46 68C46 66.3519 44.1185 65.4111 42.8 66.4L24.1333 80.4Z" fill="#FBFEF9"/>
<path d="M103.867 80.4C104.933 81.2 104.933 82.8 103.867 83.6L85.2 97.6C83.8815 98.5889 82 97.6481 82 96L82 68C82 66.3519 83.8815 65.4111 85.2 66.4L103.867 80.4Z" fill="#FBFEF9"/>
</g>
<defs>
<clipPath id="clip0_133_4744">
<rect width="128" height="128" fill="white"/>
</clipPath>
</defs>
</svg>
