<svg width="128" height="128" viewBox="0 0 128 128" fill="none" xmlns="http://www.w3.org/2000/svg">
<g clip-path="url(#clip0_133_4746)">
<path d="M53.5 51L56.5 51L56.5 48L56.5 42.5C56.5 38.3579 59.8579 35 64 35L67 35L67 32L67 3.11367C87.1373 4.64554 103 21.4703 103 42L103 48L103 86C103 107.539 85.5391 125 64 125C42.4609 125 25 107.539 25 86L25 64L25 51L43 51L53.5 51ZM43 45L25 45L25 42C25 21.4703 40.8627 4.64555 61 3.11367L61 29.3345C54.988 30.6987 50.5 36.0752 50.5 42.5L50.5 45L43 45Z" stroke="#C8CED0" stroke-width="6"/>
<path d="M53.5 51L56.5 51L56.5 48L56.5 42.5C56.5 38.3579 59.8579 35 64 35L67 35L67 32L67 3.11367C87.1373 4.64554 103 21.4703 103 42L103 48L103 86C103 107.539 85.5391 125 64 125C42.4609 125 25 107.539 25 86L25 64L25 51L43 51L53.5 51ZM43 45L25 45L25 42C25 21.4703 40.8627 4.64555 61 3.11367L61 29.3345C54.988 30.6987 50.5 36.0752 50.5 42.5L50.5 45L43 45Z" stroke="#C8CED0" stroke-width="6"/>
<path d="M53 48L53 43C53 36.9249 57.9249 32 64 32C70.0751 32 75 36.9249 75 43L75 48L75 52.459C75 58.8329 69.8329 64 63.4591 64C57.6827 64 53 59.3173 53 53.541L53 48Z" fill="#FBFEF9" stroke="#2E2836" stroke-width="6"/>
<path d="M47 43L47 48L47 53.541C47 62.631 54.369 70 63.4591 70C73.1467 70 81 62.1466 81 52.459L81 48L81 43C81 33.6112 73.3888 26 64 26C54.6112 26 47 33.6112 47 43Z" stroke="#C8CED0" stroke-width="6"/>
</g>
<defs>
<clipPath id="clip0_133_4746">
<rect width="128" height="128" fill="white"/>
</clipPath>
</defs>
</svg>
