<svg width="128" height="128" viewBox="0 0 128 128" fill="none" xmlns="http://www.w3.org/2000/svg">
<g clip-path="url(#clip0_133_4741)">
<path d="M31 42L31 39L28 39C19.7157 39 13 45.7157 13 54L13 58C13 66.2843 19.7157 73 28 73L31 73L31 70L31 42Z" stroke="#C8CED0" stroke-width="6"/>
<path d="M30.9981 69.8929L30.8947 67L28 67C19.7157 67 13 73.7157 13 82L13 85C13 93.8366 20.1634 101 29 101L32.1091 101L31.9981 97.8929L30.9981 69.8929Z" fill="#FBFEF9" stroke="#C8CED0" stroke-width="6"/>
<path d="M17.5 85L17.5 82C17.5 76.6908 21.4403 72.302 26.5561 71.5985L27.4417 96.3953C21.8275 95.6348 17.5 90.8228 17.5 85Z" fill="#FBFEF9" stroke="#2E2836" stroke-width="3"/>
<path d="M31 36C31 17.7746 45.7746 3 64 3L70 3C91.5391 3 109 20.4609 109 42L109 48L109 86C109 107.539 91.5391 125 70 125C48.4609 125 31 107.539 31 86L31 80L31 64L31 48L31 36Z" stroke="#C8CED0" stroke-width="6"/>
<path d="M52.6006 99.28C51.3126 99.28 50.146 99.1307 49.1006 98.832C48.074 98.5147 47.1593 98.0667 46.3566 97.488C45.554 96.8907 44.8353 96.1907 44.2006 95.388L47.0846 92.112C48.018 93.3627 48.9513 94.2027 49.8846 94.632C50.8366 95.0613 51.8166 95.276 52.8246 95.276C53.3286 95.276 53.786 95.2107 54.1966 95.08C54.6073 94.9493 54.9246 94.7627 55.1486 94.52C55.3726 94.2587 55.4846 93.9413 55.4846 93.568C55.4846 93.288 55.41 93.036 55.2606 92.812C55.13 92.588 54.9433 92.392 54.7006 92.224C54.458 92.056 54.1686 91.9067 53.8326 91.776C53.4966 91.6267 53.142 91.5053 52.7686 91.412C52.3953 91.3 52.0126 91.2067 51.6206 91.132C50.538 90.8893 49.5953 90.5907 48.7926 90.236C47.99 89.8813 47.318 89.452 46.7766 88.948C46.254 88.4253 45.862 87.8373 45.6006 87.184C45.3393 86.512 45.2086 85.7653 45.2086 84.944C45.2086 84.0667 45.4046 83.264 45.7966 82.536C46.2073 81.7893 46.7486 81.1547 47.4206 80.632C48.1113 80.0907 48.9046 79.68 49.8006 79.4C50.6966 79.1013 51.63 78.952 52.6006 78.952C53.8886 78.952 54.99 79.092 55.9046 79.372C56.838 79.6333 57.6313 80.016 58.2846 80.52C58.9566 81.024 59.526 81.6307 59.9926 82.34L57.0526 85.168C56.6606 84.6827 56.2313 84.2813 55.7646 83.964C55.3166 83.6467 54.8313 83.404 54.3086 83.236C53.8046 83.068 53.282 82.984 52.7406 82.984C52.1806 82.984 51.6953 83.0587 51.2846 83.208C50.8926 83.3387 50.5846 83.5347 50.3606 83.796C50.1366 84.0387 50.0246 84.3373 50.0246 84.692C50.0246 85.0093 50.118 85.28 50.3046 85.504C50.4913 85.728 50.7433 85.9333 51.0606 86.12C51.378 86.288 51.742 86.4373 52.1526 86.568C52.5633 86.68 52.9926 86.7733 53.4406 86.848C54.4673 87.0533 55.3913 87.324 56.2126 87.66C57.0526 87.996 57.7713 88.4067 58.3686 88.892C58.9846 89.3773 59.4513 89.956 59.7686 90.628C60.1046 91.2813 60.2726 92.0467 60.2726 92.924C60.2726 94.2867 59.9366 95.444 59.2646 96.396C58.6113 97.3293 57.706 98.048 56.5486 98.552C55.41 99.0373 54.094 99.28 52.6006 99.28ZM63.8507 99V79.4H72.5027C73.8467 79.4 74.9854 79.596 75.9187 79.988C76.8521 80.3613 77.5521 80.912 78.0187 81.64C78.5041 82.3493 78.7467 83.208 78.7467 84.216C78.7467 85.336 78.4667 86.2787 77.9067 87.044C77.3654 87.8093 76.5721 88.3227 75.5267 88.584L75.4707 88.052C76.3481 88.2387 77.1041 88.5653 77.7387 89.032C78.3921 89.4987 78.8961 90.0773 79.2507 90.768C79.6054 91.44 79.7827 92.2053 79.7827 93.064C79.7827 94.0533 79.6147 94.9213 79.2787 95.668C78.9427 96.396 78.4574 97.012 77.8227 97.516C77.1881 98.02 76.4414 98.3933 75.5827 98.636C74.7427 98.8787 73.8094 99 72.7827 99H63.8507ZM68.3307 95.024H72.6147C73.1374 95.024 73.5761 94.94 73.9307 94.772C74.3041 94.604 74.5934 94.3613 74.7987 94.044C75.0041 93.708 75.1067 93.3067 75.1067 92.84C75.1067 92.4107 74.9947 92.0467 74.7707 91.748C74.5654 91.4493 74.2667 91.2253 73.8747 91.076C73.4827 90.908 73.0161 90.824 72.4747 90.824H68.3307V95.024ZM68.3307 87.268H71.8307C72.3161 87.268 72.7267 87.1933 73.0627 87.044C73.4174 86.876 73.6787 86.652 73.8467 86.372C74.0334 86.0733 74.1267 85.7187 74.1267 85.308C74.1267 84.7107 73.9214 84.244 73.5107 83.908C73.1001 83.5533 72.4841 83.376 71.6627 83.376H68.3307V87.268ZM82.6715 99L81.7475 96.704L87.4595 90.46C87.7769 90.1053 88.1222 89.704 88.4955 89.256C88.8689 88.808 89.2329 88.3507 89.5875 87.884C89.9422 87.3987 90.2222 86.932 90.4275 86.484C90.6515 86.036 90.7635 85.6253 90.7635 85.252C90.7635 84.8787 90.6795 84.552 90.5115 84.272C90.3435 83.992 90.1009 83.7773 89.7835 83.628C89.4662 83.46 89.0649 83.376 88.5795 83.376C88.1502 83.376 87.7395 83.488 87.3475 83.712C86.9555 83.9173 86.5822 84.244 86.2275 84.692C85.8915 85.14 85.5742 85.6907 85.2755 86.344L81.7475 84.44C82.1395 83.3573 82.6902 82.4053 83.3995 81.584C84.1275 80.744 84.9769 80.1 85.9475 79.652C86.9182 79.1853 87.9542 78.952 89.0555 78.952C90.2129 78.9707 91.2582 79.2227 92.1915 79.708C93.1249 80.1747 93.8622 80.8373 94.4035 81.696C94.9635 82.536 95.2435 83.5253 95.2435 84.664C95.2435 85.056 95.1969 85.4667 95.1035 85.896C95.0102 86.3253 94.8702 86.7733 94.6835 87.24C94.4969 87.688 94.2449 88.1733 93.9275 88.696C93.6289 89.2 93.2649 89.732 92.8355 90.292C92.4062 90.852 91.9022 91.4493 91.3235 92.084L86.8715 96.928L86.3115 94.8H96.1115V99H82.6715Z" fill="#FBFEF9"/>
</g>
<defs>
<clipPath id="clip0_133_4741">
<rect width="128" height="128" fill="white"/>
</clipPath>
</defs>
</svg>
