<svg width="128" height="128" viewBox="0 0 128 128" fill="none" xmlns="http://www.w3.org/2000/svg">
<g clip-path="url(#clip0_133_4748)">
<path d="M75.5 51L78.5 51L78.5 48L78.5 42.5C78.5 38.3579 81.8579 35 86 35L89 35L89 32L89 3.11367C109.137 4.64554 125 21.4703 125 42L125 48L125 86C125 107.539 107.539 125 86 125C64.4609 125 47 107.539 47 86L47 64L47 51L65 51L75.5 51ZM65 45L47 45L47 42C47 21.4703 62.8627 4.64555 83 3.11367L83 29.3345C76.988 30.6987 72.5 36.0752 72.5 42.5L72.5 45L65 45Z" stroke="#C8CED0" stroke-width="6"/>
<path d="M75.5 51L78.5 51L78.5 48L78.5 42.5C78.5 38.3579 81.8579 35 86 35L89 35L89 32L89 3.11367C109.137 4.64554 125 21.4703 125 42L125 48L125 86C125 107.539 107.539 125 86 125C64.4609 125 47 107.539 47 86L47 64L47 51L65 51L75.5 51ZM65 45L47 45L47 42C47 21.4703 62.8627 4.64555 83 3.11367L83 29.3345C76.988 30.6987 72.5 36.0752 72.5 42.5L72.5 45L65 45Z" stroke="#C8CED0" stroke-width="6"/>
<path d="M16.4 24.1333C17.2 23.0667 18.8 23.0667 19.6 24.1333L33.6 42.8C34.5889 44.1185 33.6481 46 32 46H4C2.35191 46 1.41115 44.1185 2.4 42.8L16.4 24.1333Z" fill="#FBFEF9"/>
<path d="M16.4 103.867C17.2 104.933 18.8 104.933 19.6 103.867L33.6 85.2C34.5889 83.8815 33.6481 82 32 82H4C2.35191 82 1.41115 83.8815 2.4 85.2L16.4 103.867Z" fill="#FBFEF9"/>
<circle cx="6" cy="6" r="6" transform="matrix(1 0 0 -1 12 70)" fill="#FBFEF9"/>
<path d="M75 48L75 43C75 36.9249 79.9249 32 86 32C92.0751 32 97 36.9249 97 43L97 48L97 52.459C97 58.8329 91.8329 64 85.4591 64C79.6827 64 75 59.3173 75 53.541L75 48Z" fill="#FBFEF9" stroke="#2E2836" stroke-width="6"/>
<path d="M69 43L69 48L69 53.541C69 62.631 76.369 70 85.4591 70C95.1467 70 103 62.1466 103 52.459L103 48L103 43C103 33.6112 95.3888 26 86 26C76.6112 26 69 33.6112 69 43Z" stroke="#C8CED0" stroke-width="6"/>
</g>
<defs>
<clipPath id="clip0_133_4748">
<rect width="128" height="128" fill="white"/>
</clipPath>
</defs>
</svg>
