<svg width="128" height="128" viewBox="0 0 128 128" fill="none" xmlns="http://www.w3.org/2000/svg">
<g clip-path="url(#clip0_123_10085)">
<path d="M48 10V34.2487C48 36.2024 48.8165 38.0672 50.252 39.3923L59.252 47.7C61.9335 50.1752 66.0665 50.1752 68.748 47.7L77.748 39.3923C79.1835 38.0671 80 36.2024 80 34.2487V10C80 6.13401 76.866 3 73 3H64H55C51.134 3 48 6.13401 48 10Z" stroke="#C8CED0" stroke-width="6"/>
<path d="M62.4636 10.8437C63.2632 9.88422 64.7369 9.88422 65.5364 10.8437L71.2664 17.7196C72.3519 19.0223 71.4256 21 69.7299 21H58.2701C56.5744 21 55.6481 19.0223 56.7336 17.7196L62.4636 10.8437Z" fill="#FBFEF9"/>
<path d="M50.252 88.6077L52.2869 90.8121L50.252 88.6077C48.8165 89.9328 48 91.7976 48 93.7513V118C48 121.866 51.134 125 55 125H64H73C76.866 125 80 121.866 80 118V93.7513C80 91.7976 79.1835 89.9328 77.748 88.6077L68.748 80.3C66.0665 77.8248 61.9335 77.8248 59.252 80.3L50.252 88.6077Z" stroke="#C8CED0" stroke-width="6"/>
<path d="M65.5364 117.156C64.7368 118.116 63.2631 118.116 62.4636 117.156L56.7336 110.28C55.6481 108.978 56.5744 107 58.2701 107L69.7299 107C71.4256 107 72.3519 108.978 71.2664 110.28L65.5364 117.156Z" fill="#FBFEF9"/>
<path d="M88.6077 50.252L90.8121 52.2869L88.6077 50.252L80.3 59.252C77.8248 61.9335 77.8248 66.0665 80.3 68.748L88.6077 77.748C89.9328 79.1835 91.7976 80 93.7513 80H118C121.866 80 125 76.866 125 73V64V55C125 51.134 121.866 48 118 48H93.7513C91.7976 48 89.9329 48.8165 88.6077 50.252Z" stroke="#C8CED0" stroke-width="6"/>
<path d="M117.156 62.4636C118.116 63.2632 118.116 64.7369 117.156 65.5364L110.28 71.2664C108.978 72.3519 107 71.4256 107 69.7299L107 58.2701C107 56.5744 108.978 55.6481 110.28 56.7336L117.156 62.4636Z" fill="#FBFEF9"/>
<path d="M34.2487 48H10C6.13401 48 3 51.134 3 55V64V73C3 76.866 6.13401 80 10 80H34.2487C36.2024 80 38.0672 79.1835 39.3923 77.748L47.7 68.748C50.1752 66.0665 50.1752 61.9335 47.7 59.252L39.3923 50.252C38.0672 48.8165 36.2024 48 34.2487 48Z" stroke="#C8CED0" stroke-width="6"/>
<path d="M10.8437 62.4636C9.88422 63.2632 9.88422 64.7369 10.8437 65.5364L17.7196 71.2664C19.0223 72.3519 21 71.4256 21 69.7299L21 58.2701C21 56.5744 19.0223 55.6481 17.7196 56.7336L10.8437 62.4636Z" fill="#FBFEF9"/>
</g>
<defs>
<clipPath id="clip0_123_10085">
<rect width="128" height="128" fill="white"/>
</clipPath>
</defs>
</svg>
