<svg width="128" height="128" viewBox="0 0 128 128" fill="none" xmlns="http://www.w3.org/2000/svg">
<path d="M52 19H76H96C103.18 19 109 24.8203 109 32V35.2V54.4V96C109 103.18 103.18 109 96 109H76H64H52H32C24.8203 109 19 103.18 19 96V54.4V32C19 24.8203 24.8203 19 32 19H52Z" stroke="#2E2836" stroke-width="6"/>
<path d="M62.893 82.336C60.557 82.336 58.445 81.84 56.557 80.848C54.669 79.824 53.101 78.352 51.853 76.432L55.309 72.688C56.717 74.256 57.981 75.344 59.101 75.952C60.221 76.528 61.453 76.816 62.797 76.816C64.013 76.816 65.101 76.56 66.061 76.048C67.021 75.504 67.789 74.784 68.365 73.888C68.941 72.96 69.229 71.952 69.229 70.864C69.229 69.68 68.957 68.64 68.413 67.744C67.869 66.816 67.133 66.08 66.205 65.536C65.277 64.992 64.221 64.72 63.037 64.72C62.397 64.72 61.789 64.768 61.213 64.864C60.637 64.96 59.965 65.152 59.197 65.44C58.461 65.728 57.517 66.176 56.365 66.784L53.389 62.752L55.357 48.304H73.933V53.824H58.861L60.253 52.288L58.669 62.944L56.893 61.696C57.309 61.312 57.917 60.944 58.717 60.592C59.549 60.24 60.445 59.952 61.405 59.728C62.365 59.504 63.309 59.392 64.237 59.392C66.317 59.392 68.173 59.872 69.805 60.832C71.437 61.792 72.733 63.12 73.693 64.816C74.653 66.48 75.133 68.4 75.133 70.576C75.133 72.784 74.589 74.784 73.501 76.576C72.445 78.336 70.989 79.744 69.133 80.8C67.277 81.824 65.197 82.336 62.893 82.336Z" fill="#191923"/>
</svg>
