<svg width="128" height="128" viewBox="0 0 128 128" fill="none" xmlns="http://www.w3.org/2000/svg">
<path d="M52 19H76H96C103.18 19 109 24.8203 109 32V35.2V54.4V96C109 103.18 103.18 109 96 109H76H64H52H32C24.8203 109 19 103.18 19 96V54.4V32C19 24.8203 24.8203 19 32 19H52Z" stroke="#2E2836" stroke-width="6"/>
<path d="M49.3636 82V48.4H54.9796L74.4676 74.656L73.4116 74.848C73.2836 73.952 73.1716 73.04 73.0756 72.112C72.9796 71.152 72.8836 70.16 72.7876 69.136C72.7236 68.112 72.6596 67.04 72.5956 65.92C72.5636 64.8 72.5316 63.632 72.4996 62.416C72.4676 61.168 72.4516 59.856 72.4516 58.48V48.4H78.6436V82H72.9316L53.3476 56.128L54.5956 55.792C54.7556 57.584 54.8836 59.12 54.9796 60.4C55.1076 61.648 55.2036 62.736 55.2676 63.664C55.3316 64.56 55.3796 65.312 55.4116 65.92C55.4756 66.528 55.5076 67.088 55.5076 67.6C55.5396 68.08 55.5556 68.544 55.5556 68.992V82H49.3636Z" fill="#191923"/>
</svg>
