<svg width="128" height="128" viewBox="0 0 128 128" fill="none" xmlns="http://www.w3.org/2000/svg">
<path d="M52 19H76H96C103.18 19 109 24.8203 109 32V35.2V54.4V96C109 103.18 103.18 109 96 109H76H64H52H32C24.8203 109 19 103.18 19 96V54.4V32C19 24.8203 24.8203 19 32 19H52Z" stroke="#2E2836" stroke-width="6"/>
<path d="M64.1211 82.48C62.1691 82.48 60.3771 82.24 58.7451 81.76C57.1131 81.248 55.6411 80.496 54.3291 79.504C53.0171 78.512 51.8491 77.312 50.8251 75.904L54.9051 71.296C56.4731 73.472 58.0091 74.976 59.5131 75.808C61.0171 76.64 62.7131 77.056 64.6011 77.056C65.6891 77.056 66.6811 76.896 67.5771 76.576C68.4731 76.224 69.1771 75.76 69.6891 75.184C70.2011 74.576 70.4571 73.888 70.4571 73.12C70.4571 72.576 70.3451 72.08 70.1211 71.632C69.9291 71.152 69.6251 70.736 69.2091 70.384C68.7931 70 68.2811 69.648 67.6731 69.328C67.0651 69.008 66.3771 68.736 65.6091 68.512C64.8411 68.288 63.9931 68.08 63.0651 67.888C61.3051 67.536 59.7691 67.072 58.4571 66.496C57.1451 65.888 56.0411 65.152 55.1451 64.288C54.2491 63.392 53.5931 62.4 53.1771 61.312C52.7611 60.192 52.5531 58.928 52.5531 57.52C52.5531 56.112 52.8571 54.816 53.4651 53.632C54.1051 52.448 54.9691 51.424 56.0571 50.56C57.1451 49.696 58.4091 49.024 59.8491 48.544C61.2891 48.064 62.8411 47.824 64.5051 47.824C66.3931 47.824 68.0731 48.048 69.5451 48.496C71.0491 48.944 72.3611 49.616 73.4811 50.512C74.6331 51.376 75.5771 52.432 76.3131 53.68L72.1851 57.76C71.5451 56.768 70.8251 55.952 70.0251 55.312C69.2251 54.64 68.3611 54.144 67.4331 53.824C66.5051 53.472 65.5291 53.296 64.5051 53.296C63.3531 53.296 62.3451 53.456 61.4811 53.776C60.6491 54.096 59.9931 54.56 59.5131 55.168C59.0331 55.744 58.7931 56.448 58.7931 57.28C58.7931 57.92 58.9371 58.496 59.2251 59.008C59.5131 59.488 59.9131 59.92 60.4251 60.304C60.9691 60.688 61.6571 61.024 62.4891 61.312C63.3211 61.6 64.2651 61.856 65.3211 62.08C67.0811 62.432 68.6651 62.912 70.0731 63.52C71.4811 64.096 72.6811 64.8 73.6731 65.632C74.6651 66.432 75.4171 67.36 75.9291 68.416C76.4411 69.44 76.6971 70.592 76.6971 71.872C76.6971 74.08 76.1691 75.984 75.1131 77.584C74.0891 79.152 72.6331 80.368 70.7451 81.232C68.8571 82.064 66.6491 82.48 64.1211 82.48Z" fill="#191923"/>
</svg>
