<svg width="128" height="128" viewBox="0 0 128 128" fill="none" xmlns="http://www.w3.org/2000/svg">
<path d="M52 19H76H96C103.18 19 109 24.8203 109 32V35.2V54.4V96C109 103.18 103.18 109 96 109H76H64H52H32C24.8203 109 19 103.18 19 96V54.4V32C19 24.8203 24.8203 19 32 19H52Z" stroke="#2E2836" stroke-width="6"/>
<path d="M63.9754 82.288C61.3194 82.288 58.9514 81.728 56.8714 80.608C54.7914 79.456 53.1434 77.888 51.9274 75.904C50.7434 73.888 50.1514 71.616 50.1514 69.088V48.352H56.4394V68.656C56.4394 70.16 56.7754 71.504 57.4474 72.688C58.1514 73.84 59.0794 74.768 60.2314 75.472C61.3834 76.176 62.6314 76.528 63.9754 76.528C65.4474 76.528 66.7754 76.176 67.9594 75.472C69.1434 74.768 70.0714 73.84 70.7434 72.688C71.4474 71.504 71.7994 70.16 71.7994 68.656V48.352H77.8474V69.088C77.8474 71.616 77.2394 73.888 76.0234 75.904C74.8394 77.888 73.2074 79.456 71.1274 80.608C69.0474 81.728 66.6634 82.288 63.9754 82.288Z" fill="#191923"/>
</svg>
