<svg width="128" height="128" viewBox="0 0 128 128" fill="none" xmlns="http://www.w3.org/2000/svg">
<path d="M52 19H76H96C103.18 19 109 24.8203 109 32V35.2V54.4V96C109 103.18 103.18 109 96 109H76H64H52H32C24.8203 109 19 103.18 19 96V54.4V32C19 24.8203 24.8203 19 32 19H52Z" stroke="#2E2836" stroke-width="6"/>
<path d="M61.1232 82L47.6832 48.4H54.4992L61.9872 67.648C62.3712 68.64 62.7072 69.536 62.9952 70.336C63.2832 71.104 63.5392 71.808 63.7632 72.448C63.9872 73.088 64.1792 73.712 64.3392 74.32C64.5312 74.928 64.7392 75.568 64.9632 76.24H63.6192C63.8432 75.376 64.0832 74.528 64.3392 73.696C64.5952 72.832 64.8832 71.92 65.2032 70.96C65.5552 70 65.9712 68.896 66.4512 67.648L73.4592 48.4H80.3232L66.7872 82H61.1232Z" fill="#191923"/>
</svg>
