<svg width="128" height="128" viewBox="0 0 128 128" fill="none" xmlns="http://www.w3.org/2000/svg">
<path d="M52 19H76H96C103.18 19 109 24.8203 109 32V35.2V54.4V96C109 103.18 103.18 109 96 109H76H64H52H32C24.8203 109 19 103.18 19 96V54.4V32C19 24.8203 24.8203 19 32 19H52Z" stroke="#2E2836" stroke-width="6"/>
<path d="M51.3972 82L40.9332 48.4H47.4612L53.4132 68.224C53.6052 68.832 53.7812 69.504 53.9412 70.24C54.1012 70.976 54.2452 71.712 54.3732 72.448C54.5012 73.152 54.6132 73.808 54.7092 74.416C54.8052 75.024 54.9012 75.536 54.9972 75.952L53.7012 75.904C54.0852 74.4 54.3892 73.184 54.6132 72.256C54.8372 71.328 55.0292 70.56 55.1892 69.952C55.3812 69.312 55.5732 68.72 55.7652 68.176L61.4292 53.68H66.7572L72.2772 68.176C72.5972 69.072 72.8852 69.936 73.1412 70.768C73.3972 71.568 73.6052 72.368 73.7652 73.168C73.9572 73.936 74.1332 74.736 74.2932 75.568L73.1412 75.808C73.2692 75.04 73.3652 74.416 73.4292 73.936C73.4932 73.456 73.5572 73.024 73.6212 72.64C73.6852 72.256 73.7492 71.888 73.8132 71.536C73.8772 71.152 73.9732 70.704 74.1012 70.192C74.2612 69.648 74.4532 68.96 74.6772 68.128L80.5812 48.4H87.0612L76.5492 82H72.0372L63.4932 61.552L64.0692 61.744L55.9572 82H51.3972Z" fill="#191923"/>
</svg>
