<svg width="128" height="128" viewBox="0 0 128 128" fill="none" xmlns="http://www.w3.org/2000/svg">
<circle cx="64" cy="64" r="45" stroke="#32936F" stroke-width="6"/>
<path d="M43.507 81.6357L60.211 48.0357H67.891L84.499 81.6357H76.051L66.115 61.7157C65.763 61.0117 65.443 60.3557 65.155 59.7477C64.867 59.1077 64.595 58.4997 64.339 57.9237C64.083 57.3157 63.843 56.7237 63.619 56.1477C63.427 55.5397 63.219 54.9157 62.995 54.2757L64.867 54.2277C64.643 54.8997 64.403 55.5557 64.147 56.1957C63.923 56.8037 63.667 57.4117 63.379 58.0197C63.123 58.6277 62.851 59.2517 62.563 59.8917C62.275 60.4997 61.971 61.1237 61.651 61.7637L51.763 81.6357H43.507ZM51.235 75.6837L53.923 69.5397H74.035L75.139 75.6837H51.235Z" fill="#32936F"/>
</svg>
