<svg width="128" height="128" viewBox="0 0 128 128" fill="none" xmlns="http://www.w3.org/2000/svg">
<g clip-path="url(#clip0_2584_83110)">
<path d="M35 22.5H93C99.9036 22.5 105.5 28.0964 105.5 35V93C105.5 99.9036 99.9036 105.5 93 105.5H35C28.0964 105.5 22.5 99.9036 22.5 93V35C22.5 28.0964 28.0964 22.5 35 22.5Z" stroke="#191923" stroke-opacity="0.75" stroke-width="7"/>
<path d="M62.9036 81.336C60.5676 81.336 58.4556 80.84 56.5676 79.848C54.6796 78.824 53.1116 77.352 51.8636 75.432L55.3196 71.688C56.7276 73.256 57.9916 74.344 59.1116 74.952C60.2316 75.528 61.4636 75.816 62.8076 75.816C64.0236 75.816 65.1116 75.56 66.0716 75.048C67.0316 74.504 67.7996 73.784 68.3756 72.888C68.9516 71.96 69.2396 70.952 69.2396 69.864C69.2396 68.68 68.9676 67.64 68.4236 66.744C67.8796 65.816 67.1436 65.08 66.2156 64.536C65.2876 63.992 64.2316 63.72 63.0476 63.72C62.4076 63.72 61.7996 63.768 61.2236 63.864C60.6476 63.96 59.9756 64.152 59.2076 64.44C58.4716 64.728 57.5276 65.176 56.3756 65.784L53.3996 61.752L55.3676 47.304H73.9436V52.824H58.8716L60.2636 51.288L58.6796 61.944L56.9036 60.696C57.3196 60.312 57.9276 59.944 58.7276 59.592C59.5596 59.24 60.4556 58.952 61.4156 58.728C62.3756 58.504 63.3196 58.392 64.2476 58.392C66.3276 58.392 68.1836 58.872 69.8156 59.832C71.4476 60.792 72.7436 62.12 73.7036 63.816C74.6636 65.48 75.1436 67.4 75.1436 69.576C75.1436 71.784 74.5996 73.784 73.5116 75.576C72.4556 77.336 70.9996 78.744 69.1436 79.8C67.2876 80.824 65.2076 81.336 62.9036 81.336Z" fill="#191923"/>
</g>
<defs>
<clipPath id="clip0_2584_83110">
<rect width="128" height="128" fill="white"/>
</clipPath>
</defs>
</svg>
