<svg width="128" height="128" viewBox="0 0 128 128" fill="none" xmlns="http://www.w3.org/2000/svg">
<path d="M50 70H78C78.5523 70 79 70.4477 79 71V99C79 99.5523 78.5523 100 78 100H50C49.4477 100 49 99.5523 49 99V71C49 70.4477 49.4477 70 50 70Z" stroke="#2E2836" stroke-width="6"/>
<path d="M92 70H120C120.552 70 121 70.4477 121 71V99C121 99.5523 120.552 100 120 100H92C91.4477 100 91 99.5523 91 99V71C91 70.4477 91.4477 70 92 70Z" stroke="#2E2836" stroke-width="6"/>
<path d="M8 70H36C36.5523 70 37 70.4477 37 71V99C37 99.5523 36.5523 100 36 100H8C7.44772 100 7 99.5523 7 99V71C7 70.4477 7.44772 70 8 70Z" stroke="#2E2836" stroke-width="6"/>
<path d="M22.1591 92.3182L15 85.1591L22.1591 78L23.8068 79.6335L19.4815 83.9588H29.6165V86.3594H19.4815L23.8068 90.6776L22.1591 92.3182Z" fill="#191923"/>
<path d="M22.1591 92.3182L15 85.1591L22.1591 78L23.8068 79.6335L19.4815 83.9588H29.6165V86.3594H19.4815L23.8068 90.6776L22.1591 92.3182Z" fill="#191923"/>
<path d="M105.841 92.3182L113 85.1591L105.841 78L104.193 79.6335L108.518 83.9588H98.3835V86.3594H108.518L104.193 90.6776L105.841 92.3182Z" fill="#191923"/>
<path d="M105.841 92.3182L113 85.1591L105.841 78L104.193 79.6335L108.518 83.9588H98.3835V86.3594H108.518L104.193 90.6776L105.841 92.3182Z" fill="#191923"/>
<path d="M50 28H78C78.5523 28 79 28.4477 79 29V57C79 57.5523 78.5523 58 78 58H50C49.4477 58 49 57.5523 49 57V29C49 28.4477 49.4477 28 50 28Z" stroke="#2E2836" stroke-width="6"/>
<rect x="1.5" y="1.5" width="21" height="21" transform="matrix(-4.37114e-08 1 1 4.37114e-08 52 31)" fill="#191923"/>
<rect x="1.5" y="1.5" width="21" height="21" transform="matrix(-4.37114e-08 1 1 4.37114e-08 52 31)" stroke="#C8CED0" stroke-width="3"/>
<path d="M71.3182 43.1591L64.1591 36L57 43.1591L58.6335 44.8068L62.9588 40.4815L62.9588 50.6165L65.3594 50.6165L65.3594 40.4815L69.6776 44.8068L71.3182 43.1591Z" fill="#FBFEF9"/>
<path d="M71.3182 43.1591L64.1591 36L57 43.1591L58.6335 44.8068L62.9588 40.4815L62.9588 50.6165L65.3594 50.6165L65.3594 40.4815L69.6776 44.8068L71.3182 43.1591Z" fill="#FBFEF9"/>
<path d="M56.6818 84.8409L63.8409 92L71 84.8409L69.3665 83.1932L65.0412 87.5185L65.0412 77.3835L62.6406 77.3835L62.6406 87.5185L58.3224 83.1932L56.6818 84.8409Z" fill="#191923"/>
<path d="M56.6818 84.8409L63.8409 92L71 84.8409L69.3665 83.1932L65.0412 87.5185L65.0412 77.3835L62.6406 77.3835L62.6406 87.5185L58.3224 83.1932L56.6818 84.8409Z" fill="#191923"/>
</svg>
