<svg width="128" height="128" viewBox="0 0 128 128" fill="none" xmlns="http://www.w3.org/2000/svg">
<circle cx="64" cy="64" r="45" fill="#FBFEF9" stroke="#C8CED0" stroke-width="6"/>
<path d="M39.324 81.6357V48.0357H53.628C55.548 48.0357 57.308 48.5157 58.908 49.4757C60.54 50.4037 61.836 51.6837 62.796 53.3157C63.756 54.9157 64.236 56.7237 64.236 58.7397C64.236 60.5637 63.756 62.2597 62.796 63.8277C61.836 65.3957 60.556 66.6597 58.956 67.6197C57.356 68.5477 55.58 69.0117 53.628 69.0117H44.508V81.6357H39.324ZM59.292 81.6357L50.748 66.4677L56.076 65.2677L65.58 81.6837L59.292 81.6357ZM44.508 64.0197H54.108C55.036 64.0197 55.868 63.7957 56.604 63.3477C57.34 62.8677 57.916 62.2277 58.332 61.4277C58.748 60.5957 58.956 59.6837 58.956 58.6917C58.956 57.5717 58.684 56.5957 58.14 55.7637C57.628 54.8997 56.892 54.2277 55.932 53.7477C55.004 53.2677 53.948 53.0277 52.764 53.0277H44.508V64.0197ZM80.043 82.1157C77.675 82.1157 75.611 81.5717 73.851 80.4837C72.123 79.3957 70.491 77.5717 68.955 75.0117L72.987 72.4677C73.787 73.6517 74.571 74.6277 75.339 75.3957C76.139 76.1317 76.955 76.6757 77.787 77.0277C78.619 77.3797 79.499 77.5557 80.427 77.5557C81.547 77.5557 82.587 77.2837 83.547 76.7397C84.507 76.1637 85.275 75.3797 85.851 74.3877C86.427 73.3957 86.715 72.2757 86.715 71.0277C86.715 69.7797 86.491 68.7237 86.043 67.8597C85.595 66.9637 84.939 66.2917 84.075 65.8437C83.211 65.3637 82.187 65.1237 81.003 65.1237C80.459 65.1237 79.883 65.1877 79.275 65.3157C78.699 65.4117 78.075 65.5717 77.403 65.7957C76.731 65.9877 75.995 66.2437 75.195 66.5637L73.755 62.7717L84.123 51.3477L85.131 52.8357H70.827V48.0357H90.075L91.035 49.9557L80.043 62.1477L78.843 60.8997C79.099 60.7717 79.515 60.6597 80.091 60.5637C80.699 60.4357 81.195 60.3717 81.579 60.3717C82.987 60.3717 84.299 60.6437 85.515 61.1877C86.763 61.6997 87.835 62.4357 88.731 63.3957C89.659 64.3237 90.379 65.4277 90.891 66.7077C91.435 67.9557 91.707 69.2997 91.707 70.7397C91.707 72.9157 91.179 74.8677 90.123 76.5957C89.099 78.2917 87.707 79.6357 85.947 80.6277C84.187 81.6197 82.219 82.1157 80.043 82.1157Z" fill="#191923"/>
</svg>
