<svg width="128" height="128" viewBox="0 0 128 128" fill="none" xmlns="http://www.w3.org/2000/svg">
<g clip-path="url(#clip0_122_2986)">
<path d="M76.0078 48.5H108.008C108.836 48.5 109.508 49.1716 109.508 50V58V75C109.508 75.8284 108.836 76.5 108.008 76.5H98.0078C94.418 76.5 91.5078 79.4101 91.5078 83V88V102C91.5078 102.828 90.8362 103.5 90.0078 103.5H64.0078H38.0078C37.1794 103.5 36.5078 102.828 36.5078 102V88V83C36.5078 79.4101 33.5977 76.5 30.0078 76.5H20.0078C19.1794 76.5 18.5078 75.8284 18.5078 75V58V50C18.5078 49.1716 19.1794 48.5 20.0078 48.5H52.0078H76.0078Z" stroke="#C8CED0" stroke-width="5"/>
<path d="M47.5705 92V69.6H51.0265V88.672H61.5225V92H47.5705ZM73.6387 92.32C72.4227 92.32 71.292 92.16 70.2467 91.84C69.2227 91.52 68.284 91.04 67.4307 90.4C66.5987 89.7387 65.852 88.928 65.1907 87.968L67.5587 85.248C68.604 86.7413 69.6067 87.776 70.5667 88.352C71.5267 88.928 72.668 89.216 73.9907 89.216C74.8014 89.216 75.5374 89.088 76.1987 88.832C76.86 88.576 77.3827 88.224 77.7667 87.776C78.1507 87.328 78.3427 86.816 78.3427 86.24C78.3427 85.856 78.2787 85.4933 78.1507 85.152C78.0227 84.8107 77.82 84.5013 77.5427 84.224C77.2867 83.9467 76.9454 83.6907 76.5187 83.456C76.1134 83.2213 75.6334 83.0187 75.0787 82.848C74.524 82.656 73.884 82.496 73.1587 82.368C72.0067 82.1333 71.004 81.824 70.1507 81.44C69.2974 81.056 68.5827 80.576 68.0067 80C67.4307 79.424 67.004 78.7733 66.7267 78.048C66.4494 77.3013 66.3107 76.4693 66.3107 75.552C66.3107 74.656 66.5027 73.824 66.8867 73.056C67.292 72.288 67.836 71.6267 68.5187 71.072C69.2227 70.496 70.044 70.0587 70.9827 69.76C71.9214 69.44 72.9347 69.28 74.0227 69.28C75.1747 69.28 76.2307 69.4293 77.1907 69.728C78.1507 70.0267 79.004 70.4747 79.7507 71.072C80.4974 71.648 81.116 72.3627 81.6067 73.216L79.1747 75.616C78.748 74.912 78.268 74.3253 77.7347 73.856C77.2014 73.3653 76.6147 73.0027 75.9747 72.768C75.3347 72.512 74.652 72.384 73.9267 72.384C73.0947 72.384 72.3694 72.512 71.7507 72.768C71.132 73.024 70.6414 73.3867 70.2787 73.856C69.9374 74.304 69.7667 74.8373 69.7667 75.456C69.7667 75.904 69.852 76.32 70.0227 76.704C70.1934 77.0667 70.4494 77.3973 70.7907 77.696C71.1534 77.9733 71.6334 78.2293 72.2307 78.464C72.828 78.6773 73.5427 78.8693 74.3747 79.04C75.548 79.296 76.5934 79.6267 77.5107 80.032C78.428 80.416 79.2067 80.8747 79.8467 81.408C80.4867 81.9413 80.9667 82.5387 81.2867 83.2C81.628 83.8613 81.7987 84.576 81.7987 85.344C81.7987 86.7733 81.468 88.0107 80.8067 89.056C80.1454 90.1013 79.2067 90.912 77.9907 91.488C76.7747 92.0427 75.324 92.32 73.6387 92.32Z" fill="#FBFEF9"/>
<path d="M64.949 39.498C64.3608 39.8118 63.6549 39.8118 63.0666 39.498L41.0666 27.7647C39.2295 26.7849 39.9257 24 42.0078 24L86.0078 24C88.0899 24 88.7861 26.7849 86.949 27.7647L64.949 39.498Z" fill="#FBFEF9"/>
</g>
<defs>
<clipPath id="clip0_122_2986">
<rect width="128" height="128" fill="white" transform="translate(0.0078125)"/>
</clipPath>
</defs>
</svg>
