<svg width="128" height="128" viewBox="0 0 128 128" fill="none" xmlns="http://www.w3.org/2000/svg">
<circle cx="64.0078" cy="64" r="45" fill="#191923" stroke="#C8CED0" stroke-width="6"/>
<path d="M39.3789 81.6357V48.0357H44.5629V76.6437H60.3069V81.6357H39.3789ZM78.4813 82.1157C76.6573 82.1157 74.9613 81.8757 73.3933 81.3957C71.8573 80.9157 70.4493 80.1957 69.1693 79.2357C67.9213 78.2437 66.8013 77.0277 65.8093 75.5877L69.3613 71.5077C70.9293 73.7477 72.4333 75.2997 73.8733 76.1637C75.3133 77.0277 77.0253 77.4597 79.0093 77.4597C80.2253 77.4597 81.3293 77.2677 82.3213 76.8837C83.3133 76.4997 84.0973 75.9717 84.6733 75.2997C85.2493 74.6277 85.5373 73.8597 85.5373 72.9957C85.5373 72.4197 85.4413 71.8757 85.2493 71.3637C85.0573 70.8517 84.7533 70.3877 84.3373 69.9717C83.9533 69.5557 83.4413 69.1717 82.8013 68.8197C82.1933 68.4677 81.4733 68.1637 80.6413 67.9077C79.8093 67.6197 78.8493 67.3797 77.7613 67.1877C76.0333 66.8357 74.5293 66.3717 73.2493 65.7957C71.9693 65.2197 70.8973 64.4997 70.0333 63.6357C69.1693 62.7717 68.5293 61.7957 68.1133 60.7077C67.6973 59.5877 67.4893 58.3397 67.4893 56.9637C67.4893 55.6197 67.7773 54.3717 68.3533 53.2197C68.9613 52.0677 69.7773 51.0757 70.8013 50.2437C71.8573 49.3797 73.0893 48.7237 74.4973 48.2757C75.9053 47.7957 77.4253 47.5557 79.0573 47.5557C80.7853 47.5557 82.3693 47.7797 83.8093 48.2277C85.2493 48.6757 86.5293 49.3477 87.6493 50.2437C88.7693 51.1077 89.6973 52.1797 90.4333 53.4597L86.7853 57.0597C86.1453 56.0037 85.4253 55.1237 84.6253 54.4197C83.8253 53.6837 82.9453 53.1397 81.9853 52.7877C81.0253 52.4037 80.0013 52.2117 78.9133 52.2117C77.6653 52.2117 76.5773 52.4037 75.6493 52.7877C74.7213 53.1717 73.9853 53.7157 73.4413 54.4197C72.9293 55.0917 72.6733 55.8917 72.6733 56.8197C72.6733 57.4917 72.8013 58.1157 73.0573 58.6917C73.3133 59.2357 73.6973 59.7317 74.2093 60.1797C74.7533 60.5957 75.4733 60.9797 76.3693 61.3317C77.2653 61.6517 78.3373 61.9397 79.5853 62.1957C81.3453 62.5797 82.9133 63.0757 84.2893 63.6837C85.6653 64.2597 86.8333 64.9477 87.7933 65.7477C88.7533 66.5477 89.4733 67.4437 89.9533 68.4357C90.4653 69.4277 90.7213 70.4997 90.7213 71.6517C90.7213 73.7957 90.2253 75.6517 89.2333 77.2197C88.2413 78.7877 86.8333 80.0037 85.0093 80.8677C83.1853 81.6997 81.0093 82.1157 78.4813 82.1157Z" fill="#FBFEF9"/>
</svg>
