<svg width="128" height="128" viewBox="0 0 128 128" fill="none" xmlns="http://www.w3.org/2000/svg">
<g clip-path="url(#clip0_122_2987)">
<path d="M76.0078 48.5H108.008C108.836 48.5 109.508 49.1716 109.508 50V58V75C109.508 75.8284 108.836 76.5 108.008 76.5H98.0078C94.418 76.5 91.5078 79.4101 91.5078 83V88V102C91.5078 102.828 90.8362 103.5 90.0078 103.5H64.0078H38.0078C37.1794 103.5 36.5078 102.828 36.5078 102V88V83C36.5078 79.4101 33.5977 76.5 30.0078 76.5H20.0078C19.1794 76.5 18.5078 75.8284 18.5078 75V58V50C18.5078 49.1716 19.1794 48.5 20.0078 48.5H52.0078H76.0078Z" stroke="#C8CED0" stroke-width="5"/>
<path d="M46.0236 92V69.6H55.5596C56.8396 69.6 58.0129 69.92 59.0796 70.56C60.1676 71.1787 61.0316 72.032 61.6716 73.12C62.3116 74.1867 62.6316 75.392 62.6316 76.736C62.6316 77.952 62.3116 79.0827 61.6716 80.128C61.0316 81.1733 60.1783 82.016 59.1116 82.656C58.0449 83.2747 56.8609 83.584 55.5596 83.584H49.4796V92H46.0236ZM59.3356 92L53.6396 81.888L57.1916 81.088L63.5276 92.032L59.3356 92ZM49.4796 80.256H55.8796C56.4983 80.256 57.0529 80.1067 57.5436 79.808C58.0343 79.488 58.4183 79.0613 58.6956 78.528C58.9729 77.9733 59.1116 77.3653 59.1116 76.704C59.1116 75.9573 58.9303 75.3067 58.5676 74.752C58.2263 74.176 57.7356 73.728 57.0956 73.408C56.4769 73.088 55.7729 72.928 54.9836 72.928H49.4796V80.256ZM75.1856 92.32C73.9696 92.32 72.8389 92.16 71.7936 91.84C70.7696 91.52 69.8309 91.04 68.9776 90.4C68.1456 89.7387 67.3989 88.928 66.7376 87.968L69.1056 85.248C70.1509 86.7413 71.1536 87.776 72.1136 88.352C73.0736 88.928 74.2149 89.216 75.5376 89.216C76.3483 89.216 77.0843 89.088 77.7456 88.832C78.4069 88.576 78.9296 88.224 79.3136 87.776C79.6976 87.328 79.8896 86.816 79.8896 86.24C79.8896 85.856 79.8256 85.4933 79.6976 85.152C79.5696 84.8107 79.3669 84.5013 79.0896 84.224C78.8336 83.9467 78.4923 83.6907 78.0656 83.456C77.6603 83.2213 77.1803 83.0187 76.6256 82.848C76.0709 82.656 75.4309 82.496 74.7056 82.368C73.5536 82.1333 72.5509 81.824 71.6976 81.44C70.8443 81.056 70.1296 80.576 69.5536 80C68.9776 79.424 68.5509 78.7733 68.2736 78.048C67.9963 77.3013 67.8576 76.4693 67.8576 75.552C67.8576 74.656 68.0496 73.824 68.4336 73.056C68.8389 72.288 69.3829 71.6267 70.0656 71.072C70.7696 70.496 71.5909 70.0587 72.5296 69.76C73.4683 69.44 74.4816 69.28 75.5696 69.28C76.7216 69.28 77.7776 69.4293 78.7376 69.728C79.6976 70.0267 80.5509 70.4747 81.2976 71.072C82.0443 71.648 82.6629 72.3627 83.1536 73.216L80.7216 75.616C80.2949 74.912 79.8149 74.3253 79.2816 73.856C78.7483 73.3653 78.1616 73.0027 77.5216 72.768C76.8816 72.512 76.1989 72.384 75.4736 72.384C74.6416 72.384 73.9163 72.512 73.2976 72.768C72.6789 73.024 72.1883 73.3867 71.8256 73.856C71.4843 74.304 71.3136 74.8373 71.3136 75.456C71.3136 75.904 71.3989 76.32 71.5696 76.704C71.7403 77.0667 71.9963 77.3973 72.3376 77.696C72.7003 77.9733 73.1803 78.2293 73.7776 78.464C74.3749 78.6773 75.0896 78.8693 75.9216 79.04C77.0949 79.296 78.1403 79.6267 79.0576 80.032C79.9749 80.416 80.7536 80.8747 81.3936 81.408C82.0336 81.9413 82.5136 82.5387 82.8336 83.2C83.1749 83.8613 83.3456 84.576 83.3456 85.344C83.3456 86.7733 83.0149 88.0107 82.3536 89.056C81.6923 90.1013 80.7536 90.912 79.5376 91.488C78.3216 92.0427 76.8709 92.32 75.1856 92.32Z" fill="#FBFEF9"/>
<path d="M64.949 39.498C64.3608 39.8118 63.6549 39.8118 63.0666 39.498L41.0666 27.7647C39.2295 26.7849 39.9257 24 42.0078 24L86.0078 24C88.0899 24 88.7861 26.7849 86.949 27.7647L64.949 39.498Z" fill="#FBFEF9"/>
</g>
<defs>
<clipPath id="clip0_122_2987">
<rect width="128" height="128" fill="white" transform="translate(0.0078125)"/>
</clipPath>
</defs>
</svg>
