<svg width="128" height="128" viewBox="0 0 128 128" fill="none" xmlns="http://www.w3.org/2000/svg">
<circle cx="64.0078" cy="64" r="45" fill="#191923" stroke="#C8CED0" stroke-width="6"/>
<path d="M37.0586 81.6357V48.0357H51.3626C53.2826 48.0357 55.0426 48.5157 56.6426 49.4757C58.2746 50.4037 59.5706 51.6837 60.5306 53.3157C61.4906 54.9157 61.9706 56.7237 61.9706 58.7397C61.9706 60.5637 61.4906 62.2597 60.5306 63.8277C59.5706 65.3957 58.2906 66.6597 56.6906 67.6197C55.0906 68.5477 53.3146 69.0117 51.3626 69.0117H42.2426V81.6357H37.0586ZM57.0266 81.6357L48.4826 66.4677L53.8106 65.2677L63.3146 81.6837L57.0266 81.6357ZM42.2426 64.0197H51.8426C52.7706 64.0197 53.6026 63.7957 54.3386 63.3477C55.0746 62.8677 55.6506 62.2277 56.0666 61.4277C56.4826 60.5957 56.6906 59.6837 56.6906 58.6917C56.6906 57.5717 56.4186 56.5957 55.8746 55.7637C55.3626 54.8997 54.6266 54.2277 53.6666 53.7477C52.7386 53.2677 51.6826 53.0277 50.4986 53.0277H42.2426V64.0197ZM80.8016 82.1157C78.9776 82.1157 77.2816 81.8757 75.7136 81.3957C74.1776 80.9157 72.7696 80.1957 71.4896 79.2357C70.2416 78.2437 69.1216 77.0277 68.1296 75.5877L71.6816 71.5077C73.2496 73.7477 74.7536 75.2997 76.1936 76.1637C77.6336 77.0277 79.3456 77.4597 81.3296 77.4597C82.5456 77.4597 83.6496 77.2677 84.6416 76.8837C85.6336 76.4997 86.4176 75.9717 86.9936 75.2997C87.5696 74.6277 87.8576 73.8597 87.8576 72.9957C87.8576 72.4197 87.7616 71.8757 87.5696 71.3637C87.3776 70.8517 87.0736 70.3877 86.6576 69.9717C86.2736 69.5557 85.7616 69.1717 85.1216 68.8197C84.5136 68.4677 83.7936 68.1637 82.9616 67.9077C82.1296 67.6197 81.1696 67.3797 80.0816 67.1877C78.3536 66.8357 76.8496 66.3717 75.5696 65.7957C74.2896 65.2197 73.2176 64.4997 72.3536 63.6357C71.4896 62.7717 70.8496 61.7957 70.4336 60.7077C70.0176 59.5877 69.8096 58.3397 69.8096 56.9637C69.8096 55.6197 70.0976 54.3717 70.6736 53.2197C71.2816 52.0677 72.0976 51.0757 73.1216 50.2437C74.1776 49.3797 75.4096 48.7237 76.8176 48.2757C78.2256 47.7957 79.7456 47.5557 81.3776 47.5557C83.1056 47.5557 84.6896 47.7797 86.1296 48.2277C87.5696 48.6757 88.8496 49.3477 89.9696 50.2437C91.0896 51.1077 92.0176 52.1797 92.7536 53.4597L89.1056 57.0597C88.4656 56.0037 87.7456 55.1237 86.9456 54.4197C86.1456 53.6837 85.2656 53.1397 84.3056 52.7877C83.3456 52.4037 82.3216 52.2117 81.2336 52.2117C79.9856 52.2117 78.8976 52.4037 77.9696 52.7877C77.0416 53.1717 76.3056 53.7157 75.7616 54.4197C75.2496 55.0917 74.9936 55.8917 74.9936 56.8197C74.9936 57.4917 75.1216 58.1157 75.3776 58.6917C75.6336 59.2357 76.0176 59.7317 76.5296 60.1797C77.0736 60.5957 77.7936 60.9797 78.6896 61.3317C79.5856 61.6517 80.6576 61.9397 81.9056 62.1957C83.6656 62.5797 85.2336 63.0757 86.6096 63.6837C87.9856 64.2597 89.1536 64.9477 90.1136 65.7477C91.0736 66.5477 91.7936 67.4437 92.2736 68.4357C92.7856 69.4277 93.0416 70.4997 93.0416 71.6517C93.0416 73.7957 92.5456 75.6517 91.5536 77.2197C90.5616 78.7877 89.1536 80.0037 87.3296 80.8677C85.5056 81.6997 83.3296 82.1157 80.8016 82.1157Z" fill="#FBFEF9"/>
</svg>
