<svg width="128" height="128" viewBox="0 0 128 128" fill="none" xmlns="http://www.w3.org/2000/svg">
<circle cx="64" cy="64" r="36" fill="#FBFEF9"/>
<path d="M93 84.6C93.3333 82.9333 92.9667 80.4333 91.9 77.1C90.8333 73.8333 88.7667 69.5667 85.7 64.3C82.5667 59.0333 79.3667 54.3667 76.1 50.3L74.1 47.7L76.2 45.6C78.9333 43.2 81.3333 41.3333 83.4 40L86.2 38.7L88.6 38L90.6 39.6L93.4 43C96.3333 47.0667 98.3333 51.7333 99.4 57L100 63.7L99.6 70.5C99 73.6333 98.1 76.4667 96.9 79L95.1 82.5L93.1 85.4L92.7 85.7L93 84.7V84.6ZM60.9 36.8L55.7 34.6L50.7 33.2L47.4 33L45.9 32.8L48.7 31.4C51.3 30.1333 54.1 29.1667 57.1 28.5L64.1 28L71 28.5C72.9333 28.9 74.9333 29.5 77 30.3C79 31.0333 80.6333 31.8333 81.9 32.7L82.6 33.1L81 33C77.4 32.8 72.7667 34.0667 67.1 36.8L63.9 38.2L60.9 36.8ZM60.4 99.9C54.7333 99.3 49.4 97.4 44.4 94.2L40.5 91.1C39.8333 90.3667 39.5 89.4333 39.5 88.3C39.5 86.1667 40.6333 83.2667 42.9 79.6C45.1667 76 48.3333 72.0333 52.4 67.7C54.6667 65.2333 57.1333 62.8333 59.8 60.5L64.2 57.1L71.4 63.3L80.5 73C83.7667 76.9333 86.1 80.4333 87.5 83.5C88.8333 86.5667 89.1333 88.8333 88.4 90.3C87.8667 91.3667 86.1333 92.7667 83.2 94.5C80.3333 96.3 77.6 97.6 75 98.4L67.8 99.8L60.4 99.9ZM22 64C22 75.6667 26.1 85.5667 34.3 93.7C42.5 101.9 52.4 106 64 106C75.6667 106 85.5667 101.9 93.7 93.7C101.9 85.5667 106 75.6667 106 64C106 52.4 101.9 42.5 93.7 34.3C85.5667 26.1 75.6667 22 64 22C52.4 22 42.5 26.1 34.3 34.3C26.1 42.5 22 52.4 22 64ZM112 64C112 77.3333 107.3 88.6333 97.9 97.9C88.6333 107.3 77.3333 112 64 112C50.7333 112 39.4 107.3 30 97.9C20.6667 88.6333 16 77.3333 16 64C16 50.7333 20.6667 39.4 30 30C39.4 20.6667 50.7333 16 64 16C77.3333 16 88.6333 20.6667 97.9 30C107.3 39.4 112 50.7333 112 64ZM34 83.8C32.3333 81.2 31.0333 78.5333 30.1 75.8C29.1667 73.0667 28.5333 69.9 28.2 66.3L28 62.8L28.7 57.5C29.1667 54.3667 30.2333 51.2 31.9 48C33.5 44.6667 35.3667 41.9 37.5 39.7C38.3667 38.7667 39 38.2333 39.4 38.1L41.7 38.5C44.1 39.3667 47.4 41.6667 51.6 45.4L54.2 47.7L52.8 49.5C49.4667 53.5 46.3 58 43.3 63C40.2333 68.1333 38.0333 72.4333 36.7 75.9C36.0333 77.8333 35.5667 79.6667 35.3 81.4C34.9667 83.1333 35 84.4 35.4 85.2V85.8L34 83.8Z" fill="#C8CED0"/>
<path d="M93 84.6C93.3333 82.9333 92.9667 80.4333 91.9 77.1C90.8333 73.8333 88.7667 69.5667 85.7 64.3C82.5667 59.0333 79.3667 54.3667 76.1 50.3L74.1 47.7L76.2 45.6C78.9333 43.2 81.3333 41.3333 83.4 40L86.2 38.7L88.6 38L90.6 39.6L93.4 43C96.3333 47.0667 98.3333 51.7333 99.4 57L100 63.7L99.6 70.5C99 73.6333 98.1 76.4667 96.9 79L95.1 82.5L93.1 85.4L92.7 85.7L93 84.7V84.6ZM60.9 36.8L55.7 34.6L50.7 33.2L47.4 33L45.9 32.8L48.7 31.4C51.3 30.1333 54.1 29.1667 57.1 28.5L64.1 28L71 28.5C72.9333 28.9 74.9333 29.5 77 30.3C79 31.0333 80.6333 31.8333 81.9 32.7L82.6 33.1L81 33C77.4 32.8 72.7667 34.0667 67.1 36.8L63.9 38.2L60.9 36.8ZM60.4 99.9C54.7333 99.3 49.4 97.4 44.4 94.2L40.5 91.1C39.8333 90.3667 39.5 89.4333 39.5 88.3C39.5 86.1667 40.6333 83.2667 42.9 79.6C45.1667 76 48.3333 72.0333 52.4 67.7C54.6667 65.2333 57.1333 62.8333 59.8 60.5L64.2 57.1L71.4 63.3L80.5 73C83.7667 76.9333 86.1 80.4333 87.5 83.5C88.8333 86.5667 89.1333 88.8333 88.4 90.3C87.8667 91.3667 86.1333 92.7667 83.2 94.5C80.3333 96.3 77.6 97.6 75 98.4L67.8 99.8L64 100.5L60.4 99.9ZM34 83.8C32.3333 81.2 31.0333 78.5333 30.1 75.8C29.1667 73.0667 28.5333 69.9 28.2 66.3L28 62.8L28.7 57.5C29.1667 54.3667 30.2333 51.2 31.9 48C33.5 44.6667 35.3667 41.9 37.5 39.7C38.3667 38.7667 39 38.2333 39.4 38.1L41.7 38.5C44.1 39.3667 47.4 41.6667 51.6 45.4L54.2 47.7L52.8 49.5C49.4667 53.5 46.3 58 43.3 63C40.2333 68.1333 38.0333 72.4333 36.7 75.9C36.0333 77.8333 35.5667 79.6667 35.3 81.4C34.9667 83.1333 35 84.4 35.4 85.2V85.8L34 83.8Z" fill="#2E2836"/>
</svg>
