<svg width="128" height="128" viewBox="0 0 128 128" fill="none" xmlns="http://www.w3.org/2000/svg">
<path d="M35 90L35 70C35 53.9837 47.9837 41 64 41C80.0163 41 93 53.9837 93 70L93 90C93 106.016 80.0163 119 64 119C47.9837 119 35 106.016 35 90Z" fill="#191923" stroke="#C8CED0" stroke-width="6"/>
<path fill-rule="evenodd" clip-rule="evenodd" d="M64 5C65.6569 5 67 6.34315 67 8V26C67 27.6569 65.6569 29 64 29C62.3431 29 61 27.6569 61 26V8C61 6.34315 62.3431 5 64 5Z" fill="#191923"/>
<path fill-rule="evenodd" clip-rule="evenodd" d="M29.5024 14.4009C30.9381 13.5738 32.7724 14.0671 33.5995 15.5028L42.5849 31.0997C43.412 32.5353 42.9186 34.3696 41.483 35.1967C40.0473 36.0238 38.213 35.5304 37.3859 34.0948L28.4005 18.4979C27.5734 17.0623 28.0668 15.228 29.5024 14.4009Z" fill="#191923"/>
<path fill-rule="evenodd" clip-rule="evenodd" d="M98.4829 14.4009C97.0473 13.5738 95.213 14.0671 94.3859 15.5028L85.4005 31.0997C84.5734 32.5353 85.0667 34.3696 86.5024 35.1967C87.938 36.0238 89.7723 35.5304 90.5994 34.0948L99.5848 18.4979C100.412 17.0623 99.9186 15.228 98.4829 14.4009Z" fill="#191923"/>
</svg>
