<svg width="128" height="128" viewBox="0 0 128 128" fill="none" xmlns="http://www.w3.org/2000/svg">
<path d="M35 90L35 70C35 53.9837 47.9837 41 64 41C80.0163 41 93 53.9837 93 70L93 90C93 106.016 80.0163 119 64 119C47.9837 119 35 106.016 35 90Z" fill="#191923" stroke="#C8CED0" stroke-width="6"/>
<path fill-rule="evenodd" clip-rule="evenodd" d="M43 6C43 4.34315 44.3431 3 46 3L82 3C83.6569 3 85 4.34315 85 6C85 7.65685 83.6569 9 82 9L46 9C44.3431 9 43 7.65685 43 6Z" fill="#191923"/>
<path fill-rule="evenodd" clip-rule="evenodd" d="M43 30C43 28.3431 44.3431 27 46 27L82 27C83.6569 27 85 28.3431 85 30C85 31.6569 83.6569 33 82 33H46C44.3431 33 43 31.6569 43 30Z" fill="#191923"/>
<path fill-rule="evenodd" clip-rule="evenodd" d="M43 18C43 16.3431 44.3431 15 46 15L82 15C83.6569 15 85 16.3431 85 18C85 19.6569 83.6569 21 82 21L46 21C44.3431 21 43 19.6569 43 18Z" fill="#191923"/>
</svg>
