<svg width="128" height="128" viewBox="0 0 128 128" fill="none" xmlns="http://www.w3.org/2000/svg">
<path d="M32 31C27.0294 31 23 35.0294 23 40C23 44.9706 27.0294 49 32 49L96 49C100.971 49 105 44.9706 105 40C105 35.0294 100.971 31 96 31L32 31Z" fill="#191923" stroke="#C8CED0" stroke-width="6" stroke-linecap="round"/>
<path d="M32 79C27.0294 79 23 83.0294 23 88C23 92.9706 27.0294 97 32 97H96C100.971 97 105 92.9706 105 88C105 83.0294 100.971 79 96 79H32Z" fill="#191923" stroke="#C8CED0" stroke-width="6" stroke-linecap="round"/>
<path d="M32 55C27.0294 55 23 59.0294 23 64C23 68.9706 27.0294 73 32 73H96C100.971 73 105 68.9706 105 64C105 59.0294 100.971 55 96 55H32Z" fill="#191923" stroke="#C8CED0" stroke-width="6" stroke-linecap="round"/>
</svg>
