<svg width="128" height="128" viewBox="0 0 128 128" fill="none" xmlns="http://www.w3.org/2000/svg">
<path d="M22.7693 52.5495L28.5883 81.6447C29.6763 87.0844 34.4526 91 40 91H64H88C93.5474 91 98.3237 87.0844 99.4117 81.6447L105.231 52.5495C106.84 44.5052 100.687 37 92.4831 37H35.5169C27.3133 37 21.1605 44.5052 22.7693 52.5495Z" fill="#191923" stroke="#C8CED0" stroke-width="6"/>
<path d="M114 117H117V114V100C117 86.1929 105.807 75 92 75H89V68C89 58.6112 81.3888 51 72 51C62.6112 51 55 58.6112 55 68V114V117H58H114Z" fill="#FBFEF9" stroke="#C8CED0" stroke-width="6"/>
<path d="M80.5 83.5V68C80.5 63.3056 76.6944 59.5 72 59.5C67.3056 59.5 63.5 63.3056 63.5 68V108V108.5H64H80H108H108.5V108V100C108.5 90.8873 101.113 83.5 92 83.5H80.5Z" fill="#191923" stroke="black"/>
</svg>
