<svg width="128" height="128" viewBox="0 0 128 128" fill="none" xmlns="http://www.w3.org/2000/svg">
<path fill-rule="evenodd" clip-rule="evenodd" d="M22 78V50C22 44.4772 26.4772 40 32 40H96C101.523 40 106 44.4772 106 50V78C106 80.4447 105.123 82.6846 103.666 84.4219C105.71 84.9012 107.604 85.7726 109.263 86.9524C110.991 84.3975 112 81.3166 112 78V50C112 41.1634 104.837 34 96 34H32C23.1634 34 16 41.1634 16 50V78C16 86.8366 23.1634 94 32 94H72V88H32C26.4771 88 22 83.5228 22 78Z" fill="#C8CED0"/>
<path d="M22 50V78C22 83.5228 26.4771 88 32 88H72L103.666 84.4219C105.123 82.6846 106 80.4447 106 78V50C106 44.4772 101.523 40 96 40H32C26.4772 40 22 44.4772 22 50Z" fill="#191923"/>
<path d="M122 117H125V114V100C125 86.1929 113.807 75 100 75H97V68C97 58.6112 89.3888 51 80 51C70.6112 51 63 58.6112 63 68V114V117H66H122Z" fill="#FBFEF9" stroke="#C8CED0" stroke-width="6"/>
<path d="M72 68C72 63.5817 75.5817 60 80 60V60C84.4183 60 88 63.5817 88 68V84V108H72V68Z" fill="#191923"/>
<path d="M88 84V108H116V100C116 91.1634 108.837 84 100 84H88Z" fill="#191923"/>
</svg>
