<svg width="128" height="128" viewBox="0 0 128 128" fill="none" xmlns="http://www.w3.org/2000/svg">
<g clip-path="url(#clip0_133_4247)">
<path d="M44.1459 94V74.4H48.9059V89.8H60.1339V94H44.1459ZM66.5405 94V74.4H76.7885C78.3751 74.4 79.7098 74.596 80.7925 74.988C81.8938 75.38 82.7245 75.9307 83.2845 76.64C83.8445 77.3493 84.1245 78.208 84.1245 79.216C84.1245 80.3173 83.8165 81.2507 83.2005 82.016C82.5845 82.7813 81.6605 83.3133 80.4285 83.612L80.5125 83.08C81.3525 83.2667 82.1271 83.5747 82.8365 84.004C83.5458 84.4333 84.1058 84.984 84.5165 85.656C84.9458 86.328 85.1605 87.1307 85.1605 88.064C85.1605 89.184 84.9365 90.1267 84.4885 90.892C84.0405 91.6387 83.4338 92.2453 82.6685 92.712C81.9218 93.16 81.0911 93.4867 80.1765 93.692C79.2618 93.8973 78.3285 94 77.3765 94H66.5405ZM71.0205 90.024H77.3765C77.9738 90.024 78.5058 89.9493 78.9725 89.8C79.4391 89.632 79.8031 89.3893 80.0645 89.072C80.3445 88.736 80.4845 88.3253 80.4845 87.84C80.4845 87.3173 80.3165 86.9067 79.9805 86.608C79.6631 86.2907 79.2525 86.0667 78.7485 85.936C78.2445 85.8053 77.7405 85.74 77.2365 85.74H71.0205V90.024ZM71.0205 82.156H76.5925C77.1711 82.156 77.6658 82.0813 78.0765 81.932C78.5058 81.764 78.8418 81.54 79.0845 81.26C79.3271 80.98 79.4485 80.6347 79.4485 80.224C79.4485 79.5893 79.1685 79.1227 78.6085 78.824C78.0485 78.5253 77.3205 78.376 76.4245 78.376H71.0205V82.156Z" fill="#191923"/>
<path d="M53.5 51L56.5 51L56.5 48L56.5 42.5C56.5 38.3579 59.8579 35 64 35L67 35L67 32L67 3.11367C87.1373 4.64554 103 21.4703 103 42L103 48L103 86C103 107.539 85.5391 125 64 125C42.4609 125 25 107.539 25 86L25 64L25 51L43 51L53.5 51ZM43 45L25 45L25 42C25 21.4703 40.8627 4.64555 61 3.11367L61 29.3345C54.988 30.6987 50.5 36.0752 50.5 42.5L50.5 45L43 45Z" stroke="#2E2836" stroke-width="6"/>
<path d="M53.5 51L56.5 51L56.5 48L56.5 42.5C56.5 38.3579 59.8579 35 64 35L67 35L67 32L67 3.11367C87.1373 4.64554 103 21.4703 103 42L103 48L103 86C103 107.539 85.5391 125 64 125C42.4609 125 25 107.539 25 86L25 64L25 51L43 51L53.5 51ZM43 45L25 45L25 42C25 21.4703 40.8627 4.64555 61 3.11367L61 29.3345C54.988 30.6987 50.5 36.0752 50.5 42.5L50.5 45L43 45Z" stroke="#2E2836" stroke-width="6"/>
<path fill-rule="evenodd" clip-rule="evenodd" d="M50.5 45L50.5 42.5C50.5 36.0752 54.988 30.6987 61 29.3345L61 6.12322C42.5214 7.64767 28 23.128 28 42L28 45L50.5 45Z" fill="#191923"/>
<path d="M47.5074 41.8768C47.7092 35.0948 52.0015 29.3455 58 27.0026L58 9.42048C42.6405 12.2409 31 25.7008 31 41.8768H47.5074Z" stroke="#C8CED0" stroke-width="6"/>
</g>
<defs>
<clipPath id="clip0_133_4247">
<rect width="128" height="128" fill="white"/>
</clipPath>
</defs>
</svg>
