<svg width="128" height="128" viewBox="0 0 128 128" fill="none" xmlns="http://www.w3.org/2000/svg">
<g clip-path="url(#clip0_133_4246)">
<path d="M53.5 51L56.5 51L56.5 48L56.5 42.5C56.5 38.3579 59.8579 35 64 35L67 35L67 32L67 3.11367C87.1373 4.64554 103 21.4703 103 42L103 48L103 86C103 107.539 85.5391 125 64 125C42.4609 125 25 107.539 25 86L25 64L25 51L43 51L53.5 51ZM43 45L25 45L25 42C25 21.4703 40.8627 4.64555 61 3.11367L61 29.3345C54.988 30.6987 50.5 36.0752 50.5 42.5L50.5 45L43 45Z" stroke="#2E2836" stroke-width="6"/>
<path d="M53.5 51L56.5 51L56.5 48L56.5 42.5C56.5 38.3579 59.8579 35 64 35L67 35L67 32L67 3.11367C87.1373 4.64554 103 21.4703 103 42L103 48L103 86C103 107.539 85.5391 125 64 125C42.4609 125 25 107.539 25 86L25 64L25 51L43 51L53.5 51ZM43 45L25 45L25 42C25 21.4703 40.8627 4.64555 61 3.11367L61 29.3345C54.988 30.6987 50.5 36.0752 50.5 42.5L50.5 45L43 45Z" stroke="#2E2836" stroke-width="6"/>
<path d="M53 48L53 43C53 36.9249 57.9249 32 64 32C70.0751 32 75 36.9249 75 43L75 48L75 52.459C75 58.8329 69.8329 64 63.4591 64C57.6827 64 53 59.3173 53 53.541L53 48Z" fill="#191923" stroke="#C8CED0" stroke-width="6"/>
<path d="M47 43L47 48L47 53.541C47 62.631 54.369 70 63.4591 70C73.1467 70 81 62.1466 81 52.459L81 48L81 43C81 33.6112 73.3888 26 64 26C54.6112 26 47 33.6112 47 43Z" stroke="#2E2836" stroke-width="6"/>
<path d="M40.2494 99V79.4H44.5054L52.7934 90.656H49.9654L58.2814 79.4H62.4814V99H57.8614V92.728C57.8614 91.1227 57.8988 89.648 57.9734 88.304C58.0481 86.9413 58.1974 85.5693 58.4214 84.188L58.8974 85.7L52.2614 94.24H50.4134L43.7774 85.7L44.3094 84.188C44.5148 85.532 44.6548 86.8853 44.7294 88.248C44.8228 89.592 44.8694 91.0853 44.8694 92.728V99H40.2494ZM70.4369 99V79.4H80.6849C82.2716 79.4 83.6063 79.596 84.6889 79.988C85.7903 80.38 86.6209 80.9307 87.1809 81.64C87.7409 82.3493 88.0209 83.208 88.0209 84.216C88.0209 85.3173 87.7129 86.2507 87.0969 87.016C86.4809 87.7813 85.5569 88.3133 84.3249 88.612L84.4089 88.08C85.2489 88.2667 86.0236 88.5747 86.7329 89.004C87.4423 89.4333 88.0023 89.984 88.4129 90.656C88.8423 91.328 89.0569 92.1307 89.0569 93.064C89.0569 94.184 88.8329 95.1267 88.3849 95.892C87.9369 96.6387 87.3303 97.2453 86.5649 97.712C85.8183 98.16 84.9876 98.4867 84.0729 98.692C83.1583 98.8973 82.2249 99 81.2729 99H70.4369ZM74.9169 95.024H81.2729C81.8703 95.024 82.4023 94.9493 82.8689 94.8C83.3356 94.632 83.6996 94.3893 83.9609 94.072C84.2409 93.736 84.3809 93.3253 84.3809 92.84C84.3809 92.3173 84.2129 91.9067 83.8769 91.608C83.5596 91.2907 83.1489 91.0667 82.6449 90.936C82.1409 90.8053 81.6369 90.74 81.1329 90.74H74.9169V95.024ZM74.9169 87.156H80.4889C81.0676 87.156 81.5623 87.0813 81.9729 86.932C82.4023 86.764 82.7383 86.54 82.9809 86.26C83.2236 85.98 83.3449 85.6347 83.3449 85.224C83.3449 84.5893 83.0649 84.1227 82.5049 83.824C81.9449 83.5253 81.2169 83.376 80.3209 83.376H74.9169V87.156Z" fill="#191923"/>
</g>
<defs>
<clipPath id="clip0_133_4246">
<rect width="128" height="128" fill="white"/>
</clipPath>
</defs>
</svg>
