<svg width="128" height="128" viewBox="0 0 128 128" fill="none" xmlns="http://www.w3.org/2000/svg">
<g clip-path="url(#clip0_133_4256)">
<path d="M53.5 51L56.5 51L56.5 48L56.5 42.5C56.5 38.3579 59.8579 35 64 35L67 35L67 32L67 3.11367C87.1373 4.64554 103 21.4703 103 42L103 48L103 86C103 107.539 85.5391 125 64 125C42.4609 125 25 107.539 25 86L25 64L25 51L43 51L53.5 51ZM43 45L25 45L25 42C25 21.4703 40.8627 4.64555 61 3.11367L61 29.3345C54.988 30.6987 50.5 36.0752 50.5 42.5L50.5 45L43 45Z" stroke="#2E2836" stroke-width="6"/>
<path d="M53.5 51L56.5 51L56.5 48L56.5 42.5C56.5 38.3579 59.8579 35 64 35L67 35L67 32L67 3.11367C87.1373 4.64554 103 21.4703 103 42L103 48L103 86C103 107.539 85.5391 125 64 125C42.4609 125 25 107.539 25 86L25 64L25 51L43 51L53.5 51ZM43 45L25 45L25 42C25 21.4703 40.8627 4.64555 61 3.11367L61 29.3345C54.988 30.6987 50.5 36.0752 50.5 42.5L50.5 45L43 45Z" stroke="#2E2836" stroke-width="6"/>
<path fill-rule="evenodd" clip-rule="evenodd" d="M77.5 45L77.5 42.5C77.5 36.0752 73.012 30.6987 67 29.3345L67 6.12322C85.4786 7.64768 100 23.128 100 42L100 45L77.5 45Z" fill="#191923"/>
<path d="M80.4926 42.0001C80.2908 35.2181 75.9985 29.4688 70 27.1258L70 9.54377C85.3595 12.3642 97 25.8241 97 42.0001H80.4926Z" stroke="#C8CED0" stroke-width="6"/>
</g>
<defs>
<clipPath id="clip0_133_4256">
<rect width="128" height="128" fill="white"/>
</clipPath>
</defs>
</svg>
