<svg width="128" height="128" viewBox="0 0 128 128" fill="none" xmlns="http://www.w3.org/2000/svg">
<g clip-path="url(#clip0_133_4254)">
<path d="M53.5 51L56.5 51L56.5 48L56.5 42.5C56.5 38.3579 59.8579 35 64 35L67 35L67 32L67 3.11367C87.1373 4.64554 103 21.4703 103 42L103 48L103 86C103 107.539 85.5391 125 64 125C42.4609 125 25 107.539 25 86L25 64L25 51L43 51L53.5 51ZM43 45L25 45L25 42C25 21.4703 40.8627 4.64555 61 3.11367L61 29.3345C54.988 30.6987 50.5 36.0752 50.5 42.5L50.5 45L43 45Z" stroke="#2E2836" stroke-width="6"/>
<path d="M53.5 51L56.5 51L56.5 48L56.5 42.5C56.5 38.3579 59.8579 35 64 35L67 35L67 32L67 3.11367C87.1373 4.64554 103 21.4703 103 42L103 48L103 86C103 107.539 85.5391 125 64 125C42.4609 125 25 107.539 25 86L25 64L25 51L43 51L53.5 51ZM43 45L25 45L25 42C25 21.4703 40.8627 4.64555 61 3.11367L61 29.3345C54.988 30.6987 50.5 36.0752 50.5 42.5L50.5 45L43 45Z" stroke="#2E2836" stroke-width="6"/>
<path fill-rule="evenodd" clip-rule="evenodd" d="M77.5 45L77.5 42.5C77.5 36.0752 73.012 30.6987 67 29.3345L67 6.12322C85.4786 7.64768 100 23.128 100 42L100 45L77.5 45Z" fill="#191923"/>
<path d="M80.4926 42.0001C80.2908 35.2181 75.9985 29.4688 70 27.1258L70 9.54377C85.3595 12.3642 97 25.8241 97 42.0001H80.4926Z" stroke="#C8CED0" stroke-width="6"/>
<path d="M42.683 99V79.4H53.127C54.583 79.4 55.843 79.6613 56.907 80.184C57.971 80.7067 58.7924 81.444 59.371 82.396C59.9684 83.3293 60.267 84.4213 60.267 85.672C60.267 86.904 59.9497 88.024 59.315 89.032C58.699 90.0213 57.8497 90.796 56.767 91.356C55.6844 91.916 54.471 92.196 53.127 92.196H47.219V99H42.683ZM55.787 99L49.739 90.152L54.695 89.452L61.303 99H55.787ZM47.219 88.556H52.595C53.155 88.556 53.6497 88.444 54.079 88.22C54.5084 87.996 54.8444 87.688 55.087 87.296C55.3484 86.904 55.479 86.4467 55.479 85.924C55.479 85.4013 55.3484 84.9533 55.087 84.58C54.8257 84.188 54.4617 83.8893 53.995 83.684C53.547 83.4787 53.0244 83.376 52.427 83.376H47.219V88.556ZM68.0033 99V79.4H78.2513C79.838 79.4 81.1727 79.596 82.2553 79.988C83.3567 80.38 84.1873 80.9307 84.7473 81.64C85.3073 82.3493 85.5873 83.208 85.5873 84.216C85.5873 85.3173 85.2793 86.2507 84.6633 87.016C84.0473 87.7813 83.1233 88.3133 81.8913 88.612L81.9753 88.08C82.8153 88.2667 83.59 88.5747 84.2993 89.004C85.0087 89.4333 85.5687 89.984 85.9793 90.656C86.4087 91.328 86.6233 92.1307 86.6233 93.064C86.6233 94.184 86.3993 95.1267 85.9513 95.892C85.5033 96.6387 84.8967 97.2453 84.1313 97.712C83.3847 98.16 82.554 98.4867 81.6393 98.692C80.7247 98.8973 79.7913 99 78.8393 99H68.0033ZM72.4833 95.024H78.8393C79.4367 95.024 79.9687 94.9493 80.4353 94.8C80.902 94.632 81.266 94.3893 81.5273 94.072C81.8073 93.736 81.9473 93.3253 81.9473 92.84C81.9473 92.3173 81.7793 91.9067 81.4433 91.608C81.126 91.2907 80.7153 91.0667 80.2113 90.936C79.7073 90.8053 79.2033 90.74 78.6993 90.74H72.4833V95.024ZM72.4833 87.156H78.0553C78.634 87.156 79.1287 87.0813 79.5393 86.932C79.9687 86.764 80.3047 86.54 80.5473 86.26C80.79 85.98 80.9113 85.6347 80.9113 85.224C80.9113 84.5893 80.6313 84.1227 80.0713 83.824C79.5113 83.5253 78.7833 83.376 77.8873 83.376H72.4833V87.156Z" fill="#191923"/>
</g>
<defs>
<clipPath id="clip0_133_4254">
<rect width="128" height="128" fill="white"/>
</clipPath>
</defs>
</svg>
