<svg width="128" height="128" viewBox="0 0 128 128" fill="none" xmlns="http://www.w3.org/2000/svg">
<g clip-path="url(#clip0_133_4258)">
<path d="M30.9981 69.8929L30.8947 67L28 67C19.7157 67 13 73.7157 13 82L13 85C13 93.8366 20.1634 101 29 101L32.1091 101L31.9981 97.8929L30.9981 69.8929Z" stroke="#2E2836" stroke-width="6"/>
<path d="M31 42L31 39L28 39C19.7157 39 13 45.7157 13 54L13 58C13 66.2843 19.7157 73 28 73L31 73L31 70L31 42Z" fill="#FBFEF9" stroke="#2E2836" stroke-width="6"/>
<path d="M31 36C31 17.7746 45.7746 3 64 3L70 3C91.5391 3 109 20.4609 109 42L109 48L109 86C109 107.539 91.5391 125 70 125C48.4609 125 31 107.539 31 86L31 80L31 64L31 48L31 36Z" stroke="#2E2836" stroke-width="6"/>
<path d="M17.5 58L17.5 54C17.5 48.7103 21.4116 44.3342 26.5 43.6063L26.5 68.3937C21.4116 67.6658 17.5 63.2897 17.5 58Z" fill="#191923" stroke="#C8CED0" stroke-width="3"/>
<path d="M52.4229 98.28C51.1349 98.28 49.9682 98.1307 48.9229 97.832C47.8962 97.5147 46.9816 97.0667 46.1789 96.488C45.3762 95.8907 44.6576 95.1907 44.0229 94.388L46.9069 91.112C47.8402 92.3627 48.7736 93.2027 49.7069 93.632C50.6589 94.0613 51.6389 94.276 52.6469 94.276C53.1509 94.276 53.6082 94.2107 54.0189 94.08C54.4296 93.9493 54.7469 93.7627 54.9709 93.52C55.1949 93.2587 55.3069 92.9413 55.3069 92.568C55.3069 92.288 55.2322 92.036 55.0829 91.812C54.9522 91.588 54.7656 91.392 54.5229 91.224C54.2802 91.056 53.9909 90.9067 53.6549 90.776C53.3189 90.6267 52.9642 90.5053 52.5909 90.412C52.2176 90.3 51.8349 90.2067 51.4429 90.132C50.3602 89.8893 49.4176 89.5907 48.6149 89.236C47.8122 88.8813 47.1402 88.452 46.5989 87.948C46.0762 87.4253 45.6842 86.8373 45.4229 86.184C45.1616 85.512 45.0309 84.7653 45.0309 83.944C45.0309 83.0667 45.2269 82.264 45.6189 81.536C46.0296 80.7893 46.5709 80.1547 47.2429 79.632C47.9336 79.0907 48.7269 78.68 49.6229 78.4C50.5189 78.1013 51.4522 77.952 52.4229 77.952C53.7109 77.952 54.8122 78.092 55.7269 78.372C56.6602 78.6333 57.4536 79.016 58.1069 79.52C58.7789 80.024 59.3482 80.6307 59.8149 81.34L56.8749 84.168C56.4829 83.6827 56.0536 83.2813 55.5869 82.964C55.1389 82.6467 54.6536 82.404 54.1309 82.236C53.6269 82.068 53.1042 81.984 52.5629 81.984C52.0029 81.984 51.5176 82.0587 51.1069 82.208C50.7149 82.3387 50.4069 82.5347 50.1829 82.796C49.9589 83.0387 49.8469 83.3373 49.8469 83.692C49.8469 84.0093 49.9402 84.28 50.1269 84.504C50.3136 84.728 50.5656 84.9333 50.8829 85.12C51.2002 85.288 51.5642 85.4373 51.9749 85.568C52.3856 85.68 52.8149 85.7733 53.2629 85.848C54.2896 86.0533 55.2136 86.324 56.0349 86.66C56.8749 86.996 57.5936 87.4067 58.1909 87.892C58.8069 88.3773 59.2736 88.956 59.5909 89.628C59.9269 90.2813 60.0949 91.0467 60.0949 91.924C60.0949 93.2867 59.7589 94.444 59.0869 95.396C58.4336 96.3293 57.5282 97.048 56.3709 97.552C55.2322 98.0373 53.9162 98.28 52.4229 98.28ZM63.673 98V78.4H72.325C73.669 78.4 74.8077 78.596 75.741 78.988C76.6743 79.3613 77.3743 79.912 77.841 80.64C78.3263 81.3493 78.569 82.208 78.569 83.216C78.569 84.336 78.289 85.2787 77.729 86.044C77.1877 86.8093 76.3943 87.3227 75.349 87.584L75.293 87.052C76.1703 87.2387 76.9263 87.5653 77.561 88.032C78.2143 88.4987 78.7183 89.0773 79.073 89.768C79.4277 90.44 79.605 91.2053 79.605 92.064C79.605 93.0533 79.437 93.9213 79.101 94.668C78.765 95.396 78.2797 96.012 77.645 96.516C77.0103 97.02 76.2637 97.3933 75.405 97.636C74.565 97.8787 73.6317 98 72.605 98H63.673ZM68.153 94.024H72.437C72.9597 94.024 73.3983 93.94 73.753 93.772C74.1263 93.604 74.4157 93.3613 74.621 93.044C74.8263 92.708 74.929 92.3067 74.929 91.84C74.929 91.4107 74.817 91.0467 74.593 90.748C74.3877 90.4493 74.089 90.2253 73.697 90.076C73.305 89.908 72.8383 89.824 72.297 89.824H68.153V94.024ZM68.153 86.268H71.653C72.1383 86.268 72.549 86.1933 72.885 86.044C73.2397 85.876 73.501 85.652 73.669 85.372C73.8557 85.0733 73.949 84.7187 73.949 84.308C73.949 83.7107 73.7437 83.244 73.333 82.908C72.9223 82.5533 72.3063 82.376 71.485 82.376H68.153V86.268ZM86.7498 96.628V80.724L87.7858 83.104L83.5858 85.092L82.7738 80.836L88.3458 78.12H91.4258V96.628H86.7498ZM83.1658 98V93.8H95.0938V98H83.1658Z" fill="#191923"/>
</g>
<defs>
<clipPath id="clip0_133_4258">
<rect width="128" height="128" fill="white"/>
</clipPath>
</defs>
</svg>
