<svg width="128" height="128" viewBox="0 0 128 128" fill="none" xmlns="http://www.w3.org/2000/svg">
<g clip-path="url(#clip0_133_4252)">
<path d="M31 42L31 39L28 39C19.7157 39 13 45.7157 13 54L13 58C13 66.2843 19.7157 73 28 73L31 73L31 70L31 42Z" stroke="#2E2836" stroke-width="6"/>
<path d="M30.9981 69.8929L30.8947 67L28 67C19.7157 67 13 73.7157 13 82L13 85C13 93.8366 20.1634 101 29 101L32.1091 101L31.9981 97.8929L30.9981 69.8929Z" fill="#191923" stroke="#2E2836" stroke-width="6"/>
<path d="M17.5 85L17.5 82C17.5 76.6908 21.4403 72.302 26.5561 71.5985L27.4417 96.3953C21.8275 95.6348 17.5 90.8228 17.5 85Z" fill="#191923" stroke="#C8CED0" stroke-width="3"/>
<path d="M31 36C31 17.7746 45.7746 3 64 3L70 3C91.5391 3 109 20.4609 109 42L109 48L109 86C109 107.539 91.5391 125 70 125C48.4609 125 31 107.539 31 86L31 80L31 64L31 48L31 36Z" stroke="#2E2836" stroke-width="6"/>
</g>
<defs>
<clipPath id="clip0_133_4252">
<rect width="128" height="128" fill="white"/>
</clipPath>
</defs>
</svg>
