<svg width="128" height="128" viewBox="0 0 128 128" fill="none" xmlns="http://www.w3.org/2000/svg">
<circle cx="6" cy="6" r="6" transform="matrix(-4.37114e-08 1 1 4.37114e-08 58 76)" fill="#191923"/>
<path fill-rule="evenodd" clip-rule="evenodd" d="M43 51H28L28 64L28 86C28 105.882 44.1178 122 64 122C80.841 122 94.9811 110.436 98.9129 94.8153L105.847 89.615C104.013 111.119 85.9782 128 64 128C40.804 128 22 109.196 22 86L22 64L22 51L22 48L22 45L22 42C22 19.8127 39.2042 1.64373 61 0.10549C61.9909 0.0355589 62.9913 0 64 0C65.0087 0 66.0091 0.0355587 67 0.10549C88.7958 1.64373 106 19.8127 106 42V45V48V51V74.5L100 70V51H85L64 51H43ZM103.867 83.6L99.9966 86.5025C99.9989 86.3353 100 86.1678 100 86V77.5L103.867 80.4C104.933 81.2 104.933 82.8 103.867 83.6ZM67 6.12322C85.4786 7.64767 100 23.128 100 42V45H85H67L67 6.12322ZM61 6.12322C42.5214 7.64767 28 23.128 28 42V45H43H61L61 6.12322Z" fill="#2E2836"/>
<path d="M69 31L64 31L58.459 31C49.369 31 42 38.369 42 47.4591C42 57.1467 49.8534 65 59.541 65H64L69 65C78.3888 65 86 57.3888 86 48C86 38.6112 78.3888 31 69 31Z" stroke="#2E2836" stroke-width="6"/>
<path d="M64 37L69 37C75.0751 37 80 41.9249 80 48C80 54.0751 75.0751 59 69 59L64 59H59.541C53.1671 59 48 53.8329 48 47.4591C48 41.6827 52.6827 37 58.459 37L64 37Z" fill="#191923" stroke="#C8CED0" stroke-width="6"/>
<circle cx="6" cy="6" r="6" transform="matrix(1 0 0 -1 34 88)" fill="#191923"/>
<path d="M103.867 80.4C104.933 81.2 104.933 82.8 103.867 83.6L85.2 97.6C83.8815 98.5889 82 97.6481 82 96L82 68C82 66.3519 83.8815 65.4111 85.2 66.4L103.867 80.4Z" fill="#191923"/>
</svg>
