<svg width="128" height="128" viewBox="0 0 128 128" fill="none" xmlns="http://www.w3.org/2000/svg">
<path d="M20 109H108C108.552 109 109 108.552 109 108V48C109 31.9837 96.0163 19 80 19H64C39.1472 19 19 39.1472 19 64V108C19 108.552 19.4477 109 20 109Z" stroke="#2E2836" stroke-width="6"/>
<path d="M43.71 88V65.6H49.15V83.2H62.718V88H43.71ZM69.587 88L68.435 84.832L75.091 78.944C75.7097 78.3893 76.3283 77.824 76.947 77.248C77.5657 76.6507 78.1417 76.0533 78.675 75.456C79.2083 74.8373 79.635 74.2507 79.955 73.696C80.2963 73.12 80.467 72.5973 80.467 72.128C80.467 71.68 80.3497 71.2853 80.115 70.944C79.9017 70.6027 79.5817 70.336 79.155 70.144C78.7283 69.9307 78.2057 69.824 77.587 69.824C76.9683 69.824 76.339 69.9413 75.699 70.176C75.0803 70.4107 74.483 70.7947 73.907 71.328C73.331 71.84 72.7657 72.5227 72.211 73.376L68.211 71.04C68.8937 69.9307 69.7257 68.928 70.707 68.032C71.7097 67.1147 72.8403 66.4 74.099 65.888C75.379 65.3547 76.7443 65.088 78.195 65.088C79.731 65.088 81.075 65.3653 82.227 65.92C83.4003 66.4747 84.307 67.232 84.947 68.192C85.6083 69.152 85.939 70.2507 85.939 71.488C85.939 72.1707 85.8217 72.8427 85.587 73.504C85.3523 74.1653 85.0217 74.816 84.595 75.456C84.1683 76.096 83.6777 76.7253 83.123 77.344C82.5897 77.9413 82.0137 78.5387 81.395 79.136C80.7763 79.7333 80.1363 80.2987 79.475 80.832L73.587 85.984L73.427 83.2H86.931V88H69.587Z" fill="#191923"/>
</svg>
