<svg width="128" height="128" viewBox="0 0 128 128" fill="none" xmlns="http://www.w3.org/2000/svg">
<path d="M19 20V88C19 99.598 28.402 109 40 109H80C96.0163 109 109 96.0163 109 80V20C109 19.4477 108.552 19 108 19H20C19.4477 19 19 19.4477 19 20Z" stroke="#2E2836" stroke-width="6"/>
<path d="M42.6163 76V53.6H55.0323C56.7603 53.6 58.2323 53.8987 59.4483 54.496C60.6856 55.072 61.6349 55.904 62.2963 56.992C62.9789 58.0587 63.3203 59.3173 63.3203 60.768C63.3203 62.1973 62.9469 63.4773 62.2003 64.608C61.4749 65.7387 60.4829 66.6347 59.2243 67.296C57.9869 67.936 56.5896 68.256 55.0323 68.256H47.8003V76H42.6163ZM58.2643 76L51.0323 65.888L56.6963 65.088L64.5683 76H58.2643ZM47.8003 64.096H54.4243C55.0429 64.096 55.6083 63.968 56.1203 63.712C56.6323 63.456 57.0483 63.104 57.3683 62.656C57.6883 62.1867 57.8483 61.6427 57.8483 61.024C57.8483 60.448 57.6883 59.9467 57.3683 59.52C57.0483 59.072 56.6216 58.7307 56.0883 58.496C55.5549 58.2613 54.9469 58.144 54.2643 58.144H47.8003V64.096ZM77.3388 74.432V56.256L78.6188 58.272L72.9548 61.088L71.7708 56.384L78.0108 53.28H82.6828V74.432H77.3388ZM72.2188 76V71.2H87.1308V76H72.2188Z" fill="#191923"/>
</svg>
