<svg width="128" height="128" viewBox="0 0 128 128" fill="none" xmlns="http://www.w3.org/2000/svg">
<path d="M52 11H76H96C103.18 11 109 16.8203 109 24V30.4V52.8V104C109 111.18 103.18 117 96 117H76H64H52H32C24.8203 117 19 111.18 19 104V52.8V24C19 16.8203 24.8203 11 32 11H52Z" fill="#191923" stroke="#C8CED0" stroke-width="6"/>
<path d="M53.5 17H74.5H96C99.866 17 103 20.134 103 24V34V54V104C103 107.866 99.866 111 96 111H74.5H64H53.5H32C28.134 111 25 107.866 25 104V54V24C25 20.134 28.134 17 32 17H53.5Z" stroke="#2E2836" stroke-width="6"/>
<path d="M47.2879 82L60.5839 48.4H67.4959L80.6959 82H72.4399L66.1039 64.96C65.8479 64.288 65.5919 63.568 65.3359 62.8C65.0799 62.032 64.8239 61.248 64.5679 60.448C64.3119 59.616 64.0559 58.816 63.7999 58.048C63.5759 57.248 63.3839 56.512 63.2239 55.84L64.6639 55.792C64.4719 56.592 64.2479 57.376 63.9919 58.144C63.7679 58.912 63.5279 59.68 63.2719 60.448C63.0479 61.184 62.7919 61.936 62.5039 62.704C62.2159 63.44 61.9439 64.208 61.6879 65.008L55.3519 82H47.2879ZM53.6239 75.568L56.1679 69.424H71.6239L74.1199 75.568H53.6239Z" fill="#FBFEF9"/>
</svg>
