<svg width="128" height="128" viewBox="0 0 128 128" fill="none" xmlns="http://www.w3.org/2000/svg">
<path d="M76 19H52H32C24.8203 19 19 24.8203 19 32V35.2V54.4V96C19 103.18 24.8203 109 32 109H52H64H76H96C103.18 109 109 103.18 109 96V54.4V32C109 24.8203 103.18 19 96 19H76Z" fill="#191923" stroke="#C8CED0" stroke-width="6"/>
<path d="M74.5 25H53.5H32C28.134 25 25 28.134 25 32V38.8V55.6V96C25 99.866 28.134 103 32 103H53.5H64H74.5H96C99.866 103 103 99.866 103 96V55.6V32C103 28.134 99.866 25 96 25H74.5Z" stroke="#2E2836" stroke-width="6"/>
<path d="M64.978 82.9091L82.1598 65.7273L64.978 48.5455L61.0234 52.4659L71.4041 62.8466H47.0803V68.608H71.4041L61.0234 78.9716L64.978 82.9091Z" fill="#FBFEF9"/>
</svg>
