<svg width="128" height="128" viewBox="0 0 128 128" fill="none" xmlns="http://www.w3.org/2000/svg">
<path d="M48 25H80H112C119.18 25 125 30.8203 125 38V38.8V55.6V90C125 97.1797 119.18 103 112 103H80H64H48H16C8.8203 103 3 97.1797 3 90V55.6V38C3 30.8203 8.8203 25 16 25H48Z" fill="#191923" stroke="#C8CED0" stroke-width="6"/>
<path d="M49.5 31H78.5H112C115.866 31 119 34.134 119 38V42.4V56.8V90C119 93.866 115.866 97 112 97H78.5H64H49.5H16C12.134 97 9 93.866 9 90V56.8V38C9 34.134 12.134 31 16 31H49.5Z" stroke="#2E2836" stroke-width="6"/>
<path d="M13.408 88V76.8H18.352C19.12 76.8 19.7707 76.912 20.304 77.136C20.8373 77.3493 21.2373 77.664 21.504 78.08C21.7813 78.4853 21.92 78.976 21.92 79.552C21.92 80.192 21.76 80.7307 21.44 81.168C21.1307 81.6053 20.6773 81.8987 20.08 82.048L20.048 81.744C20.5493 81.8507 20.9813 82.0373 21.344 82.304C21.7173 82.5707 22.0053 82.9013 22.208 83.296C22.4107 83.68 22.512 84.1173 22.512 84.608C22.512 85.1733 22.416 85.6693 22.224 86.096C22.032 86.512 21.7547 86.864 21.392 87.152C21.0293 87.44 20.6027 87.6533 20.112 87.792C19.632 87.9307 19.0987 88 18.512 88H13.408ZM15.968 85.728H18.416C18.7147 85.728 18.9653 85.68 19.168 85.584C19.3813 85.488 19.5467 85.3493 19.664 85.168C19.7813 84.976 19.84 84.7467 19.84 84.48C19.84 84.2347 19.776 84.0267 19.648 83.856C19.5307 83.6853 19.36 83.5573 19.136 83.472C18.912 83.376 18.6453 83.328 18.336 83.328H15.968V85.728ZM15.968 81.296H17.968C18.2453 81.296 18.48 81.2533 18.672 81.168C18.8747 81.072 19.024 80.944 19.12 80.784C19.2267 80.6133 19.28 80.4107 19.28 80.176C19.28 79.8347 19.1627 79.568 18.928 79.376C18.6933 79.1733 18.3413 79.072 17.872 79.072H15.968V81.296ZM23.2027 88L27.6348 76.8H29.9388L34.3388 88H31.5868L29.4748 82.32C29.3894 82.096 29.3041 81.856 29.2188 81.6C29.1334 81.344 29.0481 81.0827 28.9628 80.816C28.8774 80.5387 28.7921 80.272 28.7068 80.016C28.6321 79.7493 28.5681 79.504 28.5148 79.28L28.9948 79.264C28.9308 79.5307 28.8561 79.792 28.7708 80.048C28.6961 80.304 28.6161 80.56 28.5308 80.816C28.4561 81.0613 28.3708 81.312 28.2748 81.568C28.1788 81.8133 28.0881 82.0693 28.0028 82.336L25.8908 88H23.2027ZM25.3148 85.856L26.1628 83.808H31.3148L32.1468 85.856H25.3148ZM40.5116 88.16C39.669 88.16 38.8903 88.0213 38.1756 87.744C37.4716 87.456 36.8583 87.056 36.3356 86.544C35.813 86.0213 35.4076 85.408 35.1196 84.704C34.8423 83.9893 34.7036 83.2053 34.7036 82.352C34.7036 81.52 34.853 80.752 35.1516 80.048C35.4503 79.344 35.861 78.736 36.3836 78.224C36.917 77.7013 37.541 77.296 38.2556 77.008C38.981 76.72 39.7703 76.576 40.6236 76.576C41.157 76.576 41.6796 76.6453 42.1916 76.784C42.7036 76.9227 43.1783 77.1307 43.6156 77.408C44.0636 77.6747 44.4476 77.9947 44.7676 78.368L43.1036 80.272C42.8796 80.0373 42.6396 79.8347 42.3836 79.664C42.1383 79.4827 41.8663 79.344 41.5676 79.248C41.269 79.152 40.949 79.104 40.6076 79.104C40.181 79.104 39.7756 79.184 39.3916 79.344C39.0183 79.4933 38.6876 79.712 38.3996 80C38.1223 80.2773 37.9036 80.6187 37.7436 81.024C37.5836 81.4293 37.5036 81.8827 37.5036 82.384C37.5036 82.8747 37.5836 83.3227 37.7436 83.728C37.9036 84.1227 38.1276 84.464 38.4156 84.752C38.7036 85.04 39.0503 85.2587 39.4556 85.408C39.8716 85.5573 40.3303 85.632 40.8316 85.632C41.173 85.632 41.4983 85.584 41.8076 85.488C42.117 85.392 42.3996 85.264 42.6556 85.104C42.9223 84.9333 43.157 84.7413 43.3596 84.528L44.6716 86.608C44.405 86.9067 44.0476 87.1733 43.5996 87.408C43.1623 87.6427 42.6716 87.8293 42.1276 87.968C41.5943 88.096 41.0556 88.16 40.5116 88.16ZM48.517 84.72L47.813 82.432L53.365 76.8H56.581L48.517 84.72ZM46.533 88V76.8H49.253V88H46.533ZM53.717 88L49.557 82.528L51.397 80.944L56.885 88H53.717ZM61.9169 88.16C61.1809 88.16 60.5142 88.0747 59.9169 87.904C59.3302 87.7227 58.8075 87.4667 58.3489 87.136C57.8902 86.7947 57.4795 86.3947 57.1169 85.936L58.7649 84.064C59.2982 84.7787 59.8315 85.2587 60.3649 85.504C60.9089 85.7493 61.4689 85.872 62.0449 85.872C62.3329 85.872 62.5942 85.8347 62.8289 85.76C63.0635 85.6853 63.2449 85.5787 63.3729 85.44C63.5009 85.2907 63.5649 85.1093 63.5649 84.896C63.5649 84.736 63.5222 84.592 63.4369 84.464C63.3622 84.336 63.2555 84.224 63.1169 84.128C62.9782 84.032 62.8129 83.9467 62.6209 83.872C62.4289 83.7867 62.2262 83.7173 62.0129 83.664C61.7995 83.6 61.5809 83.5467 61.3569 83.504C60.7382 83.3653 60.1995 83.1947 59.7409 82.992C59.2822 82.7893 58.8982 82.544 58.5889 82.256C58.2902 81.9573 58.0662 81.6213 57.9169 81.248C57.7675 80.864 57.6929 80.4373 57.6929 79.968C57.6929 79.4667 57.8049 79.008 58.0289 78.592C58.2635 78.1653 58.5729 77.8027 58.9569 77.504C59.3515 77.1947 59.8049 76.96 60.3169 76.8C60.8289 76.6293 61.3622 76.544 61.9169 76.544C62.6529 76.544 63.2822 76.624 63.8049 76.784C64.3382 76.9333 64.7915 77.152 65.1649 77.44C65.5489 77.728 65.8742 78.0747 66.1409 78.48L64.4609 80.096C64.2369 79.8187 63.9915 79.5893 63.7249 79.408C63.4689 79.2267 63.1915 79.088 62.8929 78.992C62.6049 78.896 62.3062 78.848 61.9969 78.848C61.6769 78.848 61.3995 78.8907 61.1649 78.976C60.9409 79.0507 60.7649 79.1627 60.6369 79.312C60.5089 79.4507 60.4449 79.6213 60.4449 79.824C60.4449 80.0053 60.4982 80.16 60.6049 80.288C60.7115 80.416 60.8555 80.5333 61.0369 80.64C61.2182 80.736 61.4262 80.8213 61.6609 80.896C61.8955 80.96 62.1409 81.0133 62.3969 81.056C62.9835 81.1733 63.5115 81.328 63.9809 81.52C64.4609 81.712 64.8715 81.9467 65.2129 82.224C65.5649 82.5013 65.8315 82.832 66.0129 83.216C66.2049 83.5893 66.3009 84.0267 66.3009 84.528C66.3009 85.3067 66.1089 85.968 65.7249 86.512C65.3515 87.0453 64.8342 87.456 64.1729 87.744C63.5222 88.0213 62.7702 88.16 61.9169 88.16ZM68.3455 88V76.8H73.1775C73.8815 76.8 74.5055 76.96 75.0495 77.28C75.6042 77.6 76.0415 78.0373 76.3615 78.592C76.6922 79.1467 76.8575 79.7707 76.8575 80.464C76.8575 81.1893 76.6922 81.84 76.3615 82.416C76.0415 82.9813 75.6042 83.4293 75.0495 83.76C74.5055 84.0907 73.8815 84.256 73.1775 84.256H71.0655V88H68.3455ZM71.0175 81.872H72.7935C73.0282 81.872 73.2415 81.8133 73.4335 81.696C73.6255 81.5787 73.7802 81.4187 73.8975 81.216C74.0148 81.0133 74.0735 80.7787 74.0735 80.512C74.0735 80.2347 74.0148 80 73.8975 79.808C73.7802 79.616 73.6255 79.4667 73.4335 79.36C73.2415 79.2533 73.0282 79.2 72.7935 79.2H71.0175V81.872ZM76.4684 88L80.9004 76.8H83.2044L87.6044 88H84.8524L82.7404 82.32C82.655 82.096 82.5697 81.856 82.4844 81.6C82.399 81.344 82.3137 81.0827 82.2284 80.816C82.143 80.5387 82.0577 80.272 81.9724 80.016C81.8977 79.7493 81.8337 79.504 81.7804 79.28L82.2604 79.264C82.1964 79.5307 82.1217 79.792 82.0364 80.048C81.9617 80.304 81.8817 80.56 81.7964 80.816C81.7217 81.0613 81.6364 81.312 81.5404 81.568C81.4444 81.8133 81.3537 82.0693 81.2684 82.336L79.1564 88H76.4684ZM78.5804 85.856L79.4284 83.808H84.5804L85.4124 85.856H78.5804ZM93.7773 88.16C92.9346 88.16 92.1559 88.0213 91.4413 87.744C90.7373 87.456 90.1239 87.056 89.6013 86.544C89.0786 86.0213 88.6733 85.408 88.3853 84.704C88.1079 83.9893 87.9693 83.2053 87.9693 82.352C87.9693 81.52 88.1186 80.752 88.4173 80.048C88.7159 79.344 89.1266 78.736 89.6493 78.224C90.1826 77.7013 90.8066 77.296 91.5213 77.008C92.2466 76.72 93.0359 76.576 93.8893 76.576C94.4226 76.576 94.9453 76.6453 95.4573 76.784C95.9693 76.9227 96.4439 77.1307 96.8813 77.408C97.3293 77.6747 97.7133 77.9947 98.0333 78.368L96.3693 80.272C96.1453 80.0373 95.9053 79.8347 95.6493 79.664C95.4039 79.4827 95.1319 79.344 94.8333 79.248C94.5346 79.152 94.2146 79.104 93.8733 79.104C93.4466 79.104 93.0413 79.184 92.6573 79.344C92.2839 79.4933 91.9533 79.712 91.6653 80C91.3879 80.2773 91.1693 80.6187 91.0093 81.024C90.8493 81.4293 90.7693 81.8827 90.7693 82.384C90.7693 82.8747 90.8493 83.3227 91.0093 83.728C91.1693 84.1227 91.3933 84.464 91.6813 84.752C91.9693 85.04 92.3159 85.2587 92.7213 85.408C93.1373 85.5573 93.5959 85.632 94.0973 85.632C94.4386 85.632 94.7639 85.584 95.0733 85.488C95.3826 85.392 95.6653 85.264 95.9213 85.104C96.1879 84.9333 96.4226 84.7413 96.6253 84.528L97.9373 86.608C97.6706 86.9067 97.3133 87.1733 96.8653 87.408C96.4279 87.6427 95.9373 87.8293 95.3933 87.968C94.8599 88.096 94.3213 88.16 93.7773 88.16ZM99.7986 88V76.8H107.607V79.12H102.439V85.68H107.767V88H99.7986ZM101.079 83.408V81.2H106.887V83.408H101.079Z" fill="#FBFEF9"/>
<path d="M28.0568 65L15.0426 51.9091L28.0568 38.8182H52.5V65H28.0568ZM29.8722 60.8068H48.2045V43.0114H29.8722L21.0256 51.9091L29.8722 60.8068ZM44.5611 56.3068L41.6847 59.2727L29.6676 47.5114L32.544 44.5455L44.5611 56.3068ZM32.544 59.2727L29.6676 56.3068L41.6847 44.5455L44.5611 47.5114L32.544 59.2727Z" fill="#FBFEF9"/>
</svg>
