<svg width="128" height="128" viewBox="0 0 128 128" fill="none" xmlns="http://www.w3.org/2000/svg">
<path d="M52 19H76H96C103.18 19 109 24.8203 109 32V35.2V54.4V96C109 103.18 103.18 109 96 109H76H64H52H32C24.8203 109 19 103.18 19 96V54.4V32C19 24.8203 24.8203 19 32 19H52Z" fill="#191923" stroke="#C8CED0" stroke-width="6"/>
<path d="M53.5 25H74.5H96C99.866 25 103 28.134 103 32V38.8V55.6V96C103 99.866 99.866 103 96 103H74.5H64H53.5H32C28.134 103 25 99.866 25 96V55.6V32C25 28.134 28.134 25 32 25H53.5Z" stroke="#2E2836" stroke-width="6"/>
<path d="M31.2379 76V53.6H46.8539V58.24H36.5179V71.36H47.1739V76H31.2379ZM33.7979 66.816V62.4H45.4139V66.816H33.7979ZM51.8629 76V53.6H56.7269L68.4709 69.6L67.4149 69.44C67.3082 68.736 67.2229 68.064 67.1589 67.424C67.0949 66.784 67.0309 66.1547 66.9669 65.536C66.9242 64.9173 66.8815 64.288 66.8389 63.648C66.8175 63.008 66.7962 62.3147 66.7749 61.568C66.7749 60.8213 66.7749 60.0107 66.7749 59.136V53.6H72.0549V76H67.1269L54.8709 59.488L56.5029 59.712C56.6095 60.736 56.6949 61.6107 56.7589 62.336C56.8442 63.04 56.9082 63.6693 56.9509 64.224C57.0149 64.7787 57.0575 65.28 57.0789 65.728C57.1002 66.176 57.1109 66.624 57.1109 67.072C57.1322 67.4987 57.1429 67.9787 57.1429 68.512V76H51.8629ZM77.6754 76V53.6H87.0514C88.694 53.6 90.198 53.8773 91.5634 54.432C92.9287 54.9653 94.102 55.7333 95.0834 56.736C96.086 57.7387 96.854 58.9227 97.3874 60.288C97.9207 61.6533 98.1874 63.1573 98.1874 64.8C98.1874 66.4427 97.9207 67.9573 97.3874 69.344C96.854 70.7093 96.086 71.8933 95.0834 72.896C94.102 73.8773 92.9287 74.6453 91.5634 75.2C90.198 75.7333 88.694 76 87.0514 76H77.6754ZM83.1154 72.288L82.3794 71.2H86.8914C87.7874 71.2 88.5874 71.0507 89.2914 70.752C89.9954 70.432 90.5927 69.9947 91.0834 69.44C91.5954 68.8853 91.99 68.2133 92.2674 67.424C92.5447 66.6347 92.6834 65.76 92.6834 64.8C92.6834 63.84 92.5447 62.9653 92.2674 62.176C91.99 61.3867 91.5954 60.7147 91.0834 60.16C90.5927 59.6053 89.9954 59.1787 89.2914 58.88C88.5874 58.56 87.7874 58.4 86.8914 58.4H82.2834L83.1154 57.376V72.288Z" fill="#FBFEF9"/>
</svg>
