<svg width="128" height="128" viewBox="0 0 128 128" fill="none" xmlns="http://www.w3.org/2000/svg">
<path d="M52 11H76H96C103.18 11 109 16.8203 109 24V30.4V52.8V104C109 111.18 103.18 117 96 117H76H64H52H32C24.8203 117 19 111.18 19 104V52.8V24C19 16.8203 24.8203 11 32 11H52Z" fill="#191923" stroke="#C8CED0" stroke-width="6"/>
<path d="M53.5 17H74.5H96C99.866 17 103 20.134 103 24V34V54V104C103 107.866 99.866 111 96 111H74.5H64H53.5H32C28.134 111 25 107.866 25 104V54V24C25 20.134 28.134 17 32 17H53.5Z" stroke="#2E2836" stroke-width="6"/>
<path d="M69.6333 31.248H73.8893V53.392H69.6333V31.248ZM72.6733 40.272H77.8253V43.76H72.6733V40.272ZM50.5613 34.32H68.0013V37.648H50.5613V34.32ZM59.2973 38.704C63.5533 38.704 66.5613 41.04 66.5613 44.432C66.5613 47.824 63.5533 50.128 59.2973 50.128C55.0093 50.128 52.0013 47.824 52.0013 44.432C52.0013 41.04 55.0093 38.704 59.2973 38.704ZM59.2973 41.936C57.4093 41.936 56.0973 42.832 56.0973 44.432C56.0973 46.032 57.4093 46.896 59.2973 46.896C61.1853 46.896 62.4973 46.032 62.4973 44.432C62.4973 42.832 61.1853 41.936 59.2973 41.936ZM57.1533 31.184H61.4093V35.952H57.1533V31.184ZM54.7853 56.944H74.9453V60.336H54.7853V56.944ZM54.7853 51.728H59.0413V58.416H54.7853V51.728ZM57.2173 71.888H60.5773V75.216C60.5773 81.904 57.7613 88.72 52.3213 91.28L49.9213 87.92C54.8173 85.616 57.2173 80.08 57.2173 75.216V71.888ZM58.1133 71.888H61.4733V75.216C61.4733 79.696 63.7773 84.944 68.6413 87.184L66.3053 90.544C60.8653 88.016 58.1133 81.52 58.1133 75.216V71.888ZM51.0733 70.064H67.3293V73.552H51.0733V70.064ZM69.5053 67.216H73.7933V96.848H69.5053V67.216ZM72.8333 78.512H78.0813V82.032H72.8333V78.512Z" fill="#FBFEF9"/>
</svg>
