<svg width="128" height="128" viewBox="0 0 128 128" fill="none" xmlns="http://www.w3.org/2000/svg">
<path d="M52 11H76H96C103.18 11 109 16.8203 109 24V30.4V52.8V104C109 111.18 103.18 117 96 117H76H64H52H32C24.8203 117 19 111.18 19 104V52.8V24C19 16.8203 24.8203 11 32 11H52Z" fill="#191923" stroke="#C8CED0" stroke-width="6"/>
<path d="M53.5 17H74.5H96C99.866 17 103 20.134 103 24V34V54V104C103 107.866 99.866 111 96 111H74.5H64H53.5H32C28.134 111 25 107.866 25 104V54V24C25 20.134 28.134 17 32 17H53.5Z" stroke="#2E2836" stroke-width="6"/>
<path d="M69.6333 31.248H73.8893V53.392H69.6333V31.248ZM72.6733 40.272H77.8253V43.76H72.6733V40.272ZM50.5613 34.32H68.0013V37.648H50.5613V34.32ZM59.2973 38.704C63.5533 38.704 66.5613 41.04 66.5613 44.432C66.5613 47.824 63.5533 50.128 59.2973 50.128C55.0093 50.128 52.0013 47.824 52.0013 44.432C52.0013 41.04 55.0093 38.704 59.2973 38.704ZM59.2973 41.936C57.4093 41.936 56.0973 42.832 56.0973 44.432C56.0973 46.032 57.4093 46.896 59.2973 46.896C61.1853 46.896 62.4973 46.032 62.4973 44.432C62.4973 42.832 61.1853 41.936 59.2973 41.936ZM57.1533 31.184H61.4093V35.952H57.1533V31.184ZM54.7853 56.944H74.9453V60.336H54.7853V56.944ZM54.7853 51.728H59.0413V58.416H54.7853V51.728ZM63.6813 71.088H72.4493V74.48H63.6813V71.088ZM63.6813 77.648H72.4493V81.072H63.6813V77.648ZM58.7533 68.784C63.1693 68.784 66.5613 71.856 66.5613 76.048C66.5613 80.24 63.1693 83.312 58.7533 83.312C54.3053 83.312 50.9133 80.24 50.9133 76.048C50.9133 71.856 54.3053 68.784 58.7533 68.784ZM58.7533 72.4C56.5773 72.4 54.9773 73.712 54.9773 76.048C54.9773 78.352 56.5773 79.728 58.7533 79.728C60.9293 79.728 62.5293 78.352 62.5293 76.048C62.5293 73.712 60.9293 72.4 58.7533 72.4ZM71.1053 67.216H75.3613V84.56H71.1053V67.216ZM65.3133 85.168C71.5533 85.168 75.4573 87.344 75.4573 91.024C75.4573 94.704 71.5533 96.848 65.3133 96.848C59.0733 96.848 55.1693 94.704 55.1693 91.024C55.1693 87.344 59.0733 85.168 65.3133 85.168ZM65.3133 88.464C61.4413 88.464 59.3613 89.296 59.3613 91.024C59.3613 92.752 61.4413 93.584 65.3133 93.584C69.2173 93.584 71.2653 92.752 71.2653 91.024C71.2653 89.296 69.2173 88.464 65.3133 88.464Z" fill="#FBFEF9"/>
</svg>
