<svg width="128" height="128" viewBox="0 0 128 128" fill="none" xmlns="http://www.w3.org/2000/svg">
<path d="M52 11H76H96C103.18 11 109 16.8203 109 24V30.4V52.8V104C109 111.18 103.18 117 96 117H76H64H52H32C24.8203 117 19 111.18 19 104V52.8V24C19 16.8203 24.8203 11 32 11H52Z" fill="#191923" stroke="#C8CED0" stroke-width="6"/>
<path d="M53.5 17H74.5H96C99.866 17 103 20.134 103 24V34V54V104C103 107.866 99.866 111 96 111H74.5H64H53.5H32C28.134 111 25 107.866 25 104V54V24C25 20.134 28.134 17 32 17H53.5Z" stroke="#2E2836" stroke-width="6"/>
<path d="M40.8502 48V44.568H43.6822V34.632H40.8502V31.2H50.6182V34.632H47.7622V44.568H50.6182V48H40.8502ZM54.4987 48V31.2H58.1467L64.2667 41.16L61.6507 41.136L67.8427 31.2H71.3467V48H67.3867V42.768C67.3867 41.328 67.4187 40.032 67.4827 38.88C67.5627 37.728 67.6907 36.584 67.8667 35.448L68.3227 36.696L63.6667 43.92H62.0827L57.5227 36.744L57.9787 35.448C58.1547 36.52 58.2747 37.624 58.3387 38.76C58.4187 39.88 58.4587 41.216 58.4587 42.768V48H54.4987ZM75.569 48V31.2H87.281V34.68H79.529V44.52H87.521V48H75.569ZM77.489 41.112V37.8H86.201V41.112H77.489ZM41.7907 93.36C39.8707 93.36 38.1187 93.036 36.5347 92.388C34.9507 91.74 33.5707 90.828 32.3947 89.652C31.2187 88.476 30.3067 87.096 29.6587 85.512C29.0107 83.928 28.6867 82.188 28.6867 80.292C28.6867 78.396 29.0107 76.656 29.6587 75.072C30.3067 73.488 31.2187 72.108 32.3947 70.932C33.5707 69.756 34.9507 68.844 36.5347 68.196C38.1187 67.548 39.8587 67.224 41.7547 67.224C43.6507 67.224 45.3907 67.548 46.9747 68.196C48.5587 68.844 49.9387 69.756 51.1147 70.932C52.2907 72.108 53.1907 73.488 53.8147 75.072C54.4627 76.656 54.7867 78.396 54.7867 80.292C54.7867 82.164 54.4627 83.904 53.8147 85.512C53.1907 87.096 52.2907 88.476 51.1147 89.652C49.9387 90.828 48.5587 91.74 46.9747 92.388C45.3907 93.036 43.6627 93.36 41.7907 93.36ZM41.7547 87.6C42.7387 87.6 43.6387 87.42 44.4547 87.06C45.2947 86.7 46.0147 86.196 46.6147 85.548C47.2387 84.876 47.7187 84.096 48.0547 83.208C48.3907 82.32 48.5587 81.348 48.5587 80.292C48.5587 79.236 48.3907 78.264 48.0547 77.376C47.7187 76.488 47.2387 75.72 46.6147 75.072C46.0147 74.4 45.2947 73.884 44.4547 73.524C43.6387 73.164 42.7387 72.984 41.7547 72.984C40.7707 72.984 39.8587 73.164 39.0187 73.524C38.2027 73.884 37.4827 74.4 36.8587 75.072C36.2347 75.72 35.7547 76.488 35.4187 77.376C35.1067 78.264 34.9507 79.236 34.9507 80.292C34.9507 81.348 35.1067 82.332 35.4187 83.244C35.7547 84.132 36.2347 84.9 36.8587 85.548C37.4827 86.196 38.2027 86.7 39.0187 87.06C39.8587 87.42 40.7707 87.6 41.7547 87.6ZM59.5215 93V67.8H65.6415V93H59.5215ZM62.3655 83.352V78.24H75.3975V83.352H62.3655ZM62.3655 73.2V67.8H76.8735V73.2H62.3655ZM81.7754 93V67.8H87.8954V93H81.7754ZM84.6194 83.352V78.24H97.6514V83.352H84.6194ZM84.6194 73.2V67.8H99.1274V73.2H84.6194Z" fill="#FBFEF9"/>
</svg>
