<svg width="128" height="128" viewBox="0 0 128 128" fill="none" xmlns="http://www.w3.org/2000/svg">
<path d="M52 11H76H96C103.18 11 109 16.8203 109 24V30.4V52.8V104C109 111.18 103.18 117 96 117H76H64H52H32C24.8203 117 19 111.18 19 104V52.8V24C19 16.8203 24.8203 11 32 11H52Z" fill="#191923" stroke="#C8CED0" stroke-width="6"/>
<path d="M53.5 17H74.5H96C99.866 17 103 20.134 103 24V34V54V104C103 107.866 99.866 111 96 111H74.5H64H53.5H32C28.134 111 25 107.866 25 104V54V24C25 20.134 28.134 17 32 17H53.5Z" stroke="#2E2836" stroke-width="6"/>
<path d="M55.808 31.312L61.12 31.568C60.992 33.04 60.832 34.704 60.512 36.976H63.296C68.704 36.976 70.368 40.464 70.368 46.672C70.368 49.552 69.792 55.408 68.064 57.552C67.168 58.672 65.664 59.792 63.136 59.792C61.6 59.792 59.328 59.472 58.112 59.28L57.76 54.256C60.64 54.736 61.856 54.768 62.08 54.768C62.624 54.768 63.744 54.768 64.32 53.36C65.28 50.896 65.408 45.968 65.408 45.68C65.408 42.736 64.704 41.712 62.528 41.744L59.744 41.776C58.848 46.128 57.056 54.864 54.208 59.696L49.28 57.2C52.416 51.888 53.888 45.392 54.56 41.808L50.048 41.84V36.976H55.328C55.584 34.32 55.648 33.328 55.808 31.312ZM79.04 49.072L73.696 49.968C73.504 42.384 71.52 38.928 69.76 36.464L74.176 34.32C77.312 38.608 78.624 42.896 79.04 49.072ZM55.456 67.344L60.832 67.536C60.736 68.112 60.32 70.544 60.256 71.024H65.824V75.888H59.456C58.464 80.752 56.352 87.696 54.656 92.464L49.376 90.992C50.816 88.048 53.152 81.296 54.24 75.888H49.952V71.024H55.072C55.328 69.264 55.392 68.432 55.456 67.344ZM77.792 70.576L78.24 76.016C77.472 75.952 76.64 75.856 75.648 75.856C74.496 75.856 73.504 75.984 72.704 76.08L72.896 84.656C76.96 86.96 78.08 88.016 78.88 88.752L76.032 93.616C75.168 92.688 73.92 91.536 72.512 90.256L72.48 90.928C72.32 94.544 69.216 95.92 65.664 95.92C60.32 95.92 57.728 93.072 57.728 89.552C57.728 86.736 59.616 82.992 65.92 82.992C66.72 82.992 67.264 83.024 67.84 83.088L67.52 71.536C69.024 71.248 71.552 70.768 77.792 70.576ZM67.968 89.456V87.664C67.36 87.44 66.752 87.216 65.664 87.216C65.216 87.216 62.24 87.248 62.24 89.424C62.24 90.096 62.592 91.6 65.312 91.6C67.936 91.6 67.968 90.256 67.968 89.456Z" fill="#FBFEF9"/>
</svg>
