<svg width="128" height="128" viewBox="0 0 128 128" fill="none" xmlns="http://www.w3.org/2000/svg">
<path d="M48 25H80H112C119.18 25 125 30.8203 125 38V38.8V55.6V90C125 97.1797 119.18 103 112 103H80H64H48H16C8.8203 103 3 97.1797 3 90V55.6V38C3 30.8203 8.8203 25 16 25H48Z" fill="#191923" stroke="#C8CED0" stroke-width="6"/>
<path d="M49.5 31H78.5H112C115.866 31 119 34.134 119 38V42.4V56.8V90C119 93.866 115.866 97 112 97H78.5H64H49.5H16C12.134 97 9 93.866 9 90V56.8V38C9 34.134 12.134 31 16 31H49.5Z" stroke="#2E2836" stroke-width="6"/>
<path d="M27.9545 76.8068L16.7386 65.7273L27.9545 54.6477V76.8068ZM24.4091 68.25V63.2045H55.3295V68.25H24.4091ZM50.4375 68.25V46.0909H55.4318V68.25H50.4375Z" fill="#FBFEF9"/>
</svg>
