<svg width="128" height="128" viewBox="0 0 128 128" fill="none" xmlns="http://www.w3.org/2000/svg">
<path d="M125 33V49.8V66.6V101C125 108.18 119.18 114 112 114H80H64H48H16C8.8203 114 3 108.18 3 101V82.6C3 75.4203 8.8203 69.6 16 69.6H48C58.4934 69.6 67 61.0934 67 50.6V33V27C67 19.8203 72.8203 14 80 14H112C119.18 14 125 19.8203 125 27V33Z" fill="#191923" stroke="#C8CED0" stroke-width="6"/>
<path d="M119 36.5094V51.4075V66.3057V101C119 104.866 115.866 108 112 108H78.5H64H49.5H16C12.134 108 9 104.866 9 101V82.3057C9 78.4397 12.134 75.3057 16 75.3057H48C61.8071 75.3057 73 64.1128 73 50.3057V36.5094V27C73 23.134 76.134 20 80 20H112C115.866 20 119 23.134 119 27V36.5094Z" stroke="#2E2836" stroke-width="6"/>
<path d="M13.76 99V85H20.06C20.9533 85 21.76 85.1933 22.48 85.58C23.2133 85.9667 23.7867 86.5 24.2 87.18C24.6133 87.8467 24.82 88.6067 24.82 89.46C24.82 90.34 24.6133 91.1333 24.2 91.84C23.7867 92.5333 23.22 93.08 22.5 93.48C21.78 93.88 20.9667 94.08 20.06 94.08H17V99H13.76ZM21.52 99L17.96 92.68L21.44 92.18L25.4 99H21.52ZM17 91.48H19.76C20.1067 91.48 20.4067 91.4067 20.66 91.26C20.9267 91.1 21.1267 90.88 21.26 90.6C21.4067 90.32 21.48 90 21.48 89.64C21.48 89.28 21.4 88.9667 21.24 88.7C21.08 88.42 20.8467 88.2067 20.54 88.06C20.2467 87.9133 19.8867 87.84 19.46 87.84H17V91.48ZM27.803 99V85H37.563V87.9H31.103V96.1H37.763V99H27.803ZM29.403 93.26V90.5H36.663V93.26H29.403ZM43.7336 99V88H39.5736V85H51.3936V88H47.1336V99H43.7336ZM59.6991 99.12C58.5391 99.12 57.5057 98.8867 56.5991 98.42C55.6924 97.94 54.9791 97.2867 54.4591 96.46C53.9524 95.6333 53.6991 94.6867 53.6991 93.62V85H57.1391V93.44C57.1391 93.9467 57.2524 94.4067 57.4791 94.82C57.7057 95.22 58.0124 95.54 58.3991 95.78C58.7857 96.0067 59.2191 96.12 59.6991 96.12C60.2057 96.12 60.6524 96.0067 61.0391 95.78C61.4391 95.54 61.7591 95.22 61.9991 94.82C62.2391 94.4067 62.3591 93.9467 62.3591 93.44V85H65.6791V93.62C65.6791 94.6867 65.4191 95.6333 64.8991 96.46C64.3924 97.2867 63.6857 97.94 62.7791 98.42C61.8724 98.8867 60.8457 99.12 59.6991 99.12ZM69.092 99V85H75.392C76.2854 85 77.092 85.1933 77.812 85.58C78.5454 85.9667 79.1187 86.5 79.532 87.18C79.9454 87.8467 80.152 88.6067 80.152 89.46C80.152 90.34 79.9454 91.1333 79.532 91.84C79.1187 92.5333 78.552 93.08 77.832 93.48C77.112 93.88 76.2987 94.08 75.392 94.08H72.332V99H69.092ZM76.852 99L73.292 92.68L76.772 92.18L80.732 99H76.852ZM72.332 91.48H75.092C75.4387 91.48 75.7387 91.4067 75.992 91.26C76.2587 91.1 76.4587 90.88 76.592 90.6C76.7387 90.32 76.812 90 76.812 89.64C76.812 89.28 76.732 88.9667 76.572 88.7C76.412 88.42 76.1787 88.2067 75.872 88.06C75.5787 87.9133 75.2187 87.84 74.792 87.84H72.332V91.48ZM83.135 99V85H86.175L93.515 95L92.855 94.9C92.7883 94.46 92.735 94.04 92.695 93.64C92.655 93.24 92.615 92.8467 92.575 92.46C92.5483 92.0733 92.5217 91.68 92.495 91.28C92.4817 90.88 92.4683 90.4467 92.455 89.98C92.455 89.5133 92.455 89.0067 92.455 88.46V85H95.755V99H92.675L85.015 88.68L86.035 88.82C86.1017 89.46 86.155 90.0067 86.195 90.46C86.2483 90.9 86.2883 91.2933 86.315 91.64C86.355 91.9867 86.3817 92.3 86.395 92.58C86.4083 92.86 86.415 93.14 86.415 93.42C86.4283 93.6867 86.435 93.9867 86.435 94.32V99H83.135Z" fill="#FBFEF9"/>
<path d="M89.8956 54.8551L81.4837 46.5455L89.8956 38.2358V54.8551ZM87.2365 48.4375V44.6534H110.427V48.4375H87.2365ZM106.758 48.4375V31.8182H110.504V48.4375H106.758Z" fill="#FBFEF9"/>
</svg>
