<svg width="128" height="128" viewBox="0 0 128 128" fill="none" xmlns="http://www.w3.org/2000/svg">
<path d="M52 19H76H96C103.18 19 109 24.8203 109 32V35.2V54.4V96C109 103.18 103.18 109 96 109H76H64H52H32C24.8203 109 19 103.18 19 96V54.4V32C19 24.8203 24.8203 19 32 19H52Z" fill="#191923" stroke="#C8CED0" stroke-width="6"/>
<path d="M53.5 25H74.5H96C99.866 25 103 28.134 103 32V38.8V55.6V96C103 99.866 99.866 103 96 103H74.5H64H53.5H32C28.134 103 25 99.866 25 96V55.6V32C25 28.134 28.134 25 32 25H53.5Z" stroke="#2E2836" stroke-width="6"/>
<path d="M36.7138 60.16C35.9778 60.16 35.3111 60.0747 34.7138 59.904C34.1271 59.7227 33.6044 59.4667 33.1458 59.136C32.6871 58.7947 32.2764 58.3947 31.9138 57.936L33.5618 56.064C34.0951 56.7787 34.6284 57.2587 35.1618 57.504C35.7058 57.7493 36.2658 57.872 36.8418 57.872C37.1298 57.872 37.3911 57.8347 37.6258 57.76C37.8604 57.6853 38.0418 57.5787 38.1698 57.44C38.2978 57.2907 38.3618 57.1093 38.3618 56.896C38.3618 56.736 38.3191 56.592 38.2338 56.464C38.1591 56.336 38.0524 56.224 37.9138 56.128C37.7751 56.032 37.6098 55.9467 37.4178 55.872C37.2258 55.7867 37.0231 55.7173 36.8098 55.664C36.5964 55.6 36.3778 55.5467 36.1538 55.504C35.5351 55.3653 34.9964 55.1947 34.5378 54.992C34.0791 54.7893 33.6951 54.544 33.3858 54.256C33.0871 53.9573 32.8631 53.6213 32.7138 53.248C32.5644 52.864 32.4898 52.4373 32.4898 51.968C32.4898 51.4667 32.6018 51.008 32.8258 50.592C33.0604 50.1653 33.3698 49.8027 33.7538 49.504C34.1484 49.1947 34.6018 48.96 35.1138 48.8C35.6258 48.6293 36.1591 48.544 36.7138 48.544C37.4498 48.544 38.0791 48.624 38.6018 48.784C39.1351 48.9333 39.5884 49.152 39.9618 49.44C40.3458 49.728 40.6711 50.0747 40.9378 50.48L39.2578 52.096C39.0338 51.8187 38.7884 51.5893 38.5218 51.408C38.2658 51.2267 37.9884 51.088 37.6898 50.992C37.4018 50.896 37.1031 50.848 36.7938 50.848C36.4738 50.848 36.1964 50.8907 35.9618 50.976C35.7378 51.0507 35.5618 51.1627 35.4338 51.312C35.3058 51.4507 35.2418 51.6213 35.2418 51.824C35.2418 52.0053 35.2951 52.16 35.4018 52.288C35.5084 52.416 35.6524 52.5333 35.8338 52.64C36.0151 52.736 36.2231 52.8213 36.4578 52.896C36.6924 52.96 36.9378 53.0133 37.1938 53.056C37.7804 53.1733 38.3084 53.328 38.7778 53.52C39.2578 53.712 39.6684 53.9467 40.0098 54.224C40.3618 54.5013 40.6284 54.832 40.8098 55.216C41.0018 55.5893 41.0978 56.0267 41.0978 56.528C41.0978 57.3067 40.9058 57.968 40.5218 58.512C40.1484 59.0453 39.6311 59.456 38.9698 59.744C38.3191 60.0213 37.5671 60.16 36.7138 60.16ZM48.2304 60.16C47.3877 60.16 46.609 60.0213 45.8944 59.744C45.1904 59.456 44.577 59.056 44.0544 58.544C43.5317 58.0213 43.1264 57.408 42.8384 56.704C42.561 55.9893 42.4224 55.2053 42.4224 54.352C42.4224 53.52 42.5717 52.752 42.8704 52.048C43.169 51.344 43.5797 50.736 44.1024 50.224C44.6357 49.7013 45.2597 49.296 45.9744 49.008C46.6997 48.72 47.489 48.576 48.3424 48.576C48.8757 48.576 49.3984 48.6453 49.9104 48.784C50.4224 48.9227 50.897 49.1307 51.3344 49.408C51.7824 49.6747 52.1664 49.9947 52.4864 50.368L50.8224 52.272C50.5984 52.0373 50.3584 51.8347 50.1024 51.664C49.857 51.4827 49.585 51.344 49.2864 51.248C48.9877 51.152 48.6677 51.104 48.3264 51.104C47.8997 51.104 47.4944 51.184 47.1104 51.344C46.737 51.4933 46.4064 51.712 46.1184 52C45.841 52.2773 45.6224 52.6187 45.4624 53.024C45.3024 53.4293 45.2224 53.8827 45.2224 54.384C45.2224 54.8747 45.3024 55.3227 45.4624 55.728C45.6224 56.1227 45.8464 56.464 46.1344 56.752C46.4224 57.04 46.769 57.2587 47.1744 57.408C47.5904 57.5573 48.049 57.632 48.5504 57.632C48.8917 57.632 49.217 57.584 49.5264 57.488C49.8357 57.392 50.1184 57.264 50.3744 57.104C50.641 56.9333 50.8757 56.7413 51.0784 56.528L52.3904 58.608C52.1237 58.9067 51.7664 59.1733 51.3184 59.408C50.881 59.6427 50.3904 59.8293 49.8464 59.968C49.313 60.096 48.7744 60.16 48.2304 60.16ZM54.2518 60V48.8H59.2918C60.0064 48.8 60.6518 48.9547 61.2278 49.264C61.8144 49.5733 62.2731 50 62.6038 50.544C62.9344 51.0773 63.0998 51.6853 63.0998 52.368C63.0998 53.072 62.9344 53.7067 62.6038 54.272C62.2731 54.8267 61.8198 55.264 61.2438 55.584C60.6678 55.904 60.0171 56.064 59.2918 56.064H56.8438V60H54.2518ZM60.4598 60L57.6118 54.944L60.3958 54.544L63.5638 60H60.4598ZM56.8438 53.984H59.0518C59.3291 53.984 59.5691 53.9253 59.7718 53.808C59.9851 53.68 60.1451 53.504 60.2518 53.28C60.3691 53.056 60.4278 52.8 60.4278 52.512C60.4278 52.224 60.3638 51.9733 60.2358 51.76C60.1078 51.536 59.9211 51.3653 59.6758 51.248C59.4411 51.1307 59.1531 51.072 58.8118 51.072H56.8438V53.984ZM70.4339 60.16C69.5805 60.16 68.8019 60.016 68.0979 59.728C67.3939 59.44 66.7805 59.0347 66.2579 58.512C65.7352 57.9893 65.3299 57.376 65.0419 56.672C64.7539 55.968 64.6099 55.1947 64.6099 54.352C64.6099 53.5093 64.7539 52.736 65.0419 52.032C65.3299 51.328 65.7352 50.7147 66.2579 50.192C66.7805 49.6693 67.3939 49.264 68.0979 48.976C68.8019 48.688 69.5752 48.544 70.4179 48.544C71.2605 48.544 72.0339 48.688 72.7379 48.976C73.4419 49.264 74.0552 49.6693 74.5779 50.192C75.1005 50.7147 75.5005 51.328 75.7779 52.032C76.0659 52.736 76.2099 53.5093 76.2099 54.352C76.2099 55.184 76.0659 55.9573 75.7779 56.672C75.5005 57.376 75.1005 57.9893 74.5779 58.512C74.0552 59.0347 73.4419 59.44 72.7379 59.728C72.0339 60.016 71.2659 60.16 70.4339 60.16ZM70.4179 57.6C70.8552 57.6 71.2552 57.52 71.6179 57.36C71.9912 57.2 72.3112 56.976 72.5779 56.688C72.8552 56.3893 73.0685 56.0427 73.2179 55.648C73.3672 55.2533 73.4419 54.8213 73.4419 54.352C73.4419 53.8827 73.3672 53.4507 73.2179 53.056C73.0685 52.6613 72.8552 52.32 72.5779 52.032C72.3112 51.7333 71.9912 51.504 71.6179 51.344C71.2552 51.184 70.8552 51.104 70.4179 51.104C69.9805 51.104 69.5752 51.184 69.2019 51.344C68.8392 51.504 68.5192 51.7333 68.2419 52.032C67.9645 52.32 67.7512 52.6613 67.6019 53.056C67.4632 53.4507 67.3939 53.8827 67.3939 54.352C67.3939 54.8213 67.4632 55.2587 67.6019 55.664C67.7512 56.0587 67.9645 56.4 68.2419 56.688C68.5192 56.976 68.8392 57.2 69.2019 57.36C69.5752 57.52 69.9805 57.6 70.4179 57.6ZM78.3143 60V48.8H81.0343V57.6H86.0263V60H78.3143ZM88.0643 60V48.8H90.7843V57.6H95.7763V60H88.0643ZM42.7283 80V68.8H45.4483V77.6H50.4403V80H42.7283ZM57.2698 80.16C56.4165 80.16 55.6378 80.016 54.9338 79.728C54.2298 79.44 53.6165 79.0347 53.0938 78.512C52.5711 77.9893 52.1658 77.376 51.8778 76.672C51.5898 75.968 51.4458 75.1947 51.4458 74.352C51.4458 73.5093 51.5898 72.736 51.8778 72.032C52.1658 71.328 52.5711 70.7147 53.0938 70.192C53.6165 69.6693 54.2298 69.264 54.9338 68.976C55.6378 68.688 56.4111 68.544 57.2538 68.544C58.0965 68.544 58.8698 68.688 59.5738 68.976C60.2778 69.264 60.8911 69.6693 61.4138 70.192C61.9365 70.7147 62.3365 71.328 62.6138 72.032C62.9018 72.736 63.0458 73.5093 63.0458 74.352C63.0458 75.184 62.9018 75.9573 62.6138 76.672C62.3365 77.376 61.9365 77.9893 61.4138 78.512C60.8911 79.0347 60.2778 79.44 59.5738 79.728C58.8698 80.016 58.1018 80.16 57.2698 80.16ZM57.2538 77.6C57.6911 77.6 58.0911 77.52 58.4538 77.36C58.8271 77.2 59.1471 76.976 59.4138 76.688C59.6911 76.3893 59.9045 76.0427 60.0538 75.648C60.2031 75.2533 60.2778 74.8213 60.2778 74.352C60.2778 73.8827 60.2031 73.4507 60.0538 73.056C59.9045 72.6613 59.6911 72.32 59.4138 72.032C59.1471 71.7333 58.8271 71.504 58.4538 71.344C58.0911 71.184 57.6911 71.104 57.2538 71.104C56.8165 71.104 56.4111 71.184 56.0378 71.344C55.6751 71.504 55.3551 71.7333 55.0778 72.032C54.8005 72.32 54.5871 72.6613 54.4378 73.056C54.2991 73.4507 54.2298 73.8827 54.2298 74.352C54.2298 74.8213 54.2991 75.2587 54.4378 75.664C54.5871 76.0587 54.8005 76.4 55.0778 76.688C55.3551 76.976 55.6751 77.2 56.0378 77.36C56.4111 77.52 56.8165 77.6 57.2538 77.6ZM70.2382 80.16C69.3955 80.16 68.6169 80.0213 67.9022 79.744C67.1982 79.456 66.5849 79.056 66.0622 78.544C65.5395 78.0213 65.1342 77.408 64.8462 76.704C64.5689 75.9893 64.4302 75.2053 64.4302 74.352C64.4302 73.52 64.5795 72.752 64.8782 72.048C65.1769 71.344 65.5875 70.736 66.1102 70.224C66.6435 69.7013 67.2675 69.296 67.9822 69.008C68.7075 68.72 69.4969 68.576 70.3502 68.576C70.8835 68.576 71.4062 68.6453 71.9182 68.784C72.4302 68.9227 72.9049 69.1307 73.3422 69.408C73.7902 69.6747 74.1742 69.9947 74.4942 70.368L72.8302 72.272C72.6062 72.0373 72.3662 71.8347 72.1102 71.664C71.8649 71.4827 71.5929 71.344 71.2942 71.248C70.9955 71.152 70.6755 71.104 70.3342 71.104C69.9075 71.104 69.5022 71.184 69.1182 71.344C68.7449 71.4933 68.4142 71.712 68.1262 72C67.8489 72.2773 67.6302 72.6187 67.4702 73.024C67.3102 73.4293 67.2302 73.8827 67.2302 74.384C67.2302 74.8747 67.3102 75.3227 67.4702 75.728C67.6302 76.1227 67.8542 76.464 68.1422 76.752C68.4302 77.04 68.7769 77.2587 69.1822 77.408C69.5982 77.5573 70.0569 77.632 70.5582 77.632C70.8995 77.632 71.2249 77.584 71.5342 77.488C71.8435 77.392 72.1262 77.264 72.3822 77.104C72.6489 76.9333 72.8835 76.7413 73.0862 76.528L74.3982 78.608C74.1315 78.9067 73.7742 79.1733 73.3262 79.408C72.8889 79.6427 72.3982 79.8293 71.8542 79.968C71.3209 80.096 70.7822 80.16 70.2382 80.16ZM78.2436 76.72L77.5396 74.432L83.0916 68.8H86.3076L78.2436 76.72ZM76.2596 80V68.8H78.9796V80H76.2596ZM83.4436 80L79.2836 74.528L81.1236 72.944L86.6116 80H83.4436Z" fill="#FBFEF9"/>
</svg>
