<svg width="128" height="128" viewBox="0 0 128 128" fill="none" xmlns="http://www.w3.org/2000/svg">
<path d="M48 25H80H112C119.18 25 125 30.8203 125 38V38.8V55.6V90C125 97.1797 119.18 103 112 103H80H64H48H16C8.8203 103 3 97.1797 3 90V55.6V38C3 30.8203 8.8203 25 16 25H48Z" fill="#191923" stroke="#C8CED0" stroke-width="6"/>
<path d="M49.5 31H78.5H112C115.866 31 119 34.134 119 38V42.4V56.8V90C119 93.866 115.866 97 112 97H78.5H64H49.5H16C12.134 97 9 93.866 9 90V56.8V38C9 34.134 12.134 31 16 31H49.5Z" stroke="#2E2836" stroke-width="6"/>
<path d="M17.76 73V59.8H12.768V56.2H26.952V59.8H21.84V73H17.76ZM26.5072 73L33.1553 56.2H36.6113L43.2113 73H39.0833L35.9153 64.48C35.7873 64.144 35.6593 63.784 35.5313 63.4C35.4033 63.016 35.2753 62.624 35.1473 62.224C35.0193 61.808 34.8913 61.408 34.7633 61.024C34.6513 60.624 34.5553 60.256 34.4753 59.92L35.1953 59.896C35.0993 60.296 34.9873 60.688 34.8593 61.072C34.7473 61.456 34.6273 61.84 34.4993 62.224C34.3873 62.592 34.2593 62.968 34.1153 63.352C33.9713 63.72 33.8353 64.104 33.7073 64.504L30.5393 73H26.5072ZM29.6753 69.784L30.9473 66.712H38.6753L39.9233 69.784H29.6753ZM45.3073 73V56.2H52.7233C53.8753 56.2 54.8513 56.368 55.6513 56.704C56.4513 57.024 57.0513 57.496 57.4513 58.12C57.8673 58.728 58.0753 59.464 58.0753 60.328C58.0753 61.288 57.8353 62.096 57.3553 62.752C56.8913 63.408 56.2113 63.848 55.3153 64.072L55.2673 63.616C56.0193 63.776 56.6673 64.056 57.2113 64.456C57.7713 64.856 58.2033 65.352 58.5073 65.944C58.8113 66.52 58.9633 67.176 58.9633 67.912C58.9633 68.76 58.8193 69.504 58.5313 70.144C58.2433 70.768 57.8273 71.296 57.2833 71.728C56.7393 72.16 56.0993 72.48 55.3633 72.688C54.6433 72.896 53.8433 73 52.9633 73H45.3073ZM49.1473 69.592H52.8193C53.2673 69.592 53.6433 69.52 53.9473 69.376C54.2673 69.232 54.5153 69.024 54.6913 68.752C54.8673 68.464 54.9553 68.12 54.9553 67.72C54.9553 67.352 54.8593 67.04 54.6673 66.784C54.4913 66.528 54.2353 66.336 53.8993 66.208C53.5633 66.064 53.1633 65.992 52.6993 65.992H49.1473V69.592ZM49.1473 62.944H52.1473C52.5633 62.944 52.9153 62.88 53.2033 62.752C53.5073 62.608 53.7313 62.416 53.8753 62.176C54.0353 61.92 54.1153 61.616 54.1153 61.264C54.1153 60.752 53.9393 60.352 53.5873 60.064C53.2353 59.76 52.7073 59.608 52.0033 59.608H49.1473V62.944Z" fill="#FBFEF9"/>
</svg>
