<svg width="128" height="128" viewBox="0 0 128 128" fill="none" xmlns="http://www.w3.org/2000/svg">
<path fill-rule="evenodd" clip-rule="evenodd" d="M112.62 83.981C110.686 86.4208 105.948 88.1612 105.948 88.1612L70.7022 100.821V91.4848L96.6406 82.2428C99.5841 81.1881 100.036 79.6973 97.6435 78.9147C95.2554 78.1299 90.9312 78.3548 87.9855 79.4139L70.7022 85.5011V75.8116L71.6984 75.4743C71.6984 75.4743 76.6927 73.7068 83.7153 72.9288C90.7378 72.1553 99.3367 73.0345 106.087 75.5935C113.694 77.9973 114.551 81.5412 112.62 83.981ZM74.0573 68.0829V44.2066C74.0573 41.4025 73.5401 38.8211 70.9091 38.0903C68.8943 37.4449 67.6441 39.3158 67.6441 42.1176V101.91L51.5189 96.7916V25.5C58.3751 26.7727 68.3636 29.7815 73.7334 31.5916C87.3896 36.2801 92.0196 42.1154 92.0196 55.2633C92.0196 68.0784 84.1088 72.9355 74.0573 68.0829ZM21.931 90.5088C14.1214 88.3097 12.8217 83.7269 16.3813 81.0869C19.6711 78.6494 25.2658 76.8145 25.2658 76.8145L48.3865 68.5934V77.9658L31.7487 83.9203C28.8097 84.9749 28.3577 86.468 30.7458 87.2505C33.1361 88.0331 37.4625 87.8104 40.406 86.7536L48.3865 83.8573V92.2426C47.8806 92.3325 47.3162 92.4224 46.7945 92.5101C38.8117 93.8144 30.3095 93.2702 21.931 90.5088Z" fill="#2E2836"/>
<path fill-rule="evenodd" clip-rule="evenodd" d="M117.322 87.7075L117.324 87.7048C118.372 86.3812 119.243 84.6493 119.453 82.5853C119.669 80.46 119.138 78.4003 118.032 76.6142C115.999 73.3327 112.27 71.2765 108.057 69.9234C104.189 68.475 99.8703 67.5182 95.5405 67.0334C97.2503 63.6345 98.0197 59.5631 98.0197 55.2628C98.0197 48.0461 96.7594 41.7545 92.7364 36.5744C88.7997 31.5055 82.8943 28.3925 75.6818 25.9163L75.666 25.9109L75.6502 25.9055C70.1958 24.0668 59.8903 20.951 52.6141 19.6003L45.519 18.2832V63.2445L23.3123 71.1406L23.2916 71.1475C23.2357 71.1663 23.1592 71.1922 23.0641 71.225C22.8741 71.2905 22.6087 71.3837 22.2839 71.5022C21.6369 71.7382 20.7403 72.0798 19.7254 72.5078C17.7994 73.3202 15.0437 74.6101 12.8094 76.2656L12.8073 76.2672C11.1267 77.5135 9.62436 79.2869 8.91333 81.6004C8.17836 83.9919 8.45222 86.4506 9.50287 88.5988C11.4467 92.5733 15.6615 94.9534 20.1741 96.2466C28.6697 99.0267 37.3023 99.7642 45.519 98.7523V101.182L64.7023 107.27L67.7779 108.246L73.6441 106.139L107.996 93.8002L108.017 93.7928L105.948 88.1608L70.7023 100.821V91.4843L96.6407 82.2423C98.7243 81.4957 99.5594 80.5306 99.0209 79.7529C98.7987 79.4319 98.3425 79.1429 97.6436 78.9143C96.9872 78.6986 96.1846 78.5591 95.3045 78.4923L95.2969 78.4918C94.723 78.4485 94.1162 78.4361 93.4957 78.4535C92.6258 78.478 91.7289 78.561 90.8575 78.7C89.8372 78.8627 88.8518 79.102 87.9856 79.4135L70.7023 85.5006V75.8111L71.6985 75.4738C71.6985 75.4738 72.399 75.2259 73.6441 74.8749C73.8595 74.8142 74.0911 74.7504 74.3383 74.6843C76.4777 74.1119 79.7776 73.3646 83.7153 72.9283C85.8715 72.6908 88.1761 72.6091 90.5303 72.684C90.6707 72.6885 90.8112 72.6935 90.9519 72.6991C93.7456 72.8098 96.6004 73.1401 99.3518 73.6913L99.3595 73.6928C100.155 73.8523 100.942 74.0302 101.716 74.2267C103.232 74.6112 104.699 75.0665 106.087 75.593C113.695 77.9968 114.551 81.5407 112.62 83.9805C110.686 86.4203 105.948 88.1608 105.948 88.1608C108.017 93.7928 108.019 93.7921 108.019 93.7921L108.021 93.7914L108.035 93.7862L108.059 93.777L108.13 93.7505L108.212 93.719C108.252 93.7035 108.298 93.6859 108.348 93.666C108.527 93.596 108.77 93.498 109.062 93.374C109.641 93.1282 110.44 92.7691 111.322 92.3112C112.868 91.509 115.517 89.9842 117.322 87.7075ZM88.6363 66.6578C90.7713 64.1885 92.0197 60.3535 92.0197 55.2628C92.0197 42.1149 87.3897 36.2796 73.7335 31.5911C69.7943 30.2632 63.3694 28.2903 57.519 26.8309C55.3944 26.3009 53.3455 25.8386 51.519 25.4995V96.7911L67.6441 101.909V42.1171C67.6441 39.3153 68.8944 37.4444 70.9092 38.0898C73.5401 38.8206 74.0573 41.4021 74.0573 44.2061V68.0824C74.2858 68.1928 74.5132 68.2981 74.7394 68.3983C77.9051 69.8019 80.8409 70.2269 83.361 69.7297L83.363 69.7293C85.4369 69.3196 87.2292 68.2853 88.6363 66.6578ZM73.675 41.7279C73.675 41.7279 73.6733 41.7444 73.6649 41.7739C73.67 41.742 73.675 41.7279 73.675 41.7279ZM40.4061 86.7531C39.9522 86.9161 39.4654 87.0592 38.958 87.1819C37.6713 87.4929 36.2515 87.6723 34.8969 87.7101C34.2762 87.7274 33.6693 87.7149 33.0951 87.6717L33.0914 87.6714C32.209 87.6048 31.404 87.4655 30.7458 87.25C29.942 86.9866 29.4599 86.6427 29.2862 86.2621C28.9438 85.512 29.799 84.6194 31.7487 83.9198L48.3866 77.9653V68.5929L25.2659 76.814C25.2659 76.814 19.6712 78.6489 16.3814 81.0865C12.8218 83.7264 14.1215 88.3092 21.9311 90.5084C23.4282 91.0018 24.9292 91.4244 26.4306 91.7783C27.314 91.9866 28.1976 92.1711 29.0805 92.3322L29.082 92.3325C32.6392 92.9816 36.1859 93.2516 39.6731 93.1704C41.6437 93.1246 43.5952 92.9667 45.519 92.7017C45.9456 92.6429 46.3708 92.5789 46.7945 92.5097C46.968 92.4805 47.1463 92.4511 47.3255 92.4215C47.6852 92.3621 48.0489 92.3021 48.3866 92.2421V83.8568L40.4061 86.7531Z" fill="#C8CED0"/>
<path fill-rule="evenodd" clip-rule="evenodd" d="M73.675 41.7279C73.675 41.7279 73.6733 41.7444 73.6649 41.7739C73.67 41.742 73.675 41.7279 73.675 41.7279Z" fill="#C8CED0"/>
</svg>
