<svg width="128" height="128" viewBox="0 0 128 128" fill="none" xmlns="http://www.w3.org/2000/svg">
<circle cx="64" cy="64" r="45" stroke="#2E2836" stroke-width="6"/>
<path d="M39.3711 81.6357V48.0357H44.5551V76.6437H60.2991V81.6357H39.3711ZM78.4734 82.1157C76.6494 82.1157 74.9534 81.8757 73.3854 81.3957C71.8494 80.9157 70.4414 80.1957 69.1614 79.2357C67.9134 78.2437 66.7934 77.0277 65.8014 75.5877L69.3534 71.5077C70.9214 73.7477 72.4254 75.2997 73.8654 76.1637C75.3054 77.0277 77.0174 77.4597 79.0014 77.4597C80.2174 77.4597 81.3214 77.2677 82.3134 76.8837C83.3054 76.4997 84.0894 75.9717 84.6654 75.2997C85.2414 74.6277 85.5294 73.8597 85.5294 72.9957C85.5294 72.4197 85.4334 71.8757 85.2414 71.3637C85.0494 70.8517 84.7454 70.3877 84.3294 69.9717C83.9454 69.5557 83.4334 69.1717 82.7934 68.8197C82.1854 68.4677 81.4654 68.1637 80.6334 67.9077C79.8014 67.6197 78.8414 67.3797 77.7534 67.1877C76.0254 66.8357 74.5214 66.3717 73.2414 65.7957C71.9614 65.2197 70.8894 64.4997 70.0254 63.6357C69.1614 62.7717 68.5214 61.7957 68.1054 60.7077C67.6894 59.5877 67.4814 58.3397 67.4814 56.9637C67.4814 55.6197 67.7694 54.3717 68.3454 53.2197C68.9534 52.0677 69.7694 51.0757 70.7934 50.2437C71.8494 49.3797 73.0814 48.7237 74.4894 48.2757C75.8974 47.7957 77.4174 47.5557 79.0494 47.5557C80.7774 47.5557 82.3614 47.7797 83.8014 48.2277C85.2414 48.6757 86.5214 49.3477 87.6414 50.2437C88.7614 51.1077 89.6894 52.1797 90.4254 53.4597L86.7774 57.0597C86.1374 56.0037 85.4174 55.1237 84.6174 54.4197C83.8174 53.6837 82.9374 53.1397 81.9774 52.7877C81.0174 52.4037 79.9934 52.2117 78.9054 52.2117C77.6574 52.2117 76.5694 52.4037 75.6414 52.7877C74.7134 53.1717 73.9774 53.7157 73.4334 54.4197C72.9214 55.0917 72.6654 55.8917 72.6654 56.8197C72.6654 57.4917 72.7934 58.1157 73.0494 58.6917C73.3054 59.2357 73.6894 59.7317 74.2014 60.1797C74.7454 60.5957 75.4654 60.9797 76.3614 61.3317C77.2574 61.6517 78.3294 61.9397 79.5774 62.1957C81.3374 62.5797 82.9054 63.0757 84.2814 63.6837C85.6574 64.2597 86.8254 64.9477 87.7854 65.7477C88.7454 66.5477 89.4654 67.4437 89.9454 68.4357C90.4574 69.4277 90.7134 70.4997 90.7134 71.6517C90.7134 73.7957 90.2174 75.6517 89.2254 77.2197C88.2334 78.7877 86.8254 80.0037 85.0014 80.8677C83.1774 81.6997 81.0014 82.1157 78.4734 82.1157Z" fill="#191923"/>
</svg>
