<svg width="128" height="128" viewBox="0 0 128 128" fill="none" xmlns="http://www.w3.org/2000/svg">
<circle cx="64" cy="64" r="45" fill="#FBFEF9" stroke="#C8CED0" stroke-width="6"/>
<path d="M47.9151 81.6357V48.0357H67.0671C70.0111 48.0357 72.4911 48.3717 74.5071 49.0437C76.5551 49.7157 78.0911 50.6597 79.1151 51.8757C80.1391 53.0917 80.6511 54.5637 80.6511 56.2917C80.6511 58.1477 80.0911 59.7477 78.9711 61.0917C77.8511 62.4037 76.1551 63.3157 73.8831 63.8277L74.1231 62.9637C75.5631 63.2837 76.9071 63.7957 78.1551 64.4997C79.4351 65.1717 80.4591 66.0837 81.2271 67.2357C82.0271 68.3877 82.4271 69.7957 82.4271 71.4597C82.4271 73.5077 81.9951 75.1877 81.1311 76.4997C80.2671 77.8117 79.1311 78.8517 77.7231 79.6197C76.3151 80.3557 74.7791 80.8837 73.1151 81.2037C71.4831 81.4917 69.8831 81.6357 68.3151 81.6357H47.9151ZM55.5951 74.8197H68.5071C69.6271 74.8197 70.6191 74.6917 71.4831 74.4357C72.3791 74.1797 73.0831 73.7797 73.5951 73.2357C74.1391 72.6597 74.4111 71.9397 74.4111 71.0757C74.4111 70.0837 74.0751 69.3317 73.4031 68.8197C72.7311 68.2757 71.9151 67.9077 70.9551 67.7157C69.9951 67.4917 69.0991 67.3797 68.2671 67.3797H55.5951V74.8197ZM55.5951 61.2357H67.1631C68.2191 61.2357 69.1471 61.1077 69.9471 60.8517C70.7791 60.5957 71.4191 60.2277 71.8671 59.7477C72.3471 59.2677 72.5871 58.6597 72.5871 57.9237C72.5871 56.8037 72.0271 56.0197 70.9071 55.5717C69.8191 55.0917 68.4751 54.8517 66.8751 54.8517H55.5951V61.2357Z" fill="#191923"/>
</svg>
