<svg width="128" height="128" viewBox="0 0 128 128" fill="none" xmlns="http://www.w3.org/2000/svg">
<path d="M72.9609 39C72.9609 34.0294 68.9315 30 63.9609 30C58.9904 30 54.9609 34.0294 54.9609 39V87C54.9609 91.9706 58.9904 96 63.9609 96C68.9315 96 72.9609 91.9706 72.9609 87V39Z" fill="#FBFEF9" stroke="#C8CED0" stroke-width="6" stroke-linecap="round"/>
<path d="M27.7982 43.507C25.3169 39.2001 19.814 37.72 15.5071 40.2013C11.2001 42.6825 9.72007 48.1855 12.2013 52.4924L36.1624 94.0841C38.6437 98.391 44.1466 99.8711 48.4536 97.3898C52.7605 94.9086 54.2405 89.4056 51.7593 85.0987L27.7982 43.507Z" fill="#FBFEF9" stroke="#C8CED0" stroke-width="6" stroke-linecap="round"/>
<path d="M100.124 43.507C102.605 39.2001 108.108 37.72 112.415 40.2013C116.722 42.6825 118.202 48.1855 115.721 52.4924L91.7595 94.0841C89.2782 98.391 83.7753 99.8711 79.4683 97.3898C75.1614 94.9086 73.6813 89.4056 76.1626 85.0987L100.124 43.507Z" fill="#FBFEF9" stroke="#C8CED0" stroke-width="6" stroke-linecap="round"/>
</svg>
