<svg width="128" height="128" viewBox="0 0 128 128" fill="none" xmlns="http://www.w3.org/2000/svg">
<path d="M22.7693 52.5495L28.5883 81.6447C29.6763 87.0844 34.4526 91 40 91H64H88C93.5474 91 98.3237 87.0844 99.4117 81.6447L105.231 52.5495C106.84 44.5052 100.687 37 92.4831 37H35.5169C27.3133 37 21.1605 44.5052 22.7693 52.5495Z" fill="#FBFEF9" stroke="#C8CED0" stroke-width="6"/>
<circle cx="42" cy="50" r="4" fill="#191923"/>
<circle cx="64" cy="50" r="4" fill="#191923"/>
<circle cx="86" cy="50" r="4" fill="#191923"/>
<circle cx="45" cy="64" r="4" fill="#191923"/>
<circle cx="64" cy="64" r="4" fill="#191923"/>
<circle cx="83" cy="64" r="4" fill="#191923"/>
<circle cx="48" cy="78" r="4" fill="#191923"/>
<circle cx="64" cy="78" r="4" fill="#191923"/>
<circle cx="80" cy="78" r="4" fill="#191923"/>
</svg>
