<svg width="128" height="128" viewBox="0 0 128 128" fill="none" xmlns="http://www.w3.org/2000/svg">
<path fill-rule="evenodd" clip-rule="evenodd" d="M112.62 83.981C110.686 86.4208 105.948 88.1612 105.948 88.1612L70.7022 100.821V91.4848L96.6406 82.2428C99.5841 81.1881 100.036 79.6973 97.6435 78.9147C95.2554 78.1299 90.9312 78.3548 87.9855 79.4139L70.7022 85.5011V75.8116L71.6984 75.4743C71.6984 75.4743 76.6927 73.7068 83.7153 72.9288C90.7378 72.1553 99.3367 73.0345 106.087 75.5935C113.694 77.9973 114.551 81.5412 112.62 83.981ZM74.0573 68.0829V44.2066C74.0573 41.4025 73.5401 38.8211 70.9091 38.0903C68.8943 37.4449 67.6441 39.3158 67.6441 42.1176V101.91L51.5189 96.7916V25.5C58.3751 26.7727 68.3636 29.7815 73.7334 31.5916C87.3896 36.2801 92.0196 42.1154 92.0196 55.2633C92.0196 68.0784 84.1088 72.9355 74.0573 68.0829ZM21.931 90.5088C14.1214 88.3097 12.8217 83.7269 16.3813 81.0869C19.6711 78.6494 25.2658 76.8145 25.2658 76.8145L48.3865 68.5934V77.9658L31.7487 83.9203C28.8097 84.9749 28.3577 86.468 30.7458 87.2505C33.1361 88.0331 37.4625 87.8104 40.406 86.7536L48.3865 83.8573V92.2426C47.8806 92.3325 47.3162 92.4224 46.7945 92.5101C38.8117 93.8144 30.3095 93.2702 21.931 90.5088Z" fill="#2E2836"/>
<path fill-rule="evenodd" clip-rule="evenodd" d="M117.321 87.7075L117.324 87.7048C118.372 86.3812 119.243 84.6493 119.453 82.5853C119.669 80.46 119.137 78.4003 118.031 76.6142C115.999 73.3327 112.27 71.2765 108.057 69.9234C104.189 68.475 99.8701 67.5182 95.5402 67.0334C97.25 63.6345 98.0194 59.5631 98.0194 55.2628C98.0194 48.0461 96.7592 41.7545 92.7361 36.5744C88.7994 31.5055 82.894 28.3925 75.6816 25.9163L75.6658 25.9109L75.6499 25.9055C70.1955 24.0668 59.89 20.951 52.6138 19.6003L45.5187 18.2832V63.2445L23.312 71.1406L23.2914 71.1475C23.2355 71.1663 23.159 71.1922 23.0639 71.225C22.8738 71.2905 22.6084 71.3837 22.2836 71.5022C21.6366 71.7382 20.74 72.0798 19.7252 72.5078C17.7991 73.3202 15.0434 74.6101 12.8091 76.2656L12.807 76.2672C11.1264 77.5135 9.62412 79.2869 8.91309 81.6004C8.17812 83.9919 8.45198 86.4506 9.50263 88.5988C11.4465 92.5733 15.6612 94.9534 20.1738 96.2466C28.6695 99.0267 37.3021 99.7642 45.5187 98.7523V101.182L64.7021 107.27L67.7776 108.246L73.6439 106.139L107.996 93.8002L108.017 93.7928L105.948 88.1608L70.7021 100.821V91.4843L96.6404 82.2423C98.724 81.4957 99.5592 80.5306 99.0207 79.7529C98.7984 79.4319 98.3423 79.1429 97.6433 78.9143C96.987 78.6986 96.1843 78.5591 95.3043 78.4923L95.2966 78.4918C94.7227 78.4485 94.116 78.4361 93.4955 78.4535C92.6256 78.478 91.7287 78.561 90.8572 78.7C89.8369 78.8627 88.8515 79.102 87.9853 79.4135L70.7021 85.5006V75.8111L71.6982 75.4738C71.6982 75.4738 72.3987 75.2259 73.6439 74.8749C73.8593 74.8142 74.0909 74.7504 74.338 74.6843C76.4774 74.1119 79.7774 73.3646 83.7151 72.9283C85.8712 72.6908 88.1759 72.6091 90.5301 72.684C90.6704 72.6885 90.811 72.6935 90.9516 72.6991C93.7454 72.8098 96.6002 73.1401 99.3516 73.6913L99.3592 73.6928C100.155 73.8523 100.942 74.0302 101.716 74.2267C103.231 74.6112 104.698 75.0665 106.087 75.593C113.694 77.9968 114.551 81.5407 112.619 83.9805C110.686 86.4203 105.948 88.1608 105.948 88.1608C108.017 93.7928 108.018 93.7921 108.018 93.7921L108.02 93.7914L108.034 93.7862L108.059 93.777L108.129 93.7505L108.212 93.719C108.252 93.7035 108.298 93.6859 108.348 93.666C108.526 93.596 108.77 93.498 109.062 93.374C109.641 93.1282 110.439 92.7691 111.322 92.3112C112.868 91.509 115.517 89.9842 117.321 87.7075ZM88.6361 66.6578C90.7711 64.1885 92.0194 60.3535 92.0194 55.2628C92.0194 42.1149 87.3894 36.2796 73.7333 31.5911C69.794 30.2632 63.3692 28.2903 57.5187 26.8309C55.3941 26.3009 53.3453 25.8386 51.5187 25.4995V96.7911L67.6439 101.909V42.1171C67.6439 39.3153 68.8942 37.4444 70.909 38.0898C73.5399 38.8206 74.0571 41.4021 74.0571 44.2061V68.0824C74.2856 68.1928 74.513 68.2981 74.7392 68.3983C77.9049 69.8019 80.8406 70.2269 83.3607 69.7297L83.3627 69.7293C85.4366 69.3196 87.2289 68.2853 88.6361 66.6578ZM73.6748 41.7279C73.6748 41.7279 73.6731 41.7444 73.6646 41.7739C73.6697 41.742 73.6748 41.7279 73.6748 41.7279ZM40.4059 86.7531C39.952 86.9161 39.4652 87.0592 38.9577 87.1819C37.6711 87.4929 36.2513 87.6723 34.8967 87.7101C34.276 87.7274 33.669 87.7149 33.0948 87.6717L33.0912 87.6714C32.2087 87.6048 31.4038 87.4655 30.7456 87.25C29.9417 86.9866 29.4597 86.6427 29.286 86.2621C28.9436 85.512 29.7988 84.6194 31.7485 83.9198L48.3864 77.9653V68.5929L25.2656 76.814C25.2656 76.814 19.6709 78.6489 16.3811 81.0865C12.8215 83.7264 14.1212 88.3092 21.9308 90.5084C23.4279 91.0018 24.929 91.4244 26.4303 91.7783C27.3138 91.9866 28.1973 92.1711 29.0803 92.3322L29.0817 92.3325C32.639 92.9816 36.1857 93.2516 39.6729 93.1704C41.6434 93.1246 43.595 92.9667 45.5187 92.7017C45.9453 92.6429 46.3705 92.5789 46.7943 92.5097C46.9678 92.4805 47.146 92.4511 47.3253 92.4215C47.6849 92.3621 48.0487 92.3021 48.3864 92.2421V83.8568L40.4059 86.7531Z" fill="#C8CED0"/>
<path fill-rule="evenodd" clip-rule="evenodd" d="M73.6748 41.7279C73.6748 41.7279 73.6731 41.7444 73.6646 41.7739C73.6697 41.742 73.6748 41.7279 73.6748 41.7279Z" fill="#C8CED0"/>
</svg>
