<svg width="128" height="128" viewBox="0 0 128 128" fill="none" xmlns="http://www.w3.org/2000/svg">
<path d="M52 19H76H96C103.18 19 109 24.8203 109 32V35.2V54.4V96C109 103.18 103.18 109 96 109H76H64H52H32C24.8203 109 19 103.18 19 96V54.4V32C19 24.8203 24.8203 19 32 19H52Z" stroke="#2E2836" stroke-width="6"/>
<path d="M43.7945 47L49.3345 33H52.2145L57.7145 47H54.2745L51.6345 39.9C51.5278 39.62 51.4211 39.32 51.3145 39C51.2078 38.68 51.1011 38.3533 50.9945 38.02C50.8878 37.6733 50.7811 37.34 50.6745 37.02C50.5811 36.6867 50.5011 36.38 50.4345 36.1L51.0345 36.08C50.9545 36.4133 50.8611 36.74 50.7545 37.06C50.6611 37.38 50.5611 37.7 50.4545 38.02C50.3611 38.3267 50.2545 38.64 50.1345 38.96C50.0145 39.2667 49.9011 39.5867 49.7945 39.92L47.1545 47H43.7945ZM46.4345 44.32L47.4945 41.76H53.9345L54.9745 44.32H46.4345ZM59.4612 47V33H65.5012C66.3812 33 67.1612 33.2 67.8412 33.6C68.5345 34 69.0812 34.5467 69.4812 35.24C69.8945 35.9333 70.1012 36.7133 70.1012 37.58C70.1012 38.4867 69.8945 39.3 69.4812 40.02C69.0812 40.7267 68.5345 41.2867 67.8412 41.7C67.1612 42.1133 66.3812 42.32 65.5012 42.32H62.8612V47H59.4612ZM62.8012 39.34H65.0212C65.3145 39.34 65.5812 39.2667 65.8212 39.12C66.0612 38.9733 66.2545 38.7733 66.4012 38.52C66.5478 38.2667 66.6212 37.9733 66.6212 37.64C66.6212 37.2933 66.5478 37 66.4012 36.76C66.2545 36.52 66.0612 36.3333 65.8212 36.2C65.5812 36.0667 65.3145 36 65.0212 36H62.8012V39.34ZM72.7034 47V33H78.7434C79.6234 33 80.4034 33.2 81.0834 33.6C81.7767 34 82.3234 34.5467 82.7234 35.24C83.1367 35.9333 83.3434 36.7133 83.3434 37.58C83.3434 38.4867 83.1367 39.3 82.7234 40.02C82.3234 40.7267 81.7767 41.2867 81.0834 41.7C80.4034 42.1133 79.6234 42.32 78.7434 42.32H76.1034V47H72.7034ZM76.0434 39.34H78.2634C78.5567 39.34 78.8234 39.2667 79.0634 39.12C79.3034 38.9733 79.4967 38.7733 79.6434 38.52C79.79 38.2667 79.8634 37.9733 79.8634 37.64C79.8634 37.2933 79.79 37 79.6434 36.76C79.4967 36.52 79.3034 36.3333 79.0634 36.2C78.8234 36.0667 78.5567 36 78.2634 36H76.0434V39.34ZM60.6749 92.648V65.384L62.4509 69.464L55.2509 72.872L53.8589 65.576L63.4109 60.92H68.6909V92.648H60.6749ZM54.5309 95V87.8H74.9789V95H54.5309Z" fill="#191923"/>
</svg>
