<svg width="128" height="128" viewBox="0 0 128 128" fill="none" xmlns="http://www.w3.org/2000/svg">
<path d="M52 19H76H96C103.18 19 109 24.8203 109 32V35.2V54.4V96C109 103.18 103.18 109 96 109H76H64H52H32C24.8203 109 19 103.18 19 96V54.4V32C19 24.8203 24.8203 19 32 19H52Z" stroke="#2E2836" stroke-width="6"/>
<path d="M43.7945 47L49.3345 33H52.2145L57.7145 47H54.2745L51.6345 39.9C51.5278 39.62 51.4211 39.32 51.3145 39C51.2078 38.68 51.1011 38.3533 50.9945 38.02C50.8878 37.6733 50.7811 37.34 50.6745 37.02C50.5811 36.6867 50.5011 36.38 50.4345 36.1L51.0345 36.08C50.9545 36.4133 50.8611 36.74 50.7545 37.06C50.6611 37.38 50.5611 37.7 50.4545 38.02C50.3611 38.3267 50.2545 38.64 50.1345 38.96C50.0145 39.2667 49.9011 39.5867 49.7945 39.92L47.1545 47H43.7945ZM46.4345 44.32L47.4945 41.76H53.9345L54.9745 44.32H46.4345ZM59.4612 47V33H65.5012C66.3812 33 67.1612 33.2 67.8412 33.6C68.5345 34 69.0812 34.5467 69.4812 35.24C69.8945 35.9333 70.1012 36.7133 70.1012 37.58C70.1012 38.4867 69.8945 39.3 69.4812 40.02C69.0812 40.7267 68.5345 41.2867 67.8412 41.7C67.1612 42.1133 66.3812 42.32 65.5012 42.32H62.8612V47H59.4612ZM62.8012 39.34H65.0212C65.3145 39.34 65.5812 39.2667 65.8212 39.12C66.0612 38.9733 66.2545 38.7733 66.4012 38.52C66.5478 38.2667 66.6212 37.9733 66.6212 37.64C66.6212 37.2933 66.5478 37 66.4012 36.76C66.2545 36.52 66.0612 36.3333 65.8212 36.2C65.5812 36.0667 65.3145 36 65.0212 36H62.8012V39.34ZM72.7034 47V33H78.7434C79.6234 33 80.4034 33.2 81.0834 33.6C81.7767 34 82.3234 34.5467 82.7234 35.24C83.1367 35.9333 83.3434 36.7133 83.3434 37.58C83.3434 38.4867 83.1367 39.3 82.7234 40.02C82.3234 40.7267 81.7767 41.2867 81.0834 41.7C80.4034 42.1133 79.6234 42.32 78.7434 42.32H76.1034V47H72.7034ZM76.0434 39.34H78.2634C78.5567 39.34 78.8234 39.2667 79.0634 39.12C79.3034 38.9733 79.4967 38.7733 79.6434 38.52C79.79 38.2667 79.8634 37.9733 79.8634 37.64C79.8634 37.2933 79.79 37 79.6434 36.76C79.4967 36.52 79.3034 36.3333 79.0634 36.2C78.8234 36.0667 78.5567 36 78.2634 36H76.0434V39.34ZM53.6836 95L52.0996 91.064L61.8916 80.36C62.4356 79.752 63.0276 79.064 63.6676 78.296C64.3076 77.528 64.9316 76.744 65.5396 75.944C66.1476 75.112 66.6276 74.312 66.9796 73.544C67.3636 72.776 67.5556 72.072 67.5556 71.432C67.5556 70.792 67.4116 70.232 67.1236 69.752C66.8356 69.272 66.4196 68.904 65.8756 68.648C65.3316 68.36 64.6436 68.216 63.8116 68.216C63.0756 68.216 62.3716 68.408 61.6996 68.792C61.0276 69.144 60.3876 69.704 59.7796 70.472C59.2036 71.24 58.6596 72.184 58.1476 73.304L52.0996 70.04C52.7716 68.184 53.7156 66.552 54.9316 65.144C56.1796 63.704 57.6356 62.6 59.2996 61.832C60.9636 61.032 62.7396 60.632 64.6276 60.632C66.6116 60.664 68.4036 61.096 70.0036 61.928C71.6036 62.728 72.8676 63.864 73.7956 65.336C74.7556 66.776 75.2356 68.472 75.2356 70.424C75.2356 71.096 75.1556 71.8 74.9956 72.536C74.8356 73.272 74.5956 74.04 74.2756 74.84C73.9556 75.608 73.5236 76.44 72.9796 77.336C72.4676 78.2 71.8436 79.112 71.1076 80.072C70.3716 81.032 69.5076 82.056 68.5156 83.144L60.8836 91.448L59.9236 87.8H76.7236V95H53.6836Z" fill="#191923"/>
</svg>
