<svg width="128" height="128" viewBox="0 0 128 128" fill="none" xmlns="http://www.w3.org/2000/svg">
<path d="M52 19H76H96C103.18 19 109 24.8203 109 32V35.2V54.4V96C109 103.18 103.18 109 96 109H76H64H52H32C24.8203 109 19 103.18 19 96V54.4V32C19 24.8203 24.8203 19 32 19H52Z" stroke="#2E2836" stroke-width="6"/>
<path d="M32.3972 85V68.2H39.8132C40.9652 68.2 41.9412 68.368 42.7412 68.704C43.5412 69.024 44.1412 69.496 44.5412 70.12C44.9572 70.728 45.1652 71.464 45.1652 72.328C45.1652 73.288 44.9252 74.096 44.4452 74.752C43.9812 75.408 43.3012 75.848 42.4052 76.072L42.3572 75.616C43.1092 75.776 43.7572 76.056 44.3012 76.456C44.8612 76.856 45.2932 77.352 45.5972 77.944C45.9012 78.52 46.0532 79.176 46.0532 79.912C46.0532 80.76 45.9092 81.504 45.6212 82.144C45.3332 82.768 44.9172 83.296 44.3732 83.728C43.8292 84.16 43.1892 84.48 42.4532 84.688C41.7332 84.896 40.9332 85 40.0532 85H32.3972ZM36.2372 81.592H39.9092C40.3572 81.592 40.7332 81.52 41.0372 81.376C41.3572 81.232 41.6052 81.024 41.7812 80.752C41.9572 80.464 42.0452 80.12 42.0452 79.72C42.0452 79.352 41.9492 79.04 41.7572 78.784C41.5812 78.528 41.3252 78.336 40.9892 78.208C40.6532 78.064 40.2532 77.992 39.7892 77.992H36.2372V81.592ZM36.2372 74.944H39.2372C39.6532 74.944 40.0052 74.88 40.2932 74.752C40.5972 74.608 40.8212 74.416 40.9652 74.176C41.1252 73.92 41.2052 73.616 41.2052 73.264C41.2052 72.752 41.0292 72.352 40.6772 72.064C40.3252 71.76 39.7972 71.608 39.0932 71.608H36.2372V74.944ZM47.0893 85L53.7373 68.2H57.1933L63.7933 85H59.6653L56.4973 76.48C56.3693 76.144 56.2413 75.784 56.1133 75.4C55.9853 75.016 55.8573 74.624 55.7293 74.224C55.6013 73.808 55.4733 73.408 55.3453 73.024C55.2333 72.624 55.1373 72.256 55.0573 71.92L55.7773 71.896C55.6813 72.296 55.5693 72.688 55.4413 73.072C55.3293 73.456 55.2093 73.84 55.0813 74.224C54.9693 74.592 54.8413 74.968 54.6973 75.352C54.5533 75.72 54.4173 76.104 54.2893 76.504L51.1213 85H47.0893ZM50.2573 81.784L51.5293 78.712H59.2573L60.5053 81.784H50.2573ZM73.0526 85.24C71.7886 85.24 70.6206 85.032 69.5486 84.616C68.4926 84.184 67.5726 83.584 66.7886 82.816C66.0046 82.032 65.3966 81.112 64.9646 80.056C64.5486 78.984 64.3406 77.808 64.3406 76.528C64.3406 75.28 64.5646 74.128 65.0126 73.072C65.4606 72.016 66.0766 71.104 66.8606 70.336C67.6606 69.552 68.5966 68.944 69.6686 68.512C70.7566 68.08 71.9406 67.864 73.2206 67.864C74.0206 67.864 74.8046 67.968 75.5726 68.176C76.3406 68.384 77.0526 68.696 77.7086 69.112C78.3806 69.512 78.9566 69.992 79.4366 70.552L76.9406 73.408C76.6046 73.056 76.2446 72.752 75.8606 72.496C75.4926 72.224 75.0846 72.016 74.6366 71.872C74.1886 71.728 73.7086 71.656 73.1966 71.656C72.5566 71.656 71.9486 71.776 71.3726 72.016C70.8126 72.24 70.3166 72.568 69.8846 73C69.4686 73.416 69.1406 73.928 68.9006 74.536C68.6606 75.144 68.5406 75.824 68.5406 76.576C68.5406 77.312 68.6606 77.984 68.9006 78.592C69.1406 79.184 69.4766 79.696 69.9086 80.128C70.3406 80.56 70.8606 80.888 71.4686 81.112C72.0926 81.336 72.7806 81.448 73.5326 81.448C74.0446 81.448 74.5326 81.376 74.9966 81.232C75.4606 81.088 75.8846 80.896 76.2686 80.656C76.6686 80.4 77.0206 80.112 77.3246 79.792L79.2926 82.912C78.8926 83.36 78.3566 83.76 77.6846 84.112C77.0286 84.464 76.2926 84.744 75.4766 84.952C74.6766 85.144 73.8686 85.24 73.0526 85.24ZM85.0607 80.08L84.0047 76.648L92.3327 68.2H97.1567L85.0607 80.08ZM82.0847 85V68.2H86.1647V85H82.0847ZM92.8607 85L86.6207 76.792L89.3807 74.416L97.6127 85H92.8607Z" fill="#191923"/>
<path d="M34.0716 49V40.6H37.7796C38.3556 40.6 38.8436 40.684 39.2436 40.852C39.6436 41.012 39.9436 41.248 40.1436 41.56C40.3516 41.864 40.4556 42.232 40.4556 42.664C40.4556 43.144 40.3356 43.548 40.0956 43.876C39.8636 44.204 39.5236 44.424 39.0756 44.536L39.0516 44.308C39.4276 44.388 39.7516 44.528 40.0236 44.728C40.3036 44.928 40.5196 45.176 40.6716 45.472C40.8236 45.76 40.8996 46.088 40.8996 46.456C40.8996 46.88 40.8276 47.252 40.6836 47.572C40.5396 47.884 40.3316 48.148 40.0596 48.364C39.7876 48.58 39.4676 48.74 39.0996 48.844C38.7396 48.948 38.3396 49 37.8996 49H34.0716ZM35.9916 47.296H37.8276C38.0516 47.296 38.2396 47.26 38.3916 47.188C38.5516 47.116 38.6756 47.012 38.7636 46.876C38.8516 46.732 38.8956 46.56 38.8956 46.36C38.8956 46.176 38.8476 46.02 38.7516 45.892C38.6636 45.764 38.5356 45.668 38.3676 45.604C38.1996 45.532 37.9996 45.496 37.7676 45.496H35.9916V47.296ZM35.9916 43.972H37.4916C37.6996 43.972 37.8756 43.94 38.0196 43.876C38.1716 43.804 38.2836 43.708 38.3556 43.588C38.4356 43.46 38.4756 43.308 38.4756 43.132C38.4756 42.876 38.3876 42.676 38.2116 42.532C38.0356 42.38 37.7716 42.304 37.4196 42.304H35.9916V43.972ZM42.4857 49V40.6H46.2657C46.8017 40.6 47.2857 40.716 47.7177 40.948C48.1577 41.18 48.5017 41.5 48.7497 41.908C48.9977 42.308 49.1217 42.764 49.1217 43.276C49.1217 43.804 48.9977 44.28 48.7497 44.704C48.5017 45.12 48.1617 45.448 47.7297 45.688C47.2977 45.928 46.8097 46.048 46.2657 46.048H44.4297V49H42.4857ZM47.1417 49L45.0057 45.208L47.0937 44.908L49.4697 49H47.1417ZM44.4297 44.488H46.0857C46.2937 44.488 46.4737 44.444 46.6257 44.356C46.7857 44.26 46.9057 44.128 46.9857 43.96C47.0737 43.792 47.1177 43.6 47.1177 43.384C47.1177 43.168 47.0697 42.98 46.9737 42.82C46.8777 42.652 46.7377 42.524 46.5537 42.436C46.3777 42.348 46.1617 42.304 45.9057 42.304H44.4297V44.488ZM54.6223 49.12C53.9823 49.12 53.3983 49.012 52.8703 48.796C52.3423 48.58 51.8823 48.276 51.4903 47.884C51.0983 47.492 50.7943 47.032 50.5783 46.504C50.3623 45.976 50.2543 45.396 50.2543 44.764C50.2543 44.132 50.3623 43.552 50.5783 43.024C50.7943 42.496 51.0983 42.036 51.4903 41.644C51.8823 41.252 52.3423 40.948 52.8703 40.732C53.3983 40.516 53.9783 40.408 54.6103 40.408C55.2423 40.408 55.8223 40.516 56.3503 40.732C56.8783 40.948 57.3383 41.252 57.7303 41.644C58.1223 42.036 58.4223 42.496 58.6303 43.024C58.8463 43.552 58.9543 44.132 58.9543 44.764C58.9543 45.388 58.8463 45.968 58.6303 46.504C58.4223 47.032 58.1223 47.492 57.7303 47.884C57.3383 48.276 56.8783 48.58 56.3503 48.796C55.8223 49.012 55.2463 49.12 54.6223 49.12ZM54.6103 47.2C54.9383 47.2 55.2383 47.14 55.5103 47.02C55.7903 46.9 56.0303 46.732 56.2303 46.516C56.4383 46.292 56.5983 46.032 56.7103 45.736C56.8223 45.44 56.8783 45.116 56.8783 44.764C56.8783 44.412 56.8223 44.088 56.7103 43.792C56.5983 43.496 56.4383 43.24 56.2303 43.024C56.0303 42.8 55.7903 42.628 55.5103 42.508C55.2383 42.388 54.9383 42.328 54.6103 42.328C54.2823 42.328 53.9783 42.388 53.6983 42.508C53.4263 42.628 53.1863 42.8 52.9783 43.024C52.7703 43.24 52.6103 43.496 52.4983 43.792C52.3943 44.088 52.3423 44.412 52.3423 44.764C52.3423 45.116 52.3943 45.444 52.4983 45.748C52.6103 46.044 52.7703 46.3 52.9783 46.516C53.1863 46.732 53.4263 46.9 53.6983 47.02C53.9783 47.14 54.2823 47.2 54.6103 47.2ZM61.986 49L59.466 40.6H61.542L62.802 45.016C62.858 45.216 62.906 45.42 62.946 45.628C62.994 45.828 63.03 46.02 63.054 46.204C63.086 46.388 63.11 46.56 63.126 46.72C63.142 46.872 63.158 47 63.174 47.104H62.91C62.958 46.808 62.998 46.544 63.03 46.312C63.07 46.08 63.114 45.864 63.162 45.664C63.21 45.456 63.27 45.24 63.342 45.016L64.59 41.692H66.222L67.446 45.016C67.542 45.28 67.622 45.528 67.686 45.76C67.75 45.992 67.798 46.216 67.83 46.432C67.87 46.64 67.902 46.848 67.926 47.056L67.686 47.092C67.702 46.948 67.714 46.816 67.722 46.696C67.73 46.568 67.738 46.448 67.746 46.336C67.762 46.216 67.778 46.092 67.794 45.964C67.81 45.836 67.834 45.696 67.866 45.544C67.898 45.384 67.942 45.204 67.998 45.004L69.246 40.6H71.274L68.754 49H67.194L65.202 44.164L65.43 44.188L63.594 49H61.986ZM75.0588 49.12C74.5068 49.12 74.0068 49.056 73.5588 48.928C73.1188 48.792 72.7268 48.6 72.3828 48.352C72.0388 48.096 71.7308 47.796 71.4588 47.452L72.6948 46.048C73.0948 46.584 73.4948 46.944 73.8948 47.128C74.3028 47.312 74.7228 47.404 75.1548 47.404C75.3708 47.404 75.5668 47.376 75.7428 47.32C75.9188 47.264 76.0548 47.184 76.1508 47.08C76.2468 46.968 76.2948 46.832 76.2948 46.672C76.2948 46.552 76.2628 46.444 76.1988 46.348C76.1428 46.252 76.0628 46.168 75.9588 46.096C75.8548 46.024 75.7308 45.96 75.5868 45.904C75.4428 45.84 75.2908 45.788 75.1308 45.748C74.9708 45.7 74.8068 45.66 74.6388 45.628C74.1748 45.524 73.7708 45.396 73.4268 45.244C73.0828 45.092 72.7948 44.908 72.5628 44.692C72.3388 44.468 72.1708 44.216 72.0588 43.936C71.9468 43.648 71.8908 43.328 71.8908 42.976C71.8908 42.6 71.9748 42.256 72.1428 41.944C72.3188 41.624 72.5508 41.352 72.8388 41.128C73.1348 40.896 73.4748 40.72 73.8588 40.6C74.2428 40.472 74.6428 40.408 75.0588 40.408C75.6108 40.408 76.0828 40.468 76.4748 40.588C76.8748 40.7 77.2148 40.864 77.4948 41.08C77.7828 41.296 78.0268 41.556 78.2268 41.86L76.9668 43.072C76.7988 42.864 76.6148 42.692 76.4148 42.556C76.2228 42.42 76.0148 42.316 75.7908 42.244C75.5748 42.172 75.3508 42.136 75.1188 42.136C74.8788 42.136 74.6708 42.168 74.4948 42.232C74.3268 42.288 74.1948 42.372 74.0988 42.484C74.0028 42.588 73.9548 42.716 73.9548 42.868C73.9548 43.004 73.9948 43.12 74.0748 43.216C74.1548 43.312 74.2628 43.4 74.3988 43.48C74.5348 43.552 74.6908 43.616 74.8668 43.672C75.0428 43.72 75.2268 43.76 75.4188 43.792C75.8588 43.88 76.2548 43.996 76.6068 44.14C76.9668 44.284 77.2748 44.46 77.5308 44.668C77.7948 44.876 77.9948 45.124 78.1308 45.412C78.2748 45.692 78.3468 46.02 78.3468 46.396C78.3468 46.98 78.2028 47.476 77.9148 47.884C77.6348 48.284 77.2468 48.592 76.7508 48.808C76.2628 49.016 75.6988 49.12 75.0588 49.12ZM79.8802 49V40.6H85.7362V42.34H81.8602V47.26H85.8562V49H79.8802ZM80.8402 45.556V43.9H85.1962V45.556H80.8402ZM87.6146 49V40.6H91.3946C91.9306 40.6 92.4146 40.716 92.8466 40.948C93.2866 41.18 93.6306 41.5 93.8786 41.908C94.1266 42.308 94.2506 42.764 94.2506 43.276C94.2506 43.804 94.1266 44.28 93.8786 44.704C93.6306 45.12 93.2906 45.448 92.8586 45.688C92.4266 45.928 91.9386 46.048 91.3946 46.048H89.5586V49H87.6146ZM92.2706 49L90.1346 45.208L92.2226 44.908L94.5986 49H92.2706ZM89.5586 44.488H91.2146C91.4226 44.488 91.6026 44.444 91.7546 44.356C91.9146 44.26 92.0346 44.128 92.1146 43.96C92.2026 43.792 92.2466 43.6 92.2466 43.384C92.2466 43.168 92.1986 42.98 92.1026 42.82C92.0066 42.652 91.8666 42.524 91.6826 42.436C91.5066 42.348 91.2906 42.304 91.0346 42.304H89.5586V44.488Z" fill="#191923"/>
</svg>
