<svg width="128" height="128" viewBox="0 0 128 128" fill="none" xmlns="http://www.w3.org/2000/svg">
<path d="M52 19H76H96C103.18 19 109 24.8203 109 32V35.2V54.4V96C109 103.18 103.18 109 96 109H76H64H52H32C24.8203 109 19 103.18 19 96V54.4V32C19 24.8203 24.8203 19 32 19H52Z" stroke="#2E2836" stroke-width="6"/>
<path d="M27.8846 70V58.8H35.6926V61.12H30.5246V67.68H35.8526V70H27.8846ZM29.1646 65.408V63.2H34.9726V65.408H29.1646ZM44.7731 70L41.3011 64.976L36.8531 58.8H40.1651L43.5571 63.76L48.0851 70H44.7731ZM36.7731 70L41.0451 63.904L43.2371 65.168L39.9251 70H36.7731ZM43.8131 64.8L41.6371 63.584L44.7731 58.8H47.9251L43.8131 64.8ZM49.4783 70V58.8H57.2863V61.12H52.1183V67.68H57.4463V70H49.4783ZM50.7583 65.408V63.2H56.5663V65.408H50.7583ZM64.8788 70.16C64.0361 70.16 63.2575 70.0213 62.5428 69.744C61.8388 69.456 61.2255 69.056 60.7028 68.544C60.1801 68.0213 59.7748 67.408 59.4868 66.704C59.2095 65.9893 59.0708 65.2053 59.0708 64.352C59.0708 63.52 59.2201 62.752 59.5188 62.048C59.8175 61.344 60.2281 60.736 60.7508 60.224C61.2841 59.7013 61.9081 59.296 62.6228 59.008C63.3481 58.72 64.1375 58.576 64.9908 58.576C65.5241 58.576 66.0468 58.6453 66.5588 58.784C67.0708 58.9227 67.5455 59.1307 67.9828 59.408C68.4308 59.6747 68.8148 59.9947 69.1348 60.368L67.4708 62.272C67.2468 62.0373 67.0068 61.8347 66.7508 61.664C66.5055 61.4827 66.2335 61.344 65.9348 61.248C65.6361 61.152 65.3161 61.104 64.9748 61.104C64.5481 61.104 64.1428 61.184 63.7588 61.344C63.3855 61.4933 63.0548 61.712 62.7668 62C62.4895 62.2773 62.2708 62.6187 62.1108 63.024C61.9508 63.4293 61.8708 63.8827 61.8708 64.384C61.8708 64.8747 61.9508 65.3227 62.1108 65.728C62.2708 66.1227 62.4948 66.464 62.7828 66.752C63.0708 67.04 63.4175 67.2587 63.8228 67.408C64.2388 67.5573 64.6975 67.632 65.1988 67.632C65.5401 67.632 65.8655 67.584 66.1748 67.488C66.4841 67.392 66.7668 67.264 67.0228 67.104C67.2895 66.9333 67.5241 66.7413 67.7268 66.528L69.0388 68.608C68.7721 68.9067 68.4148 69.1733 67.9668 69.408C67.5295 69.6427 67.0388 69.8293 66.4948 69.968C65.9615 70.096 65.4228 70.16 64.8788 70.16ZM75.6202 70.096C74.6922 70.096 73.8655 69.9093 73.1402 69.536C72.4149 69.152 71.8442 68.6293 71.4282 67.968C71.0229 67.3067 70.8202 66.5493 70.8202 65.696V58.8H73.5722V65.552C73.5722 65.9573 73.6629 66.3253 73.8442 66.656C74.0255 66.976 74.2709 67.232 74.5802 67.424C74.8895 67.6053 75.2362 67.696 75.6202 67.696C76.0255 67.696 76.3829 67.6053 76.6922 67.424C77.0122 67.232 77.2682 66.976 77.4602 66.656C77.6522 66.3253 77.7482 65.9573 77.7482 65.552V58.8H80.4042V65.696C80.4042 66.5493 80.1962 67.3067 79.7802 67.968C79.3749 68.6293 78.8095 69.152 78.0842 69.536C77.3589 69.9093 76.5375 70.096 75.6202 70.096ZM85.5666 70V61.2H82.2386V58.8H91.6946V61.2H88.2866V70H85.5666ZM93.6189 70V58.8H101.427V61.12H96.2589V67.68H101.587V70H93.6189ZM94.8989 65.408V63.2H100.707V65.408H94.8989Z" fill="#191923"/>
</svg>
