<svg width="128" height="128" viewBox="0 0 128 128" fill="none" xmlns="http://www.w3.org/2000/svg">
<path d="M52 19H76H96C103.18 19 109 24.8203 109 32V35.2V54.4V96C109 103.18 103.18 109 96 109H76H64H52H32C24.8203 109 19 103.18 19 96V54.4V32C19 24.8203 24.8203 19 32 19H52Z" stroke="#2E2836" stroke-width="6"/>
<path d="M32.819 73V56.2H44.531V59.68H36.779V69.52H44.771V73H32.819ZM34.739 66.112V62.8H43.451V66.112H34.739ZM55.7278 73L53.0158 68.896L51.7678 67.144L46.7278 60.256H51.3358L53.9518 64.168L55.3198 66.04L60.2878 73H55.7278ZM46.6078 73L51.7438 65.848L53.8078 68.32L51.1438 73H46.6078ZM55.0318 67.456L52.9918 65.008L55.5118 60.256H60.0478L55.0318 67.456ZM68.4105 73.24C67.3065 73.24 66.3065 73.112 65.4105 72.856C64.5305 72.584 63.7465 72.2 63.0585 71.704C62.3705 71.192 61.7545 70.592 61.2105 69.904L63.6825 67.096C64.4825 68.168 65.2825 68.888 66.0825 69.256C66.8985 69.624 67.7385 69.808 68.6025 69.808C69.0345 69.808 69.4265 69.752 69.7785 69.64C70.1305 69.528 70.4025 69.368 70.5945 69.16C70.7865 68.936 70.8825 68.664 70.8825 68.344C70.8825 68.104 70.8185 67.888 70.6905 67.696C70.5785 67.504 70.4185 67.336 70.2105 67.192C70.0025 67.048 69.7545 66.92 69.4665 66.808C69.1785 66.68 68.8745 66.576 68.5545 66.496C68.2345 66.4 67.9065 66.32 67.5705 66.256C66.6425 66.048 65.8345 65.792 65.1465 65.488C64.4585 65.184 63.8825 64.816 63.4185 64.384C62.9705 63.936 62.6345 63.432 62.4105 62.872C62.1865 62.296 62.0745 61.656 62.0745 60.952C62.0745 60.2 62.2425 59.512 62.5785 58.888C62.9305 58.248 63.3945 57.704 63.9705 57.256C64.5625 56.792 65.2425 56.44 66.0105 56.2C66.7785 55.944 67.5785 55.816 68.4105 55.816C69.5145 55.816 70.4585 55.936 71.2425 56.176C72.0425 56.4 72.7225 56.728 73.2825 57.16C73.8585 57.592 74.3465 58.112 74.7465 58.72L72.2265 61.144C71.8905 60.728 71.5225 60.384 71.1225 60.112C70.7385 59.84 70.3225 59.632 69.8745 59.488C69.4425 59.344 68.9945 59.272 68.5305 59.272C68.0505 59.272 67.6345 59.336 67.2825 59.464C66.9465 59.576 66.6825 59.744 66.4905 59.968C66.2985 60.176 66.2025 60.432 66.2025 60.736C66.2025 61.008 66.2825 61.24 66.4425 61.432C66.6025 61.624 66.8185 61.8 67.0905 61.96C67.3625 62.104 67.6745 62.232 68.0265 62.344C68.3785 62.44 68.7465 62.52 69.1305 62.584C70.0105 62.76 70.8025 62.992 71.5065 63.28C72.2265 63.568 72.8425 63.92 73.3545 64.336C73.8825 64.752 74.2825 65.248 74.5545 65.824C74.8425 66.384 74.9865 67.04 74.9865 67.792C74.9865 68.96 74.6985 69.952 74.1225 70.768C73.5625 71.568 72.7865 72.184 71.7945 72.616C70.8185 73.032 69.6905 73.24 68.4105 73.24ZM83.7174 73.24C82.3094 73.24 81.0854 72.96 80.0454 72.4C79.0054 71.824 78.1974 71.048 77.6214 70.072C77.0454 69.08 76.7574 67.952 76.7574 66.688C76.7574 65.712 76.9174 64.816 77.2374 64C77.5574 63.184 78.0054 62.48 78.5814 61.888C79.1574 61.28 79.8374 60.816 80.6214 60.496C81.4214 60.16 82.2934 59.992 83.2374 59.992C84.1334 59.992 84.9494 60.152 85.6854 60.472C86.4374 60.792 87.0854 61.24 87.6294 61.816C88.1734 62.392 88.5894 63.072 88.8774 63.856C89.1654 64.64 89.2934 65.496 89.2614 66.424L89.2374 67.456H79.0854L78.5334 65.296H86.1174L85.7094 65.752V65.272C85.6774 64.872 85.5494 64.52 85.3254 64.216C85.1174 63.896 84.8374 63.648 84.4854 63.472C84.1334 63.296 83.7334 63.208 83.2854 63.208C82.6614 63.208 82.1254 63.336 81.6774 63.592C81.2454 63.832 80.9174 64.192 80.6934 64.672C80.4694 65.136 80.3574 65.712 80.3574 66.4C80.3574 67.104 80.5014 67.72 80.7894 68.248C81.0934 68.76 81.5254 69.16 82.0854 69.448C82.6614 69.736 83.3414 69.88 84.1254 69.88C84.6694 69.88 85.1494 69.8 85.5654 69.64C85.9974 69.48 86.4614 69.208 86.9574 68.824L88.7574 71.368C88.2614 71.8 87.7334 72.152 87.1734 72.424C86.6134 72.696 86.0374 72.896 85.4454 73.024C84.8694 73.168 84.2934 73.24 83.7174 73.24ZM91.7319 73V55.24H95.5719V73H91.7319Z" fill="#191923"/>
</svg>
