<svg width="128" height="128" viewBox="0 0 128 128" fill="none" xmlns="http://www.w3.org/2000/svg">
<path d="M52 19H76H96C103.18 19 109 24.8203 109 32V35.2V54.4V96C109 103.18 103.18 109 96 109H76H64H52H32C24.8203 109 19 103.18 19 96V54.4V32C19 24.8203 24.8203 19 32 19H52Z" stroke="#2E2836" stroke-width="6"/>
<path d="M33.1003 73V56.2H40.3483C41.4043 56.2 42.3403 56.44 43.1563 56.92C43.9883 57.4 44.6443 58.056 45.1243 58.888C45.6203 59.72 45.8683 60.656 45.8683 61.696C45.8683 62.784 45.6203 63.76 45.1243 64.624C44.6443 65.472 43.9883 66.144 43.1563 66.64C42.3403 67.136 41.4043 67.384 40.3483 67.384H37.1803V73H33.1003ZM37.1083 63.808H39.7723C40.1243 63.808 40.4443 63.72 40.7323 63.544C41.0203 63.368 41.2523 63.128 41.4283 62.824C41.6043 62.52 41.6923 62.168 41.6923 61.768C41.6923 61.352 41.6043 61 41.4283 60.712C41.2523 60.424 41.0203 60.2 40.7323 60.04C40.4443 59.88 40.1243 59.8 39.7723 59.8H37.1083V63.808ZM56.6229 73.24C55.3589 73.24 54.1909 73.032 53.1189 72.616C52.0629 72.184 51.1429 71.584 50.3589 70.816C49.5749 70.032 48.9669 69.112 48.5349 68.056C48.1189 66.984 47.9109 65.808 47.9109 64.528C47.9109 63.28 48.1349 62.128 48.5829 61.072C49.0309 60.016 49.6469 59.104 50.4309 58.336C51.2309 57.552 52.1669 56.944 53.2389 56.512C54.3269 56.08 55.5109 55.864 56.7909 55.864C57.5909 55.864 58.3749 55.968 59.1429 56.176C59.9109 56.384 60.6229 56.696 61.2789 57.112C61.9509 57.512 62.5269 57.992 63.0069 58.552L60.5109 61.408C60.1749 61.056 59.8149 60.752 59.4309 60.496C59.0629 60.224 58.6549 60.016 58.2069 59.872C57.7589 59.728 57.2789 59.656 56.7669 59.656C56.1269 59.656 55.5189 59.776 54.9429 60.016C54.3829 60.24 53.8869 60.568 53.4549 61C53.0389 61.416 52.7109 61.928 52.4709 62.536C52.2309 63.144 52.1109 63.824 52.1109 64.576C52.1109 65.312 52.2309 65.984 52.4709 66.592C52.7109 67.184 53.0469 67.696 53.4789 68.128C53.9109 68.56 54.4309 68.888 55.0389 69.112C55.6629 69.336 56.3509 69.448 57.1029 69.448C57.6149 69.448 58.1029 69.376 58.5669 69.232C59.0309 69.088 59.4549 68.896 59.8389 68.656C60.2389 68.4 60.5909 68.112 60.8949 67.792L62.8629 70.912C62.4629 71.36 61.9269 71.76 61.2549 72.112C60.5989 72.464 59.8629 72.744 59.0469 72.952C58.2469 73.144 57.4389 73.24 56.6229 73.24ZM68.631 68.08L67.575 64.648L75.903 56.2H80.727L68.631 68.08ZM65.655 73V56.2H69.735V73H65.655ZM76.431 73L70.191 64.792L72.951 62.416L81.183 73H76.431ZM87.0452 73V59.8H82.0532V56.2H96.2372V59.8H91.1252V73H87.0452Z" fill="#191923"/>
</svg>
