<svg width="128" height="128" viewBox="0 0 128 128" fill="none" xmlns="http://www.w3.org/2000/svg">
<path d="M52 19H76H96C103.18 19 109 24.8203 109 32V35.2V54.4V96C109 103.18 103.18 109 96 109H76H64H52H32C24.8203 109 19 103.18 19 96V54.4V32C19 24.8203 24.8203 19 32 19H52Z" stroke="#2E2836" stroke-width="6"/>
<path d="M31.9514 72V58H37.9914C38.8714 58 39.6514 58.2 40.3314 58.6C41.0247 59 41.5714 59.5467 41.9714 60.24C42.3847 60.9333 42.5914 61.7133 42.5914 62.58C42.5914 63.4867 42.3847 64.3 41.9714 65.02C41.5714 65.7267 41.0247 66.2867 40.3314 66.7C39.6514 67.1133 38.8714 67.32 37.9914 67.32H35.3514V72H31.9514ZM35.2914 64.34H37.5114C37.8047 64.34 38.0714 64.2667 38.3114 64.12C38.5514 63.9733 38.7447 63.7733 38.8914 63.52C39.0381 63.2667 39.1114 62.9733 39.1114 62.64C39.1114 62.2933 39.0381 62 38.8914 61.76C38.7447 61.52 38.5514 61.3333 38.3114 61.2C38.0714 61.0667 37.8047 61 37.5114 61H35.2914V64.34ZM45.1936 72V58H51.4936C52.3869 58 53.1936 58.1933 53.9136 58.58C54.6469 58.9667 55.2203 59.5 55.6336 60.18C56.0469 60.8467 56.2536 61.6067 56.2536 62.46C56.2536 63.34 56.0469 64.1333 55.6336 64.84C55.2203 65.5333 54.6536 66.08 53.9336 66.48C53.2136 66.88 52.4003 67.08 51.4936 67.08H48.4336V72H45.1936ZM52.9536 72L49.3936 65.68L52.8736 65.18L56.8336 72H52.9536ZM48.4336 64.48H51.1936C51.5403 64.48 51.8403 64.4067 52.0936 64.26C52.3603 64.1 52.5603 63.88 52.6936 63.6C52.8403 63.32 52.9136 63 52.9136 62.64C52.9136 62.28 52.8336 61.9667 52.6736 61.7C52.5136 61.42 52.2803 61.2067 51.9736 61.06C51.6803 60.9133 51.3203 60.84 50.8936 60.84H48.4336V64.48ZM58.9566 72V69.14H61.3166V60.86H58.9566V58H67.0966V60.86H64.7166V69.14H67.0966V72H58.9566ZM70.3303 72V58H73.3703L80.7103 68L80.0503 67.9C79.9836 67.46 79.9303 67.04 79.8903 66.64C79.8503 66.24 79.8103 65.8467 79.7703 65.46C79.7436 65.0733 79.717 64.68 79.6903 64.28C79.677 63.88 79.6636 63.4467 79.6503 62.98C79.6503 62.5133 79.6503 62.0067 79.6503 61.46V58H82.9503V72H79.8703L72.2103 61.68L73.2303 61.82C73.297 62.46 73.3503 63.0067 73.3903 63.46C73.4436 63.9 73.4836 64.2933 73.5103 64.64C73.5503 64.9867 73.577 65.3 73.5903 65.58C73.6036 65.86 73.6103 66.14 73.6103 66.42C73.6236 66.6867 73.6303 66.9867 73.6303 67.32V72H70.3303ZM89.5031 72V61H85.3431V58H97.1631V61H92.9031V72H89.5031Z" fill="#191923"/>
</svg>
