<svg width="128" height="128" viewBox="0 0 128 128" fill="none" xmlns="http://www.w3.org/2000/svg">
<path d="M52 19H76H96C103.18 19 109 24.8203 109 32V35.2V54.4V96C109 103.18 103.18 109 96 109H76H64H52H32C24.8203 109 19 103.18 19 96V54.4V32C19 24.8203 24.8203 19 32 19H52Z" stroke="#2E2836" stroke-width="6"/>
<path d="M44.0369 76.32C42.5649 76.32 41.2315 76.1493 40.0369 75.808C38.8635 75.4453 37.8182 74.9333 36.9009 74.272C35.9835 73.5893 35.1622 72.7893 34.4369 71.872L37.7329 68.128C38.7995 69.5573 39.8662 70.5173 40.9329 71.008C42.0209 71.4987 43.1409 71.744 44.2929 71.744C44.8689 71.744 45.3915 71.6693 45.8609 71.52C46.3302 71.3707 46.6929 71.1573 46.9489 70.88C47.2049 70.5813 47.3329 70.2187 47.3329 69.792C47.3329 69.472 47.2475 69.184 47.0769 68.928C46.9275 68.672 46.7142 68.448 46.4369 68.256C46.1595 68.064 45.8289 67.8933 45.4449 67.744C45.0609 67.5733 44.6555 67.4347 44.2289 67.328C43.8022 67.2 43.3649 67.0933 42.9169 67.008C41.6795 66.7307 40.6022 66.3893 39.6849 65.984C38.7675 65.5787 37.9995 65.088 37.3809 64.512C36.7835 63.9147 36.3355 63.2427 36.0369 62.496C35.7382 61.728 35.5889 60.8747 35.5889 59.936C35.5889 58.9333 35.8129 58.016 36.2609 57.184C36.7302 56.3307 37.3489 55.6053 38.1169 55.008C38.9062 54.3893 39.8129 53.92 40.8369 53.6C41.8609 53.2587 42.9275 53.088 44.0369 53.088C45.5089 53.088 46.7675 53.248 47.8129 53.568C48.8795 53.8667 49.7862 54.304 50.5329 54.88C51.3009 55.456 51.9515 56.1493 52.4849 56.96L49.1249 60.192C48.6769 59.6373 48.1862 59.1787 47.6529 58.816C47.1409 58.4533 46.5862 58.176 45.9889 57.984C45.4129 57.792 44.8155 57.696 44.1969 57.696C43.5569 57.696 43.0022 57.7813 42.5329 57.952C42.0849 58.1013 41.7329 58.3253 41.4769 58.624C41.2209 58.9013 41.0929 59.2427 41.0929 59.648C41.0929 60.0107 41.1995 60.32 41.4129 60.576C41.6262 60.832 41.9142 61.0667 42.2769 61.28C42.6395 61.472 43.0555 61.6427 43.5249 61.792C43.9942 61.92 44.4849 62.0267 44.9969 62.112C46.1702 62.3467 47.2262 62.656 48.1649 63.04C49.1249 63.424 49.9462 63.8933 50.6289 64.448C51.3329 65.0027 51.8662 65.664 52.2289 66.432C52.6129 67.1787 52.8049 68.0533 52.8049 69.056C52.8049 70.6133 52.4209 71.936 51.6529 73.024C50.9062 74.0907 49.8715 74.912 48.5489 75.488C47.2475 76.0427 45.7435 76.32 44.0369 76.32ZM56.8941 76V53.6H72.5101V58.24H62.1741V71.36H72.8301V76H56.8941ZM59.4541 66.816V62.4H71.0701V66.816H59.4541ZM77.5191 76V53.6H82.9591V71.2H92.9431V76H77.5191Z" fill="#191923"/>
</svg>
