<svg width="128" height="128" viewBox="0 0 128 128" fill="none" xmlns="http://www.w3.org/2000/svg">
<path d="M52 19H76H96C103.18 19 109 24.8203 109 32V35.2V54.4V96C109 103.18 103.18 109 96 109H76H64H52H32C24.8203 109 19 103.18 19 96V54.4V32C19 24.8203 24.8203 19 32 19H52Z" stroke="#2E2836" stroke-width="6"/>
<path d="M27.2955 73V70.288L36.3195 58.288L37.7355 59.944H27.9195V56.2H40.5915V58.888L31.6155 70.912L30.1755 69.424H40.8555V73H27.2955ZM51.8891 73.24C50.6091 73.24 49.4411 73.024 48.3851 72.592C47.3291 72.16 46.4091 71.552 45.6251 70.768C44.8411 69.984 44.2331 69.064 43.8011 68.008C43.3691 66.952 43.1531 65.792 43.1531 64.528C43.1531 63.264 43.3691 62.104 43.8011 61.048C44.2331 59.992 44.8411 59.072 45.6251 58.288C46.4091 57.504 47.3291 56.896 48.3851 56.464C49.4411 56.032 50.6011 55.816 51.8651 55.816C53.1291 55.816 54.2891 56.032 55.3451 56.464C56.4011 56.896 57.3211 57.504 58.1051 58.288C58.8891 59.072 59.4891 59.992 59.9051 61.048C60.3371 62.104 60.5531 63.264 60.5531 64.528C60.5531 65.776 60.3371 66.936 59.9051 68.008C59.4891 69.064 58.8891 69.984 58.1051 70.768C57.3211 71.552 56.4011 72.16 55.3451 72.592C54.2891 73.024 53.1371 73.24 51.8891 73.24ZM51.8651 69.4C52.5211 69.4 53.1211 69.28 53.6651 69.04C54.2251 68.8 54.7051 68.464 55.1051 68.032C55.5211 67.584 55.8411 67.064 56.0651 66.472C56.2891 65.88 56.4011 65.232 56.4011 64.528C56.4011 63.824 56.2891 63.176 56.0651 62.584C55.8411 61.992 55.5211 61.48 55.1051 61.048C54.7051 60.6 54.2251 60.256 53.6651 60.016C53.1211 59.776 52.5211 59.656 51.8651 59.656C51.2091 59.656 50.6011 59.776 50.0411 60.016C49.4971 60.256 49.0171 60.6 48.6011 61.048C48.1851 61.48 47.8651 61.992 47.6411 62.584C47.4331 63.176 47.3291 63.824 47.3291 64.528C47.3291 65.232 47.4331 65.888 47.6411 66.496C47.8651 67.088 48.1851 67.6 48.6011 68.032C49.0171 68.464 49.4971 68.8 50.0411 69.04C50.6011 69.28 51.2091 69.4 51.8651 69.4ZM71.3657 73.24C70.0857 73.24 68.9177 73.024 67.8617 72.592C66.8057 72.16 65.8857 71.552 65.1017 70.768C64.3177 69.984 63.7097 69.064 63.2777 68.008C62.8457 66.952 62.6297 65.792 62.6297 64.528C62.6297 63.264 62.8457 62.104 63.2777 61.048C63.7097 59.992 64.3177 59.072 65.1017 58.288C65.8857 57.504 66.8057 56.896 67.8617 56.464C68.9177 56.032 70.0777 55.816 71.3417 55.816C72.6057 55.816 73.7657 56.032 74.8217 56.464C75.8777 56.896 76.7977 57.504 77.5817 58.288C78.3657 59.072 78.9657 59.992 79.3817 61.048C79.8137 62.104 80.0297 63.264 80.0297 64.528C80.0297 65.776 79.8137 66.936 79.3817 68.008C78.9657 69.064 78.3657 69.984 77.5817 70.768C76.7977 71.552 75.8777 72.16 74.8217 72.592C73.7657 73.024 72.6137 73.24 71.3657 73.24ZM71.3417 69.4C71.9977 69.4 72.5977 69.28 73.1417 69.04C73.7017 68.8 74.1817 68.464 74.5817 68.032C74.9977 67.584 75.3177 67.064 75.5417 66.472C75.7657 65.88 75.8777 65.232 75.8777 64.528C75.8777 63.824 75.7657 63.176 75.5417 62.584C75.3177 61.992 74.9977 61.48 74.5817 61.048C74.1817 60.6 73.7017 60.256 73.1417 60.016C72.5977 59.776 71.9977 59.656 71.3417 59.656C70.6857 59.656 70.0777 59.776 69.5177 60.016C68.9737 60.256 68.4937 60.6 68.0777 61.048C67.6617 61.48 67.3417 61.992 67.1177 62.584C66.9097 63.176 66.8057 63.824 66.8057 64.528C66.8057 65.232 66.9097 65.888 67.1177 66.496C67.3417 67.088 67.6617 67.6 68.0777 68.032C68.4937 68.464 68.9737 68.8 69.5177 69.04C70.0777 69.28 70.6857 69.4 71.3417 69.4ZM83.1862 73V56.2H86.8342L92.9542 66.16L90.3382 66.136L96.5302 56.2H100.034V73H96.0742V67.768C96.0742 66.328 96.1062 65.032 96.1702 63.88C96.2502 62.728 96.3782 61.584 96.5542 60.448L97.0102 61.696L92.3542 68.92H90.7702L86.2102 61.744L86.6662 60.448C86.8422 61.52 86.9622 62.624 87.0262 63.76C87.1062 64.88 87.1462 66.216 87.1462 67.768V73H83.1862Z" fill="#191923"/>
</svg>
