<svg width="128" height="128" viewBox="0 0 128 128" fill="none" xmlns="http://www.w3.org/2000/svg">
<g clip-path="url(#clip0_117_119)">
<circle cx="64" cy="64" r="45" stroke="#2E2836" stroke-width="6"/>
<circle cx="64" cy="64" r="39" stroke="#2E2836" stroke-width="6"/>
<circle cx="63.9922" cy="64" r="45" stroke="#C8CED0" stroke-width="6"/>
<circle cx="63.9922" cy="64" r="39" fill="#191923" stroke="#C8CED0" stroke-width="6"/>
<circle cx="63.9922" cy="64" r="41.5" stroke="#2E2836" stroke-width="3"/>
<path d="M51.076 78.6357V50.6357H67.436C69.0894 50.6357 70.596 51.0224 71.956 51.7957C73.3427 52.5424 74.4494 53.5691 75.276 54.8757C76.1027 56.1824 76.516 57.6357 76.516 59.2357C76.516 60.9157 76.0627 62.4491 75.156 63.8357C74.2494 65.1957 73.0494 66.2891 71.556 67.1157C70.0627 67.9157 68.4227 68.3157 66.636 68.3157H55.396V78.6357H51.076ZM72.756 78.6357L63.236 65.9957L67.836 64.9957L78.156 78.6757L72.756 78.6357ZM55.396 64.1557H66.236C67.2494 64.1557 68.1827 63.9291 69.036 63.4757C69.916 63.0224 70.6094 62.4224 71.116 61.6757C71.6494 60.9291 71.916 60.1157 71.916 59.2357C71.916 58.4091 71.6494 57.6624 71.116 56.9957C70.6094 56.3291 69.916 55.7957 69.036 55.3957C68.1827 54.9957 67.2494 54.7957 66.236 54.7957H55.396V64.1557Z" fill="#FBFEF9"/>
<path d="M127.383 62.971C127.763 63.6044 127.763 64.3956 127.383 65.029L119.715 77.8084C118.671 79.5477 116 78.8078 116 76.7794V51.2206C116 49.1922 118.671 48.4523 119.715 50.1916L127.383 62.971Z" fill="#191923"/>
<path d="M62.971 0.617396C63.6044 0.237377 64.3956 0.237376 65.029 0.617395L77.8084 8.28501C79.5477 9.32864 78.8078 12 76.7794 12L51.2206 12C49.1922 12 48.4523 9.32864 50.1916 8.28501L62.971 0.617396Z" fill="#191923"/>
</g>
<defs>
<clipPath id="clip0_117_119">
<rect width="128" height="128" fill="white"/>
</clipPath>
</defs>
</svg>
