<svg width="128" height="128" viewBox="0 0 128 128" fill="none" xmlns="http://www.w3.org/2000/svg">
<g clip-path="url(#clip0_122_3152)">
<circle cx="64" cy="24" r="21" stroke="#FFC729" stroke-width="6"/>
<circle cx="104" cy="64" r="21" stroke="#F64A59" stroke-width="6"/>
<circle cx="64" cy="104" r="22" fill="#32936F" stroke="#FBFEF9" stroke-width="4"/>
<circle cx="24" cy="64" r="21" stroke="#4EA8F3" stroke-width="6"/>
<path d="M53.3389 113L61.7869 96.2H66.2509L74.6509 113H69.4189L64.9309 104.216C64.7389 103.832 64.5629 103.48 64.4029 103.16C64.2589 102.824 64.1309 102.504 64.0189 102.2C63.9069 101.896 63.8029 101.608 63.7069 101.336C63.6109 101.048 63.5229 100.768 63.4429 100.496H64.4749C64.3949 100.784 64.2989 101.08 64.1869 101.384C64.0909 101.672 63.9789 101.968 63.8509 102.272C63.7229 102.576 63.5789 102.888 63.4189 103.208C63.2749 103.528 63.1149 103.864 62.9389 104.216L58.4749 113H53.3389ZM57.3949 110.744L58.9789 107.216H69.1069L69.7789 110.744H57.3949Z" fill="#FBFEF9"/>
<path d="M96.1063 73V56.2H105.562C107.018 56.2 108.234 56.368 109.21 56.704C110.202 57.024 110.946 57.496 111.442 58.12C111.954 58.744 112.21 59.488 112.21 60.352C112.21 61.28 111.922 62.072 111.346 62.728C110.786 63.368 109.938 63.824 108.802 64.096L108.946 63.64C109.65 63.8 110.322 64.056 110.962 64.408C111.602 64.76 112.114 65.232 112.498 65.824C112.898 66.4 113.098 67.112 113.098 67.96C113.098 68.968 112.89 69.8 112.474 70.456C112.058 71.112 111.506 71.624 110.818 71.992C110.13 72.36 109.378 72.624 108.562 72.784C107.762 72.928 106.97 73 106.186 73H96.1063ZM99.5623 69.88H106.282C106.906 69.88 107.458 69.808 107.938 69.664C108.434 69.52 108.818 69.296 109.09 68.992C109.378 68.672 109.522 68.28 109.522 67.816C109.522 67.272 109.338 66.856 108.97 66.568C108.618 66.264 108.178 66.056 107.65 65.944C107.138 65.816 106.642 65.752 106.162 65.752H99.5623V69.88ZM99.5623 62.872H105.754C106.282 62.872 106.762 62.8 107.194 62.656C107.642 62.512 107.986 62.304 108.226 62.032C108.482 61.76 108.61 61.432 108.61 61.048C108.61 60.408 108.314 59.96 107.722 59.704C107.146 59.448 106.426 59.32 105.562 59.32H99.5623V62.872Z" fill="#F64A59"/>
<path d="M62.4338 33V25.488L62.9138 27.336L53.8898 16.2H58.5218L65.0738 24.672H63.4898L69.8738 16.2H74.1218L65.9378 26.688L66.0578 25.296V33H62.4338Z" fill="#FFC729"/>
<path d="M29.2247 73L22.5527 65.416L14.2247 56.2H18.8807L25.2887 63.472L33.9047 73H29.2247ZM14.1047 73L22.0967 63.856L24.6887 65.752L18.6167 73H14.1047ZM25.8647 65.2L23.3207 63.376L29.1047 56.2H33.6407L25.8647 65.2Z" fill="#4EA8F3"/>
</g>
<defs>
<clipPath id="clip0_122_3152">
<rect width="128" height="128" fill="white"/>
</clipPath>
</defs>
</svg>
