<svg width="128" height="128" viewBox="0 0 128 128" fill="none" xmlns="http://www.w3.org/2000/svg">
<g clip-path="url(#clip0_122_3151)">
<circle cx="64" cy="24" r="21" stroke="#FFC729" stroke-width="6"/>
<circle cx="24" cy="64" r="21" stroke="#4EA8F3" stroke-width="6"/>
<circle cx="104" cy="64" r="21" fill="#191923" stroke="#C8CED0" stroke-width="6"/>
<circle cx="64" cy="104" r="21" fill="#191923" stroke="#C8CED0" stroke-width="6"/>
<path d="M53.7481 113L62.1001 96.2H65.9401L74.2441 113H70.0201L65.0521 103.04C64.8761 102.688 64.7161 102.36 64.5721 102.056C64.4281 101.736 64.2921 101.432 64.1641 101.144C64.0361 100.84 63.9161 100.544 63.8041 100.256C63.7081 99.952 63.6041 99.64 63.4921 99.32L64.4281 99.296C64.3161 99.632 64.1961 99.96 64.0681 100.28C63.9561 100.584 63.8281 100.888 63.6841 101.192C63.5561 101.496 63.4201 101.808 63.2761 102.128C63.1321 102.432 62.9801 102.744 62.8201 103.064L57.8761 113H53.7481ZM57.6121 110.024L58.9561 106.952H69.0121L69.5641 110.024H57.6121Z" fill="#43A382"/>
<circle cx="64" cy="104" r="21" fill="#43A382" stroke="#191923" stroke-width="6"/>
<circle cx="64" cy="104" r="22" fill="#32936F" stroke="#FBFEF9" stroke-width="4"/>
<path d="M53.3389 113L61.7869 96.2H66.2509L74.6509 113H69.4189L64.9309 104.216C64.7389 103.832 64.5629 103.48 64.4029 103.16C64.2589 102.824 64.1309 102.504 64.0189 102.2C63.9069 101.896 63.8029 101.608 63.7069 101.336C63.6109 101.048 63.5229 100.768 63.4429 100.496H64.4749C64.3949 100.784 64.2989 101.08 64.1869 101.384C64.0909 101.672 63.9789 101.968 63.8509 102.272C63.7229 102.576 63.5789 102.888 63.4189 103.208C63.2749 103.528 63.1149 103.864 62.9389 104.216L58.4749 113H53.3389ZM57.3949 110.744L58.9789 107.216H69.1069L69.7789 110.744H57.3949Z" fill="#FBFEF9"/>
<path d="M95.9522 73V56.2H105.528C107 56.2 108.24 56.368 109.248 56.704C110.272 57.04 111.04 57.512 111.552 58.12C112.064 58.728 112.32 59.464 112.32 60.328C112.32 61.256 112.04 62.056 111.48 62.728C110.92 63.384 110.072 63.84 108.936 64.096L109.056 63.664C109.776 63.824 110.448 64.08 111.072 64.432C111.712 64.768 112.224 65.224 112.608 65.8C113.008 66.376 113.208 67.08 113.208 67.912C113.208 68.936 112.992 69.776 112.56 70.432C112.128 71.088 111.56 71.608 110.856 71.992C110.152 72.36 109.384 72.624 108.552 72.784C107.736 72.928 106.936 73 106.152 73H95.9522ZM99.7922 69.592H106.248C106.808 69.592 107.304 69.528 107.736 69.4C108.184 69.272 108.536 69.072 108.792 68.8C109.064 68.512 109.2 68.152 109.2 67.72C109.2 67.224 109.032 66.848 108.696 66.592C108.36 66.32 107.952 66.136 107.472 66.04C106.992 65.928 106.544 65.872 106.128 65.872H99.7922V69.592ZM99.7922 62.8H105.576C106.104 62.8 106.568 62.736 106.968 62.608C107.384 62.48 107.704 62.296 107.928 62.056C108.168 61.816 108.288 61.512 108.288 61.144C108.288 60.584 108.008 60.192 107.448 59.968C106.904 59.728 106.232 59.608 105.432 59.608H99.7922V62.8Z" fill="#F64A59"/>
<circle cx="24" cy="24" r="22" transform="matrix(4.37114e-08 -1 -1 -4.37114e-08 128 88)" fill="#FC3340" stroke="#FBFEF9" stroke-width="4"/>
<path d="M95.5844 73V56.2H105.472C107.008 56.2 108.304 56.368 109.36 56.704C110.416 57.04 111.216 57.512 111.76 58.12C112.304 58.728 112.576 59.44 112.576 60.256C112.576 61.232 112.304 62.056 111.76 62.728C111.216 63.384 110.384 63.84 109.264 64.096L109.36 63.664C110.064 63.824 110.728 64.08 111.352 64.432C111.976 64.768 112.48 65.216 112.864 65.776C113.264 66.32 113.464 67 113.464 67.816C113.464 68.872 113.232 69.736 112.768 70.408C112.304 71.08 111.696 71.608 110.944 71.992C110.208 72.36 109.408 72.624 108.544 72.784C107.696 72.928 106.88 73 106.096 73H95.5844ZM100.384 68.92H106.192C106.608 68.92 106.984 68.872 107.32 68.776C107.656 68.68 107.92 68.528 108.112 68.32C108.32 68.112 108.424 67.84 108.424 67.504C108.424 67.104 108.288 66.808 108.016 66.616C107.744 66.424 107.424 66.296 107.056 66.232C106.688 66.152 106.36 66.112 106.072 66.112H100.384V68.92ZM100.384 62.632H105.208C105.688 62.632 106.096 62.592 106.432 62.512C106.784 62.416 107.048 62.28 107.224 62.104C107.416 61.928 107.512 61.696 107.512 61.408C107.512 60.992 107.288 60.704 106.84 60.544C106.392 60.368 105.832 60.28 105.16 60.28H100.384V62.632Z" fill="#FBFEF9"/>
<path d="M62.4338 33V25.488L62.9138 27.336L53.8898 16.2H58.5218L65.0738 24.672H63.4898L69.8738 16.2H74.1218L65.9378 26.688L66.0578 25.296V33H62.4338Z" fill="#FFC729"/>
<path d="M29.2247 73L22.5527 65.416L14.2247 56.2H18.8807L25.2887 63.472L33.9047 73H29.2247ZM14.1047 73L22.0967 63.856L24.6887 65.752L18.6167 73H14.1047ZM25.8647 65.2L23.3207 63.376L29.1047 56.2H33.6407L25.8647 65.2Z" fill="#4EA8F3"/>
</g>
<defs>
<clipPath id="clip0_122_3151">
<rect width="128" height="128" fill="white"/>
</clipPath>
</defs>
</svg>
