<svg width="128" height="128" viewBox="0 0 128 128" fill="none" xmlns="http://www.w3.org/2000/svg">
<g clip-path="url(#clip0_122_3155)">
<circle cx="24" cy="24" r="21" transform="matrix(1 -8.74228e-08 -8.74228e-08 -1 40 128)" stroke="#43A382" stroke-width="6"/>
<circle cx="24" cy="24" r="21" transform="matrix(1 -8.74228e-08 -8.74228e-08 -1 0 88)" stroke="#4EA8F3" stroke-width="6"/>
<circle cx="24" cy="24" r="21" transform="matrix(1 -8.74228e-08 -8.74228e-08 -1 80 88)" fill="#191923" stroke="#C8CED0" stroke-width="6"/>
<circle cx="24" cy="24" r="21" transform="matrix(1 -8.74228e-08 -8.74228e-08 -1 40 48)" fill="#191923" stroke="#C8CED0" stroke-width="6"/>
<path d="M53.9406 113L62.2206 96.2H65.8206L74.0766 113H70.2846L65.1006 102.512C64.9406 102.176 64.7806 101.856 64.6206 101.552C64.4766 101.248 64.3406 100.952 64.2126 100.664C64.0846 100.36 63.9646 100.056 63.8526 99.752C63.7406 99.448 63.6286 99.128 63.5166 98.792L64.3806 98.768C64.2686 99.12 64.1486 99.456 64.0206 99.776C63.8926 100.096 63.7566 100.408 63.6126 100.712C63.4846 101.016 63.3486 101.32 63.2046 101.624C63.0606 101.928 62.9086 102.248 62.7486 102.584L57.5886 113H53.9406ZM57.6846 109.712L58.9326 106.808H68.9646L69.4686 109.712H57.6846Z" fill="#43A382"/>
<path d="M95.9522 73V56.2H105.528C107 56.2 108.24 56.368 109.248 56.704C110.272 57.04 111.04 57.512 111.552 58.12C112.064 58.728 112.32 59.464 112.32 60.328C112.32 61.256 112.04 62.056 111.48 62.728C110.92 63.384 110.072 63.84 108.936 64.096L109.056 63.664C109.776 63.824 110.448 64.08 111.072 64.432C111.712 64.768 112.224 65.224 112.608 65.8C113.008 66.376 113.208 67.08 113.208 67.912C113.208 68.936 112.992 69.776 112.56 70.432C112.128 71.088 111.56 71.608 110.856 71.992C110.152 72.36 109.384 72.624 108.552 72.784C107.736 72.928 106.936 73 106.152 73H95.9522ZM99.7922 69.592H106.248C106.808 69.592 107.304 69.528 107.736 69.4C108.184 69.272 108.536 69.072 108.792 68.8C109.064 68.512 109.2 68.152 109.2 67.72C109.2 67.224 109.032 66.848 108.696 66.592C108.36 66.32 107.952 66.136 107.472 66.04C106.992 65.928 106.544 65.872 106.128 65.872H99.7922V69.592ZM99.7922 62.8H105.576C106.104 62.8 106.568 62.736 106.968 62.608C107.384 62.48 107.704 62.296 107.928 62.056C108.168 61.816 108.288 61.512 108.288 61.144C108.288 60.584 108.008 60.192 107.448 59.968C106.904 59.728 106.232 59.608 105.432 59.608H99.7922V62.8Z" fill="#F64A59"/>
<circle cx="24" cy="24" r="22" transform="matrix(4.37114e-08 -1 -1 -4.37114e-08 128 88)" fill="#FC3340" stroke="#FBFEF9" stroke-width="4"/>
<path d="M95.5844 73V56.2H105.472C107.008 56.2 108.304 56.368 109.36 56.704C110.416 57.04 111.216 57.512 111.76 58.12C112.304 58.728 112.576 59.44 112.576 60.256C112.576 61.232 112.304 62.056 111.76 62.728C111.216 63.384 110.384 63.84 109.264 64.096L109.36 63.664C110.064 63.824 110.728 64.08 111.352 64.432C111.976 64.768 112.48 65.216 112.864 65.776C113.264 66.32 113.464 67 113.464 67.816C113.464 68.872 113.232 69.736 112.768 70.408C112.304 71.08 111.696 71.608 110.944 71.992C110.208 72.36 109.408 72.624 108.544 72.784C107.696 72.928 106.88 73 106.096 73H95.5844ZM100.384 68.92H106.192C106.608 68.92 106.984 68.872 107.32 68.776C107.656 68.68 107.92 68.528 108.112 68.32C108.32 68.112 108.424 67.84 108.424 67.504C108.424 67.104 108.288 66.808 108.016 66.616C107.744 66.424 107.424 66.296 107.056 66.232C106.688 66.152 106.36 66.112 106.072 66.112H100.384V68.92ZM100.384 62.632H105.208C105.688 62.632 106.096 62.592 106.432 62.512C106.784 62.416 107.048 62.28 107.224 62.104C107.416 61.928 107.512 61.696 107.512 61.408C107.512 60.992 107.288 60.704 106.84 60.544C106.392 60.368 105.832 60.28 105.16 60.28H100.384V62.632Z" fill="#FBFEF9"/>
<path d="M62.1849 33V25.488L62.6649 27.336L53.6409 16.2H58.7529L65.3049 24.672H63.2409L69.6249 16.2H74.3529L66.1689 26.688L66.2889 25.296V33H62.1849Z" fill="#FFC729"/>
<circle cx="64" cy="24" r="21" fill="#FFC729" stroke="#191923" stroke-width="6"/>
<circle cx="64" cy="24" r="22" fill="#FFBE0B" stroke="#FBFEF9" stroke-width="4"/>
<path d="M61.6268 33V25.488L62.1068 27.336L53.0828 16.2H59.3228L65.8748 24.672H62.6828L69.0668 16.2H74.9228L66.7388 26.688L66.8588 25.296V33H61.6268Z" fill="#191923"/>
<circle cx="24" cy="64" r="22" transform="rotate(-90 24 64)" fill="#3599F1" stroke="#FBFEF9" stroke-width="4"/>
<path d="M28.3189 73L21.6469 65.416L13.3189 56.2H19.7749L26.1829 63.472L34.7989 73H28.3189ZM13.1989 73L21.1909 63.856L25.5829 65.752L19.5109 73H13.1989ZM26.7589 65.2L22.4149 63.376L28.1989 56.2H34.5349L26.7589 65.2Z" fill="#FBFEF9"/>
</g>
<defs>
<clipPath id="clip0_122_3155">
<rect width="128" height="128" fill="white"/>
</clipPath>
</defs>
</svg>
