<svg width="128" height="128" viewBox="0 0 128 128" fill="none" xmlns="http://www.w3.org/2000/svg">
<circle cx="64.0078" cy="64" r="45" fill="#191923" stroke="#C8CED0" stroke-width="6"/>
<path d="M41.6524 81.6357V48.0357H46.8364V76.6437H62.5804V81.6357H41.6524ZM77.7308 82.1157C75.3628 82.1157 73.2988 81.5717 71.5388 80.4837C69.8108 79.3957 68.1788 77.5717 66.6428 75.0117L70.6748 72.4677C71.4748 73.6517 72.2588 74.6277 73.0268 75.3957C73.8268 76.1317 74.6428 76.6757 75.4748 77.0277C76.3068 77.3797 77.1868 77.5557 78.1148 77.5557C79.2348 77.5557 80.2748 77.2837 81.2348 76.7397C82.1948 76.1637 82.9628 75.3797 83.5388 74.3877C84.1148 73.3957 84.4028 72.2757 84.4028 71.0277C84.4028 69.7797 84.1788 68.7237 83.7308 67.8597C83.2828 66.9637 82.6268 66.2917 81.7628 65.8437C80.8988 65.3637 79.8748 65.1237 78.6908 65.1237C78.1468 65.1237 77.5708 65.1877 76.9628 65.3157C76.3868 65.4117 75.7628 65.5717 75.0908 65.7957C74.4188 65.9877 73.6828 66.2437 72.8828 66.5637L71.4428 62.7717L81.8108 51.3477L82.8188 52.8357H68.5148V48.0357H87.7628L88.7228 49.9557L77.7308 62.1477L76.5308 60.8997C76.7868 60.7717 77.2028 60.6597 77.7788 60.5637C78.3868 60.4357 78.8828 60.3717 79.2668 60.3717C80.6748 60.3717 81.9868 60.6437 83.2028 61.1877C84.4508 61.6997 85.5228 62.4357 86.4188 63.3957C87.3468 64.3237 88.0668 65.4277 88.5788 66.7077C89.1228 67.9557 89.3948 69.2997 89.3948 70.7397C89.3948 72.9157 88.8668 74.8677 87.8108 76.5957C86.7868 78.2917 85.3948 79.6357 83.6348 80.6277C81.8748 81.6197 79.9068 82.1157 77.7308 82.1157Z" fill="#FBFEF9"/>
</svg>
