<svg width="128" height="128" viewBox="0 0 128 128" fill="none" xmlns="http://www.w3.org/2000/svg">
<g clip-path="url(#clip0_131_13879)">
<path d="M76.0078 48.5H108.008C108.836 48.5 109.508 49.1716 109.508 50V58V75C109.508 75.8284 108.836 76.5 108.008 76.5H98.0078C94.418 76.5 91.5078 79.4101 91.5078 83V88V102C91.5078 102.828 90.8362 103.5 90.0078 103.5H64.0078H38.0078C37.1794 103.5 36.5078 102.828 36.5078 102V88V83C36.5078 79.4101 33.5977 76.5 30.0078 76.5H20.0078C19.1794 76.5 18.5078 75.8284 18.5078 75V58V50C18.5078 49.1716 19.1794 48.5 20.0078 48.5H52.0078H76.0078Z" stroke="#C8CED0" stroke-width="5"/>
<path d="M47.5392 92V69.6H57.0752C58.3552 69.6 59.5285 69.92 60.5952 70.56C61.6832 71.1787 62.5472 72.032 63.1872 73.12C63.8272 74.1867 64.1472 75.392 64.1472 76.736C64.1472 77.952 63.8272 79.0827 63.1872 80.128C62.5472 81.1733 61.6939 82.016 60.6272 82.656C59.5605 83.2747 58.3765 83.584 57.0752 83.584H50.9952V92H47.5392ZM60.8512 92L55.1552 81.888L58.7072 81.088L65.0432 92.032L60.8512 92ZM50.9952 80.256H57.3952C58.0139 80.256 58.5685 80.1067 59.0592 79.808C59.5499 79.488 59.9339 79.0613 60.2112 78.528C60.4885 77.9733 60.6272 77.3653 60.6272 76.704C60.6272 75.9573 60.4459 75.3067 60.0832 74.752C59.7419 74.176 59.2512 73.728 58.6112 73.408C57.9925 73.088 57.2885 72.928 56.4992 72.928H50.9952V80.256ZM74.6852 92.32C73.1065 92.32 71.7305 91.9573 70.5572 91.232C69.4052 90.5067 68.3172 89.2907 67.2932 87.584L69.9812 85.888C70.5145 86.6773 71.0372 87.328 71.5492 87.84C72.0825 88.3307 72.6265 88.6933 73.1812 88.928C73.7359 89.1627 74.3225 89.28 74.9412 89.28C75.6879 89.28 76.3812 89.0987 77.0212 88.736C77.6612 88.352 78.1732 87.8293 78.5572 87.168C78.9412 86.5067 79.1332 85.76 79.1332 84.928C79.1332 84.096 78.9839 83.392 78.6852 82.816C78.3865 82.2187 77.9492 81.7707 77.3732 81.472C76.7972 81.152 76.1145 80.992 75.3252 80.992C74.9625 80.992 74.5785 81.0347 74.1732 81.12C73.7892 81.184 73.3732 81.2907 72.9252 81.44C72.4772 81.568 71.9865 81.7387 71.4532 81.952L70.4932 79.424L77.4052 71.808L78.0772 72.8H68.5412V69.6H81.3732L82.0132 70.88L74.6852 79.008L73.8852 78.176C74.0559 78.0907 74.3332 78.016 74.7172 77.952C75.1225 77.8667 75.4532 77.824 75.7092 77.824C76.6479 77.824 77.5225 78.0053 78.3332 78.368C79.1652 78.7093 79.8799 79.2 80.4772 79.84C81.0959 80.4587 81.5759 81.1947 81.9172 82.048C82.2799 82.88 82.4612 83.776 82.4612 84.736C82.4612 86.1867 82.1092 87.488 81.4052 88.64C80.7225 89.7707 79.7945 90.6667 78.6212 91.328C77.4479 91.9893 76.1359 92.32 74.6852 92.32Z" fill="#FBFEF9"/>
<path d="M64.949 39.498C64.3608 39.8118 63.6549 39.8118 63.0666 39.498L41.0666 27.7647C39.2295 26.7849 39.9257 24 42.0078 24L86.0078 24C88.0899 24 88.7861 26.7849 86.949 27.7647L64.949 39.498Z" fill="#FBFEF9"/>
</g>
<defs>
<clipPath id="clip0_131_13879">
<rect width="128" height="128" fill="white" transform="translate(0.0078125)"/>
</clipPath>
</defs>
</svg>
