<svg width="128" height="128" viewBox="0 0 128 128" fill="none" xmlns="http://www.w3.org/2000/svg">
<circle cx="64.0078" cy="64" r="45" fill="#191923" stroke="#C8CED0" stroke-width="6"/>
<path d="M39.3321 81.6357V48.0357H53.6361C55.5561 48.0357 57.3161 48.5157 58.9161 49.4757C60.5481 50.4037 61.8441 51.6837 62.8041 53.3157C63.7641 54.9157 64.2441 56.7237 64.2441 58.7397C64.2441 60.5637 63.7641 62.2597 62.8041 63.8277C61.8441 65.3957 60.5641 66.6597 58.9641 67.6197C57.3641 68.5477 55.5881 69.0117 53.6361 69.0117H44.5161V81.6357H39.3321ZM59.3001 81.6357L50.7561 66.4677L56.0841 65.2677L65.5881 81.6837L59.3001 81.6357ZM44.5161 64.0197H54.1161C55.0441 64.0197 55.8761 63.7957 56.6121 63.3477C57.3481 62.8677 57.9241 62.2277 58.3401 61.4277C58.7561 60.5957 58.9641 59.6837 58.9641 58.6917C58.9641 57.5717 58.6921 56.5957 58.1481 55.7637C57.6361 54.8997 56.9001 54.2277 55.9401 53.7477C55.0121 53.2677 53.9561 53.0277 52.7721 53.0277H44.5161V64.0197ZM80.0511 82.1157C77.6831 82.1157 75.6191 81.5717 73.8591 80.4837C72.1311 79.3957 70.4991 77.5717 68.9631 75.0117L72.9951 72.4677C73.7951 73.6517 74.5791 74.6277 75.3471 75.3957C76.1471 76.1317 76.9631 76.6757 77.7951 77.0277C78.6271 77.3797 79.5071 77.5557 80.4351 77.5557C81.5551 77.5557 82.5951 77.2837 83.5551 76.7397C84.5151 76.1637 85.2831 75.3797 85.8591 74.3877C86.4351 73.3957 86.7231 72.2757 86.7231 71.0277C86.7231 69.7797 86.4991 68.7237 86.0511 67.8597C85.6031 66.9637 84.9471 66.2917 84.0831 65.8437C83.2191 65.3637 82.1951 65.1237 81.0111 65.1237C80.4671 65.1237 79.8911 65.1877 79.2831 65.3157C78.7071 65.4117 78.0831 65.5717 77.4111 65.7957C76.7391 65.9877 76.0031 66.2437 75.2031 66.5637L73.7631 62.7717L84.1311 51.3477L85.1391 52.8357H70.8351V48.0357H90.0831L91.0431 49.9557L80.0511 62.1477L78.8511 60.8997C79.1071 60.7717 79.5231 60.6597 80.0991 60.5637C80.7071 60.4357 81.2031 60.3717 81.5871 60.3717C82.9951 60.3717 84.3071 60.6437 85.5231 61.1877C86.7711 61.6997 87.8431 62.4357 88.7391 63.3957C89.6671 64.3237 90.3871 65.4277 90.8991 66.7077C91.4431 67.9557 91.7151 69.2997 91.7151 70.7397C91.7151 72.9157 91.1871 74.8677 90.1311 76.5957C89.1071 78.2917 87.7151 79.6357 85.9551 80.6277C84.1951 81.6197 82.2271 82.1157 80.0511 82.1157Z" fill="#FBFEF9"/>
</svg>
