<svg width="128" height="128" viewBox="0 0 128 128" fill="none" xmlns="http://www.w3.org/2000/svg">
<path d="M35 90L35 70C35 53.9837 47.9837 41 64 41C80.0163 41 93 53.9837 93 70L93 90C93 106.016 80.0163 119 64 119C47.9837 119 35 106.016 35 90Z" stroke="#2E2836" stroke-width="6"/>
<path d="M22.931 27.2C21.8643 27.2 20.891 27.02 20.011 26.66C19.131 26.3 18.3643 25.7933 17.711 25.14C17.0577 24.4867 16.551 23.72 16.191 22.84C15.831 21.96 15.651 20.9933 15.651 19.94C15.651 18.8867 15.831 17.92 16.191 17.04C16.551 16.16 17.0577 15.3933 17.711 14.74C18.3643 14.0867 19.131 13.58 20.011 13.22C20.891 12.86 21.8577 12.68 22.911 12.68C23.9643 12.68 24.931 12.86 25.811 13.22C26.691 13.58 27.4577 14.0867 28.111 14.74C28.7643 15.3933 29.2643 16.16 29.611 17.04C29.971 17.92 30.151 18.8867 30.151 19.94C30.151 20.98 29.971 21.9467 29.611 22.84C29.2643 23.72 28.7643 24.4867 28.111 25.14C27.4577 25.7933 26.691 26.3 25.811 26.66C24.931 27.02 23.971 27.2 22.931 27.2ZM22.911 24C23.4577 24 23.9577 23.9 24.411 23.7C24.8777 23.5 25.2777 23.22 25.611 22.86C25.9577 22.4867 26.2243 22.0533 26.411 21.56C26.5977 21.0667 26.691 20.5267 26.691 19.94C26.691 19.3533 26.5977 18.8133 26.411 18.32C26.2243 17.8267 25.9577 17.4 25.611 17.04C25.2777 16.6667 24.8777 16.38 24.411 16.18C23.9577 15.98 23.4577 15.88 22.911 15.88C22.3643 15.88 21.8577 15.98 21.391 16.18C20.9377 16.38 20.5377 16.6667 20.191 17.04C19.8443 17.4 19.5777 17.8267 19.391 18.32C19.2177 18.8133 19.131 19.3533 19.131 19.94C19.131 20.5267 19.2177 21.0733 19.391 21.58C19.5777 22.0733 19.8443 22.5 20.191 22.86C20.5377 23.22 20.9377 23.5 21.391 23.7C21.8577 23.9 22.3643 24 22.911 24ZM32.7815 27V13H38.8215C39.7015 13 40.4815 13.2 41.1615 13.6C41.8548 14 42.4015 14.5467 42.8015 15.24C43.2148 15.9333 43.4215 16.7133 43.4215 17.58C43.4215 18.4867 43.2148 19.3 42.8015 20.02C42.4015 20.7267 41.8548 21.2867 41.1615 21.7C40.4815 22.1133 39.7015 22.32 38.8215 22.32H36.1815V27H32.7815ZM36.1215 19.34H38.3415C38.6348 19.34 38.9015 19.2667 39.1415 19.12C39.3815 18.9733 39.5748 18.7733 39.7215 18.52C39.8682 18.2667 39.9415 17.9733 39.9415 17.64C39.9415 17.2933 39.8682 17 39.7215 16.76C39.5748 16.52 39.3815 16.3333 39.1415 16.2C38.9015 16.0667 38.6348 16 38.3415 16H36.1215V19.34ZM49.0637 27V16H44.9037V13H56.7237V16H52.4637V27H49.0637ZM58.8491 27V24.14H61.2091V15.86H58.8491V13H66.9891V15.86H64.6091V24.14H66.9891V27H58.8491ZM76.3099 27.2C75.2433 27.2 74.2699 27.02 73.3899 26.66C72.5099 26.3 71.7433 25.7933 71.0899 25.14C70.4366 24.4867 69.9299 23.72 69.5699 22.84C69.2099 21.96 69.0299 20.9933 69.0299 19.94C69.0299 18.8867 69.2099 17.92 69.5699 17.04C69.9299 16.16 70.4366 15.3933 71.0899 14.74C71.7433 14.0867 72.5099 13.58 73.3899 13.22C74.2699 12.86 75.2366 12.68 76.2899 12.68C77.3433 12.68 78.3099 12.86 79.1899 13.22C80.0699 13.58 80.8366 14.0867 81.4899 14.74C82.1433 15.3933 82.6433 16.16 82.9899 17.04C83.3499 17.92 83.5299 18.8867 83.5299 19.94C83.5299 20.98 83.3499 21.9467 82.9899 22.84C82.6433 23.72 82.1433 24.4867 81.4899 25.14C80.8366 25.7933 80.0699 26.3 79.1899 26.66C78.3099 27.02 77.3499 27.2 76.3099 27.2ZM76.2899 24C76.8366 24 77.3366 23.9 77.7899 23.7C78.2566 23.5 78.6566 23.22 78.9899 22.86C79.3366 22.4867 79.6033 22.0533 79.7899 21.56C79.9766 21.0667 80.0699 20.5267 80.0699 19.94C80.0699 19.3533 79.9766 18.8133 79.7899 18.32C79.6033 17.8267 79.3366 17.4 78.9899 17.04C78.6566 16.6667 78.2566 16.38 77.7899 16.18C77.3366 15.98 76.8366 15.88 76.2899 15.88C75.7433 15.88 75.2366 15.98 74.7699 16.18C74.3166 16.38 73.9166 16.6667 73.5699 17.04C73.2233 17.4 72.9566 17.8267 72.7699 18.32C72.5966 18.8133 72.5099 19.3533 72.5099 19.94C72.5099 20.5267 72.5966 21.0733 72.7699 21.58C72.9566 22.0733 73.2233 22.5 73.5699 22.86C73.9166 23.22 74.3166 23.5 74.7699 23.7C75.2366 23.9 75.7433 24 76.2899 24ZM86.1604 27V13H89.2004L96.5404 23L95.8804 22.9C95.8137 22.46 95.7604 22.04 95.7204 21.64C95.6804 21.24 95.6404 20.8467 95.6004 20.46C95.5737 20.0733 95.5471 19.68 95.5204 19.28C95.5071 18.88 95.4937 18.4467 95.4804 17.98C95.4804 17.5133 95.4804 17.0067 95.4804 16.46V13H98.7804V27H95.7004L88.0404 16.68L89.0604 16.82C89.1271 17.46 89.1804 18.0067 89.2204 18.46C89.2737 18.9 89.3137 19.2933 89.3404 19.64C89.3804 19.9867 89.4071 20.3 89.4204 20.58C89.4337 20.86 89.4404 21.14 89.4404 21.42C89.4537 21.6867 89.4604 21.9867 89.4604 22.32V27H86.1604ZM106.933 27.2C106.013 27.2 105.18 27.0933 104.433 26.88C103.7 26.6533 103.047 26.3333 102.473 25.92C101.9 25.4933 101.387 24.9933 100.933 24.42L102.993 22.08C103.66 22.9733 104.327 23.5733 104.993 23.88C105.673 24.1867 106.373 24.34 107.093 24.34C107.453 24.34 107.78 24.2933 108.073 24.2C108.367 24.1067 108.593 23.9733 108.753 23.8C108.913 23.6133 108.993 23.3867 108.993 23.12C108.993 22.92 108.94 22.74 108.833 22.58C108.74 22.42 108.607 22.28 108.433 22.16C108.26 22.04 108.053 21.9333 107.813 21.84C107.573 21.7333 107.32 21.6467 107.053 21.58C106.787 21.5 106.513 21.4333 106.233 21.38C105.46 21.2067 104.787 20.9933 104.213 20.74C103.64 20.4867 103.16 20.18 102.773 19.82C102.4 19.4467 102.12 19.0267 101.933 18.56C101.747 18.08 101.653 17.5467 101.653 16.96C101.653 16.3333 101.793 15.76 102.073 15.24C102.367 14.7067 102.753 14.2533 103.233 13.88C103.727 13.4933 104.293 13.2 104.933 13C105.573 12.7867 106.24 12.68 106.933 12.68C107.853 12.68 108.64 12.78 109.293 12.98C109.96 13.1667 110.527 13.44 110.993 13.8C111.473 14.16 111.88 14.5933 112.213 15.1L110.113 17.12C109.833 16.7733 109.527 16.4867 109.193 16.26C108.873 16.0333 108.527 15.86 108.153 15.74C107.793 15.62 107.42 15.56 107.033 15.56C106.633 15.56 106.287 15.6133 105.993 15.72C105.713 15.8133 105.493 15.9533 105.333 16.14C105.173 16.3133 105.093 16.5267 105.093 16.78C105.093 17.0067 105.16 17.2 105.293 17.36C105.427 17.52 105.607 17.6667 105.833 17.8C106.06 17.92 106.32 18.0267 106.613 18.12C106.907 18.2 107.213 18.2667 107.533 18.32C108.267 18.4667 108.927 18.66 109.513 18.9C110.113 19.14 110.627 19.4333 111.053 19.78C111.493 20.1267 111.827 20.54 112.053 21.02C112.293 21.4867 112.413 22.0333 112.413 22.66C112.413 23.6333 112.173 24.46 111.693 25.14C111.227 25.8067 110.58 26.32 109.753 26.68C108.94 27.0267 108 27.2 106.933 27.2Z" fill="#191923"/>
</svg>
