<svg width="128" height="128" viewBox="0 0 128 128" fill="none" xmlns="http://www.w3.org/2000/svg">
<path d="M52 19H76H96C103.18 19 109 24.8203 109 32V35.2V54.4V96C109 103.18 103.18 109 96 109H76H64H52H32C24.8203 109 19 103.18 19 96V54.4V32C19 24.8203 24.8203 19 32 19H52Z" fill="#191923" stroke="#C8CED0" stroke-width="6"/>
<path d="M53.5 25H74.5H96C99.866 25 103 28.134 103 32V38.8V55.6V96C103 99.866 99.866 103 96 103H74.5H64H53.5H32C28.134 103 25 99.866 25 96V55.6V32C25 28.134 28.134 25 32 25H53.5Z" fill="#191923" stroke="#2E2836" stroke-width="6"/>
<path d="M63.9535 82.144C61.8095 82.144 59.8415 81.712 58.0495 80.848C56.2895 79.952 54.8815 78.768 53.8255 77.296C52.7695 75.792 52.2415 74.128 52.2415 72.304C52.2415 71.216 52.3855 70.208 52.6735 69.28C52.9935 68.352 53.4415 67.52 54.0175 66.784C54.6255 66.048 55.3455 65.392 56.1775 64.816C57.0415 64.208 58.0175 63.68 59.1055 63.232L58.7215 64.576C57.8895 64.224 57.1215 63.808 56.4175 63.328C55.7455 62.848 55.1535 62.304 54.6415 61.696C54.1615 61.056 53.7935 60.384 53.5375 59.68C53.2815 58.944 53.1535 58.176 53.1535 57.376C53.1535 55.648 53.6335 54.096 54.5935 52.72C55.5855 51.344 56.8975 50.256 58.5295 49.456C60.1615 48.624 61.9695 48.208 63.9535 48.208C65.9695 48.208 67.7935 48.624 69.4255 49.456C71.0575 50.256 72.3535 51.344 73.3135 52.72C74.3055 54.096 74.8015 55.648 74.8015 57.376C74.8015 58.176 74.6735 58.944 74.4175 59.68C74.1615 60.384 73.7935 61.04 73.3135 61.648C72.8655 62.224 72.2895 62.768 71.5855 63.28C70.8815 63.76 70.0655 64.192 69.1375 64.576L68.8975 63.424C69.9215 63.776 70.8495 64.24 71.6815 64.816C72.5135 65.392 73.2335 66.064 73.8415 66.832C74.4495 67.6 74.9135 68.448 75.2335 69.376C75.5855 70.304 75.7615 71.28 75.7615 72.304C75.7615 74.16 75.2335 75.84 74.1775 77.344C73.1215 78.816 71.6975 79.984 69.9055 80.848C68.1455 81.712 66.1615 82.144 63.9535 82.144ZM63.9535 76.768C65.0415 76.768 66.0175 76.56 66.8815 76.144C67.7455 75.728 68.4175 75.168 68.8975 74.464C69.4095 73.76 69.6655 72.944 69.6655 72.016C69.6655 71.024 69.4095 70.16 68.8975 69.424C68.4175 68.656 67.7455 68.064 66.8815 67.648C66.0175 67.2 65.0415 66.976 63.9535 66.976C62.8975 66.976 61.9375 67.2 61.0735 67.648C60.2415 68.064 59.5695 68.656 59.0575 69.424C58.5455 70.16 58.2895 71.024 58.2895 72.016C58.2895 72.912 58.5455 73.712 59.0575 74.416C59.5695 75.12 60.2415 75.696 61.0735 76.144C61.9375 76.56 62.8975 76.768 63.9535 76.768ZM63.9535 61.696C64.9135 61.696 65.7615 61.52 66.4975 61.168C67.2655 60.816 67.8575 60.336 68.2735 59.728C68.6895 59.12 68.8975 58.416 68.8975 57.616C68.8975 56.784 68.6895 56.064 68.2735 55.456C67.8575 54.816 67.2655 54.32 66.4975 53.968C65.7615 53.584 64.9135 53.392 63.9535 53.392C63.0255 53.392 62.1775 53.584 61.4095 53.968C60.6735 54.32 60.0975 54.816 59.6815 55.456C59.2655 56.064 59.0575 56.784 59.0575 57.616C59.0575 58.416 59.2655 59.12 59.6815 59.728C60.0975 60.336 60.6735 60.816 61.4095 61.168C62.1775 61.52 63.0255 61.696 63.9535 61.696Z" fill="#FBFEF9"/>
</svg>
