<svg width="128" height="128" viewBox="0 0 128 128" fill="none" xmlns="http://www.w3.org/2000/svg">
<path d="M52 19H76H96C103.18 19 109 24.8203 109 32V35.2V54.4V96C109 103.18 103.18 109 96 109H76H64H52H32C24.8203 109 19 103.18 19 96V54.4V32C19 24.8203 24.8203 19 32 19H52Z" fill="#191923" stroke="#C8CED0" stroke-width="6"/>
<path d="M53.5 25H74.5H96C99.866 25 103 28.134 103 32V38.8V55.6V96C103 99.866 99.866 103 96 103H74.5H64H53.5H32C28.134 103 25 99.866 25 96V55.6V32C25 28.134 28.134 25 32 25H53.5Z" fill="#191923" stroke="#2E2836" stroke-width="6"/>
<path d="M62.3181 82.48C61.1661 82.48 60.0621 82.336 59.0061 82.048C57.9821 81.76 57.0381 81.36 56.1741 80.848C55.3101 80.304 54.5421 79.664 53.8701 78.928C53.1981 78.192 52.6381 77.392 52.1901 76.528L55.9821 72.592C56.8141 73.68 57.5341 74.528 58.1421 75.136C58.7821 75.712 59.4061 76.112 60.0141 76.336C60.6541 76.56 61.3421 76.672 62.0781 76.672C63.1021 76.672 63.9981 76.448 64.7661 76C65.5661 75.52 66.1741 74.864 66.5901 74.032C67.0381 73.2 67.2621 72.24 67.2621 71.152V48.4H73.4061V71.776C73.4061 73.344 73.1341 74.784 72.5901 76.096C72.0781 77.376 71.3261 78.496 70.3341 79.456C69.3421 80.416 68.1741 81.168 66.8301 81.712C65.4861 82.224 63.9821 82.48 62.3181 82.48Z" fill="#FBFEF9"/>
</svg>
