<svg width="128" height="128" viewBox="0 0 128 128" fill="none" xmlns="http://www.w3.org/2000/svg">
<path d="M52 19H76H96C103.18 19 109 24.8203 109 32V35.2V54.4V96C109 103.18 103.18 109 96 109H76H64H52H32C24.8203 109 19 103.18 19 96V54.4V32C19 24.8203 24.8203 19 32 19H52Z" fill="#191923" stroke="#C8CED0" stroke-width="6"/>
<path d="M53.5 25H74.5H96C99.866 25 103 28.134 103 32V38.8V55.6V96C103 99.866 99.866 103 96 103H74.5H64H53.5H32C28.134 103 25 99.866 25 96V55.6V32C25 28.134 28.134 25 32 25H53.5Z" fill="#191923" stroke="#2E2836" stroke-width="6"/>
<path d="M53.0667 82V48.4H67.0347C68.9547 48.4 70.6827 48.864 72.2187 49.792C73.7867 50.72 75.0347 51.984 75.9627 53.584C76.8907 55.184 77.3547 56.976 77.3547 58.96C77.3547 60.976 76.8907 62.8 75.9627 64.432C75.0347 66.032 73.7867 67.312 72.2187 68.272C70.6827 69.232 68.9547 69.712 67.0347 69.712H59.3067V82H53.0667ZM59.3067 63.952H66.6027C67.4027 63.952 68.1227 63.728 68.7627 63.28C69.4347 62.832 69.9627 62.24 70.3467 61.504C70.7627 60.768 70.9707 59.936 70.9707 59.008C70.9707 58.08 70.7627 57.264 70.3467 56.56C69.9627 55.824 69.4347 55.248 68.7627 54.832C68.1227 54.384 67.4027 54.16 66.6027 54.16H59.3067V63.952Z" fill="#FBFEF9"/>
</svg>
