<svg width="128" height="128" viewBox="0 0 128 128" fill="none" xmlns="http://www.w3.org/2000/svg">
<path d="M52 19H76H96C103.18 19 109 24.8203 109 32V35.2V54.4V96C109 103.18 103.18 109 96 109H76H64H52H32C24.8203 109 19 103.18 19 96V54.4V32C19 24.8203 24.8203 19 32 19H52Z" fill="#191923" stroke="#C8CED0" stroke-width="6"/>
<path d="M53.5 25H74.5H96C99.866 25 103 28.134 103 32V38.8V55.6V96C103 99.866 99.866 103 96 103H74.5H64H53.5H32C28.134 103 25 99.866 25 96V55.6V32C25 28.134 28.134 25 32 25H53.5Z" fill="#191923" stroke="#2E2836" stroke-width="6"/>
<path d="M74.4408 87.28L61.6728 70.384L66.5208 67.072L79.1448 83.824L74.4408 87.28ZM63.9768 82.48C61.5768 82.48 59.3528 82.048 57.3047 81.184C55.2568 80.32 53.4648 79.12 51.9288 77.584C50.4248 76.016 49.2568 74.176 48.4248 72.064C47.5928 69.952 47.1768 67.648 47.1768 65.152C47.1768 62.656 47.5928 60.352 48.4248 58.24C49.2568 56.128 50.4248 54.304 51.9288 52.768C53.4648 51.2 55.2568 49.984 57.3047 49.12C59.3528 48.256 61.5768 47.824 63.9768 47.824C66.4088 47.824 68.6488 48.256 70.6968 49.12C72.7448 49.984 74.5208 51.2 76.0248 52.768C77.5288 54.336 78.6968 56.176 79.5288 58.288C80.3608 60.368 80.7768 62.656 80.7768 65.152C80.7768 67.616 80.3608 69.904 79.5288 72.016C78.6968 74.128 77.5288 75.968 76.0248 77.536C74.5208 79.104 72.7448 80.32 70.6968 81.184C68.6488 82.048 66.4088 82.48 63.9768 82.48ZM63.9768 76.528C65.5128 76.528 66.9048 76.256 68.1528 75.712C69.4328 75.136 70.5368 74.336 71.4648 73.312C72.3928 72.256 73.1128 71.04 73.6248 69.664C74.1688 68.288 74.4408 66.784 74.4408 65.152C74.4408 63.52 74.1688 62.016 73.6248 60.64C73.1128 59.264 72.3928 58.064 71.4648 57.04C70.5368 55.984 69.4328 55.184 68.1528 54.64C66.9048 54.064 65.5128 53.776 63.9768 53.776C62.4728 53.776 61.0808 54.064 59.8008 54.64C58.5208 55.184 57.4168 55.968 56.4888 56.992C55.5608 58.016 54.8408 59.216 54.3288 60.592C53.8168 61.968 53.5608 63.488 53.5608 65.152C53.5608 66.784 53.8168 68.304 54.3288 69.712C54.8408 71.088 55.5608 72.288 56.4888 73.312C57.4168 74.336 58.5208 75.136 59.8008 75.712C61.0808 76.256 62.4728 76.528 63.9768 76.528Z" fill="#FBFEF9"/>
</svg>
