<svg width="128" height="128" viewBox="0 0 128 128" fill="none" xmlns="http://www.w3.org/2000/svg">
<path d="M52 19H76H96C103.18 19 109 24.8203 109 32V35.2V54.4V96C109 103.18 103.18 109 96 109H76H64H52H32C24.8203 109 19 103.18 19 96V54.4V32C19 24.8203 24.8203 19 32 19H52Z" fill="#191923" stroke="#C8CED0" stroke-width="6"/>
<path d="M53.5 25H74.5H96C99.866 25 103 28.134 103 32V38.8V55.6V96C103 99.866 99.866 103 96 103H74.5H64H53.5H32C28.134 103 25 99.866 25 96V55.6V32C25 28.134 28.134 25 32 25H53.5Z" fill="#191923" stroke="#2E2836" stroke-width="6"/>
<path d="M51.7776 82V48.4H66.3696C68.3856 48.4 70.2256 48.88 71.8896 49.84C73.5536 50.768 74.8656 52.048 75.8256 53.68C76.8176 55.28 77.3136 57.088 77.3136 59.104C77.3136 61.024 76.8176 62.8 75.8256 64.432C74.8656 66.032 73.5536 67.312 71.8896 68.272C70.2576 69.2 68.4176 69.664 66.3696 69.664H57.8736V82H51.7776ZM71.2656 82L62.7216 66.832L69.1536 65.632L78.6576 82.048L71.2656 82ZM57.8736 64.24H66.4176C67.3456 64.24 68.1456 64.032 68.8176 63.616C69.5216 63.168 70.0656 62.56 70.4496 61.792C70.8336 61.024 71.0256 60.176 71.0256 59.248C71.0256 58.192 70.7856 57.28 70.3056 56.512C69.8256 55.744 69.1536 55.136 68.2896 54.688C67.4256 54.24 66.4336 54.016 65.3136 54.016H57.8736V64.24Z" fill="#FBFEF9"/>
</svg>
