<svg width="128" height="128" viewBox="0 0 128 128" fill="none" xmlns="http://www.w3.org/2000/svg">
<path d="M52 19H76H96C103.18 19 109 24.8203 109 32V35.2V54.4V96C109 103.18 103.18 109 96 109H76H64H52H32C24.8203 109 19 103.18 19 96V54.4V32C19 24.8203 24.8203 19 32 19H52Z" fill="#191923" stroke="#C8CED0" stroke-width="6"/>
<path d="M53.5 25H74.5H96C99.866 25 103 28.134 103 32V38.8V55.6V96C103 99.866 99.866 103 96 103H74.5H64H53.5H32C28.134 103 25 99.866 25 96V55.6V32C25 28.134 28.134 25 32 25H53.5Z" fill="#191923" stroke="#2E2836" stroke-width="6"/>
<path d="M64.2057 82C62.5097 82 60.9257 81.696 59.4537 81.088C58.0137 80.48 56.7497 79.648 55.6617 78.592C54.6057 77.504 53.7737 76.24 53.1657 74.8C52.5577 73.36 52.2537 71.776 52.2537 70.048C52.2537 69.088 52.3657 68.064 52.5897 66.976C52.8457 65.888 53.2137 64.736 53.6937 63.52C54.2057 62.272 54.7977 60.976 55.4697 59.632C56.1417 58.288 56.9257 56.88 57.8217 55.408L62.2857 47.824H68.2377L68.4297 48.304L62.7177 57.712C61.7897 59.248 60.9737 60.704 60.2697 62.08C59.5657 63.424 58.9577 64.72 58.4457 65.968C57.9657 67.184 57.5657 68.368 57.2457 69.52L55.9497 65.152C56.4297 64.128 57.0217 63.2 57.7257 62.368C58.4297 61.536 59.2137 60.832 60.0777 60.256C60.9417 59.68 61.8377 59.248 62.7657 58.96C63.7257 58.672 64.7017 58.528 65.6937 58.528C67.5497 58.528 69.2617 59.04 70.8297 60.064C72.3977 61.056 73.6457 62.384 74.5737 64.048C75.5337 65.712 76.0137 67.536 76.0137 69.52C76.0137 71.92 75.5017 74.064 74.4777 75.952C73.4857 77.808 72.0937 79.28 70.3017 80.368C68.5097 81.456 66.4777 82 64.2057 82ZM64.2537 76.528C65.4057 76.528 66.4297 76.256 67.3257 75.712C68.2537 75.168 68.9737 74.416 69.4857 73.456C69.9977 72.464 70.2537 71.328 70.2537 70.048C70.2537 68.96 69.9817 67.952 69.4377 67.024C68.9257 66.064 68.2217 65.296 67.3257 64.72C66.4297 64.112 65.4217 63.808 64.3017 63.808C63.0857 63.808 61.9977 64.096 61.0377 64.672C60.1097 65.216 59.3737 65.968 58.8297 66.928C58.3177 67.856 58.0617 68.896 58.0617 70.048C58.0617 71.264 58.3177 72.368 58.8297 73.36C59.3737 74.32 60.1097 75.088 61.0377 75.664C61.9657 76.24 63.0377 76.528 64.2537 76.528Z" fill="#FBFEF9"/>
</svg>
