<svg width="128" height="128" viewBox="0 0 128 128" fill="none" xmlns="http://www.w3.org/2000/svg">
<path d="M52 19H76H96C103.18 19 109 24.8203 109 32V35.2V54.4V96C109 103.18 103.18 109 96 109H76H64H52H32C24.8203 109 19 103.18 19 96V54.4V32C19 24.8203 24.8203 19 32 19H52Z" fill="#191923" stroke="#C8CED0" stroke-width="6"/>
<path d="M53.5 25H74.5H96C99.866 25 103 28.134 103 32V38.8V55.6V96C103 99.866 99.866 103 96 103H74.5H64H53.5H32C28.134 103 25 99.866 25 96V55.6V32C25 28.134 28.134 25 32 25H53.5Z" fill="#191923" stroke="#2E2836" stroke-width="6"/>
<path d="M63.4532 82.48C60.9573 82.48 58.7813 81.936 56.9253 80.848C55.0693 79.728 53.3573 77.84 51.7893 75.184L56.4933 72.208C57.2293 73.392 57.9813 74.352 58.7493 75.088C59.5493 75.792 60.3493 76.32 61.1493 76.672C61.9813 76.992 62.8613 77.152 63.7893 77.152C64.8453 77.152 65.8053 76.896 66.6693 76.384C67.5653 75.872 68.2693 75.168 68.7813 74.272C69.3253 73.376 69.5973 72.352 69.5973 71.2C69.5973 70.048 69.3733 69.072 68.9253 68.272C68.5093 67.472 67.8853 66.864 67.0533 66.448C66.2533 66 65.2773 65.776 64.1253 65.776C63.6133 65.776 63.0693 65.84 62.4933 65.968C61.9173 66.064 61.3093 66.224 60.6693 66.448C60.0293 66.64 59.3253 66.88 58.5573 67.168L57.0213 63.088L66.5733 52.528L68.0133 53.92L53.8533 53.824V48.304H73.5813L74.7333 50.608L63.6933 62.656L62.2533 61.072C62.5093 60.944 62.9253 60.832 63.5013 60.736C64.1093 60.608 64.6373 60.544 65.0853 60.544C66.4933 60.544 67.8373 60.816 69.1173 61.36C70.3973 61.872 71.5013 62.608 72.4293 63.568C73.3893 64.528 74.1413 65.648 74.6853 66.928C75.2293 68.176 75.5013 69.536 75.5013 71.008C75.5013 73.216 74.9573 75.184 73.8693 76.912C72.8133 78.608 71.3733 79.968 69.5493 80.992C67.7253 81.984 65.6933 82.48 63.4532 82.48Z" fill="#FBFEF9"/>
</svg>
