<svg width="128" height="128" viewBox="0 0 128 128" fill="none" xmlns="http://www.w3.org/2000/svg">
<path d="M52 19H76H96C103.18 19 109 24.8203 109 32V35.2V54.4V96C109 103.18 103.18 109 96 109H76H64H52H32C24.8203 109 19 103.18 19 96V54.4V32C19 24.8203 24.8203 19 32 19H52Z" fill="#191923" stroke="#C8CED0" stroke-width="6"/>
<path d="M53.5 25H74.5H96C99.866 25 103 28.134 103 32V38.8V55.6V96C103 99.866 99.866 103 96 103H74.5H64H53.5H32C28.134 103 25 99.866 25 96V55.6V32C25 28.134 28.134 25 32 25H53.5Z" fill="#191923" stroke="#2E2836" stroke-width="6"/>
<path d="M54.7396 82L53.1556 78.064L63.2356 66.784C63.8116 66.208 64.4036 65.552 65.0116 64.816C65.6196 64.048 66.1956 63.264 66.7396 62.464C67.3156 61.632 67.7796 60.832 68.1316 60.064C68.4836 59.264 68.6596 58.528 68.6596 57.856C68.6596 56.992 68.4676 56.24 68.0836 55.6C67.7316 54.96 67.2196 54.464 66.5476 54.112C65.8756 53.76 65.0436 53.584 64.0516 53.584C63.1876 53.584 62.3396 53.84 61.5076 54.352C60.7076 54.832 59.9556 55.536 59.2516 56.464C58.5796 57.36 58.0196 58.432 57.5716 59.68L52.8676 56.896C53.4436 55.04 54.3076 53.44 55.4596 52.096C56.6436 50.72 58.0196 49.664 59.5876 48.928C61.1876 48.192 62.9156 47.824 64.7716 47.824C66.6916 47.824 68.4036 48.224 69.9076 49.024C71.4116 49.824 72.5956 50.928 73.4596 52.336C74.3556 53.744 74.8036 55.392 74.8036 57.28C74.8036 57.984 74.7236 58.72 74.5636 59.488C74.4036 60.224 74.1476 61.008 73.7956 61.84C73.4756 62.64 73.0436 63.488 72.4996 64.384C71.9556 65.248 71.2996 66.16 70.5316 67.12C69.7956 68.08 68.9476 69.088 67.9876 70.144L60.3556 78.448L59.3956 76.24H76.0036V82H54.7396Z" fill="#FBFEF9"/>
</svg>
