<svg width="128" height="128" viewBox="0 0 128 128" fill="none" xmlns="http://www.w3.org/2000/svg">
<path d="M35 90L35 70C35 53.9837 47.9837 41 64 41C80.0163 41 93 53.9837 93 70L93 90C93 106.016 80.0163 119 64 119C47.9837 119 35 106.016 35 90Z" fill="#FBFEF9" stroke="#C8CED0" stroke-width="6"/>
<path fill-rule="evenodd" clip-rule="evenodd" d="M64 5C65.6569 5 67 6.34315 67 8V26C67 27.6569 65.6569 29 64 29C62.3431 29 61 27.6569 61 26V8C61 6.34315 62.3431 5 64 5Z" fill="#FBFEF9"/>
<path fill-rule="evenodd" clip-rule="evenodd" d="M29.5023 14.4009C30.938 13.5738 32.7723 14.0671 33.5994 15.5028L42.5848 31.0997C43.4118 32.5353 42.9185 34.3696 41.4829 35.1967C40.0472 36.0238 38.2129 35.5304 37.3858 34.0948L28.4004 18.4979C27.5733 17.0623 28.0667 15.228 29.5023 14.4009Z" fill="#FBFEF9"/>
<path fill-rule="evenodd" clip-rule="evenodd" d="M98.483 14.4009C97.0474 13.5738 95.2131 14.0671 94.386 15.5028L85.4006 31.0997C84.5735 32.5353 85.0668 34.3696 86.5025 35.1967C87.9381 36.0238 89.7725 35.5304 90.5995 34.0948L99.585 18.4979C100.412 17.0623 99.9187 15.228 98.483 14.4009Z" fill="#FBFEF9"/>
</svg>
