<svg width="128" height="128" viewBox="0 0 128 128" fill="none" xmlns="http://www.w3.org/2000/svg">
<path d="M19 69V97C19 104.18 24.8203 110 32 110H96C103.18 110 109 104.18 109 97V69C109 61.8203 103.18 56 96 56H32C24.8203 56 19 61.8203 19 69Z" fill="#FBFEF9" stroke="#C8CED0" stroke-width="6"/>
<path d="M31.5816 42.2C30.6616 42.2 29.8283 42.0933 29.0816 41.88C28.3483 41.6533 27.695 41.3333 27.1216 40.92C26.5483 40.4933 26.035 39.9933 25.5816 39.42L27.6416 37.08C28.3083 37.9733 28.975 38.5733 29.6416 38.88C30.3216 39.1867 31.0216 39.34 31.7416 39.34C32.1016 39.34 32.4283 39.2933 32.7216 39.2C33.015 39.1067 33.2416 38.9733 33.4016 38.8C33.5616 38.6133 33.6416 38.3867 33.6416 38.12C33.6416 37.92 33.5883 37.74 33.4816 37.58C33.3883 37.42 33.255 37.28 33.0816 37.16C32.9083 37.04 32.7016 36.9333 32.4616 36.84C32.2216 36.7333 31.9683 36.6467 31.7016 36.58C31.435 36.5 31.1616 36.4333 30.8816 36.38C30.1083 36.2067 29.435 35.9933 28.8616 35.74C28.2883 35.4867 27.8083 35.18 27.4216 34.82C27.0483 34.4467 26.7683 34.0267 26.5816 33.56C26.395 33.08 26.3016 32.5467 26.3016 31.96C26.3016 31.3333 26.4416 30.76 26.7216 30.24C27.015 29.7067 27.4016 29.2533 27.8816 28.88C28.375 28.4933 28.9416 28.2 29.5816 28C30.2216 27.7867 30.8883 27.68 31.5816 27.68C32.5016 27.68 33.2883 27.78 33.9416 27.98C34.6083 28.1667 35.175 28.44 35.6416 28.8C36.1216 29.16 36.5283 29.5933 36.8616 30.1L34.7616 32.12C34.4816 31.7733 34.175 31.4867 33.8416 31.26C33.5216 31.0333 33.175 30.86 32.8016 30.74C32.4416 30.62 32.0683 30.56 31.6816 30.56C31.2816 30.56 30.935 30.6133 30.6416 30.72C30.3616 30.8133 30.1416 30.9533 29.9816 31.14C29.8216 31.3133 29.7416 31.5267 29.7416 31.78C29.7416 32.0067 29.8083 32.2 29.9416 32.36C30.075 32.52 30.255 32.6667 30.4816 32.8C30.7083 32.92 30.9683 33.0267 31.2616 33.12C31.555 33.2 31.8616 33.2667 32.1816 33.32C32.915 33.4667 33.575 33.66 34.1616 33.9C34.7616 34.14 35.275 34.4333 35.7016 34.78C36.1416 35.1267 36.475 35.54 36.7016 36.02C36.9416 36.4867 37.0616 37.0333 37.0616 37.66C37.0616 38.6333 36.8216 39.46 36.3416 40.14C35.875 40.8067 35.2283 41.32 34.4016 41.68C33.5883 42.0267 32.6483 42.2 31.5816 42.2ZM39.6174 42V28H49.3774V30.9H42.9174V39.1H49.5774V42H39.6174ZM41.2174 36.26V33.5H48.4774V36.26H41.2174ZM52.508 42V28H55.908V39H62.148V42H52.508ZM64.6955 42V28H74.4555V30.9H67.9955V39.1H74.6555V42H64.6955ZM66.2955 36.26V33.5H73.5555V36.26H66.2955ZM83.9462 42.2C82.8928 42.2 81.9195 42.0267 81.0262 41.68C80.1462 41.32 79.3795 40.82 78.7262 40.18C78.0728 39.5267 77.5662 38.76 77.2062 37.88C76.8595 36.9867 76.6862 36.0067 76.6862 34.94C76.6862 33.9 76.8728 32.94 77.2462 32.06C77.6195 31.18 78.1328 30.42 78.7862 29.78C79.4528 29.1267 80.2328 28.62 81.1262 28.26C82.0328 27.9 83.0195 27.72 84.0862 27.72C84.7528 27.72 85.4062 27.8067 86.0462 27.98C86.6862 28.1533 87.2795 28.4133 87.8262 28.76C88.3862 29.0933 88.8662 29.4933 89.2662 29.96L87.1862 32.34C86.9062 32.0467 86.6062 31.7933 86.2862 31.58C85.9795 31.3533 85.6395 31.18 85.2662 31.06C84.8928 30.94 84.4928 30.88 84.0662 30.88C83.5328 30.88 83.0262 30.98 82.5462 31.18C82.0795 31.3667 81.6662 31.64 81.3062 32C80.9595 32.3467 80.6862 32.7733 80.4862 33.28C80.2862 33.7867 80.1862 34.3533 80.1862 34.98C80.1862 35.5933 80.2862 36.1533 80.4862 36.66C80.6862 37.1533 80.9662 37.58 81.3262 37.94C81.6862 38.3 82.1195 38.5733 82.6262 38.76C83.1462 38.9467 83.7195 39.04 84.3462 39.04C84.7728 39.04 85.1795 38.98 85.5662 38.86C85.9528 38.74 86.3062 38.58 86.6262 38.38C86.9595 38.1667 87.2528 37.9267 87.5062 37.66L89.1462 40.26C88.8128 40.6333 88.3662 40.9667 87.8062 41.26C87.2595 41.5533 86.6462 41.7867 85.9662 41.96C85.2995 42.12 84.6262 42.2 83.9462 42.2ZM94.5129 42V31H90.3529V28H102.173V31H97.9129V42H94.5129Z" fill="#FBFEF9"/>
</svg>
