<svg width="128" height="128" viewBox="0 0 128 128" fill="none" xmlns="http://www.w3.org/2000/svg">
<path d="M35 90L35 70C35 53.9837 47.9837 41 64 41C80.0163 41 93 53.9837 93 70L93 90C93 106.016 80.0163 119 64 119C47.9837 119 35 106.016 35 90Z" fill="#FBFEF9" stroke="#C8CED0" stroke-width="6"/>
<path d="M35.859 27.2C34.939 27.2 34.1057 27.0933 33.359 26.88C32.6257 26.6533 31.9723 26.3333 31.399 25.92C30.8257 25.4933 30.3123 24.9933 29.859 24.42L31.919 22.08C32.5857 22.9733 33.2523 23.5733 33.919 23.88C34.599 24.1867 35.299 24.34 36.019 24.34C36.379 24.34 36.7057 24.2933 36.999 24.2C37.2923 24.1067 37.519 23.9733 37.679 23.8C37.839 23.6133 37.919 23.3867 37.919 23.12C37.919 22.92 37.8657 22.74 37.759 22.58C37.6657 22.42 37.5323 22.28 37.359 22.16C37.1857 22.04 36.979 21.9333 36.739 21.84C36.499 21.7333 36.2457 21.6467 35.979 21.58C35.7123 21.5 35.439 21.4333 35.159 21.38C34.3857 21.2067 33.7123 20.9933 33.139 20.74C32.5657 20.4867 32.0857 20.18 31.699 19.82C31.3257 19.4467 31.0457 19.0267 30.859 18.56C30.6723 18.08 30.579 17.5467 30.579 16.96C30.579 16.3333 30.719 15.76 30.999 15.24C31.2923 14.7067 31.679 14.2533 32.159 13.88C32.6523 13.4933 33.219 13.2 33.859 13C34.499 12.7867 35.1657 12.68 35.859 12.68C36.779 12.68 37.5657 12.78 38.219 12.98C38.8857 13.1667 39.4523 13.44 39.919 13.8C40.399 14.16 40.8057 14.5933 41.139 15.1L39.039 17.12C38.759 16.7733 38.4523 16.4867 38.119 16.26C37.799 16.0333 37.4523 15.86 37.079 15.74C36.719 15.62 36.3457 15.56 35.959 15.56C35.559 15.56 35.2123 15.6133 34.919 15.72C34.639 15.8133 34.419 15.9533 34.259 16.14C34.099 16.3133 34.019 16.5267 34.019 16.78C34.019 17.0067 34.0857 17.2 34.219 17.36C34.3523 17.52 34.5323 17.6667 34.759 17.8C34.9857 17.92 35.2457 18.0267 35.539 18.12C35.8323 18.2 36.139 18.2667 36.459 18.32C37.1923 18.4667 37.8523 18.66 38.439 18.9C39.039 19.14 39.5523 19.4333 39.979 19.78C40.419 20.1267 40.7523 20.54 40.979 21.02C41.219 21.4867 41.339 22.0333 41.339 22.66C41.339 23.6333 41.099 24.46 40.619 25.14C40.1523 25.8067 39.5057 26.32 38.679 26.68C37.8657 27.0267 36.9257 27.2 35.859 27.2ZM52.5748 27V13H55.9748V27H52.5748ZM43.8948 27V13H47.2948V27H43.8948ZM45.2148 21.54L45.2348 18.5H54.3748V21.54H45.2148ZM57.7007 27L63.2407 13H66.1207L71.6207 27H68.1807L65.5407 19.9C65.434 19.62 65.3274 19.32 65.2207 19C65.114 18.68 65.0074 18.3533 64.9007 18.02C64.794 17.6733 64.6874 17.34 64.5807 17.02C64.4874 16.6867 64.4074 16.38 64.3407 16.1L64.9407 16.08C64.8607 16.4133 64.7674 16.74 64.6607 17.06C64.5674 17.38 64.4674 17.7 64.3607 18.02C64.2674 18.3267 64.1607 18.64 64.0407 18.96C63.9207 19.2667 63.8074 19.5867 63.7007 19.92L61.0607 27H57.7007ZM60.3407 24.32L61.4007 21.76H67.8407L68.8807 24.32H60.3407ZM73.3674 27V13H79.6674C80.5608 13 81.3674 13.1933 82.0874 13.58C82.8208 13.9667 83.3941 14.5 83.8074 15.18C84.2208 15.8467 84.4274 16.6067 84.4274 17.46C84.4274 18.34 84.2208 19.1333 83.8074 19.84C83.3941 20.5333 82.8274 21.08 82.1074 21.48C81.3874 21.88 80.5741 22.08 79.6674 22.08H76.6074V27H73.3674ZM81.1274 27L77.5674 20.68L81.0474 20.18L85.0074 27H81.1274ZM76.6074 19.48H79.3674C79.7141 19.48 80.0141 19.4067 80.2674 19.26C80.5341 19.1 80.7341 18.88 80.8674 18.6C81.0141 18.32 81.0874 18 81.0874 17.64C81.0874 17.28 81.0074 16.9667 80.8474 16.7C80.6874 16.42 80.4541 16.2067 80.1474 16.06C79.8541 15.9133 79.4941 15.84 79.0674 15.84H76.6074V19.48ZM87.4104 27V13H97.1704V15.9H90.7104V24.1H97.3704V27H87.4104ZM89.0104 21.26V18.5H96.2704V21.26H89.0104Z" fill="#FBFEF9"/>
</svg>
