<svg width="128" height="128" viewBox="0 0 128 128" fill="none" xmlns="http://www.w3.org/2000/svg">
<circle cx="32" cy="32" r="29" transform="matrix(4.37114e-08 -1 -1 -4.37114e-08 73 96)" stroke="#2E2836" stroke-width="6"/>
<path fill-rule="evenodd" clip-rule="evenodd" d="M77.3848 82.3853L81.6274 86.6279C83.0545 85.2008 84.3399 83.6453 85.4687 81.9839C86.6902 80.1861 87.7283 78.2641 88.5641 76.2463C90.1723 72.3639 91 68.2028 91 64.0005C91 59.7982 90.1723 55.637 88.5641 51.7546C87.7283 49.7368 86.6902 47.8149 85.4687 46.017C84.3399 44.3556 83.0545 42.8002 81.6274 41.373L77.3848 45.6157C82.0899 50.3207 85 56.8208 85 64.0005C85 71.1802 82.0899 77.6802 77.3848 82.3853Z" fill="#2E2836"/>
<path fill-rule="evenodd" clip-rule="evenodd" d="M91.3848 82.3853L95.6274 86.6279C97.0545 85.2008 98.3399 83.6453 99.4687 81.9839C100.69 80.1861 101.728 78.2641 102.564 76.2463C104.172 72.3639 105 68.2028 105 64.0005C105 59.7982 104.172 55.637 102.564 51.7546C101.728 49.7368 100.69 47.8149 99.4687 46.017C98.3399 44.3556 97.0545 42.8002 95.6274 41.373L91.3848 45.6157C96.0899 50.3207 99 56.8208 99 64.0005C99 71.1802 96.0899 77.6802 91.3848 82.3853Z" fill="#2E2836"/>
<path fill-rule="evenodd" clip-rule="evenodd" d="M105.385 82.3853L109.627 86.6279C111.055 85.2008 112.34 83.6453 113.469 81.9839C114.69 80.1861 115.728 78.2641 116.564 76.2463C118.172 72.3639 119 68.2028 119 64.0005C119 59.7982 118.172 55.637 116.564 51.7546C115.728 49.7368 114.69 47.8149 113.469 46.017C112.34 44.3556 111.055 42.8002 109.627 41.373L105.385 45.6157C110.09 50.3207 113 56.8208 113 64.0005C113 71.1802 110.09 77.6802 105.385 82.3853Z" fill="#2E2836"/>
</svg>
