<svg width="128" height="128" viewBox="0 0 128 128" fill="none" xmlns="http://www.w3.org/2000/svg">
<path d="M52 49H76H108C108.552 49 109 49.4477 109 50V58V75C109 75.5523 108.552 76 108 76H98C94.134 76 91 79.134 91 83V88V102C91 102.552 90.5523 103 90 103H64H38C37.4477 103 37 102.552 37 102V88V83C37 79.134 33.866 76 30 76H20C19.4477 76 19 75.5523 19 75V58V50C19 49.4477 19.4477 49 20 49H52Z" fill="#191923" stroke="#C8CED0" stroke-width="6"/>
<path d="M64.9412 39.498C64.3529 39.8118 63.6471 39.8118 63.0588 39.498L41.0588 27.7647C39.2217 26.7849 39.9179 24 42 24L86 24C88.0821 24 88.7783 26.7849 86.9412 27.7647L64.9412 39.498Z" fill="#191923"/>
</svg>
