<svg width="128" height="128" viewBox="0 0 128 128" fill="none" xmlns="http://www.w3.org/2000/svg">
<g clip-path="url(#clip0_109_3804)">
<circle cx="64" cy="24" r="21" stroke="#2E2836" stroke-width="6"/>
<circle cx="104" cy="64" r="21" stroke="#2E2836" stroke-width="6"/>
<circle cx="64" cy="104" r="21" fill="#191923" stroke="#C8CED0" stroke-width="6"/>
<circle cx="24" cy="64" r="21" stroke="#2E2836" stroke-width="6"/>
<path d="M53.7481 113L62.1001 96.2H65.9401L74.2441 113H70.0201L65.0521 103.04C64.8761 102.688 64.7161 102.36 64.5721 102.056C64.4281 101.736 64.2921 101.432 64.1641 101.144C64.0361 100.84 63.9161 100.544 63.8041 100.256C63.7081 99.952 63.6041 99.64 63.4921 99.32L64.4281 99.296C64.3161 99.632 64.1961 99.96 64.0681 100.28C63.9561 100.584 63.8281 100.888 63.6841 101.192C63.5561 101.496 63.4201 101.808 63.2761 102.128C63.1321 102.432 62.9801 102.744 62.8201 103.064L57.8761 113H53.7481ZM57.6121 110.024L58.9561 106.952H69.0121L69.5641 110.024H57.6121Z" fill="#FBFEF9"/>
<path d="M95.9522 73V56.2H105.528C107 56.2 108.24 56.368 109.248 56.704C110.272 57.04 111.04 57.512 111.552 58.12C112.064 58.728 112.32 59.464 112.32 60.328C112.32 61.256 112.04 62.056 111.48 62.728C110.92 63.384 110.072 63.84 108.936 64.096L109.056 63.664C109.776 63.824 110.448 64.08 111.072 64.432C111.712 64.768 112.224 65.224 112.608 65.8C113.008 66.376 113.208 67.08 113.208 67.912C113.208 68.936 112.992 69.776 112.56 70.432C112.128 71.088 111.56 71.608 110.856 71.992C110.152 72.36 109.384 72.624 108.552 72.784C107.736 72.928 106.936 73 106.152 73H95.9522ZM99.7922 69.592H106.248C106.808 69.592 107.304 69.528 107.736 69.4C108.184 69.272 108.536 69.072 108.792 68.8C109.064 68.512 109.2 68.152 109.2 67.72C109.2 67.224 109.032 66.848 108.696 66.592C108.36 66.32 107.952 66.136 107.472 66.04C106.992 65.928 106.544 65.872 106.128 65.872H99.7922V69.592ZM99.7922 62.8H105.576C106.104 62.8 106.568 62.736 106.968 62.608C107.384 62.48 107.704 62.296 107.928 62.056C108.168 61.816 108.288 61.512 108.288 61.144C108.288 60.584 108.008 60.192 107.448 59.968C106.904 59.728 106.232 59.608 105.432 59.608H99.7922V62.8Z" fill="#191923"/>
<path d="M95.9522 73V56.2H105.528C107 56.2 108.24 56.368 109.248 56.704C110.272 57.04 111.04 57.512 111.552 58.12C112.064 58.728 112.32 59.464 112.32 60.328C112.32 61.256 112.04 62.056 111.48 62.728C110.92 63.384 110.072 63.84 108.936 64.096L109.056 63.664C109.776 63.824 110.448 64.08 111.072 64.432C111.712 64.768 112.224 65.224 112.608 65.8C113.008 66.376 113.208 67.08 113.208 67.912C113.208 68.936 112.992 69.776 112.56 70.432C112.128 71.088 111.56 71.608 110.856 71.992C110.152 72.36 109.384 72.624 108.552 72.784C107.736 72.928 106.936 73 106.152 73H95.9522ZM99.7922 69.592H106.248C106.808 69.592 107.304 69.528 107.736 69.4C108.184 69.272 108.536 69.072 108.792 68.8C109.064 68.512 109.2 68.152 109.2 67.72C109.2 67.224 109.032 66.848 108.696 66.592C108.36 66.32 107.952 66.136 107.472 66.04C106.992 65.928 106.544 65.872 106.128 65.872H99.7922V69.592ZM99.7922 62.8H105.576C106.104 62.8 106.568 62.736 106.968 62.608C107.384 62.48 107.704 62.296 107.928 62.056C108.168 61.816 108.288 61.512 108.288 61.144C108.288 60.584 108.008 60.192 107.448 59.968C106.904 59.728 106.232 59.608 105.432 59.608H99.7922V62.8Z" fill="#191923"/>
<path d="M62.1849 33V25.488L62.6649 27.336L53.6409 16.2H58.7529L65.3049 24.672H63.2409L69.6249 16.2H74.3529L66.1689 26.688L66.2889 25.296V33H62.1849Z" fill="#191923"/>
<path d="M28.9389 73L22.2669 65.416L13.9389 56.2H19.1469L25.5549 63.472L34.1709 73H28.9389ZM13.8189 73L21.8109 63.856L24.9549 65.752L18.8829 73H13.8189ZM26.1309 65.2L23.0349 63.376L28.8189 56.2H33.9069L26.1309 65.2Z" fill="#191923"/>
<path d="M28.9389 73L22.2669 65.416L13.9389 56.2H19.1469L25.5549 63.472L34.1709 73H28.9389ZM13.8189 73L21.8109 63.856L24.9549 65.752L18.8829 73H13.8189ZM26.1309 65.2L23.0349 63.376L28.8189 56.2H33.9069L26.1309 65.2Z" fill="#191923"/>
</g>
<defs>
<clipPath id="clip0_109_3804">
<rect width="128" height="128" fill="white"/>
</clipPath>
</defs>
</svg>
