<svg width="128" height="128" viewBox="0 0 128 128" fill="none" xmlns="http://www.w3.org/2000/svg">
<path d="M48 25H80H112C119.18 25 125 30.8203 125 38V38.8V55.6V90C125 97.1797 119.18 103 112 103H80H64H48H16C8.8203 103 3 97.1797 3 90V55.6V38C3 30.8203 8.8203 25 16 25H48Z" stroke="#C8CED0" stroke-width="6"/>
<path d="M13.408 70V58.8H18.352C19.12 58.8 19.7707 58.912 20.304 59.136C20.8373 59.3493 21.2373 59.664 21.504 60.08C21.7813 60.4853 21.92 60.976 21.92 61.552C21.92 62.192 21.76 62.7307 21.44 63.168C21.1307 63.6053 20.6773 63.8987 20.08 64.048L20.048 63.744C20.5493 63.8507 20.9813 64.0373 21.344 64.304C21.7173 64.5707 22.0053 64.9013 22.208 65.296C22.4107 65.68 22.512 66.1173 22.512 66.608C22.512 67.1733 22.416 67.6693 22.224 68.096C22.032 68.512 21.7547 68.864 21.392 69.152C21.0293 69.44 20.6027 69.6533 20.112 69.792C19.632 69.9307 19.0987 70 18.512 70H13.408ZM15.968 67.728H18.416C18.7147 67.728 18.9653 67.68 19.168 67.584C19.3813 67.488 19.5467 67.3493 19.664 67.168C19.7813 66.976 19.84 66.7467 19.84 66.48C19.84 66.2347 19.776 66.0267 19.648 65.856C19.5307 65.6853 19.36 65.5573 19.136 65.472C18.912 65.376 18.6453 65.328 18.336 65.328H15.968V67.728ZM15.968 63.296H17.968C18.2453 63.296 18.48 63.2533 18.672 63.168C18.8747 63.072 19.024 62.944 19.12 62.784C19.2267 62.6133 19.28 62.4107 19.28 62.176C19.28 61.8347 19.1627 61.568 18.928 61.376C18.6933 61.1733 18.3413 61.072 17.872 61.072H15.968V63.296ZM23.2027 70L27.6348 58.8H29.9388L34.3388 70H31.5868L29.4748 64.32C29.3894 64.096 29.3041 63.856 29.2188 63.6C29.1334 63.344 29.0481 63.0827 28.9628 62.816C28.8774 62.5387 28.7921 62.272 28.7068 62.016C28.6321 61.7493 28.5681 61.504 28.5148 61.28L28.9948 61.264C28.9308 61.5307 28.8561 61.792 28.7708 62.048C28.6961 62.304 28.6161 62.56 28.5308 62.816C28.4561 63.0613 28.3708 63.312 28.2748 63.568C28.1788 63.8133 28.0881 64.0693 28.0028 64.336L25.8908 70H23.2027ZM25.3148 67.856L26.1628 65.808H31.3148L32.1468 67.856H25.3148ZM40.5116 70.16C39.669 70.16 38.8903 70.0213 38.1756 69.744C37.4716 69.456 36.8583 69.056 36.3356 68.544C35.813 68.0213 35.4076 67.408 35.1196 66.704C34.8423 65.9893 34.7036 65.2053 34.7036 64.352C34.7036 63.52 34.853 62.752 35.1516 62.048C35.4503 61.344 35.861 60.736 36.3836 60.224C36.917 59.7013 37.541 59.296 38.2556 59.008C38.981 58.72 39.7703 58.576 40.6236 58.576C41.157 58.576 41.6796 58.6453 42.1916 58.784C42.7036 58.9227 43.1783 59.1307 43.6156 59.408C44.0636 59.6747 44.4476 59.9947 44.7676 60.368L43.1036 62.272C42.8796 62.0373 42.6396 61.8347 42.3836 61.664C42.1383 61.4827 41.8663 61.344 41.5676 61.248C41.269 61.152 40.949 61.104 40.6076 61.104C40.181 61.104 39.7756 61.184 39.3916 61.344C39.0183 61.4933 38.6876 61.712 38.3996 62C38.1223 62.2773 37.9036 62.6187 37.7436 63.024C37.5836 63.4293 37.5036 63.8827 37.5036 64.384C37.5036 64.8747 37.5836 65.3227 37.7436 65.728C37.9036 66.1227 38.1276 66.464 38.4156 66.752C38.7036 67.04 39.0503 67.2587 39.4556 67.408C39.8716 67.5573 40.3303 67.632 40.8316 67.632C41.173 67.632 41.4983 67.584 41.8076 67.488C42.117 67.392 42.3996 67.264 42.6556 67.104C42.9223 66.9333 43.157 66.7413 43.3596 66.528L44.6716 68.608C44.405 68.9067 44.0476 69.1733 43.5996 69.408C43.1623 69.6427 42.6716 69.8293 42.1276 69.968C41.5943 70.096 41.0556 70.16 40.5116 70.16ZM48.517 66.72L47.813 64.432L53.365 58.8H56.581L48.517 66.72ZM46.533 70V58.8H49.253V70H46.533ZM53.717 70L49.557 64.528L51.397 62.944L56.885 70H53.717ZM61.9169 70.16C61.1809 70.16 60.5142 70.0747 59.9169 69.904C59.3302 69.7227 58.8075 69.4667 58.3489 69.136C57.8902 68.7947 57.4795 68.3947 57.1169 67.936L58.7649 66.064C59.2982 66.7787 59.8315 67.2587 60.3649 67.504C60.9089 67.7493 61.4689 67.872 62.0449 67.872C62.3329 67.872 62.5942 67.8347 62.8289 67.76C63.0635 67.6853 63.2449 67.5787 63.3729 67.44C63.5009 67.2907 63.5649 67.1093 63.5649 66.896C63.5649 66.736 63.5222 66.592 63.4369 66.464C63.3622 66.336 63.2555 66.224 63.1169 66.128C62.9782 66.032 62.8129 65.9467 62.6209 65.872C62.4289 65.7867 62.2262 65.7173 62.0129 65.664C61.7995 65.6 61.5809 65.5467 61.3569 65.504C60.7382 65.3653 60.1995 65.1947 59.7409 64.992C59.2822 64.7893 58.8982 64.544 58.5889 64.256C58.2902 63.9573 58.0662 63.6213 57.9169 63.248C57.7675 62.864 57.6929 62.4373 57.6929 61.968C57.6929 61.4667 57.8049 61.008 58.0289 60.592C58.2635 60.1653 58.5729 59.8027 58.9569 59.504C59.3515 59.1947 59.8049 58.96 60.3169 58.8C60.8289 58.6293 61.3622 58.544 61.9169 58.544C62.6529 58.544 63.2822 58.624 63.8049 58.784C64.3382 58.9333 64.7915 59.152 65.1649 59.44C65.5489 59.728 65.8742 60.0747 66.1409 60.48L64.4609 62.096C64.2369 61.8187 63.9915 61.5893 63.7249 61.408C63.4689 61.2267 63.1915 61.088 62.8929 60.992C62.6049 60.896 62.3062 60.848 61.9969 60.848C61.6769 60.848 61.3995 60.8907 61.1649 60.976C60.9409 61.0507 60.7649 61.1627 60.6369 61.312C60.5089 61.4507 60.4449 61.6213 60.4449 61.824C60.4449 62.0053 60.4982 62.16 60.6049 62.288C60.7115 62.416 60.8555 62.5333 61.0369 62.64C61.2182 62.736 61.4262 62.8213 61.6609 62.896C61.8955 62.96 62.1409 63.0133 62.3969 63.056C62.9835 63.1733 63.5115 63.328 63.9809 63.52C64.4609 63.712 64.8715 63.9467 65.2129 64.224C65.5649 64.5013 65.8315 64.832 66.0129 65.216C66.2049 65.5893 66.3009 66.0267 66.3009 66.528C66.3009 67.3067 66.1089 67.968 65.7249 68.512C65.3515 69.0453 64.8342 69.456 64.1729 69.744C63.5222 70.0213 62.7702 70.16 61.9169 70.16ZM68.3455 70V58.8H73.1775C73.8815 58.8 74.5055 58.96 75.0495 59.28C75.6042 59.6 76.0415 60.0373 76.3615 60.592C76.6922 61.1467 76.8575 61.7707 76.8575 62.464C76.8575 63.1893 76.6922 63.84 76.3615 64.416C76.0415 64.9813 75.6042 65.4293 75.0495 65.76C74.5055 66.0907 73.8815 66.256 73.1775 66.256H71.0655V70H68.3455ZM71.0175 63.872H72.7935C73.0282 63.872 73.2415 63.8133 73.4335 63.696C73.6255 63.5787 73.7802 63.4187 73.8975 63.216C74.0148 63.0133 74.0735 62.7787 74.0735 62.512C74.0735 62.2347 74.0148 62 73.8975 61.808C73.7802 61.616 73.6255 61.4667 73.4335 61.36C73.2415 61.2533 73.0282 61.2 72.7935 61.2H71.0175V63.872ZM76.4684 70L80.9004 58.8H83.2044L87.6044 70H84.8524L82.7404 64.32C82.655 64.096 82.5697 63.856 82.4844 63.6C82.399 63.344 82.3137 63.0827 82.2284 62.816C82.143 62.5387 82.0577 62.272 81.9724 62.016C81.8977 61.7493 81.8337 61.504 81.7804 61.28L82.2604 61.264C82.1964 61.5307 82.1217 61.792 82.0364 62.048C81.9617 62.304 81.8817 62.56 81.7964 62.816C81.7217 63.0613 81.6364 63.312 81.5404 63.568C81.4444 63.8133 81.3537 64.0693 81.2684 64.336L79.1564 70H76.4684ZM78.5804 67.856L79.4284 65.808H84.5804L85.4124 67.856H78.5804ZM93.7773 70.16C92.9346 70.16 92.1559 70.0213 91.4413 69.744C90.7373 69.456 90.1239 69.056 89.6013 68.544C89.0786 68.0213 88.6733 67.408 88.3853 66.704C88.1079 65.9893 87.9693 65.2053 87.9693 64.352C87.9693 63.52 88.1186 62.752 88.4173 62.048C88.7159 61.344 89.1266 60.736 89.6493 60.224C90.1826 59.7013 90.8066 59.296 91.5213 59.008C92.2466 58.72 93.0359 58.576 93.8893 58.576C94.4226 58.576 94.9453 58.6453 95.4573 58.784C95.9693 58.9227 96.4439 59.1307 96.8813 59.408C97.3293 59.6747 97.7133 59.9947 98.0333 60.368L96.3693 62.272C96.1453 62.0373 95.9053 61.8347 95.6493 61.664C95.4039 61.4827 95.1319 61.344 94.8333 61.248C94.5346 61.152 94.2146 61.104 93.8733 61.104C93.4466 61.104 93.0413 61.184 92.6573 61.344C92.2839 61.4933 91.9533 61.712 91.6653 62C91.3879 62.2773 91.1693 62.6187 91.0093 63.024C90.8493 63.4293 90.7693 63.8827 90.7693 64.384C90.7693 64.8747 90.8493 65.3227 91.0093 65.728C91.1693 66.1227 91.3933 66.464 91.6813 66.752C91.9693 67.04 92.3159 67.2587 92.7213 67.408C93.1373 67.5573 93.5959 67.632 94.0973 67.632C94.4386 67.632 94.7639 67.584 95.0733 67.488C95.3826 67.392 95.6653 67.264 95.9213 67.104C96.1879 66.9333 96.4226 66.7413 96.6253 66.528L97.9373 68.608C97.6706 68.9067 97.3133 69.1733 96.8653 69.408C96.4279 69.6427 95.9373 69.8293 95.3933 69.968C94.8599 70.096 94.3213 70.16 93.7773 70.16ZM99.7986 70V58.8H107.607V61.12H102.439V67.68H107.767V70H99.7986ZM101.079 65.408V63.2H106.887V65.408H101.079Z" fill="#FBFEF9"/>
</svg>
