<svg width="128" height="128" viewBox="0 0 128 128" fill="none" xmlns="http://www.w3.org/2000/svg">
<path d="M48 25H80H112C119.18 25 125 30.8203 125 38V38.8V55.6V90C125 97.1797 119.18 103 112 103H80H64H48H16C8.8203 103 3 97.1797 3 90V55.6V38C3 30.8203 8.8203 25 16 25H48Z" stroke="#C8CED0" stroke-width="6"/>
<path d="M21.744 61.24C20.48 61.24 19.312 61.032 18.24 60.616C17.184 60.184 16.264 59.584 15.48 58.816C14.696 58.032 14.088 57.112 13.656 56.056C13.24 54.984 13.032 53.808 13.032 52.528C13.032 51.28 13.256 50.128 13.704 49.072C14.152 48.016 14.768 47.104 15.552 46.336C16.352 45.552 17.288 44.944 18.36 44.512C19.448 44.08 20.632 43.864 21.912 43.864C22.712 43.864 23.496 43.968 24.264 44.176C25.032 44.384 25.744 44.696 26.4 45.112C27.072 45.512 27.648 45.992 28.128 46.552L25.632 49.408C25.296 49.056 24.936 48.752 24.552 48.496C24.184 48.224 23.776 48.016 23.328 47.872C22.88 47.728 22.4 47.656 21.888 47.656C21.248 47.656 20.64 47.776 20.064 48.016C19.504 48.24 19.008 48.568 18.576 49C18.16 49.416 17.832 49.928 17.592 50.536C17.352 51.144 17.232 51.824 17.232 52.576C17.232 53.312 17.352 53.984 17.592 54.592C17.832 55.184 18.168 55.696 18.6 56.128C19.032 56.56 19.552 56.888 20.16 57.112C20.784 57.336 21.472 57.448 22.224 57.448C22.736 57.448 23.224 57.376 23.688 57.232C24.152 57.088 24.576 56.896 24.96 56.656C25.36 56.4 25.712 56.112 26.016 55.792L27.984 58.912C27.584 59.36 27.048 59.76 26.376 60.112C25.72 60.464 24.984 60.744 24.168 60.952C23.368 61.144 22.56 61.24 21.744 61.24ZM28.6401 61L35.2881 44.2H38.7441L45.3441 61H41.2161L38.0481 52.48C37.9201 52.144 37.7921 51.784 37.6641 51.4C37.5361 51.016 37.4081 50.624 37.2801 50.224C37.1521 49.808 37.0241 49.408 36.8961 49.024C36.7841 48.624 36.6881 48.256 36.6081 47.92L37.3281 47.896C37.2321 48.296 37.1201 48.688 36.9921 49.072C36.8801 49.456 36.7601 49.84 36.6321 50.224C36.5201 50.592 36.3921 50.968 36.2481 51.352C36.1041 51.72 35.9681 52.104 35.8401 52.504L32.6721 61H28.6401ZM31.8081 57.784L33.0801 54.712H40.8081L42.0561 57.784H31.8081ZM47.4401 61V44.2H54.6881C55.7441 44.2 56.6801 44.44 57.4961 44.92C58.3281 45.4 58.9841 46.056 59.4641 46.888C59.9601 47.72 60.2081 48.656 60.2081 49.696C60.2081 50.784 59.9601 51.76 59.4641 52.624C58.9841 53.472 58.3281 54.144 57.4961 54.64C56.6801 55.136 55.7441 55.384 54.6881 55.384H51.5201V61H47.4401ZM51.4481 51.808H54.1121C54.4641 51.808 54.7841 51.72 55.0721 51.544C55.3601 51.368 55.5921 51.128 55.7681 50.824C55.9441 50.52 56.0321 50.168 56.0321 49.768C56.0321 49.352 55.9441 49 55.7681 48.712C55.5921 48.424 55.3601 48.2 55.0721 48.04C54.7841 47.88 54.4641 47.8 54.1121 47.8H51.4481V51.808ZM68.8988 61.24C67.7948 61.24 66.7948 61.112 65.8988 60.856C65.0188 60.584 64.2348 60.2 63.5468 59.704C62.8588 59.192 62.2428 58.592 61.6988 57.904L64.1708 55.096C64.9708 56.168 65.7708 56.888 66.5708 57.256C67.3868 57.624 68.2268 57.808 69.0908 57.808C69.5228 57.808 69.9148 57.752 70.2668 57.64C70.6188 57.528 70.8908 57.368 71.0828 57.16C71.2748 56.936 71.3708 56.664 71.3708 56.344C71.3708 56.104 71.3068 55.888 71.1788 55.696C71.0668 55.504 70.9068 55.336 70.6988 55.192C70.4908 55.048 70.2428 54.92 69.9548 54.808C69.6668 54.68 69.3628 54.576 69.0428 54.496C68.7228 54.4 68.3948 54.32 68.0588 54.256C67.1308 54.048 66.3228 53.792 65.6348 53.488C64.9468 53.184 64.3708 52.816 63.9068 52.384C63.4588 51.936 63.1228 51.432 62.8988 50.872C62.6748 50.296 62.5628 49.656 62.5628 48.952C62.5628 48.2 62.7308 47.512 63.0668 46.888C63.4188 46.248 63.8828 45.704 64.4588 45.256C65.0508 44.792 65.7308 44.44 66.4988 44.2C67.2668 43.944 68.0668 43.816 68.8988 43.816C70.0028 43.816 70.9468 43.936 71.7308 44.176C72.5308 44.4 73.2108 44.728 73.7708 45.16C74.3468 45.592 74.8348 46.112 75.2348 46.72L72.7148 49.144C72.3788 48.728 72.0108 48.384 71.6108 48.112C71.2268 47.84 70.8108 47.632 70.3628 47.488C69.9308 47.344 69.4828 47.272 69.0188 47.272C68.5388 47.272 68.1228 47.336 67.7708 47.464C67.4348 47.576 67.1708 47.744 66.9788 47.968C66.7868 48.176 66.6908 48.432 66.6908 48.736C66.6908 49.008 66.7708 49.24 66.9308 49.432C67.0908 49.624 67.3068 49.8 67.5788 49.96C67.8508 50.104 68.1628 50.232 68.5148 50.344C68.8668 50.44 69.2348 50.52 69.6188 50.584C70.4988 50.76 71.2908 50.992 71.9948 51.28C72.7148 51.568 73.3308 51.92 73.8428 52.336C74.3708 52.752 74.7708 53.248 75.0428 53.824C75.3308 54.384 75.4748 55.04 75.4748 55.792C75.4748 56.96 75.1868 57.952 74.6108 58.768C74.0508 59.568 73.2748 60.184 72.2828 60.616C71.3068 61.032 70.1788 61.24 68.8988 61.24ZM14.112 85V68.2H18.192V81.4H25.68V85H14.112ZM35.9243 85.24C34.6443 85.24 33.4763 85.024 32.4203 84.592C31.3643 84.16 30.4443 83.552 29.6603 82.768C28.8763 81.984 28.2683 81.064 27.8363 80.008C27.4043 78.952 27.1883 77.792 27.1883 76.528C27.1883 75.264 27.4043 74.104 27.8363 73.048C28.2683 71.992 28.8763 71.072 29.6603 70.288C30.4443 69.504 31.3643 68.896 32.4203 68.464C33.4763 68.032 34.6363 67.816 35.9003 67.816C37.1643 67.816 38.3243 68.032 39.3802 68.464C40.4363 68.896 41.3563 69.504 42.1403 70.288C42.9243 71.072 43.5243 71.992 43.9403 73.048C44.3723 74.104 44.5883 75.264 44.5883 76.528C44.5883 77.776 44.3723 78.936 43.9403 80.008C43.5243 81.064 42.9243 81.984 42.1403 82.768C41.3563 83.552 40.4363 84.16 39.3802 84.592C38.3243 85.024 37.1723 85.24 35.9243 85.24ZM35.9003 81.4C36.5563 81.4 37.1563 81.28 37.7003 81.04C38.2603 80.8 38.7403 80.464 39.1403 80.032C39.5563 79.584 39.8763 79.064 40.1003 78.472C40.3243 77.88 40.4363 77.232 40.4363 76.528C40.4363 75.824 40.3243 75.176 40.1003 74.584C39.8763 73.992 39.5563 73.48 39.1403 73.048C38.7403 72.6 38.2603 72.256 37.7003 72.016C37.1563 71.776 36.5563 71.656 35.9003 71.656C35.2443 71.656 34.6363 71.776 34.0763 72.016C33.5323 72.256 33.0523 72.6 32.6363 73.048C32.2203 73.48 31.9003 73.992 31.6763 74.584C31.4683 75.176 31.3643 75.824 31.3643 76.528C31.3643 77.232 31.4683 77.888 31.6763 78.496C31.9003 79.088 32.2203 79.6 32.6363 80.032C33.0523 80.464 33.5323 80.8 34.0763 81.04C34.6363 81.28 35.2443 81.4 35.9003 81.4ZM55.3768 85.24C54.1128 85.24 52.9448 85.032 51.8728 84.616C50.8168 84.184 49.8968 83.584 49.1128 82.816C48.3288 82.032 47.7208 81.112 47.2888 80.056C46.8728 78.984 46.6648 77.808 46.6648 76.528C46.6648 75.28 46.8888 74.128 47.3368 73.072C47.7848 72.016 48.4008 71.104 49.1848 70.336C49.9848 69.552 50.9208 68.944 51.9928 68.512C53.0808 68.08 54.2648 67.864 55.5448 67.864C56.3448 67.864 57.1288 67.968 57.8968 68.176C58.6648 68.384 59.3768 68.696 60.0328 69.112C60.7048 69.512 61.2808 69.992 61.7608 70.552L59.2648 73.408C58.9288 73.056 58.5688 72.752 58.1848 72.496C57.8168 72.224 57.4088 72.016 56.9608 71.872C56.5128 71.728 56.0328 71.656 55.5208 71.656C54.8808 71.656 54.2728 71.776 53.6968 72.016C53.1368 72.24 52.6408 72.568 52.2088 73C51.7928 73.416 51.4648 73.928 51.2248 74.536C50.9848 75.144 50.8648 75.824 50.8648 76.576C50.8648 77.312 50.9848 77.984 51.2248 78.592C51.4648 79.184 51.8008 79.696 52.2328 80.128C52.6648 80.56 53.1848 80.888 53.7928 81.112C54.4168 81.336 55.1048 81.448 55.8568 81.448C56.3688 81.448 56.8568 81.376 57.3208 81.232C57.7848 81.088 58.2088 80.896 58.5928 80.656C58.9928 80.4 59.3448 80.112 59.6488 79.792L61.6168 82.912C61.2168 83.36 60.6808 83.76 60.0088 84.112C59.3528 84.464 58.6168 84.744 57.8008 84.952C57.0008 85.144 56.1928 85.24 55.3768 85.24ZM67.3849 80.08L66.3289 76.648L74.6569 68.2H79.4809L67.3849 80.08ZM64.4089 85V68.2H68.4889V85H64.4089ZM75.1849 85L68.9449 76.792L71.7049 74.416L79.9369 85H75.1849Z" fill="#FBFEF9"/>
</svg>
