<svg width="128" height="128" viewBox="0 0 128 128" fill="none" xmlns="http://www.w3.org/2000/svg">
<path d="M48 25H80H112C119.18 25 125 30.8203 125 38V38.8V55.6V90C125 97.1797 119.18 103 112 103H80H64H48H16C8.8203 103 3 97.1797 3 90V55.6V38C3 30.8203 8.8203 25 16 25H48Z" stroke="#C8CED0" stroke-width="6"/>
<path d="M27.0511 75.0682V66.1705H15.7159L38.5057 43.3636L61.3125 66.1705H49.9602V75.0682H27.0511ZM27.0511 90.1364V78.4773H49.9602V90.1364H27.0511ZM32.6761 86.0455H44.3523V82.5682H32.6761V86.0455ZM32.6761 70.7727H44.3523V61.875H50.0114L38.5057 50.3693L27.017 61.875H32.6761V70.7727Z" fill="#FBFEF9"/>
</svg>
