<svg width="128" height="128" viewBox="0 0 128 128" fill="none" xmlns="http://www.w3.org/2000/svg">
<path d="M48 25H80H112C119.18 25 125 30.8203 125 38V38.8V55.6V90C125 97.1797 119.18 103 112 103H80H64H48H16C8.8203 103 3 97.1797 3 90V55.6V38C3 30.8203 8.8203 25 16 25H48Z" stroke="#C8CED0" stroke-width="6"/>
<path d="M18.496 88.16C17.6533 88.16 16.8747 88.0213 16.16 87.744C15.456 87.456 14.8427 87.056 14.32 86.544C13.7973 86.0213 13.392 85.408 13.104 84.704C12.8267 83.9893 12.688 83.2053 12.688 82.352C12.688 81.52 12.8373 80.752 13.136 80.048C13.4347 79.344 13.8453 78.736 14.368 78.224C14.9013 77.7013 15.5253 77.296 16.24 77.008C16.9653 76.72 17.7547 76.576 18.608 76.576C19.1413 76.576 19.664 76.6453 20.176 76.784C20.688 76.9227 21.1627 77.1307 21.6 77.408C22.048 77.6747 22.432 77.9947 22.752 78.368L21.088 80.272C20.864 80.0373 20.624 79.8347 20.368 79.664C20.1227 79.4827 19.8507 79.344 19.552 79.248C19.2533 79.152 18.9333 79.104 18.592 79.104C18.1653 79.104 17.76 79.184 17.376 79.344C17.0027 79.4933 16.672 79.712 16.384 80C16.1067 80.2773 15.888 80.6187 15.728 81.024C15.568 81.4293 15.488 81.8827 15.488 82.384C15.488 82.8747 15.568 83.3227 15.728 83.728C15.888 84.1227 16.112 84.464 16.4 84.752C16.688 85.04 17.0347 85.2587 17.44 85.408C17.856 85.5573 18.3147 85.632 18.816 85.632C19.1573 85.632 19.4827 85.584 19.792 85.488C20.1013 85.392 20.384 85.264 20.64 85.104C20.9067 84.9333 21.1413 84.7413 21.344 84.528L22.656 86.608C22.3893 86.9067 22.032 87.1733 21.584 87.408C21.1467 87.6427 20.656 87.8293 20.112 87.968C19.5787 88.096 19.04 88.16 18.496 88.16ZM23.0934 88L27.5254 76.8H29.8294L34.2294 88H31.4774L29.3654 82.32C29.28 82.096 29.1947 81.856 29.1094 81.6C29.024 81.344 28.9387 81.0827 28.8534 80.816C28.768 80.5387 28.6827 80.272 28.5974 80.016C28.5227 79.7493 28.4587 79.504 28.4054 79.28L28.8854 79.264C28.8214 79.5307 28.7467 79.792 28.6614 80.048C28.5867 80.304 28.5067 80.56 28.4214 80.816C28.3467 81.0613 28.2614 81.312 28.1654 81.568C28.0694 81.8133 27.9787 82.0693 27.8934 82.336L25.7814 88H23.0934ZM25.2054 85.856L26.0534 83.808H31.2054L32.0374 85.856H25.2054ZM35.6268 88V76.8H40.4588C41.1628 76.8 41.7868 76.96 42.3308 77.28C42.8854 77.6 43.3228 78.0373 43.6428 78.592C43.9734 79.1467 44.1388 79.7707 44.1388 80.464C44.1388 81.1893 43.9734 81.84 43.6428 82.416C43.3228 82.9813 42.8854 83.4293 42.3308 83.76C41.7868 84.0907 41.1628 84.256 40.4588 84.256H38.3468V88H35.6268ZM38.2988 81.872H40.0748C40.3094 81.872 40.5228 81.8133 40.7148 81.696C40.9068 81.5787 41.0614 81.4187 41.1788 81.216C41.2961 81.0133 41.3548 80.7787 41.3548 80.512C41.3548 80.2347 41.2961 80 41.1788 79.808C41.0614 79.616 40.9068 79.4667 40.7148 79.36C40.5228 79.2533 40.3094 79.2 40.0748 79.2H38.2988V81.872ZM49.9325 88.16C49.1965 88.16 48.5298 88.0747 47.9325 87.904C47.3458 87.7227 46.8232 87.4667 46.3645 87.136C45.9058 86.7947 45.4952 86.3947 45.1325 85.936L46.7805 84.064C47.3138 84.7787 47.8472 85.2587 48.3805 85.504C48.9245 85.7493 49.4845 85.872 50.0605 85.872C50.3485 85.872 50.6098 85.8347 50.8445 85.76C51.0792 85.6853 51.2605 85.5787 51.3885 85.44C51.5165 85.2907 51.5805 85.1093 51.5805 84.896C51.5805 84.736 51.5378 84.592 51.4525 84.464C51.3778 84.336 51.2712 84.224 51.1325 84.128C50.9938 84.032 50.8285 83.9467 50.6365 83.872C50.4445 83.7867 50.2418 83.7173 50.0285 83.664C49.8152 83.6 49.5965 83.5467 49.3725 83.504C48.7538 83.3653 48.2152 83.1947 47.7565 82.992C47.2978 82.7893 46.9138 82.544 46.6045 82.256C46.3058 81.9573 46.0818 81.6213 45.9325 81.248C45.7832 80.864 45.7085 80.4373 45.7085 79.968C45.7085 79.4667 45.8205 79.008 46.0445 78.592C46.2792 78.1653 46.5885 77.8027 46.9725 77.504C47.3672 77.1947 47.8205 76.96 48.3325 76.8C48.8445 76.6293 49.3778 76.544 49.9325 76.544C50.6685 76.544 51.2978 76.624 51.8205 76.784C52.3538 76.9333 52.8072 77.152 53.1805 77.44C53.5645 77.728 53.8898 78.0747 54.1565 78.48L52.4765 80.096C52.2525 79.8187 52.0072 79.5893 51.7405 79.408C51.4845 79.2267 51.2072 79.088 50.9085 78.992C50.6205 78.896 50.3218 78.848 50.0125 78.848C49.6925 78.848 49.4152 78.8907 49.1805 78.976C48.9565 79.0507 48.7805 79.1627 48.6525 79.312C48.5245 79.4507 48.4605 79.6213 48.4605 79.824C48.4605 80.0053 48.5138 80.16 48.6205 80.288C48.7272 80.416 48.8712 80.5333 49.0525 80.64C49.2338 80.736 49.4418 80.8213 49.6765 80.896C49.9112 80.96 50.1565 81.0133 50.4125 81.056C50.9992 81.1733 51.5272 81.328 51.9965 81.52C52.4765 81.712 52.8872 81.9467 53.2285 82.224C53.5805 82.5013 53.8472 82.832 54.0285 83.216C54.2205 83.5893 54.3165 84.0267 54.3165 84.528C54.3165 85.3067 54.1245 85.968 53.7405 86.512C53.3672 87.0453 52.8498 87.456 52.1885 87.744C51.5378 88.0213 50.7858 88.16 49.9325 88.16ZM61.4861 88V76.8H64.2061V85.6H69.1981V88H61.4861ZM76.0276 88.16C75.1743 88.16 74.3956 88.016 73.6916 87.728C72.9876 87.44 72.3743 87.0347 71.8516 86.512C71.329 85.9893 70.9236 85.376 70.6356 84.672C70.3476 83.968 70.2036 83.1947 70.2036 82.352C70.2036 81.5093 70.3476 80.736 70.6356 80.032C70.9236 79.328 71.329 78.7147 71.8516 78.192C72.3743 77.6693 72.9876 77.264 73.6916 76.976C74.3956 76.688 75.169 76.544 76.0116 76.544C76.8543 76.544 77.6276 76.688 78.3316 76.976C79.0356 77.264 79.649 77.6693 80.1716 78.192C80.6943 78.7147 81.0943 79.328 81.3716 80.032C81.6596 80.736 81.8036 81.5093 81.8036 82.352C81.8036 83.184 81.6596 83.9573 81.3716 84.672C81.0943 85.376 80.6943 85.9893 80.1716 86.512C79.649 87.0347 79.0356 87.44 78.3316 87.728C77.6276 88.016 76.8596 88.16 76.0276 88.16ZM76.0116 85.6C76.449 85.6 76.849 85.52 77.2116 85.36C77.585 85.2 77.905 84.976 78.1716 84.688C78.449 84.3893 78.6623 84.0427 78.8116 83.648C78.961 83.2533 79.0356 82.8213 79.0356 82.352C79.0356 81.8827 78.961 81.4507 78.8116 81.056C78.6623 80.6613 78.449 80.32 78.1716 80.032C77.905 79.7333 77.585 79.504 77.2116 79.344C76.849 79.184 76.449 79.104 76.0116 79.104C75.5743 79.104 75.169 79.184 74.7956 79.344C74.433 79.504 74.113 79.7333 73.8356 80.032C73.5583 80.32 73.345 80.6613 73.1956 81.056C73.057 81.4507 72.9876 81.8827 72.9876 82.352C72.9876 82.8213 73.057 83.2587 73.1956 83.664C73.345 84.0587 73.5583 84.4 73.8356 84.688C74.113 84.976 74.433 85.2 74.7956 85.36C75.169 85.52 75.5743 85.6 76.0116 85.6ZM88.996 88.16C88.1533 88.16 87.3747 88.0213 86.66 87.744C85.956 87.456 85.3427 87.056 84.82 86.544C84.2973 86.0213 83.892 85.408 83.604 84.704C83.3267 83.9893 83.188 83.2053 83.188 82.352C83.188 81.52 83.3373 80.752 83.636 80.048C83.9347 79.344 84.3453 78.736 84.868 78.224C85.4013 77.7013 86.0253 77.296 86.74 77.008C87.4653 76.72 88.2547 76.576 89.108 76.576C89.6413 76.576 90.164 76.6453 90.676 76.784C91.188 76.9227 91.6627 77.1307 92.1 77.408C92.548 77.6747 92.932 77.9947 93.252 78.368L91.588 80.272C91.364 80.0373 91.124 79.8347 90.868 79.664C90.6227 79.4827 90.3507 79.344 90.052 79.248C89.7533 79.152 89.4333 79.104 89.092 79.104C88.6653 79.104 88.26 79.184 87.876 79.344C87.5027 79.4933 87.172 79.712 86.884 80C86.6067 80.2773 86.388 80.6187 86.228 81.024C86.068 81.4293 85.988 81.8827 85.988 82.384C85.988 82.8747 86.068 83.3227 86.228 83.728C86.388 84.1227 86.612 84.464 86.9 84.752C87.188 85.04 87.5347 85.2587 87.94 85.408C88.356 85.5573 88.8147 85.632 89.316 85.632C89.6573 85.632 89.9827 85.584 90.292 85.488C90.6013 85.392 90.884 85.264 91.14 85.104C91.4067 84.9333 91.6413 84.7413 91.844 84.528L93.156 86.608C92.8893 86.9067 92.532 87.1733 92.084 87.408C91.6467 87.6427 91.156 87.8293 90.612 87.968C90.0787 88.096 89.54 88.16 88.996 88.16ZM97.0014 84.72L96.2974 82.432L101.849 76.8H105.065L97.0014 84.72ZM95.0174 88V76.8H97.7374V88H95.0174ZM102.201 88L98.0414 82.528L99.8814 80.944L105.369 88H102.201Z" fill="#FBFEF9"/>
<path d="M23.2884 56.5511V49.8778H14.7869L31.8793 32.7727L48.9844 49.8778H40.4702V56.5511H23.2884ZM23.2884 67.8523V59.108H40.4702V67.8523H23.2884ZM27.5071 64.7841H36.2642V62.1761H27.5071V64.7841ZM27.5071 53.3295H36.2642V46.6562H40.5085L31.8793 38.027L23.2628 46.6562H27.5071V53.3295Z" fill="#FBFEF9"/>
</svg>
