<svg width="128" height="128" viewBox="0 0 128 128" fill="none" xmlns="http://www.w3.org/2000/svg">
<path d="M52 19H76H96C103.18 19 109 24.8203 109 32V35.2V54.4V96C109 103.18 103.18 109 96 109H76H64H52H32C24.8203 109 19 103.18 19 96V54.4V32C19 24.8203 24.8203 19 32 19H52Z" stroke="#C8CED0" stroke-width="6"/>
<path d="M34.3941 76V53.6H43.7701C45.4128 53.6 46.9168 53.8773 48.2821 54.432C49.6475 54.9653 50.8208 55.7333 51.8021 56.736C52.8048 57.7387 53.5728 58.9227 54.1061 60.288C54.6395 61.6533 54.9061 63.1573 54.9061 64.8C54.9061 66.4427 54.6395 67.9573 54.1061 69.344C53.5728 70.7093 52.8048 71.8933 51.8021 72.896C50.8208 73.8773 49.6475 74.6453 48.2821 75.2C46.9168 75.7333 45.4128 76 43.7701 76H34.3941ZM39.8341 72.288L39.0981 71.2H43.6101C44.5061 71.2 45.3061 71.0507 46.0101 70.752C46.7141 70.432 47.3115 69.9947 47.8021 69.44C48.3141 68.8853 48.7088 68.2133 48.9861 67.424C49.2635 66.6347 49.4021 65.76 49.4021 64.8C49.4021 63.84 49.2635 62.9653 48.9861 62.176C48.7088 61.3867 48.3141 60.7147 47.8021 60.16C47.3115 59.6053 46.7141 59.1787 46.0101 58.88C45.3061 58.56 44.5061 58.4 43.6101 58.4H39.0021L39.8341 57.376V72.288ZM59.1129 76V53.6H74.7289V58.24H64.3929V71.36H75.0489V76H59.1129ZM61.6729 66.816V62.4H73.2889V66.816H61.6729ZM79.7379 76V53.6H85.1779V71.2H95.1619V76H79.7379Z" fill="#FBFEF9"/>
</svg>
