<svg width="128" height="128" viewBox="0 0 128 128" fill="none" xmlns="http://www.w3.org/2000/svg">
<g clip-path="url(#clip0_133_4940)">
<path d="M125 33V49.8V66.6V101C125 108.18 119.18 114 112 114H80H64H48H16C8.8203 114 3 108.18 3 101V82.6C3 75.4203 8.8203 69.6 16 69.6H48C58.4934 69.6 67 61.0934 67 50.6V33V27C67 19.8203 72.8203 14 80 14H112C119.18 14 125 19.8203 125 27V33Z" stroke="#C8CED0" stroke-width="6"/>
<path d="M13.76 94V80H23.52V82.9H17.06V91.1H23.72V94H13.76ZM15.36 88.26V85.5H22.62V88.26H15.36ZM26.6506 94V80H29.6906L37.0306 90L36.3706 89.9C36.304 89.46 36.2506 89.04 36.2106 88.64C36.1706 88.24 36.1306 87.8467 36.0906 87.46C36.064 87.0733 36.0373 86.68 36.0106 86.28C35.9973 85.88 35.984 85.4467 35.9706 84.98C35.9706 84.5133 35.9706 84.0067 35.9706 83.46V80H39.2706V94H36.1906L28.5306 83.68L29.5506 83.82C29.6173 84.46 29.6706 85.0067 29.7106 85.46C29.764 85.9 29.804 86.2933 29.8306 86.64C29.8706 86.9867 29.8973 87.3 29.9106 87.58C29.924 87.86 29.9306 88.14 29.9306 88.42C29.944 88.6867 29.9506 88.9867 29.9506 89.32V94H26.6506ZM45.8234 94V83H41.6634V80H53.4834V83H49.2234V94H45.8234ZM55.8889 94V80H65.6489V82.9H59.1889V91.1H65.8489V94H55.8889ZM57.4889 88.26V85.5H64.7489V88.26H57.4889ZM68.7795 94V80H75.0795C75.9729 80 76.7795 80.1933 77.4995 80.58C78.2329 80.9667 78.8062 81.5 79.2195 82.18C79.6329 82.8467 79.8395 83.6067 79.8395 84.46C79.8395 85.34 79.6329 86.1333 79.2195 86.84C78.8062 87.5333 78.2395 88.08 77.5195 88.48C76.7995 88.88 75.9862 89.08 75.0795 89.08H72.0195V94H68.7795ZM76.5395 94L72.9795 87.68L76.4595 87.18L80.4195 94H76.5395ZM72.0195 86.48H74.7795C75.1262 86.48 75.4262 86.4067 75.6795 86.26C75.9462 86.1 76.1462 85.88 76.2795 85.6C76.4262 85.32 76.4995 85 76.4995 84.64C76.4995 84.28 76.4195 83.9667 76.2595 83.7C76.0995 83.42 75.8662 83.2067 75.5595 83.06C75.2662 82.9133 74.9062 82.84 74.4795 82.84H72.0195V86.48ZM12.968 105V97.3H16.433C16.9243 97.3 17.368 97.4063 17.764 97.619C18.1673 97.8317 18.4827 98.125 18.71 98.499C18.9373 98.8657 19.051 99.2837 19.051 99.753C19.051 100.237 18.9373 100.673 18.71 101.062C18.4827 101.443 18.171 101.744 17.775 101.964C17.379 102.184 16.9317 102.294 16.433 102.294H14.75V105H12.968ZM17.236 105L15.278 101.524L17.192 101.249L19.37 105H17.236ZM14.75 100.864H16.268C16.4587 100.864 16.6237 100.824 16.763 100.743C16.9097 100.655 17.0197 100.534 17.093 100.38C17.1737 100.226 17.214 100.05 17.214 99.852C17.214 99.654 17.17 99.4817 17.082 99.335C16.994 99.181 16.8657 99.0637 16.697 98.983C16.5357 98.9023 16.3377 98.862 16.103 98.862H14.75V100.864ZM20.6916 105V97.3H26.0596V98.895H22.5066V103.405H26.1696V105H20.6916ZM21.5716 101.843V100.325H25.5646V101.843H21.5716ZM29.4535 105V98.95H27.1655V97.3H33.6665V98.95H31.3235V105H29.4535ZM38.2345 105.066C37.5965 105.066 37.0282 104.938 36.5295 104.681C36.0308 104.417 35.6385 104.058 35.3525 103.603C35.0738 103.148 34.9345 102.628 34.9345 102.041V97.3H36.8265V101.942C36.8265 102.221 36.8888 102.474 37.0135 102.701C37.1382 102.921 37.3068 103.097 37.5195 103.229C37.7322 103.354 37.9705 103.416 38.2345 103.416C38.5132 103.416 38.7588 103.354 38.9715 103.229C39.1915 103.097 39.3675 102.921 39.4995 102.701C39.6315 102.474 39.6975 102.221 39.6975 101.942V97.3H41.5235V102.041C41.5235 102.628 41.3805 103.148 41.0945 103.603C40.8158 104.058 40.4272 104.417 39.9285 104.681C39.4298 104.938 38.8652 105.066 38.2345 105.066ZM43.4006 105V97.3H46.8656C47.357 97.3 47.8006 97.4063 48.1966 97.619C48.6 97.8317 48.9153 98.125 49.1426 98.499C49.37 98.8657 49.4836 99.2837 49.4836 99.753C49.4836 100.237 49.37 100.673 49.1426 101.062C48.9153 101.443 48.6036 101.744 48.2076 101.964C47.8116 102.184 47.3643 102.294 46.8656 102.294H45.1826V105H43.4006ZM47.6686 105L45.7106 101.524L47.6246 101.249L49.8026 105H47.6686ZM45.1826 100.864H46.7006C46.8913 100.864 47.0563 100.824 47.1956 100.743C47.3423 100.655 47.4523 100.534 47.5256 100.38C47.6063 100.226 47.6466 100.05 47.6466 99.852C47.6466 99.654 47.6026 99.4817 47.5146 99.335C47.4266 99.181 47.2983 99.0637 47.1296 98.983C46.9683 98.9023 46.7703 98.862 46.5356 98.862H45.1826V100.864ZM51.1243 105V97.3H52.7963L56.8333 102.8L56.4703 102.745C56.4336 102.503 56.4043 102.272 56.3823 102.052C56.3603 101.832 56.3383 101.616 56.3163 101.403C56.3016 101.19 56.2869 100.974 56.2723 100.754C56.2649 100.534 56.2576 100.296 56.2503 100.039C56.2503 99.7823 56.2503 99.5037 56.2503 99.203V97.3H58.0653V105H56.3712L52.1583 99.324L52.7193 99.401C52.7559 99.753 52.7853 100.054 52.8073 100.303C52.8366 100.545 52.8586 100.761 52.8733 100.952C52.8953 101.143 52.9099 101.315 52.9173 101.469C52.9246 101.623 52.9283 101.777 52.9283 101.931C52.9356 102.078 52.9393 102.243 52.9393 102.426V105H51.1243Z" fill="#FBFEF9"/>
<path d="M88.6364 48.2045L81.1591 40.8182L88.6364 33.4318V48.2045ZM86.2727 42.5V39.1364H106.886V42.5H86.2727ZM103.625 42.5V27.7273H106.955V42.5H103.625Z" fill="#FBFEF9"/>
</g>
<defs>
<clipPath id="clip0_133_4940">
<rect width="128" height="128" fill="white"/>
</clipPath>
</defs>
</svg>
