<svg width="128" height="128" viewBox="0 0 128 128" fill="none" xmlns="http://www.w3.org/2000/svg">
<path d="M48 25H80H112C119.18 25 125 30.8203 125 38V38.8V55.6V90C125 97.1797 119.18 103 112 103H80H64H48H16C8.8203 103 3 97.1797 3 90V55.6V38C3 30.8203 8.8203 25 16 25H48Z" stroke="#C8CED0" stroke-width="6"/>
<path d="M14.112 81V64.2H25.824V67.68H18.072V77.52H26.064V81H14.112ZM16.032 74.112V70.8H24.744V74.112H16.032ZM29.5808 81V64.2H33.2288L42.0368 76.2L41.2448 76.08C41.1648 75.552 41.1008 75.048 41.0528 74.568C41.0048 74.088 40.9568 73.616 40.9088 73.152C40.8768 72.688 40.8448 72.216 40.8128 71.736C40.7968 71.256 40.7808 70.736 40.7648 70.176C40.7648 69.616 40.7648 69.008 40.7648 68.352V64.2H44.7248V81H41.0287L31.8368 68.616L33.0608 68.784C33.1408 69.552 33.2048 70.208 33.2528 70.752C33.3168 71.28 33.3648 71.752 33.3968 72.168C33.4448 72.584 33.4768 72.96 33.4928 73.296C33.5088 73.632 33.5168 73.968 33.5168 74.304C33.5328 74.624 33.5408 74.984 33.5408 75.384V81H29.5808ZM52.5881 81V67.8H47.5961V64.2H61.7801V67.8H56.6681V81H52.5881ZM64.6667 81V64.2H76.3787V67.68H68.6267V77.52H76.6187V81H64.6667ZM66.5867 74.112V70.8H75.2987V74.112H66.5867ZM80.1354 81V64.2H87.6954C88.7674 64.2 89.7354 64.432 90.5994 64.896C91.4794 65.36 92.1674 66 92.6634 66.816C93.1594 67.616 93.4074 68.528 93.4074 69.552C93.4074 70.608 93.1594 71.56 92.6634 72.408C92.1674 73.24 91.4874 73.896 90.6234 74.376C89.7594 74.856 88.7834 75.096 87.6954 75.096H84.0234V81H80.1354ZM89.4474 81L85.1754 73.416L89.3514 72.816L94.1034 81H89.4474ZM84.0234 71.976H87.3354C87.7514 71.976 88.1114 71.888 88.4154 71.712C88.7354 71.52 88.9754 71.256 89.1354 70.92C89.3114 70.584 89.3994 70.2 89.3994 69.768C89.3994 69.336 89.3034 68.96 89.1114 68.64C88.9194 68.304 88.6394 68.048 88.2714 67.872C87.9194 67.696 87.4874 67.608 86.9754 67.608H84.0234V71.976ZM13.144 94V84.9H17.239C17.8197 84.9 18.344 85.0257 18.812 85.277C19.2887 85.5283 19.6613 85.875 19.93 86.317C20.1987 86.7503 20.333 87.2443 20.333 87.799C20.333 88.371 20.1987 88.8867 19.93 89.346C19.6613 89.7967 19.293 90.152 18.825 90.412C18.357 90.672 17.8283 90.802 17.239 90.802H15.25V94H13.144ZM18.188 94L15.874 89.892L18.136 89.567L20.71 94H18.188ZM15.25 89.112H17.044C17.2693 89.112 17.4643 89.0643 17.629 88.969C17.8023 88.865 17.9323 88.722 18.019 88.54C18.1143 88.358 18.162 88.15 18.162 87.916C18.162 87.682 18.11 87.4783 18.006 87.305C17.902 87.123 17.7503 86.9843 17.551 86.889C17.3603 86.7937 17.1263 86.746 16.849 86.746H15.25V89.112ZM22.2719 94V84.9H28.6159V86.785H24.4169V92.115H28.7459V94H22.2719ZM23.3119 90.269V88.475H28.0309V90.269H23.3119ZM32.6268 94V86.85H29.9228V84.9H37.6058V86.85H34.8368V94H32.6268ZM43.0044 94.078C42.2504 94.078 41.5787 93.9263 40.9894 93.623C40.4001 93.311 39.9364 92.8863 39.5984 92.349C39.2691 91.8117 39.1044 91.1963 39.1044 90.503V84.9H41.3404V90.386C41.3404 90.7153 41.4141 91.0143 41.5614 91.283C41.7087 91.543 41.9081 91.751 42.1594 91.907C42.4107 92.0543 42.6924 92.128 43.0044 92.128C43.3337 92.128 43.6241 92.0543 43.8754 91.907C44.1354 91.751 44.3434 91.543 44.4994 91.283C44.6554 91.0143 44.7334 90.7153 44.7334 90.386V84.9H46.8914V90.503C46.8914 91.1963 46.7224 91.8117 46.3844 92.349C46.0551 92.8863 45.5957 93.311 45.0064 93.623C44.4171 93.9263 43.7497 94.078 43.0044 94.078ZM49.1098 94V84.9H53.2048C53.7855 84.9 54.3098 85.0257 54.7778 85.277C55.2545 85.5283 55.6272 85.875 55.8958 86.317C56.1645 86.7503 56.2988 87.2443 56.2988 87.799C56.2988 88.371 56.1645 88.8867 55.8958 89.346C55.6272 89.7967 55.2588 90.152 54.7908 90.412C54.3228 90.672 53.7942 90.802 53.2048 90.802H51.2158V94H49.1098ZM54.1538 94L51.8398 89.892L54.1018 89.567L56.6758 94H54.1538ZM51.2158 89.112H53.0098C53.2352 89.112 53.4302 89.0643 53.5948 88.969C53.7682 88.865 53.8982 88.722 53.9848 88.54C54.0802 88.358 54.1278 88.15 54.1278 87.916C54.1278 87.682 54.0758 87.4783 53.9718 87.305C53.8678 87.123 53.7162 86.9843 53.5168 86.889C53.3262 86.7937 53.0922 86.746 52.8148 86.746H51.2158V89.112ZM58.2378 94V84.9H60.2138L64.9848 91.4L64.5558 91.335C64.5124 91.049 64.4778 90.776 64.4518 90.516C64.4258 90.256 64.3998 90.0003 64.3738 89.749C64.3564 89.4977 64.3391 89.242 64.3218 88.982C64.3131 88.722 64.3044 88.4403 64.2958 88.137C64.2958 87.8337 64.2958 87.5043 64.2958 87.149V84.9H66.4408V94H64.4387L59.4598 87.292L60.1228 87.383C60.1661 87.799 60.2008 88.1543 60.2268 88.449C60.2614 88.735 60.2874 88.9907 60.3048 89.216C60.3308 89.4413 60.3481 89.645 60.3568 89.827C60.3654 90.009 60.3698 90.191 60.3698 90.373C60.3784 90.5463 60.3828 90.7413 60.3828 90.958V94H58.2378Z" fill="#FBFEF9"/>
<path d="M18.6477 49.2528L13.9744 44.6364L18.6477 40.0199V49.2528ZM17.1705 45.6875V43.5852H30.054V45.6875H17.1705ZM28.0156 45.6875V36.4545H30.0966V45.6875H28.0156Z" fill="#FBFEF9"/>
</svg>
