<svg width="128" height="128" viewBox="0 0 128 128" fill="none" xmlns="http://www.w3.org/2000/svg">
<path d="M52 11H76H96C103.18 11 109 16.8203 109 24V30.4V52.8V104C109 111.18 103.18 117 96 117H76H64H52H32C24.8203 117 19 111.18 19 104V52.8V24C19 16.8203 24.8203 11 32 11H52Z" stroke="#C8CED0" stroke-width="6"/>
<path d="M40.8502 48V44.568H43.6822V34.632H40.8502V31.2H50.6182V34.632H47.7622V44.568H50.6182V48H40.8502ZM54.4987 48V31.2H58.1467L64.2667 41.16L61.6507 41.136L67.8427 31.2H71.3467V48H67.3867V42.768C67.3867 41.328 67.4187 40.032 67.4827 38.88C67.5627 37.728 67.6907 36.584 67.8667 35.448L68.3227 36.696L63.6667 43.92H62.0827L57.5227 36.744L57.9787 35.448C58.1547 36.52 58.2747 37.624 58.3387 38.76C58.4187 39.88 58.4587 41.216 58.4587 42.768V48H54.4987ZM75.569 48V31.2H87.281V34.68H79.529V44.52H87.521V48H75.569ZM77.489 41.112V37.8H86.201V41.112H77.489ZM49.525 93.36C47.605 93.36 45.853 93.036 44.269 92.388C42.685 91.74 41.305 90.828 40.129 89.652C38.953 88.476 38.041 87.096 37.393 85.512C36.745 83.928 36.421 82.188 36.421 80.292C36.421 78.396 36.745 76.656 37.393 75.072C38.041 73.488 38.953 72.108 40.129 70.932C41.305 69.756 42.685 68.844 44.269 68.196C45.853 67.548 47.593 67.224 49.489 67.224C51.385 67.224 53.125 67.548 54.709 68.196C56.293 68.844 57.673 69.756 58.849 70.932C60.025 72.108 60.925 73.488 61.549 75.072C62.197 76.656 62.521 78.396 62.521 80.292C62.521 82.164 62.197 83.904 61.549 85.512C60.925 87.096 60.025 88.476 58.849 89.652C57.673 90.828 56.293 91.74 54.709 92.388C53.125 93.036 51.397 93.36 49.525 93.36ZM49.489 87.6C50.473 87.6 51.373 87.42 52.189 87.06C53.029 86.7 53.749 86.196 54.349 85.548C54.973 84.876 55.453 84.096 55.789 83.208C56.125 82.32 56.293 81.348 56.293 80.292C56.293 79.236 56.125 78.264 55.789 77.376C55.453 76.488 54.973 75.72 54.349 75.072C53.749 74.4 53.029 73.884 52.189 73.524C51.373 73.164 50.473 72.984 49.489 72.984C48.505 72.984 47.593 73.164 46.753 73.524C45.937 73.884 45.217 74.4 44.593 75.072C43.969 75.72 43.489 76.488 43.153 77.376C42.841 78.264 42.685 79.236 42.685 80.292C42.685 81.348 42.841 82.332 43.153 83.244C43.489 84.132 43.969 84.9 44.593 85.548C45.217 86.196 45.937 86.7 46.753 87.06C47.593 87.42 48.505 87.6 49.489 87.6ZM67.2559 93V67.8H72.7279L85.9399 85.8L84.7519 85.62C84.6319 84.828 84.5359 84.072 84.4639 83.352C84.3919 82.632 84.3199 81.924 84.2479 81.228C84.1999 80.532 84.1519 79.824 84.1039 79.104C84.0799 78.384 84.0559 77.604 84.0319 76.764C84.0319 75.924 84.0319 75.012 84.0319 74.028V67.8H89.9719V93H84.4279L70.6399 74.424L72.4759 74.676C72.5959 75.828 72.6919 76.812 72.7639 77.628C72.8599 78.42 72.9319 79.128 72.9799 79.752C73.0519 80.376 73.0999 80.94 73.1239 81.444C73.1479 81.948 73.1599 82.452 73.1599 82.956C73.1839 83.436 73.1959 83.976 73.1959 84.576V93H67.2559Z" fill="#FBFEF9"/>
</svg>
