<svg width="128" height="128" viewBox="0 0 128 128" fill="none" xmlns="http://www.w3.org/2000/svg">
<path d="M52 11H76H96C103.18 11 109 16.8203 109 24V30.4V52.8V104C109 111.18 103.18 117 96 117H76H64H52H32C24.8203 117 19 111.18 19 104V52.8V24C19 16.8203 24.8203 11 32 11H52Z" stroke="#C8CED0" stroke-width="6"/>
<path d="M69.632 50.672H79.168V54.288H71.808C73.024 55.184 75.424 56.336 79.52 56.976L77.536 61.264C75.072 60.624 70.784 59.472 67.84 55.536C65.408 59.088 60.352 60.56 58.048 61.2L55.84 57.104C57.728 56.784 61.504 56.144 63.488 54.288H56.544V51.792C54.688 56.688 52.48 59.6 51.52 60.88L48.352 56.976C50.464 54.128 52.352 50.576 53.632 47.312L57.184 50.032C57.056 50.384 57.024 50.512 56.96 50.672H65.152C65.28 49.968 65.312 49.68 65.376 49.328H57.536V45.968H65.504V44.624H57.792V37.456H61.312V36.048H56.672V34.704L54.368 37.776C52.96 36.528 50.88 35.184 48.992 34.352L51.584 30.736C53.92 31.696 55.712 32.72 56.672 33.424V32.24H61.312V30.672H65.632V32.24H69.76V30.672H74.176V32.24H79.168V36.048H74.176V37.456H77.792V44.624H69.92V45.968H78.08V49.328H69.824C69.728 50.032 69.664 50.384 69.632 50.672ZM69.76 37.456V36.048H65.632V37.456H69.76ZM65.504 41.872V40.144H62.176V41.872H65.504ZM73.376 41.872V40.144H69.92V41.872H73.376ZM56.128 42.224L53.6 46C52.832 45.328 51.36 44.016 48.384 42.448L50.816 38.832C54.176 40.496 55.328 41.52 56.128 42.224ZM54.176 79.056V77.68H49.696V68.848H61.536V66.736H66.4V68.848H78.336V77.616H73.504V79.088C71.2 80.88 68.16 82.416 66.72 83.152H79.072V87.632H66.432V93.936C66.432 95.056 66.4 96.976 63.744 96.976H56.352L55.456 92.24H60.448C61.184 92.24 61.472 91.952 61.472 91.216V87.632H48.928V83.152H61.568V80.528H64.032C65.408 79.824 65.568 79.728 66.56 79.056H54.176ZM54.496 74.8H73.504V73.04H54.496V74.8Z" fill="#FBFEF9"/>
</svg>
