<svg width="128" height="128" viewBox="0 0 128 128" fill="none" xmlns="http://www.w3.org/2000/svg">
<path d="M52 19H76H96C103.18 19 109 24.8203 109 32V35.2V54.4V96C109 103.18 103.18 109 96 109H76H64H52H32C24.8203 109 19 103.18 19 96V54.4V32C19 24.8203 24.8203 19 32 19H52Z" stroke="#C8CED0" stroke-width="6"/>
<path d="M37.6121 69.44L36.2041 64.864L47.3081 53.6H53.7401L37.6121 69.44ZM33.6441 76V53.6H39.0841V76H33.6441ZM48.0121 76L39.6921 65.056L43.3721 61.888L54.3481 76H48.0121ZM57.3004 76V53.6H72.9164V58.24H62.5804V71.36H73.2364V76H57.3004ZM59.8604 66.816V62.4H71.4764V66.816H59.8604ZM83.7174 76V64.832L83.9414 66.4L74.8854 53.6H81.0614L87.9734 63.52L85.1574 63.424L91.3974 53.6H97.3814L88.7094 66.752L89.1894 64.576V76H83.7174Z" fill="#FBFEF9"/>
</svg>
