<svg width="128" height="128" viewBox="0 0 128 128" fill="none" xmlns="http://www.w3.org/2000/svg">
<path d="M52 19H76H96C103.18 19 109 24.8203 109 32V35.2V54.4V96C109 103.18 103.18 109 96 109H76H64H52H32C24.8203 109 19 103.18 19 96V54.4V32C19 24.8203 24.8203 19 32 19H52Z" stroke="#C8CED0" stroke-width="6"/>
<path d="M41.2678 59V45H44.3078L51.6478 55L50.9878 54.9C50.9211 54.46 50.8678 54.04 50.8278 53.64C50.7878 53.24 50.7478 52.8467 50.7078 52.46C50.6811 52.0733 50.6545 51.68 50.6278 51.28C50.6145 50.88 50.6011 50.4467 50.5878 49.98C50.5878 49.5133 50.5878 49.0067 50.5878 48.46V45H53.8878V59H50.8078L43.1478 48.68L44.1678 48.82C44.2345 49.46 44.2878 50.0067 44.3278 50.46C44.3811 50.9 44.4211 51.2933 44.4478 51.64C44.4878 51.9867 44.5145 52.3 44.5278 52.58C44.5411 52.86 44.5478 53.14 44.5478 53.42C44.5611 53.6867 44.5678 53.9867 44.5678 54.32V59H41.2678ZM63.3006 59.12C62.1406 59.12 61.1073 58.8867 60.2006 58.42C59.294 57.94 58.5806 57.2867 58.0606 56.46C57.554 55.6333 57.3006 54.6867 57.3006 53.62V45H60.7406V53.44C60.7406 53.9467 60.854 54.4067 61.0806 54.82C61.3073 55.22 61.614 55.54 62.0006 55.78C62.3873 56.0067 62.8206 56.12 63.3006 56.12C63.8073 56.12 64.254 56.0067 64.6406 55.78C65.0406 55.54 65.3606 55.22 65.6006 54.82C65.8406 54.4067 65.9606 53.9467 65.9606 53.44V45H69.2806V53.62C69.2806 54.6867 69.0206 55.6333 68.5006 56.46C67.994 57.2867 67.2873 57.94 66.3806 58.42C65.474 58.8867 64.4473 59.12 63.3006 59.12ZM72.6936 59V45H75.7336L80.8336 53.3L78.6536 53.28L83.8136 45H86.7336V59H83.4336V54.64C83.4336 53.44 83.4603 52.36 83.5136 51.4C83.5803 50.44 83.6869 49.4867 83.8336 48.54L84.2136 49.58L80.3336 55.6H79.0136L75.2136 49.62L75.5936 48.54C75.7403 49.4333 75.8403 50.3533 75.8936 51.3C75.9603 52.2333 75.9936 53.3467 75.9936 54.64V59H72.6936ZM37.4104 84V70H40.8104V81H47.0504V84H37.4104ZM55.5873 84.2C54.5206 84.2 53.5473 84.02 52.6673 83.66C51.7873 83.3 51.0206 82.7933 50.3673 82.14C49.7139 81.4867 49.2073 80.72 48.8473 79.84C48.4873 78.96 48.3073 77.9933 48.3073 76.94C48.3073 75.8867 48.4873 74.92 48.8473 74.04C49.2073 73.16 49.7139 72.3933 50.3673 71.74C51.0206 71.0867 51.7873 70.58 52.6673 70.22C53.5473 69.86 54.5139 69.68 55.5673 69.68C56.6206 69.68 57.5873 69.86 58.4673 70.22C59.3473 70.58 60.1139 71.0867 60.7673 71.74C61.4206 72.3933 61.9206 73.16 62.2673 74.04C62.6273 74.92 62.8073 75.8867 62.8073 76.94C62.8073 77.98 62.6273 78.9467 62.2673 79.84C61.9206 80.72 61.4206 81.4867 60.7673 82.14C60.1139 82.7933 59.3473 83.3 58.4673 83.66C57.5873 84.02 56.6273 84.2 55.5873 84.2ZM55.5673 81C56.1139 81 56.6139 80.9 57.0673 80.7C57.5339 80.5 57.9339 80.22 58.2673 79.86C58.6139 79.4867 58.8806 79.0533 59.0673 78.56C59.2539 78.0667 59.3473 77.5267 59.3473 76.94C59.3473 76.3533 59.2539 75.8133 59.0673 75.32C58.8806 74.8267 58.6139 74.4 58.2673 74.04C57.9339 73.6667 57.5339 73.38 57.0673 73.18C56.6139 72.98 56.1139 72.88 55.5673 72.88C55.0206 72.88 54.5139 72.98 54.0473 73.18C53.5939 73.38 53.1939 73.6667 52.8473 74.04C52.5006 74.4 52.2339 74.8267 52.0473 75.32C51.8739 75.8133 51.7873 76.3533 51.7873 76.94C51.7873 77.5267 51.8739 78.0733 52.0473 78.58C52.2339 79.0733 52.5006 79.5 52.8473 79.86C53.1939 80.22 53.5939 80.5 54.0473 80.7C54.5139 80.9 55.0206 81 55.5673 81ZM71.7977 84.2C70.7444 84.2 69.7711 84.0267 68.8777 83.68C67.9977 83.32 67.2311 82.82 66.5777 82.18C65.9244 81.5267 65.4177 80.76 65.0577 79.88C64.7111 78.9867 64.5377 78.0067 64.5377 76.94C64.5377 75.9 64.7244 74.94 65.0977 74.06C65.4711 73.18 65.9844 72.42 66.6377 71.78C67.3044 71.1267 68.0844 70.62 68.9777 70.26C69.8844 69.9 70.8711 69.72 71.9377 69.72C72.6044 69.72 73.2577 69.8067 73.8977 69.98C74.5377 70.1533 75.1311 70.4133 75.6777 70.76C76.2377 71.0933 76.7177 71.4933 77.1177 71.96L75.0377 74.34C74.7577 74.0467 74.4577 73.7933 74.1377 73.58C73.8311 73.3533 73.4911 73.18 73.1177 73.06C72.7444 72.94 72.3444 72.88 71.9177 72.88C71.3844 72.88 70.8777 72.98 70.3977 73.18C69.9311 73.3667 69.5177 73.64 69.1577 74C68.8111 74.3467 68.5377 74.7733 68.3377 75.28C68.1377 75.7867 68.0377 76.3533 68.0377 76.98C68.0377 77.5933 68.1377 78.1533 68.3377 78.66C68.5377 79.1533 68.8177 79.58 69.1777 79.94C69.5377 80.3 69.9711 80.5733 70.4777 80.76C70.9977 80.9467 71.5711 81.04 72.1977 81.04C72.6244 81.04 73.0311 80.98 73.4177 80.86C73.8044 80.74 74.1577 80.58 74.4777 80.38C74.8111 80.1667 75.1044 79.9267 75.3577 79.66L76.9977 82.26C76.6644 82.6333 76.2177 82.9667 75.6577 83.26C75.1111 83.5533 74.4977 83.7867 73.8177 83.96C73.1511 84.12 72.4777 84.2 71.7977 84.2ZM81.8045 79.9L80.9245 77.04L87.8645 70H91.8845L81.8045 79.9ZM79.3245 84V70H82.7245V84H79.3245ZM88.3045 84L83.1045 77.16L85.4045 75.18L92.2645 84H88.3045Z" fill="#FBFEF9"/>
</svg>
