<svg width="128" height="128" viewBox="0 0 128 128" fill="none" xmlns="http://www.w3.org/2000/svg">
<path d="M52 19H76H96C103.18 19 109 24.8203 109 32V35.2V54.4V96C109 103.18 103.18 109 96 109H76H64H52H32C24.8203 109 19 103.18 19 96V54.4V32C19 24.8203 24.8203 19 32 19H52Z" stroke="#C8CED0" stroke-width="6"/>
<path d="M33.7331 61V44.2H40.9811C42.0371 44.2 42.9731 44.44 43.7891 44.92C44.6211 45.4 45.2771 46.056 45.7571 46.888C46.2531 47.72 46.5011 48.656 46.5011 49.696C46.5011 50.784 46.2531 51.76 45.7571 52.624C45.2771 53.472 44.6211 54.144 43.7891 54.64C42.9731 55.136 42.0371 55.384 40.9811 55.384H37.8131V61H33.7331ZM37.7411 51.808H40.4051C40.7571 51.808 41.0771 51.72 41.3651 51.544C41.6531 51.368 41.8851 51.128 42.0611 50.824C42.2371 50.52 42.3251 50.168 42.3251 49.768C42.3251 49.352 42.2371 49 42.0611 48.712C41.8851 48.424 41.6531 48.2 41.3651 48.04C41.0771 47.88 40.7571 47.8 40.4051 47.8H37.7411V51.808ZM45.9174 61L52.5654 44.2H56.0214L62.6214 61H58.4934L55.3254 52.48C55.1974 52.144 55.0694 51.784 54.9414 51.4C54.8134 51.016 54.6854 50.624 54.5574 50.224C54.4294 49.808 54.3014 49.408 54.1734 49.024C54.0614 48.624 53.9654 48.256 53.8854 47.92L54.6054 47.896C54.5094 48.296 54.3974 48.688 54.2694 49.072C54.1574 49.456 54.0374 49.84 53.9094 50.224C53.7974 50.592 53.6694 50.968 53.5254 51.352C53.3814 51.72 53.2454 52.104 53.1174 52.504L49.9494 61H45.9174ZM49.0854 57.784L50.3574 54.712H58.0854L59.3334 57.784H49.0854ZM72.0487 61.24C70.7047 61.24 69.4887 61.024 68.4007 60.592C67.3127 60.16 66.3767 59.552 65.5927 58.768C64.8087 57.984 64.2087 57.064 63.7927 56.008C63.3767 54.936 63.1687 53.776 63.1687 52.528C63.1687 51.28 63.3847 50.136 63.8167 49.096C64.2647 48.04 64.8967 47.12 65.7127 46.336C66.5287 45.552 67.4887 44.944 68.5927 44.512C69.7127 44.08 70.9287 43.864 72.2407 43.864C73.1687 43.864 74.0407 43.984 74.8567 44.224C75.6887 44.464 76.4407 44.792 77.1127 45.208C77.7847 45.624 78.3527 46.104 78.8167 46.648L76.3447 49.264C75.9447 48.88 75.5287 48.56 75.0967 48.304C74.6807 48.048 74.2327 47.848 73.7527 47.704C73.2727 47.544 72.7607 47.464 72.2167 47.464C71.5127 47.464 70.8647 47.592 70.2727 47.848C69.6967 48.104 69.1847 48.464 68.7367 48.928C68.3047 49.376 67.9687 49.912 67.7287 50.536C67.4887 51.144 67.3687 51.808 67.3687 52.528C67.3687 53.248 67.4967 53.92 67.7527 54.544C68.0087 55.168 68.3607 55.712 68.8087 56.176C69.2567 56.624 69.7847 56.984 70.3927 57.256C71.0167 57.512 71.6807 57.64 72.3847 57.64C72.8807 57.64 73.3447 57.56 73.7767 57.4C74.2247 57.24 74.6087 57.024 74.9287 56.752C75.2487 56.48 75.5047 56.16 75.6967 55.792C75.8887 55.408 75.9847 55 75.9847 54.568V53.944L76.5127 54.76H71.8807V51.568H79.7767C79.8087 51.744 79.8327 51.984 79.8487 52.288C79.8647 52.592 79.8727 52.888 79.8727 53.176C79.8887 53.464 79.8967 53.68 79.8967 53.824C79.8967 54.912 79.6967 55.912 79.2967 56.824C78.9127 57.72 78.3687 58.496 77.6647 59.152C76.9607 59.808 76.1287 60.32 75.1687 60.688C74.2087 61.056 73.1687 61.24 72.0487 61.24ZM83.0222 61V44.2H94.7342V47.68H86.9822V57.52H94.9742V61H83.0222ZM84.9422 54.112V50.8H93.6542V54.112H84.9422ZM31.9709 86V72H37.8309C38.8576 72 39.7976 72.1733 40.6509 72.52C41.5043 72.8533 42.2376 73.3333 42.8509 73.96C43.4776 74.5867 43.9576 75.3267 44.2909 76.18C44.6243 77.0333 44.7909 77.9733 44.7909 79C44.7909 80.0267 44.6243 80.9733 44.2909 81.84C43.9576 82.6933 43.4776 83.4333 42.8509 84.06C42.2376 84.6733 41.5043 85.1533 40.6509 85.5C39.7976 85.8333 38.8576 86 37.8309 86H31.9709ZM35.3709 83.68L34.9109 83H37.7309C38.2909 83 38.7909 82.9067 39.2309 82.72C39.6709 82.52 40.0443 82.2467 40.3509 81.9C40.6709 81.5533 40.9176 81.1333 41.0909 80.64C41.2643 80.1467 41.3509 79.6 41.3509 79C41.3509 78.4 41.2643 77.8533 41.0909 77.36C40.9176 76.8667 40.6709 76.4467 40.3509 76.1C40.0443 75.7533 39.6709 75.4867 39.2309 75.3C38.7909 75.1 38.2909 75 37.7309 75H34.8509L35.3709 74.36V83.68ZM53.8002 86.2C52.7335 86.2 51.7602 86.02 50.8802 85.66C50.0002 85.3 49.2335 84.7933 48.5802 84.14C47.9268 83.4867 47.4202 82.72 47.0602 81.84C46.7002 80.96 46.5202 79.9933 46.5202 78.94C46.5202 77.8867 46.7002 76.92 47.0602 76.04C47.4202 75.16 47.9268 74.3933 48.5802 73.74C49.2335 73.0867 50.0002 72.58 50.8802 72.22C51.7602 71.86 52.7268 71.68 53.7802 71.68C54.8335 71.68 55.8002 71.86 56.6802 72.22C57.5602 72.58 58.3268 73.0867 58.9802 73.74C59.6335 74.3933 60.1335 75.16 60.4802 76.04C60.8402 76.92 61.0202 77.8867 61.0202 78.94C61.0202 79.98 60.8402 80.9467 60.4802 81.84C60.1335 82.72 59.6335 83.4867 58.9802 84.14C58.3268 84.7933 57.5602 85.3 56.6802 85.66C55.8002 86.02 54.8402 86.2 53.8002 86.2ZM53.7802 83C54.3268 83 54.8268 82.9 55.2802 82.7C55.7468 82.5 56.1468 82.22 56.4802 81.86C56.8268 81.4867 57.0935 81.0533 57.2802 80.56C57.4668 80.0667 57.5602 79.5267 57.5602 78.94C57.5602 78.3533 57.4668 77.8133 57.2802 77.32C57.0935 76.8267 56.8268 76.4 56.4802 76.04C56.1468 75.6667 55.7468 75.38 55.2802 75.18C54.8268 74.98 54.3268 74.88 53.7802 74.88C53.2335 74.88 52.7268 74.98 52.2602 75.18C51.8068 75.38 51.4068 75.6667 51.0602 76.04C50.7135 76.4 50.4468 76.8267 50.2602 77.32C50.0868 77.8133 50.0002 78.3533 50.0002 78.94C50.0002 79.5267 50.0868 80.0733 50.2602 80.58C50.4468 81.0733 50.7135 81.5 51.0602 81.86C51.4068 82.22 51.8068 82.5 52.2602 82.7C52.7268 82.9 53.2335 83 53.7802 83ZM66.073 86L61.873 72H65.333L67.433 79.36C67.5263 79.6933 67.6063 80.0333 67.673 80.38C67.753 80.7133 67.813 81.0333 67.853 81.34C67.9063 81.6467 67.9463 81.9333 67.973 82.2C67.9996 82.4533 68.0263 82.6667 68.053 82.84H67.613C67.693 82.3467 67.7596 81.9067 67.813 81.52C67.8796 81.1333 67.953 80.7733 68.033 80.44C68.113 80.0933 68.213 79.7333 68.333 79.36L70.413 73.82H73.133L75.173 79.36C75.333 79.8 75.4663 80.2133 75.573 80.6C75.6796 80.9867 75.7596 81.36 75.813 81.72C75.8796 82.0667 75.933 82.4133 75.973 82.76L75.573 82.82C75.5996 82.58 75.6196 82.36 75.633 82.16C75.6463 81.9467 75.6596 81.7467 75.673 81.56C75.6996 81.36 75.7263 81.1533 75.753 80.94C75.7796 80.7267 75.8196 80.4933 75.873 80.24C75.9263 79.9733 75.9996 79.6733 76.093 79.34L78.173 72H81.553L77.353 86H74.753L71.433 77.94L71.813 77.98L68.753 86H66.073ZM83.4163 86V72H86.4563L93.7963 82L93.1363 81.9C93.0696 81.46 93.0163 81.04 92.9763 80.64C92.9363 80.24 92.8963 79.8467 92.8563 79.46C92.8296 79.0733 92.8029 78.68 92.7763 78.28C92.7629 77.88 92.7496 77.4467 92.7363 76.98C92.7363 76.5133 92.7363 76.0067 92.7363 75.46V72H96.0363V86H92.9562L85.2963 75.68L86.3163 75.82C86.3829 76.46 86.4363 77.0067 86.4763 77.46C86.5296 77.9 86.5696 78.2933 86.5963 78.64C86.6363 78.9867 86.6629 79.3 86.6763 79.58C86.6896 79.86 86.6963 80.14 86.6963 80.42C86.7096 80.6867 86.7163 80.9867 86.7163 81.32V86H83.4163Z" fill="#FBFEF9"/>
</svg>
