<svg width="128" height="128" viewBox="0 0 128 128" fill="none" xmlns="http://www.w3.org/2000/svg">
<path d="M52 19H76H96C103.18 19 109 24.8203 109 32V35.2V54.4V96C109 103.18 103.18 109 96 109H76H64H52H32C24.8203 109 19 103.18 19 96V54.4V32C19 24.8203 24.8203 19 32 19H52Z" stroke="#C8CED0" stroke-width="6"/>
<path d="M38.9705 70V58.8H43.8025C44.5065 58.8 45.1305 58.96 45.6745 59.28C46.2292 59.6 46.6665 60.0373 46.9865 60.592C47.3172 61.1467 47.4825 61.7707 47.4825 62.464C47.4825 63.1893 47.3172 63.84 46.9865 64.416C46.6665 64.9813 46.2292 65.4293 45.6745 65.76C45.1305 66.0907 44.5065 66.256 43.8025 66.256H41.6905V70H38.9705ZM41.6425 63.872H43.4185C43.6532 63.872 43.8665 63.8133 44.0585 63.696C44.2505 63.5787 44.4052 63.4187 44.5225 63.216C44.6398 63.0133 44.6985 62.7787 44.6985 62.512C44.6985 62.2347 44.6398 62 44.5225 61.808C44.4052 61.616 44.2505 61.4667 44.0585 61.36C43.8665 61.2533 43.6532 61.2 43.4185 61.2H41.6425V63.872ZM47.0934 70L51.5254 58.8H53.8294L58.2294 70H55.4774L53.3654 64.32C53.28 64.096 53.1947 63.856 53.1094 63.6C53.024 63.344 52.9387 63.0827 52.8534 62.816C52.768 62.5387 52.6827 62.272 52.5974 62.016C52.5227 61.7493 52.4587 61.504 52.4054 61.28L52.8854 61.264C52.8214 61.5307 52.7467 61.792 52.6614 62.048C52.5867 62.304 52.5067 62.56 52.4214 62.816C52.3467 63.0613 52.2614 63.312 52.1654 63.568C52.0694 63.8133 51.9787 64.0693 51.8934 64.336L49.7814 70H47.0934ZM49.2054 67.856L50.0534 65.808H55.2054L56.0374 67.856H49.2054ZM64.0343 70.096C63.1063 70.096 62.2796 69.9093 61.5543 69.536C60.8289 69.152 60.2583 68.6293 59.8423 67.968C59.4369 67.3067 59.2343 66.5493 59.2343 65.696V58.8H61.9863V65.552C61.9863 65.9573 62.0769 66.3253 62.2583 66.656C62.4396 66.976 62.6849 67.232 62.9943 67.424C63.3036 67.6053 63.6503 67.696 64.0343 67.696C64.4396 67.696 64.7969 67.6053 65.1063 67.424C65.4263 67.232 65.6823 66.976 65.8743 66.656C66.0663 66.3253 66.1623 65.9573 66.1623 65.552V58.8H68.8183V65.696C68.8183 66.5493 68.6103 67.3067 68.1943 67.968C67.7889 68.6293 67.2236 69.152 66.4983 69.536C65.7729 69.9093 64.9516 70.096 64.0343 70.096ZM75.1044 70.16C74.3684 70.16 73.7017 70.0747 73.1044 69.904C72.5177 69.7227 71.995 69.4667 71.5364 69.136C71.0777 68.7947 70.667 68.3947 70.3044 67.936L71.9524 66.064C72.4857 66.7787 73.019 67.2587 73.5524 67.504C74.0964 67.7493 74.6564 67.872 75.2324 67.872C75.5204 67.872 75.7817 67.8347 76.0164 67.76C76.251 67.6853 76.4324 67.5787 76.5604 67.44C76.6884 67.2907 76.7524 67.1093 76.7524 66.896C76.7524 66.736 76.7097 66.592 76.6244 66.464C76.5497 66.336 76.443 66.224 76.3044 66.128C76.1657 66.032 76.0004 65.9467 75.8084 65.872C75.6164 65.7867 75.4137 65.7173 75.2004 65.664C74.987 65.6 74.7684 65.5467 74.5444 65.504C73.9257 65.3653 73.387 65.1947 72.9284 64.992C72.4697 64.7893 72.0857 64.544 71.7764 64.256C71.4777 63.9573 71.2537 63.6213 71.1044 63.248C70.955 62.864 70.8804 62.4373 70.8804 61.968C70.8804 61.4667 70.9924 61.008 71.2164 60.592C71.451 60.1653 71.7604 59.8027 72.1444 59.504C72.539 59.1947 72.9924 58.96 73.5044 58.8C74.0164 58.6293 74.5497 58.544 75.1044 58.544C75.8404 58.544 76.4697 58.624 76.9924 58.784C77.5257 58.9333 77.979 59.152 78.3524 59.44C78.7364 59.728 79.0617 60.0747 79.3284 60.48L77.6484 62.096C77.4244 61.8187 77.179 61.5893 76.9124 61.408C76.6564 61.2267 76.379 61.088 76.0804 60.992C75.7924 60.896 75.4937 60.848 75.1844 60.848C74.8644 60.848 74.587 60.8907 74.3524 60.976C74.1284 61.0507 73.9524 61.1627 73.8244 61.312C73.6964 61.4507 73.6324 61.6213 73.6324 61.824C73.6324 62.0053 73.6857 62.16 73.7924 62.288C73.899 62.416 74.043 62.5333 74.2244 62.64C74.4057 62.736 74.6137 62.8213 74.8484 62.896C75.083 62.96 75.3284 63.0133 75.5844 63.056C76.171 63.1733 76.699 63.328 77.1684 63.52C77.6484 63.712 78.059 63.9467 78.4004 64.224C78.7524 64.5013 79.019 64.832 79.2004 65.216C79.3924 65.5893 79.4884 66.0267 79.4884 66.528C79.4884 67.3067 79.2964 67.968 78.9124 68.512C78.539 69.0453 78.0217 69.456 77.3604 69.744C76.7097 70.0213 75.9577 70.16 75.1044 70.16ZM81.533 70V58.8H89.341V61.12H84.173V67.68H89.501V70H81.533ZM82.813 65.408V63.2H88.621V65.408H82.813Z" fill="#FBFEF9"/>
</svg>
