<svg width="128" height="128" viewBox="0 0 128 128" fill="none" xmlns="http://www.w3.org/2000/svg">
<path d="M48 25H80H112C119.18 25 125 30.8203 125 38V38.8V55.6V90C125 97.1797 119.18 103 112 103H80H64H48H16C8.8203 103 3 97.1797 3 90V55.6V38C3 30.8203 8.8203 25 16 25H48Z" stroke="#C8CED0" stroke-width="6"/>
<path d="M13.76 90V76H20.06C20.9533 76 21.76 76.1933 22.48 76.58C23.2133 76.9667 23.7867 77.5 24.2 78.18C24.6133 78.8467 24.82 79.6067 24.82 80.46C24.82 81.34 24.6133 82.1333 24.2 82.84C23.7867 83.5333 23.22 84.08 22.5 84.48C21.78 84.88 20.9667 85.08 20.06 85.08H17V90H13.76ZM21.52 90L17.96 83.68L21.44 83.18L25.4 90H21.52ZM17 82.48H19.76C20.1067 82.48 20.4067 82.4067 20.66 82.26C20.9267 82.1 21.1267 81.88 21.26 81.6C21.4067 81.32 21.48 81 21.48 80.64C21.48 80.28 21.4 79.9667 21.24 79.7C21.08 79.42 20.8467 79.2067 20.54 79.06C20.2467 78.9133 19.8867 78.84 19.46 78.84H17V82.48ZM27.803 90V76H37.563V78.9H31.103V87.1H37.763V90H27.803ZM29.403 84.26V81.5H36.663V84.26H29.403ZM43.7336 90V79H39.5736V76H51.3936V79H47.1336V90H43.7336ZM59.6991 90.12C58.5391 90.12 57.5057 89.8867 56.5991 89.42C55.6924 88.94 54.9791 88.2867 54.4591 87.46C53.9524 86.6333 53.6991 85.6867 53.6991 84.62V76H57.1391V84.44C57.1391 84.9467 57.2524 85.4067 57.4791 85.82C57.7057 86.22 58.0124 86.54 58.3991 86.78C58.7857 87.0067 59.2191 87.12 59.6991 87.12C60.2057 87.12 60.6524 87.0067 61.0391 86.78C61.4391 86.54 61.7591 86.22 61.9991 85.82C62.2391 85.4067 62.3591 84.9467 62.3591 84.44V76H65.6791V84.62C65.6791 85.6867 65.4191 86.6333 64.8991 87.46C64.3924 88.2867 63.6857 88.94 62.7791 89.42C61.8724 89.8867 60.8457 90.12 59.6991 90.12ZM69.092 90V76H75.392C76.2854 76 77.092 76.1933 77.812 76.58C78.5454 76.9667 79.1187 77.5 79.532 78.18C79.9454 78.8467 80.152 79.6067 80.152 80.46C80.152 81.34 79.9454 82.1333 79.532 82.84C79.1187 83.5333 78.552 84.08 77.832 84.48C77.112 84.88 76.2987 85.08 75.392 85.08H72.332V90H69.092ZM76.852 90L73.292 83.68L76.772 83.18L80.732 90H76.852ZM72.332 82.48H75.092C75.4387 82.48 75.7387 82.4067 75.992 82.26C76.2587 82.1 76.4587 81.88 76.592 81.6C76.7387 81.32 76.812 81 76.812 80.64C76.812 80.28 76.732 79.9667 76.572 79.7C76.412 79.42 76.1787 79.2067 75.872 79.06C75.5787 78.9133 75.2187 78.84 74.792 78.84H72.332V82.48ZM83.135 90V76H86.175L93.515 86L92.855 85.9C92.7883 85.46 92.735 85.04 92.695 84.64C92.655 84.24 92.615 83.8467 92.575 83.46C92.5483 83.0733 92.5217 82.68 92.495 82.28C92.4817 81.88 92.4683 81.4467 92.455 80.98C92.455 80.5133 92.455 80.0067 92.455 79.46V76H95.755V90H92.675L85.015 79.68L86.035 79.82C86.1017 80.46 86.155 81.0067 86.195 81.46C86.2483 81.9 86.2883 82.2933 86.315 82.64C86.355 82.9867 86.3817 83.3 86.395 83.58C86.4083 83.86 86.415 84.14 86.415 84.42C86.4283 84.6867 86.435 84.9867 86.435 85.32V90H83.135Z" fill="#FBFEF9"/>
<path d="M23.9659 61.8551L15.554 53.5455L23.9659 45.2358V61.8551ZM21.3068 55.4375V51.6534H44.4972V55.4375H21.3068ZM40.8281 55.4375V38.8182H44.5739V55.4375H40.8281Z" fill="#FBFEF9"/>
</svg>
