<svg width="128" height="128" viewBox="0 0 128 128" fill="none" xmlns="http://www.w3.org/2000/svg">
<path d="M48 35H80H115.2C120.612 35 125 39.3876 125 44.8V57.6V80C125 87.1797 119.18 93 112 93H80H64H48H16C8.8203 93 3 87.1797 3 80V57.6V48C3 40.8203 8.8203 35 16 35H48Z" stroke="#C8CED0" stroke-width="6"/>
<path d="M35.9586 72.2C35.0386 72.2 34.2053 72.0933 33.4586 71.88C32.7253 71.6533 32.0719 71.3333 31.4986 70.92C30.9253 70.4933 30.4119 69.9933 29.9586 69.42L32.0186 67.08C32.6853 67.9733 33.3519 68.5733 34.0186 68.88C34.6986 69.1867 35.3986 69.34 36.1186 69.34C36.4786 69.34 36.8053 69.2933 37.0986 69.2C37.3919 69.1067 37.6186 68.9733 37.7786 68.8C37.9386 68.6133 38.0186 68.3867 38.0186 68.12C38.0186 67.92 37.9653 67.74 37.8586 67.58C37.7653 67.42 37.6319 67.28 37.4586 67.16C37.2853 67.04 37.0786 66.9333 36.8386 66.84C36.5986 66.7333 36.3453 66.6467 36.0786 66.58C35.8119 66.5 35.5386 66.4333 35.2586 66.38C34.4853 66.2067 33.8119 65.9933 33.2386 65.74C32.6653 65.4867 32.1853 65.18 31.7986 64.82C31.4253 64.4467 31.1453 64.0267 30.9586 63.56C30.7719 63.08 30.6786 62.5467 30.6786 61.96C30.6786 61.3333 30.8186 60.76 31.0986 60.24C31.3919 59.7067 31.7786 59.2533 32.2586 58.88C32.7519 58.4933 33.3186 58.2 33.9586 58C34.5986 57.7867 35.2653 57.68 35.9586 57.68C36.8786 57.68 37.6653 57.78 38.3186 57.98C38.9853 58.1667 39.5519 58.44 40.0186 58.8C40.4986 59.16 40.9053 59.5933 41.2386 60.1L39.1386 62.12C38.8586 61.7733 38.5519 61.4867 38.2186 61.26C37.8986 61.0333 37.5519 60.86 37.1786 60.74C36.8186 60.62 36.4453 60.56 36.0586 60.56C35.6586 60.56 35.3119 60.6133 35.0186 60.72C34.7386 60.8133 34.5186 60.9533 34.3586 61.14C34.1986 61.3133 34.1186 61.5267 34.1186 61.78C34.1186 62.0067 34.1853 62.2 34.3186 62.36C34.4519 62.52 34.6319 62.6667 34.8586 62.8C35.0853 62.92 35.3453 63.0267 35.6386 63.12C35.9319 63.2 36.2386 63.2667 36.5586 63.32C37.2919 63.4667 37.9519 63.66 38.5386 63.9C39.1386 64.14 39.6519 64.4333 40.0786 64.78C40.5186 65.1267 40.8519 65.54 41.0786 66.02C41.3186 66.4867 41.4386 67.0333 41.4386 67.66C41.4386 68.6333 41.1986 69.46 40.7186 70.14C40.2519 70.8067 39.6053 71.32 38.7786 71.68C37.9653 72.0267 37.0253 72.2 35.9586 72.2ZM43.9944 72V58H50.0344C50.9144 58 51.6944 58.2 52.3744 58.6C53.0677 59 53.6144 59.5467 54.0144 60.24C54.4277 60.9333 54.6344 61.7133 54.6344 62.58C54.6344 63.4867 54.4277 64.3 54.0144 65.02C53.6144 65.7267 53.0677 66.2867 52.3744 66.7C51.6944 67.1133 50.9144 67.32 50.0344 67.32H47.3944V72H43.9944ZM47.3344 64.34H49.5544C49.8477 64.34 50.1144 64.2667 50.3544 64.12C50.5944 63.9733 50.7877 63.7733 50.9344 63.52C51.081 63.2667 51.1544 62.9733 51.1544 62.64C51.1544 62.2933 51.081 62 50.9344 61.76C50.7877 61.52 50.5944 61.3333 50.3544 61.2C50.1144 61.0667 49.8477 61 49.5544 61H47.3344V64.34ZM54.148 72L59.688 58H62.568L68.068 72H64.628L61.988 64.9C61.8813 64.62 61.7746 64.32 61.668 64C61.5613 63.68 61.4546 63.3533 61.348 63.02C61.2413 62.6733 61.1346 62.34 61.028 62.02C60.9346 61.6867 60.8546 61.38 60.788 61.1L61.388 61.08C61.308 61.4133 61.2146 61.74 61.108 62.06C61.0146 62.38 60.9146 62.7 60.808 63.02C60.7146 63.3267 60.608 63.64 60.488 63.96C60.368 64.2667 60.2546 64.5867 60.148 64.92L57.508 72H54.148ZM56.788 69.32L57.848 66.76H64.288L65.328 69.32H56.788ZM75.7841 72.2C74.7307 72.2 73.7574 72.0267 72.8641 71.68C71.9841 71.32 71.2174 70.82 70.5641 70.18C69.9107 69.5267 69.4041 68.76 69.0441 67.88C68.6974 66.9867 68.5241 66.0067 68.5241 64.94C68.5241 63.9 68.7107 62.94 69.0841 62.06C69.4574 61.18 69.9707 60.42 70.6241 59.78C71.2907 59.1267 72.0707 58.62 72.9641 58.26C73.8707 57.9 74.8574 57.72 75.9241 57.72C76.5907 57.72 77.2441 57.8067 77.8841 57.98C78.5241 58.1533 79.1174 58.4133 79.6641 58.76C80.2241 59.0933 80.7041 59.4933 81.1041 59.96L79.0241 62.34C78.7441 62.0467 78.4441 61.7933 78.1241 61.58C77.8174 61.3533 77.4774 61.18 77.1041 61.06C76.7307 60.94 76.3307 60.88 75.9041 60.88C75.3707 60.88 74.8641 60.98 74.3841 61.18C73.9174 61.3667 73.5041 61.64 73.1441 62C72.7974 62.3467 72.5241 62.7733 72.3241 63.28C72.1241 63.7867 72.0241 64.3533 72.0241 64.98C72.0241 65.5933 72.1241 66.1533 72.3241 66.66C72.5241 67.1533 72.8041 67.58 73.1641 67.94C73.5241 68.3 73.9574 68.5733 74.4641 68.76C74.9841 68.9467 75.5574 69.04 76.1841 69.04C76.6107 69.04 77.0174 68.98 77.4041 68.86C77.7907 68.74 78.1441 68.58 78.4641 68.38C78.7974 68.1667 79.0907 67.9267 79.3441 67.66L80.9841 70.26C80.6507 70.6333 80.2041 70.9667 79.6441 71.26C79.0974 71.5533 78.4841 71.7867 77.8041 71.96C77.1374 72.12 76.4641 72.2 75.7841 72.2ZM83.3108 72V58H93.0708V60.9H86.6108V69.1H93.2708V72H83.3108ZM84.9108 66.26V63.5H92.1708V66.26H84.9108Z" fill="#FBFEF9"/>
</svg>
