<svg width="128" height="128" viewBox="0 0 128 128" fill="none" xmlns="http://www.w3.org/2000/svg">
<path d="M48 25H80H112C119.18 25 125 30.8203 125 38V38.8V55.6V90C125 97.1797 119.18 103 112 103H80H64H48H16C8.8203 103 3 97.1797 3 90V55.6V38C3 30.8203 8.8203 25 16 25H48Z" stroke="#C8CED0" stroke-width="6"/>
<path d="M51.7031 76.7812V62.25H55.8281V76.7812H51.7031ZM16.4531 62.5781V48.0469H20.5781V62.5781H16.4531ZM16.4531 71.4375V67.5938H44.2969L39.3281 62.6719L40.6875 60.0469L54.4688 69.5156L40.6875 78.9844L39.3281 76.3594L44.2969 71.4375H16.4531ZM17.8125 55.3125L31.5469 45.8438L32.9531 48.5156L27.9375 53.3906H55.8281V57.2812H27.9375L32.9531 62.1562L31.5469 64.8281L17.8125 55.3125Z" fill="#FBFEF9"/>
</svg>
