<svg width="128" height="128" viewBox="0 0 128 128" fill="none" xmlns="http://www.w3.org/2000/svg">
<path d="M20 103H108C108.552 103 109 102.552 109 102V54C109 37.9837 96.0163 25 80 25H48C31.9837 25 19 37.9837 19 54V102C19 102.552 19.4477 103 20 103Z" fill="#191923" stroke="#C8CED0" stroke-width="6"/>
<path d="M43.71 85V62.6H49.15V80.2H62.718V85H43.71ZM69.587 85L68.435 81.832L75.091 75.944C75.7097 75.3893 76.3283 74.824 76.947 74.248C77.5657 73.6507 78.1417 73.0533 78.675 72.456C79.2083 71.8373 79.635 71.2507 79.955 70.696C80.2963 70.12 80.467 69.5973 80.467 69.128C80.467 68.68 80.3497 68.2853 80.115 67.944C79.9017 67.6027 79.5817 67.336 79.155 67.144C78.7283 66.9307 78.2057 66.824 77.587 66.824C76.9683 66.824 76.339 66.9413 75.699 67.176C75.0803 67.4107 74.483 67.7947 73.907 68.328C73.331 68.84 72.7657 69.5227 72.211 70.376L68.211 68.04C68.8937 66.9307 69.7257 65.928 70.707 65.032C71.7097 64.1147 72.8403 63.4 74.099 62.888C75.379 62.3547 76.7443 62.088 78.195 62.088C79.731 62.088 81.075 62.3653 82.227 62.92C83.4003 63.4747 84.307 64.232 84.947 65.192C85.6083 66.152 85.939 67.2507 85.939 68.488C85.939 69.1707 85.8217 69.8427 85.587 70.504C85.3523 71.1653 85.0217 71.816 84.595 72.456C84.1683 73.096 83.6777 73.7253 83.123 74.344C82.5897 74.9413 82.0137 75.5387 81.395 76.136C80.7763 76.7333 80.1363 77.2987 79.475 77.832L73.587 82.984L73.427 80.2H86.931V85H69.587Z" fill="#FBFEF9"/>
</svg>
