<svg width="128" height="128" viewBox="0 0 128 128" fill="none" xmlns="http://www.w3.org/2000/svg">
<path d="M108 109H20C19.4477 109 19 108.552 19 108V48C19 31.9837 31.9837 19 48 19H64C88.8528 19 109 39.1472 109 64V108C109 108.552 108.552 109 108 109Z" fill="#191923" stroke="#C8CED0" stroke-width="6"/>
<path d="M41.9913 88V65.6H54.4073C56.1353 65.6 57.6073 65.8987 58.8233 66.496C60.0606 67.072 61.0099 67.904 61.6713 68.992C62.3539 70.0587 62.6953 71.3173 62.6953 72.768C62.6953 74.1973 62.3219 75.4773 61.5753 76.608C60.8499 77.7387 59.8579 78.6347 58.5993 79.296C57.3619 79.936 55.9646 80.256 54.4073 80.256H47.1753V88H41.9913ZM57.6393 88L50.4073 77.888L56.0713 77.088L63.9433 88H57.6393ZM47.1753 76.096H53.7993C54.4179 76.096 54.9833 75.968 55.4953 75.712C56.0073 75.456 56.4233 75.104 56.7433 74.656C57.0633 74.1867 57.2233 73.6427 57.2233 73.024C57.2233 72.448 57.0633 71.9467 56.7433 71.52C56.4233 71.072 55.9966 70.7307 55.4633 70.496C54.9299 70.2613 54.3219 70.144 53.6393 70.144H47.1753V76.096ZM71.3058 88L70.1538 84.832L76.8098 78.944C77.4284 78.3893 78.0471 77.824 78.6658 77.248C79.2844 76.6507 79.8604 76.0533 80.3938 75.456C80.9271 74.8373 81.3538 74.2507 81.6738 73.696C82.0151 73.12 82.1858 72.5973 82.1858 72.128C82.1858 71.68 82.0684 71.2853 81.8338 70.944C81.6204 70.6027 81.3004 70.336 80.8738 70.144C80.4471 69.9307 79.9244 69.824 79.3058 69.824C78.6871 69.824 78.0578 69.9413 77.4178 70.176C76.7991 70.4107 76.2018 70.7947 75.6258 71.328C75.0498 71.84 74.4844 72.5227 73.9298 73.376L69.9298 71.04C70.6124 69.9307 71.4444 68.928 72.4258 68.032C73.4284 67.1147 74.5591 66.4 75.8177 65.888C77.0978 65.3547 78.4631 65.088 79.9138 65.088C81.4498 65.088 82.7938 65.3653 83.9458 65.92C85.1191 66.4747 86.0258 67.232 86.6658 68.192C87.3271 69.152 87.6578 70.2507 87.6578 71.488C87.6578 72.1707 87.5404 72.8427 87.3058 73.504C87.0711 74.1653 86.7404 74.816 86.3138 75.456C85.8871 76.096 85.3964 76.7253 84.8418 77.344C84.3084 77.9413 83.7324 78.5387 83.1138 79.136C82.4951 79.7333 81.8551 80.2987 81.1938 80.832L75.3058 85.984L75.1458 83.2H88.6498V88H71.3058Z" fill="#FBFEF9"/>
</svg>
