<svg width="128" height="128" viewBox="0 0 128 128" fill="none" xmlns="http://www.w3.org/2000/svg">
<circle cx="63.9922" cy="64" r="45" stroke="#2E2836" stroke-width="6"/>
<circle cx="63.9922" cy="64" r="39" stroke="#2E2836" stroke-width="6"/>
<path d="M127.383 62.971C127.763 63.6044 127.763 64.3956 127.383 65.029L119.715 77.8084C118.671 79.5477 116 78.8078 116 76.7794V51.2206C116 49.1922 118.671 48.4523 119.715 50.1916L127.383 62.971Z" fill="#FBFEF9"/>
<path d="M0.617396 65.029C0.237377 64.3956 0.237376 63.6044 0.617395 62.971L8.28501 50.1916C9.32864 48.4523 12 49.1922 12 51.2206L12 76.7794C12 78.8078 9.32864 79.5477 8.28501 77.8084L0.617396 65.029Z" fill="#FBFEF9"/>
<circle cx="63.9844" cy="64" r="45" stroke="#C8CED0" stroke-width="6"/>
<circle cx="63.9844" cy="64" r="39" fill="#FBFEF9" stroke="#2E2836" stroke-width="6"/>
<circle cx="63.9766" cy="64" r="41.5" stroke="#FBFEF9" stroke-width="5"/>
<path d="M53.2926 79V51H57.6126V74.84H76.3326V79H53.2926Z" fill="#191923"/>
</svg>
