<svg width="128" height="128" viewBox="0 0 128 128" fill="none" xmlns="http://www.w3.org/2000/svg">
<path d="M92 31C110.225 31 125 45.7746 125 64C125 82.2254 110.225 97 92 97H36C17.7746 97 3 82.2254 3 64C3 45.7746 17.7746 31 36 31H92Z" fill="#191923" stroke="#C8CED0" stroke-width="6"/>
<path d="M22.7766 76V53.6H32.1206C33.55 53.6 34.7553 53.8133 35.7366 54.24C36.718 54.6667 37.454 55.3067 37.9446 56.16C38.4566 56.992 38.7126 58.016 38.7126 59.232C38.7126 60.448 38.3713 61.4827 37.6886 62.336C37.0273 63.1893 36.0993 63.776 34.9046 64.096V63.456C35.9073 63.6693 36.782 64.0533 37.5286 64.608C38.2753 65.1413 38.8513 65.8133 39.2566 66.624C39.6833 67.4347 39.8966 68.3627 39.8966 69.408C39.8966 70.4747 39.726 71.424 39.3846 72.256C39.0646 73.0667 38.574 73.7493 37.9126 74.304C37.2726 74.8587 36.494 75.2853 35.5766 75.584C34.6593 75.8613 33.614 76 32.4406 76H22.7766ZM26.2326 72.672H32.2486C33.1233 72.672 33.8593 72.544 34.4566 72.288C35.0753 72.032 35.5446 71.6587 35.8646 71.168C36.206 70.656 36.3766 70.048 36.3766 69.344C36.3766 68.6827 36.1953 68.1173 35.8326 67.648C35.4913 67.1787 35.0006 66.8267 34.3606 66.592C33.7206 66.336 32.9633 66.208 32.0886 66.208H26.2326V72.672ZM26.2326 62.88H31.9286C32.5686 62.88 33.134 62.752 33.6246 62.496C34.1366 62.24 34.5313 61.888 34.8086 61.44C35.1073 60.992 35.2566 60.48 35.2566 59.904C35.2566 58.944 34.9366 58.208 34.2966 57.696C33.6566 57.184 32.7393 56.928 31.5446 56.928H26.2326V62.88ZM42.2219 76L50.8939 53.6H54.4139L63.0219 76H59.3419L54.2219 62.496C54.1579 62.3467 54.0299 61.984 53.8379 61.408C53.6672 60.832 53.4645 60.192 53.2299 59.488C52.9952 58.784 52.7819 58.144 52.5899 57.568C52.3979 56.9707 52.2699 56.5867 52.2059 56.416L52.9419 56.384C52.8139 56.7467 52.6539 57.2053 52.4619 57.76C52.2912 58.3147 52.0992 58.9013 51.8859 59.52C51.6939 60.1387 51.5019 60.7253 51.3099 61.28C51.1179 61.8133 50.9579 62.2613 50.8299 62.624L45.7419 76H42.2219ZM46.0619 70.432L47.3419 67.104H57.5179L58.9899 70.432H46.0619ZM75.4271 76.32C73.8698 76.32 72.4405 76.0427 71.1391 75.488C69.8378 74.9333 68.7071 74.144 67.7471 73.12C66.7871 72.0747 66.0405 70.848 65.5071 69.44C64.9951 68.032 64.7391 66.4853 64.7391 64.8C64.7391 63.2 65.0165 61.7173 65.5711 60.352C66.1471 58.9653 66.9365 57.7493 67.9391 56.704C68.9418 55.6587 70.1045 54.848 71.4271 54.272C72.7498 53.696 74.1791 53.408 75.7151 53.408C76.8031 53.408 77.8591 53.5787 78.8831 53.92C79.9285 54.24 80.8671 54.6987 81.6991 55.296C82.5525 55.872 83.2458 56.5333 83.7791 57.28L81.4751 59.68C80.8565 59.0613 80.2271 58.5493 79.5871 58.144C78.9685 57.7173 78.3285 57.3973 77.6671 57.184C77.0271 56.9707 76.3765 56.864 75.7151 56.864C74.6698 56.864 73.6885 57.0667 72.7711 57.472C71.8751 57.856 71.0858 58.4 70.4031 59.104C69.7418 59.808 69.2191 60.6507 68.8351 61.632C68.4511 62.592 68.2591 63.648 68.2591 64.8C68.2591 66.016 68.4405 67.1253 68.8031 68.128C69.1871 69.1093 69.7205 69.952 70.4031 70.656C71.0858 71.36 71.8965 71.904 72.8351 72.288C73.7951 72.6507 74.8511 72.832 76.0031 72.832C76.7071 72.832 77.4005 72.736 78.0831 72.544C78.7658 72.352 79.4058 72.0747 80.0031 71.712C80.6005 71.3493 81.1445 70.9227 81.6351 70.432L83.3631 73.248C82.8725 73.824 82.2005 74.3467 81.3471 74.816C80.5151 75.2853 79.5765 75.6587 78.5311 75.936C77.5071 76.192 76.4725 76.32 75.4271 76.32ZM90.9379 69.216L90.7459 65.344L102.49 53.6H107.034L90.9379 69.216ZM88.0579 76V53.6H91.5139V76H88.0579ZM102.906 76L94.3299 64.544L96.8899 62.336L107.226 76H102.906Z" fill="#FBFEF9"/>
</svg>
