<svg width="128" height="128" viewBox="0 0 128 128" fill="none" xmlns="http://www.w3.org/2000/svg">
<path d="M74.5 13H53.5H26C25.4477 13 25 13.4477 25 14V114C25 114.552 25.4477 115 26 115H53.5H64H74.5H102C102.552 115 103 114.552 103 114V53.2V41.5C103 25.7599 90.2401 13 74.5 13Z" fill="#191923" stroke="#C8CED0" stroke-width="6"/>
<path d="M40.0538 94V71.6H52.4698C54.1978 71.6 55.6698 71.8987 56.8858 72.496C58.1231 73.072 59.0724 73.904 59.7338 74.992C60.4164 76.0587 60.7578 77.3173 60.7578 78.768C60.7578 80.1973 60.3844 81.4773 59.6378 82.608C58.9124 83.7387 57.9204 84.6347 56.6618 85.296C55.4244 85.936 54.0271 86.256 52.4698 86.256H45.2378V94H40.0538ZM55.7018 94L48.4698 83.888L54.1338 83.088L62.0058 94H55.7018ZM45.2378 82.096H51.8618C52.4804 82.096 53.0458 81.968 53.5578 81.712C54.0698 81.456 54.4858 81.104 54.8058 80.656C55.1258 80.1867 55.2858 79.6427 55.2858 79.024C55.2858 78.448 55.1258 77.9467 54.8058 77.52C54.4858 77.072 54.0591 76.7307 53.5258 76.496C52.9924 76.2613 52.3844 76.144 51.7018 76.144H45.2378V82.096ZM76.1673 94V76.4H67.7193V71.6H90.2153V76.4H81.6073V94H76.1673Z" fill="#FBFEF9"/>
</svg>
