<svg width="128" height="128" viewBox="0 0 128 128" fill="none" xmlns="http://www.w3.org/2000/svg">
<path d="M52 25H76H96C103.18 25 109 30.8203 109 38V38.8V55.6V90C109 97.1797 103.18 103 96 103H76H64H52H32C24.8203 103 19 97.1797 19 90V55.6V38C19 30.8203 24.8203 25 32 25H52Z" stroke="#2E2836" stroke-width="6"/>
<path d="M34.1858 79V51H39.3858V79H34.1858ZM36.5858 67.52V62.8H51.0258V67.52H36.5858ZM36.5858 55.8V51H52.7458V55.8H36.5858ZM63.3617 77.04V54.32L64.8417 56.24L59.1617 59.12L58.0017 54.56L65.6417 50.6H68.5217V77.04H63.3617ZM58.6817 79V74.2H73.3217V79H58.6817ZM78.9002 79L77.5802 75.72L85.9802 66.32C86.4602 65.84 86.9535 65.2933 87.4602 64.68C87.9668 64.04 88.4468 63.3867 88.9002 62.72C89.3802 62.0267 89.7668 61.36 90.0602 60.72C90.3535 60.0533 90.5002 59.44 90.5002 58.88C90.5002 58.16 90.3402 57.5333 90.0202 57C89.7268 56.4667 89.3002 56.0533 88.7402 55.76C88.1802 55.4667 87.4868 55.32 86.6602 55.32C85.9402 55.32 85.2335 55.5333 84.5402 55.96C83.8735 56.36 83.2468 56.9467 82.6602 57.72C82.1002 58.4667 81.6335 59.36 81.2602 60.4L77.3402 58.08C77.8202 56.5333 78.5402 55.2 79.5002 54.08C80.4868 52.9333 81.6335 52.0533 82.9402 51.44C84.2735 50.8267 85.7135 50.52 87.2602 50.52C88.8602 50.52 90.2868 50.8533 91.5402 51.52C92.7935 52.1867 93.7802 53.1067 94.5002 54.28C95.2468 55.4533 95.6202 56.8267 95.6202 58.4C95.6202 58.9867 95.5535 59.6 95.4202 60.24C95.2868 60.8533 95.0735 61.5067 94.7802 62.2C94.5135 62.8667 94.1535 63.5733 93.7002 64.32C93.2468 65.04 92.7002 65.8 92.0602 66.6C91.4468 67.4 90.7402 68.24 89.9402 69.12L83.5802 76.04L82.7802 74.2H96.6202V79H78.9002Z" fill="#191923"/>
</svg>
