<svg width="128" height="128" viewBox="0 0 128 128" fill="none" xmlns="http://www.w3.org/2000/svg">
<path d="M52 25H76H96C103.18 25 109 30.8203 109 38V38.8V55.6V90C109 97.1797 103.18 103 96 103H76H64H52H32C24.8203 103 19 97.1797 19 90V55.6V38C19 30.8203 24.8203 25 32 25H52Z" stroke="#2E2836" stroke-width="6"/>
<path d="M34.1272 79V51H39.3272V79H34.1272ZM36.5272 67.52V62.8H50.9672V67.52H36.5272ZM36.5272 55.8V51H52.6872V55.8H36.5272ZM63.3031 77.04V54.32L64.7831 56.24L59.1031 59.12L57.9431 54.56L65.5831 50.6H68.4631V77.04H63.3031ZM58.6231 79V74.2H73.2631V79H58.6231ZM86.1616 79.4C84.0816 79.4 82.2682 78.9467 80.7216 78.04C79.1749 77.1067 77.7482 75.5333 76.4416 73.32L80.3616 70.84C80.9749 71.8267 81.6016 72.6267 82.2416 73.24C82.9082 73.8267 83.5749 74.2667 84.2416 74.56C84.9349 74.8267 85.6682 74.96 86.4416 74.96C87.3216 74.96 88.1216 74.7467 88.8416 74.32C89.5882 73.8933 90.1749 73.3067 90.6016 72.56C91.0549 71.8133 91.2816 70.96 91.2816 70C91.2816 69.04 91.0949 68.2267 90.7216 67.56C90.3749 66.8933 89.8549 66.3867 89.1616 66.04C88.4949 65.6667 87.6816 65.48 86.7216 65.48C86.2949 65.48 85.8416 65.5333 85.3616 65.64C84.8816 65.72 84.3749 65.8533 83.8416 66.04C83.3082 66.2 82.7216 66.4 82.0816 66.64L80.8016 63.24L88.7616 54.44L89.9616 55.6L78.1616 55.52V50.92H94.6016L95.5616 52.84L86.3616 62.88L85.1616 61.56C85.3749 61.4533 85.7216 61.36 86.2016 61.28C86.7082 61.1733 87.1482 61.12 87.5216 61.12C88.6949 61.12 89.8149 61.3467 90.8816 61.8C91.9482 62.2267 92.8682 62.84 93.6416 63.64C94.4416 64.44 95.0682 65.3733 95.5216 66.44C95.9749 67.48 96.2016 68.6133 96.2016 69.84C96.2016 71.68 95.7482 73.32 94.8416 74.76C93.9616 76.1733 92.7616 77.3067 91.2416 78.16C89.7216 78.9867 88.0282 79.4 86.1616 79.4Z" fill="#191923"/>
</svg>
