<svg width="128" height="128" viewBox="0 0 128 128" fill="none" xmlns="http://www.w3.org/2000/svg">
<path d="M52 25H76H96C103.18 25 109 30.8203 109 38V38.8V55.6V90C109 97.1797 103.18 103 96 103H76H64H52H32C24.8203 103 19 97.1797 19 90V55.6V38C19 30.8203 24.8203 25 32 25H52Z" stroke="#2E2836" stroke-width="6"/>
<path d="M33.8342 79V51H39.0342V79H33.8342ZM36.2342 67.52V62.8H50.6742V67.52H36.2342ZM36.2342 55.8V51H52.3942V55.8H36.2342ZM63.0102 77.04V54.32L64.4902 56.24L58.8102 59.12L57.6502 54.56L65.2902 50.6H68.1702V77.04H63.0102ZM58.3302 79V74.2H72.9702V79H58.3302ZM86.7886 79C85.3753 79 84.0553 78.7467 82.8286 78.24C81.6286 77.7333 80.5753 77.04 79.6686 76.16C78.7886 75.2533 78.0953 74.2 77.5886 73C77.0819 71.8 76.8286 70.48 76.8286 69.04C76.8286 68.24 76.9219 67.3867 77.1086 66.48C77.3219 65.5733 77.6286 64.6133 78.0286 63.6C78.4553 62.56 78.9486 61.48 79.5086 60.36C80.0686 59.24 80.7219 58.0667 81.4686 56.84L85.1886 50.52H90.1486L90.3086 50.92L85.5486 58.76C84.7753 60.04 84.0953 61.2533 83.5086 62.4C82.9219 63.52 82.4153 64.6 81.9886 65.64C81.5886 66.6533 81.2553 67.64 80.9886 68.6L79.9086 64.96C80.3086 64.1067 80.8019 63.3333 81.3886 62.64C81.9753 61.9467 82.6286 61.36 83.3486 60.88C84.0686 60.4 84.8153 60.04 85.5886 59.8C86.3886 59.56 87.2019 59.44 88.0286 59.44C89.5753 59.44 91.0019 59.8667 92.3086 60.72C93.6153 61.5467 94.6553 62.6533 95.4286 64.04C96.2286 65.4267 96.6286 66.9467 96.6286 68.6C96.6286 70.6 96.2019 72.3867 95.3486 73.96C94.5219 75.5067 93.3619 76.7333 91.8686 77.64C90.3753 78.5467 88.6819 79 86.7886 79ZM86.8286 74.44C87.7886 74.44 88.6419 74.2133 89.3886 73.76C90.1619 73.3067 90.7619 72.68 91.1886 71.88C91.6153 71.0533 91.8286 70.1067 91.8286 69.04C91.8286 68.1333 91.6019 67.2933 91.1486 66.52C90.7219 65.72 90.1353 65.08 89.3886 64.6C88.6419 64.0933 87.8019 63.84 86.8686 63.84C85.8553 63.84 84.9486 64.08 84.1486 64.56C83.3753 65.0133 82.7619 65.64 82.3086 66.44C81.8819 67.2133 81.6686 68.08 81.6686 69.04C81.6686 70.0533 81.8819 70.9733 82.3086 71.8C82.7619 72.6 83.3753 73.24 84.1486 73.72C84.9219 74.2 85.8153 74.44 86.8286 74.44Z" fill="#191923"/>
</svg>
