<svg width="128" height="128" viewBox="0 0 128 128" fill="none" xmlns="http://www.w3.org/2000/svg">
<path d="M52 25H76H96C103.18 25 109 30.8203 109 38V38.8V55.6V90C109 97.1797 103.18 103 96 103H76H64H52H32C24.8203 103 19 97.1797 19 90V55.6V38C19 30.8203 24.8203 25 32 25H52Z" stroke="#2E2836" stroke-width="6"/>
<path d="M34.2248 79V51H39.4248V79H34.2248ZM36.6248 67.52V62.8H51.0648V67.52H36.6248ZM36.6248 55.8V51H52.7848V55.8H36.6248ZM63.4008 77.04V54.32L64.8808 56.24L59.2008 59.12L58.0408 54.56L65.6808 50.6H68.5608V77.04H63.4008ZM58.7208 79V74.2H73.3608V79H58.7208ZM79.7792 79L91.2592 53.64L92.2192 55.6H77.8992V50.92H95.5392L96.1392 53.84L85.1792 79H79.7792Z" fill="#191923"/>
</svg>
