<svg width="128" height="128" viewBox="0 0 128 128" fill="none" xmlns="http://www.w3.org/2000/svg">
<path d="M52 25H76H96C103.18 25 109 30.8203 109 38V38.8V55.6V90C109 97.1797 103.18 103 96 103H76H64H52H32C24.8203 103 19 97.1797 19 90V55.6V38C19 30.8203 24.8203 25 32 25H52Z" stroke="#2E2836" stroke-width="6"/>
<path d="M33.4241 79V51H38.6241V79H33.4241ZM35.8241 67.52V62.8H50.2641V67.52H35.8241ZM35.8241 55.8V51H51.9841V55.8H35.8241ZM62.6 77.04V54.32L64.08 56.24L58.4 59.12L57.24 54.56L64.88 50.6H67.76V77.04H62.6ZM57.92 79V74.2H72.56V79H57.92ZM86.5784 79.12C84.7918 79.12 83.1518 78.76 81.6584 78.04C80.1918 77.2933 79.0184 76.3067 78.1384 75.08C77.2584 73.8267 76.8184 72.44 76.8184 70.92C76.8184 70.0133 76.9384 69.1733 77.1784 68.4C77.4451 67.6267 77.8184 66.9333 78.2984 66.32C78.8051 65.7067 79.4051 65.16 80.0984 64.68C80.8184 64.1733 81.6318 63.7333 82.5384 63.36L82.2184 64.48C81.5251 64.1867 80.8851 63.84 80.2984 63.44C79.7384 63.04 79.2451 62.5867 78.8184 62.08C78.4184 61.5467 78.1118 60.9867 77.8984 60.4C77.6851 59.7867 77.5784 59.1467 77.5784 58.48C77.5784 57.04 77.9784 55.7467 78.7784 54.6C79.6051 53.4533 80.6984 52.5467 82.0584 51.88C83.4184 51.1867 84.9251 50.84 86.5784 50.84C88.2584 50.84 89.7784 51.1867 91.1384 51.88C92.4984 52.5467 93.5784 53.4533 94.3784 54.6C95.2051 55.7467 95.6184 57.04 95.6184 58.48C95.6184 59.1467 95.5118 59.7867 95.2984 60.4C95.0851 60.9867 94.7784 61.5333 94.3784 62.04C94.0051 62.52 93.5251 62.9733 92.9384 63.4C92.3518 63.8 91.6718 64.16 90.8984 64.48L90.6984 63.52C91.5518 63.8133 92.3251 64.2 93.0184 64.68C93.7118 65.16 94.3118 65.72 94.8184 66.36C95.3251 67 95.7118 67.7067 95.9784 68.48C96.2718 69.2533 96.4184 70.0667 96.4184 70.92C96.4184 72.4667 95.9784 73.8667 95.0984 75.12C94.2184 76.3467 93.0318 77.32 91.5384 78.04C90.0718 78.76 88.4184 79.12 86.5784 79.12ZM86.5784 74.64C87.4851 74.64 88.2984 74.4667 89.0184 74.12C89.7384 73.7733 90.2984 73.3067 90.6984 72.72C91.1251 72.1333 91.3384 71.4533 91.3384 70.68C91.3384 69.8533 91.1251 69.1333 90.6984 68.52C90.2984 67.88 89.7384 67.3867 89.0184 67.04C88.2984 66.6667 87.4851 66.48 86.5784 66.48C85.6984 66.48 84.8984 66.6667 84.1784 67.04C83.4851 67.3867 82.9251 67.88 82.4984 68.52C82.0718 69.1333 81.8584 69.8533 81.8584 70.68C81.8584 71.4267 82.0718 72.0933 82.4984 72.68C82.9251 73.2667 83.4851 73.7467 84.1784 74.12C84.8984 74.4667 85.6984 74.64 86.5784 74.64ZM86.5784 62.08C87.3784 62.08 88.0851 61.9333 88.6984 61.64C89.3384 61.3467 89.8318 60.9467 90.1784 60.44C90.5251 59.9333 90.6984 59.3467 90.6984 58.68C90.6984 57.9867 90.5251 57.3867 90.1784 56.88C89.8318 56.3467 89.3384 55.9333 88.6984 55.64C88.0851 55.32 87.3784 55.16 86.5784 55.16C85.8051 55.16 85.0984 55.32 84.4584 55.64C83.8451 55.9333 83.3651 56.3467 83.0184 56.88C82.6718 57.3867 82.4984 57.9867 82.4984 58.68C82.4984 59.3467 82.6718 59.9333 83.0184 60.44C83.3651 60.9467 83.8451 61.3467 84.4584 61.64C85.0984 61.9333 85.8051 62.08 86.5784 62.08Z" fill="#191923"/>
</svg>
