<svg width="128" height="128" viewBox="0 0 128 128" fill="none" xmlns="http://www.w3.org/2000/svg">
<path d="M52 25H76H96C103.18 25 109 30.8203 109 38V38.8V55.6V90C109 97.1797 103.18 103 96 103H76H64H52H32C24.8203 103 19 97.1797 19 90V55.6V38C19 30.8203 24.8203 25 32 25H52Z" stroke="#2E2836" stroke-width="6"/>
<path d="M32.0178 79V51H37.2178V79H32.0178ZM34.4178 67.52V62.8H48.8578V67.52H34.4178ZM34.4178 55.8V51H50.5778V55.8H34.4178ZM55.8338 79L54.5138 75.72L62.9138 66.32C63.3938 65.84 63.8871 65.2933 64.3938 64.68C64.9004 64.04 65.3804 63.3867 65.8338 62.72C66.3138 62.0267 66.7004 61.36 66.9938 60.72C67.2871 60.0533 67.4338 59.44 67.4338 58.88C67.4338 58.16 67.2738 57.5333 66.9538 57C66.6604 56.4667 66.2338 56.0533 65.6738 55.76C65.1138 55.4667 64.4204 55.32 63.5938 55.32C62.8738 55.32 62.1671 55.5333 61.4738 55.96C60.8071 56.36 60.1804 56.9467 59.5938 57.72C59.0338 58.4667 58.5671 59.36 58.1938 60.4L54.2738 58.08C54.7538 56.5333 55.4738 55.2 56.4338 54.08C57.4204 52.9333 58.5671 52.0533 59.8738 51.44C61.2071 50.8267 62.6471 50.52 64.1938 50.52C65.7938 50.52 67.2204 50.8533 68.4738 51.52C69.7271 52.1867 70.7138 53.1067 71.4338 54.28C72.1804 55.4533 72.5538 56.8267 72.5538 58.4C72.5538 58.9867 72.4871 59.6 72.3538 60.24C72.2204 60.8533 72.0071 61.5067 71.7138 62.2C71.4471 62.8667 71.0871 63.5733 70.6338 64.32C70.1804 65.04 69.6338 65.8 68.9938 66.6C68.3804 67.4 67.6738 68.24 66.8738 69.12L60.5138 76.04L59.7138 74.2H73.5538V79H55.8338ZM87.1078 79.4C84.8411 79.4 82.8945 78.8267 81.2678 77.68C79.6678 76.5067 78.4278 74.8533 77.5478 72.72C76.6945 70.56 76.2678 67.9867 76.2678 65C76.2678 62.0133 76.6945 59.4533 77.5478 57.32C78.4278 55.16 79.6678 53.5067 81.2678 52.36C82.8945 51.1867 84.8411 50.6 87.1078 50.6C89.3745 50.6 91.3211 51.1867 92.9478 52.36C94.5745 53.5067 95.8145 55.16 96.6678 57.32C97.5478 59.4533 97.9878 62.0133 97.9878 65C97.9878 67.9867 97.5478 70.56 96.6678 72.72C95.8145 74.8533 94.5745 76.5067 92.9478 77.68C91.3211 78.8267 89.3745 79.4 87.1078 79.4ZM87.1078 74.84C88.9745 74.84 90.4145 73.9867 91.4278 72.28C92.4678 70.5467 92.9878 68.12 92.9878 65C92.9878 61.8533 92.4678 59.4133 91.4278 57.68C90.4145 55.9467 88.9745 55.08 87.1078 55.08C85.2411 55.08 83.7878 55.9467 82.7478 57.68C81.7345 59.4133 81.2278 61.8533 81.2278 65C81.2278 68.12 81.7345 70.5467 82.7478 72.28C83.7878 73.9867 85.2411 74.84 87.1078 74.84Z" fill="#191923"/>
</svg>
