<svg width="128" height="128" viewBox="0 0 128 128" fill="none" xmlns="http://www.w3.org/2000/svg">
<path d="M52 25H76H96C103.18 25 109 30.8203 109 38V38.8V55.6V90C109 97.1797 103.18 103 96 103H76H64H52H32C24.8203 103 19 97.1797 19 90V55.6V38C19 30.8203 24.8203 25 32 25H52Z" stroke="#2E2836" stroke-width="6"/>
<path d="M33.678 79V51H38.878V79H33.678ZM36.078 67.52V62.8H50.518V67.52H36.078ZM36.078 55.8V51H52.238V55.8H36.078ZM57.4939 79L56.1739 75.72L64.5739 66.32C65.0539 65.84 65.5472 65.2933 66.0539 64.68C66.5606 64.04 67.0406 63.3867 67.4939 62.72C67.9739 62.0267 68.3606 61.36 68.6539 60.72C68.9472 60.0533 69.0939 59.44 69.0939 58.88C69.0939 58.16 68.9339 57.5333 68.6139 57C68.3206 56.4667 67.8939 56.0533 67.3339 55.76C66.7739 55.4667 66.0806 55.32 65.2539 55.32C64.5339 55.32 63.8272 55.5333 63.1339 55.96C62.4672 56.36 61.8406 56.9467 61.2539 57.72C60.6939 58.4667 60.2272 59.36 59.8539 60.4L55.9339 58.08C56.4139 56.5333 57.1339 55.2 58.0939 54.08C59.0806 52.9333 60.2272 52.0533 61.5339 51.44C62.8672 50.8267 64.3072 50.52 65.8539 50.52C67.4539 50.52 68.8806 50.8533 70.1339 51.52C71.3872 52.1867 72.3739 53.1067 73.0939 54.28C73.8406 55.4533 74.2139 56.8267 74.2139 58.4C74.2139 58.9867 74.1472 59.6 74.0139 60.24C73.8806 60.8533 73.6672 61.5067 73.3739 62.2C73.1072 62.8667 72.7472 63.5733 72.2939 64.32C71.8406 65.04 71.2939 65.8 70.6539 66.6C70.0406 67.4 69.3339 68.24 68.5339 69.12L62.1739 76.04L61.3739 74.2H75.2139V79H57.4939ZM79.408 79L78.088 75.72L86.488 66.32C86.968 65.84 87.4613 65.2933 87.968 64.68C88.4746 64.04 88.9546 63.3867 89.408 62.72C89.888 62.0267 90.2746 61.36 90.568 60.72C90.8613 60.0533 91.008 59.44 91.008 58.88C91.008 58.16 90.848 57.5333 90.528 57C90.2346 56.4667 89.808 56.0533 89.248 55.76C88.688 55.4667 87.9946 55.32 87.168 55.32C86.448 55.32 85.7413 55.5333 85.048 55.96C84.3813 56.36 83.7546 56.9467 83.168 57.72C82.608 58.4667 82.1413 59.36 81.768 60.4L77.848 58.08C78.328 56.5333 79.048 55.2 80.008 54.08C80.9946 52.9333 82.1413 52.0533 83.448 51.44C84.7813 50.8267 86.2213 50.52 87.768 50.52C89.368 50.52 90.7946 50.8533 92.048 51.52C93.3013 52.1867 94.288 53.1067 95.008 54.28C95.7546 55.4533 96.128 56.8267 96.128 58.4C96.128 58.9867 96.0613 59.6 95.928 60.24C95.7946 60.8533 95.5813 61.5067 95.288 62.2C95.0213 62.8667 94.6613 63.5733 94.208 64.32C93.7546 65.04 93.208 65.8 92.568 66.6C91.9546 67.4 91.248 68.24 90.448 69.12L84.088 76.04L83.288 74.2H97.128V79H79.408Z" fill="#191923"/>
</svg>
