<svg width="128" height="128" viewBox="0 0 128 128" fill="none" xmlns="http://www.w3.org/2000/svg">
<path d="M52 25H76H96C103.18 25 109 30.8203 109 38V38.8V55.6V90C109 97.1797 103.18 103 96 103H76H64H52H32C24.8203 103 19 97.1797 19 90V55.6V38C19 30.8203 24.8203 25 32 25H52Z" stroke="#2E2836" stroke-width="6"/>
<path d="M33.6194 79V51H38.8194V79H33.6194ZM36.0194 67.52V62.8H50.4594V67.52H36.0194ZM36.0194 55.8V51H52.1794V55.8H36.0194ZM57.4353 79L56.1153 75.72L64.5153 66.32C64.9953 65.84 65.4886 65.2933 65.9953 64.68C66.502 64.04 66.982 63.3867 67.4353 62.72C67.9153 62.0267 68.302 61.36 68.5953 60.72C68.8886 60.0533 69.0353 59.44 69.0353 58.88C69.0353 58.16 68.8753 57.5333 68.5553 57C68.262 56.4667 67.8353 56.0533 67.2753 55.76C66.7153 55.4667 66.022 55.32 65.1953 55.32C64.4753 55.32 63.7686 55.5333 63.0753 55.96C62.4086 56.36 61.782 56.9467 61.1953 57.72C60.6353 58.4667 60.1686 59.36 59.7953 60.4L55.8753 58.08C56.3553 56.5333 57.0753 55.2 58.0353 54.08C59.022 52.9333 60.1686 52.0533 61.4753 51.44C62.8086 50.8267 64.2486 50.52 65.7953 50.52C67.3953 50.52 68.822 50.8533 70.0753 51.52C71.3286 52.1867 72.3153 53.1067 73.0353 54.28C73.782 55.4533 74.1553 56.8267 74.1553 58.4C74.1553 58.9867 74.0886 59.6 73.9553 60.24C73.822 60.8533 73.6086 61.5067 73.3153 62.2C73.0486 62.8667 72.6886 63.5733 72.2353 64.32C71.782 65.04 71.2353 65.8 70.5953 66.6C69.982 67.4 69.2753 68.24 68.4753 69.12L62.1153 76.04L61.3153 74.2H75.1553V79H57.4353ZM86.6694 79.4C84.5894 79.4 82.776 78.9467 81.2294 78.04C79.6827 77.1067 78.256 75.5333 76.9494 73.32L80.8694 70.84C81.4827 71.8267 82.1094 72.6267 82.7494 73.24C83.416 73.8267 84.0827 74.2667 84.7494 74.56C85.4427 74.8267 86.176 74.96 86.9494 74.96C87.8294 74.96 88.6294 74.7467 89.3494 74.32C90.096 73.8933 90.6827 73.3067 91.1094 72.56C91.5627 71.8133 91.7894 70.96 91.7894 70C91.7894 69.04 91.6027 68.2267 91.2294 67.56C90.8827 66.8933 90.3627 66.3867 89.6694 66.04C89.0027 65.6667 88.1894 65.48 87.2294 65.48C86.8027 65.48 86.3494 65.5333 85.8694 65.64C85.3894 65.72 84.8827 65.8533 84.3494 66.04C83.816 66.2 83.2294 66.4 82.5894 66.64L81.3094 63.24L89.2694 54.44L90.4694 55.6L78.6694 55.52V50.92H95.1094L96.0694 52.84L86.8694 62.88L85.6694 61.56C85.8827 61.4533 86.2294 61.36 86.7094 61.28C87.216 61.1733 87.656 61.12 88.0294 61.12C89.2027 61.12 90.3227 61.3467 91.3894 61.8C92.456 62.2267 93.376 62.84 94.1494 63.64C94.9494 64.44 95.576 65.3733 96.0294 66.44C96.4827 67.48 96.7094 68.6133 96.7094 69.84C96.7094 71.68 96.256 73.32 95.3494 74.76C94.4694 76.1733 93.2694 77.3067 91.7494 78.16C90.2294 78.9867 88.536 79.4 86.6694 79.4Z" fill="#191923"/>
</svg>
