<svg width="128" height="128" viewBox="0 0 128 128" fill="none" xmlns="http://www.w3.org/2000/svg">
<path d="M52 25H76H96C103.18 25 109 30.8203 109 38V38.8V55.6V90C109 97.1797 103.18 103 96 103H76H64H52H32C24.8203 103 19 97.1797 19 90V55.6V38C19 30.8203 24.8203 25 32 25H52Z" stroke="#2E2836" stroke-width="6"/>
<path d="M40.6917 82V48.4H46.9317V82H40.6917ZM43.5717 68.224V62.56H60.8997V68.224H43.5717ZM43.5717 54.16V48.4H62.9637V54.16H43.5717ZM78.0548 82.48C75.5588 82.48 73.3828 81.936 71.5268 80.848C69.6708 79.728 67.9588 77.84 66.3908 75.184L71.0948 72.208C71.8308 73.392 72.5828 74.352 73.3508 75.088C74.1508 75.792 74.9508 76.32 75.7508 76.672C76.5828 76.992 77.4628 77.152 78.3908 77.152C79.4468 77.152 80.4068 76.896 81.2708 76.384C82.1668 75.872 82.8708 75.168 83.3828 74.272C83.9268 73.376 84.1988 72.352 84.1988 71.2C84.1988 70.048 83.9748 69.072 83.5268 68.272C83.1108 67.472 82.4868 66.864 81.6548 66.448C80.8548 66 79.8788 65.776 78.7268 65.776C78.2148 65.776 77.6708 65.84 77.0948 65.968C76.5188 66.064 75.9108 66.224 75.2708 66.448C74.6308 66.64 73.9268 66.88 73.1588 67.168L71.6228 63.088L81.1748 52.528L82.6148 53.92L68.4548 53.824V48.304H88.1828L89.3348 50.608L78.2948 62.656L76.8548 61.072C77.1108 60.944 77.5268 60.832 78.1028 60.736C78.7108 60.608 79.2388 60.544 79.6868 60.544C81.0948 60.544 82.4388 60.816 83.7188 61.36C84.9988 61.872 86.1028 62.608 87.0308 63.568C87.9908 64.528 88.7428 65.648 89.2868 66.928C89.8308 68.176 90.1028 69.536 90.1028 71.008C90.1028 73.216 89.5588 75.184 88.4708 76.912C87.4148 78.608 85.9748 79.968 84.1508 80.992C82.3268 81.984 80.2948 82.48 78.0548 82.48Z" fill="#191923"/>
</svg>
