<svg width="128" height="128" viewBox="0 0 128 128" fill="none" xmlns="http://www.w3.org/2000/svg">
<path d="M20 79H49V108C49 111.866 52.134 115 56 115H64H72C75.866 115 79 111.866 79 108V79H108C111.866 79 115 75.866 115 72V64V56C115 52.134 111.866 49 108 49H79V20C79 16.134 75.866 13 72 13H64H56C52.134 13 49 16.134 49 20V49H20C16.134 49 13 52.134 13 56V64V72C13 75.866 16.134 79 20 79Z" stroke="#C8CED0" stroke-width="6"/>
<path d="M108 52L76 52L76 76L108 76C110.209 76 112 74.2091 112 72L112 64L112 56C112 53.7909 110.209 52 108 52Z" fill="#FBFEF9"/>
<path d="M20 76L52 76L52 52L20 52C17.7909 52 16 53.7909 16 56L16 64L16 72C16 74.2091 17.7909 76 20 76Z" fill="#FBFEF9"/>
</svg>
