<svg width="128" height="128" viewBox="0 0 128 128" fill="none" xmlns="http://www.w3.org/2000/svg">
<g clip-path="url(#clip0_123_10072)">
<path d="M34.2487 48H10C6.13401 48 3 51.134 3 55V64V73C3 76.866 6.13401 80 10 80H34.2487C36.2024 80 38.0672 79.1835 39.3923 77.748L47.7 68.748C50.1752 66.0665 50.1752 61.9335 47.7 59.252L39.3923 50.252C38.0672 48.8165 36.2024 48 34.2487 48Z" stroke="#C8CED0" stroke-width="6"/>
<path d="M50.252 88.6077L52.2869 90.8121L50.252 88.6077C48.8165 89.9328 48 91.7976 48 93.7513V118C48 121.866 51.134 125 55 125H64H73C76.866 125 80 121.866 80 118V93.7513C80 91.7976 79.1835 89.9328 77.748 88.6077L68.748 80.3C66.0665 77.8248 61.9335 77.8248 59.252 80.3L50.252 88.6077Z" stroke="#C8CED0" stroke-width="6"/>
<path d="M88.6077 50.252L90.8121 52.2869L88.6077 50.252L80.3 59.252C77.8248 61.9335 77.8248 66.0665 80.3 68.748L88.6077 77.748C89.9328 79.1835 91.7976 80 93.7513 80H118C121.866 80 125 76.866 125 73V64V55C125 51.134 121.866 48 118 48H93.7513C91.7976 48 89.9329 48.8165 88.6077 50.252Z" stroke="#C8CED0" stroke-width="6"/>
<path d="M48 10V34.2487C48 36.2024 48.8165 38.0672 50.252 39.3923L59.252 47.7C61.9335 50.1752 66.0665 50.1752 68.748 47.7L77.748 39.3923C79.1835 38.0671 80 36.2024 80 34.2487V10C80 6.13401 76.866 3 73 3H64H55C51.134 3 48 6.13401 48 10Z" stroke="#C8CED0" stroke-width="6"/>
<path d="M34.2487 51H10C7.79086 51 6 52.7909 6 55V64V73C6 75.2091 7.79086 77 10 77H34.2487C35.3651 77 36.4307 76.5334 37.1879 75.7131L45.4956 66.7131C46.91 65.1809 46.91 62.8191 45.4956 61.2869L37.1879 52.2869C36.4307 51.4666 35.3651 51 34.2487 51Z" fill="#FBFEF9"/>
<path d="M118 51H93.7513C92.6349 51 91.5693 51.4665 90.8121 52.2869L82.5044 61.2869C81.09 62.8191 81.09 65.1809 82.5044 66.7131L90.8121 75.7131C91.5693 76.5334 92.6349 77 93.7513 77H118C120.209 77 122 75.2091 122 73V64V55C122 52.7909 120.209 51 118 51Z" fill="#FBFEF9"/>
<path d="M77 118V93.7513C77 92.6349 76.5334 91.5693 75.7131 90.8121L66.7131 82.5044C65.1809 81.09 62.8191 81.09 61.2869 82.5044L52.2869 90.8121C51.4666 91.5693 51 92.6349 51 93.7513V118C51 120.209 52.7909 122 55 122H64H73C75.2091 122 77 120.209 77 118Z" fill="#FBFEF9"/>
<path d="M51 10V34.2487C51 35.3651 51.4666 36.4307 52.2869 37.1879L61.2869 45.4956C62.8191 46.91 65.1809 46.91 66.7131 45.4956L75.7131 37.1879C76.5335 36.4307 77 35.3651 77 34.2487V10C77 7.79086 75.2091 6 73 6H64H55C52.7909 6 51 7.79086 51 10Z" fill="#FBFEF9"/>
</g>
<defs>
<clipPath id="clip0_123_10072">
<rect width="128" height="128" fill="white"/>
</clipPath>
</defs>
</svg>
