<svg width="128" height="128" viewBox="0 0 128 128" fill="none" xmlns="http://www.w3.org/2000/svg">
<path d="M92 31C110.225 31 125 45.7746 125 64C125 82.2254 110.225 97 92 97H36C17.7746 97 3 82.2254 3 64C3 45.7746 17.7746 31 36 31H92Z" stroke="#2E2836" stroke-width="6"/>
<path d="M24.4074 76.32C23.1914 76.32 22.0607 76.16 21.0154 75.84C19.9914 75.52 19.0527 75.04 18.1994 74.4C17.3674 73.7387 16.6207 72.928 15.9594 71.968L18.3274 69.248C19.3727 70.7413 20.3754 71.776 21.3354 72.352C22.2954 72.928 23.4367 73.216 24.7594 73.216C25.57 73.216 26.306 73.088 26.9674 72.832C27.6287 72.576 28.1514 72.224 28.5354 71.776C28.9194 71.328 29.1114 70.816 29.1114 70.24C29.1114 69.856 29.0474 69.4933 28.9194 69.152C28.7914 68.8107 28.5887 68.5013 28.3114 68.224C28.0554 67.9467 27.714 67.6907 27.2874 67.456C26.882 67.2213 26.402 67.0187 25.8474 66.848C25.2927 66.656 24.6527 66.496 23.9274 66.368C22.7754 66.1333 21.7727 65.824 20.9194 65.44C20.066 65.056 19.3514 64.576 18.7754 64C18.1994 63.424 17.7727 62.7733 17.4954 62.048C17.218 61.3013 17.0794 60.4693 17.0794 59.552C17.0794 58.656 17.2714 57.824 17.6554 57.056C18.0607 56.288 18.6047 55.6267 19.2874 55.072C19.9914 54.496 20.8127 54.0587 21.7514 53.76C22.69 53.44 23.7034 53.28 24.7914 53.28C25.9434 53.28 26.9994 53.4293 27.9594 53.728C28.9194 54.0267 29.7727 54.4747 30.5194 55.072C31.266 55.648 31.8847 56.3627 32.3754 57.216L29.9434 59.616C29.5167 58.912 29.0367 58.3253 28.5034 57.856C27.97 57.3653 27.3834 57.0027 26.7434 56.768C26.1034 56.512 25.4207 56.384 24.6954 56.384C23.8634 56.384 23.138 56.512 22.5194 56.768C21.9007 57.024 21.41 57.3867 21.0474 57.856C20.706 58.304 20.5354 58.8373 20.5354 59.456C20.5354 59.904 20.6207 60.32 20.7914 60.704C20.962 61.0667 21.218 61.3973 21.5594 61.696C21.922 61.9733 22.402 62.2293 22.9994 62.464C23.5967 62.6773 24.3114 62.8693 25.1434 63.04C26.3167 63.296 27.362 63.6267 28.2794 64.032C29.1967 64.416 29.9754 64.8747 30.6154 65.408C31.2554 65.9413 31.7354 66.5387 32.0554 67.2C32.3967 67.8613 32.5674 68.576 32.5674 69.344C32.5674 70.7733 32.2367 72.0107 31.5754 73.056C30.914 74.1013 29.9754 74.912 28.7594 75.488C27.5434 76.0427 26.0927 76.32 24.4074 76.32ZM41.7201 76V56.928H35.4481V53.6H51.6401V56.928H45.1761V76H41.7201ZM51.9719 76L60.6439 53.6H64.1639L72.7719 76H69.0919L63.9719 62.496C63.9079 62.3467 63.7799 61.984 63.5879 61.408C63.4172 60.832 63.2145 60.192 62.9799 59.488C62.7452 58.784 62.5319 58.144 62.3399 57.568C62.1479 56.9707 62.0199 56.5867 61.9559 56.416L62.6919 56.384C62.5639 56.7467 62.4039 57.2053 62.2119 57.76C62.0412 58.3147 61.8492 58.9013 61.6359 59.52C61.4439 60.1387 61.2519 60.7253 61.0599 61.28C60.8679 61.8133 60.7079 62.2613 60.5799 62.624L55.4919 76H51.9719ZM55.8119 70.432L57.0919 67.104H67.2679L68.7399 70.432H55.8119ZM76.7141 76V53.6H86.2501C87.5301 53.6 88.7035 53.92 89.7701 54.56C90.8581 55.1787 91.7221 56.032 92.3621 57.12C93.0021 58.1867 93.3221 59.392 93.3221 60.736C93.3221 61.952 93.0021 63.0827 92.3621 64.128C91.7221 65.1733 90.8688 66.016 89.8021 66.656C88.7355 67.2747 87.5515 67.584 86.2501 67.584H80.1701V76H76.7141ZM90.0261 76L84.3301 65.888L87.8821 65.088L94.2181 76.032L90.0261 76ZM80.1701 64.256H86.5701C87.1888 64.256 87.7435 64.1067 88.2341 63.808C88.7248 63.488 89.1088 63.0613 89.3861 62.528C89.6635 61.9733 89.8021 61.3653 89.8021 60.704C89.8021 59.9573 89.6208 59.3067 89.2581 58.752C88.9168 58.176 88.4261 57.728 87.7861 57.408C87.1675 57.088 86.4635 56.928 85.6741 56.928H80.1701V64.256ZM102.595 76V56.928H96.3231V53.6H112.515V56.928H106.051V76H102.595Z" fill="#191923"/>
</svg>
