<svg width="128" height="128" viewBox="0 0 128 128" fill="none" xmlns="http://www.w3.org/2000/svg">
<g clip-path="url(#clip0_131_13923)">
<circle cx="63.9922" cy="64" r="45" stroke="#2E2836" stroke-width="6"/>
<circle cx="63.9922" cy="64" r="39" stroke="#2E2836" stroke-width="6"/>
<circle cx="63.9844" cy="64" r="45" stroke="#C8CED0" stroke-width="6"/>
<circle cx="63.9844" cy="64" r="39" stroke="#C8CED0" stroke-width="6"/>
<circle cx="63.9766" cy="64" r="41.5" stroke="#2E2836" stroke-width="5"/>
<path d="M53.2926 79V51H57.6126V74.84H76.3326V79H53.2926Z" fill="#FBFEF9"/>
<path d="M127.383 62.971C127.763 63.6044 127.763 64.3956 127.383 65.029L119.715 77.8084C118.671 79.5477 116 78.8078 116 76.7794V51.2206C116 49.1922 118.671 48.4523 119.715 50.1916L127.383 62.971Z" fill="#FBFEF9"/>
<path d="M62.971 0.617396C63.6044 0.237377 64.3956 0.237376 65.029 0.617395L77.8084 8.28501C79.5477 9.32864 78.8078 12 76.7794 12L51.2206 12C49.1922 12 48.4523 9.32864 50.1916 8.28501L62.971 0.617396Z" fill="#FBFEF9"/>
</g>
<defs>
<clipPath id="clip0_131_13923">
<rect width="128" height="128" fill="white"/>
</clipPath>
</defs>
</svg>
