<svg width="128" height="128" viewBox="0 0 128 128" fill="none" xmlns="http://www.w3.org/2000/svg">
<path d="M52 19H76H96C103.18 19 109 24.8203 109 32V35.2V54.4V96C109 103.18 103.18 109 96 109H76H64H52H32C24.8203 109 19 103.18 19 96V54.4V32C19 24.8203 24.8203 19 32 19H52Z" fill="#FBFEF9" stroke="#FBFEF9" stroke-width="6"/>
<path d="M53.5 25H74.5H96C99.866 25 103 28.134 103 32V38.8V55.6V96C103 99.866 99.866 103 96 103H74.5H64H53.5H32C28.134 103 25 99.866 25 96V55.6V32C25 28.134 28.134 25 32 25H53.5Z" fill="#FBFEF9" stroke="#C8CED0" stroke-width="6"/>
<path d="M48.0102 82L61.1142 48.4H66.9702L79.9782 82H73.4982L66.2982 62.896C66.1382 62.512 65.9142 61.904 65.6262 61.072C65.3702 60.24 65.0822 59.344 64.7622 58.384C64.4422 57.392 64.1542 56.48 63.8982 55.648C63.6422 54.784 63.4502 54.16 63.3222 53.776L64.5222 53.728C64.3302 54.368 64.1062 55.088 63.8502 55.888C63.5942 56.688 63.3222 57.52 63.0342 58.384C62.7462 59.248 62.4582 60.08 62.1702 60.88C61.9142 61.68 61.6742 62.4 61.4502 63.04L54.2502 82H48.0102ZM53.9622 74.32L56.1222 68.896H71.4342L73.7382 74.32H53.9622Z" fill="#191923"/>
</svg>
