<svg width="128" height="128" viewBox="0 0 128 128" fill="none" xmlns="http://www.w3.org/2000/svg">
<path d="M52 19H76H96C103.18 19 109 24.8203 109 32V35.2V54.4V96C109 103.18 103.18 109 96 109H76H64H52H32C24.8203 109 19 103.18 19 96V54.4V32C19 24.8203 24.8203 19 32 19H52Z" fill="#FBFEF9" stroke="#FBFEF9" stroke-width="6"/>
<path d="M53.5 25H74.5H96C99.866 25 103 28.134 103 32V38.8V55.6V96C103 99.866 99.866 103 96 103H74.5H64H53.5H32C28.134 103 25 99.866 25 96V55.6V32C25 28.134 28.134 25 32 25H53.5Z" fill="#FBFEF9" stroke="#C8CED0" stroke-width="6"/>
<path d="M51.9886 82V48.4H66.2926C68.5006 48.4 70.3566 48.72 71.8606 49.36C73.3966 50 74.5486 50.96 75.3166 52.24C76.1166 53.488 76.5166 55.008 76.5166 56.8C76.5166 58.656 76.0206 60.224 75.0286 61.504C74.0366 62.784 72.6446 63.664 70.8526 64.144L70.8046 63.184C72.3086 63.504 73.6206 64.08 74.7406 64.912C75.8606 65.712 76.7246 66.72 77.3326 67.936C77.9726 69.12 78.2926 70.48 78.2926 72.016C78.2926 73.648 78.0206 75.088 77.4766 76.336C76.9646 77.584 76.1966 78.624 75.1726 79.456C74.1486 80.288 72.9326 80.928 71.5246 81.376C70.1166 81.792 68.5326 82 66.7726 82H51.9886ZM58.0846 76.384H66.4846C67.6686 76.384 68.6606 76.208 69.4606 75.856C70.2926 75.504 70.9166 74.992 71.3326 74.32C71.7806 73.616 72.0046 72.784 72.0046 71.824C72.0046 70.928 71.7646 70.16 71.2846 69.52C70.8366 68.88 70.1806 68.4 69.3166 68.08C68.4526 67.728 67.4286 67.552 66.2446 67.552H58.0846V76.384ZM58.0846 62.176H65.7166C66.6446 62.176 67.4446 62 68.1166 61.648C68.8206 61.296 69.3646 60.816 69.7486 60.208C70.1326 59.6 70.3246 58.896 70.3246 58.096C70.3246 56.816 69.8926 55.824 69.0286 55.12C68.1646 54.384 66.9006 54.016 65.2366 54.016H58.0846V62.176Z" fill="#191923"/>
</svg>
