<svg width="128" height="128" viewBox="0 0 128 128" fill="none" xmlns="http://www.w3.org/2000/svg">
<path d="M52 19H76H96C103.18 19 109 24.8203 109 32V35.2V54.4V96C109 103.18 103.18 109 96 109H76H64H52H32C24.8203 109 19 103.18 19 96V54.4V32C19 24.8203 24.8203 19 32 19H52Z" fill="#FBFEF9" stroke="#FBFEF9" stroke-width="6"/>
<path d="M53.5 25H74.5H96C99.866 25 103 28.134 103 32V38.8V55.6V96C103 99.866 99.866 103 96 103H74.5H64H53.5H32C28.134 103 25 99.866 25 96V55.6V32C25 28.134 28.134 25 32 25H53.5Z" fill="#FBFEF9" stroke="#C8CED0" stroke-width="6"/>
<path d="M65.2604 82.48C62.7324 82.48 60.3964 82.048 58.2524 81.184C56.1084 80.288 54.2364 79.056 52.6364 77.488C51.0684 75.92 49.8524 74.096 48.9884 72.016C48.1244 69.904 47.6924 67.616 47.6924 65.152C47.6924 62.72 48.1244 60.464 48.9884 58.384C49.8844 56.272 51.1324 54.448 52.7324 52.912C54.3324 51.344 56.2044 50.128 58.3484 49.264C60.5244 48.4 62.8604 47.968 65.3564 47.968C67.1164 47.968 68.8124 48.208 70.4444 48.688C72.0764 49.168 73.5484 49.84 74.8604 50.704C76.1724 51.568 77.2604 52.544 78.1244 53.632L74.1884 57.76C73.2924 56.896 72.3644 56.176 71.4044 55.6C70.4764 55.024 69.5004 54.576 68.4764 54.256C67.4524 53.936 66.3964 53.776 65.3084 53.776C63.7084 53.776 62.2204 54.064 60.8444 54.64C59.5004 55.216 58.3164 56.016 57.2924 57.04C56.3004 58.064 55.5164 59.264 54.9404 60.64C54.3644 62.016 54.0764 63.52 54.0764 65.152C54.0764 66.72 54.3644 68.208 54.9404 69.616C55.5484 71.024 56.3804 72.256 57.4364 73.312C58.4924 74.368 59.7084 75.2 61.0844 75.808C62.4924 76.384 63.9804 76.672 65.5484 76.672C66.7324 76.672 67.8364 76.496 68.8604 76.144C69.8844 75.792 70.7964 75.312 71.5964 74.704C72.3964 74.064 73.0044 73.328 73.4204 72.496C73.8684 71.664 74.0924 70.768 74.0924 69.808V68.752L74.9564 69.76H65.0204V64.192H80.2364C80.3004 64.544 80.3484 64.944 80.3804 65.392C80.4124 65.808 80.4284 66.224 80.4284 66.64C80.4604 67.024 80.4764 67.36 80.4764 67.648C80.4764 69.856 80.0924 71.872 79.3244 73.696C78.5564 75.488 77.4684 77.04 76.0604 78.352C74.6844 79.664 73.0684 80.688 71.2124 81.424C69.3884 82.128 67.4044 82.48 65.2604 82.48Z" fill="#191923"/>
</svg>
