<svg width="128" height="128" viewBox="0 0 128 128" fill="none" xmlns="http://www.w3.org/2000/svg">
<path d="M52 19H76H96C103.18 19 109 24.8203 109 32V35.2V54.4V96C109 103.18 103.18 109 96 109H76H64H52H32C24.8203 109 19 103.18 19 96V54.4V32C19 24.8203 24.8203 19 32 19H52Z" fill="#FBFEF9" stroke="#FBFEF9" stroke-width="6"/>
<path d="M53.5 25H74.5H96C99.866 25 103 28.134 103 32V38.8V55.6V96C103 99.866 99.866 103 96 103H74.5H64H53.5H32C28.134 103 25 99.866 25 96V55.6V32C25 28.134 28.134 25 32 25H53.5Z" fill="#FBFEF9" stroke="#C8CED0" stroke-width="6"/>
<path d="M61.1783 82L60.9863 81.52L71.1623 60.304L71.7383 63.904C71.2583 64.928 70.6663 65.84 69.9623 66.64C69.2903 67.44 68.5063 68.144 67.6103 68.752C66.7463 69.328 65.8503 69.776 64.9223 70.096C63.9943 70.384 63.0663 70.528 62.1383 70.528C60.3143 70.528 58.6343 70.048 57.0983 69.088C55.5623 68.096 54.3303 66.8 53.4023 65.2C52.4743 63.568 52.0103 61.792 52.0103 59.872C52.0103 57.6 52.5383 55.552 53.5943 53.728C54.6503 51.872 56.0743 50.416 57.8663 49.36C59.6903 48.272 61.7383 47.728 64.0103 47.728C65.6423 47.728 67.1783 48.032 68.6183 48.64C70.0903 49.216 71.3543 50.032 72.4103 51.088C73.4983 52.144 74.3463 53.36 74.9543 54.736C75.5943 56.112 75.9143 57.568 75.9143 59.104C75.9143 60.032 75.8183 60.992 75.6263 61.984C75.4663 62.944 75.1943 64 74.8103 65.152C74.4263 66.304 73.9303 67.568 73.3223 68.944C72.7463 70.32 72.0423 71.888 71.2103 73.648L67.1303 82H61.1783ZM63.5303 65.152C64.6823 65.152 65.7223 64.896 66.6503 64.384C67.5783 63.84 68.2983 63.136 68.8103 62.272C69.3223 61.408 69.5783 60.416 69.5783 59.296C69.5783 58.144 69.3223 57.104 68.8103 56.176C68.2983 55.248 67.5943 54.528 66.6983 54.016C65.8023 53.472 64.7783 53.2 63.6263 53.2C62.5383 53.2 61.5783 53.456 60.7463 53.968C59.9143 54.48 59.2423 55.2 58.7303 56.128C58.2503 57.024 58.0103 58.08 58.0103 59.296C58.0103 60.32 58.2503 61.28 58.7303 62.176C59.2423 63.072 59.9143 63.792 60.7463 64.336C61.6103 64.88 62.5383 65.152 63.5303 65.152Z" fill="#191923"/>
</svg>
