<svg width="128" height="128" viewBox="0 0 128 128" fill="none" xmlns="http://www.w3.org/2000/svg">
<path d="M52 19H76H96C103.18 19 109 24.8203 109 32V35.2V54.4V96C109 103.18 103.18 109 96 109H76H64H52H32C24.8203 109 19 103.18 19 96V54.4V32C19 24.8203 24.8203 19 32 19H52Z" fill="#FBFEF9" stroke="#FBFEF9" stroke-width="6"/>
<path d="M53.5 25H74.5H96C99.866 25 103 28.134 103 32V38.8V55.6V96C103 99.866 99.866 103 96 103H74.5H64H53.5H32C28.134 103 25 99.866 25 96V55.6V32C25 28.134 28.134 25 32 25H53.5Z" fill="#FBFEF9" stroke="#C8CED0" stroke-width="6"/>
<path d="M55.7944 82L69.5704 51.568L70.7224 53.92H53.5384V48.304H74.7064L75.4264 51.808L62.2744 82H55.7944Z" fill="#191923"/>
</svg>
