<svg width="128" height="128" viewBox="0 0 128 128" fill="none" xmlns="http://www.w3.org/2000/svg">
<path d="M127.383 62.971C127.763 63.6044 127.763 64.3956 127.383 65.029L119.715 77.8084C118.671 79.5477 116 78.8078 116 76.7794V51.2206C116 49.1922 118.671 48.4523 119.715 50.1916L127.383 62.971Z" fill="#191923"/>
<path d="M65.0399 127.383C64.4065 127.763 63.6152 127.763 62.9819 127.383L50.2025 119.715C48.4631 118.671 49.2031 116 51.2315 116H76.7902C78.8187 116 79.5586 118.671 77.8192 119.715L65.0399 127.383Z" fill="#191923"/>
<circle cx="63.9922" cy="64" r="45" stroke="#2E2836" stroke-width="6"/>
<circle cx="63.9922" cy="64" r="39" stroke="#2E2836" stroke-width="6"/>
<circle cx="63.9922" cy="64" r="41.5" stroke="#C8CED0" stroke-width="3"/>
</svg>
