<svg width="128" height="128" viewBox="0 0 128 128" fill="none" xmlns="http://www.w3.org/2000/svg">
<path d="M51.076 78.6357V50.6357H67.436C69.0894 50.6357 70.596 51.0224 71.956 51.7957C73.3427 52.5424 74.4494 53.5691 75.276 54.8757C76.1027 56.1824 76.516 57.6357 76.516 59.2357C76.516 60.9157 76.0627 62.4491 75.156 63.8357C74.2494 65.1957 73.0494 66.2891 71.556 67.1157C70.0627 67.9157 68.4227 68.3157 66.636 68.3157H55.396V78.6357H51.076ZM72.756 78.6357L63.236 65.9957L67.836 64.9957L78.156 78.6757L72.756 78.6357ZM55.396 64.1557H66.236C67.2494 64.1557 68.1827 63.9291 69.036 63.4757C69.916 63.0224 70.6094 62.4224 71.116 61.6757C71.6494 60.9291 71.916 60.1157 71.916 59.2357C71.916 58.4091 71.6494 57.6624 71.116 56.9957C70.6094 56.3291 69.916 55.7957 69.036 55.3957C68.1827 54.9957 67.2494 54.7957 66.236 54.7957H55.396V64.1557Z" fill="#FBFEF9"/>
<path d="M111.416 18.1349C111.236 17.4183 110.677 16.8588 109.96 16.6797L95.5021 13.0651C93.5342 12.5732 92.1685 14.9853 93.6028 16.4196L111.676 34.4924C113.11 35.9267 115.522 34.561 115.03 32.5931L111.416 18.1349Z" fill="#FBFEF9"/>
<circle cx="64" cy="64" r="45" stroke="#C8CED0" stroke-width="6"/>
<circle cx="64" cy="64" r="39" stroke="#C8CED0" stroke-width="6"/>
<circle cx="63.9922" cy="64" r="41.5" stroke="#2E2836" stroke-width="5"/>
</svg>
