<svg width="128" height="128" viewBox="0 0 128 128" fill="none" xmlns="http://www.w3.org/2000/svg">
<path d="M52 19H76H96C103.18 19 109 24.8203 109 32V35.2V54.4V96C109 103.18 103.18 109 96 109H76H64H52H32C24.8203 109 19 103.18 19 96V54.4V32C19 24.8203 24.8203 19 32 19H52Z" fill="#FBFEF9" stroke="#FBFEF9" stroke-width="6"/>
<path d="M53.5 25H74.5H96C99.866 25 103 28.134 103 32V38.8V55.6V96C103 99.866 99.866 103 96 103H74.5H64H53.5H32C28.134 103 25 99.866 25 96V55.6V32C25 28.134 28.134 25 32 25H53.5Z" stroke="#C8CED0" stroke-width="6"/>
<path d="M61.1894 91.6L58.9814 88.864C60.2614 88.288 61.2854 87.552 62.0534 86.656C62.8214 85.792 63.2054 85.04 63.2054 84.4C63.2054 84.112 63.1254 83.792 62.9654 83.44C62.8374 83.12 62.4854 82.752 61.9094 82.336C61.1734 81.792 60.6774 81.264 60.4214 80.752C60.1654 80.208 60.0374 79.616 60.0374 78.976C60.0374 77.984 60.3894 77.2 61.0934 76.624C61.8294 76.048 62.7734 75.76 63.9254 75.76C64.8534 75.76 65.6854 76.016 66.4214 76.528C67.1894 77.04 67.7814 77.744 68.1974 78.64C68.6454 79.536 68.8694 80.576 68.8694 81.76C68.8694 82.848 68.6774 83.888 68.2934 84.88C67.9094 85.904 67.3654 86.848 66.6614 87.712C65.9894 88.608 65.1734 89.392 64.2134 90.064C63.2854 90.736 62.2774 91.248 61.1894 91.6Z" fill="#191923"/>
</svg>
