<svg width="128" height="128" viewBox="0 0 128 128" fill="none" xmlns="http://www.w3.org/2000/svg">
<path d="M52 19H76H96C103.18 19 109 24.8203 109 32V35.2V54.4V96C109 103.18 103.18 109 96 109H76H64H52H32C24.8203 109 19 103.18 19 96V54.4V32C19 24.8203 24.8203 19 32 19H52Z" fill="#FBFEF9" stroke="#FBFEF9" stroke-width="6"/>
<path d="M53.5 25H74.5H96C99.866 25 103 28.134 103 32V38.8V55.6V96C103 99.866 99.866 103 96 103H74.5H64H53.5H32C28.134 103 25 99.866 25 96V55.6V32C25 28.134 28.134 25 32 25H53.5Z" stroke="#C8CED0" stroke-width="6"/>
<path d="M66.8993 75.664L64.9793 71.824C65.8753 71.728 66.6113 71.552 67.1873 71.296C67.7633 71.008 68.1793 70.672 68.4353 70.288C68.7233 69.872 68.8673 69.424 68.8673 68.944C68.8673 68.368 68.6433 67.888 68.1953 67.504C67.7793 67.12 67.0913 66.736 66.1313 66.352L62.0513 64.96C61.0593 64.544 60.0833 64.08 59.1233 63.568C58.1633 63.024 57.2993 62.4 56.5313 61.696C55.7953 60.96 55.1873 60.112 54.7073 59.152C54.2593 58.16 54.0353 57.024 54.0353 55.744C54.0353 54.656 54.2433 53.616 54.6593 52.624C55.1073 51.632 55.7633 50.768 56.6273 50.032C57.5233 49.264 58.6593 48.672 60.0353 48.256C61.4433 47.84 63.0913 47.632 64.9793 47.632C66.5153 47.632 67.9393 47.808 69.2513 48.16C70.5953 48.48 71.7793 48.96 72.8033 49.6C73.8593 50.24 74.7713 51.008 75.5393 51.904L71.5553 56.224C70.7233 55.488 69.9233 54.928 69.1553 54.544C68.3873 54.128 67.6513 53.84 66.9473 53.68C66.2433 53.488 65.5713 53.392 64.9313 53.392C63.8113 53.392 62.9313 53.616 62.2913 54.064C61.6833 54.512 61.3793 55.088 61.3793 55.792C61.3793 56.304 61.5393 56.768 61.8593 57.184C62.2113 57.568 62.6753 57.904 63.2513 58.192C63.8273 58.48 64.4833 58.768 65.2193 59.056L69.2993 60.592C71.6353 61.456 73.3633 62.528 74.4833 63.808C75.6353 65.056 76.1953 66.576 76.1633 68.368C76.0993 69.776 75.6833 71.008 74.9153 72.064C74.1793 73.12 73.1393 73.952 71.7953 74.56C70.4513 75.168 68.8193 75.536 66.8993 75.664ZM63.2033 88.816C61.6353 88.816 60.1313 88.624 58.6913 88.24C57.2833 87.856 55.9873 87.328 54.8033 86.656C53.6513 85.984 52.6753 85.232 51.8753 84.4L55.7153 79.84C57.0913 80.992 58.4193 81.824 59.6993 82.336C60.9793 82.848 62.1313 83.104 63.1553 83.104C64.3393 83.104 65.2513 82.896 65.8913 82.48C66.5313 82.064 66.8513 81.472 66.8513 80.704C66.8513 80.192 66.6433 79.76 66.2273 79.408C65.8433 79.024 65.3313 78.688 64.6913 78.4C64.0833 78.08 63.3953 77.776 62.6273 77.488L58.5473 76C56.3073 75.168 54.6273 74.112 53.5073 72.832C52.3873 71.552 51.8273 70.016 51.8273 68.224C51.8273 66.912 52.1793 65.728 52.8833 64.672C53.5873 63.584 54.5953 62.704 55.9073 62.032C57.2513 61.36 58.8673 60.976 60.7553 60.88L62.6273 64.912C61.9233 64.976 61.3153 65.152 60.8033 65.44C60.3233 65.696 59.9553 66.016 59.6993 66.4C59.4433 66.752 59.3153 67.184 59.3153 67.696C59.3153 68.304 59.5553 68.832 60.0353 69.28C60.5153 69.696 61.2833 70.096 62.3393 70.48L65.7473 71.68C67.4113 72.32 68.8673 73.024 70.1153 73.792C71.3953 74.528 72.3873 75.424 73.0913 76.48C73.8273 77.536 74.1953 78.832 74.1953 80.368C74.1953 81.968 73.8113 83.392 73.0433 84.64C72.2753 85.92 71.0753 86.928 69.4433 87.664C67.8433 88.432 65.7633 88.816 63.2033 88.816Z" fill="#191923"/>
</svg>
