<svg width="128" height="128" viewBox="0 0 128 128" fill="none" xmlns="http://www.w3.org/2000/svg">
<path d="M52 19H76H96C103.18 19 109 24.8203 109 32V35.2V54.4V96C109 103.18 103.18 109 96 109H76H64H52H32C24.8203 109 19 103.18 19 96V54.4V32C19 24.8203 24.8203 19 32 19H52Z" fill="#FBFEF9" stroke="#FBFEF9" stroke-width="6"/>
<path d="M53.5 25H74.5H96C99.866 25 103 28.134 103 32V38.8V55.6V96C103 99.866 99.866 103 96 103H74.5H64H53.5H32C28.134 103 25 99.866 25 96V55.6V32C25 28.134 28.134 25 32 25H53.5Z" stroke="#C8CED0" stroke-width="6"/>
<path d="M61.2876 91.6L59.0796 88.864C60.3596 88.288 61.3836 87.552 62.1516 86.656C62.9196 85.792 63.3036 85.04 63.3036 84.4C63.3036 84.112 63.2236 83.792 63.0636 83.44C62.9356 83.12 62.5836 82.752 62.0076 82.336C61.2716 81.792 60.7756 81.264 60.5196 80.752C60.2636 80.208 60.1356 79.616 60.1356 78.976C60.1356 77.984 60.4876 77.2 61.1916 76.624C61.9276 76.048 62.8716 75.76 64.0236 75.76C64.9516 75.76 65.7836 76.016 66.5196 76.528C67.2876 77.04 67.8796 77.744 68.2956 78.64C68.7436 79.536 68.9676 80.576 68.9676 81.76C68.9676 82.848 68.7756 83.888 68.3916 84.88C68.0076 85.904 67.4636 86.848 66.7596 87.712C66.0876 88.608 65.2716 89.392 64.3116 90.064C63.3836 90.736 62.3756 91.248 61.2876 91.6ZM63.8796 64.576C62.5676 64.576 61.5436 64.208 60.8076 63.472C60.1036 62.736 59.7516 61.68 59.7516 60.304C59.7516 59.024 60.1356 57.984 60.9036 57.184C61.6716 56.384 62.6636 55.984 63.8796 55.984C65.1916 55.984 66.2156 56.368 66.9516 57.136C67.6876 57.872 68.0556 58.928 68.0556 60.304C68.0556 61.552 67.6716 62.576 66.9036 63.376C66.1356 64.176 65.1276 64.576 63.8796 64.576Z" fill="#191923"/>
</svg>
