<svg width="128" height="128" viewBox="0 0 128 128" fill="none" xmlns="http://www.w3.org/2000/svg">
<g clip-path="url(#clip0_117_219)">
<path d="M52 49H76H108C108.552 49 109 49.4477 109 50V58V75C109 75.5523 108.552 76 108 76H98C94.134 76 91 79.134 91 83V88V102C91 102.552 90.5523 103 90 103H64H38C37.4477 103 37 102.552 37 102V88V83C37 79.134 33.866 76 30 76H20C19.4477 76 19 75.5523 19 75V58V50C19 49.4477 19.4477 49 20 49H52Z" fill="#191923" stroke="#C8CED0" stroke-width="6"/>
<path d="M46.0158 92V69.6H55.5518C56.8318 69.6 58.0051 69.92 59.0718 70.56C60.1598 71.1787 61.0238 72.032 61.6638 73.12C62.3038 74.1867 62.6238 75.392 62.6238 76.736C62.6238 77.952 62.3038 79.0827 61.6638 80.128C61.0238 81.1733 60.1704 82.016 59.1038 82.656C58.0371 83.2747 56.8531 83.584 55.5518 83.584H49.4718V92H46.0158ZM59.3278 92L53.6318 81.888L57.1838 81.088L63.5198 92.032L59.3278 92ZM49.4718 80.256H55.8718C56.4904 80.256 57.0451 80.1067 57.5358 79.808C58.0264 79.488 58.4104 79.0613 58.6878 78.528C58.9651 77.9733 59.1038 77.3653 59.1038 76.704C59.1038 75.9573 58.9224 75.3067 58.5598 74.752C58.2184 74.176 57.7278 73.728 57.0878 73.408C56.4691 73.088 55.7651 72.928 54.9758 72.928H49.4718V80.256ZM75.1778 92.32C73.9618 92.32 72.8311 92.16 71.7858 91.84C70.7618 91.52 69.8231 91.04 68.9698 90.4C68.1378 89.7387 67.3911 88.928 66.7298 87.968L69.0978 85.248C70.1431 86.7413 71.1458 87.776 72.1058 88.352C73.0658 88.928 74.2071 89.216 75.5298 89.216C76.3404 89.216 77.0764 89.088 77.7378 88.832C78.3991 88.576 78.9218 88.224 79.3058 87.776C79.6898 87.328 79.8818 86.816 79.8818 86.24C79.8818 85.856 79.8178 85.4933 79.6898 85.152C79.5618 84.8107 79.3591 84.5013 79.0818 84.224C78.8258 83.9467 78.4844 83.6907 78.0578 83.456C77.6524 83.2213 77.1724 83.0187 76.6178 82.848C76.0631 82.656 75.4231 82.496 74.6978 82.368C73.5458 82.1333 72.5431 81.824 71.6898 81.44C70.8364 81.056 70.1218 80.576 69.5458 80C68.9698 79.424 68.5431 78.7733 68.2658 78.048C67.9884 77.3013 67.8498 76.4693 67.8498 75.552C67.8498 74.656 68.0418 73.824 68.4258 73.056C68.8311 72.288 69.3751 71.6267 70.0578 71.072C70.7618 70.496 71.5831 70.0587 72.5218 69.76C73.4604 69.44 74.4738 69.28 75.5618 69.28C76.7138 69.28 77.7698 69.4293 78.7298 69.728C79.6898 70.0267 80.5431 70.4747 81.2898 71.072C82.0364 71.648 82.6551 72.3627 83.1458 73.216L80.7138 75.616C80.2871 74.912 79.8071 74.3253 79.2738 73.856C78.7404 73.3653 78.1538 73.0027 77.5138 72.768C76.8738 72.512 76.1911 72.384 75.4658 72.384C74.6338 72.384 73.9084 72.512 73.2898 72.768C72.6711 73.024 72.1804 73.3867 71.8178 73.856C71.4764 74.304 71.3058 74.8373 71.3058 75.456C71.3058 75.904 71.3911 76.32 71.5618 76.704C71.7324 77.0667 71.9884 77.3973 72.3298 77.696C72.6924 77.9733 73.1724 78.2293 73.7698 78.464C74.3671 78.6773 75.0818 78.8693 75.9138 79.04C77.0871 79.296 78.1324 79.6267 79.0498 80.032C79.9671 80.416 80.7458 80.8747 81.3858 81.408C82.0258 81.9413 82.5058 82.5387 82.8258 83.2C83.1671 83.8613 83.3378 84.576 83.3378 85.344C83.3378 86.7733 83.0071 88.0107 82.3458 89.056C81.6844 90.1013 80.7458 90.912 79.5298 91.488C78.3138 92.0427 76.8631 92.32 75.1778 92.32Z" fill="#FBFEF9"/>
<path d="M64.9412 39.498C64.3529 39.8118 63.6471 39.8118 63.0588 39.498L41.0588 27.7647C39.2217 26.7849 39.9179 24 42 24L86 24C88.0821 24 88.7783 26.7849 86.9412 27.7647L64.9412 39.498Z" fill="#191923"/>
</g>
<defs>
<clipPath id="clip0_117_219">
<rect width="128" height="128" fill="white"/>
</clipPath>
</defs>
</svg>
