<svg width="128" height="128" viewBox="0 0 128 128" fill="none" xmlns="http://www.w3.org/2000/svg">
<g clip-path="url(#clip0_117_217)">
<path d="M52 49H76H108C108.552 49 109 49.4477 109 50V58V75C109 75.5523 108.552 76 108 76H98C94.134 76 91 79.134 91 83V88V102C91 102.552 90.5523 103 90 103H64H38C37.4477 103 37 102.552 37 102V88V83C37 79.134 33.866 76 30 76H20C19.4477 76 19 75.5523 19 75V58V50C19 49.4477 19.4477 49 20 49H52Z" fill="#191923" stroke="#C8CED0" stroke-width="6"/>
<path d="M47.5627 92V69.6H51.0187V88.672H61.5147V92H47.5627ZM73.6309 92.32C72.4149 92.32 71.2842 92.16 70.2389 91.84C69.2149 91.52 68.2762 91.04 67.4229 90.4C66.5909 89.7387 65.8442 88.928 65.1829 87.968L67.5509 85.248C68.5962 86.7413 69.5989 87.776 70.5589 88.352C71.5189 88.928 72.6602 89.216 73.9829 89.216C74.7936 89.216 75.5296 89.088 76.1909 88.832C76.8522 88.576 77.3749 88.224 77.7589 87.776C78.1429 87.328 78.3349 86.816 78.3349 86.24C78.3349 85.856 78.2709 85.4933 78.1429 85.152C78.0149 84.8107 77.8122 84.5013 77.5349 84.224C77.2789 83.9467 76.9376 83.6907 76.5109 83.456C76.1056 83.2213 75.6256 83.0187 75.0709 82.848C74.5162 82.656 73.8762 82.496 73.1509 82.368C71.9989 82.1333 70.9962 81.824 70.1429 81.44C69.2896 81.056 68.5749 80.576 67.9989 80C67.4229 79.424 66.9962 78.7733 66.7189 78.048C66.4416 77.3013 66.3029 76.4693 66.3029 75.552C66.3029 74.656 66.4949 73.824 66.8789 73.056C67.2842 72.288 67.8282 71.6267 68.5109 71.072C69.2149 70.496 70.0362 70.0587 70.9749 69.76C71.9136 69.44 72.9269 69.28 74.0149 69.28C75.1669 69.28 76.2229 69.4293 77.1829 69.728C78.1429 70.0267 78.9962 70.4747 79.7429 71.072C80.4896 71.648 81.1082 72.3627 81.5989 73.216L79.1669 75.616C78.7402 74.912 78.2602 74.3253 77.7269 73.856C77.1936 73.3653 76.6069 73.0027 75.9669 72.768C75.3269 72.512 74.6442 72.384 73.9189 72.384C73.0869 72.384 72.3616 72.512 71.7429 72.768C71.1242 73.024 70.6336 73.3867 70.2709 73.856C69.9296 74.304 69.7589 74.8373 69.7589 75.456C69.7589 75.904 69.8442 76.32 70.0149 76.704C70.1856 77.0667 70.4416 77.3973 70.7829 77.696C71.1456 77.9733 71.6256 78.2293 72.2229 78.464C72.8202 78.6773 73.5349 78.8693 74.3669 79.04C75.5402 79.296 76.5856 79.6267 77.5029 80.032C78.4202 80.416 79.1989 80.8747 79.8389 81.408C80.4789 81.9413 80.9589 82.5387 81.2789 83.2C81.6202 83.8613 81.7909 84.576 81.7909 85.344C81.7909 86.7733 81.4602 88.0107 80.7989 89.056C80.1376 90.1013 79.1989 90.912 77.9829 91.488C76.7669 92.0427 75.3162 92.32 73.6309 92.32Z" fill="#FBFEF9"/>
<path d="M64.9412 39.498C64.3529 39.8118 63.6471 39.8118 63.0588 39.498L41.0588 27.7647C39.2217 26.7849 39.9179 24 42 24L86 24C88.0821 24 88.7783 26.7849 86.9412 27.7647L64.9412 39.498Z" fill="#191923"/>
</g>
<defs>
<clipPath id="clip0_117_217">
<rect width="128" height="128" fill="white"/>
</clipPath>
</defs>
</svg>
