<svg width="128" height="128" viewBox="0 0 128 128" fill="none" xmlns="http://www.w3.org/2000/svg">
<circle cx="64" cy="64" r="45" fill="#191923" stroke="#C8CED0" stroke-width="6"/>
<path d="M39.3711 81.6357V48.0357H44.5551V76.6437H60.2991V81.6357H39.3711ZM78.4735 82.1157C76.6495 82.1157 74.9535 81.8757 73.3855 81.3957C71.8495 80.9157 70.4415 80.1957 69.1615 79.2357C67.9135 78.2437 66.7935 77.0277 65.8015 75.5877L69.3535 71.5077C70.9215 73.7477 72.4255 75.2997 73.8655 76.1637C75.3055 77.0277 77.0175 77.4597 79.0015 77.4597C80.2175 77.4597 81.3215 77.2677 82.3135 76.8837C83.3055 76.4997 84.0895 75.9717 84.6655 75.2997C85.2415 74.6277 85.5295 73.8597 85.5295 72.9957C85.5295 72.4197 85.4335 71.8757 85.2415 71.3637C85.0495 70.8517 84.7455 70.3877 84.3295 69.9717C83.9455 69.5557 83.4335 69.1717 82.7935 68.8197C82.1855 68.4677 81.4655 68.1637 80.6335 67.9077C79.8015 67.6197 78.8415 67.3797 77.7535 67.1877C76.0255 66.8357 74.5215 66.3717 73.2415 65.7957C71.9615 65.2197 70.8895 64.4997 70.0255 63.6357C69.1615 62.7717 68.5215 61.7957 68.1055 60.7077C67.6895 59.5877 67.4815 58.3397 67.4815 56.9637C67.4815 55.6197 67.7695 54.3717 68.3455 53.2197C68.9535 52.0677 69.7695 51.0757 70.7935 50.2437C71.8495 49.3797 73.0815 48.7237 74.4895 48.2757C75.8975 47.7957 77.4175 47.5557 79.0495 47.5557C80.7775 47.5557 82.3615 47.7797 83.8015 48.2277C85.2415 48.6757 86.5215 49.3477 87.6415 50.2437C88.7615 51.1077 89.6895 52.1797 90.4255 53.4597L86.7775 57.0597C86.1375 56.0037 85.4175 55.1237 84.6175 54.4197C83.8175 53.6837 82.9375 53.1397 81.9775 52.7877C81.0175 52.4037 79.9935 52.2117 78.9055 52.2117C77.6575 52.2117 76.5695 52.4037 75.6415 52.7877C74.7135 53.1717 73.9775 53.7157 73.4335 54.4197C72.9215 55.0917 72.6655 55.8917 72.6655 56.8197C72.6655 57.4917 72.7935 58.1157 73.0495 58.6917C73.3055 59.2357 73.6895 59.7317 74.2015 60.1797C74.7455 60.5957 75.4655 60.9797 76.3615 61.3317C77.2575 61.6517 78.3295 61.9397 79.5775 62.1957C81.3375 62.5797 82.9055 63.0757 84.2815 63.6837C85.6575 64.2597 86.8255 64.9477 87.7855 65.7477C88.7455 66.5477 89.4655 67.4437 89.9455 68.4357C90.4575 69.4277 90.7135 70.4997 90.7135 71.6517C90.7135 73.7957 90.2175 75.6517 89.2255 77.2197C88.2335 78.7877 86.8255 80.0037 85.0015 80.8677C83.1775 81.6997 81.0015 82.1157 78.4735 82.1157Z" fill="#FBFEF9"/>
</svg>
