<svg width="128" height="128" viewBox="0 0 128 128" fill="none" xmlns="http://www.w3.org/2000/svg">
<circle cx="64" cy="64" r="45" fill="#191923" stroke="#C8CED0" stroke-width="6"/>
<path d="M37.0508 81.6357V48.0357H51.3548C53.2748 48.0357 55.0348 48.5157 56.6348 49.4757C58.2668 50.4037 59.5628 51.6837 60.5228 53.3157C61.4828 54.9157 61.9628 56.7237 61.9628 58.7397C61.9628 60.5637 61.4828 62.2597 60.5228 63.8277C59.5628 65.3957 58.2828 66.6597 56.6828 67.6197C55.0828 68.5477 53.3068 69.0117 51.3548 69.0117H42.2348V81.6357H37.0508ZM57.0188 81.6357L48.4748 66.4677L53.8028 65.2677L63.3068 81.6837L57.0188 81.6357ZM42.2348 64.0197H51.8348C52.7628 64.0197 53.5948 63.7957 54.3308 63.3477C55.0668 62.8677 55.6428 62.2277 56.0588 61.4277C56.4748 60.5957 56.6828 59.6837 56.6828 58.6917C56.6828 57.5717 56.4108 56.5957 55.8668 55.7637C55.3548 54.8997 54.6188 54.2277 53.6588 53.7477C52.7308 53.2677 51.6748 53.0277 50.4908 53.0277H42.2348V64.0197ZM80.7938 82.1157C78.9698 82.1157 77.2738 81.8757 75.7058 81.3957C74.1698 80.9157 72.7618 80.1957 71.4818 79.2357C70.2338 78.2437 69.1138 77.0277 68.1218 75.5877L71.6738 71.5077C73.2418 73.7477 74.7458 75.2997 76.1858 76.1637C77.6258 77.0277 79.3378 77.4597 81.3218 77.4597C82.5378 77.4597 83.6418 77.2677 84.6338 76.8837C85.6258 76.4997 86.4098 75.9717 86.9858 75.2997C87.5618 74.6277 87.8498 73.8597 87.8498 72.9957C87.8498 72.4197 87.7538 71.8757 87.5618 71.3637C87.3698 70.8517 87.0658 70.3877 86.6498 69.9717C86.2658 69.5557 85.7538 69.1717 85.1138 68.8197C84.5058 68.4677 83.7858 68.1637 82.9538 67.9077C82.1218 67.6197 81.1618 67.3797 80.0738 67.1877C78.3458 66.8357 76.8418 66.3717 75.5618 65.7957C74.2818 65.2197 73.2098 64.4997 72.3458 63.6357C71.4818 62.7717 70.8418 61.7957 70.4258 60.7077C70.0098 59.5877 69.8018 58.3397 69.8018 56.9637C69.8018 55.6197 70.0898 54.3717 70.6658 53.2197C71.2738 52.0677 72.0898 51.0757 73.1138 50.2437C74.1698 49.3797 75.4018 48.7237 76.8098 48.2757C78.2178 47.7957 79.7378 47.5557 81.3698 47.5557C83.0978 47.5557 84.6818 47.7797 86.1218 48.2277C87.5618 48.6757 88.8418 49.3477 89.9618 50.2437C91.0818 51.1077 92.0098 52.1797 92.7458 53.4597L89.0978 57.0597C88.4578 56.0037 87.7378 55.1237 86.9378 54.4197C86.1378 53.6837 85.2578 53.1397 84.2978 52.7877C83.3378 52.4037 82.3138 52.2117 81.2258 52.2117C79.9778 52.2117 78.8898 52.4037 77.9618 52.7877C77.0338 53.1717 76.2978 53.7157 75.7538 54.4197C75.2418 55.0917 74.9858 55.8917 74.9858 56.8197C74.9858 57.4917 75.1138 58.1157 75.3698 58.6917C75.6258 59.2357 76.0098 59.7317 76.5218 60.1797C77.0658 60.5957 77.7858 60.9797 78.6818 61.3317C79.5778 61.6517 80.6498 61.9397 81.8978 62.1957C83.6578 62.5797 85.2258 63.0757 86.6018 63.6837C87.9778 64.2597 89.1458 64.9477 90.1058 65.7477C91.0658 66.5477 91.7858 67.4437 92.2658 68.4357C92.7778 69.4277 93.0338 70.4997 93.0338 71.6517C93.0338 73.7957 92.5378 75.6517 91.5458 77.2197C90.5538 78.7877 89.1458 80.0037 87.3218 80.8677C85.4978 81.6997 83.3218 82.1157 80.7938 82.1157Z" fill="#FBFEF9"/>
</svg>
