<svg width="128" height="128" viewBox="0 0 128 128" fill="none" xmlns="http://www.w3.org/2000/svg">
<rect width="24" height="24" transform="translate(10 73)" fill="#FBFEF9"/>
<path d="M50 28H78C78.5523 28 79 28.4477 79 29V57C79 57.5523 78.5523 58 78 58H50C49.4477 58 49 57.5523 49 57V29C49 28.4477 49.4477 28 50 28Z" stroke="#C8CED0" stroke-width="6"/>
<path d="M50 70H78C78.5523 70 79 70.4477 79 71V99C79 99.5523 78.5523 100 78 100H50C49.4477 100 49 99.5523 49 99V71C49 70.4477 49.4477 70 50 70Z" stroke="#C8CED0" stroke-width="6"/>
<path d="M8 70H36C36.5523 70 37 70.4477 37 71V99C37 99.5523 36.5523 100 36 100H8C7.44772 100 7 99.5523 7 99V71C7 70.4477 7.44772 70 8 70Z" stroke="#C8CED0" stroke-width="6"/>
<path d="M16.6701 91L21.0381 79.8H22.9901L27.3261 91H25.1661L22.7661 84.632C22.7127 84.504 22.6381 84.3013 22.5421 84.024C22.4567 83.7467 22.3607 83.448 22.2541 83.128C22.1474 82.7973 22.0514 82.4933 21.9661 82.216C21.8807 81.928 21.8167 81.72 21.7741 81.592L22.1741 81.576C22.1101 81.7893 22.0354 82.0293 21.9501 82.296C21.8647 82.5627 21.7741 82.84 21.6781 83.128C21.5821 83.416 21.4861 83.6933 21.3901 83.96C21.3047 84.2267 21.2247 84.4667 21.1501 84.68L18.7501 91H16.6701ZM18.6541 88.44L19.3741 86.632H24.4781L25.2461 88.44H18.6541Z" fill="#FBFEF9"/>
<path d="M16.6701 91L21.0381 79.8H22.9901L27.3261 91H25.1661L22.7661 84.632C22.7127 84.504 22.6381 84.3013 22.5421 84.024C22.4567 83.7467 22.3607 83.448 22.2541 83.128C22.1474 82.7973 22.0514 82.4933 21.9661 82.216C21.8807 81.928 21.8167 81.72 21.7741 81.592L22.1741 81.576C22.1101 81.7893 22.0354 82.0293 21.9501 82.296C21.8647 82.5627 21.7741 82.84 21.6781 83.128C21.5821 83.416 21.4861 83.6933 21.3901 83.96C21.3047 84.2267 21.2247 84.4667 21.1501 84.68L18.7501 91H16.6701ZM18.6541 88.44L19.3741 86.632H24.4781L25.2461 88.44H18.6541Z" fill="#191923"/>
<path d="M58.7488 51L54.3888 37H57.1088L59.5888 45.26C59.6688 45.5133 59.7422 45.7933 59.8088 46.1C59.8755 46.4067 59.9355 46.7133 59.9888 47.02C60.0422 47.3133 60.0888 47.5867 60.1288 47.84C60.1688 48.0933 60.2088 48.3067 60.2488 48.48L59.7088 48.46C59.8688 47.8333 59.9955 47.3267 60.0888 46.94C60.1822 46.5533 60.2622 46.2333 60.3288 45.98C60.4088 45.7133 60.4888 45.4667 60.5688 45.24L62.9288 39.2H65.1488L67.4488 45.24C67.5822 45.6133 67.7022 45.9733 67.8088 46.32C67.9155 46.6533 68.0022 46.9867 68.0688 47.32C68.1488 47.64 68.2222 47.9733 68.2888 48.32L67.8088 48.42C67.8622 48.1 67.9022 47.84 67.9288 47.64C67.9555 47.44 67.9822 47.26 68.0088 47.1C68.0355 46.94 68.0622 46.7867 68.0888 46.64C68.1155 46.48 68.1555 46.2933 68.2088 46.08C68.2755 45.8533 68.3555 45.5667 68.4488 45.22L70.9088 37H73.6088L69.2288 51H67.3488L63.7888 42.48L64.0288 42.56L60.6488 51H58.7488Z" fill="#FBFEF9"/>
<path d="M58.7488 51L54.3888 37H57.1088L59.5888 45.26C59.6688 45.5133 59.7422 45.7933 59.8088 46.1C59.8755 46.4067 59.9355 46.7133 59.9888 47.02C60.0422 47.3133 60.0888 47.5867 60.1288 47.84C60.1688 48.0933 60.2088 48.3067 60.2488 48.48L59.7088 48.46C59.8688 47.8333 59.9955 47.3267 60.0888 46.94C60.1822 46.5533 60.2622 46.2333 60.3288 45.98C60.4088 45.7133 60.4888 45.4667 60.5688 45.24L62.9288 39.2H65.1488L67.4488 45.24C67.5822 45.6133 67.7022 45.9733 67.8088 46.32C67.9155 46.6533 68.0022 46.9867 68.0688 47.32C68.1488 47.64 68.2222 47.9733 68.2888 48.32L67.8088 48.42C67.8622 48.1 67.9022 47.84 67.9288 47.64C67.9555 47.44 67.9822 47.26 68.0088 47.1C68.0355 46.94 68.0622 46.7867 68.0888 46.64C68.1155 46.48 68.1555 46.2933 68.2088 46.08C68.2755 45.8533 68.3555 45.5667 68.4488 45.22L70.9088 37H73.6088L69.2288 51H67.3488L63.7888 42.48L64.0288 42.56L60.6488 51H58.7488Z" fill="#FBFEF9"/>
<path d="M64.0505 93.2C63.2371 93.2 62.4905 93.1 61.8105 92.9C61.1305 92.6867 60.5171 92.3733 59.9705 91.96C59.4238 91.5467 58.9371 91.0467 58.5105 90.46L60.2105 88.54C60.8638 89.4467 61.5038 90.0733 62.1305 90.42C62.7571 90.7667 63.4638 90.94 64.2505 90.94C64.7038 90.94 65.1171 90.8733 65.4905 90.74C65.8638 90.5933 66.1571 90.4 66.3705 90.16C66.5838 89.9067 66.6905 89.62 66.6905 89.3C66.6905 89.0733 66.6438 88.8667 66.5505 88.68C66.4705 88.48 66.3438 88.3067 66.1705 88.16C65.9971 88 65.7838 87.8533 65.5305 87.72C65.2771 87.5867 64.9905 87.4733 64.6705 87.38C64.3505 87.2867 63.9971 87.2 63.6105 87.12C62.8771 86.9733 62.2371 86.78 61.6905 86.54C61.1438 86.2867 60.6838 85.98 60.3105 85.62C59.9371 85.2467 59.6638 84.8333 59.4905 84.38C59.3171 83.9133 59.2305 83.3867 59.2305 82.8C59.2305 82.2133 59.3571 81.6733 59.6105 81.18C59.8771 80.6867 60.2371 80.26 60.6905 79.9C61.1438 79.54 61.6705 79.26 62.2705 79.06C62.8705 78.86 63.5171 78.76 64.2105 78.76C64.9971 78.76 65.6971 78.8533 66.3105 79.04C66.9371 79.2267 67.4838 79.5067 67.9505 79.88C68.4305 80.24 68.8238 80.68 69.1305 81.2L67.4105 82.9C67.1438 82.4867 66.8438 82.1467 66.5105 81.88C66.1771 81.6 65.8171 81.3933 65.4305 81.26C65.0438 81.1133 64.6371 81.04 64.2105 81.04C63.7305 81.04 63.3105 81.1067 62.9505 81.24C62.6038 81.3733 62.3305 81.5667 62.1305 81.82C61.9305 82.06 61.8305 82.3533 61.8305 82.7C61.8305 82.9667 61.8905 83.2067 62.0105 83.42C62.1305 83.62 62.2971 83.8 62.5105 83.96C62.7371 84.12 63.0238 84.26 63.3705 84.38C63.7171 84.5 64.1105 84.6067 64.5505 84.7C65.2838 84.8467 65.9438 85.0467 66.5305 85.3C67.1171 85.54 67.6171 85.8333 68.0305 86.18C68.4438 86.5133 68.7571 86.9 68.9705 87.34C69.1838 87.7667 69.2905 88.2467 69.2905 88.78C69.2905 89.7 69.0705 90.4933 68.6305 91.16C68.2038 91.8133 67.5971 92.32 66.8105 92.68C66.0238 93.0267 65.1038 93.2 64.0505 93.2Z" fill="#FBFEF9"/>
<path d="M64.0505 93.2C63.2371 93.2 62.4905 93.1 61.8105 92.9C61.1305 92.6867 60.5171 92.3733 59.9705 91.96C59.4238 91.5467 58.9371 91.0467 58.5105 90.46L60.2105 88.54C60.8638 89.4467 61.5038 90.0733 62.1305 90.42C62.7571 90.7667 63.4638 90.94 64.2505 90.94C64.7038 90.94 65.1171 90.8733 65.4905 90.74C65.8638 90.5933 66.1571 90.4 66.3705 90.16C66.5838 89.9067 66.6905 89.62 66.6905 89.3C66.6905 89.0733 66.6438 88.8667 66.5505 88.68C66.4705 88.48 66.3438 88.3067 66.1705 88.16C65.9971 88 65.7838 87.8533 65.5305 87.72C65.2771 87.5867 64.9905 87.4733 64.6705 87.38C64.3505 87.2867 63.9971 87.2 63.6105 87.12C62.8771 86.9733 62.2371 86.78 61.6905 86.54C61.1438 86.2867 60.6838 85.98 60.3105 85.62C59.9371 85.2467 59.6638 84.8333 59.4905 84.38C59.3171 83.9133 59.2305 83.3867 59.2305 82.8C59.2305 82.2133 59.3571 81.6733 59.6105 81.18C59.8771 80.6867 60.2371 80.26 60.6905 79.9C61.1438 79.54 61.6705 79.26 62.2705 79.06C62.8705 78.86 63.5171 78.76 64.2105 78.76C64.9971 78.76 65.6971 78.8533 66.3105 79.04C66.9371 79.2267 67.4838 79.5067 67.9505 79.88C68.4305 80.24 68.8238 80.68 69.1305 81.2L67.4105 82.9C67.1438 82.4867 66.8438 82.1467 66.5105 81.88C66.1771 81.6 65.8171 81.3933 65.4305 81.26C65.0438 81.1133 64.6371 81.04 64.2105 81.04C63.7305 81.04 63.3105 81.1067 62.9505 81.24C62.6038 81.3733 62.3305 81.5667 62.1305 81.82C61.9305 82.06 61.8305 82.3533 61.8305 82.7C61.8305 82.9667 61.8905 83.2067 62.0105 83.42C62.1305 83.62 62.2971 83.8 62.5105 83.96C62.7371 84.12 63.0238 84.26 63.3705 84.38C63.7171 84.5 64.1105 84.6067 64.5505 84.7C65.2838 84.8467 65.9438 85.0467 66.5305 85.3C67.1171 85.54 67.6171 85.8333 68.0305 86.18C68.4438 86.5133 68.7571 86.9 68.9705 87.34C69.1838 87.7667 69.2905 88.2467 69.2905 88.78C69.2905 89.7 69.0705 90.4933 68.6305 91.16C68.2038 91.8133 67.5971 92.32 66.8105 92.68C66.0238 93.0267 65.1038 93.2 64.0505 93.2Z" fill="#FBFEF9"/>
<path d="M92 70H120C120.552 70 121 70.4477 121 71V99C121 99.5523 120.552 100 120 100H92C91.4477 100 91 99.5523 91 99V71C91 70.4477 91.4477 70 92 70Z" stroke="#C8CED0" stroke-width="6"/>
<rect width="24" height="24" transform="translate(94 73)" fill="#FBFEF9"/>
<path d="M101.449 91V79.8H105.945C106.756 79.8 107.487 79.9333 108.137 80.2C108.799 80.4667 109.364 80.8507 109.833 81.352C110.313 81.8533 110.676 82.4453 110.921 83.128C111.177 83.8107 111.305 84.568 111.305 85.4C111.305 86.232 111.177 86.9947 110.921 87.688C110.676 88.3707 110.319 88.9627 109.849 89.464C109.38 89.9547 108.815 90.3333 108.153 90.6C107.492 90.8667 106.756 91 105.945 91H101.449ZM103.529 89.384L103.369 89.08H105.865C106.388 89.08 106.852 88.9947 107.257 88.824C107.673 88.6533 108.025 88.408 108.313 88.088C108.601 87.768 108.82 87.384 108.969 86.936C109.119 86.4773 109.193 85.9653 109.193 85.4C109.193 84.8347 109.119 84.328 108.969 83.88C108.82 83.4213 108.596 83.032 108.297 82.712C108.009 82.392 107.663 82.1467 107.257 81.976C106.852 81.8053 106.388 81.72 105.865 81.72H103.321L103.529 81.448V89.384Z" fill="#FBFEF9"/>
<path d="M101.449 91V79.8H105.945C106.756 79.8 107.487 79.9333 108.137 80.2C108.799 80.4667 109.364 80.8507 109.833 81.352C110.313 81.8533 110.676 82.4453 110.921 83.128C111.177 83.8107 111.305 84.568 111.305 85.4C111.305 86.232 111.177 86.9947 110.921 87.688C110.676 88.3707 110.319 88.9627 109.849 89.464C109.38 89.9547 108.815 90.3333 108.153 90.6C107.492 90.8667 106.756 91 105.945 91H101.449ZM103.529 89.384L103.369 89.08H105.865C106.388 89.08 106.852 88.9947 107.257 88.824C107.673 88.6533 108.025 88.408 108.313 88.088C108.601 87.768 108.82 87.384 108.969 86.936C109.119 86.4773 109.193 85.9653 109.193 85.4C109.193 84.8347 109.119 84.328 108.969 83.88C108.82 83.4213 108.596 83.032 108.297 82.712C108.009 82.392 107.663 82.1467 107.257 81.976C106.852 81.8053 106.388 81.72 105.865 81.72H103.321L103.529 81.448V89.384Z" fill="#191923"/>
</svg>
