<svg width="128" height="128" viewBox="0 0 128 128" fill="none" xmlns="http://www.w3.org/2000/svg">
<path d="M50 28H78C78.5523 28 79 28.4477 79 29V57C79 57.5523 78.5523 58 78 58H50C49.4477 58 49 57.5523 49 57V29C49 28.4477 49.4477 28 50 28Z" stroke="#C8CED0" stroke-width="6"/>
<path d="M92 70H120C120.552 70 121 70.4477 121 71V99C121 99.5523 120.552 100 120 100H92C91.4477 100 91 99.5523 91 99V71C91 70.4477 91.4477 70 92 70Z" stroke="#C8CED0" stroke-width="6"/>
<path d="M8 70H36C36.5523 70 37 70.4477 37 71V99C37 99.5523 36.5523 100 36 100H8C7.44772 100 7 99.5523 7 99V71C7 70.4477 7.44772 70 8 70Z" stroke="#C8CED0" stroke-width="6"/>
<path d="M8 70H36C36.5523 70 37 70.4477 37 71V99C37 99.5523 36.5523 100 36 100H8C7.44772 100 7 99.5523 7 99V71C7 70.4477 7.44772 70 8 70Z" stroke="#C8CED0" stroke-width="6"/>
<rect width="24" height="24" transform="translate(10 73)" fill="#FBFEF9"/>
<path d="M16.6701 91L21.0381 79.8H22.9901L27.3261 91H25.1661L22.7661 84.632C22.7127 84.504 22.6381 84.3013 22.5421 84.024C22.4567 83.7467 22.3607 83.448 22.2541 83.128C22.1474 82.7973 22.0514 82.4933 21.9661 82.216C21.8807 81.928 21.8167 81.72 21.7741 81.592L22.1741 81.576C22.1101 81.7893 22.0354 82.0293 21.9501 82.296C21.8647 82.5627 21.7741 82.84 21.6781 83.128C21.5821 83.416 21.4861 83.6933 21.3901 83.96C21.3047 84.2267 21.2247 84.4667 21.1501 84.68L18.7501 91H16.6701ZM18.6541 88.44L19.3741 86.632H24.4781L25.2461 88.44H18.6541Z" fill="#FBFEF9"/>
<path d="M16.6701 91L21.0381 79.8H22.9901L27.3261 91H25.1661L22.7661 84.632C22.7127 84.504 22.6381 84.3013 22.5421 84.024C22.4567 83.7467 22.3607 83.448 22.2541 83.128C22.1474 82.7973 22.0514 82.4933 21.9661 82.216C21.8807 81.928 21.8167 81.72 21.7741 81.592L22.1741 81.576C22.1101 81.7893 22.0354 82.0293 21.9501 82.296C21.8647 82.5627 21.7741 82.84 21.6781 83.128C21.5821 83.416 21.4861 83.6933 21.3901 83.96C21.3047 84.2267 21.2247 84.4667 21.1501 84.68L18.7501 91H16.6701ZM18.6541 88.44L19.3741 86.632H24.4781L25.2461 88.44H18.6541Z" fill="#191923"/>
<path d="M58.7488 51L54.3888 37H57.1088L59.5888 45.26C59.6688 45.5133 59.7422 45.7933 59.8088 46.1C59.8755 46.4067 59.9355 46.7133 59.9888 47.02C60.0422 47.3133 60.0888 47.5867 60.1288 47.84C60.1688 48.0933 60.2088 48.3067 60.2488 48.48L59.7088 48.46C59.8688 47.8333 59.9955 47.3267 60.0888 46.94C60.1822 46.5533 60.2622 46.2333 60.3288 45.98C60.4088 45.7133 60.4888 45.4667 60.5688 45.24L62.9288 39.2H65.1488L67.4488 45.24C67.5822 45.6133 67.7022 45.9733 67.8088 46.32C67.9155 46.6533 68.0022 46.9867 68.0688 47.32C68.1488 47.64 68.2222 47.9733 68.2888 48.32L67.8088 48.42C67.8622 48.1 67.9022 47.84 67.9288 47.64C67.9555 47.44 67.9822 47.26 68.0088 47.1C68.0355 46.94 68.0622 46.7867 68.0888 46.64C68.1155 46.48 68.1555 46.2933 68.2088 46.08C68.2755 45.8533 68.3555 45.5667 68.4488 45.22L70.9088 37H73.6088L69.2288 51H67.3488L63.7888 42.48L64.0288 42.56L60.6488 51H58.7488Z" fill="#FBFEF9"/>
<path d="M58.7488 51L54.3888 37H57.1088L59.5888 45.26C59.6688 45.5133 59.7422 45.7933 59.8088 46.1C59.8755 46.4067 59.9355 46.7133 59.9888 47.02C60.0422 47.3133 60.0888 47.5867 60.1288 47.84C60.1688 48.0933 60.2088 48.3067 60.2488 48.48L59.7088 48.46C59.8688 47.8333 59.9955 47.3267 60.0888 46.94C60.1822 46.5533 60.2622 46.2333 60.3288 45.98C60.4088 45.7133 60.4888 45.4667 60.5688 45.24L62.9288 39.2H65.1488L67.4488 45.24C67.5822 45.6133 67.7022 45.9733 67.8088 46.32C67.9155 46.6533 68.0022 46.9867 68.0688 47.32C68.1488 47.64 68.2222 47.9733 68.2888 48.32L67.8088 48.42C67.8622 48.1 67.9022 47.84 67.9288 47.64C67.9555 47.44 67.9822 47.26 68.0088 47.1C68.0355 46.94 68.0622 46.7867 68.0888 46.64C68.1155 46.48 68.1555 46.2933 68.2088 46.08C68.2755 45.8533 68.3555 45.5667 68.4488 45.22L70.9088 37H73.6088L69.2288 51H67.3488L63.7888 42.48L64.0288 42.56L60.6488 51H58.7488Z" fill="#FBFEF9"/>
<rect width="24" height="24" transform="translate(52 73)" fill="#FBFEF9"/>
<path d="M50 70H78C78.5523 70 79 70.4477 79 71V99C79 99.5523 78.5523 100 78 100H50C49.4477 100 49 99.5523 49 99V71C49 70.4477 49.4477 70 50 70Z" stroke="#C8CED0" stroke-width="6"/>
<path d="M64.0404 91.16C63.3897 91.16 62.7924 91.08 62.2484 90.92C61.7044 90.7493 61.2137 90.4987 60.7764 90.168C60.339 89.8373 59.9497 89.4373 59.6084 88.968L60.9684 87.432C61.491 88.1573 62.003 88.6587 62.5044 88.936C63.0057 89.2133 63.571 89.352 64.2004 89.352C64.563 89.352 64.8937 89.2987 65.1924 89.192C65.491 89.0747 65.7257 88.92 65.8964 88.728C66.067 88.5253 66.1524 88.296 66.1524 88.04C66.1524 87.8587 66.115 87.6933 66.0404 87.544C65.9764 87.384 65.875 87.2453 65.7364 87.128C65.5977 87 65.427 86.8827 65.2244 86.776C65.0217 86.6693 64.7924 86.5787 64.5364 86.504C64.2804 86.4293 63.9977 86.36 63.6884 86.296C63.1017 86.1787 62.5897 86.024 62.1524 85.832C61.715 85.6293 61.347 85.384 61.0484 85.096C60.7497 84.7973 60.531 84.4667 60.3924 84.104C60.2537 83.7307 60.1844 83.3093 60.1844 82.84C60.1844 82.3707 60.2857 81.9387 60.4884 81.544C60.7017 81.1493 60.9897 80.808 61.3524 80.52C61.715 80.232 62.1364 80.008 62.6164 79.848C63.0964 79.688 63.6137 79.608 64.1684 79.608C64.7977 79.608 65.3577 79.6827 65.8484 79.832C66.3497 79.9813 66.787 80.2053 67.1604 80.504C67.5444 80.792 67.859 81.144 68.1044 81.56L66.7284 82.92C66.515 82.5893 66.275 82.3173 66.0084 82.104C65.7417 81.88 65.4537 81.7147 65.1444 81.608C64.835 81.4907 64.5097 81.432 64.1684 81.432C63.7844 81.432 63.4484 81.4853 63.1604 81.592C62.883 81.6987 62.6644 81.8533 62.5044 82.056C62.3444 82.248 62.2644 82.4827 62.2644 82.76C62.2644 82.9733 62.3124 83.1653 62.4084 83.336C62.5044 83.496 62.6377 83.64 62.8084 83.768C62.9897 83.896 63.219 84.008 63.4964 84.104C63.7737 84.2 64.0884 84.2853 64.4404 84.36C65.027 84.4773 65.555 84.6373 66.0244 84.84C66.4937 85.032 66.8937 85.2667 67.2244 85.544C67.555 85.8107 67.8057 86.12 67.9764 86.472C68.147 86.8133 68.2324 87.1973 68.2324 87.624C68.2324 88.36 68.0564 88.9947 67.7044 89.528C67.363 90.0507 66.8777 90.456 66.2484 90.744C65.619 91.0213 64.883 91.16 64.0404 91.16Z" fill="#FBFEF9"/>
<path d="M64.0404 91.16C63.3897 91.16 62.7924 91.08 62.2484 90.92C61.7044 90.7493 61.2137 90.4987 60.7764 90.168C60.339 89.8373 59.9497 89.4373 59.6084 88.968L60.9684 87.432C61.491 88.1573 62.003 88.6587 62.5044 88.936C63.0057 89.2133 63.571 89.352 64.2004 89.352C64.563 89.352 64.8937 89.2987 65.1924 89.192C65.491 89.0747 65.7257 88.92 65.8964 88.728C66.067 88.5253 66.1524 88.296 66.1524 88.04C66.1524 87.8587 66.115 87.6933 66.0404 87.544C65.9764 87.384 65.875 87.2453 65.7364 87.128C65.5977 87 65.427 86.8827 65.2244 86.776C65.0217 86.6693 64.7924 86.5787 64.5364 86.504C64.2804 86.4293 63.9977 86.36 63.6884 86.296C63.1017 86.1787 62.5897 86.024 62.1524 85.832C61.715 85.6293 61.347 85.384 61.0484 85.096C60.7497 84.7973 60.531 84.4667 60.3924 84.104C60.2537 83.7307 60.1844 83.3093 60.1844 82.84C60.1844 82.3707 60.2857 81.9387 60.4884 81.544C60.7017 81.1493 60.9897 80.808 61.3524 80.52C61.715 80.232 62.1364 80.008 62.6164 79.848C63.0964 79.688 63.6137 79.608 64.1684 79.608C64.7977 79.608 65.3577 79.6827 65.8484 79.832C66.3497 79.9813 66.787 80.2053 67.1604 80.504C67.5444 80.792 67.859 81.144 68.1044 81.56L66.7284 82.92C66.515 82.5893 66.275 82.3173 66.0084 82.104C65.7417 81.88 65.4537 81.7147 65.1444 81.608C64.835 81.4907 64.5097 81.432 64.1684 81.432C63.7844 81.432 63.4484 81.4853 63.1604 81.592C62.883 81.6987 62.6644 81.8533 62.5044 82.056C62.3444 82.248 62.2644 82.4827 62.2644 82.76C62.2644 82.9733 62.3124 83.1653 62.4084 83.336C62.5044 83.496 62.6377 83.64 62.8084 83.768C62.9897 83.896 63.219 84.008 63.4964 84.104C63.7737 84.2 64.0884 84.2853 64.4404 84.36C65.027 84.4773 65.555 84.6373 66.0244 84.84C66.4937 85.032 66.8937 85.2667 67.2244 85.544C67.555 85.8107 67.8057 86.12 67.9764 86.472C68.147 86.8133 68.2324 87.1973 68.2324 87.624C68.2324 88.36 68.0564 88.9947 67.7044 89.528C67.363 90.0507 66.8777 90.456 66.2484 90.744C65.619 91.0213 64.883 91.16 64.0404 91.16Z" fill="#191923"/>
<path d="M92 70H120C120.552 70 121 70.4477 121 71V99C121 99.5523 120.552 100 120 100H92C91.4477 100 91 99.5523 91 99V71C91 70.4477 91.4477 70 92 70Z" stroke="#C8CED0" stroke-width="6"/>
<rect width="24" height="24" transform="translate(94 73)" fill="#FBFEF9"/>
<path d="M101.449 91V79.8H105.945C106.756 79.8 107.487 79.9333 108.137 80.2C108.799 80.4667 109.364 80.8507 109.833 81.352C110.313 81.8533 110.676 82.4453 110.921 83.128C111.177 83.8107 111.305 84.568 111.305 85.4C111.305 86.232 111.177 86.9947 110.921 87.688C110.676 88.3707 110.319 88.9627 109.849 89.464C109.38 89.9547 108.815 90.3333 108.153 90.6C107.492 90.8667 106.756 91 105.945 91H101.449ZM103.529 89.384L103.369 89.08H105.865C106.388 89.08 106.852 88.9947 107.257 88.824C107.673 88.6533 108.025 88.408 108.313 88.088C108.601 87.768 108.82 87.384 108.969 86.936C109.119 86.4773 109.193 85.9653 109.193 85.4C109.193 84.8347 109.119 84.328 108.969 83.88C108.82 83.4213 108.596 83.032 108.297 82.712C108.009 82.392 107.663 82.1467 107.257 81.976C106.852 81.8053 106.388 81.72 105.865 81.72H103.321L103.529 81.448V89.384Z" fill="#FBFEF9"/>
<path d="M101.449 91V79.8H105.945C106.756 79.8 107.487 79.9333 108.137 80.2C108.799 80.4667 109.364 80.8507 109.833 81.352C110.313 81.8533 110.676 82.4453 110.921 83.128C111.177 83.8107 111.305 84.568 111.305 85.4C111.305 86.232 111.177 86.9947 110.921 87.688C110.676 88.3707 110.319 88.9627 109.849 89.464C109.38 89.9547 108.815 90.3333 108.153 90.6C107.492 90.8667 106.756 91 105.945 91H101.449ZM103.529 89.384L103.369 89.08H105.865C106.388 89.08 106.852 88.9947 107.257 88.824C107.673 88.6533 108.025 88.408 108.313 88.088C108.601 87.768 108.82 87.384 108.969 86.936C109.119 86.4773 109.193 85.9653 109.193 85.4C109.193 84.8347 109.119 84.328 108.969 83.88C108.82 83.4213 108.596 83.032 108.297 82.712C108.009 82.392 107.663 82.1467 107.257 81.976C106.852 81.8053 106.388 81.72 105.865 81.72H103.321L103.529 81.448V89.384Z" fill="#191923"/>
</svg>
