<svg width="128" height="128" viewBox="0 0 128 128" fill="none" xmlns="http://www.w3.org/2000/svg">
<rect width="24" height="24" transform="translate(10 73)" fill="#FBFEF9"/>
<path d="M50 28H78C78.5523 28 79 28.4477 79 29V57C79 57.5523 78.5523 58 78 58H50C49.4477 58 49 57.5523 49 57V29C49 28.4477 49.4477 28 50 28Z" stroke="#C8CED0" stroke-width="6"/>
<rect width="24" height="24" transform="translate(52 73)" fill="#FBFEF9"/>
<path d="M50 70H78C78.5523 70 79 70.4477 79 71V99C79 99.5523 78.5523 100 78 100H50C49.4477 100 49 99.5523 49 99V71C49 70.4477 49.4477 70 50 70Z" stroke="#C8CED0" stroke-width="6"/>
<path d="M64.0404 91.16C63.3897 91.16 62.7924 91.08 62.2484 90.92C61.7044 90.7493 61.2137 90.4987 60.7764 90.168C60.339 89.8373 59.9497 89.4373 59.6084 88.968L60.9684 87.432C61.491 88.1573 62.003 88.6587 62.5044 88.936C63.0057 89.2133 63.571 89.352 64.2004 89.352C64.563 89.352 64.8937 89.2987 65.1924 89.192C65.491 89.0747 65.7257 88.92 65.8964 88.728C66.067 88.5253 66.1524 88.296 66.1524 88.04C66.1524 87.8587 66.115 87.6933 66.0404 87.544C65.9764 87.384 65.875 87.2453 65.7364 87.128C65.5977 87 65.427 86.8827 65.2244 86.776C65.0217 86.6693 64.7924 86.5787 64.5364 86.504C64.2804 86.4293 63.9977 86.36 63.6884 86.296C63.1017 86.1787 62.5897 86.024 62.1524 85.832C61.715 85.6293 61.347 85.384 61.0484 85.096C60.7497 84.7973 60.531 84.4667 60.3924 84.104C60.2537 83.7307 60.1844 83.3093 60.1844 82.84C60.1844 82.3707 60.2857 81.9387 60.4884 81.544C60.7017 81.1493 60.9897 80.808 61.3524 80.52C61.715 80.232 62.1364 80.008 62.6164 79.848C63.0964 79.688 63.6137 79.608 64.1684 79.608C64.7977 79.608 65.3577 79.6827 65.8484 79.832C66.3497 79.9813 66.787 80.2053 67.1604 80.504C67.5444 80.792 67.859 81.144 68.1044 81.56L66.7284 82.92C66.515 82.5893 66.275 82.3173 66.0084 82.104C65.7417 81.88 65.4537 81.7147 65.1444 81.608C64.835 81.4907 64.5097 81.432 64.1684 81.432C63.7844 81.432 63.4484 81.4853 63.1604 81.592C62.883 81.6987 62.6644 81.8533 62.5044 82.056C62.3444 82.248 62.2644 82.4827 62.2644 82.76C62.2644 82.9733 62.3124 83.1653 62.4084 83.336C62.5044 83.496 62.6377 83.64 62.8084 83.768C62.9897 83.896 63.219 84.008 63.4964 84.104C63.7737 84.2 64.0884 84.2853 64.4404 84.36C65.027 84.4773 65.555 84.6373 66.0244 84.84C66.4937 85.032 66.8937 85.2667 67.2244 85.544C67.555 85.8107 67.8057 86.12 67.9764 86.472C68.147 86.8133 68.2324 87.1973 68.2324 87.624C68.2324 88.36 68.0564 88.9947 67.7044 89.528C67.363 90.0507 66.8777 90.456 66.2484 90.744C65.619 91.0213 64.883 91.16 64.0404 91.16Z" fill="#FBFEF9"/>
<path d="M64.0404 91.16C63.3897 91.16 62.7924 91.08 62.2484 90.92C61.7044 90.7493 61.2137 90.4987 60.7764 90.168C60.339 89.8373 59.9497 89.4373 59.6084 88.968L60.9684 87.432C61.491 88.1573 62.003 88.6587 62.5044 88.936C63.0057 89.2133 63.571 89.352 64.2004 89.352C64.563 89.352 64.8937 89.2987 65.1924 89.192C65.491 89.0747 65.7257 88.92 65.8964 88.728C66.067 88.5253 66.1524 88.296 66.1524 88.04C66.1524 87.8587 66.115 87.6933 66.0404 87.544C65.9764 87.384 65.875 87.2453 65.7364 87.128C65.5977 87 65.427 86.8827 65.2244 86.776C65.0217 86.6693 64.7924 86.5787 64.5364 86.504C64.2804 86.4293 63.9977 86.36 63.6884 86.296C63.1017 86.1787 62.5897 86.024 62.1524 85.832C61.715 85.6293 61.347 85.384 61.0484 85.096C60.7497 84.7973 60.531 84.4667 60.3924 84.104C60.2537 83.7307 60.1844 83.3093 60.1844 82.84C60.1844 82.3707 60.2857 81.9387 60.4884 81.544C60.7017 81.1493 60.9897 80.808 61.3524 80.52C61.715 80.232 62.1364 80.008 62.6164 79.848C63.0964 79.688 63.6137 79.608 64.1684 79.608C64.7977 79.608 65.3577 79.6827 65.8484 79.832C66.3497 79.9813 66.787 80.2053 67.1604 80.504C67.5444 80.792 67.859 81.144 68.1044 81.56L66.7284 82.92C66.515 82.5893 66.275 82.3173 66.0084 82.104C65.7417 81.88 65.4537 81.7147 65.1444 81.608C64.835 81.4907 64.5097 81.432 64.1684 81.432C63.7844 81.432 63.4484 81.4853 63.1604 81.592C62.883 81.6987 62.6644 81.8533 62.5044 82.056C62.3444 82.248 62.2644 82.4827 62.2644 82.76C62.2644 82.9733 62.3124 83.1653 62.4084 83.336C62.5044 83.496 62.6377 83.64 62.8084 83.768C62.9897 83.896 63.219 84.008 63.4964 84.104C63.7737 84.2 64.0884 84.2853 64.4404 84.36C65.027 84.4773 65.555 84.6373 66.0244 84.84C66.4937 85.032 66.8937 85.2667 67.2244 85.544C67.555 85.8107 67.8057 86.12 67.9764 86.472C68.147 86.8133 68.2324 87.1973 68.2324 87.624C68.2324 88.36 68.0564 88.9947 67.7044 89.528C67.363 90.0507 66.8777 90.456 66.2484 90.744C65.619 91.0213 64.883 91.16 64.0404 91.16Z" fill="#191923"/>
<path d="M92 70H120C120.552 70 121 70.4477 121 71V99C121 99.5523 120.552 100 120 100H92C91.4477 100 91 99.5523 91 99V71C91 70.4477 91.4477 70 92 70Z" stroke="#C8CED0" stroke-width="6"/>
<path d="M8 70H36C36.5523 70 37 70.4477 37 71V99C37 99.5523 36.5523 100 36 100H8C7.44772 100 7 99.5523 7 99V71C7 70.4477 7.44772 70 8 70Z" stroke="#C8CED0" stroke-width="6"/>
<path d="M16.6701 91L21.0381 79.8H22.9901L27.3261 91H25.1661L22.7661 84.632C22.7127 84.504 22.6381 84.3013 22.5421 84.024C22.4567 83.7467 22.3607 83.448 22.2541 83.128C22.1474 82.7973 22.0514 82.4933 21.9661 82.216C21.8807 81.928 21.8167 81.72 21.7741 81.592L22.1741 81.576C22.1101 81.7893 22.0354 82.0293 21.9501 82.296C21.8647 82.5627 21.7741 82.84 21.6781 83.128C21.5821 83.416 21.4861 83.6933 21.3901 83.96C21.3047 84.2267 21.2247 84.4667 21.1501 84.68L18.7501 91H16.6701ZM18.6541 88.44L19.3741 86.632H24.4781L25.2461 88.44H18.6541Z" fill="#FBFEF9"/>
<path d="M16.6701 91L21.0381 79.8H22.9901L27.3261 91H25.1661L22.7661 84.632C22.7127 84.504 22.6381 84.3013 22.5421 84.024C22.4567 83.7467 22.3607 83.448 22.2541 83.128C22.1474 82.7973 22.0514 82.4933 21.9661 82.216C21.8807 81.928 21.8167 81.72 21.7741 81.592L22.1741 81.576C22.1101 81.7893 22.0354 82.0293 21.9501 82.296C21.8647 82.5627 21.7741 82.84 21.6781 83.128C21.5821 83.416 21.4861 83.6933 21.3901 83.96C21.3047 84.2267 21.2247 84.4667 21.1501 84.68L18.7501 91H16.6701ZM18.6541 88.44L19.3741 86.632H24.4781L25.2461 88.44H18.6541Z" fill="#191923"/>
<path d="M50 28H78C78.5523 28 79 28.4477 79 29V57C79 57.5523 78.5523 58 78 58H50C49.4477 58 49 57.5523 49 57V29C49 28.4477 49.4477 28 50 28Z" stroke="#C8CED0" stroke-width="6"/>
<rect width="24" height="24" transform="translate(52 31)" fill="#FBFEF9"/>
<path d="M59.7991 49L56.3111 37.8H58.4871L60.4711 44.408C60.5351 44.6107 60.5937 44.8347 60.6471 45.08C60.7004 45.3253 60.7484 45.5707 60.7911 45.816C60.8337 46.0507 60.8711 46.2693 60.9031 46.472C60.9351 46.6747 60.9671 46.8453 60.9991 46.984L60.5671 46.968C60.6951 46.4667 60.7964 46.0613 60.8711 45.752C60.9457 45.4427 61.0097 45.1867 61.0631 44.984C61.1271 44.7707 61.1911 44.5733 61.2551 44.392L63.1431 39.56H64.9191L66.7591 44.392C66.8657 44.6907 66.9617 44.9787 67.0471 45.256C67.1324 45.5227 67.2017 45.7893 67.2551 46.056C67.3191 46.312 67.3777 46.5787 67.4311 46.856L67.0471 46.936C67.0897 46.68 67.1217 46.472 67.1431 46.312C67.1644 46.152 67.1857 46.008 67.2071 45.88C67.2284 45.752 67.2497 45.6293 67.2711 45.512C67.2924 45.384 67.3244 45.2347 67.3671 45.064C67.4204 44.8827 67.4844 44.6533 67.5591 44.376L69.5271 37.8H71.6871L68.1831 49H66.6791L63.8311 42.184L64.0231 42.248L61.3191 49H59.7991Z" fill="#FBFEF9"/>
<path d="M59.7991 49L56.3111 37.8H58.4871L60.4711 44.408C60.5351 44.6107 60.5937 44.8347 60.6471 45.08C60.7004 45.3253 60.7484 45.5707 60.7911 45.816C60.8337 46.0507 60.8711 46.2693 60.9031 46.472C60.9351 46.6747 60.9671 46.8453 60.9991 46.984L60.5671 46.968C60.6951 46.4667 60.7964 46.0613 60.8711 45.752C60.9457 45.4427 61.0097 45.1867 61.0631 44.984C61.1271 44.7707 61.1911 44.5733 61.2551 44.392L63.1431 39.56H64.9191L66.7591 44.392C66.8657 44.6907 66.9617 44.9787 67.0471 45.256C67.1324 45.5227 67.2017 45.7893 67.2551 46.056C67.3191 46.312 67.3777 46.5787 67.4311 46.856L67.0471 46.936C67.0897 46.68 67.1217 46.472 67.1431 46.312C67.1644 46.152 67.1857 46.008 67.2071 45.88C67.2284 45.752 67.2497 45.6293 67.2711 45.512C67.2924 45.384 67.3244 45.2347 67.3671 45.064C67.4204 44.8827 67.4844 44.6533 67.5591 44.376L69.5271 37.8H71.6871L68.1831 49H66.6791L63.8311 42.184L64.0231 42.248L61.3191 49H59.7991Z" fill="#191923"/>
<path d="M100.312 93V79H105.932C106.945 79 107.858 79.1667 108.672 79.5C109.498 79.8333 110.205 80.3133 110.792 80.94C111.392 81.5667 111.845 82.3067 112.152 83.16C112.472 84.0133 112.632 84.96 112.632 86C112.632 87.04 112.472 87.9933 112.152 88.86C111.845 89.7133 111.398 90.4533 110.812 91.08C110.225 91.6933 109.518 92.1667 108.692 92.5C107.865 92.8333 106.945 93 105.932 93H100.312ZM102.912 90.98L102.712 90.6H105.832C106.485 90.6 107.065 90.4933 107.572 90.28C108.092 90.0667 108.532 89.76 108.892 89.36C109.252 88.96 109.525 88.48 109.712 87.92C109.898 87.3467 109.992 86.7067 109.992 86C109.992 85.2933 109.898 84.66 109.712 84.1C109.525 83.5267 109.245 83.04 108.872 82.64C108.512 82.24 108.078 81.9333 107.572 81.72C107.065 81.5067 106.485 81.4 105.832 81.4H102.652L102.912 81.06V90.98Z" fill="#FBFEF9"/>
<path d="M100.312 93V79H105.932C106.945 79 107.858 79.1667 108.672 79.5C109.498 79.8333 110.205 80.3133 110.792 80.94C111.392 81.5667 111.845 82.3067 112.152 83.16C112.472 84.0133 112.632 84.96 112.632 86C112.632 87.04 112.472 87.9933 112.152 88.86C111.845 89.7133 111.398 90.4533 110.812 91.08C110.225 91.6933 109.518 92.1667 108.692 92.5C107.865 92.8333 106.945 93 105.932 93H100.312ZM102.912 90.98L102.712 90.6H105.832C106.485 90.6 107.065 90.4933 107.572 90.28C108.092 90.0667 108.532 89.76 108.892 89.36C109.252 88.96 109.525 88.48 109.712 87.92C109.898 87.3467 109.992 86.7067 109.992 86C109.992 85.2933 109.898 84.66 109.712 84.1C109.525 83.5267 109.245 83.04 108.872 82.64C108.512 82.24 108.078 81.9333 107.572 81.72C107.065 81.5067 106.485 81.4 105.832 81.4H102.652L102.912 81.06V90.98Z" fill="#FBFEF9"/>
</svg>
