<svg width="128" height="128" viewBox="0 0 128 128" fill="none" xmlns="http://www.w3.org/2000/svg">
<circle cx="63.9922" cy="64" r="45" stroke="#C8CED0" stroke-width="6"/>
<circle cx="63.9922" cy="64" r="39" fill="#191923" stroke="#C8CED0" stroke-width="6"/>
<circle cx="63.9922" cy="64" r="41.5" stroke="#2E2836" stroke-width="3"/>
<path d="M53.2926 79V51H57.6126V74.84H76.3326V79H53.2926Z" fill="#FBFEF9"/>
<path d="M0.617396 65.029C0.237377 64.3956 0.237376 63.6044 0.617395 62.971L8.28501 50.1916C9.32864 48.4523 12 49.1922 12 51.2206L12 76.7794C12 78.8078 9.32864 79.5477 8.28501 77.8084L0.617396 65.029Z" fill="#191923"/>
<path d="M65.0399 127.383C64.4065 127.763 63.6152 127.763 62.9819 127.383L50.2025 119.715C48.4631 118.671 49.2031 116 51.2315 116H76.7902C78.8187 116 79.5586 118.671 77.8192 119.715L65.0399 127.383Z" fill="#191923"/>
</svg>
