<svg width="128" height="128" viewBox="0 0 128 128" fill="none" xmlns="http://www.w3.org/2000/svg">
<path d="M52 11H76H96C103.18 11 109 16.8203 109 24V30.4V52.8V104C109 111.18 103.18 117 96 117H76H64H52H32C24.8203 117 19 111.18 19 104V52.8V24C19 16.8203 24.8203 11 32 11H52Z" fill="#FBFEF9" stroke="#FBFEF9" stroke-width="6"/>
<path d="M53.5 17H74.5H96C99.866 17 103 20.134 103 24V34V54V104C103 107.866 99.866 111 96 111H74.5H64H53.5H32C28.134 111 25 107.866 25 104V54V24C25 20.134 28.134 17 32 17H53.5Z" stroke="#C8CED0" stroke-width="6"/>
<path d="M57.9014 87.616V62.656H50.5574L56.4134 56.8H50.5574L63.9974 43.36L77.4374 56.8H71.5814L77.4374 62.656H70.0934V87.616H57.9014ZM54.0614 55.36H57.8534L63.9974 49.216L70.1414 55.36H73.9334L63.9974 45.424L54.0614 55.36ZM59.3414 86.176H68.6534V61.216H73.9334L63.9974 51.28L54.0614 61.216H59.3414V86.176Z" fill="#191923"/>
</svg>
