<svg width="128" height="128" viewBox="0 0 128 128" fill="none" xmlns="http://www.w3.org/2000/svg">
<path d="M52 11H76H96C103.18 11 109 16.8203 109 24V30.4V52.8V104C109 111.18 103.18 117 96 117H76H64H52H32C24.8203 117 19 111.18 19 104V52.8V24C19 16.8203 24.8203 11 32 11H52Z" fill="#FBFEF9" stroke="#FBFEF9" stroke-width="6"/>
<path d="M53.5 17H74.5H96C99.866 17 103 20.134 103 24V34V54V104C103 107.866 99.866 111 96 111H74.5H64H53.5H32C28.134 111 25 107.866 25 104V54V24C25 20.134 28.134 17 32 17H53.5Z" stroke="#C8CED0" stroke-width="6"/>
<path d="M32.4057 73L39.0537 56.2H42.5097L49.1097 73H44.9817L41.8137 64.48C41.6857 64.144 41.5577 63.784 41.4297 63.4C41.3017 63.016 41.1737 62.624 41.0457 62.224C40.9177 61.808 40.7897 61.408 40.6617 61.024C40.5497 60.624 40.4537 60.256 40.3737 59.92L41.0937 59.896C40.9977 60.296 40.8857 60.688 40.7577 61.072C40.6457 61.456 40.5257 61.84 40.3977 62.224C40.2857 62.592 40.1577 62.968 40.0137 63.352C39.8697 63.72 39.7337 64.104 39.6057 64.504L36.4377 73H32.4057ZM35.5737 69.784L36.8457 66.712H44.5737L45.8217 69.784H35.5737ZM50.8218 73V55.24H54.6618V73H50.8218ZM59.0725 73V57.04H62.9125V73H59.0725ZM56.8165 63.616V60.256H65.3845V63.616H56.8165ZM75.787 73.24C74.443 73.24 73.227 73.024 72.139 72.592C71.051 72.16 70.115 71.552 69.331 70.768C68.547 69.984 67.947 69.064 67.531 68.008C67.115 66.936 66.907 65.776 66.907 64.528C66.907 63.28 67.123 62.136 67.555 61.096C68.003 60.04 68.635 59.12 69.451 58.336C70.267 57.552 71.227 56.944 72.331 56.512C73.451 56.08 74.667 55.864 75.979 55.864C76.907 55.864 77.779 55.984 78.595 56.224C79.427 56.464 80.179 56.792 80.851 57.208C81.523 57.624 82.091 58.104 82.555 58.648L80.083 61.264C79.683 60.88 79.267 60.56 78.835 60.304C78.419 60.048 77.971 59.848 77.491 59.704C77.011 59.544 76.499 59.464 75.955 59.464C75.251 59.464 74.603 59.592 74.011 59.848C73.435 60.104 72.923 60.464 72.475 60.928C72.043 61.376 71.707 61.912 71.467 62.536C71.227 63.144 71.107 63.808 71.107 64.528C71.107 65.248 71.235 65.92 71.491 66.544C71.747 67.168 72.099 67.712 72.547 68.176C72.995 68.624 73.523 68.984 74.131 69.256C74.755 69.512 75.419 69.64 76.123 69.64C76.619 69.64 77.083 69.56 77.515 69.4C77.963 69.24 78.347 69.024 78.667 68.752C78.987 68.48 79.243 68.16 79.435 67.792C79.627 67.408 79.723 67 79.723 66.568V65.944L80.251 66.76H75.619V63.568H83.515C83.547 63.744 83.571 63.984 83.587 64.288C83.603 64.592 83.611 64.888 83.611 65.176C83.627 65.464 83.635 65.68 83.635 65.824C83.635 66.912 83.435 67.912 83.035 68.824C82.651 69.72 82.107 70.496 81.403 71.152C80.699 71.808 79.867 72.32 78.907 72.688C77.947 73.056 76.907 73.24 75.787 73.24ZM86.3524 73V60.256H90.0004L90.1684 64.408L89.4484 63.616C89.6404 62.928 89.9524 62.312 90.3844 61.768C90.8324 61.224 91.3524 60.792 91.9444 60.472C92.5364 60.152 93.1684 59.992 93.8404 59.992C94.1284 59.992 94.3924 60.016 94.6324 60.064C94.8884 60.112 95.1204 60.168 95.3284 60.232L94.2724 64.48C94.0964 64.368 93.8564 64.28 93.5524 64.216C93.2644 64.136 92.9604 64.096 92.6404 64.096C92.2884 64.096 91.9604 64.16 91.6564 64.288C91.3524 64.4 91.0964 64.568 90.8884 64.792C90.6804 65.016 90.5124 65.28 90.3844 65.584C90.2724 65.888 90.2164 66.232 90.2164 66.616V73H86.3524Z" fill="#191923"/>
</svg>
