<svg width="128" height="128" viewBox="0 0 128 128" fill="none" xmlns="http://www.w3.org/2000/svg">
<path d="M52 11H76H96C103.18 11 109 16.8203 109 24V30.4V52.8V104C109 111.18 103.18 117 96 117H76H64H52H32C24.8203 117 19 111.18 19 104V52.8V24C19 16.8203 24.8203 11 32 11H52Z" fill="#FBFEF9" stroke="#FBFEF9" stroke-width="6"/>
<path d="M53.5 17H74.5H96C99.866 17 103 20.134 103 24V34V54V104C103 107.866 99.866 111 96 111H74.5H64H53.5H32C28.134 111 25 107.866 25 104V54V24C25 20.134 28.134 17 32 17H53.5Z" stroke="#C8CED0" stroke-width="6"/>
<path d="M50.375 102.023C48.4205 102.023 46.6326 101.545 45.0114 100.591C43.3902 99.6212 42.1023 98.3258 41.1477 96.7045C40.1932 95.0833 39.7159 93.303 39.7159 91.3636C39.7159 89.3939 40.1932 87.6061 41.1477 86C42.1023 84.3788 43.3902 83.0833 45.0114 82.1136C46.6326 81.1439 48.4129 80.6591 50.3523 80.6591H54.8523V74.75H50.3523C48.4129 74.75 46.6326 74.2727 45.0114 73.3182C43.3902 72.3636 42.1023 71.0833 41.1477 69.4773C40.1932 67.8561 39.7159 66.0606 39.7159 64.0909C39.7159 62.1212 40.1932 60.3333 41.1477 58.7273C42.1023 57.1212 43.3902 55.8409 45.0114 54.8864C46.6326 53.9167 48.4129 53.4318 50.3523 53.4318C52.3371 53.4318 54.1326 53.9167 55.7386 54.8864C57.3598 55.8409 58.6477 57.1212 59.6023 58.7273C60.572 60.3333 61.0568 62.1212 61.0568 64.0909V68.5227H66.9886V64.0909C66.9886 62.1212 67.4659 60.3333 68.4205 58.7273C69.375 57.1212 70.6553 55.8409 72.2614 54.8864C73.8826 53.9167 75.6705 53.4318 77.625 53.4318C79.5947 53.4318 81.3826 53.9167 82.9886 54.8864C84.6098 55.8409 85.8977 57.1212 86.8523 58.7273C87.8068 60.3333 88.2841 62.1212 88.2841 64.0909C88.2841 66.0606 87.8068 67.8561 86.8523 69.4773C85.8977 71.0833 84.6098 72.3636 82.9886 73.3182C81.3826 74.2727 79.5947 74.75 77.625 74.75H73.1932V80.6591H77.625C79.5947 80.6591 81.3826 81.1439 82.9886 82.1136C84.6098 83.0833 85.8977 84.3788 86.8523 86C87.8068 87.6061 88.2841 89.3939 88.2841 91.3636C88.2841 93.3182 87.8068 95.1061 86.8523 96.7273C85.8977 98.3333 84.6098 99.6212 82.9886 100.591C81.3826 101.545 79.5947 102.023 77.625 102.023C75.6705 102.023 73.8826 101.545 72.2614 100.591C70.6553 99.6212 69.375 98.3258 68.4205 96.7045C67.4659 95.0833 66.9886 93.303 66.9886 91.3636V86.8864H61.0568V91.3636C61.0568 93.303 60.572 95.0833 59.6023 96.7045C58.6477 98.3258 57.3598 99.6212 55.7386 100.591C54.1326 101.545 52.3447 102.023 50.375 102.023ZM50.3523 95.7955C51.1856 95.7955 51.9356 95.5985 52.6023 95.2045C53.2841 94.8106 53.8295 94.2727 54.2386 93.5909C54.6477 92.9091 54.8523 92.1667 54.8523 91.3636V86.8864H50.375C49.5568 86.8864 48.8068 87.0909 48.125 87.5C47.4583 87.8939 46.9205 88.4318 46.5114 89.1136C46.1174 89.7955 45.9205 90.5455 45.9205 91.3636C45.9205 92.1667 46.1174 92.9091 46.5114 93.5909C46.9205 94.2727 47.4583 94.8106 48.125 95.2045C48.8068 95.5985 49.5492 95.7955 50.3523 95.7955ZM50.3523 68.5227H54.8523V64.0909C54.8523 63.2727 54.6477 62.5303 54.2386 61.8636C53.8295 61.1818 53.2841 60.6439 52.6023 60.25C51.9356 59.8561 51.1856 59.6591 50.3523 59.6591C49.5492 59.6591 48.8068 59.8561 48.125 60.25C47.4583 60.6439 46.9205 61.1818 46.5114 61.8636C46.1174 62.5303 45.9205 63.2727 45.9205 64.0909C45.9205 64.9091 46.1174 65.6591 46.5114 66.3409C46.9205 67.0076 47.4583 67.5379 48.125 67.9318C48.8068 68.3258 49.5492 68.5227 50.3523 68.5227ZM73.1932 68.5227H77.625C78.4583 68.5227 79.2083 68.3258 79.875 67.9318C80.5417 67.5379 81.072 67.0076 81.4659 66.3409C81.875 65.6591 82.0795 64.9091 82.0795 64.0909C82.0795 63.2727 81.875 62.5303 81.4659 61.8636C81.072 61.1818 80.5417 60.6439 79.875 60.25C79.2083 59.8561 78.4583 59.6591 77.625 59.6591C76.8068 59.6591 76.0568 59.8561 75.375 60.25C74.7083 60.6439 74.178 61.1818 73.7841 61.8636C73.3902 62.5303 73.1932 63.2727 73.1932 64.0909V68.5227ZM77.6477 95.7955C78.4659 95.7955 79.2083 95.5985 79.875 95.2045C80.5417 94.8106 81.072 94.2727 81.4659 93.5909C81.875 92.9091 82.0795 92.1667 82.0795 91.3636C82.0795 90.5455 81.875 89.7955 81.4659 89.1136C81.072 88.4318 80.5417 87.8939 79.875 87.5C79.2083 87.0909 78.4583 86.8864 77.625 86.8864H73.1932V91.3636C73.1932 92.1818 73.3902 92.9318 73.7841 93.6136C74.178 94.2803 74.7083 94.8106 75.375 95.2045C76.0568 95.5985 76.8144 95.7955 77.6477 95.7955ZM61.0568 80.6591H66.9886V74.75H61.0568V80.6591Z" fill="#191923"/>
<path d="M40.3401 39V25H43.7401V36H49.9801V39H40.3401ZM52.5276 39V25H62.2876V27.9H55.8276V36.1H62.4876V39H52.5276ZM54.1276 33.26V30.5H61.3876V33.26H54.1276ZM65.4182 39V25H68.8182V39H65.4182ZM66.9982 33.64V30.8H74.2382V33.64H66.9982ZM66.9982 28V25H75.0582V28H66.9982ZM81.1145 39V28H76.9545V25H88.7745V28H84.5145V39H81.1145Z" fill="#191923"/>
</svg>
