<svg width="128" height="128" viewBox="0 0 128 128" fill="none" xmlns="http://www.w3.org/2000/svg">
<path d="M52 11H76H96C103.18 11 109 16.8203 109 24V30.4V52.8V104C109 111.18 103.18 117 96 117H76H64H52H32C24.8203 117 19 111.18 19 104V52.8V24C19 16.8203 24.8203 11 32 11H52Z" fill="#FBFEF9" stroke="#FBFEF9" stroke-width="6"/>
<path d="M53.5 17H74.5H96C99.866 17 103 20.134 103 24V34V54V104C103 107.866 99.866 111 96 111H74.5H64H53.5H32C28.134 111 25 107.866 25 104V54V24C25 20.134 28.134 17 32 17H53.5Z" stroke="#C8CED0" stroke-width="6"/>
<path d="M47.4381 53V43.2H49.8181V50.9H54.1861V53H47.4381ZM55.9693 53V43.2H62.8013V45.23H58.2793V50.97H62.9413V53H55.9693ZM57.0893 48.982V47.05H62.1713V48.982H57.0893ZM64.9927 53V43.2H67.3727V53H64.9927ZM66.0987 49.248V47.26H71.1667V49.248H66.0987ZM66.0987 45.3V43.2H71.7407V45.3H66.0987ZM75.9801 53V45.3H73.0681V43.2H81.3421V45.3H78.3601V53H75.9801ZM45.6073 83.24C44.3433 83.24 43.1753 83.032 42.1033 82.616C41.0473 82.184 40.1273 81.584 39.3433 80.816C38.5593 80.032 37.9513 79.112 37.5193 78.056C37.1033 76.984 36.8953 75.808 36.8953 74.528C36.8953 73.28 37.1193 72.128 37.5673 71.072C38.0153 70.016 38.6313 69.104 39.4153 68.336C40.2153 67.552 41.1513 66.944 42.2233 66.512C43.3113 66.08 44.4953 65.864 45.7753 65.864C46.5753 65.864 47.3593 65.968 48.1273 66.176C48.8953 66.384 49.6073 66.696 50.2633 67.112C50.9353 67.512 51.5113 67.992 51.9913 68.552L49.4953 71.408C49.1593 71.056 48.7993 70.752 48.4153 70.496C48.0473 70.224 47.6393 70.016 47.1913 69.872C46.7433 69.728 46.2633 69.656 45.7513 69.656C45.1113 69.656 44.5033 69.776 43.9273 70.016C43.3673 70.24 42.8713 70.568 42.4393 71C42.0233 71.416 41.6953 71.928 41.4553 72.536C41.2153 73.144 41.0953 73.824 41.0953 74.576C41.0953 75.312 41.2153 75.984 41.4553 76.592C41.6953 77.184 42.0313 77.696 42.4633 78.128C42.8953 78.56 43.4153 78.888 44.0233 79.112C44.6473 79.336 45.3353 79.448 46.0873 79.448C46.5993 79.448 47.0873 79.376 47.5513 79.232C48.0153 79.088 48.4393 78.896 48.8233 78.656C49.2233 78.4 49.5753 78.112 49.8793 77.792L51.8473 80.912C51.4473 81.36 50.9113 81.76 50.2393 82.112C49.5833 82.464 48.8473 82.744 48.0313 82.952C47.2313 83.144 46.4233 83.24 45.6073 83.24ZM54.6393 83V66.2H58.2873L64.4073 76.16L61.7913 76.136L67.9833 66.2H71.4873V83H67.5273V77.768C67.5273 76.328 67.5593 75.032 67.6233 73.88C67.7033 72.728 67.8313 71.584 68.0073 70.448L68.4633 71.696L63.8073 78.92H62.2233L57.6633 71.744L58.1193 70.448C58.2953 71.52 58.4153 72.624 58.4793 73.76C58.5593 74.88 58.5993 76.216 58.5993 77.768V83H54.6393ZM75.7097 83V66.2H82.7417C83.9737 66.2 85.1017 66.408 86.1257 66.824C87.1497 67.224 88.0297 67.8 88.7657 68.552C89.5177 69.304 90.0937 70.192 90.4937 71.216C90.8937 72.24 91.0937 73.368 91.0937 74.6C91.0937 75.832 90.8937 76.968 90.4937 78.008C90.0937 79.032 89.5177 79.92 88.7657 80.672C88.0297 81.408 87.1497 81.984 86.1257 82.4C85.1017 82.8 83.9737 83 82.7417 83H75.7097ZM79.7897 80.216L79.2377 79.4H82.6217C83.2937 79.4 83.8937 79.288 84.4217 79.064C84.9497 78.824 85.3977 78.496 85.7657 78.08C86.1497 77.664 86.4457 77.16 86.6537 76.568C86.8617 75.976 86.9657 75.32 86.9657 74.6C86.9657 73.88 86.8617 73.224 86.6537 72.632C86.4457 72.04 86.1497 71.536 85.7657 71.12C85.3977 70.704 84.9497 70.384 84.4217 70.16C83.8937 69.92 83.2937 69.8 82.6217 69.8H79.1657L79.7897 69.032V80.216Z" fill="#191923"/>
</svg>
