<svg width="128" height="128" viewBox="0 0 128 128" fill="none" xmlns="http://www.w3.org/2000/svg">
<path d="M52 11H76H96C103.18 11 109 16.8203 109 24V30.4V52.8V104C109 111.18 103.18 117 96 117H76H64H52H32C24.8203 117 19 111.18 19 104V52.8V24C19 16.8203 24.8203 11 32 11H52Z" fill="#FBFEF9" stroke="#FBFEF9" stroke-width="6"/>
<path d="M53.5 17H74.5H96C99.866 17 103 20.134 103 24V34V54V104C103 107.866 99.866 111 96 111H74.5H64H53.5H32C28.134 111 25 107.866 25 104V54V24C25 20.134 28.134 17 32 17H53.5Z" stroke="#C8CED0" stroke-width="6"/>
<path d="M41.0191 53V43.2H45.4291C46.0544 43.2 46.6191 43.3353 47.1231 43.606C47.6364 43.8767 48.0378 44.25 48.3271 44.726C48.6164 45.1927 48.7611 45.7247 48.7611 46.322C48.7611 46.938 48.6164 47.4933 48.3271 47.988C48.0378 48.4733 47.6411 48.856 47.1371 49.136C46.6331 49.416 46.0638 49.556 45.4291 49.556H43.2871V53H41.0191ZM46.4511 53L43.9591 48.576L46.3951 48.226L49.1671 53H46.4511ZM43.2871 47.736H45.2191C45.4618 47.736 45.6718 47.6847 45.8491 47.582C46.0358 47.47 46.1758 47.316 46.2691 47.12C46.3718 46.924 46.4231 46.7 46.4231 46.448C46.4231 46.196 46.3671 45.9767 46.2551 45.79C46.1431 45.594 45.9798 45.4447 45.7651 45.342C45.5598 45.2393 45.3078 45.188 45.0091 45.188H43.2871V47.736ZM50.6532 53V50.998H52.3052V45.202H50.6532V43.2H56.3512V45.202H54.6852V50.998H56.3512V53H50.6532ZM62.9597 53.14C62.1757 53.14 61.4664 53.014 60.8317 52.762C60.1971 52.51 59.6511 52.1553 59.1937 51.698C58.7364 51.2407 58.3864 50.704 58.1437 50.088C57.9011 49.4627 57.7797 48.786 57.7797 48.058C57.7797 47.33 57.9057 46.6627 58.1577 46.056C58.4191 45.44 58.7877 44.9033 59.2637 44.446C59.7397 43.9887 60.2997 43.634 60.9437 43.382C61.5971 43.13 62.3064 43.004 63.0717 43.004C63.6131 43.004 64.1217 43.074 64.5977 43.214C65.0831 43.354 65.5217 43.5453 65.9137 43.788C66.3057 44.0307 66.6371 44.3107 66.9077 44.628L65.4657 46.154C65.2324 45.93 64.9897 45.7433 64.7377 45.594C64.4951 45.4447 64.2337 45.328 63.9537 45.244C63.6737 45.1507 63.3751 45.104 63.0577 45.104C62.6471 45.104 62.2691 45.1787 61.9237 45.328C61.5877 45.4773 61.2891 45.6873 61.0277 45.958C60.7757 46.2193 60.5797 46.532 60.4397 46.896C60.2997 47.2507 60.2297 47.638 60.2297 48.058C60.2297 48.478 60.3044 48.87 60.4537 49.234C60.6031 49.598 60.8084 49.9153 61.0697 50.186C61.3311 50.4473 61.6391 50.6573 61.9937 50.816C62.3577 50.9653 62.7451 51.04 63.1557 51.04C63.4451 51.04 63.7157 50.9933 63.9677 50.9C64.2291 50.8067 64.4531 50.6807 64.6397 50.522C64.8264 50.3633 64.9757 50.1767 65.0877 49.962C65.1997 49.738 65.2557 49.5 65.2557 49.248V48.884L65.5637 49.36H62.8617V47.498H67.4677C67.4864 47.6007 67.5004 47.7407 67.5097 47.918C67.5191 48.0953 67.5237 48.268 67.5237 48.436C67.5331 48.604 67.5377 48.73 67.5377 48.814C67.5377 49.4487 67.4211 50.032 67.1877 50.564C66.9637 51.0867 66.6464 51.5393 66.2357 51.922C65.8251 52.3047 65.3397 52.6033 64.7797 52.818C64.2197 53.0327 63.6131 53.14 62.9597 53.14ZM75.4369 53V43.2H77.8169V53H75.4369ZM69.3609 53V43.2H71.7409V53H69.3609ZM70.2849 49.178L70.2989 47.05H76.6969V49.178H70.2849ZM82.3991 53V45.3H79.4871V43.2H87.7611V45.3H84.7791V53H82.3991ZM40.8821 83L35.8421 66.2H39.9941L42.5141 75.032C42.6261 75.432 42.7221 75.84 42.8021 76.256C42.8981 76.656 42.9701 77.04 43.0181 77.408C43.0821 77.776 43.1301 78.12 43.1621 78.44C43.1941 78.744 43.2261 79 43.2581 79.208H42.7301C42.8261 78.616 42.9061 78.088 42.9701 77.624C43.0501 77.16 43.1381 76.728 43.2341 76.328C43.3301 75.912 43.4501 75.48 43.5941 75.032L46.0901 68.384H49.3541L51.8021 75.032C51.9941 75.56 52.1541 76.056 52.2821 76.52C52.4101 76.984 52.5061 77.432 52.5701 77.864C52.6501 78.28 52.7141 78.696 52.7621 79.112L52.2821 79.184C52.3141 78.896 52.3381 78.632 52.3541 78.392C52.3701 78.136 52.3861 77.896 52.4021 77.672C52.4341 77.432 52.4661 77.184 52.4981 76.928C52.5301 76.672 52.5781 76.392 52.6421 76.088C52.7061 75.768 52.7941 75.408 52.9061 75.008L55.4021 66.2H59.4581L54.4181 83H51.2981L47.3141 73.328L47.7701 73.376L44.0981 83H40.8821ZM61.358 83V79.568H64.19V69.632H61.358V66.2H71.126V69.632H68.27V79.568H71.126V83H61.358ZM75.0065 83V66.2H78.6545L87.4625 78.2L86.6705 78.08C86.5905 77.552 86.5265 77.048 86.4785 76.568C86.4305 76.088 86.3825 75.616 86.3345 75.152C86.3025 74.688 86.2705 74.216 86.2385 73.736C86.2225 73.256 86.2065 72.736 86.1905 72.176C86.1905 71.616 86.1905 71.008 86.1905 70.352V66.2H90.1505V83H86.4545L77.2625 70.616L78.4865 70.784C78.5665 71.552 78.6305 72.208 78.6785 72.752C78.7425 73.28 78.7905 73.752 78.8225 74.168C78.8705 74.584 78.9025 74.96 78.9185 75.296C78.9345 75.632 78.9425 75.968 78.9425 76.304C78.9585 76.624 78.9665 76.984 78.9665 77.384V83H75.0065Z" fill="#191923"/>
</svg>
