<svg width="128" height="128" viewBox="0 0 128 128" fill="none" xmlns="http://www.w3.org/2000/svg">
<path d="M48 25H80H112C119.18 25 125 30.8203 125 38V38.8V55.6V90C125 97.1797 119.18 103 112 103H80H64H48H16C8.8203 103 3 97.1797 3 90V55.6V38C3 30.8203 8.8203 25 16 25H48Z" fill="#FBFEF9" stroke="#FBFEF9" stroke-width="6"/>
<path d="M49.5 31H78.5H112C115.866 31 119 34.134 119 38V42.4V56.8V90C119 93.866 115.866 97 112 97H78.5H64H49.5H16C12.134 97 9 93.866 9 90V56.8V38C9 34.134 12.134 31 16 31H49.5Z" stroke="#C8CED0" stroke-width="6"/>
<path d="M68.8062 67V57.2H73.2162C73.8416 57.2 74.4062 57.3353 74.9102 57.606C75.4236 57.8767 75.8249 58.25 76.1142 58.726C76.4036 59.1927 76.5482 59.7247 76.5482 60.322C76.5482 60.938 76.4036 61.4933 76.1142 61.988C75.8249 62.4733 75.4282 62.856 74.9242 63.136C74.4202 63.416 73.8509 63.556 73.2162 63.556H71.0742V67H68.8062ZM74.2382 67L71.7462 62.576L74.1822 62.226L76.9542 67H74.2382ZM71.0742 61.736H73.0062C73.2489 61.736 73.4589 61.6847 73.6362 61.582C73.8229 61.47 73.9629 61.316 74.0562 61.12C74.1589 60.924 74.2102 60.7 74.2102 60.448C74.2102 60.196 74.1542 59.9767 74.0422 59.79C73.9302 59.594 73.7669 59.4447 73.5522 59.342C73.3469 59.2393 73.0949 59.188 72.7962 59.188H71.0742V61.736ZM78.4403 67V64.998H80.0923V59.202H78.4403V57.2H84.1383V59.202H82.4723V64.998H84.1383V67H78.4403ZM90.7468 67.14C89.9628 67.14 89.2535 67.014 88.6188 66.762C87.9842 66.51 87.4382 66.1553 86.9808 65.698C86.5235 65.2407 86.1735 64.704 85.9308 64.088C85.6882 63.4627 85.5668 62.786 85.5668 62.058C85.5668 61.33 85.6928 60.6627 85.9448 60.056C86.2062 59.44 86.5748 58.9033 87.0508 58.446C87.5268 57.9887 88.0868 57.634 88.7308 57.382C89.3842 57.13 90.0935 57.004 90.8588 57.004C91.4002 57.004 91.9088 57.074 92.3848 57.214C92.8702 57.354 93.3088 57.5453 93.7008 57.788C94.0928 58.0307 94.4242 58.3107 94.6948 58.628L93.2528 60.154C93.0195 59.93 92.7768 59.7433 92.5248 59.594C92.2822 59.4447 92.0208 59.328 91.7408 59.244C91.4608 59.1507 91.1622 59.104 90.8448 59.104C90.4342 59.104 90.0562 59.1787 89.7108 59.328C89.3748 59.4773 89.0762 59.6873 88.8148 59.958C88.5628 60.2193 88.3668 60.532 88.2268 60.896C88.0868 61.2507 88.0168 61.638 88.0168 62.058C88.0168 62.478 88.0915 62.87 88.2408 63.234C88.3902 63.598 88.5955 63.9153 88.8568 64.186C89.1182 64.4473 89.4262 64.6573 89.7808 64.816C90.1448 64.9653 90.5322 65.04 90.9428 65.04C91.2322 65.04 91.5028 64.9933 91.7548 64.9C92.0162 64.8067 92.2402 64.6807 92.4268 64.522C92.6135 64.3633 92.7628 64.1767 92.8748 63.962C92.9868 63.738 93.0428 63.5 93.0428 63.248V62.884L93.3508 63.36H90.6488V61.498H95.2548C95.2735 61.6007 95.2875 61.7407 95.2968 61.918C95.3062 62.0953 95.3108 62.268 95.3108 62.436C95.3202 62.604 95.3248 62.73 95.3248 62.814C95.3248 63.4487 95.2082 64.032 94.9748 64.564C94.7508 65.0867 94.4335 65.5393 94.0228 65.922C93.6122 66.3047 93.1268 66.6033 92.5668 66.818C92.0068 67.0327 91.4002 67.14 90.7468 67.14ZM103.224 67V57.2H105.604V67H103.224ZM97.148 67V57.2H99.528V67H97.148ZM98.072 63.178L98.086 61.05H104.484V63.178H98.072ZM110.186 67V59.3H107.274V57.2H115.548V59.3H112.566V67H110.186ZM45.5394 91.24C44.4354 91.24 43.4354 91.112 42.5394 90.856C41.6594 90.584 40.8754 90.2 40.1874 89.704C39.4994 89.192 38.8834 88.592 38.3394 87.904L40.8114 85.096C41.6114 86.168 42.4114 86.888 43.2114 87.256C44.0274 87.624 44.8674 87.808 45.7314 87.808C46.1634 87.808 46.5554 87.752 46.9074 87.64C47.2594 87.528 47.5314 87.368 47.7234 87.16C47.9154 86.936 48.0114 86.664 48.0114 86.344C48.0114 86.104 47.9474 85.888 47.8194 85.696C47.7074 85.504 47.5474 85.336 47.3394 85.192C47.1314 85.048 46.8834 84.92 46.5954 84.808C46.3074 84.68 46.0034 84.576 45.6834 84.496C45.3634 84.4 45.0354 84.32 44.6994 84.256C43.7714 84.048 42.9634 83.792 42.2754 83.488C41.5874 83.184 41.0114 82.816 40.5474 82.384C40.0994 81.936 39.7634 81.432 39.5394 80.872C39.3154 80.296 39.2034 79.656 39.2034 78.952C39.2034 78.2 39.3714 77.512 39.7074 76.888C40.0594 76.248 40.5234 75.704 41.0994 75.256C41.6914 74.792 42.3714 74.44 43.1394 74.2C43.9074 73.944 44.7074 73.816 45.5394 73.816C46.6434 73.816 47.5874 73.936 48.3714 74.176C49.1714 74.4 49.8514 74.728 50.4114 75.16C50.9874 75.592 51.4754 76.112 51.8754 76.72L49.3554 79.144C49.0194 78.728 48.6514 78.384 48.2514 78.112C47.8674 77.84 47.4514 77.632 47.0034 77.488C46.5714 77.344 46.1234 77.272 45.6594 77.272C45.1794 77.272 44.7634 77.336 44.4114 77.464C44.0754 77.576 43.8114 77.744 43.6194 77.968C43.4274 78.176 43.3314 78.432 43.3314 78.736C43.3314 79.008 43.4114 79.24 43.5714 79.432C43.7314 79.624 43.9474 79.8 44.2194 79.96C44.4914 80.104 44.8034 80.232 45.1554 80.344C45.5074 80.44 45.8754 80.52 46.2594 80.584C47.1394 80.76 47.9314 80.992 48.6354 81.28C49.3554 81.568 49.9714 81.92 50.4834 82.336C51.0114 82.752 51.4114 83.248 51.6834 83.824C51.9714 84.384 52.1154 85.04 52.1154 85.792C52.1154 86.96 51.8274 87.952 51.2514 88.768C50.6914 89.568 49.9154 90.184 48.9234 90.616C47.9474 91.032 46.8194 91.24 45.5394 91.24ZM65.5983 91V74.2H69.6783V91H65.5983ZM55.1823 91V74.2H59.2623V91H55.1823ZM56.7663 84.448L56.7903 80.8H67.7583V84.448H56.7663ZM73.5494 91V87.568H76.3814V77.632H73.5494V74.2H83.3174V77.632H80.4614V87.568H83.3174V91H73.5494ZM87.1979 91V74.2H91.2779V91H87.1979ZM89.0939 84.568V81.16H97.7819V84.568H89.0939ZM89.0939 77.8V74.2H98.7659V77.8H89.0939ZM106.033 91V77.8H101.041V74.2H115.225V77.8H110.113V91H106.033Z" fill="#191923"/>
<path d="M14.4773 52.1136L29.6705 36.9091L44.875 52.1136H37.3068V62H22.0341V52.1136H14.4773ZM22.0114 49.25H25.7841V59.1364H33.5682V49.25H37.3409L29.6705 41.5795L22.0114 49.25Z" fill="#191923"/>
</svg>
