<svg width="128" height="128" viewBox="0 0 128 128" fill="none" xmlns="http://www.w3.org/2000/svg">
<g clip-path="url(#clip0_122_3141)">
<circle cx="24" cy="24" r="21" transform="matrix(4.37114e-08 -1 -1 -4.37114e-08 88 48)" stroke="#C8CED0" stroke-width="6"/>
<circle cx="24" cy="24" r="21" transform="matrix(4.37114e-08 -1 -1 -4.37114e-08 88 128)" stroke="#C8CED0" stroke-width="6"/>
<circle cx="24" cy="24" r="21" transform="matrix(4.37114e-08 -1 -1 -4.37114e-08 128 88)" fill="#191923" stroke="#C8CED0" stroke-width="6"/>
<circle cx="24" cy="24" r="21" transform="matrix(4.37114e-08 -1 -1 -4.37114e-08 48 88)" fill="#191923" stroke="#C8CED0" stroke-width="6"/>
<path d="M95.9522 73V56.2H105.528C107 56.2 108.24 56.368 109.248 56.704C110.272 57.04 111.04 57.512 111.552 58.12C112.064 58.728 112.32 59.464 112.32 60.328C112.32 61.256 112.04 62.056 111.48 62.728C110.92 63.384 110.072 63.84 108.936 64.096L109.056 63.664C109.776 63.824 110.448 64.08 111.072 64.432C111.712 64.768 112.224 65.224 112.608 65.8C113.008 66.376 113.208 67.08 113.208 67.912C113.208 68.936 112.992 69.776 112.56 70.432C112.128 71.088 111.56 71.608 110.856 71.992C110.152 72.36 109.384 72.624 108.552 72.784C107.736 72.928 106.936 73 106.152 73H95.9522ZM99.7922 69.592H106.248C106.808 69.592 107.304 69.528 107.736 69.4C108.184 69.272 108.536 69.072 108.792 68.8C109.064 68.512 109.2 68.152 109.2 67.72C109.2 67.224 109.032 66.848 108.696 66.592C108.36 66.32 107.952 66.136 107.472 66.04C106.992 65.928 106.544 65.872 106.128 65.872H99.7922V69.592ZM99.7922 62.8H105.576C106.104 62.8 106.568 62.736 106.968 62.608C107.384 62.48 107.704 62.296 107.928 62.056C108.168 61.816 108.288 61.512 108.288 61.144C108.288 60.584 108.008 60.192 107.448 59.968C106.904 59.728 106.232 59.608 105.432 59.608H99.7922V62.8Z" fill="#FBFEF9"/>
<path d="M28.9389 73L22.2669 65.416L13.9389 56.2H19.1469L25.5549 63.472L34.1709 73H28.9389ZM13.8189 73L21.8109 63.856L24.9549 65.752L18.8829 73H13.8189ZM26.1309 65.2L23.0349 63.376L28.8189 56.2H33.9069L26.1309 65.2Z" fill="#FBFEF9"/>
</g>
<defs>
<clipPath id="clip0_122_3141">
<rect width="128" height="128" fill="white"/>
</clipPath>
</defs>
</svg>
