<svg width="128" height="128" viewBox="0 0 128 128" fill="none" xmlns="http://www.w3.org/2000/svg">
<g clip-path="url(#clip0_122_3140)">
<circle cx="24" cy="24" r="21" transform="matrix(-1 0 0 1 88 0)" stroke="#C8CED0" stroke-width="6"/>
<circle cx="24" cy="24" r="21" transform="matrix(-1 0 0 1 128 40)" stroke="#C8CED0" stroke-width="6"/>
<circle cx="24" cy="24" r="21" transform="matrix(-1 0 0 1 48 40)" fill="#191923" stroke="#C8CED0" stroke-width="6"/>
<circle cx="24" cy="24" r="21" transform="matrix(-1 0 0 1 88 80)" fill="#191923" stroke="#C8CED0" stroke-width="6"/>
<path d="M53.7481 113L62.1001 96.2H65.9401L74.2441 113H70.0201L65.0521 103.04C64.8761 102.688 64.7161 102.36 64.5721 102.056C64.4281 101.736 64.2921 101.432 64.1641 101.144C64.0361 100.84 63.9161 100.544 63.8041 100.256C63.7081 99.952 63.6041 99.64 63.4921 99.32L64.4281 99.296C64.3161 99.632 64.1961 99.96 64.0681 100.28C63.9561 100.584 63.8281 100.888 63.6841 101.192C63.5561 101.496 63.4201 101.808 63.2761 102.128C63.1321 102.432 62.9801 102.744 62.8201 103.064L57.8761 113H53.7481ZM57.6121 110.024L58.9561 106.952H69.0121L69.5641 110.024H57.6121Z" fill="#FBFEF9"/>
<path d="M28.9389 73L22.2669 65.416L13.9389 56.2H19.1469L25.5549 63.472L34.1709 73H28.9389ZM13.8189 73L21.8109 63.856L24.9549 65.752L18.8829 73H13.8189ZM26.1309 65.2L23.0349 63.376L28.8189 56.2H33.9069L26.1309 65.2Z" fill="#FBFEF9"/>
</g>
<defs>
<clipPath id="clip0_122_3140">
<rect width="128" height="128" fill="white"/>
</clipPath>
</defs>
</svg>
