<svg width="128" height="128" viewBox="0 0 128 128" fill="none" xmlns="http://www.w3.org/2000/svg">
<path d="M55 82V79H76H79L78.9998 79L76 79L73 79V82V108C73 108.552 72.5523 109 72 109H64H56C55.4477 109 55 108.552 55 108V82Z" fill="#191923" stroke="#C8CED0" stroke-width="6"/>
<path fill-rule="evenodd" clip-rule="evenodd" d="M46 46V26.0418V20C46 19.8269 46.0044 19.6548 46.0131 19.4838C46.2817 14.2009 50.6503 10 56 10H72C77.3497 10 81.7183 14.2009 81.9869 19.4838C81.9956 19.6548 82 19.8269 82 20V26.0418V46H101.958H108C108.173 46 108.345 46.0044 108.516 46.0131C113.799 46.2817 118 50.6503 118 56V72C118 77.3497 113.799 81.7183 108.516 81.9869C108.345 81.9956 108.173 82 108 82H101.958H82V101.958V108C82 108.173 81.9956 108.345 81.9869 108.516C81.7183 113.799 77.3497 118 72 118H56C50.6503 118 46.2817 113.799 46.0131 108.516C46.0044 108.345 46 108.173 46 108V101.958V82H26.0418H20C19.8269 82 19.6548 81.9956 19.4838 81.9869C14.2009 81.7183 10 77.3497 10 72V56C10 50.6503 14.2009 46.2817 19.4838 46.0131C19.6548 46.0044 19.8269 46 20 46H26.0418H46ZM52 48C52 50.2091 50.2091 52 48 52H23.7393H20C18.931 52 17.96 52.4193 17.2424 53.1025C16.477 53.8311 16 54.8598 16 56V72C16 73.1402 16.477 74.1689 17.2424 74.8975C17.96 75.5807 18.931 76 20 76H23.7393H48C50.2091 76 52 77.7909 52 80V104.261V108C52 109.069 52.4193 110.04 53.1025 110.758C53.8311 111.523 54.8598 112 56 112H72C73.1402 112 74.1689 111.523 74.8975 110.758C75.5807 110.04 76 109.069 76 108V104.261V80C76 77.7909 77.7909 76 80 76H104.261H108C109.069 76 110.04 75.5807 110.758 74.8975C111.523 74.1689 112 73.1402 112 72V56C112 54.8598 111.523 53.8311 110.758 53.1025C110.04 52.4193 109.069 52 108 52H104.261H80C77.7909 52 76 50.2091 76 48V23.7393V20C76 18.931 75.5807 17.96 74.8975 17.2424C74.1689 16.477 73.1402 16 72 16H56C54.8598 16 53.8311 16.477 53.1025 17.2424C52.4193 17.96 52 18.931 52 20V23.7393V48Z" fill="#2E2836"/>
<path d="M81.9869 19.4838C81.9956 19.6548 82 19.8269 82 20V26.0418C90.7342 30.1909 97.8091 37.2658 101.958 46H108C108.173 46 108.345 46.0044 108.516 46.0131C103.646 33.9702 94.0298 24.3545 81.9869 19.4838Z" fill="#2E2836"/>
<path d="M46 26.0418V20C46 19.8269 46.0044 19.6548 46.0131 19.4838C33.9702 24.3545 24.3545 33.9702 19.4838 46.0131C19.6548 46.0044 19.8269 46 20 46H26.0418C30.1909 37.2658 37.2658 30.1909 46 26.0418Z" fill="#2E2836"/>
<path d="M46.0131 108.516C46.0044 108.345 46 108.173 46 108V101.958C37.2658 97.8091 30.1909 90.7342 26.0418 82H20C19.8269 82 19.6548 81.9956 19.4838 81.9869C24.3545 94.0298 33.9702 103.646 46.0131 108.516Z" fill="#2E2836"/>
<path d="M82 101.958V108C82 108.173 81.9956 108.345 81.9869 108.516C94.0298 103.646 103.646 94.0298 108.516 81.9869C108.345 81.9956 108.173 82 108 82H101.958C97.8091 90.7342 90.7342 97.8091 82 101.958Z" fill="#2E2836"/>
</svg>
