<svg width="128" height="128" viewBox="0 0 128 128" fill="none" xmlns="http://www.w3.org/2000/svg">
<path d="M52 19H76H96C103.18 19 109 24.8203 109 32V35.2V54.4V96C109 103.18 103.18 109 96 109H76H64H52H32C24.8203 109 19 103.18 19 96V54.4V32C19 24.8203 24.8203 19 32 19H52Z" stroke="#C8CED0" stroke-width="6"/>
<path d="M36.0106 80.16C35.2746 80.16 34.608 80.0747 34.0106 79.904C33.424 79.7227 32.9013 79.4667 32.4426 79.136C31.984 78.7947 31.5733 78.3947 31.2106 77.936L32.8586 76.064C33.392 76.7787 33.9253 77.2587 34.4586 77.504C35.0026 77.7493 35.5626 77.872 36.1386 77.872C36.4266 77.872 36.688 77.8347 36.9226 77.76C37.1573 77.6853 37.3386 77.5787 37.4666 77.44C37.5946 77.2907 37.6586 77.1093 37.6586 76.896C37.6586 76.736 37.616 76.592 37.5306 76.464C37.456 76.336 37.3493 76.224 37.2106 76.128C37.072 76.032 36.9066 75.9467 36.7146 75.872C36.5226 75.7867 36.32 75.7173 36.1066 75.664C35.8933 75.6 35.6746 75.5467 35.4506 75.504C34.832 75.3653 34.2933 75.1947 33.8346 74.992C33.376 74.7893 32.992 74.544 32.6826 74.256C32.384 73.9573 32.16 73.6213 32.0106 73.248C31.8613 72.864 31.7866 72.4373 31.7866 71.968C31.7866 71.4667 31.8986 71.008 32.1226 70.592C32.3573 70.1653 32.6666 69.8027 33.0506 69.504C33.4453 69.1947 33.8986 68.96 34.4106 68.8C34.9226 68.6293 35.456 68.544 36.0106 68.544C36.7466 68.544 37.376 68.624 37.8986 68.784C38.432 68.9333 38.8853 69.152 39.2586 69.44C39.6426 69.728 39.968 70.0747 40.2346 70.48L38.5546 72.096C38.3306 71.8187 38.0853 71.5893 37.8186 71.408C37.5626 71.2267 37.2853 71.088 36.9866 70.992C36.6986 70.896 36.4 70.848 36.0906 70.848C35.7706 70.848 35.4933 70.8907 35.2586 70.976C35.0346 71.0507 34.8586 71.1627 34.7306 71.312C34.6026 71.4507 34.5386 71.6213 34.5386 71.824C34.5386 72.0053 34.592 72.16 34.6986 72.288C34.8053 72.416 34.9493 72.5333 35.1306 72.64C35.312 72.736 35.52 72.8213 35.7546 72.896C35.9893 72.96 36.2346 73.0133 36.4906 73.056C37.0773 73.1733 37.6053 73.328 38.0746 73.52C38.5546 73.712 38.9653 73.9467 39.3066 74.224C39.6586 74.5013 39.9253 74.832 40.1066 75.216C40.2986 75.5893 40.3946 76.0267 40.3946 76.528C40.3946 77.3067 40.2026 77.968 39.8186 78.512C39.4453 79.0453 38.928 79.456 38.2666 79.744C37.616 80.0213 36.864 80.16 36.0106 80.16ZM42.4393 80V68.8H50.2473V71.12H45.0793V77.68H50.4073V80H42.4393ZM43.7193 75.408V73.2H49.5273V75.408H43.7193ZM51.3277 80L55.7598 68.8H58.0638L62.4638 80H59.7118L57.5998 74.32C57.5144 74.096 57.4291 73.856 57.3438 73.6C57.2584 73.344 57.1731 73.0827 57.0878 72.816C57.0024 72.5387 56.9171 72.272 56.8318 72.016C56.7571 71.7493 56.6931 71.504 56.6398 71.28L57.1198 71.264C57.0558 71.5307 56.9811 71.792 56.8958 72.048C56.8211 72.304 56.7411 72.56 56.6558 72.816C56.5811 73.0613 56.4958 73.312 56.3998 73.568C56.3038 73.8133 56.2131 74.0693 56.1278 74.336L54.0158 80H51.3277ZM53.4398 77.856L54.2878 75.808H59.4398L60.2718 77.856H53.4398ZM63.8611 80V68.8H68.9011C69.6158 68.8 70.2611 68.9547 70.8371 69.264C71.4238 69.5733 71.8825 70 72.2131 70.544C72.5438 71.0773 72.7091 71.6853 72.7091 72.368C72.7091 73.072 72.5438 73.7067 72.2131 74.272C71.8825 74.8267 71.4291 75.264 70.8531 75.584C70.2771 75.904 69.6265 76.064 68.9011 76.064H66.4531V80H63.8611ZM70.0691 80L67.2211 74.944L70.0051 74.544L73.1731 80H70.0691ZM66.4531 73.984H68.6611C68.9385 73.984 69.1785 73.9253 69.3811 73.808C69.5945 73.68 69.7545 73.504 69.8611 73.28C69.9785 73.056 70.0371 72.8 70.0371 72.512C70.0371 72.224 69.9731 71.9733 69.8451 71.76C69.7171 71.536 69.5305 71.3653 69.2851 71.248C69.0505 71.1307 68.7625 71.072 68.4211 71.072H66.4531V73.984ZM80.0273 80.16C79.1846 80.16 78.4059 80.0213 77.6913 79.744C76.9873 79.456 76.3739 79.056 75.8513 78.544C75.3286 78.0213 74.9233 77.408 74.6353 76.704C74.3579 75.9893 74.2193 75.2053 74.2193 74.352C74.2193 73.52 74.3686 72.752 74.6673 72.048C74.9659 71.344 75.3766 70.736 75.8993 70.224C76.4326 69.7013 77.0566 69.296 77.7713 69.008C78.4966 68.72 79.2859 68.576 80.1393 68.576C80.6726 68.576 81.1953 68.6453 81.7073 68.784C82.2193 68.9227 82.6939 69.1307 83.1313 69.408C83.5793 69.6747 83.9633 69.9947 84.2833 70.368L82.6193 72.272C82.3953 72.0373 82.1553 71.8347 81.8993 71.664C81.6539 71.4827 81.3819 71.344 81.0833 71.248C80.7846 71.152 80.4646 71.104 80.1233 71.104C79.6966 71.104 79.2913 71.184 78.9073 71.344C78.5339 71.4933 78.2033 71.712 77.9153 72C77.6379 72.2773 77.4193 72.6187 77.2593 73.024C77.0993 73.4293 77.0193 73.8827 77.0193 74.384C77.0193 74.8747 77.0993 75.3227 77.2593 75.728C77.4193 76.1227 77.6433 76.464 77.9313 76.752C78.2193 77.04 78.5659 77.2587 78.9713 77.408C79.3873 77.5573 79.8459 77.632 80.3473 77.632C80.6886 77.632 81.0139 77.584 81.3233 77.488C81.6326 77.392 81.9153 77.264 82.1713 77.104C82.4379 76.9333 82.6726 76.7413 82.8753 76.528L84.1873 78.608C83.9206 78.9067 83.5633 79.1733 83.1153 79.408C82.6779 79.6427 82.1873 79.8293 81.6433 79.968C81.1099 80.096 80.5713 80.16 80.0273 80.16ZM92.9926 80V68.8H95.7126V80H92.9926ZM86.0486 80V68.8H88.7686V80H86.0486ZM87.1046 75.632L87.1206 73.2H94.4326V75.632H87.1046Z" fill="#FBFEF9"/>
<path d="M34.0716 49V40.6H37.7796C38.3556 40.6 38.8436 40.684 39.2436 40.852C39.6436 41.012 39.9436 41.248 40.1436 41.56C40.3516 41.864 40.4556 42.232 40.4556 42.664C40.4556 43.144 40.3356 43.548 40.0956 43.876C39.8636 44.204 39.5236 44.424 39.0756 44.536L39.0516 44.308C39.4276 44.388 39.7516 44.528 40.0236 44.728C40.3036 44.928 40.5196 45.176 40.6716 45.472C40.8236 45.76 40.8996 46.088 40.8996 46.456C40.8996 46.88 40.8276 47.252 40.6836 47.572C40.5396 47.884 40.3316 48.148 40.0596 48.364C39.7876 48.58 39.4676 48.74 39.0996 48.844C38.7396 48.948 38.3396 49 37.8996 49H34.0716ZM35.9916 47.296H37.8276C38.0516 47.296 38.2396 47.26 38.3916 47.188C38.5516 47.116 38.6756 47.012 38.7636 46.876C38.8516 46.732 38.8956 46.56 38.8956 46.36C38.8956 46.176 38.8476 46.02 38.7516 45.892C38.6636 45.764 38.5356 45.668 38.3676 45.604C38.1996 45.532 37.9996 45.496 37.7676 45.496H35.9916V47.296ZM35.9916 43.972H37.4916C37.6996 43.972 37.8756 43.94 38.0196 43.876C38.1716 43.804 38.2836 43.708 38.3556 43.588C38.4356 43.46 38.4756 43.308 38.4756 43.132C38.4756 42.876 38.3876 42.676 38.2116 42.532C38.0356 42.38 37.7716 42.304 37.4196 42.304H35.9916V43.972ZM42.4857 49V40.6H46.2657C46.8017 40.6 47.2857 40.716 47.7177 40.948C48.1577 41.18 48.5017 41.5 48.7497 41.908C48.9977 42.308 49.1217 42.764 49.1217 43.276C49.1217 43.804 48.9977 44.28 48.7497 44.704C48.5017 45.12 48.1617 45.448 47.7297 45.688C47.2977 45.928 46.8097 46.048 46.2657 46.048H44.4297V49H42.4857ZM47.1417 49L45.0057 45.208L47.0937 44.908L49.4697 49H47.1417ZM44.4297 44.488H46.0857C46.2937 44.488 46.4737 44.444 46.6257 44.356C46.7857 44.26 46.9057 44.128 46.9857 43.96C47.0737 43.792 47.1177 43.6 47.1177 43.384C47.1177 43.168 47.0697 42.98 46.9737 42.82C46.8777 42.652 46.7377 42.524 46.5537 42.436C46.3777 42.348 46.1617 42.304 45.9057 42.304H44.4297V44.488ZM54.6223 49.12C53.9823 49.12 53.3983 49.012 52.8703 48.796C52.3423 48.58 51.8823 48.276 51.4903 47.884C51.0983 47.492 50.7943 47.032 50.5783 46.504C50.3623 45.976 50.2543 45.396 50.2543 44.764C50.2543 44.132 50.3623 43.552 50.5783 43.024C50.7943 42.496 51.0983 42.036 51.4903 41.644C51.8823 41.252 52.3423 40.948 52.8703 40.732C53.3983 40.516 53.9783 40.408 54.6103 40.408C55.2423 40.408 55.8223 40.516 56.3503 40.732C56.8783 40.948 57.3383 41.252 57.7303 41.644C58.1223 42.036 58.4223 42.496 58.6303 43.024C58.8463 43.552 58.9543 44.132 58.9543 44.764C58.9543 45.388 58.8463 45.968 58.6303 46.504C58.4223 47.032 58.1223 47.492 57.7303 47.884C57.3383 48.276 56.8783 48.58 56.3503 48.796C55.8223 49.012 55.2463 49.12 54.6223 49.12ZM54.6103 47.2C54.9383 47.2 55.2383 47.14 55.5103 47.02C55.7903 46.9 56.0303 46.732 56.2303 46.516C56.4383 46.292 56.5983 46.032 56.7103 45.736C56.8223 45.44 56.8783 45.116 56.8783 44.764C56.8783 44.412 56.8223 44.088 56.7103 43.792C56.5983 43.496 56.4383 43.24 56.2303 43.024C56.0303 42.8 55.7903 42.628 55.5103 42.508C55.2383 42.388 54.9383 42.328 54.6103 42.328C54.2823 42.328 53.9783 42.388 53.6983 42.508C53.4263 42.628 53.1863 42.8 52.9783 43.024C52.7703 43.24 52.6103 43.496 52.4983 43.792C52.3943 44.088 52.3423 44.412 52.3423 44.764C52.3423 45.116 52.3943 45.444 52.4983 45.748C52.6103 46.044 52.7703 46.3 52.9783 46.516C53.1863 46.732 53.4263 46.9 53.6983 47.02C53.9783 47.14 54.2823 47.2 54.6103 47.2ZM61.986 49L59.466 40.6H61.542L62.802 45.016C62.858 45.216 62.906 45.42 62.946 45.628C62.994 45.828 63.03 46.02 63.054 46.204C63.086 46.388 63.11 46.56 63.126 46.72C63.142 46.872 63.158 47 63.174 47.104H62.91C62.958 46.808 62.998 46.544 63.03 46.312C63.07 46.08 63.114 45.864 63.162 45.664C63.21 45.456 63.27 45.24 63.342 45.016L64.59 41.692H66.222L67.446 45.016C67.542 45.28 67.622 45.528 67.686 45.76C67.75 45.992 67.798 46.216 67.83 46.432C67.87 46.64 67.902 46.848 67.926 47.056L67.686 47.092C67.702 46.948 67.714 46.816 67.722 46.696C67.73 46.568 67.738 46.448 67.746 46.336C67.762 46.216 67.778 46.092 67.794 45.964C67.81 45.836 67.834 45.696 67.866 45.544C67.898 45.384 67.942 45.204 67.998 45.004L69.246 40.6H71.274L68.754 49H67.194L65.202 44.164L65.43 44.188L63.594 49H61.986ZM75.0588 49.12C74.5068 49.12 74.0068 49.056 73.5588 48.928C73.1188 48.792 72.7268 48.6 72.3828 48.352C72.0388 48.096 71.7308 47.796 71.4588 47.452L72.6948 46.048C73.0948 46.584 73.4948 46.944 73.8948 47.128C74.3028 47.312 74.7228 47.404 75.1548 47.404C75.3708 47.404 75.5668 47.376 75.7428 47.32C75.9188 47.264 76.0548 47.184 76.1508 47.08C76.2468 46.968 76.2948 46.832 76.2948 46.672C76.2948 46.552 76.2628 46.444 76.1988 46.348C76.1428 46.252 76.0628 46.168 75.9588 46.096C75.8548 46.024 75.7308 45.96 75.5868 45.904C75.4428 45.84 75.2908 45.788 75.1308 45.748C74.9708 45.7 74.8068 45.66 74.6388 45.628C74.1748 45.524 73.7708 45.396 73.4268 45.244C73.0828 45.092 72.7948 44.908 72.5628 44.692C72.3388 44.468 72.1708 44.216 72.0588 43.936C71.9468 43.648 71.8908 43.328 71.8908 42.976C71.8908 42.6 71.9748 42.256 72.1428 41.944C72.3188 41.624 72.5508 41.352 72.8388 41.128C73.1348 40.896 73.4748 40.72 73.8588 40.6C74.2428 40.472 74.6428 40.408 75.0588 40.408C75.6108 40.408 76.0828 40.468 76.4748 40.588C76.8748 40.7 77.2148 40.864 77.4948 41.08C77.7828 41.296 78.0268 41.556 78.2268 41.86L76.9668 43.072C76.7988 42.864 76.6148 42.692 76.4148 42.556C76.2228 42.42 76.0148 42.316 75.7908 42.244C75.5748 42.172 75.3508 42.136 75.1188 42.136C74.8788 42.136 74.6708 42.168 74.4948 42.232C74.3268 42.288 74.1948 42.372 74.0988 42.484C74.0028 42.588 73.9548 42.716 73.9548 42.868C73.9548 43.004 73.9948 43.12 74.0748 43.216C74.1548 43.312 74.2628 43.4 74.3988 43.48C74.5348 43.552 74.6908 43.616 74.8668 43.672C75.0428 43.72 75.2268 43.76 75.4188 43.792C75.8588 43.88 76.2548 43.996 76.6068 44.14C76.9668 44.284 77.2748 44.46 77.5308 44.668C77.7948 44.876 77.9948 45.124 78.1308 45.412C78.2748 45.692 78.3468 46.02 78.3468 46.396C78.3468 46.98 78.2028 47.476 77.9148 47.884C77.6348 48.284 77.2468 48.592 76.7508 48.808C76.2628 49.016 75.6988 49.12 75.0588 49.12ZM79.8802 49V40.6H85.7362V42.34H81.8602V47.26H85.8562V49H79.8802ZM80.8402 45.556V43.9H85.1962V45.556H80.8402ZM87.6146 49V40.6H91.3946C91.9306 40.6 92.4146 40.716 92.8466 40.948C93.2866 41.18 93.6306 41.5 93.8786 41.908C94.1266 42.308 94.2506 42.764 94.2506 43.276C94.2506 43.804 94.1266 44.28 93.8786 44.704C93.6306 45.12 93.2906 45.448 92.8586 45.688C92.4266 45.928 91.9386 46.048 91.3946 46.048H89.5586V49H87.6146ZM92.2706 49L90.1346 45.208L92.2226 44.908L94.5986 49H92.2706ZM89.5586 44.488H91.2146C91.4226 44.488 91.6026 44.444 91.7546 44.356C91.9146 44.26 92.0346 44.128 92.1146 43.96C92.2026 43.792 92.2466 43.6 92.2466 43.384C92.2466 43.168 92.1986 42.98 92.1026 42.82C92.0066 42.652 91.8666 42.524 91.6826 42.436C91.5066 42.348 91.2906 42.304 91.0346 42.304H89.5586V44.488Z" fill="#FBFEF9"/>
</svg>
