<svg width="128" height="128" viewBox="0 0 128 128" fill="none" xmlns="http://www.w3.org/2000/svg">
<path d="M52 19H76H96C103.18 19 109 24.8203 109 32V35.2V54.4V96C109 103.18 103.18 109 96 109H76H64H52H32C24.8203 109 19 103.18 19 96V54.4V32C19 24.8203 24.8203 19 32 19H52Z" stroke="#C8CED0" stroke-width="6"/>
<path d="M27.6111 78V66.8H32.6511C33.3658 66.8 34.0111 66.9547 34.5871 67.264C35.1738 67.5733 35.6325 68 35.9631 68.544C36.2938 69.0773 36.4591 69.6853 36.4591 70.368C36.4591 71.072 36.2938 71.7067 35.9631 72.272C35.6325 72.8267 35.1791 73.264 34.6031 73.584C34.0271 73.904 33.3765 74.064 32.6511 74.064H30.2031V78H27.6111ZM33.8191 78L30.9711 72.944L33.7551 72.544L36.9231 78H33.8191ZM30.2031 71.984H32.4111C32.6885 71.984 32.9285 71.9253 33.1311 71.808C33.3445 71.68 33.5045 71.504 33.6111 71.28C33.7285 71.056 33.7871 70.8 33.7871 70.512C33.7871 70.224 33.7231 69.9733 33.5951 69.76C33.4671 69.536 33.2805 69.3653 33.0351 69.248C32.8005 69.1307 32.5125 69.072 32.1711 69.072H30.2031V71.984ZM38.8455 78V66.8H46.6535V69.12H41.4855V75.68H46.8135V78H38.8455ZM40.1255 73.408V71.2H45.9335V73.408H40.1255ZM49.158 78V66.8H51.878V78H49.158ZM50.422 73.712V71.44H56.214V73.712H50.422ZM50.422 69.2V66.8H56.87V69.2H50.422ZM59.0486 78V66.8H64.0886C64.8033 66.8 65.4486 66.9547 66.0246 67.264C66.6113 67.5733 67.07 68 67.4006 68.544C67.7313 69.0773 67.8966 69.6853 67.8966 70.368C67.8966 71.072 67.7313 71.7067 67.4006 72.272C67.07 72.8267 66.6166 73.264 66.0406 73.584C65.4646 73.904 64.814 74.064 64.0886 74.064H61.6406V78H59.0486ZM65.2566 78L62.4086 72.944L65.1926 72.544L68.3606 78H65.2566ZM61.6406 71.984H63.8486C64.126 71.984 64.366 71.9253 64.5686 71.808C64.782 71.68 64.942 71.504 65.0486 71.28C65.166 71.056 65.2246 70.8 65.2246 70.512C65.2246 70.224 65.1606 69.9733 65.0326 69.76C64.9046 69.536 64.718 69.3653 64.4726 69.248C64.238 69.1307 63.95 69.072 63.6086 69.072H61.6406V71.984ZM70.283 78V66.8H78.091V69.12H72.923V75.68H78.251V78H70.283ZM71.563 73.408V71.2H77.371V73.408H71.563ZM84.3075 78.16C83.5715 78.16 82.9048 78.0747 82.3075 77.904C81.7208 77.7227 81.1982 77.4667 80.7395 77.136C80.2808 76.7947 79.8702 76.3947 79.5075 75.936L81.1555 74.064C81.6888 74.7787 82.2222 75.2587 82.7555 75.504C83.2995 75.7493 83.8595 75.872 84.4355 75.872C84.7235 75.872 84.9848 75.8347 85.2195 75.76C85.4542 75.6853 85.6355 75.5787 85.7635 75.44C85.8915 75.2907 85.9555 75.1093 85.9555 74.896C85.9555 74.736 85.9128 74.592 85.8275 74.464C85.7528 74.336 85.6462 74.224 85.5075 74.128C85.3688 74.032 85.2035 73.9467 85.0115 73.872C84.8195 73.7867 84.6168 73.7173 84.4035 73.664C84.1902 73.6 83.9715 73.5467 83.7475 73.504C83.1288 73.3653 82.5902 73.1947 82.1315 72.992C81.6728 72.7893 81.2888 72.544 80.9795 72.256C80.6808 71.9573 80.4568 71.6213 80.3075 71.248C80.1582 70.864 80.0835 70.4373 80.0835 69.968C80.0835 69.4667 80.1955 69.008 80.4195 68.592C80.6542 68.1653 80.9635 67.8027 81.3475 67.504C81.7422 67.1947 82.1955 66.96 82.7075 66.8C83.2195 66.6293 83.7528 66.544 84.3075 66.544C85.0435 66.544 85.6728 66.624 86.1955 66.784C86.7288 66.9333 87.1822 67.152 87.5555 67.44C87.9395 67.728 88.2648 68.0747 88.5315 68.48L86.8515 70.096C86.6275 69.8187 86.3822 69.5893 86.1155 69.408C85.8595 69.2267 85.5822 69.088 85.2835 68.992C84.9955 68.896 84.6968 68.848 84.3875 68.848C84.0675 68.848 83.7902 68.8907 83.5555 68.976C83.3315 69.0507 83.1555 69.1627 83.0275 69.312C82.8995 69.4507 82.8355 69.6213 82.8355 69.824C82.8355 70.0053 82.8888 70.16 82.9955 70.288C83.1022 70.416 83.2462 70.5333 83.4275 70.64C83.6088 70.736 83.8168 70.8213 84.0515 70.896C84.2862 70.96 84.5315 71.0133 84.7875 71.056C85.3742 71.1733 85.9022 71.328 86.3715 71.52C86.8515 71.712 87.2622 71.9467 87.6035 72.224C87.9555 72.5013 88.2222 72.832 88.4035 73.216C88.5955 73.5893 88.6915 74.0267 88.6915 74.528C88.6915 75.3067 88.4995 75.968 88.1155 76.512C87.7422 77.0453 87.2248 77.456 86.5635 77.744C85.9128 78.0213 85.1608 78.16 84.3075 78.16ZM97.6801 78V66.8H100.4V78H97.6801ZM90.7361 78V66.8H93.4561V78H90.7361ZM91.7921 73.632L91.8081 71.2H99.1201V73.632H91.7921Z" fill="#FBFEF9"/>
<path d="M34.0716 49V40.6H37.7796C38.3556 40.6 38.8436 40.684 39.2436 40.852C39.6436 41.012 39.9436 41.248 40.1436 41.56C40.3516 41.864 40.4556 42.232 40.4556 42.664C40.4556 43.144 40.3356 43.548 40.0956 43.876C39.8636 44.204 39.5236 44.424 39.0756 44.536L39.0516 44.308C39.4276 44.388 39.7516 44.528 40.0236 44.728C40.3036 44.928 40.5196 45.176 40.6716 45.472C40.8236 45.76 40.8996 46.088 40.8996 46.456C40.8996 46.88 40.8276 47.252 40.6836 47.572C40.5396 47.884 40.3316 48.148 40.0596 48.364C39.7876 48.58 39.4676 48.74 39.0996 48.844C38.7396 48.948 38.3396 49 37.8996 49H34.0716ZM35.9916 47.296H37.8276C38.0516 47.296 38.2396 47.26 38.3916 47.188C38.5516 47.116 38.6756 47.012 38.7636 46.876C38.8516 46.732 38.8956 46.56 38.8956 46.36C38.8956 46.176 38.8476 46.02 38.7516 45.892C38.6636 45.764 38.5356 45.668 38.3676 45.604C38.1996 45.532 37.9996 45.496 37.7676 45.496H35.9916V47.296ZM35.9916 43.972H37.4916C37.6996 43.972 37.8756 43.94 38.0196 43.876C38.1716 43.804 38.2836 43.708 38.3556 43.588C38.4356 43.46 38.4756 43.308 38.4756 43.132C38.4756 42.876 38.3876 42.676 38.2116 42.532C38.0356 42.38 37.7716 42.304 37.4196 42.304H35.9916V43.972ZM42.4857 49V40.6H46.2657C46.8017 40.6 47.2857 40.716 47.7177 40.948C48.1577 41.18 48.5017 41.5 48.7497 41.908C48.9977 42.308 49.1217 42.764 49.1217 43.276C49.1217 43.804 48.9977 44.28 48.7497 44.704C48.5017 45.12 48.1617 45.448 47.7297 45.688C47.2977 45.928 46.8097 46.048 46.2657 46.048H44.4297V49H42.4857ZM47.1417 49L45.0057 45.208L47.0937 44.908L49.4697 49H47.1417ZM44.4297 44.488H46.0857C46.2937 44.488 46.4737 44.444 46.6257 44.356C46.7857 44.26 46.9057 44.128 46.9857 43.96C47.0737 43.792 47.1177 43.6 47.1177 43.384C47.1177 43.168 47.0697 42.98 46.9737 42.82C46.8777 42.652 46.7377 42.524 46.5537 42.436C46.3777 42.348 46.1617 42.304 45.9057 42.304H44.4297V44.488ZM54.6223 49.12C53.9823 49.12 53.3983 49.012 52.8703 48.796C52.3423 48.58 51.8823 48.276 51.4903 47.884C51.0983 47.492 50.7943 47.032 50.5783 46.504C50.3623 45.976 50.2543 45.396 50.2543 44.764C50.2543 44.132 50.3623 43.552 50.5783 43.024C50.7943 42.496 51.0983 42.036 51.4903 41.644C51.8823 41.252 52.3423 40.948 52.8703 40.732C53.3983 40.516 53.9783 40.408 54.6103 40.408C55.2423 40.408 55.8223 40.516 56.3503 40.732C56.8783 40.948 57.3383 41.252 57.7303 41.644C58.1223 42.036 58.4223 42.496 58.6303 43.024C58.8463 43.552 58.9543 44.132 58.9543 44.764C58.9543 45.388 58.8463 45.968 58.6303 46.504C58.4223 47.032 58.1223 47.492 57.7303 47.884C57.3383 48.276 56.8783 48.58 56.3503 48.796C55.8223 49.012 55.2463 49.12 54.6223 49.12ZM54.6103 47.2C54.9383 47.2 55.2383 47.14 55.5103 47.02C55.7903 46.9 56.0303 46.732 56.2303 46.516C56.4383 46.292 56.5983 46.032 56.7103 45.736C56.8223 45.44 56.8783 45.116 56.8783 44.764C56.8783 44.412 56.8223 44.088 56.7103 43.792C56.5983 43.496 56.4383 43.24 56.2303 43.024C56.0303 42.8 55.7903 42.628 55.5103 42.508C55.2383 42.388 54.9383 42.328 54.6103 42.328C54.2823 42.328 53.9783 42.388 53.6983 42.508C53.4263 42.628 53.1863 42.8 52.9783 43.024C52.7703 43.24 52.6103 43.496 52.4983 43.792C52.3943 44.088 52.3423 44.412 52.3423 44.764C52.3423 45.116 52.3943 45.444 52.4983 45.748C52.6103 46.044 52.7703 46.3 52.9783 46.516C53.1863 46.732 53.4263 46.9 53.6983 47.02C53.9783 47.14 54.2823 47.2 54.6103 47.2ZM61.986 49L59.466 40.6H61.542L62.802 45.016C62.858 45.216 62.906 45.42 62.946 45.628C62.994 45.828 63.03 46.02 63.054 46.204C63.086 46.388 63.11 46.56 63.126 46.72C63.142 46.872 63.158 47 63.174 47.104H62.91C62.958 46.808 62.998 46.544 63.03 46.312C63.07 46.08 63.114 45.864 63.162 45.664C63.21 45.456 63.27 45.24 63.342 45.016L64.59 41.692H66.222L67.446 45.016C67.542 45.28 67.622 45.528 67.686 45.76C67.75 45.992 67.798 46.216 67.83 46.432C67.87 46.64 67.902 46.848 67.926 47.056L67.686 47.092C67.702 46.948 67.714 46.816 67.722 46.696C67.73 46.568 67.738 46.448 67.746 46.336C67.762 46.216 67.778 46.092 67.794 45.964C67.81 45.836 67.834 45.696 67.866 45.544C67.898 45.384 67.942 45.204 67.998 45.004L69.246 40.6H71.274L68.754 49H67.194L65.202 44.164L65.43 44.188L63.594 49H61.986ZM75.0588 49.12C74.5068 49.12 74.0068 49.056 73.5588 48.928C73.1188 48.792 72.7268 48.6 72.3828 48.352C72.0388 48.096 71.7308 47.796 71.4588 47.452L72.6948 46.048C73.0948 46.584 73.4948 46.944 73.8948 47.128C74.3028 47.312 74.7228 47.404 75.1548 47.404C75.3708 47.404 75.5668 47.376 75.7428 47.32C75.9188 47.264 76.0548 47.184 76.1508 47.08C76.2468 46.968 76.2948 46.832 76.2948 46.672C76.2948 46.552 76.2628 46.444 76.1988 46.348C76.1428 46.252 76.0628 46.168 75.9588 46.096C75.8548 46.024 75.7308 45.96 75.5868 45.904C75.4428 45.84 75.2908 45.788 75.1308 45.748C74.9708 45.7 74.8068 45.66 74.6388 45.628C74.1748 45.524 73.7708 45.396 73.4268 45.244C73.0828 45.092 72.7948 44.908 72.5628 44.692C72.3388 44.468 72.1708 44.216 72.0588 43.936C71.9468 43.648 71.8908 43.328 71.8908 42.976C71.8908 42.6 71.9748 42.256 72.1428 41.944C72.3188 41.624 72.5508 41.352 72.8388 41.128C73.1348 40.896 73.4748 40.72 73.8588 40.6C74.2428 40.472 74.6428 40.408 75.0588 40.408C75.6108 40.408 76.0828 40.468 76.4748 40.588C76.8748 40.7 77.2148 40.864 77.4948 41.08C77.7828 41.296 78.0268 41.556 78.2268 41.86L76.9668 43.072C76.7988 42.864 76.6148 42.692 76.4148 42.556C76.2228 42.42 76.0148 42.316 75.7908 42.244C75.5748 42.172 75.3508 42.136 75.1188 42.136C74.8788 42.136 74.6708 42.168 74.4948 42.232C74.3268 42.288 74.1948 42.372 74.0988 42.484C74.0028 42.588 73.9548 42.716 73.9548 42.868C73.9548 43.004 73.9948 43.12 74.0748 43.216C74.1548 43.312 74.2628 43.4 74.3988 43.48C74.5348 43.552 74.6908 43.616 74.8668 43.672C75.0428 43.72 75.2268 43.76 75.4188 43.792C75.8588 43.88 76.2548 43.996 76.6068 44.14C76.9668 44.284 77.2748 44.46 77.5308 44.668C77.7948 44.876 77.9948 45.124 78.1308 45.412C78.2748 45.692 78.3468 46.02 78.3468 46.396C78.3468 46.98 78.2028 47.476 77.9148 47.884C77.6348 48.284 77.2468 48.592 76.7508 48.808C76.2628 49.016 75.6988 49.12 75.0588 49.12ZM79.8802 49V40.6H85.7362V42.34H81.8602V47.26H85.8562V49H79.8802ZM80.8402 45.556V43.9H85.1962V45.556H80.8402ZM87.6146 49V40.6H91.3946C91.9306 40.6 92.4146 40.716 92.8466 40.948C93.2866 41.18 93.6306 41.5 93.8786 41.908C94.1266 42.308 94.2506 42.764 94.2506 43.276C94.2506 43.804 94.1266 44.28 93.8786 44.704C93.6306 45.12 93.2906 45.448 92.8586 45.688C92.4266 45.928 91.9386 46.048 91.3946 46.048H89.5586V49H87.6146ZM92.2706 49L90.1346 45.208L92.2226 44.908L94.5986 49H92.2706ZM89.5586 44.488H91.2146C91.4226 44.488 91.6026 44.444 91.7546 44.356C91.9146 44.26 92.0346 44.128 92.1146 43.96C92.2026 43.792 92.2466 43.6 92.2466 43.384C92.2466 43.168 92.1986 42.98 92.1026 42.82C92.0066 42.652 91.8666 42.524 91.6826 42.436C91.5066 42.348 91.2906 42.304 91.0346 42.304H89.5586V44.488Z" fill="#FBFEF9"/>
</svg>
