<svg width="128" height="128" viewBox="0 0 128 128" fill="none" xmlns="http://www.w3.org/2000/svg">
<path d="M52 19H76H96C103.18 19 109 24.8203 109 32V35.2V54.4V96C109 103.18 103.18 109 96 109H76H64H52H32C24.8203 109 19 103.18 19 96V54.4V32C19 24.8203 24.8203 19 32 19H52Z" stroke="#C8CED0" stroke-width="6"/>
<path d="M34.0716 43V34.6H37.7796C38.3556 34.6 38.8436 34.684 39.2436 34.852C39.6436 35.012 39.9436 35.248 40.1436 35.56C40.3516 35.864 40.4556 36.232 40.4556 36.664C40.4556 37.144 40.3356 37.548 40.0956 37.876C39.8636 38.204 39.5236 38.424 39.0756 38.536L39.0516 38.308C39.4276 38.388 39.7516 38.528 40.0236 38.728C40.3036 38.928 40.5196 39.176 40.6716 39.472C40.8236 39.76 40.8996 40.088 40.8996 40.456C40.8996 40.88 40.8276 41.252 40.6836 41.572C40.5396 41.884 40.3316 42.148 40.0596 42.364C39.7876 42.58 39.4676 42.74 39.0996 42.844C38.7396 42.948 38.3396 43 37.8996 43H34.0716ZM35.9916 41.296H37.8276C38.0516 41.296 38.2396 41.26 38.3916 41.188C38.5516 41.116 38.6756 41.012 38.7636 40.876C38.8516 40.732 38.8956 40.56 38.8956 40.36C38.8956 40.176 38.8476 40.02 38.7516 39.892C38.6636 39.764 38.5356 39.668 38.3676 39.604C38.1996 39.532 37.9996 39.496 37.7676 39.496H35.9916V41.296ZM35.9916 37.972H37.4916C37.6996 37.972 37.8756 37.94 38.0196 37.876C38.1716 37.804 38.2836 37.708 38.3556 37.588C38.4356 37.46 38.4756 37.308 38.4756 37.132C38.4756 36.876 38.3876 36.676 38.2116 36.532C38.0356 36.38 37.7716 36.304 37.4196 36.304H35.9916V37.972ZM42.4857 43V34.6H46.2657C46.8017 34.6 47.2857 34.716 47.7177 34.948C48.1577 35.18 48.5017 35.5 48.7497 35.908C48.9977 36.308 49.1217 36.764 49.1217 37.276C49.1217 37.804 48.9977 38.28 48.7497 38.704C48.5017 39.12 48.1617 39.448 47.7297 39.688C47.2977 39.928 46.8097 40.048 46.2657 40.048H44.4297V43H42.4857ZM47.1417 43L45.0057 39.208L47.0937 38.908L49.4697 43H47.1417ZM44.4297 38.488H46.0857C46.2937 38.488 46.4737 38.444 46.6257 38.356C46.7857 38.26 46.9057 38.128 46.9857 37.96C47.0737 37.792 47.1177 37.6 47.1177 37.384C47.1177 37.168 47.0697 36.98 46.9737 36.82C46.8777 36.652 46.7377 36.524 46.5537 36.436C46.3777 36.348 46.1617 36.304 45.9057 36.304H44.4297V38.488ZM54.6223 43.12C53.9823 43.12 53.3983 43.012 52.8703 42.796C52.3423 42.58 51.8823 42.276 51.4903 41.884C51.0983 41.492 50.7943 41.032 50.5783 40.504C50.3623 39.976 50.2543 39.396 50.2543 38.764C50.2543 38.132 50.3623 37.552 50.5783 37.024C50.7943 36.496 51.0983 36.036 51.4903 35.644C51.8823 35.252 52.3423 34.948 52.8703 34.732C53.3983 34.516 53.9783 34.408 54.6103 34.408C55.2423 34.408 55.8223 34.516 56.3503 34.732C56.8783 34.948 57.3383 35.252 57.7303 35.644C58.1223 36.036 58.4223 36.496 58.6303 37.024C58.8463 37.552 58.9543 38.132 58.9543 38.764C58.9543 39.388 58.8463 39.968 58.6303 40.504C58.4223 41.032 58.1223 41.492 57.7303 41.884C57.3383 42.276 56.8783 42.58 56.3503 42.796C55.8223 43.012 55.2463 43.12 54.6223 43.12ZM54.6103 41.2C54.9383 41.2 55.2383 41.14 55.5103 41.02C55.7903 40.9 56.0303 40.732 56.2303 40.516C56.4383 40.292 56.5983 40.032 56.7103 39.736C56.8223 39.44 56.8783 39.116 56.8783 38.764C56.8783 38.412 56.8223 38.088 56.7103 37.792C56.5983 37.496 56.4383 37.24 56.2303 37.024C56.0303 36.8 55.7903 36.628 55.5103 36.508C55.2383 36.388 54.9383 36.328 54.6103 36.328C54.2823 36.328 53.9783 36.388 53.6983 36.508C53.4263 36.628 53.1863 36.8 52.9783 37.024C52.7703 37.24 52.6103 37.496 52.4983 37.792C52.3943 38.088 52.3423 38.412 52.3423 38.764C52.3423 39.116 52.3943 39.444 52.4983 39.748C52.6103 40.044 52.7703 40.3 52.9783 40.516C53.1863 40.732 53.4263 40.9 53.6983 41.02C53.9783 41.14 54.2823 41.2 54.6103 41.2ZM61.986 43L59.466 34.6H61.542L62.802 39.016C62.858 39.216 62.906 39.42 62.946 39.628C62.994 39.828 63.03 40.02 63.054 40.204C63.086 40.388 63.11 40.56 63.126 40.72C63.142 40.872 63.158 41 63.174 41.104H62.91C62.958 40.808 62.998 40.544 63.03 40.312C63.07 40.08 63.114 39.864 63.162 39.664C63.21 39.456 63.27 39.24 63.342 39.016L64.59 35.692H66.222L67.446 39.016C67.542 39.28 67.622 39.528 67.686 39.76C67.75 39.992 67.798 40.216 67.83 40.432C67.87 40.64 67.902 40.848 67.926 41.056L67.686 41.092C67.702 40.948 67.714 40.816 67.722 40.696C67.73 40.568 67.738 40.448 67.746 40.336C67.762 40.216 67.778 40.092 67.794 39.964C67.81 39.836 67.834 39.696 67.866 39.544C67.898 39.384 67.942 39.204 67.998 39.004L69.246 34.6H71.274L68.754 43H67.194L65.202 38.164L65.43 38.188L63.594 43H61.986ZM75.0588 43.12C74.5068 43.12 74.0068 43.056 73.5588 42.928C73.1188 42.792 72.7268 42.6 72.3828 42.352C72.0388 42.096 71.7308 41.796 71.4588 41.452L72.6948 40.048C73.0948 40.584 73.4948 40.944 73.8948 41.128C74.3028 41.312 74.7228 41.404 75.1548 41.404C75.3708 41.404 75.5668 41.376 75.7428 41.32C75.9188 41.264 76.0548 41.184 76.1508 41.08C76.2468 40.968 76.2948 40.832 76.2948 40.672C76.2948 40.552 76.2628 40.444 76.1988 40.348C76.1428 40.252 76.0628 40.168 75.9588 40.096C75.8548 40.024 75.7308 39.96 75.5868 39.904C75.4428 39.84 75.2908 39.788 75.1308 39.748C74.9708 39.7 74.8068 39.66 74.6388 39.628C74.1748 39.524 73.7708 39.396 73.4268 39.244C73.0828 39.092 72.7948 38.908 72.5628 38.692C72.3388 38.468 72.1708 38.216 72.0588 37.936C71.9468 37.648 71.8908 37.328 71.8908 36.976C71.8908 36.6 71.9748 36.256 72.1428 35.944C72.3188 35.624 72.5508 35.352 72.8388 35.128C73.1348 34.896 73.4748 34.72 73.8588 34.6C74.2428 34.472 74.6428 34.408 75.0588 34.408C75.6108 34.408 76.0828 34.468 76.4748 34.588C76.8748 34.7 77.2148 34.864 77.4948 35.08C77.7828 35.296 78.0268 35.556 78.2268 35.86L76.9668 37.072C76.7988 36.864 76.6148 36.692 76.4148 36.556C76.2228 36.42 76.0148 36.316 75.7908 36.244C75.5748 36.172 75.3508 36.136 75.1188 36.136C74.8788 36.136 74.6708 36.168 74.4948 36.232C74.3268 36.288 74.1948 36.372 74.0988 36.484C74.0028 36.588 73.9548 36.716 73.9548 36.868C73.9548 37.004 73.9948 37.12 74.0748 37.216C74.1548 37.312 74.2628 37.4 74.3988 37.48C74.5348 37.552 74.6908 37.616 74.8668 37.672C75.0428 37.72 75.2268 37.76 75.4188 37.792C75.8588 37.88 76.2548 37.996 76.6068 38.14C76.9668 38.284 77.2748 38.46 77.5308 38.668C77.7948 38.876 77.9948 39.124 78.1308 39.412C78.2748 39.692 78.3468 40.02 78.3468 40.396C78.3468 40.98 78.2028 41.476 77.9148 41.884C77.6348 42.284 77.2468 42.592 76.7508 42.808C76.2628 43.016 75.6988 43.12 75.0588 43.12ZM79.8802 43V34.6H85.7362V36.34H81.8602V41.26H85.8562V43H79.8802ZM80.8402 39.556V37.9H85.1962V39.556H80.8402ZM87.6146 43V34.6H91.3946C91.9306 34.6 92.4146 34.716 92.8466 34.948C93.2866 35.18 93.6306 35.5 93.8786 35.908C94.1266 36.308 94.2506 36.764 94.2506 37.276C94.2506 37.804 94.1266 38.28 93.8786 38.704C93.6306 39.12 93.2906 39.448 92.8586 39.688C92.4266 39.928 91.9386 40.048 91.3946 40.048H89.5586V43H87.6146ZM92.2706 43L90.1346 39.208L92.2226 38.908L94.5986 43H92.2706ZM89.5586 38.488H91.2146C91.4226 38.488 91.6026 38.444 91.7546 38.356C91.9146 38.26 92.0346 38.128 92.1146 37.96C92.2026 37.792 92.2466 37.6 92.2466 37.384C92.2466 37.168 92.1986 36.98 92.1026 36.82C92.0066 36.652 91.8666 36.524 91.6826 36.436C91.5066 36.348 91.2906 36.304 91.0346 36.304H89.5586V38.488Z" fill="#FBFEF9"/>
<path d="M64 50L69.6129 67.2746H87.7764L73.0818 77.9508L78.6946 95.2254L64 84.5491L49.3054 95.2254L54.9182 77.9508L40.2236 67.2746H58.3871L64 50Z" fill="#FBFEF9"/>
</svg>
