<svg width="128" height="128" viewBox="0 0 128 128" fill="none" xmlns="http://www.w3.org/2000/svg">
<path d="M52 19H76H96C103.18 19 109 24.8203 109 32V35.2V54.4V96C109 103.18 103.18 109 96 109H76H64H52H32C24.8203 109 19 103.18 19 96V54.4V32C19 24.8203 24.8203 19 32 19H52Z" stroke="#C8CED0" stroke-width="6"/>
<path d="M41.6698 73.24C40.4058 73.24 39.2378 73.032 38.1658 72.616C37.1098 72.184 36.1898 71.584 35.4058 70.816C34.6218 70.032 34.0138 69.112 33.5818 68.056C33.1658 66.984 32.9578 65.808 32.9578 64.528C32.9578 63.28 33.1818 62.128 33.6298 61.072C34.0778 60.016 34.6938 59.104 35.4778 58.336C36.2778 57.552 37.2138 56.944 38.2858 56.512C39.3738 56.08 40.5578 55.864 41.8378 55.864C42.6378 55.864 43.4218 55.968 44.1898 56.176C44.9578 56.384 45.6698 56.696 46.3258 57.112C46.9978 57.512 47.5738 57.992 48.0538 58.552L45.5578 61.408C45.2218 61.056 44.8618 60.752 44.4778 60.496C44.1098 60.224 43.7018 60.016 43.2538 59.872C42.8058 59.728 42.3258 59.656 41.8138 59.656C41.1738 59.656 40.5658 59.776 39.9898 60.016C39.4298 60.24 38.9338 60.568 38.5018 61C38.0858 61.416 37.7578 61.928 37.5178 62.536C37.2778 63.144 37.1578 63.824 37.1578 64.576C37.1578 65.312 37.2778 65.984 37.5178 66.592C37.7578 67.184 38.0938 67.696 38.5258 68.128C38.9578 68.56 39.4778 68.888 40.0858 69.112C40.7098 69.336 41.3978 69.448 42.1498 69.448C42.6618 69.448 43.1498 69.376 43.6138 69.232C44.0778 69.088 44.5018 68.896 44.8858 68.656C45.2858 68.4 45.6378 68.112 45.9418 67.792L47.9098 70.912C47.5098 71.36 46.9738 71.76 46.3018 72.112C45.6458 72.464 44.9098 72.744 44.0938 72.952C43.2938 73.144 42.4858 73.24 41.6698 73.24ZM50.2938 73V60.256H53.9418L54.1098 64.408L53.3898 63.616C53.5818 62.928 53.8938 62.312 54.3258 61.768C54.7738 61.224 55.2938 60.792 55.8858 60.472C56.4778 60.152 57.1098 59.992 57.7818 59.992C58.0698 59.992 58.3338 60.016 58.5738 60.064C58.8298 60.112 59.0618 60.168 59.2698 60.232L58.2138 64.48C58.0378 64.368 57.7978 64.28 57.4938 64.216C57.2058 64.136 56.9018 64.096 56.5818 64.096C56.2298 64.096 55.9018 64.16 55.5978 64.288C55.2938 64.4 55.0378 64.568 54.8298 64.792C54.6218 65.016 54.4538 65.28 54.3258 65.584C54.2138 65.888 54.1578 66.232 54.1578 66.616V73H50.2938ZM67.1917 73.24C66.0877 73.24 65.0877 73.112 64.1917 72.856C63.3117 72.584 62.5277 72.2 61.8397 71.704C61.1517 71.192 60.5357 70.592 59.9917 69.904L62.4637 67.096C63.2637 68.168 64.0637 68.888 64.8637 69.256C65.6797 69.624 66.5197 69.808 67.3837 69.808C67.8157 69.808 68.2077 69.752 68.5597 69.64C68.9117 69.528 69.1837 69.368 69.3757 69.16C69.5677 68.936 69.6637 68.664 69.6637 68.344C69.6637 68.104 69.5997 67.888 69.4717 67.696C69.3597 67.504 69.1997 67.336 68.9917 67.192C68.7837 67.048 68.5357 66.92 68.2477 66.808C67.9597 66.68 67.6557 66.576 67.3357 66.496C67.0157 66.4 66.6877 66.32 66.3517 66.256C65.4237 66.048 64.6157 65.792 63.9277 65.488C63.2397 65.184 62.6637 64.816 62.1997 64.384C61.7517 63.936 61.4157 63.432 61.1917 62.872C60.9677 62.296 60.8557 61.656 60.8557 60.952C60.8557 60.2 61.0237 59.512 61.3597 58.888C61.7117 58.248 62.1757 57.704 62.7517 57.256C63.3437 56.792 64.0237 56.44 64.7917 56.2C65.5597 55.944 66.3597 55.816 67.1917 55.816C68.2957 55.816 69.2397 55.936 70.0237 56.176C70.8237 56.4 71.5037 56.728 72.0637 57.16C72.6397 57.592 73.1277 58.112 73.5277 58.72L71.0077 61.144C70.6717 60.728 70.3037 60.384 69.9037 60.112C69.5197 59.84 69.1037 59.632 68.6557 59.488C68.2237 59.344 67.7757 59.272 67.3117 59.272C66.8317 59.272 66.4157 59.336 66.0637 59.464C65.7277 59.576 65.4637 59.744 65.2717 59.968C65.0797 60.176 64.9837 60.432 64.9837 60.736C64.9837 61.008 65.0637 61.24 65.2237 61.432C65.3837 61.624 65.5997 61.8 65.8717 61.96C66.1437 62.104 66.4557 62.232 66.8077 62.344C67.1597 62.44 67.5277 62.52 67.9117 62.584C68.7917 62.76 69.5837 62.992 70.2877 63.28C71.0077 63.568 71.6237 63.92 72.1357 64.336C72.6637 64.752 73.0637 65.248 73.3357 65.824C73.6237 66.384 73.7677 67.04 73.7677 67.792C73.7677 68.96 73.4797 69.952 72.9037 70.768C72.3437 71.568 71.5677 72.184 70.5757 72.616C69.5997 73.032 68.4717 73.24 67.1917 73.24ZM82.4987 73.24C81.0907 73.24 79.8667 72.96 78.8267 72.4C77.7867 71.824 76.9787 71.048 76.4027 70.072C75.8267 69.08 75.5387 67.952 75.5387 66.688C75.5387 65.712 75.6987 64.816 76.0187 64C76.3387 63.184 76.7867 62.48 77.3627 61.888C77.9387 61.28 78.6187 60.816 79.4027 60.496C80.2027 60.16 81.0747 59.992 82.0187 59.992C82.9147 59.992 83.7307 60.152 84.4667 60.472C85.2187 60.792 85.8667 61.24 86.4107 61.816C86.9547 62.392 87.3707 63.072 87.6587 63.856C87.9467 64.64 88.0747 65.496 88.0427 66.424L88.0187 67.456H77.8667L77.3147 65.296H84.8987L84.4907 65.752V65.272C84.4587 64.872 84.3307 64.52 84.1067 64.216C83.8987 63.896 83.6187 63.648 83.2667 63.472C82.9147 63.296 82.5147 63.208 82.0667 63.208C81.4427 63.208 80.9067 63.336 80.4587 63.592C80.0267 63.832 79.6987 64.192 79.4747 64.672C79.2507 65.136 79.1387 65.712 79.1387 66.4C79.1387 67.104 79.2827 67.72 79.5707 68.248C79.8747 68.76 80.3067 69.16 80.8667 69.448C81.4427 69.736 82.1227 69.88 82.9067 69.88C83.4507 69.88 83.9307 69.8 84.3467 69.64C84.7787 69.48 85.2427 69.208 85.7387 68.824L87.5387 71.368C87.0427 71.8 86.5147 72.152 85.9547 72.424C85.3947 72.696 84.8187 72.896 84.2267 73.024C83.6507 73.168 83.0747 73.24 82.4987 73.24ZM90.5132 73V55.24H94.3532V73H90.5132Z" fill="#FBFEF9"/>
</svg>
