<svg width="128" height="128" viewBox="0 0 128 128" fill="none" xmlns="http://www.w3.org/2000/svg">
<path d="M52 19H76H96C103.18 19 109 24.8203 109 32V35.2V54.4V96C109 103.18 103.18 109 96 109H76H64H52H32C24.8203 109 19 103.18 19 96V54.4V32C19 24.8203 24.8203 19 32 19H52Z" stroke="#C8CED0" stroke-width="6"/>
<path d="M37.1736 60V48.8H39.6056L43.6856 55.44L41.9416 55.424L46.0696 48.8H48.4056V60H45.7656V56.512C45.7656 55.552 45.787 54.688 45.8296 53.92C45.883 53.152 45.9683 52.3893 46.0856 51.632L46.3896 52.464L43.2856 57.28H42.2296L39.1896 52.496L39.4936 51.632C39.611 52.3467 39.691 53.0827 39.7336 53.84C39.787 54.5867 39.8136 55.4773 39.8136 56.512V60H37.1736ZM51.2205 60V48.8H59.0285V51.12H53.8605V57.68H59.1885V60H51.2205ZM52.5005 55.408V53.2H58.3085V55.408H52.5005ZM61.533 60V48.8H66.221C67.0423 48.8 67.7943 48.9387 68.477 49.216C69.1597 49.4827 69.7463 49.8667 70.237 50.368C70.7383 50.8693 71.1223 51.4613 71.389 52.144C71.6557 52.8267 71.789 53.5787 71.789 54.4C71.789 55.2213 71.6557 55.9787 71.389 56.672C71.1223 57.3547 70.7383 57.9467 70.237 58.448C69.7463 58.9387 69.1597 59.3227 68.477 59.6C67.7943 59.8667 67.0423 60 66.221 60H61.533ZM64.253 58.144L63.885 57.6H66.141C66.589 57.6 66.989 57.5253 67.341 57.376C67.693 57.216 67.9917 56.9973 68.237 56.72C68.493 56.4427 68.6903 56.1067 68.829 55.712C68.9677 55.3173 69.037 54.88 69.037 54.4C69.037 53.92 68.9677 53.4827 68.829 53.088C68.6903 52.6933 68.493 52.3573 68.237 52.08C67.9917 51.8027 67.693 51.5893 67.341 51.44C66.989 51.28 66.589 51.2 66.141 51.2H63.837L64.253 50.688V58.144ZM73.434 60V57.712H75.322V51.088H73.434V48.8H79.946V51.088H78.042V57.712H79.946V60H73.434ZM81.109 60L85.541 48.8H87.845L92.245 60H89.493L87.381 54.32C87.2957 54.096 87.2103 53.856 87.125 53.6C87.0397 53.344 86.9543 53.0827 86.869 52.816C86.7837 52.5387 86.6983 52.272 86.613 52.016C86.5383 51.7493 86.4743 51.504 86.421 51.28L86.901 51.264C86.837 51.5307 86.7623 51.792 86.677 52.048C86.6023 52.304 86.5223 52.56 86.437 52.816C86.3623 53.0613 86.277 53.312 86.181 53.568C86.085 53.8133 85.9943 54.0693 85.909 54.336L83.797 60H81.109ZM83.221 57.856L84.069 55.808H89.221L90.053 57.856H83.221ZM38.0653 80.16C37.3293 80.16 36.6626 80.0747 36.0653 79.904C35.4786 79.7227 34.956 79.4667 34.4973 79.136C34.0386 78.7947 33.628 78.3947 33.2653 77.936L34.9133 76.064C35.4466 76.7787 35.98 77.2587 36.5133 77.504C37.0573 77.7493 37.6173 77.872 38.1933 77.872C38.4813 77.872 38.7426 77.8347 38.9773 77.76C39.212 77.6853 39.3933 77.5787 39.5213 77.44C39.6493 77.2907 39.7133 77.1093 39.7133 76.896C39.7133 76.736 39.6706 76.592 39.5853 76.464C39.5106 76.336 39.404 76.224 39.2653 76.128C39.1266 76.032 38.9613 75.9467 38.7693 75.872C38.5773 75.7867 38.3746 75.7173 38.1613 75.664C37.948 75.6 37.7293 75.5467 37.5053 75.504C36.8866 75.3653 36.348 75.1947 35.8893 74.992C35.4306 74.7893 35.0466 74.544 34.7373 74.256C34.4386 73.9573 34.2146 73.6213 34.0653 73.248C33.916 72.864 33.8413 72.4373 33.8413 71.968C33.8413 71.4667 33.9533 71.008 34.1773 70.592C34.412 70.1653 34.7213 69.8027 35.1053 69.504C35.5 69.1947 35.9533 68.96 36.4653 68.8C36.9773 68.6293 37.5106 68.544 38.0653 68.544C38.8013 68.544 39.4306 68.624 39.9533 68.784C40.4866 68.9333 40.94 69.152 41.3133 69.44C41.6973 69.728 42.0226 70.0747 42.2893 70.48L40.6093 72.096C40.3853 71.8187 40.14 71.5893 39.8733 71.408C39.6173 71.2267 39.34 71.088 39.0413 70.992C38.7533 70.896 38.4546 70.848 38.1453 70.848C37.8253 70.848 37.548 70.8907 37.3133 70.976C37.0893 71.0507 36.9133 71.1627 36.7853 71.312C36.6573 71.4507 36.5933 71.6213 36.5933 71.824C36.5933 72.0053 36.6466 72.16 36.7533 72.288C36.86 72.416 37.004 72.5333 37.1853 72.64C37.3666 72.736 37.5746 72.8213 37.8093 72.896C38.044 72.96 38.2893 73.0133 38.5453 73.056C39.132 73.1733 39.66 73.328 40.1293 73.52C40.6093 73.712 41.02 73.9467 41.3613 74.224C41.7133 74.5013 41.98 74.832 42.1613 75.216C42.3533 75.5893 42.4493 76.0267 42.4493 76.528C42.4493 77.3067 42.2573 77.968 41.8733 78.512C41.5 79.0453 40.9826 79.456 40.3213 79.744C39.6706 80.0213 38.9186 80.16 38.0653 80.16ZM44.4939 80V68.8H52.3019V71.12H47.1339V77.68H52.4619V80H44.4939ZM45.7739 75.408V73.2H51.5819V75.408H45.7739ZM54.8064 80V68.8H57.5264V77.6H62.5184V80H54.8064ZM64.5564 80V68.8H72.3644V71.12H67.1964V77.68H72.5244V80H64.5564ZM65.8364 75.408V73.2H71.6444V75.408H65.8364ZM79.9569 80.16C79.1143 80.16 78.3356 80.0213 77.6209 79.744C76.9169 79.456 76.3036 79.056 75.7809 78.544C75.2583 78.0213 74.8529 77.408 74.5649 76.704C74.2876 75.9893 74.1489 75.2053 74.1489 74.352C74.1489 73.52 74.2983 72.752 74.5969 72.048C74.8956 71.344 75.3063 70.736 75.8289 70.224C76.3623 69.7013 76.9863 69.296 77.7009 69.008C78.4263 68.72 79.2156 68.576 80.0689 68.576C80.6023 68.576 81.1249 68.6453 81.6369 68.784C82.1489 68.9227 82.6236 69.1307 83.0609 69.408C83.5089 69.6747 83.8929 69.9947 84.2129 70.368L82.5489 72.272C82.3249 72.0373 82.0849 71.8347 81.8289 71.664C81.5836 71.4827 81.3116 71.344 81.0129 71.248C80.7143 71.152 80.3943 71.104 80.0529 71.104C79.6263 71.104 79.2209 71.184 78.8369 71.344C78.4636 71.4933 78.1329 71.712 77.8449 72C77.5676 72.2773 77.3489 72.6187 77.1889 73.024C77.0289 73.4293 76.9489 73.8827 76.9489 74.384C76.9489 74.8747 77.0289 75.3227 77.1889 75.728C77.3489 76.1227 77.5729 76.464 77.8609 76.752C78.1489 77.04 78.4956 77.2587 78.9009 77.408C79.3169 77.5573 79.7756 77.632 80.2769 77.632C80.6183 77.632 80.9436 77.584 81.2529 77.488C81.5623 77.392 81.8449 77.264 82.1009 77.104C82.3676 76.9333 82.6023 76.7413 82.8049 76.528L84.1169 78.608C83.8503 78.9067 83.4929 79.1733 83.0449 79.408C82.6076 79.6427 82.1169 79.8293 81.5729 79.968C81.0396 80.096 80.5009 80.16 79.9569 80.16ZM88.4103 80V71.2H85.0823V68.8H94.5383V71.2H91.1303V80H88.4103Z" fill="#FBFEF9"/>
</svg>
