<svg width="128" height="128" viewBox="0 0 128 128" fill="none" xmlns="http://www.w3.org/2000/svg">
<path d="M52 19H76H96C103.18 19 109 24.8203 109 32V35.2V54.4V96C109 103.18 103.18 109 96 109H76H64H52H32C24.8203 109 19 103.18 19 96V54.4V32C19 24.8203 24.8203 19 32 19H52Z" stroke="#C8CED0" stroke-width="6"/>
<path d="M37.191 76V53.6H46.855C48.263 53.6 49.511 53.92 50.599 54.56C51.7083 55.2 52.583 56.0747 53.223 57.184C53.8843 58.2933 54.215 59.5413 54.215 60.928C54.215 62.3787 53.8843 63.68 53.223 64.832C52.583 65.9627 51.7083 66.8587 50.599 67.52C49.511 68.1813 48.263 68.512 46.855 68.512H42.631V76H37.191ZM42.535 63.744H46.087C46.5563 63.744 46.983 63.6267 47.367 63.392C47.751 63.1573 48.0603 62.8373 48.295 62.432C48.5297 62.0267 48.647 61.5573 48.647 61.024C48.647 60.4693 48.5297 60 48.295 59.616C48.0603 59.232 47.751 58.9333 47.367 58.72C46.983 58.5067 46.5563 58.4 46.087 58.4H42.535V63.744ZM53.4367 76L62.3008 53.6H66.9088L75.7088 76H70.2048L65.9808 64.64C65.8101 64.192 65.6394 63.712 65.4688 63.2C65.2981 62.688 65.1274 62.1653 64.9568 61.632C64.7861 61.0773 64.6154 60.544 64.4448 60.032C64.2954 59.4987 64.1674 59.008 64.0608 58.56L65.0208 58.528C64.8928 59.0613 64.7434 59.584 64.5728 60.096C64.4234 60.608 64.2634 61.12 64.0928 61.632C63.9434 62.1227 63.7728 62.624 63.5808 63.136C63.3888 63.6267 63.2074 64.1387 63.0368 64.672L58.8128 76H53.4367ZM57.6608 71.712L59.3568 67.616H69.6608L71.3248 71.712H57.6608ZM82.4395 74.432V56.256L83.6235 58.976L78.8235 61.248L77.8955 56.384L84.2635 53.28H87.7835V74.432H82.4395ZM78.3435 76V71.2H91.9755V76H78.3435Z" fill="#FBFEF9"/>
</svg>
