<svg width="128" height="128" viewBox="0 0 128 128" fill="none" xmlns="http://www.w3.org/2000/svg">
<path d="M52 19H76H96C103.18 19 109 24.8203 109 32V35.2V54.4V96C109 103.18 103.18 109 96 109H76H64H52H32C24.8203 109 19 103.18 19 96V54.4V32C19 24.8203 24.8203 19 32 19H52Z" stroke="#C8CED0" stroke-width="6"/>
<path d="M38.4566 72.2C37.5366 72.2 36.7033 72.0933 35.9566 71.88C35.2233 71.6533 34.57 71.3333 33.9966 70.92C33.4233 70.4933 32.91 69.9933 32.4566 69.42L34.5166 67.08C35.1833 67.9733 35.85 68.5733 36.5166 68.88C37.1966 69.1867 37.8966 69.34 38.6166 69.34C38.9766 69.34 39.3033 69.2933 39.5966 69.2C39.89 69.1067 40.1166 68.9733 40.2766 68.8C40.4366 68.6133 40.5166 68.3867 40.5166 68.12C40.5166 67.92 40.4633 67.74 40.3566 67.58C40.2633 67.42 40.13 67.28 39.9566 67.16C39.7833 67.04 39.5766 66.9333 39.3366 66.84C39.0966 66.7333 38.8433 66.6467 38.5766 66.58C38.31 66.5 38.0366 66.4333 37.7566 66.38C36.9833 66.2067 36.31 65.9933 35.7366 65.74C35.1633 65.4867 34.6833 65.18 34.2966 64.82C33.9233 64.4467 33.6433 64.0267 33.4566 63.56C33.27 63.08 33.1766 62.5467 33.1766 61.96C33.1766 61.3333 33.3166 60.76 33.5966 60.24C33.89 59.7067 34.2766 59.2533 34.7566 58.88C35.25 58.4933 35.8166 58.2 36.4566 58C37.0966 57.7867 37.7633 57.68 38.4566 57.68C39.3766 57.68 40.1633 57.78 40.8166 57.98C41.4833 58.1667 42.05 58.44 42.5166 58.8C42.9966 59.16 43.4033 59.5933 43.7366 60.1L41.6366 62.12C41.3566 61.7733 41.05 61.4867 40.7166 61.26C40.3966 61.0333 40.05 60.86 39.6766 60.74C39.3166 60.62 38.9433 60.56 38.5566 60.56C38.1566 60.56 37.81 60.6133 37.5166 60.72C37.2366 60.8133 37.0166 60.9533 36.8566 61.14C36.6966 61.3133 36.6166 61.5267 36.6166 61.78C36.6166 62.0067 36.6833 62.2 36.8166 62.36C36.95 62.52 37.13 62.6667 37.3566 62.8C37.5833 62.92 37.8433 63.0267 38.1366 63.12C38.43 63.2 38.7366 63.2667 39.0566 63.32C39.79 63.4667 40.45 63.66 41.0366 63.9C41.6366 64.14 42.15 64.4333 42.5766 64.78C43.0166 65.1267 43.35 65.54 43.5766 66.02C43.8166 66.4867 43.9366 67.0333 43.9366 67.66C43.9366 68.6333 43.6966 69.46 43.2166 70.14C42.75 70.8067 42.1033 71.32 41.2766 71.68C40.4633 72.0267 39.5233 72.2 38.4566 72.2ZM46.4924 72V58H49.8924V69H56.1324V72H46.4924ZM58.6799 72V58H68.4399V60.9H61.9799V69.1H68.6399V72H58.6799ZM60.2799 66.26V63.5H67.5399V66.26H60.2799ZM71.5705 72V58H81.3305V60.9H74.8705V69.1H81.5305V72H71.5705ZM73.1705 66.26V63.5H80.4305V66.26H73.1705ZM84.4612 72V58H90.5012C91.3812 58 92.1612 58.2 92.8412 58.6C93.5345 59 94.0812 59.5467 94.4812 60.24C94.8945 60.9333 95.1012 61.7133 95.1012 62.58C95.1012 63.4867 94.8945 64.3 94.4812 65.02C94.0812 65.7267 93.5345 66.2867 92.8412 66.7C92.1612 67.1133 91.3812 67.32 90.5012 67.32H87.8612V72H84.4612ZM87.8012 64.34H90.0212C90.3145 64.34 90.5812 64.2667 90.8212 64.12C91.0612 63.9733 91.2545 63.7733 91.4012 63.52C91.5478 63.2667 91.6212 62.9733 91.6212 62.64C91.6212 62.2933 91.5478 62 91.4012 61.76C91.2545 61.52 91.0612 61.3333 90.8212 61.2C90.5812 61.0667 90.3145 61 90.0212 61H87.8012V64.34Z" fill="#FBFEF9"/>
</svg>
