<svg width="128" height="128" viewBox="0 0 128 128" fill="none" xmlns="http://www.w3.org/2000/svg">
<g clip-path="url(#clip0_123_9003)">
<path d="M34.2487 48H10C6.13401 48 3 51.134 3 55V64V73C3 76.866 6.13401 80 10 80H34.2487C36.2024 80 38.0672 79.1835 39.3923 77.748L47.7 68.748C50.1752 66.0665 50.1752 61.9335 47.7 59.252L39.3923 50.252C38.0672 48.8165 36.2024 48 34.2487 48Z" stroke="#2E2836" stroke-width="6"/>
<path d="M50.252 88.6077L52.2869 90.8121L50.252 88.6077C48.8165 89.9328 48 91.7976 48 93.7513V118C48 121.866 51.134 125 55 125H64H73C76.866 125 80 121.866 80 118V93.7513C80 91.7976 79.1835 89.9328 77.748 88.6077L68.748 80.3C66.0665 77.8248 61.9335 77.8248 59.252 80.3L50.252 88.6077Z" stroke="#2E2836" stroke-width="6"/>
<path d="M88.6077 50.252L90.8121 52.2869L88.6077 50.252L80.3 59.252C77.8248 61.9335 77.8248 66.0665 80.3 68.748L88.6077 77.748C89.9328 79.1835 91.7976 80 93.7513 80H118C121.866 80 125 76.866 125 73V64V55C125 51.134 121.866 48 118 48H93.7513C91.7976 48 89.9329 48.8165 88.6077 50.252Z" stroke="#2E2836" stroke-width="6"/>
<path d="M48 10V34.2487C48 36.2024 48.8165 38.0672 50.252 39.3923L59.252 47.7C61.9335 50.1752 66.0665 50.1752 68.748 47.7L77.748 39.3923C79.1835 38.0671 80 36.2024 80 34.2487V10C80 6.13401 76.866 3 73 3H64H55C51.134 3 48 6.13401 48 10Z" stroke="#2E2836" stroke-width="6"/>
<path d="M10 54H34.2487C34.5278 54 34.7942 54.1166 34.9835 54.3217L43.2912 63.3217C43.6448 63.7048 43.6448 64.2952 43.2912 64.6783L34.9835 73.6783C34.7942 73.8834 34.5278 74 34.2487 74H10C9.44772 74 9 73.5523 9 73V64V55C9 54.4477 9.44772 54 10 54Z" fill="#191923" stroke="#C8CED0" stroke-width="6"/>
<path d="M74 93.7513V118C74 118.552 73.5523 119 73 119H64H55C54.4477 119 54 118.552 54 118V93.7513C54 93.4722 54.1166 93.2058 54.3217 93.0165L63.3217 84.7088C63.7048 84.3552 64.2952 84.3552 64.6783 84.7088L73.6783 93.0165C73.8834 93.2058 74 93.4722 74 93.7513Z" fill="#191923" stroke="#C8CED0" stroke-width="6"/>
</g>
<defs>
<clipPath id="clip0_123_9003">
<rect width="128" height="128" fill="white"/>
</clipPath>
</defs>
</svg>
