<svg width="128" height="128" viewBox="0 0 128 128" fill="none" xmlns="http://www.w3.org/2000/svg">
<path d="M76 31H52H20C19.4477 31 19 31.4477 19 32V40V52V84C19 84.5523 19.4477 85 20 85H52H64H76H108C108.552 85 109 84.5523 109 84V52C109 40.402 99.598 31 88 31H76Z" fill="#FBFEF9" stroke="#C8CED0" stroke-width="6"/>
<path d="M38.4444 70V47.6H50.8604C52.5884 47.6 54.0604 47.8987 55.2764 48.496C56.5137 49.072 57.463 49.904 58.1244 50.992C58.807 52.0587 59.1484 53.3173 59.1484 54.768C59.1484 56.1973 58.775 57.4773 58.0284 58.608C57.303 59.7387 56.311 60.6347 55.0524 61.296C53.815 61.936 52.4177 62.256 50.8604 62.256H43.6284V70H38.4444ZM54.0924 70L46.8604 59.888L52.5244 59.088L60.3964 70H54.0924ZM43.6284 58.096H50.2524C50.871 58.096 51.4364 57.968 51.9484 57.712C52.4604 57.456 52.8764 57.104 53.1964 56.656C53.5164 56.1867 53.6764 55.6427 53.6764 55.024C53.6764 54.448 53.5164 53.9467 53.1964 53.52C52.8764 53.072 52.4497 52.7307 51.9164 52.496C51.383 52.2613 50.775 52.144 50.0924 52.144H43.6284V58.096ZM69.0069 70V47.6H81.1989C83.0762 47.6 84.6655 47.824 85.9669 48.272C87.2682 48.72 88.2389 49.3493 88.8789 50.16C89.5402 50.9707 89.8709 51.952 89.8709 53.104C89.8709 54.3413 89.5082 55.408 88.7829 56.304C88.0575 57.1787 86.9695 57.7867 85.5189 58.128L85.6469 57.552C86.6069 57.7653 87.4922 58.1067 88.3029 58.576C89.1349 59.0453 89.7962 59.664 90.2869 60.432C90.7989 61.2 91.0549 62.128 91.0549 63.216C91.0549 64.5387 90.7882 65.6373 90.2549 66.512C89.7215 67.3653 89.0069 68.048 88.1109 68.56C87.2149 69.072 86.2229 69.4453 85.1349 69.68C84.0682 69.8933 83.0015 70 81.9349 70H69.0069ZM74.1269 65.456H81.9989C82.7242 65.456 83.3535 65.3707 83.8869 65.2C84.4415 65.0293 84.8789 64.7627 85.1989 64.4C85.5402 64.016 85.7109 63.536 85.7109 62.96C85.7109 62.3413 85.5082 61.8613 85.1029 61.52C84.6975 61.1573 84.1962 60.9013 83.5989 60.752C83.0015 60.6027 82.4149 60.528 81.8389 60.528H74.1269V65.456ZM74.1269 56.432H81.1029C81.7855 56.432 82.3829 56.3467 82.8949 56.176C83.4069 56.0053 83.8015 55.76 84.0789 55.44C84.3775 55.12 84.5269 54.7147 84.5269 54.224C84.5269 53.4987 84.1855 52.976 83.5029 52.656C82.8202 52.3147 81.9562 52.144 80.9109 52.144H74.1269V56.432Z" fill="#191923"/>
</svg>
